%TF.GenerationSoftware,KiCad,Pcbnew,9.0.1*%
%TF.CreationDate,2025-06-09T16:31:51+02:00*%
%TF.ProjectId,MY-ESP32,4d592d45-5350-4333-922e-6b696361645f,rev?*%
%TF.SameCoordinates,Original*%
%TF.FileFunction,Paste,Top*%
%TF.FilePolarity,Positive*%
%FSLAX46Y46*%
G04 Gerber Fmt 4.6, Leading zero omitted, Abs format (unit mm)*
G04 Created by KiCad (PCBNEW 9.0.1) date 2025-06-09 16:31:51*
%MOMM*%
%LPD*%
G01*
G04 APERTURE LIST*
G04 Aperture macros list*
%AMRoundRect*
0 Rectangle with rounded corners*
0 $1 Rounding radius*
0 $2 $3 $4 $5 $6 $7 $8 $9 X,Y pos of 4 corners*
0 Add a 4 corners polygon primitive as box body*
4,1,4,$2,$3,$4,$5,$6,$7,$8,$9,$2,$3,0*
0 Add four circle primitives for the rounded corners*
1,1,$1+$1,$2,$3*
1,1,$1+$1,$4,$5*
1,1,$1+$1,$6,$7*
1,1,$1+$1,$8,$9*
0 Add four rect primitives between the rounded corners*
20,1,$1+$1,$2,$3,$4,$5,0*
20,1,$1+$1,$4,$5,$6,$7,0*
20,1,$1+$1,$6,$7,$8,$9,0*
20,1,$1+$1,$8,$9,$2,$3,0*%
%AMFreePoly0*
4,1,21,-0.180000,0.885000,0.180000,0.885000,0.180000,1.715000,0.470000,1.715000,0.470000,0.885000,0.760000,0.885000,0.760000,-0.885000,0.470000,-0.885000,0.470000,-1.705000,0.180000,-1.705000,0.180000,-0.885000,-0.180000,-0.885000,-0.180000,-1.705000,-0.470000,-1.705000,-0.470000,-0.885000,-0.760000,-0.885000,-0.760000,0.895000,-0.470000,0.895000,-0.470000,1.715000,-0.180000,1.715000,
-0.180000,0.885000,-0.180000,0.885000,$1*%
G04 Aperture macros list end*
%ADD10C,0.000000*%
%ADD11R,1.207500X1.701000*%
%ADD12R,1.250000X0.700000*%
%ADD13R,2.300000X1.400000*%
%ADD14RoundRect,0.125000X0.125000X-0.125000X0.125000X0.125000X-0.125000X0.125000X-0.125000X-0.125000X0*%
%ADD15R,0.790000X0.540000*%
%ADD16RoundRect,0.250000X-0.475000X0.337500X-0.475000X-0.337500X0.475000X-0.337500X0.475000X0.337500X0*%
%ADD17R,0.800000X0.800000*%
%ADD18RoundRect,0.250000X-0.450000X0.350000X-0.450000X-0.350000X0.450000X-0.350000X0.450000X0.350000X0*%
%ADD19RoundRect,0.250000X0.450000X-0.350000X0.450000X0.350000X-0.450000X0.350000X-0.450000X-0.350000X0*%
%ADD20RoundRect,0.225000X-0.225000X-0.225000X0.225000X-0.225000X0.225000X0.225000X-0.225000X0.225000X0*%
%ADD21RoundRect,0.062500X-0.337500X-0.062500X0.337500X-0.062500X0.337500X0.062500X-0.337500X0.062500X0*%
%ADD22RoundRect,0.062500X-0.062500X-0.337500X0.062500X-0.337500X0.062500X0.337500X-0.062500X0.337500X0*%
%ADD23R,0.540000X0.565500*%
%ADD24R,1.410000X1.350000*%
%ADD25RoundRect,0.150000X0.150000X-0.512500X0.150000X0.512500X-0.150000X0.512500X-0.150000X-0.512500X0*%
%ADD26O,0.280000X0.800000*%
%ADD27O,0.800000X0.280000*%
%ADD28R,1.500000X1.500000*%
%ADD29R,0.900000X0.800000*%
%ADD30R,2.124000X3.820000*%
%ADD31R,2.000000X0.900000*%
%ADD32R,1.330000X1.330000*%
%ADD33RoundRect,0.250000X-0.337500X-0.475000X0.337500X-0.475000X0.337500X0.475000X-0.337500X0.475000X0*%
%ADD34R,1.600000X0.700000*%
%ADD35R,1.500000X1.200000*%
%ADD36R,2.200000X1.200000*%
%ADD37R,1.500000X1.600000*%
%ADD38R,3.900000X1.450000*%
%ADD39R,0.240000X0.850000*%
%ADD40R,0.230000X0.800000*%
%ADD41FreePoly0,270.000000*%
%ADD42RoundRect,0.125000X-0.125000X0.125000X-0.125000X-0.125000X0.125000X-0.125000X0.125000X0.125000X0*%
%ADD43R,0.700000X1.250000*%
%ADD44R,1.350000X1.410000*%
%ADD45R,1.300000X0.600000*%
%ADD46R,1.300000X0.300000*%
%ADD47RoundRect,0.250000X0.475000X-0.337500X0.475000X0.337500X-0.475000X0.337500X-0.475000X-0.337500X0*%
%ADD48RoundRect,0.125000X0.125000X0.125000X-0.125000X0.125000X-0.125000X-0.125000X0.125000X-0.125000X0*%
%ADD49RoundRect,0.250000X-0.350000X-0.450000X0.350000X-0.450000X0.350000X0.450000X-0.350000X0.450000X0*%
%ADD50R,1.070000X0.600000*%
%ADD51R,0.565500X0.540000*%
G04 APERTURE END LIST*
D10*
%TO.C,R12*%
G36*
X36311150Y-69236900D02*
G01*
X36311150Y-69598400D01*
X36211150Y-69698400D01*
X36000650Y-69698400D01*
X35900650Y-69798400D01*
X35900650Y-70176400D01*
X36000650Y-70276400D01*
X36211150Y-70276400D01*
X36311150Y-70376400D01*
X36311150Y-70737900D01*
X36211150Y-70837900D01*
X35203650Y-70837900D01*
X35103650Y-70737900D01*
X35103650Y-69236900D01*
X35203650Y-69136900D01*
X36211150Y-69136900D01*
X36311150Y-69236900D01*
G37*
G36*
X39268650Y-69236900D02*
G01*
X39268650Y-70737900D01*
X39168650Y-70837900D01*
X38161150Y-70837900D01*
X38061150Y-70737900D01*
X38061150Y-70376400D01*
X38161150Y-70276400D01*
X38371650Y-70276400D01*
X38471650Y-70176400D01*
X38471650Y-69798400D01*
X38371650Y-69698400D01*
X38161150Y-69698400D01*
X38061150Y-69598400D01*
X38061150Y-69236900D01*
X38161150Y-69136900D01*
X39168650Y-69136900D01*
X39268650Y-69236900D01*
G37*
%TO.C,R24*%
G36*
X100326000Y-39496000D02*
G01*
X100326000Y-39946000D01*
X100256000Y-39996000D01*
X99776000Y-39996000D01*
X99726000Y-39946000D01*
X99726000Y-39496000D01*
X99776000Y-39446000D01*
X100256000Y-39446000D01*
X100326000Y-39496000D01*
G37*
G36*
X101286000Y-39496000D02*
G01*
X101286000Y-39946000D01*
X101236000Y-39996000D01*
X100756000Y-39996000D01*
X100686000Y-39946000D01*
X100686000Y-39496000D01*
X100756000Y-39446000D01*
X101236000Y-39446000D01*
X101286000Y-39496000D01*
G37*
%TO.C,C12*%
G36*
X42260600Y-66142400D02*
G01*
X42260600Y-66592400D01*
X42190600Y-66642400D01*
X41710600Y-66642400D01*
X41660600Y-66592400D01*
X41660600Y-66142400D01*
X41710600Y-66092400D01*
X42190600Y-66092400D01*
X42260600Y-66142400D01*
G37*
G36*
X43220600Y-66142400D02*
G01*
X43220600Y-66592400D01*
X43170600Y-66642400D01*
X42690600Y-66642400D01*
X42620600Y-66592400D01*
X42620600Y-66142400D01*
X42690600Y-66092400D01*
X43170600Y-66092400D01*
X43220600Y-66142400D01*
G37*
%TO.C,C13*%
G36*
X38176150Y-65393600D02*
G01*
X38176150Y-65843600D01*
X38106150Y-65893600D01*
X37626150Y-65893600D01*
X37576150Y-65843600D01*
X37576150Y-65393600D01*
X37626150Y-65343600D01*
X38106150Y-65343600D01*
X38176150Y-65393600D01*
G37*
G36*
X39136150Y-65393600D02*
G01*
X39136150Y-65843600D01*
X39086150Y-65893600D01*
X38606150Y-65893600D01*
X38536150Y-65843600D01*
X38536150Y-65393600D01*
X38606150Y-65343600D01*
X39086150Y-65343600D01*
X39136150Y-65393600D01*
G37*
%TO.C,R23*%
G36*
X103156000Y-50800800D02*
G01*
X103156000Y-51250800D01*
X103086000Y-51300800D01*
X102606000Y-51300800D01*
X102556000Y-51250800D01*
X102556000Y-50800800D01*
X102606000Y-50750800D01*
X103086000Y-50750800D01*
X103156000Y-50800800D01*
G37*
G36*
X104116000Y-50800800D02*
G01*
X104116000Y-51250800D01*
X104066000Y-51300800D01*
X103586000Y-51300800D01*
X103516000Y-51250800D01*
X103516000Y-50800800D01*
X103586000Y-50750800D01*
X104066000Y-50750800D01*
X104116000Y-50800800D01*
G37*
%TO.C,R11*%
G36*
X37766750Y-59480900D02*
G01*
X37766750Y-59981400D01*
X37726750Y-60021400D01*
X37266750Y-60021400D01*
X37226750Y-59981400D01*
X37226750Y-59480900D01*
X37266750Y-59440900D01*
X37726750Y-59440900D01*
X37766750Y-59480900D01*
G37*
G36*
X37766750Y-60331400D02*
G01*
X37766750Y-60831900D01*
X37726750Y-60871900D01*
X37266750Y-60871900D01*
X37226750Y-60831900D01*
X37226750Y-60331400D01*
X37266750Y-60291400D01*
X37726750Y-60291400D01*
X37766750Y-60331400D01*
G37*
%TO.C,C11*%
G36*
X41546950Y-68382200D02*
G01*
X41551950Y-68792200D01*
X41101950Y-68792200D01*
X41101950Y-69242200D01*
X41541950Y-69242200D01*
X41546950Y-69662200D01*
X41496950Y-69712200D01*
X40346950Y-69712200D01*
X40296950Y-69662200D01*
X40296950Y-68382200D01*
X40346950Y-68332200D01*
X41496950Y-68332200D01*
X41546950Y-68382200D01*
G37*
G36*
X43706950Y-68382200D02*
G01*
X43706950Y-69662200D01*
X43656950Y-69712200D01*
X42506950Y-69712200D01*
X42456950Y-69662200D01*
X42451950Y-69252200D01*
X42901950Y-69252200D01*
X42901950Y-68802200D01*
X42461950Y-68802200D01*
X42456950Y-68382200D01*
X42506950Y-68332200D01*
X43656950Y-68332200D01*
X43706950Y-68382200D01*
G37*
%TO.C,U7*%
G36*
X40813150Y-63428600D02*
G01*
X39613150Y-63428600D01*
X39613150Y-62228600D01*
X40813150Y-62228600D01*
X40813150Y-63428600D01*
G37*
G36*
X38988650Y-61938600D02*
G01*
X38996150Y-61939600D01*
X39003650Y-61941100D01*
X39011150Y-61943100D01*
X39018650Y-61945600D01*
X39025650Y-61948100D01*
X39032650Y-61951100D01*
X39039650Y-61954600D01*
X39046650Y-61958600D01*
X39053150Y-61962600D01*
X39059150Y-61967600D01*
X39065150Y-61972100D01*
X39070650Y-61977600D01*
X39076150Y-61983100D01*
X39081150Y-61989100D01*
X39086150Y-61995100D01*
X39090150Y-62001100D01*
X39094650Y-62008100D01*
X39098150Y-62014600D01*
X39101150Y-62021600D01*
X39104150Y-62028600D01*
X39106650Y-62036100D01*
X39108650Y-62043600D01*
X39110650Y-62051100D01*
X39111650Y-62058600D01*
X39112650Y-62066100D01*
X39113150Y-62074100D01*
X39113150Y-62081600D01*
X39112650Y-62089600D01*
X39111650Y-62097100D01*
X39110650Y-62104600D01*
X39108650Y-62112100D01*
X39106650Y-62119600D01*
X39104150Y-62127100D01*
X39101150Y-62134100D01*
X39098150Y-62141100D01*
X39094650Y-62148100D01*
X39090150Y-62154600D01*
X39086150Y-62160600D01*
X39081150Y-62167100D01*
X39076150Y-62172600D01*
X39070650Y-62178100D01*
X39065150Y-62183600D01*
X39059150Y-62188600D01*
X39053150Y-62193100D01*
X39046650Y-62197100D01*
X39039650Y-62201100D01*
X39032650Y-62204600D01*
X39025650Y-62207600D01*
X39018650Y-62210100D01*
X39011150Y-62212600D01*
X39003650Y-62214600D01*
X38996150Y-62216100D01*
X38988650Y-62217100D01*
X38980650Y-62217600D01*
X38973150Y-62218100D01*
X38453150Y-62218100D01*
X38445650Y-62217600D01*
X38437650Y-62217100D01*
X38430150Y-62216100D01*
X38422650Y-62214600D01*
X38415150Y-62212600D01*
X38407650Y-62210100D01*
X38400650Y-62207600D01*
X38393650Y-62204600D01*
X38386650Y-62201100D01*
X38379650Y-62197100D01*
X38373150Y-62193100D01*
X38367150Y-62188600D01*
X38361150Y-62183600D01*
X38355650Y-62178100D01*
X38350150Y-62172600D01*
X38345150Y-62167100D01*
X38340150Y-62160600D01*
X38336150Y-62154600D01*
X38331650Y-62148100D01*
X38328150Y-62141100D01*
X38325150Y-62134100D01*
X38322150Y-62127100D01*
X38319650Y-62119600D01*
X38317650Y-62112100D01*
X38315650Y-62104600D01*
X38314650Y-62097100D01*
X38313650Y-62089600D01*
X38313150Y-62081600D01*
X38313150Y-62074100D01*
X38313650Y-62066100D01*
X38314650Y-62058600D01*
X38315650Y-62051100D01*
X38317650Y-62043600D01*
X38319650Y-62036100D01*
X38322150Y-62028600D01*
X38325150Y-62021600D01*
X38328150Y-62014600D01*
X38331650Y-62008100D01*
X38336150Y-62001100D01*
X38340150Y-61995100D01*
X38345150Y-61989100D01*
X38350150Y-61983100D01*
X38355650Y-61977600D01*
X38361150Y-61972100D01*
X38367150Y-61967600D01*
X38373150Y-61962600D01*
X38379650Y-61958600D01*
X38386650Y-61954600D01*
X38393650Y-61951100D01*
X38400650Y-61948100D01*
X38407650Y-61945600D01*
X38415150Y-61943100D01*
X38422650Y-61941100D01*
X38430150Y-61939600D01*
X38437650Y-61938600D01*
X38445650Y-61938100D01*
X38453150Y-61938100D01*
X38973150Y-61938100D01*
X38980650Y-61938100D01*
X38988650Y-61938600D01*
G37*
G36*
X38988650Y-62439100D02*
G01*
X38996150Y-62440100D01*
X39003650Y-62441600D01*
X39011150Y-62443100D01*
X39018650Y-62445600D01*
X39025650Y-62448100D01*
X39032650Y-62451600D01*
X39039650Y-62455100D01*
X39046650Y-62458600D01*
X39053150Y-62463100D01*
X39059150Y-62467600D01*
X39065150Y-62472600D01*
X39070650Y-62477600D01*
X39076150Y-62483100D01*
X39081150Y-62489100D01*
X39086150Y-62495100D01*
X39090150Y-62501600D01*
X39094650Y-62508100D01*
X39098150Y-62514600D01*
X39101150Y-62521600D01*
X39104150Y-62529100D01*
X39106650Y-62536100D01*
X39108650Y-62543600D01*
X39110650Y-62551100D01*
X39111650Y-62558600D01*
X39112650Y-62566600D01*
X39113150Y-62574100D01*
X39113150Y-62582100D01*
X39112650Y-62589600D01*
X39111650Y-62597100D01*
X39110650Y-62605100D01*
X39108650Y-62612600D01*
X39106650Y-62619600D01*
X39104150Y-62627100D01*
X39101150Y-62634100D01*
X39098150Y-62641100D01*
X39094650Y-62648100D01*
X39090150Y-62654600D01*
X39086150Y-62661100D01*
X39081150Y-62667100D01*
X39076150Y-62672600D01*
X39070650Y-62678600D01*
X39065150Y-62683600D01*
X39059150Y-62688600D01*
X39053150Y-62693100D01*
X39046650Y-62697100D01*
X39039650Y-62701100D01*
X39032650Y-62704600D01*
X39025650Y-62707600D01*
X39018650Y-62710600D01*
X39011150Y-62712600D01*
X39003650Y-62714600D01*
X38996150Y-62716100D01*
X38988650Y-62717100D01*
X38980650Y-62717600D01*
X38973150Y-62718100D01*
X38453150Y-62718100D01*
X38445650Y-62717600D01*
X38437650Y-62717100D01*
X38430150Y-62716100D01*
X38422650Y-62714600D01*
X38415150Y-62712600D01*
X38407650Y-62710600D01*
X38400650Y-62707600D01*
X38393650Y-62704600D01*
X38386650Y-62701100D01*
X38379650Y-62697100D01*
X38373150Y-62693100D01*
X38367150Y-62688600D01*
X38361150Y-62683600D01*
X38355650Y-62678600D01*
X38350150Y-62672600D01*
X38345150Y-62667100D01*
X38340150Y-62661100D01*
X38336150Y-62654600D01*
X38331650Y-62648100D01*
X38328150Y-62641100D01*
X38325150Y-62634100D01*
X38322150Y-62627100D01*
X38319650Y-62619600D01*
X38317650Y-62612600D01*
X38315650Y-62605100D01*
X38314650Y-62597100D01*
X38313650Y-62589600D01*
X38313150Y-62582100D01*
X38313150Y-62574100D01*
X38313650Y-62566600D01*
X38314650Y-62558600D01*
X38315650Y-62551100D01*
X38317650Y-62543600D01*
X38319650Y-62536100D01*
X38322150Y-62529100D01*
X38325150Y-62521600D01*
X38328150Y-62514600D01*
X38331650Y-62508100D01*
X38336150Y-62501600D01*
X38340150Y-62495100D01*
X38345150Y-62489100D01*
X38350150Y-62483100D01*
X38355650Y-62477600D01*
X38361150Y-62472600D01*
X38367150Y-62467600D01*
X38373150Y-62463100D01*
X38379650Y-62458600D01*
X38386650Y-62455100D01*
X38393650Y-62451600D01*
X38400650Y-62448100D01*
X38407650Y-62445600D01*
X38415150Y-62443100D01*
X38422650Y-62441600D01*
X38430150Y-62440100D01*
X38437650Y-62439100D01*
X38445650Y-62438100D01*
X38453150Y-62438100D01*
X38973150Y-62438100D01*
X38980650Y-62438100D01*
X38988650Y-62439100D01*
G37*
G36*
X38988650Y-62938600D02*
G01*
X38996150Y-62939600D01*
X39003650Y-62941100D01*
X39011150Y-62943100D01*
X39018650Y-62945600D01*
X39025650Y-62948100D01*
X39032650Y-62951100D01*
X39039650Y-62954600D01*
X39046650Y-62958600D01*
X39053150Y-62962600D01*
X39059150Y-62967600D01*
X39065150Y-62972100D01*
X39070650Y-62977600D01*
X39076150Y-62983100D01*
X39081150Y-62989100D01*
X39086150Y-62995100D01*
X39090150Y-63001100D01*
X39094650Y-63008100D01*
X39098150Y-63014600D01*
X39101150Y-63021600D01*
X39104150Y-63028600D01*
X39106650Y-63036100D01*
X39108650Y-63043600D01*
X39110650Y-63051100D01*
X39111650Y-63058600D01*
X39112650Y-63066100D01*
X39113150Y-63074100D01*
X39113150Y-63081600D01*
X39112650Y-63089600D01*
X39111650Y-63097100D01*
X39110650Y-63104600D01*
X39108650Y-63112100D01*
X39106650Y-63119600D01*
X39104150Y-63127100D01*
X39101150Y-63134100D01*
X39098150Y-63141100D01*
X39094650Y-63148100D01*
X39090150Y-63154600D01*
X39086150Y-63160600D01*
X39081150Y-63167100D01*
X39076150Y-63172600D01*
X39070650Y-63178100D01*
X39065150Y-63183600D01*
X39059150Y-63188600D01*
X39053150Y-63193100D01*
X39046650Y-63197100D01*
X39039650Y-63201100D01*
X39032650Y-63204600D01*
X39025650Y-63207600D01*
X39018650Y-63210100D01*
X39011150Y-63212600D01*
X39003650Y-63214600D01*
X38996150Y-63216100D01*
X38988650Y-63217100D01*
X38980650Y-63217600D01*
X38973150Y-63218100D01*
X38453150Y-63218100D01*
X38445650Y-63217600D01*
X38437650Y-63217100D01*
X38430150Y-63216100D01*
X38422650Y-63214600D01*
X38415150Y-63212600D01*
X38407650Y-63210100D01*
X38400650Y-63207600D01*
X38393650Y-63204600D01*
X38386650Y-63201100D01*
X38379650Y-63197100D01*
X38373150Y-63193100D01*
X38367150Y-63188600D01*
X38361150Y-63183600D01*
X38355650Y-63178100D01*
X38350150Y-63172600D01*
X38345150Y-63167100D01*
X38340150Y-63160600D01*
X38336150Y-63154600D01*
X38331650Y-63148100D01*
X38328150Y-63141100D01*
X38325150Y-63134100D01*
X38322150Y-63127100D01*
X38319650Y-63119600D01*
X38317650Y-63112100D01*
X38315650Y-63104600D01*
X38314650Y-63097100D01*
X38313650Y-63089600D01*
X38313150Y-63081600D01*
X38313150Y-63074100D01*
X38313650Y-63066100D01*
X38314650Y-63058600D01*
X38315650Y-63051100D01*
X38317650Y-63043600D01*
X38319650Y-63036100D01*
X38322150Y-63028600D01*
X38325150Y-63021600D01*
X38328150Y-63014600D01*
X38331650Y-63008100D01*
X38336150Y-63001100D01*
X38340150Y-62995100D01*
X38345150Y-62989100D01*
X38350150Y-62983100D01*
X38355650Y-62977600D01*
X38361150Y-62972100D01*
X38367150Y-62967600D01*
X38373150Y-62962600D01*
X38379650Y-62958600D01*
X38386650Y-62954600D01*
X38393650Y-62951100D01*
X38400650Y-62948100D01*
X38407650Y-62945600D01*
X38415150Y-62943100D01*
X38422650Y-62941100D01*
X38430150Y-62939600D01*
X38437650Y-62938600D01*
X38445650Y-62938100D01*
X38453150Y-62938100D01*
X38973150Y-62938100D01*
X38980650Y-62938100D01*
X38988650Y-62938600D01*
G37*
G36*
X38988650Y-63439100D02*
G01*
X38996150Y-63440100D01*
X39003650Y-63441600D01*
X39011150Y-63443100D01*
X39018650Y-63445600D01*
X39025650Y-63448100D01*
X39032650Y-63451600D01*
X39039650Y-63455100D01*
X39046650Y-63458600D01*
X39053150Y-63463100D01*
X39059150Y-63467600D01*
X39065150Y-63472600D01*
X39070650Y-63477600D01*
X39076150Y-63483100D01*
X39081150Y-63489100D01*
X39086150Y-63495100D01*
X39090150Y-63501600D01*
X39094650Y-63508100D01*
X39098150Y-63514600D01*
X39101150Y-63521600D01*
X39104150Y-63529100D01*
X39106650Y-63536100D01*
X39108650Y-63543600D01*
X39110650Y-63551100D01*
X39111650Y-63558600D01*
X39112650Y-63566600D01*
X39113150Y-63574100D01*
X39113150Y-63582100D01*
X39112650Y-63589600D01*
X39111650Y-63597100D01*
X39110650Y-63605100D01*
X39108650Y-63612600D01*
X39106650Y-63619600D01*
X39104150Y-63627100D01*
X39101150Y-63634100D01*
X39098150Y-63641100D01*
X39094650Y-63648100D01*
X39090150Y-63654600D01*
X39086150Y-63661100D01*
X39081150Y-63667100D01*
X39076150Y-63672600D01*
X39070650Y-63678600D01*
X39065150Y-63683600D01*
X39059150Y-63688600D01*
X39053150Y-63693100D01*
X39046650Y-63697100D01*
X39039650Y-63701100D01*
X39032650Y-63704600D01*
X39025650Y-63707600D01*
X39018650Y-63710600D01*
X39011150Y-63712600D01*
X39003650Y-63714600D01*
X38996150Y-63716100D01*
X38988650Y-63717100D01*
X38980650Y-63717600D01*
X38973150Y-63718100D01*
X38453150Y-63718100D01*
X38445650Y-63717600D01*
X38437650Y-63717100D01*
X38430150Y-63716100D01*
X38422650Y-63714600D01*
X38415150Y-63712600D01*
X38407650Y-63710600D01*
X38400650Y-63707600D01*
X38393650Y-63704600D01*
X38386650Y-63701100D01*
X38379650Y-63697100D01*
X38373150Y-63693100D01*
X38367150Y-63688600D01*
X38361150Y-63683600D01*
X38355650Y-63678600D01*
X38350150Y-63672600D01*
X38345150Y-63667100D01*
X38340150Y-63661100D01*
X38336150Y-63654600D01*
X38331650Y-63648100D01*
X38328150Y-63641100D01*
X38325150Y-63634100D01*
X38322150Y-63627100D01*
X38319650Y-63619600D01*
X38317650Y-63612600D01*
X38315650Y-63605100D01*
X38314650Y-63597100D01*
X38313650Y-63589600D01*
X38313150Y-63582100D01*
X38313150Y-63574100D01*
X38313650Y-63566600D01*
X38314650Y-63558600D01*
X38315650Y-63551100D01*
X38317650Y-63543600D01*
X38319650Y-63536100D01*
X38322150Y-63529100D01*
X38325150Y-63521600D01*
X38328150Y-63514600D01*
X38331650Y-63508100D01*
X38336150Y-63501600D01*
X38340150Y-63495100D01*
X38345150Y-63489100D01*
X38350150Y-63483100D01*
X38355650Y-63477600D01*
X38361150Y-63472600D01*
X38367150Y-63467600D01*
X38373150Y-63463100D01*
X38379650Y-63458600D01*
X38386650Y-63455100D01*
X38393650Y-63451600D01*
X38400650Y-63448100D01*
X38407650Y-63445600D01*
X38415150Y-63443100D01*
X38422650Y-63441600D01*
X38430150Y-63440100D01*
X38437650Y-63439100D01*
X38445650Y-63438100D01*
X38453150Y-63438100D01*
X38973150Y-63438100D01*
X38980650Y-63438100D01*
X38988650Y-63439100D01*
G37*
G36*
X39474650Y-63929100D02*
G01*
X39482150Y-63930100D01*
X39489650Y-63931100D01*
X39497150Y-63933100D01*
X39504650Y-63935100D01*
X39512150Y-63937600D01*
X39519150Y-63940600D01*
X39526150Y-63943600D01*
X39533150Y-63947100D01*
X39539650Y-63951600D01*
X39545650Y-63955600D01*
X39552150Y-63960600D01*
X39557650Y-63965600D01*
X39563150Y-63971100D01*
X39568650Y-63976600D01*
X39573650Y-63982600D01*
X39578150Y-63988600D01*
X39582150Y-63995100D01*
X39586150Y-64002100D01*
X39589650Y-64009100D01*
X39592650Y-64016100D01*
X39595150Y-64023100D01*
X39597650Y-64030600D01*
X39599650Y-64038100D01*
X39601150Y-64045600D01*
X39602150Y-64053100D01*
X39602650Y-64061100D01*
X39603150Y-64068600D01*
X39603150Y-64588600D01*
X39602650Y-64596100D01*
X39602150Y-64604100D01*
X39601150Y-64611600D01*
X39599650Y-64619100D01*
X39597650Y-64626600D01*
X39595150Y-64634100D01*
X39592650Y-64641100D01*
X39589650Y-64648100D01*
X39586150Y-64655100D01*
X39582150Y-64662100D01*
X39578150Y-64668600D01*
X39573650Y-64674600D01*
X39568650Y-64680600D01*
X39563150Y-64686100D01*
X39557650Y-64691600D01*
X39552150Y-64696600D01*
X39545650Y-64701600D01*
X39539650Y-64705600D01*
X39533150Y-64710100D01*
X39526150Y-64713600D01*
X39519150Y-64716600D01*
X39512150Y-64719600D01*
X39504650Y-64722100D01*
X39497150Y-64724100D01*
X39489650Y-64726100D01*
X39482150Y-64727100D01*
X39474650Y-64728100D01*
X39466650Y-64728600D01*
X39459150Y-64728600D01*
X39451650Y-64728100D01*
X39443650Y-64727100D01*
X39436150Y-64726100D01*
X39428650Y-64724100D01*
X39421150Y-64722100D01*
X39413650Y-64719600D01*
X39406650Y-64716600D01*
X39399650Y-64713600D01*
X39393150Y-64710100D01*
X39386150Y-64705600D01*
X39380150Y-64701600D01*
X39374150Y-64696600D01*
X39368150Y-64691600D01*
X39362650Y-64686100D01*
X39357150Y-64680600D01*
X39352650Y-64674600D01*
X39347650Y-64668600D01*
X39343650Y-64662100D01*
X39339650Y-64655100D01*
X39336150Y-64648100D01*
X39333150Y-64641100D01*
X39330650Y-64634100D01*
X39328150Y-64626600D01*
X39326150Y-64619100D01*
X39324650Y-64611600D01*
X39323650Y-64604100D01*
X39323150Y-64596100D01*
X39323150Y-64588600D01*
X39323150Y-64068600D01*
X39323150Y-64061100D01*
X39323650Y-64053100D01*
X39324650Y-64045600D01*
X39326150Y-64038100D01*
X39328150Y-64030600D01*
X39330650Y-64023100D01*
X39333150Y-64016100D01*
X39336150Y-64009100D01*
X39339650Y-64002100D01*
X39343650Y-63995100D01*
X39347650Y-63988600D01*
X39352650Y-63982600D01*
X39357150Y-63976600D01*
X39362650Y-63971100D01*
X39368150Y-63965600D01*
X39374150Y-63960600D01*
X39380150Y-63955600D01*
X39386150Y-63951600D01*
X39393150Y-63947100D01*
X39399650Y-63943600D01*
X39406650Y-63940600D01*
X39413650Y-63937600D01*
X39421150Y-63935100D01*
X39428650Y-63933100D01*
X39436150Y-63931100D01*
X39443650Y-63930100D01*
X39451650Y-63929100D01*
X39459150Y-63928600D01*
X39466650Y-63928600D01*
X39474650Y-63929100D01*
G37*
G36*
X39474650Y-60929100D02*
G01*
X39482150Y-60930100D01*
X39489650Y-60931100D01*
X39497150Y-60933100D01*
X39504650Y-60935100D01*
X39512150Y-60937600D01*
X39519150Y-60940600D01*
X39526150Y-60943600D01*
X39533150Y-60947100D01*
X39539650Y-60951600D01*
X39545650Y-60955600D01*
X39552150Y-60960600D01*
X39557650Y-60965600D01*
X39563150Y-60971100D01*
X39568650Y-60976600D01*
X39573650Y-60982600D01*
X39578150Y-60988600D01*
X39582150Y-60995100D01*
X39586150Y-61002100D01*
X39589650Y-61009100D01*
X39592650Y-61016100D01*
X39595150Y-61023100D01*
X39597650Y-61030600D01*
X39599650Y-61038100D01*
X39601150Y-61045600D01*
X39602150Y-61053100D01*
X39602650Y-61061100D01*
X39603150Y-61068600D01*
X39603150Y-61588600D01*
X39602650Y-61596100D01*
X39602150Y-61604100D01*
X39601150Y-61611600D01*
X39599650Y-61619100D01*
X39597650Y-61626600D01*
X39595150Y-61634100D01*
X39592650Y-61641100D01*
X39589650Y-61648100D01*
X39586150Y-61655100D01*
X39582150Y-61662100D01*
X39578150Y-61668600D01*
X39573650Y-61674600D01*
X39568650Y-61680600D01*
X39563150Y-61686100D01*
X39557650Y-61691600D01*
X39552150Y-61696600D01*
X39545650Y-61701600D01*
X39539650Y-61705600D01*
X39533150Y-61710100D01*
X39526150Y-61713600D01*
X39519150Y-61716600D01*
X39512150Y-61719600D01*
X39504650Y-61722100D01*
X39497150Y-61724100D01*
X39489650Y-61726100D01*
X39482150Y-61727100D01*
X39474650Y-61728100D01*
X39466650Y-61728600D01*
X39459150Y-61728600D01*
X39451650Y-61728100D01*
X39443650Y-61727100D01*
X39436150Y-61726100D01*
X39428650Y-61724100D01*
X39421150Y-61722100D01*
X39413650Y-61719600D01*
X39406650Y-61716600D01*
X39399650Y-61713600D01*
X39393150Y-61710100D01*
X39386150Y-61705600D01*
X39380150Y-61701600D01*
X39374150Y-61696600D01*
X39368150Y-61691600D01*
X39362650Y-61686100D01*
X39357150Y-61680600D01*
X39352650Y-61674600D01*
X39347650Y-61668600D01*
X39343650Y-61662100D01*
X39339650Y-61655100D01*
X39336150Y-61648100D01*
X39333150Y-61641100D01*
X39330650Y-61634100D01*
X39328150Y-61626600D01*
X39326150Y-61619100D01*
X39324650Y-61611600D01*
X39323650Y-61604100D01*
X39323150Y-61596100D01*
X39323150Y-61588600D01*
X39323150Y-61068600D01*
X39323150Y-61061100D01*
X39323650Y-61053100D01*
X39324650Y-61045600D01*
X39326150Y-61038100D01*
X39328150Y-61030600D01*
X39330650Y-61023100D01*
X39333150Y-61016100D01*
X39336150Y-61009100D01*
X39339650Y-61002100D01*
X39343650Y-60995100D01*
X39347650Y-60988600D01*
X39352650Y-60982600D01*
X39357150Y-60976600D01*
X39362650Y-60971100D01*
X39368150Y-60965600D01*
X39374150Y-60960600D01*
X39380150Y-60955600D01*
X39386150Y-60951600D01*
X39393150Y-60947100D01*
X39399650Y-60943600D01*
X39406650Y-60940600D01*
X39413650Y-60937600D01*
X39421150Y-60935100D01*
X39428650Y-60933100D01*
X39436150Y-60931100D01*
X39443650Y-60930100D01*
X39451650Y-60929100D01*
X39459150Y-60928600D01*
X39466650Y-60928600D01*
X39474650Y-60929100D01*
G37*
G36*
X39974650Y-63929100D02*
G01*
X39982150Y-63930100D01*
X39990150Y-63931100D01*
X39997650Y-63933100D01*
X40004650Y-63935100D01*
X40012150Y-63937600D01*
X40019150Y-63940600D01*
X40026150Y-63943600D01*
X40033150Y-63947100D01*
X40039650Y-63951600D01*
X40046150Y-63955600D01*
X40052150Y-63960600D01*
X40058150Y-63965600D01*
X40063650Y-63971100D01*
X40068650Y-63976600D01*
X40073650Y-63982600D01*
X40078150Y-63988600D01*
X40082150Y-63995100D01*
X40086150Y-64002100D01*
X40089650Y-64009100D01*
X40092650Y-64016100D01*
X40095650Y-64023100D01*
X40097650Y-64030600D01*
X40099650Y-64038100D01*
X40101150Y-64045600D01*
X40102150Y-64053100D01*
X40102650Y-64061100D01*
X40103150Y-64068600D01*
X40103150Y-64588600D01*
X40102650Y-64596100D01*
X40102150Y-64604100D01*
X40101150Y-64611600D01*
X40099650Y-64619100D01*
X40097650Y-64626600D01*
X40095650Y-64634100D01*
X40092650Y-64641100D01*
X40089650Y-64648100D01*
X40086150Y-64655100D01*
X40082150Y-64662100D01*
X40078150Y-64668600D01*
X40073650Y-64674600D01*
X40068650Y-64680600D01*
X40063650Y-64686100D01*
X40058150Y-64691600D01*
X40052150Y-64696600D01*
X40046150Y-64701600D01*
X40039650Y-64705600D01*
X40033150Y-64710100D01*
X40026150Y-64713600D01*
X40019150Y-64716600D01*
X40012150Y-64719600D01*
X40004650Y-64722100D01*
X39997650Y-64724100D01*
X39990150Y-64726100D01*
X39982150Y-64727100D01*
X39974650Y-64728100D01*
X39967150Y-64728600D01*
X39959150Y-64728600D01*
X39951650Y-64728100D01*
X39943650Y-64727100D01*
X39936150Y-64726100D01*
X39928650Y-64724100D01*
X39921150Y-64722100D01*
X39914150Y-64719600D01*
X39906650Y-64716600D01*
X39899650Y-64713600D01*
X39893150Y-64710100D01*
X39886650Y-64705600D01*
X39880150Y-64701600D01*
X39874150Y-64696600D01*
X39868150Y-64691600D01*
X39862650Y-64686100D01*
X39857650Y-64680600D01*
X39852650Y-64674600D01*
X39848150Y-64668600D01*
X39843650Y-64662100D01*
X39840150Y-64655100D01*
X39836650Y-64648100D01*
X39833150Y-64641100D01*
X39830650Y-64634100D01*
X39828150Y-64626600D01*
X39826650Y-64619100D01*
X39825150Y-64611600D01*
X39824150Y-64604100D01*
X39823150Y-64596100D01*
X39823150Y-64588600D01*
X39823150Y-64068600D01*
X39823150Y-64061100D01*
X39824150Y-64053100D01*
X39825150Y-64045600D01*
X39826650Y-64038100D01*
X39828150Y-64030600D01*
X39830650Y-64023100D01*
X39833150Y-64016100D01*
X39836650Y-64009100D01*
X39840150Y-64002100D01*
X39843650Y-63995100D01*
X39848150Y-63988600D01*
X39852650Y-63982600D01*
X39857650Y-63976600D01*
X39862650Y-63971100D01*
X39868150Y-63965600D01*
X39874150Y-63960600D01*
X39880150Y-63955600D01*
X39886650Y-63951600D01*
X39893150Y-63947100D01*
X39899650Y-63943600D01*
X39906650Y-63940600D01*
X39914150Y-63937600D01*
X39921150Y-63935100D01*
X39928650Y-63933100D01*
X39936150Y-63931100D01*
X39943650Y-63930100D01*
X39951650Y-63929100D01*
X39959150Y-63928600D01*
X39967150Y-63928600D01*
X39974650Y-63929100D01*
G37*
G36*
X39974650Y-60929100D02*
G01*
X39982150Y-60930100D01*
X39990150Y-60931100D01*
X39997650Y-60933100D01*
X40004650Y-60935100D01*
X40012150Y-60937600D01*
X40019150Y-60940600D01*
X40026150Y-60943600D01*
X40033150Y-60947100D01*
X40039650Y-60951600D01*
X40046150Y-60955600D01*
X40052150Y-60960600D01*
X40058150Y-60965600D01*
X40063650Y-60971100D01*
X40068650Y-60976600D01*
X40073650Y-60982600D01*
X40078150Y-60988600D01*
X40082150Y-60995100D01*
X40086150Y-61002100D01*
X40089650Y-61009100D01*
X40092650Y-61016100D01*
X40095650Y-61023100D01*
X40097650Y-61030600D01*
X40099650Y-61038100D01*
X40101150Y-61045600D01*
X40102150Y-61053100D01*
X40102650Y-61061100D01*
X40103150Y-61068600D01*
X40103150Y-61588600D01*
X40102650Y-61596100D01*
X40102150Y-61604100D01*
X40101150Y-61611600D01*
X40099650Y-61619100D01*
X40097650Y-61626600D01*
X40095650Y-61634100D01*
X40092650Y-61641100D01*
X40089650Y-61648100D01*
X40086150Y-61655100D01*
X40082150Y-61662100D01*
X40078150Y-61668600D01*
X40073650Y-61674600D01*
X40068650Y-61680600D01*
X40063650Y-61686100D01*
X40058150Y-61691600D01*
X40052150Y-61696600D01*
X40046150Y-61701600D01*
X40039650Y-61705600D01*
X40033150Y-61710100D01*
X40026150Y-61713600D01*
X40019150Y-61716600D01*
X40012150Y-61719600D01*
X40004650Y-61722100D01*
X39997650Y-61724100D01*
X39990150Y-61726100D01*
X39982150Y-61727100D01*
X39974650Y-61728100D01*
X39967150Y-61728600D01*
X39959150Y-61728600D01*
X39951650Y-61728100D01*
X39943650Y-61727100D01*
X39936150Y-61726100D01*
X39928650Y-61724100D01*
X39921150Y-61722100D01*
X39914150Y-61719600D01*
X39906650Y-61716600D01*
X39899650Y-61713600D01*
X39893150Y-61710100D01*
X39886650Y-61705600D01*
X39880150Y-61701600D01*
X39874150Y-61696600D01*
X39868150Y-61691600D01*
X39862650Y-61686100D01*
X39857650Y-61680600D01*
X39852650Y-61674600D01*
X39848150Y-61668600D01*
X39843650Y-61662100D01*
X39840150Y-61655100D01*
X39836650Y-61648100D01*
X39833150Y-61641100D01*
X39830650Y-61634100D01*
X39828150Y-61626600D01*
X39826650Y-61619100D01*
X39825150Y-61611600D01*
X39824150Y-61604100D01*
X39823150Y-61596100D01*
X39823150Y-61588600D01*
X39823150Y-61068600D01*
X39823150Y-61061100D01*
X39824150Y-61053100D01*
X39825150Y-61045600D01*
X39826650Y-61038100D01*
X39828150Y-61030600D01*
X39830650Y-61023100D01*
X39833150Y-61016100D01*
X39836650Y-61009100D01*
X39840150Y-61002100D01*
X39843650Y-60995100D01*
X39848150Y-60988600D01*
X39852650Y-60982600D01*
X39857650Y-60976600D01*
X39862650Y-60971100D01*
X39868150Y-60965600D01*
X39874150Y-60960600D01*
X39880150Y-60955600D01*
X39886650Y-60951600D01*
X39893150Y-60947100D01*
X39899650Y-60943600D01*
X39906650Y-60940600D01*
X39914150Y-60937600D01*
X39921150Y-60935100D01*
X39928650Y-60933100D01*
X39936150Y-60931100D01*
X39943650Y-60930100D01*
X39951650Y-60929100D01*
X39959150Y-60928600D01*
X39967150Y-60928600D01*
X39974650Y-60929100D01*
G37*
G36*
X40474650Y-63929100D02*
G01*
X40482150Y-63930100D01*
X40489650Y-63931100D01*
X40497150Y-63933100D01*
X40504650Y-63935100D01*
X40512150Y-63937600D01*
X40519150Y-63940600D01*
X40526150Y-63943600D01*
X40533150Y-63947100D01*
X40539650Y-63951600D01*
X40545650Y-63955600D01*
X40552150Y-63960600D01*
X40557650Y-63965600D01*
X40563150Y-63971100D01*
X40568650Y-63976600D01*
X40573650Y-63982600D01*
X40578150Y-63988600D01*
X40582150Y-63995100D01*
X40586150Y-64002100D01*
X40589650Y-64009100D01*
X40592650Y-64016100D01*
X40595150Y-64023100D01*
X40597650Y-64030600D01*
X40599650Y-64038100D01*
X40601150Y-64045600D01*
X40602150Y-64053100D01*
X40602650Y-64061100D01*
X40603150Y-64068600D01*
X40603150Y-64588600D01*
X40602650Y-64596100D01*
X40602150Y-64604100D01*
X40601150Y-64611600D01*
X40599650Y-64619100D01*
X40597650Y-64626600D01*
X40595150Y-64634100D01*
X40592650Y-64641100D01*
X40589650Y-64648100D01*
X40586150Y-64655100D01*
X40582150Y-64662100D01*
X40578150Y-64668600D01*
X40573650Y-64674600D01*
X40568650Y-64680600D01*
X40563150Y-64686100D01*
X40557650Y-64691600D01*
X40552150Y-64696600D01*
X40545650Y-64701600D01*
X40539650Y-64705600D01*
X40533150Y-64710100D01*
X40526150Y-64713600D01*
X40519150Y-64716600D01*
X40512150Y-64719600D01*
X40504650Y-64722100D01*
X40497150Y-64724100D01*
X40489650Y-64726100D01*
X40482150Y-64727100D01*
X40474650Y-64728100D01*
X40466650Y-64728600D01*
X40459150Y-64728600D01*
X40451650Y-64728100D01*
X40443650Y-64727100D01*
X40436150Y-64726100D01*
X40428650Y-64724100D01*
X40421150Y-64722100D01*
X40413650Y-64719600D01*
X40406650Y-64716600D01*
X40399650Y-64713600D01*
X40393150Y-64710100D01*
X40386150Y-64705600D01*
X40380150Y-64701600D01*
X40374150Y-64696600D01*
X40368150Y-64691600D01*
X40362650Y-64686100D01*
X40357150Y-64680600D01*
X40352650Y-64674600D01*
X40347650Y-64668600D01*
X40343650Y-64662100D01*
X40339650Y-64655100D01*
X40336150Y-64648100D01*
X40333150Y-64641100D01*
X40330650Y-64634100D01*
X40328150Y-64626600D01*
X40326150Y-64619100D01*
X40324650Y-64611600D01*
X40323650Y-64604100D01*
X40323150Y-64596100D01*
X40323150Y-64588600D01*
X40323150Y-64068600D01*
X40323150Y-64061100D01*
X40323650Y-64053100D01*
X40324650Y-64045600D01*
X40326150Y-64038100D01*
X40328150Y-64030600D01*
X40330650Y-64023100D01*
X40333150Y-64016100D01*
X40336150Y-64009100D01*
X40339650Y-64002100D01*
X40343650Y-63995100D01*
X40347650Y-63988600D01*
X40352650Y-63982600D01*
X40357150Y-63976600D01*
X40362650Y-63971100D01*
X40368150Y-63965600D01*
X40374150Y-63960600D01*
X40380150Y-63955600D01*
X40386150Y-63951600D01*
X40393150Y-63947100D01*
X40399650Y-63943600D01*
X40406650Y-63940600D01*
X40413650Y-63937600D01*
X40421150Y-63935100D01*
X40428650Y-63933100D01*
X40436150Y-63931100D01*
X40443650Y-63930100D01*
X40451650Y-63929100D01*
X40459150Y-63928600D01*
X40466650Y-63928600D01*
X40474650Y-63929100D01*
G37*
G36*
X40474650Y-60929100D02*
G01*
X40482150Y-60930100D01*
X40489650Y-60931100D01*
X40497150Y-60933100D01*
X40504650Y-60935100D01*
X40512150Y-60937600D01*
X40519150Y-60940600D01*
X40526150Y-60943600D01*
X40533150Y-60947100D01*
X40539650Y-60951600D01*
X40545650Y-60955600D01*
X40552150Y-60960600D01*
X40557650Y-60965600D01*
X40563150Y-60971100D01*
X40568650Y-60976600D01*
X40573650Y-60982600D01*
X40578150Y-60988600D01*
X40582150Y-60995100D01*
X40586150Y-61002100D01*
X40589650Y-61009100D01*
X40592650Y-61016100D01*
X40595150Y-61023100D01*
X40597650Y-61030600D01*
X40599650Y-61038100D01*
X40601150Y-61045600D01*
X40602150Y-61053100D01*
X40602650Y-61061100D01*
X40603150Y-61068600D01*
X40603150Y-61588600D01*
X40602650Y-61596100D01*
X40602150Y-61604100D01*
X40601150Y-61611600D01*
X40599650Y-61619100D01*
X40597650Y-61626600D01*
X40595150Y-61634100D01*
X40592650Y-61641100D01*
X40589650Y-61648100D01*
X40586150Y-61655100D01*
X40582150Y-61662100D01*
X40578150Y-61668600D01*
X40573650Y-61674600D01*
X40568650Y-61680600D01*
X40563150Y-61686100D01*
X40557650Y-61691600D01*
X40552150Y-61696600D01*
X40545650Y-61701600D01*
X40539650Y-61705600D01*
X40533150Y-61710100D01*
X40526150Y-61713600D01*
X40519150Y-61716600D01*
X40512150Y-61719600D01*
X40504650Y-61722100D01*
X40497150Y-61724100D01*
X40489650Y-61726100D01*
X40482150Y-61727100D01*
X40474650Y-61728100D01*
X40466650Y-61728600D01*
X40459150Y-61728600D01*
X40451650Y-61728100D01*
X40443650Y-61727100D01*
X40436150Y-61726100D01*
X40428650Y-61724100D01*
X40421150Y-61722100D01*
X40413650Y-61719600D01*
X40406650Y-61716600D01*
X40399650Y-61713600D01*
X40393150Y-61710100D01*
X40386150Y-61705600D01*
X40380150Y-61701600D01*
X40374150Y-61696600D01*
X40368150Y-61691600D01*
X40362650Y-61686100D01*
X40357150Y-61680600D01*
X40352650Y-61674600D01*
X40347650Y-61668600D01*
X40343650Y-61662100D01*
X40339650Y-61655100D01*
X40336150Y-61648100D01*
X40333150Y-61641100D01*
X40330650Y-61634100D01*
X40328150Y-61626600D01*
X40326150Y-61619100D01*
X40324650Y-61611600D01*
X40323650Y-61604100D01*
X40323150Y-61596100D01*
X40323150Y-61588600D01*
X40323150Y-61068600D01*
X40323150Y-61061100D01*
X40323650Y-61053100D01*
X40324650Y-61045600D01*
X40326150Y-61038100D01*
X40328150Y-61030600D01*
X40330650Y-61023100D01*
X40333150Y-61016100D01*
X40336150Y-61009100D01*
X40339650Y-61002100D01*
X40343650Y-60995100D01*
X40347650Y-60988600D01*
X40352650Y-60982600D01*
X40357150Y-60976600D01*
X40362650Y-60971100D01*
X40368150Y-60965600D01*
X40374150Y-60960600D01*
X40380150Y-60955600D01*
X40386150Y-60951600D01*
X40393150Y-60947100D01*
X40399650Y-60943600D01*
X40406650Y-60940600D01*
X40413650Y-60937600D01*
X40421150Y-60935100D01*
X40428650Y-60933100D01*
X40436150Y-60931100D01*
X40443650Y-60930100D01*
X40451650Y-60929100D01*
X40459150Y-60928600D01*
X40466650Y-60928600D01*
X40474650Y-60929100D01*
G37*
G36*
X40974650Y-63929100D02*
G01*
X40982150Y-63930100D01*
X40990150Y-63931100D01*
X40997650Y-63933100D01*
X41004650Y-63935100D01*
X41012150Y-63937600D01*
X41019150Y-63940600D01*
X41026150Y-63943600D01*
X41033150Y-63947100D01*
X41039650Y-63951600D01*
X41046150Y-63955600D01*
X41052150Y-63960600D01*
X41058150Y-63965600D01*
X41063650Y-63971100D01*
X41068650Y-63976600D01*
X41073650Y-63982600D01*
X41078150Y-63988600D01*
X41082150Y-63995100D01*
X41086150Y-64002100D01*
X41089650Y-64009100D01*
X41092650Y-64016100D01*
X41095650Y-64023100D01*
X41097650Y-64030600D01*
X41099650Y-64038100D01*
X41101150Y-64045600D01*
X41102150Y-64053100D01*
X41102650Y-64061100D01*
X41103150Y-64068600D01*
X41103150Y-64588600D01*
X41102650Y-64596100D01*
X41102150Y-64604100D01*
X41101150Y-64611600D01*
X41099650Y-64619100D01*
X41097650Y-64626600D01*
X41095650Y-64634100D01*
X41092650Y-64641100D01*
X41089650Y-64648100D01*
X41086150Y-64655100D01*
X41082150Y-64662100D01*
X41078150Y-64668600D01*
X41073650Y-64674600D01*
X41068650Y-64680600D01*
X41063650Y-64686100D01*
X41058150Y-64691600D01*
X41052150Y-64696600D01*
X41046150Y-64701600D01*
X41039650Y-64705600D01*
X41033150Y-64710100D01*
X41026150Y-64713600D01*
X41019150Y-64716600D01*
X41012150Y-64719600D01*
X41004650Y-64722100D01*
X40997650Y-64724100D01*
X40990150Y-64726100D01*
X40982150Y-64727100D01*
X40974650Y-64728100D01*
X40967150Y-64728600D01*
X40959150Y-64728600D01*
X40951650Y-64728100D01*
X40943650Y-64727100D01*
X40936150Y-64726100D01*
X40928650Y-64724100D01*
X40921150Y-64722100D01*
X40914150Y-64719600D01*
X40906650Y-64716600D01*
X40899650Y-64713600D01*
X40893150Y-64710100D01*
X40886650Y-64705600D01*
X40880150Y-64701600D01*
X40874150Y-64696600D01*
X40868150Y-64691600D01*
X40862650Y-64686100D01*
X40857650Y-64680600D01*
X40852650Y-64674600D01*
X40848150Y-64668600D01*
X40843650Y-64662100D01*
X40840150Y-64655100D01*
X40836650Y-64648100D01*
X40833150Y-64641100D01*
X40830650Y-64634100D01*
X40828150Y-64626600D01*
X40826650Y-64619100D01*
X40825150Y-64611600D01*
X40824150Y-64604100D01*
X40823150Y-64596100D01*
X40823150Y-64588600D01*
X40823150Y-64068600D01*
X40823150Y-64061100D01*
X40824150Y-64053100D01*
X40825150Y-64045600D01*
X40826650Y-64038100D01*
X40828150Y-64030600D01*
X40830650Y-64023100D01*
X40833150Y-64016100D01*
X40836650Y-64009100D01*
X40840150Y-64002100D01*
X40843650Y-63995100D01*
X40848150Y-63988600D01*
X40852650Y-63982600D01*
X40857650Y-63976600D01*
X40862650Y-63971100D01*
X40868150Y-63965600D01*
X40874150Y-63960600D01*
X40880150Y-63955600D01*
X40886650Y-63951600D01*
X40893150Y-63947100D01*
X40899650Y-63943600D01*
X40906650Y-63940600D01*
X40914150Y-63937600D01*
X40921150Y-63935100D01*
X40928650Y-63933100D01*
X40936150Y-63931100D01*
X40943650Y-63930100D01*
X40951650Y-63929100D01*
X40959150Y-63928600D01*
X40967150Y-63928600D01*
X40974650Y-63929100D01*
G37*
G36*
X40974650Y-60929100D02*
G01*
X40982150Y-60930100D01*
X40990150Y-60931100D01*
X40997650Y-60933100D01*
X41004650Y-60935100D01*
X41012150Y-60937600D01*
X41019150Y-60940600D01*
X41026150Y-60943600D01*
X41033150Y-60947100D01*
X41039650Y-60951600D01*
X41046150Y-60955600D01*
X41052150Y-60960600D01*
X41058150Y-60965600D01*
X41063650Y-60971100D01*
X41068650Y-60976600D01*
X41073650Y-60982600D01*
X41078150Y-60988600D01*
X41082150Y-60995100D01*
X41086150Y-61002100D01*
X41089650Y-61009100D01*
X41092650Y-61016100D01*
X41095650Y-61023100D01*
X41097650Y-61030600D01*
X41099650Y-61038100D01*
X41101150Y-61045600D01*
X41102150Y-61053100D01*
X41102650Y-61061100D01*
X41103150Y-61068600D01*
X41103150Y-61588600D01*
X41102650Y-61596100D01*
X41102150Y-61604100D01*
X41101150Y-61611600D01*
X41099650Y-61619100D01*
X41097650Y-61626600D01*
X41095650Y-61634100D01*
X41092650Y-61641100D01*
X41089650Y-61648100D01*
X41086150Y-61655100D01*
X41082150Y-61662100D01*
X41078150Y-61668600D01*
X41073650Y-61674600D01*
X41068650Y-61680600D01*
X41063650Y-61686100D01*
X41058150Y-61691600D01*
X41052150Y-61696600D01*
X41046150Y-61701600D01*
X41039650Y-61705600D01*
X41033150Y-61710100D01*
X41026150Y-61713600D01*
X41019150Y-61716600D01*
X41012150Y-61719600D01*
X41004650Y-61722100D01*
X40997650Y-61724100D01*
X40990150Y-61726100D01*
X40982150Y-61727100D01*
X40974650Y-61728100D01*
X40967150Y-61728600D01*
X40959150Y-61728600D01*
X40951650Y-61728100D01*
X40943650Y-61727100D01*
X40936150Y-61726100D01*
X40928650Y-61724100D01*
X40921150Y-61722100D01*
X40914150Y-61719600D01*
X40906650Y-61716600D01*
X40899650Y-61713600D01*
X40893150Y-61710100D01*
X40886650Y-61705600D01*
X40880150Y-61701600D01*
X40874150Y-61696600D01*
X40868150Y-61691600D01*
X40862650Y-61686100D01*
X40857650Y-61680600D01*
X40852650Y-61674600D01*
X40848150Y-61668600D01*
X40843650Y-61662100D01*
X40840150Y-61655100D01*
X40836650Y-61648100D01*
X40833150Y-61641100D01*
X40830650Y-61634100D01*
X40828150Y-61626600D01*
X40826650Y-61619100D01*
X40825150Y-61611600D01*
X40824150Y-61604100D01*
X40823150Y-61596100D01*
X40823150Y-61588600D01*
X40823150Y-61068600D01*
X40823150Y-61061100D01*
X40824150Y-61053100D01*
X40825150Y-61045600D01*
X40826650Y-61038100D01*
X40828150Y-61030600D01*
X40830650Y-61023100D01*
X40833150Y-61016100D01*
X40836650Y-61009100D01*
X40840150Y-61002100D01*
X40843650Y-60995100D01*
X40848150Y-60988600D01*
X40852650Y-60982600D01*
X40857650Y-60976600D01*
X40862650Y-60971100D01*
X40868150Y-60965600D01*
X40874150Y-60960600D01*
X40880150Y-60955600D01*
X40886650Y-60951600D01*
X40893150Y-60947100D01*
X40899650Y-60943600D01*
X40906650Y-60940600D01*
X40914150Y-60937600D01*
X40921150Y-60935100D01*
X40928650Y-60933100D01*
X40936150Y-60931100D01*
X40943650Y-60930100D01*
X40951650Y-60929100D01*
X40959150Y-60928600D01*
X40967150Y-60928600D01*
X40974650Y-60929100D01*
G37*
G36*
X41980650Y-61939100D02*
G01*
X41988650Y-61939600D01*
X41996150Y-61940600D01*
X42003650Y-61942100D01*
X42011150Y-61944100D01*
X42018650Y-61946100D01*
X42025650Y-61949100D01*
X42032650Y-61952100D01*
X42039650Y-61955600D01*
X42046650Y-61959600D01*
X42053150Y-61963600D01*
X42059150Y-61968100D01*
X42065150Y-61973100D01*
X42070650Y-61978100D01*
X42076150Y-61983600D01*
X42081150Y-61989600D01*
X42086150Y-61995600D01*
X42090150Y-62002100D01*
X42094650Y-62008600D01*
X42098150Y-62015600D01*
X42101150Y-62022600D01*
X42104150Y-62029600D01*
X42106650Y-62037100D01*
X42108650Y-62044100D01*
X42110650Y-62051600D01*
X42111650Y-62059600D01*
X42112650Y-62067100D01*
X42113150Y-62074600D01*
X42113150Y-62082600D01*
X42112650Y-62090100D01*
X42111650Y-62098100D01*
X42110650Y-62105600D01*
X42108650Y-62113100D01*
X42106650Y-62120600D01*
X42104150Y-62127600D01*
X42101150Y-62135100D01*
X42098150Y-62142100D01*
X42094650Y-62148600D01*
X42090150Y-62155100D01*
X42086150Y-62161600D01*
X42081150Y-62167600D01*
X42076150Y-62173600D01*
X42070650Y-62179100D01*
X42065150Y-62184100D01*
X42059150Y-62189100D01*
X42053150Y-62193600D01*
X42046650Y-62198100D01*
X42039650Y-62201600D01*
X42032650Y-62205100D01*
X42025650Y-62208600D01*
X42018650Y-62211100D01*
X42011150Y-62213600D01*
X42003650Y-62215100D01*
X41996150Y-62216600D01*
X41988650Y-62217600D01*
X41980650Y-62218600D01*
X41973150Y-62218600D01*
X41453150Y-62218600D01*
X41445650Y-62218600D01*
X41437650Y-62217600D01*
X41430150Y-62216600D01*
X41422650Y-62215100D01*
X41415150Y-62213600D01*
X41407650Y-62211100D01*
X41400650Y-62208600D01*
X41393650Y-62205100D01*
X41386650Y-62201600D01*
X41379650Y-62198100D01*
X41373150Y-62193600D01*
X41367150Y-62189100D01*
X41361150Y-62184100D01*
X41355650Y-62179100D01*
X41350150Y-62173600D01*
X41345150Y-62167600D01*
X41340150Y-62161600D01*
X41336150Y-62155100D01*
X41331650Y-62148600D01*
X41328150Y-62142100D01*
X41325150Y-62135100D01*
X41322150Y-62127600D01*
X41319650Y-62120600D01*
X41317650Y-62113100D01*
X41315650Y-62105600D01*
X41314650Y-62098100D01*
X41313650Y-62090100D01*
X41313150Y-62082600D01*
X41313150Y-62074600D01*
X41313650Y-62067100D01*
X41314650Y-62059600D01*
X41315650Y-62051600D01*
X41317650Y-62044100D01*
X41319650Y-62037100D01*
X41322150Y-62029600D01*
X41325150Y-62022600D01*
X41328150Y-62015600D01*
X41331650Y-62008600D01*
X41336150Y-62002100D01*
X41340150Y-61995600D01*
X41345150Y-61989600D01*
X41350150Y-61983600D01*
X41355650Y-61978100D01*
X41361150Y-61973100D01*
X41367150Y-61968100D01*
X41373150Y-61963600D01*
X41379650Y-61959600D01*
X41386650Y-61955600D01*
X41393650Y-61952100D01*
X41400650Y-61949100D01*
X41407650Y-61946100D01*
X41415150Y-61944100D01*
X41422650Y-61942100D01*
X41430150Y-61940600D01*
X41437650Y-61939600D01*
X41445650Y-61939100D01*
X41453150Y-61938600D01*
X41973150Y-61938600D01*
X41980650Y-61939100D01*
G37*
G36*
X41988650Y-62439600D02*
G01*
X41996150Y-62440600D01*
X42003650Y-62442100D01*
X42011150Y-62443600D01*
X42018650Y-62446100D01*
X42025650Y-62448600D01*
X42032650Y-62452100D01*
X42039650Y-62455600D01*
X42046650Y-62459100D01*
X42053150Y-62463600D01*
X42059150Y-62468100D01*
X42065150Y-62473100D01*
X42070650Y-62478100D01*
X42076150Y-62483600D01*
X42081150Y-62489600D01*
X42086150Y-62495600D01*
X42090150Y-62502100D01*
X42094650Y-62508600D01*
X42098150Y-62515100D01*
X42101150Y-62522100D01*
X42104150Y-62529600D01*
X42106650Y-62536600D01*
X42108650Y-62544100D01*
X42110650Y-62551600D01*
X42111650Y-62559100D01*
X42112650Y-62567100D01*
X42113150Y-62574600D01*
X42113150Y-62582600D01*
X42112650Y-62590100D01*
X42111650Y-62597600D01*
X42110650Y-62605600D01*
X42108650Y-62613100D01*
X42106650Y-62620100D01*
X42104150Y-62627600D01*
X42101150Y-62634600D01*
X42098150Y-62641600D01*
X42094650Y-62648600D01*
X42090150Y-62655100D01*
X42086150Y-62661600D01*
X42081150Y-62667600D01*
X42076150Y-62673600D01*
X42070650Y-62679100D01*
X42065150Y-62684100D01*
X42059150Y-62689100D01*
X42053150Y-62693600D01*
X42046650Y-62697600D01*
X42039650Y-62701600D01*
X42032650Y-62705100D01*
X42025650Y-62708100D01*
X42018650Y-62711100D01*
X42011150Y-62713100D01*
X42003650Y-62715100D01*
X41996150Y-62716600D01*
X41988650Y-62717600D01*
X41980650Y-62718100D01*
X41973150Y-62718600D01*
X41453150Y-62718600D01*
X41445650Y-62718100D01*
X41437650Y-62717600D01*
X41430150Y-62716600D01*
X41422650Y-62715100D01*
X41415150Y-62713100D01*
X41407650Y-62711100D01*
X41400650Y-62708100D01*
X41393650Y-62705100D01*
X41386650Y-62701600D01*
X41379650Y-62697600D01*
X41373150Y-62693600D01*
X41367150Y-62689100D01*
X41361150Y-62684100D01*
X41355650Y-62679100D01*
X41350150Y-62673600D01*
X41345150Y-62667600D01*
X41340150Y-62661600D01*
X41336150Y-62655100D01*
X41331650Y-62648600D01*
X41328150Y-62641600D01*
X41325150Y-62634600D01*
X41322150Y-62627600D01*
X41319650Y-62620100D01*
X41317650Y-62613100D01*
X41315650Y-62605600D01*
X41314650Y-62597600D01*
X41313650Y-62590100D01*
X41313150Y-62582600D01*
X41313150Y-62574600D01*
X41313650Y-62567100D01*
X41314650Y-62559100D01*
X41315650Y-62551600D01*
X41317650Y-62544100D01*
X41319650Y-62536600D01*
X41322150Y-62529600D01*
X41325150Y-62522100D01*
X41328150Y-62515100D01*
X41331650Y-62508600D01*
X41336150Y-62502100D01*
X41340150Y-62495600D01*
X41345150Y-62489600D01*
X41350150Y-62483600D01*
X41355650Y-62478100D01*
X41361150Y-62473100D01*
X41367150Y-62468100D01*
X41373150Y-62463600D01*
X41379650Y-62459100D01*
X41386650Y-62455600D01*
X41393650Y-62452100D01*
X41400650Y-62448600D01*
X41407650Y-62446100D01*
X41415150Y-62443600D01*
X41422650Y-62442100D01*
X41430150Y-62440600D01*
X41437650Y-62439600D01*
X41445650Y-62438600D01*
X41453150Y-62438600D01*
X41973150Y-62438600D01*
X41980650Y-62438600D01*
X41988650Y-62439600D01*
G37*
G36*
X41980650Y-62939100D02*
G01*
X41988650Y-62939600D01*
X41996150Y-62940600D01*
X42003650Y-62942100D01*
X42011150Y-62944100D01*
X42018650Y-62946100D01*
X42025650Y-62949100D01*
X42032650Y-62952100D01*
X42039650Y-62955600D01*
X42046650Y-62959600D01*
X42053150Y-62963600D01*
X42059150Y-62968100D01*
X42065150Y-62973100D01*
X42070650Y-62978100D01*
X42076150Y-62983600D01*
X42081150Y-62989600D01*
X42086150Y-62995600D01*
X42090150Y-63002100D01*
X42094650Y-63008600D01*
X42098150Y-63015600D01*
X42101150Y-63022600D01*
X42104150Y-63029600D01*
X42106650Y-63037100D01*
X42108650Y-63044100D01*
X42110650Y-63051600D01*
X42111650Y-63059600D01*
X42112650Y-63067100D01*
X42113150Y-63074600D01*
X42113150Y-63082600D01*
X42112650Y-63090100D01*
X42111650Y-63098100D01*
X42110650Y-63105600D01*
X42108650Y-63113100D01*
X42106650Y-63120600D01*
X42104150Y-63127600D01*
X42101150Y-63135100D01*
X42098150Y-63142100D01*
X42094650Y-63148600D01*
X42090150Y-63155100D01*
X42086150Y-63161600D01*
X42081150Y-63167600D01*
X42076150Y-63173600D01*
X42070650Y-63179100D01*
X42065150Y-63184100D01*
X42059150Y-63189100D01*
X42053150Y-63193600D01*
X42046650Y-63198100D01*
X42039650Y-63201600D01*
X42032650Y-63205100D01*
X42025650Y-63208600D01*
X42018650Y-63211100D01*
X42011150Y-63213600D01*
X42003650Y-63215100D01*
X41996150Y-63216600D01*
X41988650Y-63217600D01*
X41980650Y-63218600D01*
X41973150Y-63218600D01*
X41453150Y-63218600D01*
X41445650Y-63218600D01*
X41437650Y-63217600D01*
X41430150Y-63216600D01*
X41422650Y-63215100D01*
X41415150Y-63213600D01*
X41407650Y-63211100D01*
X41400650Y-63208600D01*
X41393650Y-63205100D01*
X41386650Y-63201600D01*
X41379650Y-63198100D01*
X41373150Y-63193600D01*
X41367150Y-63189100D01*
X41361150Y-63184100D01*
X41355650Y-63179100D01*
X41350150Y-63173600D01*
X41345150Y-63167600D01*
X41340150Y-63161600D01*
X41336150Y-63155100D01*
X41331650Y-63148600D01*
X41328150Y-63142100D01*
X41325150Y-63135100D01*
X41322150Y-63127600D01*
X41319650Y-63120600D01*
X41317650Y-63113100D01*
X41315650Y-63105600D01*
X41314650Y-63098100D01*
X41313650Y-63090100D01*
X41313150Y-63082600D01*
X41313150Y-63074600D01*
X41313650Y-63067100D01*
X41314650Y-63059600D01*
X41315650Y-63051600D01*
X41317650Y-63044100D01*
X41319650Y-63037100D01*
X41322150Y-63029600D01*
X41325150Y-63022600D01*
X41328150Y-63015600D01*
X41331650Y-63008600D01*
X41336150Y-63002100D01*
X41340150Y-62995600D01*
X41345150Y-62989600D01*
X41350150Y-62983600D01*
X41355650Y-62978100D01*
X41361150Y-62973100D01*
X41367150Y-62968100D01*
X41373150Y-62963600D01*
X41379650Y-62959600D01*
X41386650Y-62955600D01*
X41393650Y-62952100D01*
X41400650Y-62949100D01*
X41407650Y-62946100D01*
X41415150Y-62944100D01*
X41422650Y-62942100D01*
X41430150Y-62940600D01*
X41437650Y-62939600D01*
X41445650Y-62939100D01*
X41453150Y-62938600D01*
X41973150Y-62938600D01*
X41980650Y-62939100D01*
G37*
G36*
X41988650Y-63439600D02*
G01*
X41996150Y-63440600D01*
X42003650Y-63442100D01*
X42011150Y-63443600D01*
X42018650Y-63446100D01*
X42025650Y-63448600D01*
X42032650Y-63452100D01*
X42039650Y-63455600D01*
X42046650Y-63459100D01*
X42053150Y-63463600D01*
X42059150Y-63468100D01*
X42065150Y-63473100D01*
X42070650Y-63478100D01*
X42076150Y-63483600D01*
X42081150Y-63489600D01*
X42086150Y-63495600D01*
X42090150Y-63502100D01*
X42094650Y-63508600D01*
X42098150Y-63515100D01*
X42101150Y-63522100D01*
X42104150Y-63529600D01*
X42106650Y-63536600D01*
X42108650Y-63544100D01*
X42110650Y-63551600D01*
X42111650Y-63559100D01*
X42112650Y-63567100D01*
X42113150Y-63574600D01*
X42113150Y-63582600D01*
X42112650Y-63590100D01*
X42111650Y-63597600D01*
X42110650Y-63605600D01*
X42108650Y-63613100D01*
X42106650Y-63620100D01*
X42104150Y-63627600D01*
X42101150Y-63634600D01*
X42098150Y-63641600D01*
X42094650Y-63648600D01*
X42090150Y-63655100D01*
X42086150Y-63661600D01*
X42081150Y-63667600D01*
X42076150Y-63673600D01*
X42070650Y-63679100D01*
X42065150Y-63684100D01*
X42059150Y-63689100D01*
X42053150Y-63693600D01*
X42046650Y-63697600D01*
X42039650Y-63701600D01*
X42032650Y-63705100D01*
X42025650Y-63708100D01*
X42018650Y-63711100D01*
X42011150Y-63713100D01*
X42003650Y-63715100D01*
X41996150Y-63716600D01*
X41988650Y-63717600D01*
X41980650Y-63718100D01*
X41973150Y-63718600D01*
X41453150Y-63718600D01*
X41445650Y-63718100D01*
X41437650Y-63717600D01*
X41430150Y-63716600D01*
X41422650Y-63715100D01*
X41415150Y-63713100D01*
X41407650Y-63711100D01*
X41400650Y-63708100D01*
X41393650Y-63705100D01*
X41386650Y-63701600D01*
X41379650Y-63697600D01*
X41373150Y-63693600D01*
X41367150Y-63689100D01*
X41361150Y-63684100D01*
X41355650Y-63679100D01*
X41350150Y-63673600D01*
X41345150Y-63667600D01*
X41340150Y-63661600D01*
X41336150Y-63655100D01*
X41331650Y-63648600D01*
X41328150Y-63641600D01*
X41325150Y-63634600D01*
X41322150Y-63627600D01*
X41319650Y-63620100D01*
X41317650Y-63613100D01*
X41315650Y-63605600D01*
X41314650Y-63597600D01*
X41313650Y-63590100D01*
X41313150Y-63582600D01*
X41313150Y-63574600D01*
X41313650Y-63567100D01*
X41314650Y-63559100D01*
X41315650Y-63551600D01*
X41317650Y-63544100D01*
X41319650Y-63536600D01*
X41322150Y-63529600D01*
X41325150Y-63522100D01*
X41328150Y-63515100D01*
X41331650Y-63508600D01*
X41336150Y-63502100D01*
X41340150Y-63495600D01*
X41345150Y-63489600D01*
X41350150Y-63483600D01*
X41355650Y-63478100D01*
X41361150Y-63473100D01*
X41367150Y-63468100D01*
X41373150Y-63463600D01*
X41379650Y-63459100D01*
X41386650Y-63455600D01*
X41393650Y-63452100D01*
X41400650Y-63448600D01*
X41407650Y-63446100D01*
X41415150Y-63443600D01*
X41422650Y-63442100D01*
X41430150Y-63440600D01*
X41437650Y-63439600D01*
X41445650Y-63438600D01*
X41453150Y-63438600D01*
X41973150Y-63438600D01*
X41980650Y-63438600D01*
X41988650Y-63439600D01*
G37*
%TO.C,R13*%
G36*
X36311150Y-72335700D02*
G01*
X36311150Y-72697200D01*
X36211150Y-72797200D01*
X36000650Y-72797200D01*
X35900650Y-72897200D01*
X35900650Y-73275200D01*
X36000650Y-73375200D01*
X36211150Y-73375200D01*
X36311150Y-73475200D01*
X36311150Y-73836700D01*
X36211150Y-73936700D01*
X35203650Y-73936700D01*
X35103650Y-73836700D01*
X35103650Y-72335700D01*
X35203650Y-72235700D01*
X36211150Y-72235700D01*
X36311150Y-72335700D01*
G37*
G36*
X39268650Y-72335700D02*
G01*
X39268650Y-73836700D01*
X39168650Y-73936700D01*
X38161150Y-73936700D01*
X38061150Y-73836700D01*
X38061150Y-73475200D01*
X38161150Y-73375200D01*
X38371650Y-73375200D01*
X38471650Y-73275200D01*
X38471650Y-72897200D01*
X38371650Y-72797200D01*
X38161150Y-72797200D01*
X38061150Y-72697200D01*
X38061150Y-72335700D01*
X38161150Y-72235700D01*
X39168650Y-72235700D01*
X39268650Y-72335700D01*
G37*
%TO.C,C14*%
G36*
X42071000Y-58876000D02*
G01*
X42071000Y-59326000D01*
X42001000Y-59376000D01*
X41521000Y-59376000D01*
X41471000Y-59326000D01*
X41471000Y-58876000D01*
X41521000Y-58826000D01*
X42001000Y-58826000D01*
X42071000Y-58876000D01*
G37*
G36*
X43031000Y-58876000D02*
G01*
X43031000Y-59326000D01*
X42981000Y-59376000D01*
X42501000Y-59376000D01*
X42431000Y-59326000D01*
X42431000Y-58876000D01*
X42501000Y-58826000D01*
X42981000Y-58826000D01*
X43031000Y-58876000D01*
G37*
%TO.C,R22*%
G36*
X102292400Y-48565600D02*
G01*
X102292400Y-49015600D01*
X102222400Y-49065600D01*
X101742400Y-49065600D01*
X101692400Y-49015600D01*
X101692400Y-48565600D01*
X101742400Y-48515600D01*
X102222400Y-48515600D01*
X102292400Y-48565600D01*
G37*
G36*
X103252400Y-48565600D02*
G01*
X103252400Y-49015600D01*
X103202400Y-49065600D01*
X102722400Y-49065600D01*
X102652400Y-49015600D01*
X102652400Y-48565600D01*
X102722400Y-48515600D01*
X103202400Y-48515600D01*
X103252400Y-48565600D01*
G37*
%TO.C,R25*%
G36*
X100436000Y-41546000D02*
G01*
X100436000Y-41996000D01*
X100366000Y-42046000D01*
X99886000Y-42046000D01*
X99836000Y-41996000D01*
X99836000Y-41546000D01*
X99886000Y-41496000D01*
X100366000Y-41496000D01*
X100436000Y-41546000D01*
G37*
G36*
X101396000Y-41546000D02*
G01*
X101396000Y-41996000D01*
X101346000Y-42046000D01*
X100866000Y-42046000D01*
X100796000Y-41996000D01*
X100796000Y-41546000D01*
X100866000Y-41496000D01*
X101346000Y-41496000D01*
X101396000Y-41546000D01*
G37*
%TO.C,R21*%
G36*
X102343200Y-44095200D02*
G01*
X102343200Y-44545200D01*
X102273200Y-44595200D01*
X101793200Y-44595200D01*
X101743200Y-44545200D01*
X101743200Y-44095200D01*
X101793200Y-44045200D01*
X102273200Y-44045200D01*
X102343200Y-44095200D01*
G37*
G36*
X103303200Y-44095200D02*
G01*
X103303200Y-44545200D01*
X103253200Y-44595200D01*
X102773200Y-44595200D01*
X102703200Y-44545200D01*
X102703200Y-44095200D01*
X102773200Y-44045200D01*
X103253200Y-44045200D01*
X103303200Y-44095200D01*
G37*
%TO.C,C6*%
G36*
X31364000Y-28525000D02*
G01*
X31364000Y-28975000D01*
X31294000Y-29025000D01*
X30814000Y-29025000D01*
X30764000Y-28975000D01*
X30764000Y-28525000D01*
X30814000Y-28475000D01*
X31294000Y-28475000D01*
X31364000Y-28525000D01*
G37*
G36*
X32324000Y-28525000D02*
G01*
X32324000Y-28975000D01*
X32274000Y-29025000D01*
X31794000Y-29025000D01*
X31724000Y-28975000D01*
X31724000Y-28525000D01*
X31794000Y-28475000D01*
X32274000Y-28475000D01*
X32324000Y-28525000D01*
G37*
%TO.C,R14*%
G36*
X39351950Y-56882100D02*
G01*
X39351950Y-57382600D01*
X39311950Y-57422600D01*
X38851950Y-57422600D01*
X38811950Y-57382600D01*
X38811950Y-56882100D01*
X38851950Y-56842100D01*
X39311950Y-56842100D01*
X39351950Y-56882100D01*
G37*
G36*
X39351950Y-57732600D02*
G01*
X39351950Y-58233100D01*
X39311950Y-58273100D01*
X38851950Y-58273100D01*
X38811950Y-58233100D01*
X38811950Y-57732600D01*
X38851950Y-57692600D01*
X39311950Y-57692600D01*
X39351950Y-57732600D01*
G37*
%TO.C,C4*%
G36*
X71707000Y-51249400D02*
G01*
X71712000Y-51659400D01*
X71262000Y-51659400D01*
X71262000Y-52109400D01*
X71702000Y-52109400D01*
X71707000Y-52529400D01*
X71657000Y-52579400D01*
X70507000Y-52579400D01*
X70457000Y-52529400D01*
X70457000Y-51249400D01*
X70507000Y-51199400D01*
X71657000Y-51199400D01*
X71707000Y-51249400D01*
G37*
G36*
X73867000Y-51249400D02*
G01*
X73867000Y-52529400D01*
X73817000Y-52579400D01*
X72667000Y-52579400D01*
X72617000Y-52529400D01*
X72612000Y-52119400D01*
X73062000Y-52119400D01*
X73062000Y-51669400D01*
X72622000Y-51669400D01*
X72617000Y-51249400D01*
X72667000Y-51199400D01*
X73817000Y-51199400D01*
X73867000Y-51249400D01*
G37*
%TO.C,C3*%
G36*
X77381400Y-80450800D02*
G01*
X77381400Y-81600800D01*
X77331400Y-81650800D01*
X76921400Y-81655800D01*
X76921400Y-81205800D01*
X76471400Y-81205800D01*
X76471400Y-81645800D01*
X76051400Y-81650800D01*
X76001400Y-81600800D01*
X76001400Y-80450800D01*
X76051400Y-80400800D01*
X77331400Y-80400800D01*
X77381400Y-80450800D01*
G37*
G36*
X76461400Y-83005800D02*
G01*
X76911400Y-83005800D01*
X76911400Y-82565800D01*
X77331400Y-82560800D01*
X77381400Y-82610800D01*
X77381400Y-83760800D01*
X77331400Y-83810800D01*
X76051400Y-83810800D01*
X76001400Y-83760800D01*
X76001400Y-82610800D01*
X76051400Y-82560800D01*
X76461400Y-82555800D01*
X76461400Y-83005800D01*
G37*
%TO.C,U10*%
G36*
X33078500Y-86583700D02*
G01*
X31778500Y-86583700D01*
X31778500Y-86283700D01*
X33078500Y-86283700D01*
X33078500Y-86583700D01*
G37*
G36*
X33078500Y-87083700D02*
G01*
X31778500Y-87083700D01*
X31778500Y-86783700D01*
X33078500Y-86783700D01*
X33078500Y-87083700D01*
G37*
G36*
X33078500Y-87583700D02*
G01*
X31778500Y-87583700D01*
X31778500Y-87283700D01*
X33078500Y-87283700D01*
X33078500Y-87583700D01*
G37*
G36*
X33078500Y-88083700D02*
G01*
X31778500Y-88083700D01*
X31778500Y-87783700D01*
X33078500Y-87783700D01*
X33078500Y-88083700D01*
G37*
G36*
X33078500Y-91183700D02*
G01*
X31778500Y-91183700D01*
X31778500Y-90583700D01*
X33078500Y-90583700D01*
X33078500Y-91183700D01*
G37*
G36*
X33078500Y-84783700D02*
G01*
X31778500Y-84783700D01*
X31778500Y-84183700D01*
X33078500Y-84183700D01*
X33078500Y-84783700D01*
G37*
G36*
X33078500Y-85583700D02*
G01*
X31778500Y-85583700D01*
X31778500Y-84983700D01*
X33078500Y-84983700D01*
X33078500Y-85583700D01*
G37*
G36*
X33078500Y-88583700D02*
G01*
X31778500Y-88583700D01*
X31778500Y-88283700D01*
X33078500Y-88283700D01*
X33078500Y-88583700D01*
G37*
G36*
X33078500Y-89583700D02*
G01*
X31778500Y-89583700D01*
X31778500Y-89283700D01*
X33078500Y-89283700D01*
X33078500Y-89583700D01*
G37*
G36*
X33078500Y-90383700D02*
G01*
X31778500Y-90383700D01*
X31778500Y-89783700D01*
X33078500Y-89783700D01*
X33078500Y-90383700D01*
G37*
G36*
X33079500Y-86083700D02*
G01*
X31779500Y-86083700D01*
X31779500Y-85783700D01*
X33079500Y-85783700D01*
X33079500Y-86083700D01*
G37*
G36*
X33079500Y-89083200D02*
G01*
X31779500Y-89083200D01*
X31779500Y-88783200D01*
X33079500Y-88783200D01*
X33079500Y-89083200D01*
G37*
G36*
X27908500Y-82759200D02*
G01*
X27938500Y-82761700D01*
X27968000Y-82765200D01*
X27997500Y-82770700D01*
X28026500Y-82777200D01*
X28055500Y-82785200D01*
X28084000Y-82794700D01*
X28111500Y-82805700D01*
X28139000Y-82818200D01*
X28165500Y-82831700D01*
X28191500Y-82846700D01*
X28216500Y-82862700D01*
X28241000Y-82880200D01*
X28264000Y-82899200D01*
X28286500Y-82918700D01*
X28308000Y-82939700D01*
X28328500Y-82961700D01*
X28347500Y-82984700D01*
X28365500Y-83008200D01*
X28382500Y-83033200D01*
X28398000Y-83058700D01*
X28412500Y-83084700D01*
X28425500Y-83111700D01*
X28437000Y-83139200D01*
X28447500Y-83167700D01*
X28456000Y-83196200D01*
X28463500Y-83225200D01*
X28469500Y-83254200D01*
X28474000Y-83284200D01*
X28477000Y-83313700D01*
X28478500Y-83343700D01*
X28478500Y-83373700D01*
X28477000Y-83403200D01*
X28474000Y-83433200D01*
X28469500Y-83462700D01*
X28463500Y-83492200D01*
X28456000Y-83521200D01*
X28447500Y-83549700D01*
X28437000Y-83577700D01*
X28425500Y-83605200D01*
X28412500Y-83632200D01*
X28398000Y-83658700D01*
X28382500Y-83684200D01*
X28365500Y-83708700D01*
X28347500Y-83732700D01*
X28328500Y-83755700D01*
X28308000Y-83777700D01*
X28286500Y-83798200D01*
X28264000Y-83818200D01*
X28241000Y-83836700D01*
X28216500Y-83854200D01*
X28191500Y-83870700D01*
X28165500Y-83885700D01*
X28139000Y-83899200D01*
X28111500Y-83911700D01*
X28084000Y-83922200D01*
X28055500Y-83932200D01*
X28026500Y-83940200D01*
X27997500Y-83946700D01*
X27968000Y-83951700D01*
X27938500Y-83955700D01*
X27908500Y-83957700D01*
X27878500Y-83958700D01*
X27278500Y-83958700D01*
X27248500Y-83957700D01*
X27219000Y-83955700D01*
X27189000Y-83951700D01*
X27159500Y-83946700D01*
X27130500Y-83940200D01*
X27101500Y-83932200D01*
X27073500Y-83922200D01*
X27045500Y-83911700D01*
X27018000Y-83899200D01*
X26991500Y-83885700D01*
X26965500Y-83870700D01*
X26940500Y-83854200D01*
X26916500Y-83836700D01*
X26893000Y-83818200D01*
X26870500Y-83798200D01*
X26849000Y-83777700D01*
X26828500Y-83755700D01*
X26809500Y-83732700D01*
X26791500Y-83708700D01*
X26774500Y-83684200D01*
X26759000Y-83658700D01*
X26744500Y-83632200D01*
X26731500Y-83605200D01*
X26720000Y-83577700D01*
X26710000Y-83549700D01*
X26701000Y-83521200D01*
X26693500Y-83492200D01*
X26687500Y-83462700D01*
X26683000Y-83433200D01*
X26680000Y-83403200D01*
X26678500Y-83373700D01*
X26678500Y-83343700D01*
X26680000Y-83313700D01*
X26683000Y-83284200D01*
X26687500Y-83254200D01*
X26693500Y-83225200D01*
X26701000Y-83196200D01*
X26710000Y-83167700D01*
X26720000Y-83139200D01*
X26731500Y-83111700D01*
X26744500Y-83084700D01*
X26759000Y-83058700D01*
X26774500Y-83033200D01*
X26791500Y-83008200D01*
X26809500Y-82984700D01*
X26828500Y-82961700D01*
X26849000Y-82939700D01*
X26870500Y-82918700D01*
X26893000Y-82899200D01*
X26916500Y-82880200D01*
X26940500Y-82862700D01*
X26965500Y-82846700D01*
X26991500Y-82831700D01*
X27018000Y-82818200D01*
X27045500Y-82805700D01*
X27073500Y-82794700D01*
X27101500Y-82785200D01*
X27130500Y-82777200D01*
X27159500Y-82770700D01*
X27189000Y-82765200D01*
X27219000Y-82761700D01*
X27248500Y-82759200D01*
X27278500Y-82758700D01*
X27878500Y-82758700D01*
X27908500Y-82759200D01*
G37*
G36*
X27908500Y-91427200D02*
G01*
X27938500Y-91429700D01*
X27968000Y-91433200D01*
X27997500Y-91438700D01*
X28026500Y-91445200D01*
X28055500Y-91453200D01*
X28084000Y-91462700D01*
X28111500Y-91473700D01*
X28139000Y-91486200D01*
X28165500Y-91499700D01*
X28191500Y-91514700D01*
X28216500Y-91530700D01*
X28241000Y-91548200D01*
X28264000Y-91567200D01*
X28286500Y-91586700D01*
X28308000Y-91607700D01*
X28328500Y-91629700D01*
X28347500Y-91652700D01*
X28365500Y-91676200D01*
X28382500Y-91701200D01*
X28398000Y-91726700D01*
X28412500Y-91752700D01*
X28425500Y-91779700D01*
X28437000Y-91807200D01*
X28447500Y-91835700D01*
X28456000Y-91864200D01*
X28463500Y-91893200D01*
X28469500Y-91922200D01*
X28474000Y-91952200D01*
X28477000Y-91981700D01*
X28478500Y-92011700D01*
X28478500Y-92041700D01*
X28477000Y-92071200D01*
X28474000Y-92101200D01*
X28469500Y-92130700D01*
X28463500Y-92160200D01*
X28456000Y-92189200D01*
X28447500Y-92217700D01*
X28437000Y-92245700D01*
X28425500Y-92273200D01*
X28412500Y-92300200D01*
X28398000Y-92326700D01*
X28382500Y-92352200D01*
X28365500Y-92376700D01*
X28347500Y-92400700D01*
X28328500Y-92423700D01*
X28308000Y-92445700D01*
X28286500Y-92466200D01*
X28264000Y-92486200D01*
X28241000Y-92504700D01*
X28216500Y-92522200D01*
X28191500Y-92538700D01*
X28165500Y-92553700D01*
X28139000Y-92567200D01*
X28111500Y-92579700D01*
X28084000Y-92590200D01*
X28055500Y-92600200D01*
X28026500Y-92608200D01*
X27997500Y-92614700D01*
X27968000Y-92619700D01*
X27938500Y-92623700D01*
X27908500Y-92625700D01*
X27878500Y-92626700D01*
X27278500Y-92626700D01*
X27248500Y-92625700D01*
X27219000Y-92623700D01*
X27189000Y-92619700D01*
X27159500Y-92614700D01*
X27130500Y-92608200D01*
X27101500Y-92600200D01*
X27073500Y-92590200D01*
X27045500Y-92579700D01*
X27018000Y-92567200D01*
X26991500Y-92553700D01*
X26965500Y-92538700D01*
X26940500Y-92522200D01*
X26916500Y-92504700D01*
X26893000Y-92486200D01*
X26870500Y-92466200D01*
X26849000Y-92445700D01*
X26828500Y-92423700D01*
X26809500Y-92400700D01*
X26791500Y-92376700D01*
X26774500Y-92352200D01*
X26759000Y-92326700D01*
X26744500Y-92300200D01*
X26731500Y-92273200D01*
X26720000Y-92245700D01*
X26710000Y-92217700D01*
X26701000Y-92189200D01*
X26693500Y-92160200D01*
X26687500Y-92130700D01*
X26683000Y-92101200D01*
X26680000Y-92071200D01*
X26678500Y-92041700D01*
X26678500Y-92011700D01*
X26680000Y-91981700D01*
X26683000Y-91952200D01*
X26687500Y-91922200D01*
X26693500Y-91893200D01*
X26701000Y-91864200D01*
X26710000Y-91835700D01*
X26720000Y-91807200D01*
X26731500Y-91779700D01*
X26744500Y-91752700D01*
X26759000Y-91726700D01*
X26774500Y-91701200D01*
X26791500Y-91676200D01*
X26809500Y-91652700D01*
X26828500Y-91629700D01*
X26849000Y-91607700D01*
X26870500Y-91586700D01*
X26893000Y-91567200D01*
X26916500Y-91548200D01*
X26940500Y-91530700D01*
X26965500Y-91514700D01*
X26991500Y-91499700D01*
X27018000Y-91486200D01*
X27045500Y-91473700D01*
X27073500Y-91462700D01*
X27101500Y-91453200D01*
X27130500Y-91445200D01*
X27159500Y-91438700D01*
X27189000Y-91433200D01*
X27219000Y-91429700D01*
X27248500Y-91427200D01*
X27278500Y-91426700D01*
X27878500Y-91426700D01*
X27908500Y-91427200D01*
G37*
G36*
X32306000Y-82809200D02*
G01*
X32333000Y-82811200D01*
X32360500Y-82814700D01*
X32387500Y-82819700D01*
X32414000Y-82825700D01*
X32440500Y-82833200D01*
X32466500Y-82841700D01*
X32492000Y-82851700D01*
X32517000Y-82863200D01*
X32541500Y-82875700D01*
X32565000Y-82889200D01*
X32588500Y-82904200D01*
X32610500Y-82920200D01*
X32632000Y-82937200D01*
X32652500Y-82955200D01*
X32672000Y-82974700D01*
X32691000Y-82994700D01*
X32708500Y-83015700D01*
X32725000Y-83037700D01*
X32740500Y-83060200D01*
X32755000Y-83083700D01*
X32768000Y-83107700D01*
X32780000Y-83132200D01*
X32790500Y-83157700D01*
X32800000Y-83183200D01*
X32808000Y-83209700D01*
X32814500Y-83236200D01*
X32820000Y-83263200D01*
X32824000Y-83290200D01*
X32827000Y-83317700D01*
X32828500Y-83344700D01*
X32828500Y-83372200D01*
X32827000Y-83399700D01*
X32824000Y-83427200D01*
X32820000Y-83454200D01*
X32814500Y-83481200D01*
X32808000Y-83507700D01*
X32800000Y-83533700D01*
X32790500Y-83559700D01*
X32780000Y-83584700D01*
X32768000Y-83609700D01*
X32755000Y-83633700D01*
X32740500Y-83657200D01*
X32725000Y-83679700D01*
X32708500Y-83701700D01*
X32691000Y-83722700D01*
X32672000Y-83742700D01*
X32652500Y-83761700D01*
X32632000Y-83779700D01*
X32610500Y-83797200D01*
X32588500Y-83813200D01*
X32565000Y-83827700D01*
X32541500Y-83841700D01*
X32517000Y-83854200D01*
X32492000Y-83865200D01*
X32466500Y-83875200D01*
X32440500Y-83884200D01*
X32414000Y-83891700D01*
X32387500Y-83897700D01*
X32360500Y-83902700D01*
X32333000Y-83905700D01*
X32306000Y-83907700D01*
X32278500Y-83908700D01*
X31278500Y-83908700D01*
X31251000Y-83907700D01*
X31223500Y-83905700D01*
X31196500Y-83902700D01*
X31169500Y-83897700D01*
X31142500Y-83891700D01*
X31116500Y-83884200D01*
X31090500Y-83875200D01*
X31065000Y-83865200D01*
X31040000Y-83854200D01*
X31015500Y-83841700D01*
X30991500Y-83827700D01*
X30968500Y-83813200D01*
X30946500Y-83797200D01*
X30925000Y-83779700D01*
X30904500Y-83761700D01*
X30884500Y-83742700D01*
X30866000Y-83722700D01*
X30848500Y-83701700D01*
X30832000Y-83679700D01*
X30816500Y-83657200D01*
X30802000Y-83633700D01*
X30789000Y-83609700D01*
X30777000Y-83584700D01*
X30766500Y-83559700D01*
X30757000Y-83533700D01*
X30749000Y-83507700D01*
X30742000Y-83481200D01*
X30737000Y-83454200D01*
X30732500Y-83427200D01*
X30730000Y-83399700D01*
X30728500Y-83372200D01*
X30728500Y-83344700D01*
X30730000Y-83317700D01*
X30732500Y-83290200D01*
X30737000Y-83263200D01*
X30742000Y-83236200D01*
X30749000Y-83209700D01*
X30757000Y-83183200D01*
X30766500Y-83157700D01*
X30777000Y-83132200D01*
X30789000Y-83107700D01*
X30802000Y-83083700D01*
X30816500Y-83060200D01*
X30832000Y-83037700D01*
X30848500Y-83015700D01*
X30866000Y-82994700D01*
X30884500Y-82974700D01*
X30904500Y-82955200D01*
X30925000Y-82937200D01*
X30946500Y-82920200D01*
X30968500Y-82904200D01*
X30991500Y-82889200D01*
X31015500Y-82875700D01*
X31040000Y-82863200D01*
X31065000Y-82851700D01*
X31090500Y-82841700D01*
X31116500Y-82833200D01*
X31142500Y-82825700D01*
X31169500Y-82819700D01*
X31196500Y-82814700D01*
X31223500Y-82811200D01*
X31251000Y-82809200D01*
X31278500Y-82808700D01*
X32278500Y-82808700D01*
X32306000Y-82809200D01*
G37*
G36*
X32306000Y-91459200D02*
G01*
X32333000Y-91461200D01*
X32360500Y-91464700D01*
X32387500Y-91469700D01*
X32414000Y-91475700D01*
X32440500Y-91483200D01*
X32466500Y-91491700D01*
X32492000Y-91501700D01*
X32517000Y-91513200D01*
X32541500Y-91525700D01*
X32565000Y-91539200D01*
X32588500Y-91554200D01*
X32610500Y-91570200D01*
X32632000Y-91587200D01*
X32652500Y-91605200D01*
X32672000Y-91624700D01*
X32691000Y-91644700D01*
X32708500Y-91665700D01*
X32725000Y-91687700D01*
X32740500Y-91710200D01*
X32755000Y-91733700D01*
X32768000Y-91757700D01*
X32780000Y-91782200D01*
X32790500Y-91807700D01*
X32800000Y-91833200D01*
X32808000Y-91859700D01*
X32814500Y-91886200D01*
X32820000Y-91913200D01*
X32824000Y-91940200D01*
X32827000Y-91967700D01*
X32828500Y-91994700D01*
X32828500Y-92022200D01*
X32827000Y-92049700D01*
X32824000Y-92077200D01*
X32820000Y-92104200D01*
X32814500Y-92130700D01*
X32808000Y-92157700D01*
X32800000Y-92183700D01*
X32790500Y-92209700D01*
X32780000Y-92234700D01*
X32768000Y-92259700D01*
X32755000Y-92283700D01*
X32740500Y-92307200D01*
X32725000Y-92329700D01*
X32708500Y-92351700D01*
X32691000Y-92372700D01*
X32672000Y-92392700D01*
X32652500Y-92411700D01*
X32632000Y-92429700D01*
X32610500Y-92447200D01*
X32588500Y-92463200D01*
X32565000Y-92477700D01*
X32541500Y-92491700D01*
X32517000Y-92504200D01*
X32492000Y-92515200D01*
X32466500Y-92525200D01*
X32440500Y-92534200D01*
X32414000Y-92541700D01*
X32387500Y-92547700D01*
X32360500Y-92552200D01*
X32333000Y-92555700D01*
X32306000Y-92557700D01*
X32278500Y-92558700D01*
X31278500Y-92558700D01*
X31251000Y-92557700D01*
X31223500Y-92555700D01*
X31196500Y-92552200D01*
X31169500Y-92547700D01*
X31142500Y-92541700D01*
X31116500Y-92534200D01*
X31090500Y-92525200D01*
X31065000Y-92515200D01*
X31040000Y-92504200D01*
X31015500Y-92491700D01*
X30991500Y-92477700D01*
X30968500Y-92463200D01*
X30946500Y-92447200D01*
X30925000Y-92429700D01*
X30904500Y-92411700D01*
X30884500Y-92392700D01*
X30866000Y-92372700D01*
X30848500Y-92351700D01*
X30832000Y-92329700D01*
X30816500Y-92307200D01*
X30802000Y-92283700D01*
X30789000Y-92259700D01*
X30777000Y-92234700D01*
X30766500Y-92209700D01*
X30757000Y-92183700D01*
X30749000Y-92157700D01*
X30742000Y-92130700D01*
X30737000Y-92104200D01*
X30732500Y-92077200D01*
X30730000Y-92049700D01*
X30728500Y-92022200D01*
X30728500Y-91994700D01*
X30730000Y-91967700D01*
X30732500Y-91940200D01*
X30737000Y-91913200D01*
X30742000Y-91886200D01*
X30749000Y-91859700D01*
X30757000Y-91833200D01*
X30766500Y-91807700D01*
X30777000Y-91782200D01*
X30789000Y-91757700D01*
X30802000Y-91733700D01*
X30816500Y-91710200D01*
X30832000Y-91687700D01*
X30848500Y-91665700D01*
X30866000Y-91644700D01*
X30884500Y-91624700D01*
X30904500Y-91605200D01*
X30925000Y-91587200D01*
X30946500Y-91570200D01*
X30968500Y-91554200D01*
X30991500Y-91539200D01*
X31015500Y-91525700D01*
X31040000Y-91513200D01*
X31065000Y-91501700D01*
X31090500Y-91491700D01*
X31116500Y-91483200D01*
X31142500Y-91475700D01*
X31169500Y-91469700D01*
X31196500Y-91464700D01*
X31223500Y-91461200D01*
X31251000Y-91459200D01*
X31278500Y-91458700D01*
X32278500Y-91458700D01*
X32306000Y-91459200D01*
G37*
%TO.C,R10*%
G36*
X46644450Y-69444300D02*
G01*
X46644450Y-69944800D01*
X46604450Y-69984800D01*
X46144450Y-69984800D01*
X46104450Y-69944800D01*
X46104450Y-69444300D01*
X46144450Y-69404300D01*
X46604450Y-69404300D01*
X46644450Y-69444300D01*
G37*
G36*
X46644450Y-70294800D02*
G01*
X46644450Y-70795300D01*
X46604450Y-70835300D01*
X46144450Y-70835300D01*
X46104450Y-70795300D01*
X46104450Y-70294800D01*
X46144450Y-70254800D01*
X46604450Y-70254800D01*
X46644450Y-70294800D01*
G37*
%TO.C,R26*%
G36*
X103001000Y-53476000D02*
G01*
X103001000Y-53926000D01*
X102931000Y-53976000D01*
X102451000Y-53976000D01*
X102401000Y-53926000D01*
X102401000Y-53476000D01*
X102451000Y-53426000D01*
X102931000Y-53426000D01*
X103001000Y-53476000D01*
G37*
G36*
X103961000Y-53476000D02*
G01*
X103961000Y-53926000D01*
X103911000Y-53976000D01*
X103431000Y-53976000D01*
X103361000Y-53926000D01*
X103361000Y-53476000D01*
X103431000Y-53426000D01*
X103911000Y-53426000D01*
X103961000Y-53476000D01*
G37*
%TO.C,R15*%
G36*
X40850750Y-56894600D02*
G01*
X40850750Y-57354600D01*
X40810750Y-57394600D01*
X40310250Y-57394600D01*
X40270250Y-57354600D01*
X40270250Y-56894600D01*
X40310250Y-56854600D01*
X40810750Y-56854600D01*
X40850750Y-56894600D01*
G37*
G36*
X41701250Y-56894600D02*
G01*
X41701250Y-57354600D01*
X41661250Y-57394600D01*
X41160750Y-57394600D01*
X41120750Y-57354600D01*
X41120750Y-56894600D01*
X41160750Y-56854600D01*
X41661250Y-56854600D01*
X41701250Y-56894600D01*
G37*
%TD*%
D11*
%TO.C,R12*%
X35707150Y-69987400D03*
X38665150Y-69987400D03*
%TD*%
D12*
%TO.C,Q1*%
X49907100Y-82466000D03*
X49907100Y-80566000D03*
X52406100Y-81516000D03*
%TD*%
D13*
%TO.C,SW1*%
X61426000Y-88821000D03*
X70712000Y-88821000D03*
X70712000Y-93321000D03*
X61426000Y-93321000D03*
%TD*%
D14*
%TO.C,D1*%
X34400400Y-94957900D03*
X34400400Y-92757900D03*
%TD*%
D15*
%TO.C,R24*%
X101051000Y-39721000D03*
X99961000Y-39721000D03*
%TD*%
%TO.C,C12*%
X42985600Y-66367400D03*
X41895600Y-66367400D03*
%TD*%
%TO.C,C13*%
X38901150Y-65618600D03*
X37811150Y-65618600D03*
%TD*%
D16*
%TO.C,C1*%
X74126000Y-90048000D03*
X74126000Y-92123000D03*
%TD*%
%TO.C,C9*%
X39531200Y-92769600D03*
X39531200Y-94844600D03*
%TD*%
D17*
%TO.C,LED2*%
X31577500Y-64450300D03*
X31584500Y-66049300D03*
%TD*%
D18*
%TO.C,R17*%
X40267800Y-35116000D03*
X40267800Y-37116000D03*
%TD*%
D16*
%TO.C,C16*%
X58987600Y-63374100D03*
X58987600Y-65449100D03*
%TD*%
D13*
%TO.C,SW2*%
X70712000Y-83106000D03*
X61426000Y-83106000D03*
X61426000Y-78606000D03*
X70712000Y-78606000D03*
%TD*%
D18*
%TO.C,R4*%
X44814400Y-92791100D03*
X44814400Y-94791100D03*
%TD*%
D19*
%TO.C,R5*%
X50148400Y-94791100D03*
X50148400Y-92791100D03*
%TD*%
D17*
%TO.C,LED1*%
X33990500Y-64467100D03*
X33997500Y-66066100D03*
%TD*%
D19*
%TO.C,R9*%
X47671900Y-82450000D03*
X47671900Y-80450000D03*
%TD*%
D16*
%TO.C,C19*%
X48675200Y-29672200D03*
X48675200Y-31747200D03*
%TD*%
D20*
%TO.C,U3*%
X42526000Y-86588700D03*
X42526000Y-87708700D03*
X42526000Y-88828700D03*
X43646000Y-86588700D03*
X43646000Y-87708700D03*
X43646000Y-88828700D03*
X44766000Y-86588700D03*
X44766000Y-87708700D03*
X44766000Y-88828700D03*
D21*
X41196000Y-86208700D03*
X41196000Y-86708700D03*
X41196000Y-87208700D03*
X41196000Y-87708700D03*
X41196000Y-88208700D03*
X41196000Y-88708700D03*
X41196000Y-89208700D03*
D22*
X42146000Y-90158700D03*
X42646000Y-90158700D03*
X43146000Y-90158700D03*
X43646000Y-90158700D03*
X44146000Y-90158700D03*
X44646000Y-90158700D03*
X45146000Y-90158700D03*
D21*
X46096000Y-89208700D03*
X46096000Y-88708700D03*
X46096000Y-88208700D03*
X46096000Y-87708700D03*
X46096000Y-87208700D03*
X46096000Y-86708700D03*
X46096000Y-86208700D03*
D22*
X45146000Y-85258700D03*
X44646000Y-85258700D03*
X44146000Y-85258700D03*
X43646000Y-85258700D03*
X43146000Y-85258700D03*
X42646000Y-85258700D03*
X42146000Y-85258700D03*
%TD*%
D19*
%TO.C,R18*%
X45576400Y-31696400D03*
X45576400Y-29696400D03*
%TD*%
D15*
%TO.C,R23*%
X103881000Y-51025800D03*
X102791000Y-51025800D03*
%TD*%
D12*
%TO.C,Q2*%
X42947500Y-80398400D03*
X42947500Y-82298400D03*
X40448500Y-81348400D03*
%TD*%
D23*
%TO.C,R11*%
X37496750Y-59723400D03*
X37496750Y-60589400D03*
%TD*%
D16*
%TO.C,C5*%
X36889600Y-92765700D03*
X36889600Y-94840700D03*
%TD*%
D24*
%TO.C,C11*%
X43001950Y-69022200D03*
X41001950Y-69022200D03*
%TD*%
D25*
%TO.C,U1*%
X35076000Y-88436700D03*
X36026000Y-88436700D03*
X36976000Y-88436700D03*
X36976000Y-86161700D03*
X36026000Y-86161700D03*
X35076000Y-86161700D03*
%TD*%
D26*
%TO.C,U7*%
X39463150Y-64328600D03*
X39963150Y-64328600D03*
X40463150Y-64328600D03*
X40963150Y-64328600D03*
D27*
X41713150Y-63578600D03*
X41713150Y-63078600D03*
X41713150Y-62578600D03*
X41713150Y-62078600D03*
D26*
X40963150Y-61328600D03*
X40463150Y-61328600D03*
X39963150Y-61328600D03*
X39463150Y-61328600D03*
D27*
X38713150Y-62078100D03*
X38713150Y-62578100D03*
X38713150Y-63078100D03*
X38713150Y-63578100D03*
D28*
X40213150Y-62828600D03*
%TD*%
D29*
%TO.C,C15*%
X61324400Y-65111600D03*
X61324400Y-63711600D03*
%TD*%
D11*
%TO.C,R13*%
X35707150Y-73086200D03*
X38665150Y-73086200D03*
%TD*%
D15*
%TO.C,C14*%
X42796000Y-59101000D03*
X41706000Y-59101000D03*
%TD*%
D12*
%TO.C,Q5*%
X49701850Y-54170200D03*
X49701850Y-52270200D03*
X47701850Y-53220200D03*
%TD*%
D29*
%TO.C,R20*%
X71873400Y-65137000D03*
X71873400Y-63737000D03*
%TD*%
D15*
%TO.C,R22*%
X103017400Y-48790600D03*
X101927400Y-48790600D03*
%TD*%
D30*
%TO.C,L_B-B1*%
X62608000Y-58976000D03*
X66164000Y-58976000D03*
%TD*%
D15*
%TO.C,R25*%
X101161000Y-41771000D03*
X100071000Y-41771000D03*
%TD*%
D19*
%TO.C,R8*%
X45182700Y-82434000D03*
X45182700Y-80434000D03*
%TD*%
D31*
%TO.C,U9*%
X52570000Y-23314400D03*
X52570000Y-24584400D03*
X52570000Y-25854400D03*
X52570000Y-27124400D03*
X52570000Y-28394400D03*
X52570000Y-29664400D03*
X52570000Y-30934400D03*
X52570000Y-32204400D03*
X52570000Y-33474400D03*
X52570000Y-34744400D03*
X52570000Y-36014400D03*
X52570000Y-37284400D03*
X52570000Y-38554400D03*
X52570000Y-39824400D03*
X52570000Y-41094400D03*
X52570000Y-42364400D03*
X52570000Y-43634400D03*
X52570000Y-44904400D03*
X52570000Y-46174400D03*
X70570000Y-46174400D03*
X70570000Y-44904400D03*
X70570000Y-43634400D03*
X70570000Y-42364400D03*
X70570000Y-41094400D03*
X70570000Y-39824400D03*
X70570000Y-38554400D03*
X70570000Y-37284400D03*
X70570000Y-36014400D03*
X70570000Y-34744400D03*
X70570000Y-33474400D03*
X70570000Y-32204400D03*
X70570000Y-30934400D03*
X70570000Y-29664400D03*
X70570000Y-28394400D03*
X70570000Y-27124400D03*
X70570000Y-25854400D03*
X70570000Y-24584400D03*
X70570000Y-23314400D03*
D32*
X58735000Y-28979400D03*
X58735000Y-30814400D03*
X58735000Y-32649400D03*
X60570000Y-28979400D03*
X60570000Y-30814400D03*
X60570000Y-32649400D03*
X62405000Y-28979400D03*
X62405000Y-30814400D03*
X62405000Y-32649400D03*
%TD*%
D33*
%TO.C,C7*%
X71162000Y-54937400D03*
X73237000Y-54937400D03*
%TD*%
%TO.C,C8*%
X71162000Y-57833000D03*
X73237000Y-57833000D03*
%TD*%
D15*
%TO.C,R21*%
X103068200Y-44320200D03*
X101978200Y-44320200D03*
%TD*%
D19*
%TO.C,R3*%
X42172800Y-94772300D03*
X42172800Y-92772300D03*
%TD*%
D18*
%TO.C,R16*%
X29311850Y-36077567D03*
X29311850Y-38077567D03*
%TD*%
D34*
%TO.C,CARD1*%
X106637300Y-44407000D03*
X106637300Y-45507000D03*
X106637300Y-46607000D03*
X106637300Y-47707000D03*
X106637300Y-48807000D03*
X106637300Y-49907000D03*
X106637300Y-51007000D03*
X106637300Y-52107000D03*
D35*
X107637300Y-54407000D03*
D36*
X117237300Y-54407000D03*
X117237300Y-38907000D03*
D37*
X107637300Y-39807000D03*
D34*
X106637300Y-53207000D03*
%TD*%
D18*
%TO.C,R19*%
X37905600Y-30915600D03*
X37905600Y-32915600D03*
%TD*%
D19*
%TO.C,R2*%
X40572600Y-26702000D03*
X40572600Y-24702000D03*
%TD*%
D38*
%TO.C,L_B-CH1*%
X45624750Y-64348600D03*
X45624750Y-61398600D03*
%TD*%
D15*
%TO.C,C6*%
X30999000Y-28750000D03*
X32089000Y-28750000D03*
%TD*%
D33*
%TO.C,C10*%
X100848500Y-46453800D03*
X102923500Y-46453800D03*
%TD*%
D18*
%TO.C,R6*%
X47456000Y-92791100D03*
X47456000Y-94791100D03*
%TD*%
D19*
%TO.C,R7*%
X52790000Y-94791100D03*
X52790000Y-92791100D03*
%TD*%
D23*
%TO.C,R14*%
X39081950Y-57124600D03*
X39081950Y-57990600D03*
%TD*%
D39*
%TO.C,U5*%
X65386200Y-63826000D03*
X64886200Y-63826000D03*
X64386200Y-63826000D03*
X63886200Y-63826000D03*
X63386200Y-63826000D03*
D40*
X63386200Y-66826000D03*
X63886200Y-66826000D03*
X64386200Y-66826000D03*
X64886200Y-66826000D03*
X65386200Y-66826000D03*
D41*
X64381200Y-65326000D03*
%TD*%
D42*
%TO.C,D3*%
X52205800Y-52016400D03*
X52205800Y-54216400D03*
%TD*%
D24*
%TO.C,C4*%
X73162000Y-51889400D03*
X71162000Y-51889400D03*
%TD*%
D43*
%TO.C,Q3*%
X32751050Y-30927967D03*
X30851050Y-30927967D03*
X31801050Y-32927967D03*
%TD*%
D44*
%TO.C,C3*%
X76691400Y-81105800D03*
X76691400Y-83105800D03*
%TD*%
D29*
%TO.C,C18*%
X67420400Y-65137000D03*
X67420400Y-63737000D03*
%TD*%
D45*
%TO.C,U10*%
X32428500Y-84483700D03*
X32428500Y-85283700D03*
D46*
X32428500Y-86433700D03*
X32428500Y-87433700D03*
X32428500Y-87933700D03*
X32429500Y-88933200D03*
D45*
X32428500Y-90083700D03*
X32428500Y-90883700D03*
D46*
X32428500Y-89433700D03*
X32428500Y-88433700D03*
X32428500Y-86933700D03*
X32429500Y-85933700D03*
%TD*%
D47*
%TO.C,C2*%
X73618000Y-83104600D03*
X73618000Y-81029600D03*
%TD*%
D48*
%TO.C,D2*%
X41898250Y-42077167D03*
X39698250Y-42077167D03*
%TD*%
D49*
%TO.C,R1*%
X36667600Y-76924400D03*
X38667600Y-76924400D03*
%TD*%
D50*
%TO.C,Q4*%
X34258650Y-36143567D03*
X34258650Y-38043567D03*
X36728650Y-37093567D03*
%TD*%
D23*
%TO.C,R10*%
X46374450Y-69686800D03*
X46374450Y-70552800D03*
%TD*%
D15*
%TO.C,R26*%
X103726000Y-53701000D03*
X102636000Y-53701000D03*
%TD*%
D51*
%TO.C,R15*%
X41418750Y-57124600D03*
X40552750Y-57124600D03*
%TD*%
D29*
%TO.C,C17*%
X69630200Y-65137000D03*
X69630200Y-63737000D03*
%TD*%
M02*
