M48
; DRILL file {KiCad 9.0.1} date 2025-06-06T16:35:33+0200
; FORMAT={-:-/ absolute / metric / decimal}
; #@! TF.CreationDate,2025-06-06T16:35:33+02:00
; #@! TF.GenerationSoftware,Kicad,Pcbnew,9.0.1
; #@! TF.FileFunction,Plated,1,4,PTH
FMAT,2
METRIC
; #@! TA.AperFunction,Plated,PTH,ComponentDrill
T1C0.300
; #@! TA.AperFunction,Plated,PTH,ViaDrill
T2C0.400
; #@! TA.AperFunction,Plated,PTH,ComponentDrill
T3C0.700
; #@! TA.AperFunction,Plated,PTH,ComponentDrill
T4C1.000
; #@! TA.AperFunction,Plated,PTH,ComponentDrill
T5C1.020
; #@! TA.AperFunction,Plated,PTH,ComponentDrill
T6C1.100
; #@! TA.AperFunction,Plated,PTH,ComponentDrill
T7C1.400
%
G90
G05
T1
X137.0Y-87.69
X137.008Y-85.86
X137.926Y-88.59
X137.93Y-84.94
X137.93Y-86.79
X138.854Y-87.69
X138.862Y-85.852
X139.76Y-84.94
X139.76Y-86.79
X139.76Y-88.59
X140.683Y-87.69
X140.691Y-85.86
X142.062Y-121.285
X142.66Y-121.285
X143.256Y-121.285
T2
X106.807Y-86.893
X111.176Y-115.57
X111.354Y-132.867
X112.014Y-142.375
X112.014Y-145.042
X112.166Y-108.306
X112.687Y-153.919
X113.344Y-140.765
X114.884Y-121.564
X115.621Y-146.406
X115.824Y-108.331
X116.23Y-90.703
X116.713Y-144.153
X117.196Y-116.484
X117.511Y-122.88
X117.801Y-150.8
X117.805Y-148.729
X118.11Y-142.342
X118.487Y-118.788
X118.722Y-137.307
X120.17Y-122.326
X120.904Y-139.965
X120.965Y-119.933
X121.118Y-117.749
X121.118Y-118.917
X121.361Y-114.351
X121.92Y-143.662
X121.932Y-139.965
X122.326Y-81.864
X122.326Y-130.124
X123.088Y-152.603
X123.342Y-127.0
X123.85Y-89.357
X124.648Y-125.629
X125.639Y-128.722
X126.746Y-90.703
X127.976Y-112.278
X128.422Y-148.75
X131.064Y-152.603
X132.639Y-93.294
X132.94Y-95.75
X133.299Y-86.893
X133.325Y-91.948
X133.54Y-88.862
X133.553Y-90.526
X133.629Y-99.746
X134.216Y-80.495
X135.026Y-119.304
X135.039Y-107.823
X135.077Y-123.596
X136.652Y-104.14
X136.754Y-149.276
X137.465Y-134.554
X138.282Y-95.878
X138.938Y-107.823
X139.7Y-144.78
X140.593Y-97.053
X142.418Y-123.774
X143.002Y-107.823
X144.094Y-123.774
X144.424Y-82.855
X144.882Y-81.534
X144.907Y-105.918
X148.59Y-125.984
X149.174Y-123.8
X149.987Y-103.642
X150.571Y-117.348
X150.889Y-102.502
X151.257Y-80.543
X152.654Y-81.788
X153.924Y-83.185
X154.572Y-84.95
X154.788Y-104.369
X154.788Y-113.792
X155.118Y-125.933
X155.143Y-86.665
X155.74Y-88.735
X155.804Y-106.07
X158.344Y-111.963
X162.662Y-89.129
X164.465Y-93.218
X176.022Y-104.699
X176.784Y-102.413
X178.206Y-108.458
X178.41Y-106.883
X179.064Y-100.279
X187.223Y-108.026
X188.112Y-95.758
X195.478Y-108.915
X195.529Y-96.215
T4
X177.749Y-90.805
X177.8Y-113.665
X180.289Y-90.805
X180.34Y-113.665
T5
X165.1Y-98.425
X165.1Y-106.043
X167.64Y-98.425
X167.64Y-106.043
X170.18Y-98.425
X170.18Y-106.043
X185.395Y-90.805
X185.42Y-113.665
X187.935Y-90.805
X187.96Y-113.665
X190.475Y-90.805
X190.5Y-113.665
X193.015Y-90.805
X193.04Y-113.665
X195.555Y-90.805
X195.58Y-113.665
X198.095Y-90.805
X198.12Y-113.665
T6
X165.1Y-90.805
X165.1Y-113.674
X167.64Y-90.805
X167.64Y-113.674
X170.18Y-90.805
X170.18Y-113.674
X172.72Y-90.805
X172.72Y-113.674
T7
X107.012Y-105.817
X107.012Y-110.817
T3
G00X106.203Y-139.327
M15
G01X105.502Y-139.327
M16
G05
G00X106.203Y-147.977
M15
G01X105.502Y-147.977
M16
G05
G00X110.552Y-139.327
M15
G01X109.552Y-139.327
M16
G05
G00X110.552Y-147.977
M15
G01X109.552Y-147.977
M16
G05
M30
