%TF.GenerationSoftware,KiCad,Pcbnew,9.0.1*%
%TF.CreationDate,2025-06-09T16:31:51+02:00*%
%TF.ProjectId,MY-ESP32,4d592d45-5350-4333-922e-6b696361645f,rev?*%
%TF.SameCoordinates,Original*%
%TF.FileFunction,Soldermask,Bot*%
%TF.FilePolarity,Negative*%
%FSLAX46Y46*%
G04 Gerber Fmt 4.6, Leading zero omitted, Abs format (unit mm)*
G04 Created by KiCad (PCBNEW 9.0.1) date 2025-06-09 16:31:51*
%MOMM*%
%LPD*%
G01*
G04 APERTURE LIST*
%ADD10O,0.500000X0.500000*%
%ADD11C,3.200000*%
%ADD12R,1.800000X1.800000*%
%ADD13C,1.600000*%
%ADD14R,1.700000X1.700000*%
%ADD15C,1.700000*%
%ADD16R,1.575000X1.575000*%
%ADD17C,1.575000*%
%ADD18O,2.100000X1.100000*%
%ADD19O,1.800000X1.200000*%
%ADD20C,2.200000*%
G04 APERTURE END LIST*
D10*
%TO.C,*%
X44196000Y-88265000D03*
%TD*%
%TO.C,*%
X44200000Y-87140000D03*
%TD*%
%TO.C,*%
X43078400Y-87147400D03*
%TD*%
%TO.C,*%
X43081800Y-88265000D03*
%TD*%
%TO.C,*%
X63765400Y-65300000D03*
%TD*%
%TO.C,*%
X65010000Y-65300000D03*
%TD*%
%TO.C,*%
X64388800Y-65300000D03*
%TD*%
%TO.C,*%
X59664600Y-31724600D03*
%TD*%
%TO.C,*%
X61502600Y-33603800D03*
%TD*%
%TO.C,*%
X63382600Y-33603800D03*
%TD*%
%TO.C,*%
X57785000Y-29895800D03*
%TD*%
%TO.C,*%
X63382600Y-29895800D03*
%TD*%
%TO.C,*%
X63382600Y-28013800D03*
%TD*%
%TO.C,*%
X59664600Y-33603800D03*
%TD*%
%TO.C,*%
X63382600Y-31723800D03*
%TD*%
%TO.C,*%
X61493400Y-31724600D03*
%TD*%
%TO.C,*%
X57785000Y-33604200D03*
%TD*%
%TO.C,*%
X59664600Y-28016200D03*
%TD*%
%TO.C,*%
X61492600Y-28013800D03*
%TD*%
%TO.C,*%
X59664600Y-29895800D03*
%TD*%
%TO.C,*%
X57782600Y-28013800D03*
%TD*%
%TO.C,*%
X57785000Y-31724600D03*
%TD*%
%TO.C,*%
X61493400Y-29895800D03*
%TD*%
D11*
%TO.C,H13*%
X117306000Y-66596000D03*
%TD*%
D12*
%TO.C,H5*%
X107120600Y-34846000D03*
D13*
X109660600Y-34846000D03*
X112200600Y-34846000D03*
X114740600Y-34846000D03*
X117280600Y-34846000D03*
X119820600Y-34846000D03*
%TD*%
D14*
%TO.C,H4*%
X86826000Y-57714600D03*
D15*
X89366000Y-57714600D03*
X91906000Y-57714600D03*
X94446000Y-57714600D03*
%TD*%
D14*
%TO.C,H8*%
X99475200Y-34846000D03*
D15*
X102015200Y-34846000D03*
%TD*%
D12*
%TO.C,H6*%
X107146000Y-57706000D03*
D13*
X109686000Y-57706000D03*
X112226000Y-57706000D03*
X114766000Y-57706000D03*
X117306000Y-57706000D03*
X119846000Y-57706000D03*
%TD*%
D11*
%TO.C,H12*%
X78571000Y-104061000D03*
%TD*%
%TO.C,H10*%
X117306000Y-22273000D03*
%TD*%
%TO.C,H9*%
X30438000Y-22273000D03*
%TD*%
D14*
%TO.C,H7*%
X102066000Y-57706000D03*
D15*
X99526000Y-57706000D03*
%TD*%
D16*
%TO.C,H1*%
X91906000Y-42466000D03*
D17*
X89366000Y-42466000D03*
X86826000Y-42466000D03*
%TD*%
D16*
%TO.C,H2*%
X91906000Y-50083800D03*
D17*
X89366000Y-50083800D03*
X86826000Y-50083800D03*
%TD*%
D11*
%TO.C,H11*%
X29041000Y-104061000D03*
%TD*%
D18*
%TO.C,U10*%
X31778500Y-83367700D03*
D19*
X27578500Y-83367700D03*
D18*
X31778500Y-92017700D03*
D19*
X27578500Y-92017700D03*
%TD*%
D14*
%TO.C,H3*%
X94446000Y-34846000D03*
D15*
X91906000Y-34846000D03*
X89366000Y-34846000D03*
X86826000Y-34846000D03*
%TD*%
D20*
%TO.C,U2*%
X28738250Y-49857567D03*
X28738250Y-54857567D03*
%TD*%
M02*
