%TF.GenerationSoftware,KiCad,Pcbnew,9.0.1*%
%TF.CreationDate,2025-06-12T08:49:48+02:00*%
%TF.ProjectId,MY-ESP32,4d592d45-5350-4333-922e-6b696361645f,rev?*%
%TF.SameCoordinates,Original*%
%TF.FileFunction,Copper,L2,Inr*%
%TF.FilePolarity,Positive*%
%FSLAX46Y46*%
G04 Gerber Fmt 4.6, Leading zero omitted, Abs format (unit mm)*
G04 Created by KiCad (PCBNEW 9.0.1) date 2025-06-12 08:49:48*
%MOMM*%
%LPD*%
G01*
G04 APERTURE LIST*
%TA.AperFunction,ComponentPad*%
%ADD10C,0.500000*%
%TD*%
%TA.AperFunction,ComponentPad*%
%ADD11C,1.400000*%
%TD*%
%TA.AperFunction,ComponentPad*%
%ADD12R,1.800000X1.800000*%
%TD*%
%TA.AperFunction,ComponentPad*%
%ADD13C,1.600000*%
%TD*%
%TA.AperFunction,ComponentPad*%
%ADD14C,1.800000*%
%TD*%
%TA.AperFunction,ComponentPad*%
%ADD15O,2.500000X1.200000*%
%TD*%
%TA.AperFunction,ComponentPad*%
%ADD16R,1.700000X1.700000*%
%TD*%
%TA.AperFunction,ComponentPad*%
%ADD17C,1.700000*%
%TD*%
%TA.AperFunction,ComponentPad*%
%ADD18R,1.575000X1.575000*%
%TD*%
%TA.AperFunction,ComponentPad*%
%ADD19C,1.575000*%
%TD*%
%TA.AperFunction,ComponentPad*%
%ADD20C,3.575000*%
%TD*%
%TA.AperFunction,ComponentPad*%
%ADD21O,2.100000X1.100000*%
%TD*%
%TA.AperFunction,ComponentPad*%
%ADD22O,1.800000X1.200000*%
%TD*%
%TA.AperFunction,ViaPad*%
%ADD23C,0.800000*%
%TD*%
%TA.AperFunction,Conductor*%
%ADD24C,0.508000*%
%TD*%
%TA.AperFunction,Conductor*%
%ADD25C,0.250000*%
%TD*%
%TA.AperFunction,Conductor*%
%ADD26C,0.254000*%
%TD*%
%TA.AperFunction,Conductor*%
%ADD27C,0.355600*%
%TD*%
G04 APERTURE END LIST*
D10*
%TO.N,GND*%
%TO.C,*%
X126233600Y-70866000D03*
%TD*%
D11*
%TO.N,/Battery_Voltage_Monitor_with_MOSFETS/V_Batt_Monitor_INPUT*%
%TO.C,U2*%
X92329000Y-107696000D03*
%TO.N,GND*%
X92329000Y-109696000D03*
%TD*%
D12*
%TO.N,GND*%
%TO.C,H6*%
X114300000Y-142468600D03*
D13*
%TO.N,EXT_5V*%
X114300000Y-145008600D03*
%TO.N,D32*%
X114300000Y-147548600D03*
%TO.N,D35*%
X114300000Y-150088600D03*
%TO.N,GND*%
X114300000Y-152628600D03*
X114300000Y-155168600D03*
%TD*%
D10*
%TO.N,GND*%
%TO.C,*%
X129692400Y-102616000D03*
%TD*%
D12*
%TO.N,VBAT*%
%TO.C,SW3*%
X94488000Y-97282000D03*
D14*
%TO.N,Net-(D2-C)*%
X94488000Y-94282000D03*
%TO.N,unconnected-(SW3-Pad3)*%
X94488000Y-91282000D03*
D15*
%TO.N,GND*%
X94488000Y-88482000D03*
X94488000Y-100082000D03*
%TD*%
D10*
%TO.N,GND*%
%TO.C,*%
X128549400Y-102610000D03*
%TD*%
%TO.N,GND*%
%TO.C,*%
X128066800Y-65354200D03*
%TD*%
%TO.N,GND*%
%TO.C,*%
X124380000Y-69020000D03*
%TD*%
D16*
%TO.N,+3V3*%
%TO.C,H3*%
X137160000Y-129692400D03*
D17*
%TO.N,GND*%
X137160000Y-127152400D03*
%TO.N,IO0*%
X137160000Y-124612400D03*
%TO.N,GND*%
X137160000Y-122072400D03*
%TD*%
D16*
%TO.N,+3V3*%
%TO.C,H8*%
X137160000Y-134772400D03*
D17*
%TO.N,GND*%
X137160000Y-137312400D03*
%TD*%
D10*
%TO.N,GND*%
%TO.C,*%
X126233600Y-65354200D03*
%TD*%
%TO.N,GND*%
%TO.C,*%
X122540000Y-69020000D03*
%TD*%
%TO.N,GND*%
%TO.C,*%
X128060000Y-67200000D03*
%TD*%
%TO.N,GND*%
%TO.C,*%
X129124200Y-102607550D03*
%TD*%
%TO.N,GND*%
%TO.C,*%
X124386800Y-65344200D03*
%TD*%
%TO.N,GND*%
%TO.C,*%
X128066800Y-70866000D03*
%TD*%
D16*
%TO.N,EXT_5V*%
%TO.C,H7*%
X114300000Y-137312400D03*
D17*
%TO.N,GND*%
X114300000Y-134772400D03*
%TD*%
D10*
%TO.N,GND*%
%TO.C,*%
X126226800Y-69030000D03*
%TD*%
%TO.N,GND*%
%TO.C,*%
X122546800Y-65344200D03*
%TD*%
%TO.N,GND*%
%TO.C,*%
X122540000Y-67190000D03*
%TD*%
D18*
%TO.N,D12*%
%TO.C,H1*%
X129540000Y-127203200D03*
D19*
%TO.N,D15*%
X129540000Y-124663200D03*
%TO.N,D2*%
X129540000Y-122123200D03*
%TD*%
D10*
%TO.N,GND*%
%TO.C,*%
X126226800Y-67200000D03*
%TD*%
%TO.N,GND*%
%TO.C,*%
X122546800Y-70856000D03*
%TD*%
D16*
%TO.N,+3V3*%
%TO.C,H4*%
X114300000Y-122072400D03*
D17*
%TO.N,D14*%
X114300000Y-124612400D03*
%TO.N,+3V3*%
X114300000Y-127152400D03*
%TO.N,GND*%
X114300000Y-129692400D03*
%TD*%
D20*
%TO.N,*%
%TO.C,U4*%
X167735600Y-106680000D03*
X152501600Y-106680000D03*
D19*
%TO.N,+3V3*%
X167741600Y-88162500D03*
%TO.N,GND*%
X165201600Y-88161500D03*
%TO.N,D22*%
X162661600Y-88160500D03*
%TO.N,D21*%
X160121600Y-88159500D03*
%TO.N,unconnected-(U4-INT-Pad5)*%
X157581600Y-88158500D03*
%TO.N,unconnected-(U4-RST-Pad6)*%
X155041600Y-88157500D03*
%TO.N,unconnected-(U4-32K-Pad7)*%
X152501600Y-88156500D03*
%TD*%
D10*
%TO.N,GND*%
%TO.C,*%
X124380000Y-67190000D03*
%TD*%
D21*
%TO.N,GND*%
%TO.C,U7*%
X92755100Y-116227050D03*
D22*
X88555100Y-116227050D03*
D21*
X92755100Y-124877050D03*
D22*
X88555100Y-124877050D03*
%TD*%
D12*
%TO.N,D5*%
%TO.C,H5*%
X137160000Y-142468600D03*
D13*
%TO.N,D18*%
X137160000Y-145008600D03*
%TO.N,D19*%
X137160000Y-147548600D03*
%TO.N,+3V3*%
X137160000Y-150088600D03*
%TO.N,GND*%
X137160000Y-152628600D03*
%TO.N,D23*%
X137160000Y-155168600D03*
%TD*%
D18*
%TO.N,GND*%
%TO.C,H2*%
X121920000Y-127203200D03*
D19*
%TO.N,+3V3*%
X121920000Y-124663200D03*
%TO.N,D13*%
X121920000Y-122123200D03*
%TD*%
D10*
%TO.N,GND*%
%TO.C,*%
X128060000Y-69030000D03*
%TD*%
%TO.N,GND*%
%TO.C,*%
X124386800Y-70856000D03*
%TD*%
D23*
%TO.N,+3V3*%
X121721100Y-111099600D03*
%TO.N,GND*%
X136855200Y-110693200D03*
X121666000Y-115062000D03*
%TO.N,D4*%
X139827000Y-114655600D03*
%TO.N,GND*%
X99103000Y-132677800D03*
X120954800Y-103301800D03*
X165201600Y-84582000D03*
X132181600Y-145101900D03*
X125526800Y-133773500D03*
X141122400Y-80467200D03*
X119913400Y-144212900D03*
X140817600Y-95127000D03*
X129622000Y-106405000D03*
X97010000Y-123510000D03*
X104919600Y-149860000D03*
X100685600Y-119546750D03*
X136804400Y-104546400D03*
X122758200Y-105079800D03*
X93815900Y-131197500D03*
X119024400Y-152467900D03*
X94469800Y-77649200D03*
X131724400Y-152518700D03*
X134391400Y-104978200D03*
%TO.N,IO0*%
X101425100Y-114207750D03*
X132600700Y-76263500D03*
X137007600Y-77114400D03*
%TO.N,ENA*%
X88900000Y-86593600D03*
X87782400Y-102209600D03*
%TO.N,+3V3*%
X120629027Y-61878400D03*
X114096800Y-86614000D03*
X167741600Y-84582000D03*
X104437000Y-129147900D03*
X104970400Y-138926200D03*
X131092000Y-105109200D03*
X131369000Y-87253000D03*
X136332000Y-98655000D03*
X93819800Y-129126400D03*
%TO.N,D15*%
X133630000Y-79660000D03*
%TO.N,D2*%
X119874600Y-134134500D03*
X132560000Y-78388400D03*
%TO.N,D14*%
X115350000Y-76657200D03*
X116510000Y-116452400D03*
%TO.N,/Battery_Voltage_Monitor_with_MOSFETS/V_Batt_Monitor_INPUT*%
X89916000Y-99872800D03*
%TO.N,EXT_5V*%
X97350000Y-139930000D03*
X105882925Y-97434400D03*
X88701700Y-134316800D03*
X104970400Y-143000000D03*
%TO.N,D12*%
X124990000Y-77090000D03*
X127355600Y-122072400D03*
%TO.N,D13*%
X128390000Y-79640000D03*
%TO.N,D4*%
X138120000Y-75860000D03*
%TO.N,D26*%
X111760000Y-79502000D03*
X113870000Y-73300000D03*
%TO.N,D27*%
X113400000Y-79465600D03*
X115320000Y-74540000D03*
%TO.N,D22*%
X136960000Y-63140000D03*
X146456400Y-68986400D03*
%TO.N,D23*%
X136998400Y-61878400D03*
%TO.N,D21*%
X146367500Y-72072500D03*
X136990000Y-66960000D03*
%TO.N,D5*%
X138214100Y-73266300D03*
%TO.N,D19*%
X138938000Y-69510000D03*
%TO.N,D18*%
X137287000Y-70768400D03*
%TO.N,D33*%
X110185200Y-79502000D03*
X111928700Y-73041300D03*
%TO.N,D35*%
X119964200Y-68122800D03*
%TO.N,D32*%
X118890000Y-69500000D03*
%TO.N,DN*%
X94716600Y-121942050D03*
X94716600Y-119275050D03*
%TO.N,/micro_SD-CARD_enable/3V3_Input_to_micro_SD-CARD*%
X130204600Y-133484500D03*
X118259600Y-135649500D03*
X124155200Y-127431800D03*
X127660400Y-136053400D03*
X123240800Y-133011500D03*
X121056400Y-135399100D03*
%TO.N,D25*%
X102692400Y-72038400D03*
X115240000Y-72038400D03*
%TO.N,D-*%
X99415600Y-121053050D03*
X96046549Y-117665250D03*
%TO.N,TXD0*%
X131343600Y-62869000D03*
X104634733Y-116865150D03*
X99949000Y-102946200D03*
X96799400Y-102946200D03*
%TO.N,RXD0*%
X103606600Y-116865150D03*
X132378400Y-65695000D03*
%TO.N,/Buck-Boost3.3V/Buck-Boost_INPUT*%
X121488400Y-100638800D03*
X128550575Y-105064560D03*
%TD*%
D24*
%TO.N,+3V3*%
X108004050Y-126641150D02*
X108000800Y-126644400D01*
X130496000Y-88126000D02*
X130863000Y-87759000D01*
X130863000Y-87759000D02*
X130863000Y-87325200D01*
X137160000Y-129692400D02*
X137134600Y-129717800D01*
X136352000Y-98675000D02*
X136352000Y-101040600D01*
X119339700Y-122072400D02*
X114300000Y-122072400D01*
X108508800Y-127152400D02*
X108000800Y-126644400D01*
X136332000Y-98655000D02*
X136352000Y-98675000D01*
X166979600Y-81940400D02*
X167792400Y-82753200D01*
X111150400Y-121310400D02*
X111150400Y-122072400D01*
X137160000Y-134772400D02*
X135636000Y-136296400D01*
X111150400Y-113919000D02*
X111150400Y-112979200D01*
X93819800Y-129126400D02*
X103980400Y-129126400D01*
X123799600Y-124612400D02*
X128879600Y-129692400D01*
X111641300Y-122072400D02*
X111395850Y-121826950D01*
X130880000Y-81026000D02*
X130880000Y-81502400D01*
X111150400Y-111099600D02*
X111150400Y-110210600D01*
X112344200Y-122072400D02*
X111641300Y-122072400D01*
X121920000Y-124612400D02*
X121879700Y-124612400D01*
X130880000Y-81502400D02*
X131318000Y-81940400D01*
X132283400Y-105109200D02*
X131092000Y-105109200D01*
X106937250Y-126647650D02*
X107470650Y-126114250D01*
X135636000Y-148564600D02*
X137160000Y-150088600D01*
X111150400Y-110210600D02*
X111150400Y-110540800D01*
X103980400Y-129126400D02*
X104415500Y-129126400D01*
X111150400Y-122434500D02*
X111150400Y-122072400D01*
X125908000Y-61853000D02*
X130880000Y-66825000D01*
X136352000Y-101040600D02*
X132283400Y-105109200D01*
X130880000Y-86730000D02*
X130863000Y-86747000D01*
X104415500Y-129126400D02*
X104437000Y-129147900D01*
X131318000Y-81940400D02*
X166979600Y-81940400D01*
X130880000Y-82550000D02*
X130880000Y-82378400D01*
X111150400Y-112014000D02*
X111150400Y-111658400D01*
X130372000Y-86614000D02*
X130880000Y-86106000D01*
X111150400Y-107471600D02*
X130496000Y-88126000D01*
X130863000Y-86747000D02*
X131369000Y-87253000D01*
X167792400Y-84531200D02*
X167741600Y-84582000D01*
X128879600Y-129692400D02*
X137160000Y-129692400D01*
X114300000Y-127152400D02*
X108508800Y-127152400D01*
X111150400Y-122072400D02*
X111641300Y-122072400D01*
X130880000Y-81940400D02*
X131318000Y-81940400D01*
X108004050Y-126641150D02*
X107997550Y-126647650D01*
X114300000Y-122072400D02*
X112344200Y-122072400D01*
X108004050Y-125580850D02*
X108004050Y-126641150D01*
X104437000Y-129147900D02*
X104437000Y-138392800D01*
X130496000Y-88126000D02*
X131369000Y-87253000D01*
X125476000Y-86614000D02*
X114096800Y-86614000D01*
X137160000Y-129692400D02*
X137160000Y-134772400D01*
X111150400Y-121310400D02*
X111150400Y-121581500D01*
X111150400Y-112979200D02*
X111150400Y-112014000D01*
X167792400Y-82753200D02*
X167792400Y-84531200D01*
X111150400Y-112014000D02*
X111150400Y-111099600D01*
X104437600Y-129148500D02*
X104437000Y-129147900D01*
X130352800Y-86614000D02*
X125476000Y-86614000D01*
X130863000Y-87325200D02*
X130863000Y-87105000D01*
X137160000Y-134713300D02*
X137134600Y-134738700D01*
X120701025Y-61853000D02*
X125908000Y-61853000D01*
X108004050Y-125580850D02*
X111150400Y-122434500D01*
X130880000Y-86106000D02*
X130880000Y-86730000D01*
X130730000Y-86614000D02*
X130352800Y-86614000D01*
X111395850Y-121826950D02*
X111150400Y-121581500D01*
X137134600Y-129709500D02*
X137117500Y-129692400D01*
X111512500Y-122072400D02*
X111150400Y-122434500D01*
X104437000Y-129147900D02*
X106937250Y-126647650D01*
X108000800Y-126644400D02*
X107470650Y-126114250D01*
X111150400Y-121310400D02*
X111150400Y-113919000D01*
D25*
X121920000Y-124612400D02*
X121913900Y-124612400D01*
D24*
X111150400Y-110210600D02*
X111150400Y-107471600D01*
X112344200Y-122072400D02*
X111512500Y-122072400D01*
X130880000Y-82550000D02*
X130880000Y-86106000D01*
X104437000Y-138392800D02*
X104970400Y-138926200D01*
X131369000Y-87253000D02*
X130730000Y-86614000D01*
X135636000Y-136296400D02*
X135636000Y-148564600D01*
X130880000Y-82378400D02*
X131318000Y-81940400D01*
D26*
X121920000Y-124612400D02*
X121920000Y-124652700D01*
D24*
X130880000Y-81026000D02*
X130880000Y-81940400D01*
X107470650Y-126114250D02*
X108004050Y-125580850D01*
X121920000Y-124612400D02*
X123799600Y-124612400D01*
X120629027Y-61878400D02*
X120675625Y-61878400D01*
X130863000Y-87105000D02*
X130372000Y-86614000D01*
X121879700Y-124612400D02*
X119339700Y-122072400D01*
X107997550Y-126647650D02*
X106937250Y-126647650D01*
X130880000Y-66825000D02*
X130880000Y-81026000D01*
X120675625Y-61878400D02*
X120701025Y-61853000D01*
X130863000Y-87325200D02*
X130863000Y-86747000D01*
X130352800Y-86614000D02*
X130372000Y-86614000D01*
X130880000Y-81940400D02*
X130880000Y-82550000D01*
%TO.N,/Battery_Voltage_Monitor_with_MOSFETS/V_Batt_Monitor_INPUT*%
X89916000Y-99872800D02*
X89916000Y-105224550D01*
X89916000Y-105224550D02*
X92329000Y-107637550D01*
X92329000Y-107637550D02*
X92329000Y-107696000D01*
%TO.N,EXT_5V*%
X88782900Y-134398000D02*
X88701700Y-134316800D01*
X104394000Y-142265400D02*
X104970400Y-142265400D01*
X106908600Y-123545600D02*
X104063800Y-126390400D01*
X105892600Y-97434400D02*
X106908600Y-98450400D01*
X104970400Y-143000000D02*
X104970400Y-142841800D01*
X102058600Y-139930000D02*
X104394000Y-142265400D01*
X106979000Y-145008600D02*
X114300000Y-145008600D01*
X106908600Y-98450400D02*
X106908600Y-123545600D01*
X104970400Y-143000000D02*
X106979000Y-145008600D01*
X97350000Y-139930000D02*
X102058600Y-139930000D01*
X105410000Y-142265400D02*
X106400600Y-142265400D01*
X104970400Y-142705000D02*
X105410000Y-142265400D01*
X104970400Y-143000000D02*
X104970400Y-142705000D01*
X111353600Y-137312400D02*
X114300000Y-137312400D01*
X93193800Y-126390400D02*
X91440000Y-128144200D01*
X91440000Y-131578500D02*
X88701700Y-134316800D01*
X104970400Y-142265400D02*
X105410000Y-142265400D01*
X91440000Y-128144200D02*
X91440000Y-131578500D01*
X88782900Y-134270800D02*
X88782900Y-134398000D01*
X104063800Y-126390400D02*
X93193800Y-126390400D01*
X105882925Y-97434400D02*
X105892600Y-97434400D01*
X106400600Y-142265400D02*
X111353600Y-137312400D01*
X104970400Y-142841800D02*
X104394000Y-142265400D01*
X104970400Y-142265400D02*
X104970400Y-143000000D01*
%TO.N,/micro_SD-CARD_enable/3V3_Input_to_micro_SD-CARD*%
X122000000Y-133011500D02*
X122071500Y-133011500D01*
D25*
X118269600Y-135639500D02*
X118259600Y-135649500D01*
D24*
X122000000Y-133011500D02*
X119148500Y-133011500D01*
X127266700Y-130543300D02*
X127220300Y-130496900D01*
X125294050Y-130958250D02*
X123240800Y-133011500D01*
X119148500Y-133011500D02*
X118259600Y-133900400D01*
X130204600Y-133481200D02*
X130204600Y-133484500D01*
X124155200Y-127431800D02*
X125755400Y-129032000D01*
X122071500Y-133011500D02*
X122656150Y-133596150D01*
X126534500Y-130496900D02*
X125755400Y-129717800D01*
X126568200Y-130496900D02*
X125755400Y-130496900D01*
X127266700Y-130543300D02*
X130204600Y-133481200D01*
X127220300Y-130496900D02*
X126568200Y-130496900D01*
X125755400Y-129032000D02*
X127266700Y-130543300D01*
X125755400Y-129717800D02*
X125755400Y-130496900D01*
X121056400Y-135399100D02*
X121056400Y-135195900D01*
X130204600Y-133484500D02*
X130204600Y-133509200D01*
X123240800Y-133011500D02*
X122000000Y-133011500D01*
X118259600Y-133900400D02*
X118259600Y-135649500D01*
X125755400Y-129032000D02*
X125755400Y-129717800D01*
X126568200Y-130496900D02*
X126534500Y-130496900D01*
D27*
X127660400Y-136053400D02*
X127660400Y-136028700D01*
D24*
X124155200Y-127431800D02*
X124180600Y-127431800D01*
X122656150Y-133596150D02*
X123240800Y-133011500D01*
X126011150Y-130241150D02*
X125294050Y-130958250D01*
X130204600Y-133509200D02*
X127660400Y-136053400D01*
X125755400Y-130496900D02*
X125294050Y-130958250D01*
X121056400Y-135195900D02*
X122656150Y-133596150D01*
%TO.N,/Buck-Boost3.3V/Buck-Boost_INPUT*%
X128505935Y-105109200D02*
X125958800Y-105109200D01*
X128550575Y-105064560D02*
X128505935Y-105109200D01*
X121488400Y-100562600D02*
X121488400Y-100638800D01*
X121501100Y-100549900D02*
X121488400Y-100562600D01*
X125958800Y-105109200D02*
X121488400Y-100638800D01*
%TO.N,+3V3*%
X111150400Y-110540800D02*
X111709200Y-111099600D01*
X111709200Y-111099600D02*
X111150400Y-111099600D01*
X111150400Y-111658400D02*
X111709200Y-111099600D01*
X121721100Y-111099600D02*
X111709200Y-111099600D01*
%TD*%
M02*
