%TF.GenerationSoftware,KiCad,Pcbnew,9.0.1*%
%TF.CreationDate,2025-06-12T08:49:48+02:00*%
%TF.ProjectId,MY-ESP32,4d592d45-5350-4333-922e-6b696361645f,rev?*%
%TF.SameCoordinates,Original*%
%TF.FileFunction,Copper,L4,Bot*%
%TF.FilePolarity,Positive*%
%FSLAX46Y46*%
G04 Gerber Fmt 4.6, Leading zero omitted, Abs format (unit mm)*
G04 Created by KiCad (PCBNEW 9.0.1) date 2025-06-12 08:49:48*
%MOMM*%
%LPD*%
G01*
G04 APERTURE LIST*
%TA.AperFunction,ComponentPad*%
%ADD10C,0.500000*%
%TD*%
%TA.AperFunction,ComponentPad*%
%ADD11C,1.400000*%
%TD*%
%TA.AperFunction,ComponentPad*%
%ADD12R,1.800000X1.800000*%
%TD*%
%TA.AperFunction,ComponentPad*%
%ADD13C,1.600000*%
%TD*%
%TA.AperFunction,ComponentPad*%
%ADD14C,1.800000*%
%TD*%
%TA.AperFunction,ComponentPad*%
%ADD15O,2.500000X1.200000*%
%TD*%
%TA.AperFunction,ComponentPad*%
%ADD16R,1.700000X1.700000*%
%TD*%
%TA.AperFunction,ComponentPad*%
%ADD17C,1.700000*%
%TD*%
%TA.AperFunction,ComponentPad*%
%ADD18R,1.575000X1.575000*%
%TD*%
%TA.AperFunction,ComponentPad*%
%ADD19C,1.575000*%
%TD*%
%TA.AperFunction,ComponentPad*%
%ADD20C,3.575000*%
%TD*%
%TA.AperFunction,ComponentPad*%
%ADD21O,2.100000X1.100000*%
%TD*%
%TA.AperFunction,ComponentPad*%
%ADD22O,1.800000X1.200000*%
%TD*%
%TA.AperFunction,ViaPad*%
%ADD23C,0.800000*%
%TD*%
%TA.AperFunction,Conductor*%
%ADD24C,0.254000*%
%TD*%
G04 APERTURE END LIST*
D10*
%TO.P,,39,GND*%
%TO.N,GND*%
X126233600Y-70866000D03*
%TD*%
D11*
%TO.P,U2,1,1*%
%TO.N,/Battery_Voltage_Monitor_with_MOSFETS/V_Batt_Monitor_INPUT*%
X92329000Y-107696000D03*
%TO.P,U2,2,2*%
%TO.N,GND*%
X92329000Y-109696000D03*
%TD*%
D12*
%TO.P,H6,1,1*%
%TO.N,GND*%
X114300000Y-142468600D03*
D13*
%TO.P,H6,2,2*%
%TO.N,EXT_5V*%
X114300000Y-145008600D03*
%TO.P,H6,3,3*%
%TO.N,D32*%
X114300000Y-147548600D03*
%TO.P,H6,4,4*%
%TO.N,D35*%
X114300000Y-150088600D03*
%TO.P,H6,5,5*%
%TO.N,GND*%
X114300000Y-152628600D03*
%TO.P,H6,6,6*%
X114300000Y-155168600D03*
%TD*%
D10*
%TO.P,,11,GND*%
%TO.N,GND*%
X129692400Y-102616000D03*
%TD*%
D12*
%TO.P,SW3,1,1*%
%TO.N,VBAT*%
X94488000Y-97282000D03*
D14*
%TO.P,SW3,2,2*%
%TO.N,Net-(D2-C)*%
X94488000Y-94282000D03*
%TO.P,SW3,3,3*%
%TO.N,unconnected-(SW3-Pad3)*%
X94488000Y-91282000D03*
D15*
%TO.P,SW3,4,4*%
%TO.N,GND*%
X94488000Y-88482000D03*
%TO.P,SW3,5,5*%
X94488000Y-100082000D03*
%TD*%
D10*
%TO.P,,11,GND*%
%TO.N,GND*%
X128549400Y-102610000D03*
%TD*%
%TO.P,,39,GND*%
%TO.N,GND*%
X128066800Y-65354200D03*
%TD*%
%TO.P,,39,GND*%
%TO.N,GND*%
X124380000Y-69020000D03*
%TD*%
D16*
%TO.P,H3,1,1*%
%TO.N,+3V3*%
X137160000Y-129692400D03*
D17*
%TO.P,H3,2,2*%
%TO.N,GND*%
X137160000Y-127152400D03*
%TO.P,H3,3,3*%
%TO.N,IO0*%
X137160000Y-124612400D03*
%TO.P,H3,4,4*%
%TO.N,GND*%
X137160000Y-122072400D03*
%TD*%
D16*
%TO.P,H8,1,1*%
%TO.N,+3V3*%
X137160000Y-134772400D03*
D17*
%TO.P,H8,2,2*%
%TO.N,GND*%
X137160000Y-137312400D03*
%TD*%
D10*
%TO.P,,39,GND*%
%TO.N,GND*%
X126233600Y-65354200D03*
%TD*%
%TO.P,,39,GND*%
%TO.N,GND*%
X122540000Y-69020000D03*
%TD*%
%TO.P,,39,GND*%
%TO.N,GND*%
X128060000Y-67200000D03*
%TD*%
%TO.P,,11,GND*%
%TO.N,GND*%
X129124200Y-102607550D03*
%TD*%
%TO.P,,39,GND*%
%TO.N,GND*%
X124386800Y-65344200D03*
%TD*%
%TO.P,,39,GND*%
%TO.N,GND*%
X128066800Y-70866000D03*
%TD*%
D16*
%TO.P,H7,1,1*%
%TO.N,EXT_5V*%
X114300000Y-137312400D03*
D17*
%TO.P,H7,2,2*%
%TO.N,GND*%
X114300000Y-134772400D03*
%TD*%
D10*
%TO.P,,39,GND*%
%TO.N,GND*%
X126226800Y-69030000D03*
%TD*%
%TO.P,,39,GND*%
%TO.N,GND*%
X122546800Y-65344200D03*
%TD*%
%TO.P,,39,GND*%
%TO.N,GND*%
X122540000Y-67190000D03*
%TD*%
D18*
%TO.P,H1,1,1*%
%TO.N,D12*%
X129540000Y-127203200D03*
D19*
%TO.P,H1,2,2*%
%TO.N,D15*%
X129540000Y-124663200D03*
%TO.P,H1,3,3*%
%TO.N,D2*%
X129540000Y-122123200D03*
%TD*%
D10*
%TO.P,,39,GND*%
%TO.N,GND*%
X126226800Y-67200000D03*
%TD*%
%TO.P,,39,GND*%
%TO.N,GND*%
X122546800Y-70856000D03*
%TD*%
D16*
%TO.P,H4,1,1*%
%TO.N,+3V3*%
X114300000Y-122072400D03*
D17*
%TO.P,H4,2,2*%
%TO.N,D14*%
X114300000Y-124612400D03*
%TO.P,H4,3,3*%
%TO.N,+3V3*%
X114300000Y-127152400D03*
%TO.P,H4,4,4*%
%TO.N,GND*%
X114300000Y-129692400D03*
%TD*%
D20*
%TO.P,U4,*%
%TO.N,*%
X167735600Y-106680000D03*
X152501600Y-106680000D03*
D19*
%TO.P,U4,1,VCC*%
%TO.N,+3V3*%
X167741600Y-88162500D03*
%TO.P,U4,2,GND*%
%TO.N,GND*%
X165201600Y-88161500D03*
%TO.P,U4,3,SCL*%
%TO.N,D22*%
X162661600Y-88160500D03*
%TO.P,U4,4,SDA*%
%TO.N,D21*%
X160121600Y-88159500D03*
%TO.P,U4,5,INT*%
%TO.N,unconnected-(U4-INT-Pad5)*%
X157581600Y-88158500D03*
%TO.P,U4,6,RST*%
%TO.N,unconnected-(U4-RST-Pad6)*%
X155041600Y-88157500D03*
%TO.P,U4,7,32K*%
%TO.N,unconnected-(U4-32K-Pad7)*%
X152501600Y-88156500D03*
%TD*%
D10*
%TO.P,,39,GND*%
%TO.N,GND*%
X124380000Y-67190000D03*
%TD*%
D21*
%TO.P,U7,0,0*%
%TO.N,GND*%
X92755100Y-116227050D03*
D22*
X88555100Y-116227050D03*
D21*
X92755100Y-124877050D03*
D22*
X88555100Y-124877050D03*
%TD*%
D12*
%TO.P,H5,1,1*%
%TO.N,D5*%
X137160000Y-142468600D03*
D13*
%TO.P,H5,2,2*%
%TO.N,D18*%
X137160000Y-145008600D03*
%TO.P,H5,3,3*%
%TO.N,D19*%
X137160000Y-147548600D03*
%TO.P,H5,4,4*%
%TO.N,+3V3*%
X137160000Y-150088600D03*
%TO.P,H5,5,5*%
%TO.N,GND*%
X137160000Y-152628600D03*
%TO.P,H5,6,6*%
%TO.N,D23*%
X137160000Y-155168600D03*
%TD*%
D18*
%TO.P,H2,1,1*%
%TO.N,GND*%
X121920000Y-127203200D03*
D19*
%TO.P,H2,2,2*%
%TO.N,+3V3*%
X121920000Y-124663200D03*
%TO.P,H2,3,3*%
%TO.N,D13*%
X121920000Y-122123200D03*
%TD*%
D10*
%TO.P,,39,GND*%
%TO.N,GND*%
X128060000Y-69030000D03*
%TD*%
%TO.P,,39,GND*%
%TO.N,GND*%
X124386800Y-70856000D03*
%TD*%
D23*
%TO.N,+3V3*%
X121721100Y-111099600D03*
%TO.N,GND*%
X136855200Y-110693200D03*
X121666000Y-115062000D03*
%TO.N,D4*%
X139827000Y-114655600D03*
%TO.N,GND*%
X99103000Y-132677800D03*
X120954800Y-103301800D03*
X165201600Y-84582000D03*
X132181600Y-145101900D03*
X125526800Y-133773500D03*
X141122400Y-80467200D03*
X119913400Y-144212900D03*
X140817600Y-95127000D03*
X129622000Y-106405000D03*
X97010000Y-123510000D03*
X104919600Y-149860000D03*
X100685600Y-119546750D03*
X136804400Y-104546400D03*
X122758200Y-105079800D03*
X93815900Y-131197500D03*
X119024400Y-152467900D03*
X94469800Y-77649200D03*
X131724400Y-152518700D03*
X134391400Y-104978200D03*
%TO.N,IO0*%
X101425100Y-114207750D03*
X132600700Y-76263500D03*
X137007600Y-77114400D03*
%TO.N,ENA*%
X88900000Y-86593600D03*
X87782400Y-102209600D03*
%TO.N,+3V3*%
X120629027Y-61878400D03*
X114096800Y-86614000D03*
X167741600Y-84582000D03*
X104437000Y-129147900D03*
X104970400Y-138926200D03*
X131092000Y-105109200D03*
X131369000Y-87253000D03*
X136332000Y-98655000D03*
X93819800Y-129126400D03*
%TO.N,D15*%
X133630000Y-79660000D03*
%TO.N,D2*%
X119874600Y-134134500D03*
X132560000Y-78388400D03*
%TO.N,D14*%
X115350000Y-76657200D03*
X116510000Y-116452400D03*
%TO.N,/Battery_Voltage_Monitor_with_MOSFETS/V_Batt_Monitor_INPUT*%
X89916000Y-99872800D03*
%TO.N,EXT_5V*%
X97350000Y-139930000D03*
X105882925Y-97434400D03*
X88701700Y-134316800D03*
X104970400Y-143000000D03*
%TO.N,D12*%
X124990000Y-77090000D03*
X127355600Y-122072400D03*
%TO.N,D13*%
X128390000Y-79640000D03*
%TO.N,D4*%
X138120000Y-75860000D03*
%TO.N,D26*%
X111760000Y-79502000D03*
X113870000Y-73300000D03*
%TO.N,D27*%
X113400000Y-79465600D03*
X115320000Y-74540000D03*
%TO.N,D22*%
X136960000Y-63140000D03*
X146456400Y-68986400D03*
%TO.N,D23*%
X136998400Y-61878400D03*
%TO.N,D21*%
X146367500Y-72072500D03*
X136990000Y-66960000D03*
%TO.N,D5*%
X138214100Y-73266300D03*
%TO.N,D19*%
X138938000Y-69510000D03*
%TO.N,D18*%
X137287000Y-70768400D03*
%TO.N,D33*%
X110185200Y-79502000D03*
X111928700Y-73041300D03*
%TO.N,D35*%
X119964200Y-68122800D03*
%TO.N,D32*%
X118890000Y-69500000D03*
%TO.N,DN*%
X94716600Y-121942050D03*
X94716600Y-119275050D03*
%TO.N,/micro_SD-CARD_enable/3V3_Input_to_micro_SD-CARD*%
X130204600Y-133484500D03*
X118259600Y-135649500D03*
X124155200Y-127431800D03*
X127660400Y-136053400D03*
X123240800Y-133011500D03*
X121056400Y-135399100D03*
%TO.N,D25*%
X102692400Y-72038400D03*
X115240000Y-72038400D03*
%TO.N,D-*%
X99415600Y-121053050D03*
X96046549Y-117665250D03*
%TO.N,TXD0*%
X131343600Y-62869000D03*
X104634733Y-116865150D03*
X99949000Y-102946200D03*
X96799400Y-102946200D03*
%TO.N,RXD0*%
X103606600Y-116865150D03*
X132378400Y-65695000D03*
%TO.N,/Buck-Boost3.3V/Buck-Boost_INPUT*%
X121488400Y-100638800D03*
X128550575Y-105064560D03*
%TD*%
D24*
%TO.N,D4*%
X139852400Y-114549700D02*
X139827000Y-114575100D01*
X139827000Y-114575100D02*
X139827000Y-114655600D01*
%TO.N,GND*%
X137142900Y-127169500D02*
X137160000Y-127152400D01*
%TO.N,IO0*%
X137922000Y-78028800D02*
X137922000Y-115468400D01*
X137160000Y-124612400D02*
X137142900Y-124629500D01*
X137007600Y-77114400D02*
X137922000Y-78028800D01*
X135991600Y-124612400D02*
X137160000Y-124612400D01*
X121310400Y-67411600D02*
X120700800Y-66802000D01*
X123494800Y-74523600D02*
X121310400Y-72339200D01*
X137922000Y-115468400D02*
X135255000Y-118135400D01*
X132600700Y-76263500D02*
X130860800Y-74523600D01*
X135255000Y-123875800D02*
X135991600Y-124612400D01*
X120700800Y-66802000D02*
X105765600Y-66802000D01*
X101422200Y-71145400D02*
X101422200Y-114204850D01*
X130860800Y-74523600D02*
X123494800Y-74523600D01*
X101422200Y-114204850D02*
X101425100Y-114207750D01*
X135255000Y-118135400D02*
X135255000Y-123875800D01*
X137142900Y-124629500D02*
X137134600Y-124629500D01*
X121310400Y-72339200D02*
X121310400Y-67411600D01*
X105765600Y-66802000D02*
X101422200Y-71145400D01*
%TO.N,ENA*%
X87045800Y-88447800D02*
X88900000Y-86593600D01*
X87045800Y-101473000D02*
X87045800Y-88447800D01*
X87782400Y-102209600D02*
X87045800Y-101473000D01*
%TO.N,+3V3*%
X137134600Y-150004100D02*
X137168300Y-150037800D01*
%TO.N,D15*%
X133620000Y-79670000D02*
X133620000Y-85120000D01*
X135661400Y-111818600D02*
X131840000Y-115640000D01*
X135661400Y-98296052D02*
X135604000Y-98353452D01*
X135604000Y-98353452D02*
X135604000Y-98956548D01*
X135661400Y-87161400D02*
X135661400Y-98296052D01*
X131840000Y-122363200D02*
X129540000Y-124663200D01*
X133630000Y-79660000D02*
X133620000Y-79670000D01*
X135661400Y-99013948D02*
X135661400Y-111818600D01*
X135604000Y-98956548D02*
X135661400Y-99013948D01*
X131840000Y-115640000D02*
X131840000Y-122363200D01*
X133620000Y-85120000D02*
X135661400Y-87161400D01*
%TO.N,D2*%
X129540000Y-115430000D02*
X132970000Y-112000000D01*
X132530000Y-86050000D02*
X132530000Y-78418400D01*
X129540000Y-122123200D02*
X129540000Y-115430000D01*
X126365000Y-127644100D02*
X126365000Y-125239100D01*
X126365000Y-125239100D02*
X129531700Y-122072400D01*
X119874600Y-134134500D02*
X126365000Y-127644100D01*
X132530000Y-78418400D02*
X132560000Y-78388400D01*
X132970000Y-112000000D02*
X132970000Y-86490000D01*
X132970000Y-86490000D02*
X132530000Y-86050000D01*
X129531700Y-122072400D02*
X129540000Y-122072400D01*
%TO.N,D14*%
X115350000Y-83820000D02*
X116520000Y-84990000D01*
X114985800Y-124629500D02*
X114266000Y-124629500D01*
X116510000Y-115602400D02*
X116510000Y-116452400D01*
X116520000Y-84990000D02*
X116520000Y-115592400D01*
X115350000Y-76657200D02*
X115350000Y-83820000D01*
X116520000Y-115592400D02*
X116510000Y-115602400D01*
%TO.N,D12*%
X127355600Y-122072400D02*
X127355600Y-96844400D01*
X129670000Y-78580000D02*
X128180000Y-77090000D01*
X128180000Y-77090000D02*
X124990000Y-77090000D01*
X127355600Y-96844400D02*
X129670000Y-94530000D01*
X129670000Y-94530000D02*
X129670000Y-78580000D01*
%TO.N,D13*%
X124110000Y-91150000D02*
X124110000Y-119933200D01*
X128390000Y-86870000D02*
X124110000Y-91150000D01*
X124110000Y-119933200D02*
X121920000Y-122123200D01*
X128390000Y-79640000D02*
X128390000Y-86870000D01*
%TO.N,D4*%
X138247000Y-75890000D02*
X139852400Y-77495400D01*
X138150000Y-75890000D02*
X138247000Y-75890000D01*
X138120000Y-75860000D02*
X138150000Y-75890000D01*
X139852400Y-77495400D02*
X139852400Y-114549700D01*
%TO.N,D26*%
X113870000Y-73300000D02*
X111760000Y-75410000D01*
X111760000Y-75410000D02*
X111760000Y-79502000D01*
%TO.N,D27*%
X113400000Y-79465600D02*
X113400000Y-75750000D01*
X113400000Y-75750000D02*
X114610000Y-74540000D01*
X114610000Y-74540000D02*
X115320000Y-74540000D01*
%TO.N,D22*%
X140610000Y-63140000D02*
X136960000Y-63140000D01*
X146456400Y-68986400D02*
X140610000Y-63140000D01*
%TO.N,D23*%
X148386800Y-145889300D02*
X148386800Y-67868800D01*
X139107500Y-155168600D02*
X148386800Y-145889300D01*
X142396400Y-61878400D02*
X136998400Y-61878400D01*
X137219100Y-155168600D02*
X139107500Y-155168600D01*
X148386800Y-67868800D02*
X142396400Y-61878400D01*
X137134600Y-155084100D02*
X137219100Y-155168600D01*
%TO.N,D21*%
X141270000Y-66960000D02*
X136990000Y-66960000D01*
X141270000Y-66975000D02*
X141270000Y-66960000D01*
X146367500Y-72072500D02*
X141270000Y-66975000D01*
%TO.N,D5*%
X142440000Y-77492200D02*
X142440000Y-139517100D01*
X137219100Y-142468600D02*
X137134600Y-142384100D01*
X139488500Y-142468600D02*
X137219100Y-142468600D01*
X138214100Y-73266300D02*
X142440000Y-77492200D01*
X142440000Y-139517100D02*
X139488500Y-142468600D01*
%TO.N,D19*%
X137219100Y-147548600D02*
X137134600Y-147464100D01*
X146354800Y-75264800D02*
X146354800Y-140682300D01*
X140600000Y-69510000D02*
X146354800Y-75264800D01*
X146354800Y-140682300D02*
X139488500Y-147548600D01*
X138938000Y-69510000D02*
X140600000Y-69510000D01*
X139488500Y-147548600D02*
X137219100Y-147548600D01*
%TO.N,D18*%
X144150000Y-76000000D02*
X144150000Y-140347100D01*
X139488500Y-145008600D02*
X137219100Y-145008600D01*
X138918400Y-70768400D02*
X144150000Y-76000000D01*
X137219100Y-145008600D02*
X137134600Y-144924100D01*
X137287000Y-70768400D02*
X138918400Y-70768400D01*
X144150000Y-140347100D02*
X139488500Y-145008600D01*
%TO.N,D33*%
X111928700Y-73041300D02*
X110185200Y-74784800D01*
X110185200Y-74784800D02*
X110185200Y-79502000D01*
%TO.N,D35*%
X120040000Y-68198600D02*
X120040000Y-120399100D01*
X117159600Y-147229000D02*
X114300000Y-150088600D01*
X117159600Y-123279500D02*
X117159600Y-147229000D01*
X119964200Y-68122800D02*
X120040000Y-68198600D01*
X120040000Y-120399100D02*
X117159600Y-123279500D01*
%TO.N,D32*%
X118890000Y-69500000D02*
X118030000Y-70360000D01*
X118030000Y-119807300D02*
X115969600Y-121867700D01*
X118030000Y-70360000D02*
X118030000Y-119807300D01*
X115969600Y-121867700D02*
X115969600Y-145879000D01*
X115969600Y-145879000D02*
X114300000Y-147548600D01*
%TO.N,DN*%
X94716600Y-119275050D02*
X94716600Y-121942050D01*
%TO.N,D25*%
X115240000Y-72038400D02*
X102692400Y-72038400D01*
%TO.N,D-*%
X96046549Y-117683999D02*
X96046549Y-117665250D01*
X99415600Y-121053050D02*
X96046549Y-117683999D01*
%TO.N,TXD0*%
X130829600Y-62355000D02*
X131343600Y-62869000D01*
X96799400Y-70260600D02*
X102667000Y-64393000D01*
X99974400Y-114782600D02*
X99974400Y-102971600D01*
X99974400Y-102971600D02*
X99949000Y-102946200D01*
X104634733Y-116180683D02*
X103962200Y-115508150D01*
X119913600Y-64393000D02*
X121951600Y-62355000D01*
X103962200Y-115508150D02*
X100699950Y-115508150D01*
X102667000Y-64393000D02*
X119913600Y-64393000D01*
X96799400Y-102946200D02*
X96799400Y-70260600D01*
X121951600Y-62355000D02*
X130829600Y-62355000D01*
X104634733Y-116865150D02*
X104634733Y-116180683D01*
X100699950Y-115508150D02*
X99974400Y-114782600D01*
%TO.N,RXD0*%
X103592000Y-116879750D02*
X103606600Y-116865150D01*
X100318950Y-116879750D02*
X103592000Y-116879750D01*
X104642200Y-65415000D02*
X98628200Y-71429000D01*
X120872800Y-65415000D02*
X104642200Y-65415000D01*
X98628200Y-71429000D02*
X98628200Y-115189000D01*
X98628200Y-115189000D02*
X100318950Y-116879750D01*
X132378400Y-65681800D02*
X130327600Y-63631000D01*
X132378400Y-65695000D02*
X132378400Y-65681800D01*
X122656800Y-63631000D02*
X120872800Y-65415000D01*
X130327600Y-63631000D02*
X122656800Y-63631000D01*
%TD*%
M02*
