M48
; DRILL file {KiCad 9.0.1} date 2025-06-12T19:00:38+0200
; FORMAT={-:-/ absolute / metric / decimal}
; #@! TF.CreationDate,2025-06-12T19:00:38+02:00
; #@! TF.GenerationSoftware,Kicad,Pcbnew,9.0.1
; #@! TF.FileFunction,Plated,1,4,PTH
FMAT,2
METRIC
; #@! TA.AperFunction,Plated,PTH,ComponentDrill
T1C0.300
; #@! TA.AperFunction,Plated,PTH,ViaDrill
T2C0.400
; #@! TA.AperFunction,Plated,PTH,ComponentDrill
T3C0.600
; #@! TA.AperFunction,Plated,PTH,ComponentDrill
T4C0.900
; #@! TA.AperFunction,Plated,PTH,ComponentDrill
T5C1.000
; #@! TA.AperFunction,Plated,PTH,ComponentDrill
T6C1.020
; #@! TA.AperFunction,Plated,PTH,ComponentDrill
T7C1.100
; #@! TA.AperFunction,Plated,PTH,ComponentDrill
T8C2.050
%
G90
G05
T1
X122.517Y-68.974
X122.527Y-65.304
X122.527Y-70.804
X122.537Y-67.134
X124.367Y-68.974
X124.377Y-65.304
X124.377Y-70.804
X124.387Y-67.134
X126.187Y-68.974
X126.197Y-65.304
X126.197Y-70.804
X126.207Y-67.134
X128.037Y-68.974
X128.047Y-65.304
X128.047Y-70.804
X128.057Y-67.134
X128.51Y-102.633
X129.12Y-102.633
X129.73Y-102.632
T2
X87.782Y-102.21
X88.65Y-136.171
X88.824Y-120.701
X88.849Y-117.348
X88.875Y-123.698
X88.9Y-86.594
X89.916Y-99.873
X93.764Y-133.052
X93.768Y-130.981
X94.47Y-77.649
X94.717Y-119.275
X94.717Y-121.942
X96.047Y-117.665
X96.799Y-102.946
X97.01Y-123.51
X97.409Y-141.351
X97.739Y-129.845
X99.052Y-134.532
X99.416Y-121.053
X99.949Y-102.946
X100.686Y-119.547
X101.425Y-114.208
X102.692Y-72.038
X103.124Y-101.854
X103.607Y-116.865
X104.386Y-131.002
X104.635Y-116.865
X104.92Y-149.86
X104.97Y-138.926
X104.97Y-143.0
X105.883Y-97.434
X110.185Y-79.502
X111.76Y-79.502
X111.929Y-73.041
X113.4Y-79.466
X113.87Y-73.3
X114.097Y-86.614
X115.24Y-72.038
X115.32Y-74.54
X115.35Y-76.657
X116.51Y-116.452
X118.26Y-135.649
X118.89Y-69.5
X119.024Y-152.468
X119.875Y-134.135
X119.913Y-144.213
X119.964Y-68.123
X120.629Y-61.878
X120.955Y-103.302
X121.056Y-135.399
X121.488Y-100.639
X121.666Y-115.062
X121.721Y-111.1
X122.758Y-105.08
X123.241Y-133.011
X124.155Y-127.432
X124.99Y-77.09
X125.527Y-133.773
X127.356Y-122.072
X127.66Y-136.053
X128.39Y-79.64
X128.551Y-105.065
X129.622Y-106.405
X130.205Y-133.484
X131.092Y-105.109
X131.344Y-62.869
X131.369Y-87.253
X131.724Y-152.519
X132.182Y-145.102
X132.378Y-65.695
X132.56Y-78.388
X132.601Y-76.263
X133.63Y-79.66
X134.391Y-104.978
X136.332Y-98.655
X136.804Y-104.546
X136.855Y-110.693
X136.96Y-63.14
X136.99Y-66.96
X136.998Y-61.878
X137.008Y-77.114
X137.287Y-70.768
X138.12Y-75.86
X138.214Y-73.266
X138.938Y-69.51
X139.827Y-114.656
X140.818Y-95.127
X141.122Y-80.467
X142.621Y-92.456
X146.368Y-72.072
X146.456Y-68.986
X150.241Y-92.456
X152.781Y-123.368
X153.111Y-134.163
X154.61Y-127.076
X155.092Y-134.315
X156.464Y-128.346
X156.896Y-134.188
X160.147Y-108.915
X161.595Y-111.15
X163.83Y-128.219
X164.186Y-134.137
X164.658Y-112.522
X165.125Y-126.949
X165.202Y-84.582
X166.294Y-134.366
X167.742Y-84.582
X168.148Y-112.649
X168.199Y-134.137
X171.384Y-104.658
T4
X92.329Y-107.696
X92.329Y-109.696
T5
X114.3Y-134.772
X114.3Y-137.312
X137.16Y-134.772
X137.16Y-137.312
T6
X114.3Y-142.469
X114.3Y-145.009
X114.3Y-147.549
X114.3Y-150.089
X114.3Y-152.629
X114.3Y-155.169
X121.92Y-122.123
X121.92Y-124.663
X121.92Y-127.203
X129.54Y-122.123
X129.54Y-124.663
X129.54Y-127.203
X137.16Y-142.469
X137.16Y-145.009
X137.16Y-147.549
X137.16Y-150.089
X137.16Y-152.629
X137.16Y-155.169
X152.502Y-87.12
X155.042Y-87.121
X157.582Y-87.122
X160.122Y-87.123
X162.662Y-87.124
X165.202Y-87.125
X167.742Y-87.126
T7
X94.488Y-91.282
X94.488Y-94.282
X94.488Y-97.282
X114.3Y-122.072
X114.3Y-124.612
X114.3Y-127.152
X114.3Y-129.692
X137.16Y-122.072
X137.16Y-124.612
X137.16Y-127.152
X137.16Y-129.692
T8
X152.502Y-105.643
X167.736Y-105.643
T3
G00X93.788Y-88.482
M15
G01X95.188Y-88.482
M16
G05
G00X93.788Y-100.082
M15
G01X95.188Y-100.082
M16
G05
M30
