%TF.GenerationSoftware,KiCad,Pcbnew,9.0.1*%
%TF.CreationDate,2025-06-06T16:35:30+02:00*%
%TF.ProjectId,MY-ESP32,4d592d45-5350-4333-922e-6b696361645f,rev?*%
%TF.SameCoordinates,Original*%
%TF.FileFunction,Copper,L4,Bot*%
%TF.FilePolarity,Positive*%
%FSLAX46Y46*%
G04 Gerber Fmt 4.6, Leading zero omitted, Abs format (unit mm)*
G04 Created by KiCad (PCBNEW 9.0.1) date 2025-06-06 16:35:30*
%MOMM*%
%LPD*%
G01*
G04 APERTURE LIST*
%TA.AperFunction,ComponentPad*%
%ADD10C,0.500000*%
%TD*%
%TA.AperFunction,ComponentPad*%
%ADD11R,1.800000X1.800000*%
%TD*%
%TA.AperFunction,ComponentPad*%
%ADD12C,1.600000*%
%TD*%
%TA.AperFunction,ComponentPad*%
%ADD13R,1.700000X1.700000*%
%TD*%
%TA.AperFunction,ComponentPad*%
%ADD14C,1.700000*%
%TD*%
%TA.AperFunction,ComponentPad*%
%ADD15R,1.575000X1.575000*%
%TD*%
%TA.AperFunction,ComponentPad*%
%ADD16C,1.575000*%
%TD*%
%TA.AperFunction,ComponentPad*%
%ADD17O,2.100000X1.100000*%
%TD*%
%TA.AperFunction,ComponentPad*%
%ADD18O,1.800000X1.200000*%
%TD*%
%TA.AperFunction,ComponentPad*%
%ADD19C,2.200000*%
%TD*%
%TA.AperFunction,ViaPad*%
%ADD20C,0.800000*%
%TD*%
%TA.AperFunction,Conductor*%
%ADD21C,0.254000*%
%TD*%
%TA.AperFunction,Conductor*%
%ADD22C,0.355600*%
%TD*%
G04 APERTURE END LIST*
D10*
%TO.P,,PTH13,GND*%
%TO.N,GND*%
X142062200Y-121285000D03*
%TD*%
%TO.P,,PTH15,GND*%
%TO.N,GND*%
X143256000Y-121285000D03*
%TD*%
%TO.P,,PTH10,GND*%
%TO.N,GND*%
X140683000Y-87690000D03*
%TD*%
D11*
%TO.P,H5,1,1*%
%TO.N,D5*%
X185394600Y-90805000D03*
D12*
%TO.P,H5,2,2*%
%TO.N,D18*%
X187934600Y-90805000D03*
%TO.P,H5,3,3*%
%TO.N,D19*%
X190474600Y-90805000D03*
%TO.P,H5,4,4*%
%TO.N,D21*%
X193014600Y-90805000D03*
%TO.P,H5,5,5*%
%TO.N,D22*%
X195554600Y-90805000D03*
%TO.P,H5,6,6*%
%TO.N,D23*%
X198094600Y-90805000D03*
%TD*%
D10*
%TO.P,,PTH1,GND*%
%TO.N,GND*%
X137930000Y-84940000D03*
%TD*%
%TO.P,,PTH11,GND*%
%TO.N,GND*%
X137925800Y-88590000D03*
%TD*%
D13*
%TO.P,H4,1,1*%
%TO.N,+3V3*%
X165100000Y-113673600D03*
D14*
%TO.P,H4,2,2*%
%TO.N,D14*%
X167640000Y-113673600D03*
%TO.P,H4,3,3*%
%TO.N,D27*%
X170180000Y-113673600D03*
%TO.P,H4,4,4*%
%TO.N,D26*%
X172720000Y-113673600D03*
%TD*%
D10*
%TO.P,,PTH9,GND*%
%TO.N,GND*%
X138854200Y-87690000D03*
%TD*%
D13*
%TO.P,H8,1,1*%
%TO.N,+3V3*%
X177749200Y-90805000D03*
D14*
%TO.P,H8,2,2*%
%TO.N,GND*%
X180289200Y-90805000D03*
%TD*%
D10*
%TO.P,,PTH2,GND*%
%TO.N,GND*%
X139760000Y-84940000D03*
%TD*%
%TO.P,,PTH4,GND*%
%TO.N,GND*%
X138861800Y-85852000D03*
%TD*%
%TO.P,,PTH12,GND*%
%TO.N,GND*%
X139760000Y-88590000D03*
%TD*%
%TO.P,,PTH8,GND*%
%TO.N,GND*%
X137000000Y-87690000D03*
%TD*%
D11*
%TO.P,H6,1,1*%
%TO.N,GND*%
X185420000Y-113665000D03*
D12*
%TO.P,H6,2,2*%
%TO.N,D33*%
X187960000Y-113665000D03*
%TO.P,H6,3,3*%
%TO.N,D32*%
X190500000Y-113665000D03*
%TO.P,H6,4,4*%
%TO.N,D35*%
X193040000Y-113665000D03*
%TO.P,H6,5,5*%
%TO.N,GND*%
X195580000Y-113665000D03*
%TO.P,H6,6,6*%
X198120000Y-113665000D03*
%TD*%
D10*
%TO.P,,PTH14,GND*%
%TO.N,GND*%
X142660200Y-121285000D03*
%TD*%
%TO.P,,PTH7,GND*%
%TO.N,GND*%
X139760000Y-86790000D03*
%TD*%
D13*
%TO.P,H7,1,1*%
%TO.N,EXT_5V*%
X180340000Y-113665000D03*
D14*
%TO.P,H7,2,2*%
%TO.N,GND*%
X177800000Y-113665000D03*
%TD*%
D15*
%TO.P,H1,1,1*%
%TO.N,D12*%
X170180000Y-98425000D03*
D16*
%TO.P,H1,2,2*%
%TO.N,D15*%
X167640000Y-98425000D03*
%TO.P,H1,3,3*%
%TO.N,D2*%
X165100000Y-98425000D03*
%TD*%
D15*
%TO.P,H2,1,1*%
%TO.N,GND*%
X170180000Y-106042800D03*
D16*
%TO.P,H2,2,2*%
%TO.N,+3V3*%
X167640000Y-106042800D03*
%TO.P,H2,3,3*%
%TO.N,D13*%
X165100000Y-106042800D03*
%TD*%
D17*
%TO.P,U10,0,0*%
%TO.N,GND*%
X110052500Y-139326700D03*
D18*
X105852500Y-139326700D03*
D17*
X110052500Y-147976700D03*
D18*
X105852500Y-147976700D03*
%TD*%
D10*
%TO.P,,PTH5,GND*%
%TO.N,GND*%
X140690600Y-85860000D03*
%TD*%
%TO.P,,PTH6,GND*%
%TO.N,GND*%
X137930000Y-86790000D03*
%TD*%
%TO.P,,PTH3,GND*%
%TO.N,GND*%
X137007600Y-85860000D03*
%TD*%
D13*
%TO.P,H3,1,1*%
%TO.N,+3V3*%
X172720000Y-90805000D03*
D14*
%TO.P,H3,2,2*%
%TO.N,IO0*%
X170180000Y-90805000D03*
%TO.P,H3,3,3*%
%TO.N,D4*%
X167640000Y-90805000D03*
%TO.P,H3,4,4*%
%TO.N,GND*%
X165100000Y-90805000D03*
%TD*%
D19*
%TO.P,U2,1,1*%
%TO.N,/Battery_Charger_LiFePO4_3.6V/Battery_Charger_OUTPUT*%
X107012250Y-105816567D03*
%TO.P,U2,2,2*%
%TO.N,GND*%
X107012250Y-110816567D03*
%TD*%
D20*
%TO.N,GND*%
X135077200Y-123596400D03*
X149174200Y-123799600D03*
%TO.N,+3V3*%
X150571200Y-117348000D03*
%TO.N,GND*%
X123088400Y-152603200D03*
X121920000Y-143662400D03*
X111175800Y-115570000D03*
X176784000Y-102412800D03*
X117195600Y-116484400D03*
X121117850Y-117748800D03*
X195529200Y-96215200D03*
X120965450Y-119933200D03*
X137464800Y-134554400D03*
X123342400Y-127000000D03*
X154787600Y-113792000D03*
X115620800Y-146405600D03*
X136753600Y-149275800D03*
X118110000Y-142341600D03*
X131064000Y-152603200D03*
X123850400Y-89357200D03*
X114884200Y-121564400D03*
X138938000Y-107823000D03*
X188112400Y-95758000D03*
X118487150Y-118787600D03*
X121361200Y-114350800D03*
X140593400Y-97053400D03*
X117801300Y-150799700D03*
X111353600Y-132867400D03*
X187223400Y-108026200D03*
X106807000Y-86893400D03*
X195478400Y-108915200D03*
%TO.N,IO0*%
X139700000Y-144780000D03*
X164465000Y-93218000D03*
X136652000Y-104140000D03*
X118722500Y-137307400D03*
%TO.N,ENA*%
X122326400Y-130124200D03*
X122326400Y-81864200D03*
%TO.N,+3V3*%
X134215726Y-80494701D03*
X128422400Y-148750100D03*
X179063900Y-100279200D03*
X143002000Y-107823000D03*
X176022000Y-104698800D03*
X144094200Y-123774200D03*
X144907000Y-105918000D03*
X178409600Y-106883200D03*
X117805200Y-148728600D03*
%TO.N,D2*%
X178206400Y-108458000D03*
%TO.N,D14*%
X138282367Y-95877633D03*
X158343600Y-111963200D03*
%TO.N,Net-(U7-BOOST)*%
X117511050Y-122879600D03*
X120169600Y-122326400D03*
%TO.N,EXT_5V*%
X148590000Y-125984000D03*
X125639050Y-128721600D03*
X127975850Y-112278000D03*
X155117800Y-125933200D03*
X112687100Y-153919000D03*
%TO.N,D12*%
X132940000Y-95750000D03*
X154787600Y-104368600D03*
%TO.N,D13*%
X133629400Y-99745800D03*
X155803600Y-106070400D03*
%TO.N,D4*%
X162661600Y-89128600D03*
%TO.N,D26*%
X150888700Y-102501700D03*
X133324600Y-91948000D03*
%TO.N,D27*%
X149987000Y-103641600D03*
X132638800Y-93294200D03*
%TO.N,D22*%
X152654000Y-81788000D03*
%TO.N,D23*%
X151257000Y-80543400D03*
%TO.N,D21*%
X153924000Y-83185000D03*
%TO.N,D5*%
X155740100Y-88734900D03*
%TO.N,D19*%
X154571700Y-84950300D03*
%TO.N,D18*%
X155143200Y-86664800D03*
%TO.N,D33*%
X133553200Y-90525600D03*
%TO.N,D35*%
X133299200Y-86893400D03*
%TO.N,D32*%
X133540500Y-88861900D03*
%TO.N,DN*%
X112014000Y-145041700D03*
X112014000Y-142374700D03*
%TO.N,Net-(U7-MPPT)*%
X121117850Y-118917200D03*
X124648450Y-125629048D03*
%TO.N,D25*%
X116230400Y-90703400D03*
X126746000Y-90703400D03*
%TO.N,D-*%
X116713000Y-144152700D03*
X113343949Y-140764900D03*
%TO.N,TXD0*%
X144881600Y-81534000D03*
X121932133Y-139964800D03*
X112166400Y-108305600D03*
X115824000Y-108331000D03*
%TO.N,RXD0*%
X120904000Y-139964800D03*
X144424400Y-82854800D03*
%TO.N,/Buck-Boost3.3V/Buck-Boost_INPUT*%
X135026400Y-119303800D03*
X142417800Y-123774200D03*
X135039100Y-107823000D03*
%TD*%
D21*
%TO.N,IO0*%
X118722500Y-137307400D02*
X126868000Y-137307400D01*
X141274800Y-143332200D02*
X141274800Y-141046200D01*
X136626600Y-136398000D02*
X136626600Y-104165400D01*
X139700000Y-144780000D02*
X139827000Y-144780000D01*
X164465000Y-93218000D02*
X169265600Y-93218000D01*
X134340600Y-144780000D02*
X139700000Y-144780000D01*
X141274800Y-141046200D02*
X136626600Y-136398000D01*
X169265600Y-93218000D02*
X170180000Y-92303600D01*
X139679600Y-144800400D02*
X139700000Y-144780000D01*
X136626600Y-104165400D02*
X136652000Y-104140000D01*
X139827000Y-144780000D02*
X141274800Y-143332200D01*
X126868000Y-137307400D02*
X134340600Y-144780000D01*
X170180000Y-92303600D02*
X170180000Y-90805000D01*
%TO.N,D2*%
X172669200Y-102920800D02*
X169595800Y-102920800D01*
X169595800Y-102920800D02*
X165100000Y-98425000D01*
X178206400Y-108458000D02*
X172669200Y-102920800D01*
%TO.N,D14*%
X138282367Y-95877633D02*
X138300400Y-95859600D01*
X158343600Y-106222800D02*
X158343600Y-111963200D01*
X147980400Y-95859600D02*
X158343600Y-106222800D01*
X138300400Y-95859600D02*
X147980400Y-95859600D01*
X167640000Y-112953800D02*
X167640000Y-113673600D01*
%TO.N,Net-(U7-BOOST)*%
X117511050Y-122879600D02*
X119616400Y-122879600D01*
X119616400Y-122879600D02*
X120169600Y-122326400D01*
X117511050Y-122879600D02*
X117516650Y-122885200D01*
%TO.N,D12*%
X139410000Y-102220000D02*
X145019000Y-102220000D01*
X147167600Y-104368600D02*
X154787600Y-104368600D01*
X145019000Y-102220000D02*
X147167600Y-104368600D01*
X132940000Y-95750000D02*
X139410000Y-102220000D01*
%TO.N,D13*%
X146710400Y-106070400D02*
X144600000Y-103960000D01*
X155803600Y-106070400D02*
X146710400Y-106070400D01*
X144600000Y-103960000D02*
X137843600Y-103960000D01*
X137843600Y-103960000D02*
X133629400Y-99745800D01*
%TO.N,D4*%
X162661600Y-89128600D02*
X166649400Y-89128600D01*
X166649400Y-89128600D02*
X167640000Y-90119200D01*
X167640000Y-90119200D02*
X167640000Y-90805000D01*
%TO.N,D26*%
X147357000Y-98970000D02*
X140346600Y-98970000D01*
X150888700Y-102501700D02*
X147357000Y-98970000D01*
X140346600Y-98970000D02*
X133324600Y-91948000D01*
%TO.N,D27*%
X149987000Y-103641600D02*
X146955400Y-100610000D01*
X146955400Y-100610000D02*
X139954600Y-100610000D01*
X139954600Y-100610000D02*
X132638800Y-93294200D01*
%TO.N,D22*%
X188722000Y-81788000D02*
X195554600Y-88620600D01*
X188722000Y-81788000D02*
X152654000Y-81788000D01*
X195554600Y-88620600D02*
X195554600Y-90805000D01*
%TO.N,D23*%
X198094600Y-88747600D02*
X198094600Y-90805000D01*
X151282400Y-80518000D02*
X151257000Y-80543400D01*
X189865000Y-80518000D02*
X151282400Y-80518000D01*
X189865000Y-80518000D02*
X198094600Y-88747600D01*
%TO.N,D21*%
X187706000Y-83185000D02*
X153924000Y-83185000D01*
X193014600Y-88493600D02*
X193014600Y-90805000D01*
X187706000Y-83185000D02*
X193014600Y-88493600D01*
%TO.N,D5*%
X185394600Y-88366600D02*
X185394600Y-90805000D01*
X183896000Y-86868000D02*
X157607000Y-86868000D01*
X183896000Y-86868000D02*
X185394600Y-88366600D01*
X155740100Y-88734900D02*
X157607000Y-86868000D01*
%TO.N,D19*%
X190474600Y-88366600D02*
X190474600Y-90805000D01*
X154571700Y-84950300D02*
X155067000Y-84455000D01*
X186563000Y-84455000D02*
X155067000Y-84455000D01*
X186563000Y-84455000D02*
X190474600Y-88366600D01*
%TO.N,D18*%
X155143200Y-86664800D02*
X156083000Y-85725000D01*
X187934600Y-88366600D02*
X187934600Y-90805000D01*
X185293000Y-85725000D02*
X187934600Y-88366600D01*
X185293000Y-85725000D02*
X156083000Y-85725000D01*
%TO.N,D33*%
X133578600Y-90525600D02*
X137433000Y-94380000D01*
X160350200Y-115697000D02*
X162382200Y-117729000D01*
X160350200Y-105740200D02*
X160350200Y-115697000D01*
X137433000Y-94380000D02*
X148990000Y-94380000D01*
X187960000Y-116205000D02*
X187960000Y-113665000D01*
X148990000Y-94380000D02*
X160350200Y-105740200D01*
X186436000Y-117729000D02*
X187960000Y-116205000D01*
X162382200Y-117729000D02*
X186436000Y-117729000D01*
X133553200Y-90525600D02*
X133578600Y-90525600D01*
%TO.N,D35*%
X166090600Y-110667800D02*
X190042800Y-110667800D01*
X162915600Y-102768400D02*
X162915600Y-107492800D01*
X137435800Y-91030000D02*
X151177200Y-91030000D01*
X190042800Y-110667800D02*
X193040000Y-113665000D01*
X162915600Y-107492800D02*
X166090600Y-110667800D01*
X133299200Y-86893400D02*
X137435800Y-91030000D01*
X151177200Y-91030000D02*
X162915600Y-102768400D01*
%TO.N,D32*%
X133540500Y-88861900D02*
X137618600Y-92940000D01*
X150318600Y-92940000D02*
X161518600Y-104140000D01*
X188620400Y-111785400D02*
X190500000Y-113665000D01*
X161518600Y-104140000D02*
X161518600Y-108610400D01*
X161518600Y-108610400D02*
X164693600Y-111785400D01*
X164693600Y-111785400D02*
X188620400Y-111785400D01*
X137618600Y-92940000D02*
X150318600Y-92940000D01*
%TO.N,DN*%
X112014000Y-142374700D02*
X112014000Y-145041700D01*
D22*
%TO.N,Net-(U7-MPPT)*%
X122210050Y-124784600D02*
X123054498Y-125629048D01*
X123054498Y-125629048D02*
X124648450Y-125629048D01*
X121117850Y-118917200D02*
X122210050Y-120009400D01*
X122210050Y-120009400D02*
X122210050Y-124784600D01*
D21*
%TO.N,D25*%
X126746000Y-90703400D02*
X116230400Y-90703400D01*
%TO.N,D-*%
X113343949Y-140783649D02*
X113343949Y-140764900D01*
X116713000Y-144152700D02*
X113343949Y-140783649D01*
%TO.N,TXD0*%
X112191800Y-87071200D02*
X116205000Y-83058000D01*
X117043200Y-138607800D02*
X115824000Y-137388600D01*
X112166400Y-108305600D02*
X112191800Y-108280200D01*
X121932133Y-139280333D02*
X121259600Y-138607800D01*
X133451600Y-83058000D02*
X134975600Y-81534000D01*
X134975600Y-81534000D02*
X144881600Y-81534000D01*
X112191800Y-108280200D02*
X112191800Y-87071200D01*
X115824000Y-137388600D02*
X115824000Y-108331000D01*
X121259600Y-138607800D02*
X117043200Y-138607800D01*
X121932133Y-139964800D02*
X121932133Y-139280333D01*
X116205000Y-83058000D02*
X133451600Y-83058000D01*
%TO.N,RXD0*%
X120904000Y-139964800D02*
X120889400Y-139979400D01*
X113919000Y-137922000D02*
X113919000Y-88341200D01*
X113919000Y-88341200D02*
X117906800Y-84353400D01*
X120889400Y-139979400D02*
X115976400Y-139979400D01*
X117906800Y-84353400D02*
X134569200Y-84353400D01*
X136067800Y-82854800D02*
X144424400Y-82854800D01*
X134569200Y-84353400D02*
X136067800Y-82854800D01*
X115976400Y-139979400D02*
X113919000Y-137922000D01*
%TD*%
M02*
