%TF.GenerationSoftware,KiCad,Pcbnew,9.0.1*%
%TF.CreationDate,2025-06-13T06:34:05+02:00*%
%TF.ProjectId,MY-ESP32,4d592d45-5350-4333-922e-6b696361645f,1*%
%TF.SameCoordinates,Original*%
%TF.FileFunction,Soldermask,Top*%
%TF.FilePolarity,Negative*%
%FSLAX46Y46*%
G04 Gerber Fmt 4.6, Leading zero omitted, Abs format (unit mm)*
G04 Created by KiCad (PCBNEW 9.0.1) date 2025-06-13 06:34:05*
%MOMM*%
%LPD*%
G01*
G04 APERTURE LIST*
G04 Aperture macros list*
%AMRoundRect*
0 Rectangle with rounded corners*
0 $1 Rounding radius*
0 $2 $3 $4 $5 $6 $7 $8 $9 X,Y pos of 4 corners*
0 Add a 4 corners polygon primitive as box body*
4,1,4,$2,$3,$4,$5,$6,$7,$8,$9,$2,$3,0*
0 Add four circle primitives for the rounded corners*
1,1,$1+$1,$2,$3*
1,1,$1+$1,$4,$5*
1,1,$1+$1,$6,$7*
1,1,$1+$1,$8,$9*
0 Add four rect primitives between the rounded corners*
20,1,$1+$1,$2,$3,$4,$5,0*
20,1,$1+$1,$4,$5,$6,$7,0*
20,1,$1+$1,$6,$7,$8,$9,0*
20,1,$1+$1,$8,$9,$2,$3,0*%
%AMFreePoly0*
4,1,21,-0.180000,0.885000,0.180000,0.885000,0.180000,1.715000,0.470000,1.715000,0.470000,0.885000,0.760000,0.885000,0.760000,-0.885000,0.470000,-0.885000,0.470000,-1.705000,0.180000,-1.705000,0.180000,-0.885000,-0.180000,-0.885000,-0.180000,-1.705000,-0.470000,-1.705000,-0.470000,-0.885000,-0.760000,-0.885000,-0.760000,0.895000,-0.470000,0.895000,-0.470000,1.715000,-0.180000,1.715000,
-0.180000,0.885000,-0.180000,0.885000,$1*%
G04 Aperture macros list end*
%ADD10C,0.650000*%
%ADD11RoundRect,0.063500X-0.575000X0.300000X-0.575000X-0.300000X0.575000X-0.300000X0.575000X0.300000X0*%
%ADD12RoundRect,0.063500X-0.575000X0.150000X-0.575000X-0.150000X0.575000X-0.150000X0.575000X0.150000X0*%
%ADD13RoundRect,0.102000X-1.000000X1.090000X-1.000000X-1.090000X1.000000X-1.090000X1.000000X1.090000X0*%
%ADD14C,1.000000*%
%ADD15RoundRect,0.250000X0.350000X0.450000X-0.350000X0.450000X-0.350000X-0.450000X0.350000X-0.450000X0*%
%ADD16R,0.700000X1.250000*%
%ADD17RoundRect,0.250000X-0.475000X0.337500X-0.475000X-0.337500X0.475000X-0.337500X0.475000X0.337500X0*%
%ADD18C,1.400000*%
%ADD19R,2.000000X0.900000*%
%ADD20C,0.500000*%
%ADD21R,1.330000X1.330000*%
%ADD22R,1.800000X1.800000*%
%ADD23C,1.600000*%
%ADD24R,0.540000X0.790000*%
%ADD25C,1.800000*%
%ADD26O,2.500000X1.200000*%
%ADD27RoundRect,0.250000X-0.450000X0.350000X-0.450000X-0.350000X0.450000X-0.350000X0.450000X0.350000X0*%
%ADD28R,1.700000X1.700000*%
%ADD29C,1.700000*%
%ADD30RoundRect,0.135000X0.185000X-0.135000X0.185000X0.135000X-0.185000X0.135000X-0.185000X-0.135000X0*%
%ADD31R,0.900000X0.800000*%
%ADD32C,3.200000*%
%ADD33R,0.240000X0.850000*%
%ADD34R,0.230000X0.800000*%
%ADD35FreePoly0,270.000000*%
%ADD36R,1.250000X0.700000*%
%ADD37R,1.300000X1.300000*%
%ADD38R,0.700000X1.600000*%
%ADD39R,1.200000X1.500000*%
%ADD40R,1.200000X2.200000*%
%ADD41R,1.600000X1.500000*%
%ADD42R,0.600000X1.070000*%
%ADD43RoundRect,0.250000X0.450000X-0.350000X0.450000X0.350000X-0.450000X0.350000X-0.450000X-0.350000X0*%
%ADD44RoundRect,0.250000X-0.337500X-0.475000X0.337500X-0.475000X0.337500X0.475000X-0.337500X0.475000X0*%
%ADD45RoundRect,0.062500X-0.337500X-0.062500X0.337500X-0.062500X0.337500X0.062500X-0.337500X0.062500X0*%
%ADD46RoundRect,0.062500X-0.062500X-0.337500X0.062500X-0.337500X0.062500X0.337500X-0.062500X0.337500X0*%
%ADD47R,3.350000X3.350000*%
%ADD48R,1.410000X1.350000*%
%ADD49R,1.070000X0.600000*%
%ADD50RoundRect,0.250000X-0.350000X-0.450000X0.350000X-0.450000X0.350000X0.450000X-0.350000X0.450000X0*%
%ADD51RoundRect,0.150000X0.150000X-0.512500X0.150000X0.512500X-0.150000X0.512500X-0.150000X-0.512500X0*%
%ADD52R,2.124000X3.820000*%
%ADD53RoundRect,0.250000X0.475000X-0.337500X0.475000X0.337500X-0.475000X0.337500X-0.475000X-0.337500X0*%
%ADD54R,0.750000X0.700000*%
%ADD55R,1.000000X0.900000*%
%ADD56RoundRect,0.135000X-0.185000X0.135000X-0.185000X-0.135000X0.185000X-0.135000X0.185000X0.135000X0*%
%ADD57R,0.806500X0.864000*%
%ADD58R,1.575000X1.575000*%
%ADD59C,1.575000*%
%ADD60R,0.660400X1.549400*%
%ADD61R,1.295400X1.905000*%
%ADD62C,3.575000*%
%ADD63RoundRect,0.250000X0.337500X0.475000X-0.337500X0.475000X-0.337500X-0.475000X0.337500X-0.475000X0*%
G04 APERTURE END LIST*
D10*
%TO.C,U7*%
X92285000Y-117650000D03*
X92285000Y-123430000D03*
D11*
X93360000Y-117340000D03*
X93360000Y-118140000D03*
D12*
X93360000Y-119290000D03*
X93360000Y-120290000D03*
X93360000Y-120790000D03*
X93360000Y-121790000D03*
D11*
X93360000Y-123740000D03*
X93360000Y-122940000D03*
D12*
X93360000Y-122290000D03*
X93360000Y-121290000D03*
X93360000Y-119790000D03*
X93360000Y-118790000D03*
D13*
X92785000Y-115430000D03*
X92785000Y-125650000D03*
X88855000Y-115430000D03*
X88855000Y-125650000D03*
%TD*%
D14*
%TO.C,TP1*%
X104919600Y-149860000D03*
%TD*%
D15*
%TO.C,R25*%
X126708900Y-111125000D03*
X124708900Y-111125000D03*
%TD*%
D16*
%TO.C,Q1*%
X103281200Y-109497050D03*
X101381200Y-109497050D03*
X102331200Y-106998050D03*
%TD*%
D17*
%TO.C,C10*%
X125526800Y-136202600D03*
X125526800Y-138277600D03*
%TD*%
D18*
%TO.C,U2*%
X92329000Y-107696000D03*
X92329000Y-109696000D03*
%TD*%
D19*
%TO.C,U6*%
X117297200Y-60553600D03*
X117297200Y-61823600D03*
X117297200Y-63093600D03*
X117297200Y-64363600D03*
X117297200Y-65633600D03*
X117297200Y-66903600D03*
X117297200Y-68173600D03*
X117297200Y-69443600D03*
X117297200Y-70713600D03*
X117297200Y-71983600D03*
X117297200Y-73253600D03*
X117297200Y-74523600D03*
X117297200Y-75793600D03*
X117297200Y-77063600D03*
X117297200Y-78333600D03*
X117297200Y-79603600D03*
X117297200Y-80873600D03*
X117297200Y-82143600D03*
X117297200Y-83413600D03*
X135297200Y-83413600D03*
X135297200Y-82143600D03*
X135297200Y-80873600D03*
X135297200Y-79603600D03*
X135297200Y-78333600D03*
X135297200Y-77063600D03*
X135297200Y-75793600D03*
X135297200Y-74523600D03*
X135297200Y-73253600D03*
X135297200Y-71983600D03*
X135297200Y-70713600D03*
X135297200Y-69443600D03*
X135297200Y-68173600D03*
X135297200Y-66903600D03*
X135297200Y-65633600D03*
X135297200Y-64363600D03*
X135297200Y-63093600D03*
X135297200Y-61823600D03*
X135297200Y-60553600D03*
D20*
X122517200Y-68973600D03*
X122527200Y-65303600D03*
X122527200Y-70803600D03*
X122537200Y-67133600D03*
D21*
X123462200Y-66218600D03*
X123462200Y-68053600D03*
X123462200Y-69888600D03*
D20*
X124367200Y-68973600D03*
X124377200Y-65303600D03*
X124377200Y-70803600D03*
X124387200Y-67133600D03*
D21*
X125297200Y-66218600D03*
X125297200Y-68053600D03*
X125297200Y-69888600D03*
D20*
X126187200Y-68973600D03*
X126197200Y-65303600D03*
X126197200Y-70803600D03*
X126207200Y-67133600D03*
D21*
X127132200Y-66218600D03*
X127132200Y-68053600D03*
X127132200Y-69888600D03*
D20*
X128037200Y-68973600D03*
X128047200Y-65303600D03*
X128047200Y-70803600D03*
X128057200Y-67133600D03*
%TD*%
D22*
%TO.C,H6*%
X114300000Y-142468600D03*
D23*
X114300000Y-145008600D03*
X114300000Y-147548600D03*
X114300000Y-150088600D03*
X114300000Y-152628600D03*
X114300000Y-155168600D03*
%TD*%
D24*
%TO.C,R20*%
X120954800Y-139254400D03*
X120954800Y-138164400D03*
%TD*%
D16*
%TO.C,Q3*%
X97985600Y-77794800D03*
X96085600Y-77794800D03*
X97035600Y-79794800D03*
%TD*%
D24*
%TO.C,R19*%
X123190000Y-138351600D03*
X123190000Y-137261600D03*
%TD*%
D17*
%TO.C,C9*%
X93768400Y-130980600D03*
X93768400Y-133055600D03*
%TD*%
D22*
%TO.C,SW3*%
X94488000Y-97282000D03*
D25*
X94488000Y-94282000D03*
X94488000Y-91282000D03*
D26*
X94488000Y-88482000D03*
X94488000Y-100082000D03*
%TD*%
D27*
%TO.C,R14*%
X105156000Y-72424000D03*
X105156000Y-74424000D03*
%TD*%
D28*
%TO.C,H3*%
X137160000Y-129692400D03*
D29*
X137160000Y-127152400D03*
X137160000Y-124612400D03*
X137160000Y-122072400D03*
%TD*%
D30*
%TO.C,R10*%
X110150000Y-81915000D03*
X110150000Y-80895000D03*
%TD*%
D28*
%TO.C,H8*%
X137160000Y-134772400D03*
D29*
X137160000Y-137312400D03*
%TD*%
D24*
%TO.C,R22*%
X130200400Y-136472000D03*
X130200400Y-135382000D03*
%TD*%
D31*
%TO.C,C11*%
X125360000Y-102420000D03*
X125360000Y-101020000D03*
%TD*%
D32*
%TO.C,H10*%
X171348000Y-58166000D03*
%TD*%
D33*
%TO.C,U5*%
X130120000Y-101132950D03*
X129620000Y-101132950D03*
X129120000Y-101132950D03*
X128620000Y-101132950D03*
X128120000Y-101132950D03*
D34*
X128120000Y-104132950D03*
X128620000Y-104132950D03*
X129120000Y-104132950D03*
X129620000Y-104132950D03*
X130120000Y-104132950D03*
D20*
X129729600Y-102631950D03*
X129120000Y-102632950D03*
D35*
X129115000Y-102632950D03*
D20*
X128510400Y-102632950D03*
%TD*%
D36*
%TO.C,Q7*%
X133125700Y-114625200D03*
X133125700Y-112725200D03*
X131125700Y-113675200D03*
%TD*%
D37*
%TO.C,D2*%
X89839800Y-92788000D03*
X89839800Y-96188000D03*
%TD*%
D31*
%TO.C,C13*%
X134290000Y-102450000D03*
X134290000Y-101050000D03*
%TD*%
D38*
%TO.C,CARD1*%
X127570000Y-141740000D03*
X126470000Y-141740000D03*
X125370000Y-141740000D03*
X124270000Y-141740000D03*
X123170000Y-141740000D03*
X122070000Y-141740000D03*
X120970000Y-141740000D03*
X119870000Y-141740000D03*
D39*
X117570000Y-142740000D03*
D40*
X117570000Y-152340000D03*
X133070000Y-152340000D03*
D41*
X132170000Y-142740000D03*
D38*
X118770000Y-141740000D03*
%TD*%
D42*
%TO.C,Q8*%
X126699500Y-113690400D03*
X124799500Y-113690400D03*
X125749500Y-116160400D03*
%TD*%
D27*
%TO.C,R4*%
X99051600Y-131002100D03*
X99051600Y-133002100D03*
%TD*%
D43*
%TO.C,R5*%
X104385600Y-133002100D03*
X104385600Y-131002100D03*
%TD*%
D24*
%TO.C,R23*%
X118237000Y-138873400D03*
X118237000Y-137783400D03*
%TD*%
D44*
%TO.C,C1*%
X141352500Y-69059800D03*
X143427500Y-69059800D03*
%TD*%
D31*
%TO.C,R17*%
X136490000Y-102440000D03*
X136490000Y-101040000D03*
%TD*%
D43*
%TO.C,R9*%
X108648500Y-115309350D03*
X108648500Y-113309350D03*
%TD*%
D17*
%TO.C,C15*%
X113411200Y-66966200D03*
X113411200Y-69041200D03*
%TD*%
D45*
%TO.C,U3*%
X102172600Y-119068050D03*
X102172600Y-119568050D03*
X102172600Y-120068050D03*
X102172600Y-120568050D03*
X102172600Y-121068050D03*
X102172600Y-121568050D03*
X102172600Y-122068050D03*
D46*
X103122600Y-123018050D03*
X103622600Y-123018050D03*
X104122600Y-123018050D03*
X104622600Y-123018050D03*
X105122600Y-123018050D03*
X105622600Y-123018050D03*
X106122600Y-123018050D03*
D45*
X107072600Y-122068050D03*
X107072600Y-121568050D03*
X107072600Y-121068050D03*
X107072600Y-120568050D03*
X107072600Y-120068050D03*
X107072600Y-119568050D03*
X107072600Y-119068050D03*
D46*
X106122600Y-118118050D03*
X105622600Y-118118050D03*
X105122600Y-118118050D03*
X104622600Y-118118050D03*
X104122600Y-118118050D03*
X103622600Y-118118050D03*
X103122600Y-118118050D03*
D47*
X104622600Y-120568050D03*
%TD*%
D48*
%TO.C,C3*%
X90906600Y-83748800D03*
X88906600Y-83748800D03*
%TD*%
D49*
%TO.C,Q4*%
X101416000Y-81549200D03*
X101416000Y-83449200D03*
X103886000Y-82499200D03*
%TD*%
D28*
%TO.C,H7*%
X114300000Y-137312400D03*
D29*
X114300000Y-134772400D03*
%TD*%
D36*
%TO.C,Q2*%
X103924100Y-113257750D03*
X103924100Y-115157750D03*
X101425100Y-114207750D03*
%TD*%
D50*
%TO.C,R24*%
X135376900Y-114630200D03*
X137376900Y-114630200D03*
%TD*%
D17*
%TO.C,C5*%
X91126800Y-130976700D03*
X91126800Y-133051700D03*
%TD*%
D32*
%TO.C,H12*%
X171069000Y-152323800D03*
%TD*%
D51*
%TO.C,U1*%
X96052600Y-121296050D03*
X97002600Y-121296050D03*
X97952600Y-121296050D03*
X97952600Y-119021050D03*
X97002600Y-119021050D03*
X96052600Y-119021050D03*
%TD*%
D14*
%TO.C,TP2*%
X119227600Y-89357200D03*
%TD*%
D52*
%TO.C,L_B-B1*%
X127348000Y-96234000D03*
X130904000Y-96234000D03*
%TD*%
D44*
%TO.C,C2*%
X88853100Y-80573800D03*
X90928100Y-80573800D03*
%TD*%
D53*
%TO.C,C17*%
X103124000Y-99843500D03*
X103124000Y-97768500D03*
%TD*%
D54*
%TO.C,LED1*%
X111821000Y-84866000D03*
X111821000Y-86106000D03*
X110871000Y-84866000D03*
X110871000Y-86106000D03*
%TD*%
D55*
%TO.C,SW1*%
X141440000Y-73969800D03*
X143040000Y-73969800D03*
X141440000Y-78069800D03*
X143040000Y-78069800D03*
%TD*%
D37*
%TO.C,D1*%
X88594600Y-134110200D03*
X88594600Y-130710200D03*
%TD*%
D27*
%TO.C,R13*%
X94525600Y-82974800D03*
X94525600Y-84974800D03*
%TD*%
D55*
%TO.C,SW2*%
X89179600Y-73969800D03*
X90779600Y-73969800D03*
X89179600Y-78069800D03*
X90779600Y-78069800D03*
%TD*%
D56*
%TO.C,R11*%
X113400000Y-80895000D03*
X113400000Y-81915000D03*
%TD*%
D36*
%TO.C,Q5*%
X105882925Y-95097600D03*
X105882925Y-93197600D03*
X103882925Y-94147600D03*
%TD*%
D31*
%TO.C,C14*%
X132070000Y-102440000D03*
X132070000Y-101040000D03*
%TD*%
D42*
%TO.C,Q9*%
X166558000Y-119923000D03*
X164658000Y-119923000D03*
X165608000Y-122393000D03*
%TD*%
D57*
%TO.C,R28*%
X168300400Y-128574800D03*
X166793400Y-128574800D03*
%TD*%
D58*
%TO.C,H1*%
X129540000Y-127203200D03*
D59*
X129540000Y-124663200D03*
X129540000Y-122123200D03*
%TD*%
D43*
%TO.C,R8*%
X106159300Y-115293350D03*
X106159300Y-113293350D03*
%TD*%
D44*
%TO.C,C7*%
X135898000Y-92231400D03*
X137973000Y-92231400D03*
%TD*%
%TO.C,C8*%
X135898000Y-95127000D03*
X137973000Y-95127000D03*
%TD*%
D43*
%TO.C,R26*%
X171384000Y-111760000D03*
X171384000Y-109760000D03*
%TD*%
D28*
%TO.C,H4*%
X114300000Y-122072400D03*
D29*
X114300000Y-124612400D03*
X114300000Y-127152400D03*
X114300000Y-129692400D03*
%TD*%
D43*
%TO.C,R3*%
X96410000Y-132983300D03*
X96410000Y-130983300D03*
%TD*%
D32*
%TO.C,H9*%
X90678000Y-58293000D03*
%TD*%
D60*
%TO.C,J2*%
X153575001Y-131826000D03*
X154575002Y-131826000D03*
X155575000Y-131826000D03*
X156575001Y-131826000D03*
D61*
X157875000Y-135701001D03*
X152275002Y-135701001D03*
%TD*%
D27*
%TO.C,R16*%
X102646000Y-68314000D03*
X102646000Y-70314000D03*
%TD*%
D43*
%TO.C,R2*%
X105308600Y-63996000D03*
X105308600Y-61996000D03*
%TD*%
D14*
%TO.C,TP3*%
X104970400Y-138926200D03*
%TD*%
%TO.C,TP5*%
X104970400Y-144780000D03*
%TD*%
D60*
%TO.C,J1*%
X164767000Y-131826000D03*
X165767001Y-131826000D03*
X166766999Y-131826000D03*
X167767000Y-131826000D03*
D61*
X169066999Y-135701001D03*
X163467001Y-135701001D03*
%TD*%
D62*
%TO.C,U4*%
X167735600Y-105643500D03*
X152501600Y-105643500D03*
D59*
X167741600Y-87126000D03*
D58*
X165201600Y-87125000D03*
D59*
X162661600Y-87124000D03*
X160121600Y-87123000D03*
X157581600Y-87122000D03*
X155041600Y-87121000D03*
X152501600Y-87120000D03*
%TD*%
D24*
%TO.C,C6*%
X96130600Y-75264800D03*
X96130600Y-74174800D03*
%TD*%
D14*
%TO.C,TP4*%
X108480000Y-73530000D03*
%TD*%
D57*
%TO.C,R27*%
X124197600Y-118541800D03*
X125704600Y-118541800D03*
%TD*%
D27*
%TO.C,R6*%
X101693200Y-131002100D03*
X101693200Y-133002100D03*
%TD*%
D43*
%TO.C,R7*%
X107027200Y-133002100D03*
X107027200Y-131002100D03*
%TD*%
D48*
%TO.C,C4*%
X137898000Y-89183400D03*
X135898000Y-89183400D03*
%TD*%
D43*
%TO.C,R15*%
X110286000Y-68904000D03*
X110286000Y-66904000D03*
%TD*%
D16*
%TO.C,Q10*%
X171450000Y-114316000D03*
X169550000Y-114316000D03*
X170500000Y-116316000D03*
%TD*%
D32*
%TO.C,H11*%
X90678000Y-152323800D03*
%TD*%
D24*
%TO.C,R21*%
X132283200Y-136319600D03*
X132283200Y-135229600D03*
%TD*%
D22*
%TO.C,H5*%
X137160000Y-142468600D03*
D23*
X137160000Y-145008600D03*
X137160000Y-147548600D03*
X137160000Y-150088600D03*
X137160000Y-152628600D03*
X137160000Y-155168600D03*
%TD*%
D58*
%TO.C,H2*%
X121920000Y-127203200D03*
D59*
X121920000Y-124663200D03*
X121920000Y-122123200D03*
%TD*%
D24*
%TO.C,R18*%
X127660400Y-138453200D03*
X127660400Y-137363200D03*
%TD*%
D63*
%TO.C,C16*%
X168884600Y-125399800D03*
X166809600Y-125399800D03*
%TD*%
D37*
%TO.C,D3*%
X108458000Y-91723000D03*
X108458000Y-95123000D03*
%TD*%
D15*
%TO.C,R1*%
X94335800Y-138644700D03*
X92335800Y-138644700D03*
%TD*%
D56*
%TO.C,R12*%
X111760000Y-80895000D03*
X111760000Y-81915000D03*
%TD*%
D15*
%TO.C,R29*%
X166608000Y-117856000D03*
X164608000Y-117856000D03*
%TD*%
D17*
%TO.C,C12*%
X122946000Y-100686500D03*
X122946000Y-102761500D03*
%TD*%
M02*
