%TF.GenerationSoftware,KiCad,Pcbnew,9.0.1*%
%TF.CreationDate,2025-06-06T16:35:30+02:00*%
%TF.ProjectId,MY-ESP32,4d592d45-5350-4333-922e-6b696361645f,rev?*%
%TF.SameCoordinates,Original*%
%TF.FileFunction,Soldermask,Bot*%
%TF.FilePolarity,Negative*%
%FSLAX46Y46*%
G04 Gerber Fmt 4.6, Leading zero omitted, Abs format (unit mm)*
G04 Created by KiCad (PCBNEW 9.0.1) date 2025-06-06 16:35:30*
%MOMM*%
%LPD*%
G01*
G04 APERTURE LIST*
%ADD10C,3.200000*%
%ADD11R,1.800000X1.800000*%
%ADD12C,1.600000*%
%ADD13R,1.700000X1.700000*%
%ADD14C,1.700000*%
%ADD15R,1.575000X1.575000*%
%ADD16C,1.575000*%
%ADD17O,2.100000X1.100000*%
%ADD18O,1.800000X1.200000*%
%ADD19C,2.200000*%
G04 APERTURE END LIST*
D10*
%TO.C,H13*%
X195580000Y-122555000D03*
%TD*%
D11*
%TO.C,H5*%
X185394600Y-90805000D03*
D12*
X187934600Y-90805000D03*
X190474600Y-90805000D03*
X193014600Y-90805000D03*
X195554600Y-90805000D03*
X198094600Y-90805000D03*
%TD*%
D13*
%TO.C,H4*%
X165100000Y-113673600D03*
D14*
X167640000Y-113673600D03*
X170180000Y-113673600D03*
X172720000Y-113673600D03*
%TD*%
D13*
%TO.C,H8*%
X177749200Y-90805000D03*
D14*
X180289200Y-90805000D03*
%TD*%
D11*
%TO.C,H6*%
X185420000Y-113665000D03*
D12*
X187960000Y-113665000D03*
X190500000Y-113665000D03*
X193040000Y-113665000D03*
X195580000Y-113665000D03*
X198120000Y-113665000D03*
%TD*%
D10*
%TO.C,H12*%
X156845000Y-160020000D03*
%TD*%
%TO.C,H10*%
X195580000Y-78232000D03*
%TD*%
%TO.C,H9*%
X108712000Y-78232000D03*
%TD*%
D13*
%TO.C,H7*%
X180340000Y-113665000D03*
D14*
X177800000Y-113665000D03*
%TD*%
D15*
%TO.C,H1*%
X170180000Y-98425000D03*
D16*
X167640000Y-98425000D03*
X165100000Y-98425000D03*
%TD*%
D15*
%TO.C,H2*%
X170180000Y-106042800D03*
D16*
X167640000Y-106042800D03*
X165100000Y-106042800D03*
%TD*%
D10*
%TO.C,H11*%
X107315000Y-160020000D03*
%TD*%
D17*
%TO.C,U10*%
X110052500Y-139326700D03*
D18*
X105852500Y-139326700D03*
D17*
X110052500Y-147976700D03*
D18*
X105852500Y-147976700D03*
%TD*%
D13*
%TO.C,H3*%
X172720000Y-90805000D03*
D14*
X170180000Y-90805000D03*
X167640000Y-90805000D03*
X165100000Y-90805000D03*
%TD*%
D19*
%TO.C,U2*%
X107012250Y-105816567D03*
X107012250Y-110816567D03*
%TD*%
M02*
