%TF.GenerationSoftware,KiCad,Pcbnew,9.0.1*%
%TF.CreationDate,2025-06-12T08:49:48+02:00*%
%TF.ProjectId,MY-ESP32,4d592d45-5350-4333-922e-6b696361645f,rev?*%
%TF.SameCoordinates,Original*%
%TF.FileFunction,Paste,Top*%
%TF.FilePolarity,Positive*%
%FSLAX46Y46*%
G04 Gerber Fmt 4.6, Leading zero omitted, Abs format (unit mm)*
G04 Created by KiCad (PCBNEW 9.0.1) date 2025-06-12 08:49:48*
%MOMM*%
%LPD*%
G01*
G04 APERTURE LIST*
G04 Aperture macros list*
%AMRoundRect*
0 Rectangle with rounded corners*
0 $1 Rounding radius*
0 $2 $3 $4 $5 $6 $7 $8 $9 X,Y pos of 4 corners*
0 Add a 4 corners polygon primitive as box body*
4,1,4,$2,$3,$4,$5,$6,$7,$8,$9,$2,$3,0*
0 Add four circle primitives for the rounded corners*
1,1,$1+$1,$2,$3*
1,1,$1+$1,$4,$5*
1,1,$1+$1,$6,$7*
1,1,$1+$1,$8,$9*
0 Add four rect primitives between the rounded corners*
20,1,$1+$1,$2,$3,$4,$5,0*
20,1,$1+$1,$4,$5,$6,$7,0*
20,1,$1+$1,$6,$7,$8,$9,0*
20,1,$1+$1,$8,$9,$2,$3,0*%
%AMFreePoly0*
4,1,21,-0.180000,0.885000,0.180000,0.885000,0.180000,1.715000,0.470000,1.715000,0.470000,0.885000,0.760000,0.885000,0.760000,-0.885000,0.470000,-0.885000,0.470000,-1.705000,0.180000,-1.705000,0.180000,-0.885000,-0.180000,-0.885000,-0.180000,-1.705000,-0.470000,-1.705000,-0.470000,-0.885000,-0.760000,-0.885000,-0.760000,0.895000,-0.470000,0.895000,-0.470000,1.715000,-0.180000,1.715000,
-0.180000,0.885000,-0.180000,0.885000,$1*%
G04 Aperture macros list end*
%ADD10C,0.000000*%
%ADD11R,1.250000X0.700000*%
%ADD12R,0.600000X1.070000*%
%ADD13R,0.806500X0.864000*%
%ADD14RoundRect,0.250000X-0.350000X-0.450000X0.350000X-0.450000X0.350000X0.450000X-0.350000X0.450000X0*%
%ADD15RoundRect,0.250000X0.350000X0.450000X-0.350000X0.450000X-0.350000X-0.450000X0.350000X-0.450000X0*%
%ADD16R,0.700000X1.250000*%
%ADD17RoundRect,0.250000X-0.475000X0.337500X-0.475000X-0.337500X0.475000X-0.337500X0.475000X0.337500X0*%
%ADD18R,0.540000X0.790000*%
%ADD19RoundRect,0.250000X-0.450000X0.350000X-0.450000X-0.350000X0.450000X-0.350000X0.450000X0.350000X0*%
%ADD20RoundRect,0.135000X0.185000X-0.135000X0.185000X0.135000X-0.185000X0.135000X-0.185000X-0.135000X0*%
%ADD21R,0.900000X0.800000*%
%ADD22R,1.300000X1.300000*%
%ADD23R,0.700000X1.600000*%
%ADD24R,1.200000X1.500000*%
%ADD25R,1.200000X2.200000*%
%ADD26R,1.600000X1.500000*%
%ADD27RoundRect,0.250000X0.450000X-0.350000X0.450000X0.350000X-0.450000X0.350000X-0.450000X-0.350000X0*%
%ADD28RoundRect,0.250000X-0.337500X-0.475000X0.337500X-0.475000X0.337500X0.475000X-0.337500X0.475000X0*%
%ADD29RoundRect,0.225000X-0.225000X-0.225000X0.225000X-0.225000X0.225000X0.225000X-0.225000X0.225000X0*%
%ADD30RoundRect,0.062500X-0.337500X-0.062500X0.337500X-0.062500X0.337500X0.062500X-0.337500X0.062500X0*%
%ADD31RoundRect,0.062500X-0.062500X-0.337500X0.062500X-0.337500X0.062500X0.337500X-0.062500X0.337500X0*%
%ADD32R,1.410000X1.350000*%
%ADD33R,1.070000X0.600000*%
%ADD34RoundRect,0.150000X0.150000X-0.512500X0.150000X0.512500X-0.150000X0.512500X-0.150000X-0.512500X0*%
%ADD35R,2.124000X3.820000*%
%ADD36R,0.750000X0.700000*%
%ADD37R,1.000000X0.900000*%
%ADD38RoundRect,0.135000X-0.185000X0.135000X-0.185000X-0.135000X0.185000X-0.135000X0.185000X0.135000X0*%
%ADD39R,2.000000X0.900000*%
%ADD40R,1.330000X1.330000*%
%ADD41R,0.240000X0.850000*%
%ADD42R,0.230000X0.800000*%
%ADD43FreePoly0,270.000000*%
%ADD44R,1.300000X0.600000*%
%ADD45R,1.300000X0.300000*%
G04 APERTURE END LIST*
D10*
%TO.C,R26*%
G36*
X126196100Y-118141800D02*
G01*
X126196100Y-118941800D01*
X126146100Y-118991800D01*
X125346100Y-118991800D01*
X125296100Y-118941800D01*
X125296100Y-118699800D01*
X125666100Y-118699800D01*
X125666100Y-118369800D01*
X125296100Y-118369800D01*
X125296100Y-118141800D01*
X125346100Y-118091800D01*
X126146100Y-118091800D01*
X126196100Y-118141800D01*
G37*
G36*
X124606100Y-118141800D02*
G01*
X124606100Y-118383800D01*
X124236100Y-118383800D01*
X124236100Y-118713800D01*
X124606100Y-118713800D01*
X124606100Y-118941800D01*
X124556100Y-118991800D01*
X123756100Y-118991800D01*
X123706100Y-118941800D01*
X123706100Y-118141800D01*
X123756100Y-118091800D01*
X124556100Y-118091800D01*
X124606100Y-118141800D01*
G37*
%TO.C,R20*%
G36*
X121229800Y-137979400D02*
G01*
X121229800Y-138459400D01*
X121179800Y-138529400D01*
X120729800Y-138529400D01*
X120679800Y-138459400D01*
X120679800Y-137979400D01*
X120729800Y-137929400D01*
X121179800Y-137929400D01*
X121229800Y-137979400D01*
G37*
G36*
X121229800Y-138959400D02*
G01*
X121229800Y-139439400D01*
X121179800Y-139489400D01*
X120729800Y-139489400D01*
X120679800Y-139439400D01*
X120679800Y-138959400D01*
X120729800Y-138889400D01*
X121179800Y-138889400D01*
X121229800Y-138959400D01*
G37*
%TO.C,R19*%
G36*
X123465000Y-137076600D02*
G01*
X123465000Y-137556600D01*
X123415000Y-137626600D01*
X122965000Y-137626600D01*
X122915000Y-137556600D01*
X122915000Y-137076600D01*
X122965000Y-137026600D01*
X123415000Y-137026600D01*
X123465000Y-137076600D01*
G37*
G36*
X123465000Y-138056600D02*
G01*
X123465000Y-138536600D01*
X123415000Y-138586600D01*
X122965000Y-138586600D01*
X122915000Y-138536600D01*
X122915000Y-138056600D01*
X122965000Y-137986600D01*
X123415000Y-137986600D01*
X123465000Y-138056600D01*
G37*
%TO.C,R22*%
G36*
X130475400Y-135197000D02*
G01*
X130475400Y-135677000D01*
X130425400Y-135747000D01*
X129975400Y-135747000D01*
X129925400Y-135677000D01*
X129925400Y-135197000D01*
X129975400Y-135147000D01*
X130425400Y-135147000D01*
X130475400Y-135197000D01*
G37*
G36*
X130475400Y-136177000D02*
G01*
X130475400Y-136657000D01*
X130425400Y-136707000D01*
X129975400Y-136707000D01*
X129925400Y-136657000D01*
X129925400Y-136177000D01*
X129975400Y-136107000D01*
X130425400Y-136107000D01*
X130475400Y-136177000D01*
G37*
%TO.C,R23*%
G36*
X118512000Y-137598400D02*
G01*
X118512000Y-138078400D01*
X118462000Y-138148400D01*
X118012000Y-138148400D01*
X117962000Y-138078400D01*
X117962000Y-137598400D01*
X118012000Y-137548400D01*
X118462000Y-137548400D01*
X118512000Y-137598400D01*
G37*
G36*
X118512000Y-138578400D02*
G01*
X118512000Y-139058400D01*
X118462000Y-139108400D01*
X118012000Y-139108400D01*
X117962000Y-139058400D01*
X117962000Y-138578400D01*
X118012000Y-138508400D01*
X118462000Y-138508400D01*
X118512000Y-138578400D01*
G37*
%TO.C,C3*%
G36*
X89451600Y-83108800D02*
G01*
X89456600Y-83518800D01*
X89006600Y-83518800D01*
X89006600Y-83968800D01*
X89446600Y-83968800D01*
X89451600Y-84388800D01*
X89401600Y-84438800D01*
X88251600Y-84438800D01*
X88201600Y-84388800D01*
X88201600Y-83108800D01*
X88251600Y-83058800D01*
X89401600Y-83058800D01*
X89451600Y-83108800D01*
G37*
G36*
X91611600Y-83108800D02*
G01*
X91611600Y-84388800D01*
X91561600Y-84438800D01*
X90411600Y-84438800D01*
X90361600Y-84388800D01*
X90356600Y-83978800D01*
X90806600Y-83978800D01*
X90806600Y-83528800D01*
X90366600Y-83528800D01*
X90361600Y-83108800D01*
X90411600Y-83058800D01*
X91561600Y-83058800D01*
X91611600Y-83108800D01*
G37*
%TO.C,C6*%
G36*
X96405600Y-73989800D02*
G01*
X96405600Y-74469800D01*
X96355600Y-74539800D01*
X95905600Y-74539800D01*
X95855600Y-74469800D01*
X95855600Y-73989800D01*
X95905600Y-73939800D01*
X96355600Y-73939800D01*
X96405600Y-73989800D01*
G37*
G36*
X96405600Y-74969800D02*
G01*
X96405600Y-75449800D01*
X96355600Y-75499800D01*
X95905600Y-75499800D01*
X95855600Y-75449800D01*
X95855600Y-74969800D01*
X95905600Y-74899800D01*
X96355600Y-74899800D01*
X96405600Y-74969800D01*
G37*
%TO.C,C4*%
G36*
X136443000Y-88543400D02*
G01*
X136448000Y-88953400D01*
X135998000Y-88953400D01*
X135998000Y-89403400D01*
X136438000Y-89403400D01*
X136443000Y-89823400D01*
X136393000Y-89873400D01*
X135243000Y-89873400D01*
X135193000Y-89823400D01*
X135193000Y-88543400D01*
X135243000Y-88493400D01*
X136393000Y-88493400D01*
X136443000Y-88543400D01*
G37*
G36*
X138603000Y-88543400D02*
G01*
X138603000Y-89823400D01*
X138553000Y-89873400D01*
X137403000Y-89873400D01*
X137353000Y-89823400D01*
X137348000Y-89413400D01*
X137798000Y-89413400D01*
X137798000Y-88963400D01*
X137358000Y-88963400D01*
X137353000Y-88543400D01*
X137403000Y-88493400D01*
X138553000Y-88493400D01*
X138603000Y-88543400D01*
G37*
%TO.C,U7*%
G36*
X94055100Y-119443050D02*
G01*
X92755100Y-119443050D01*
X92755100Y-119143050D01*
X94055100Y-119143050D01*
X94055100Y-119443050D01*
G37*
G36*
X94055100Y-119943050D02*
G01*
X92755100Y-119943050D01*
X92755100Y-119643050D01*
X94055100Y-119643050D01*
X94055100Y-119943050D01*
G37*
G36*
X94055100Y-120443050D02*
G01*
X92755100Y-120443050D01*
X92755100Y-120143050D01*
X94055100Y-120143050D01*
X94055100Y-120443050D01*
G37*
G36*
X94055100Y-120943050D02*
G01*
X92755100Y-120943050D01*
X92755100Y-120643050D01*
X94055100Y-120643050D01*
X94055100Y-120943050D01*
G37*
G36*
X94055100Y-124043050D02*
G01*
X92755100Y-124043050D01*
X92755100Y-123443050D01*
X94055100Y-123443050D01*
X94055100Y-124043050D01*
G37*
G36*
X94055100Y-117643050D02*
G01*
X92755100Y-117643050D01*
X92755100Y-117043050D01*
X94055100Y-117043050D01*
X94055100Y-117643050D01*
G37*
G36*
X94055100Y-118443050D02*
G01*
X92755100Y-118443050D01*
X92755100Y-117843050D01*
X94055100Y-117843050D01*
X94055100Y-118443050D01*
G37*
G36*
X94055100Y-121443050D02*
G01*
X92755100Y-121443050D01*
X92755100Y-121143050D01*
X94055100Y-121143050D01*
X94055100Y-121443050D01*
G37*
G36*
X94055100Y-122443050D02*
G01*
X92755100Y-122443050D01*
X92755100Y-122143050D01*
X94055100Y-122143050D01*
X94055100Y-122443050D01*
G37*
G36*
X94055100Y-123243050D02*
G01*
X92755100Y-123243050D01*
X92755100Y-122643050D01*
X94055100Y-122643050D01*
X94055100Y-123243050D01*
G37*
G36*
X94056100Y-118943050D02*
G01*
X92756100Y-118943050D01*
X92756100Y-118643050D01*
X94056100Y-118643050D01*
X94056100Y-118943050D01*
G37*
G36*
X94056100Y-121942550D02*
G01*
X92756100Y-121942550D01*
X92756100Y-121642550D01*
X94056100Y-121642550D01*
X94056100Y-121942550D01*
G37*
G36*
X88885100Y-115618550D02*
G01*
X88915100Y-115621050D01*
X88944600Y-115624550D01*
X88974100Y-115630050D01*
X89003100Y-115636550D01*
X89032100Y-115644550D01*
X89060600Y-115654050D01*
X89088100Y-115665050D01*
X89115600Y-115677550D01*
X89142100Y-115691050D01*
X89168100Y-115706050D01*
X89193100Y-115722050D01*
X89217600Y-115739550D01*
X89240600Y-115758550D01*
X89263100Y-115778050D01*
X89284600Y-115799050D01*
X89305100Y-115821050D01*
X89324100Y-115844050D01*
X89342100Y-115867550D01*
X89359100Y-115892550D01*
X89374600Y-115918050D01*
X89389100Y-115944050D01*
X89402100Y-115971050D01*
X89413600Y-115998550D01*
X89424100Y-116027050D01*
X89432600Y-116055550D01*
X89440100Y-116084550D01*
X89446100Y-116113550D01*
X89450600Y-116143550D01*
X89453600Y-116173050D01*
X89455100Y-116203050D01*
X89455100Y-116233050D01*
X89453600Y-116262550D01*
X89450600Y-116292550D01*
X89446100Y-116322050D01*
X89440100Y-116351550D01*
X89432600Y-116380550D01*
X89424100Y-116409050D01*
X89413600Y-116437050D01*
X89402100Y-116464550D01*
X89389100Y-116491550D01*
X89374600Y-116518050D01*
X89359100Y-116543550D01*
X89342100Y-116568050D01*
X89324100Y-116592050D01*
X89305100Y-116615050D01*
X89284600Y-116637050D01*
X89263100Y-116657550D01*
X89240600Y-116677550D01*
X89217600Y-116696050D01*
X89193100Y-116713550D01*
X89168100Y-116730050D01*
X89142100Y-116745050D01*
X89115600Y-116758550D01*
X89088100Y-116771050D01*
X89060600Y-116781550D01*
X89032100Y-116791550D01*
X89003100Y-116799550D01*
X88974100Y-116806050D01*
X88944600Y-116811050D01*
X88915100Y-116815050D01*
X88885100Y-116817050D01*
X88855100Y-116818050D01*
X88255100Y-116818050D01*
X88225100Y-116817050D01*
X88195600Y-116815050D01*
X88165600Y-116811050D01*
X88136100Y-116806050D01*
X88107100Y-116799550D01*
X88078100Y-116791550D01*
X88050100Y-116781550D01*
X88022100Y-116771050D01*
X87994600Y-116758550D01*
X87968100Y-116745050D01*
X87942100Y-116730050D01*
X87917100Y-116713550D01*
X87893100Y-116696050D01*
X87869600Y-116677550D01*
X87847100Y-116657550D01*
X87825600Y-116637050D01*
X87805100Y-116615050D01*
X87786100Y-116592050D01*
X87768100Y-116568050D01*
X87751100Y-116543550D01*
X87735600Y-116518050D01*
X87721100Y-116491550D01*
X87708100Y-116464550D01*
X87696600Y-116437050D01*
X87686600Y-116409050D01*
X87677600Y-116380550D01*
X87670100Y-116351550D01*
X87664100Y-116322050D01*
X87659600Y-116292550D01*
X87656600Y-116262550D01*
X87655100Y-116233050D01*
X87655100Y-116203050D01*
X87656600Y-116173050D01*
X87659600Y-116143550D01*
X87664100Y-116113550D01*
X87670100Y-116084550D01*
X87677600Y-116055550D01*
X87686600Y-116027050D01*
X87696600Y-115998550D01*
X87708100Y-115971050D01*
X87721100Y-115944050D01*
X87735600Y-115918050D01*
X87751100Y-115892550D01*
X87768100Y-115867550D01*
X87786100Y-115844050D01*
X87805100Y-115821050D01*
X87825600Y-115799050D01*
X87847100Y-115778050D01*
X87869600Y-115758550D01*
X87893100Y-115739550D01*
X87917100Y-115722050D01*
X87942100Y-115706050D01*
X87968100Y-115691050D01*
X87994600Y-115677550D01*
X88022100Y-115665050D01*
X88050100Y-115654050D01*
X88078100Y-115644550D01*
X88107100Y-115636550D01*
X88136100Y-115630050D01*
X88165600Y-115624550D01*
X88195600Y-115621050D01*
X88225100Y-115618550D01*
X88255100Y-115618050D01*
X88855100Y-115618050D01*
X88885100Y-115618550D01*
G37*
G36*
X88885100Y-124286550D02*
G01*
X88915100Y-124289050D01*
X88944600Y-124292550D01*
X88974100Y-124298050D01*
X89003100Y-124304550D01*
X89032100Y-124312550D01*
X89060600Y-124322050D01*
X89088100Y-124333050D01*
X89115600Y-124345550D01*
X89142100Y-124359050D01*
X89168100Y-124374050D01*
X89193100Y-124390050D01*
X89217600Y-124407550D01*
X89240600Y-124426550D01*
X89263100Y-124446050D01*
X89284600Y-124467050D01*
X89305100Y-124489050D01*
X89324100Y-124512050D01*
X89342100Y-124535550D01*
X89359100Y-124560550D01*
X89374600Y-124586050D01*
X89389100Y-124612050D01*
X89402100Y-124639050D01*
X89413600Y-124666550D01*
X89424100Y-124695050D01*
X89432600Y-124723550D01*
X89440100Y-124752550D01*
X89446100Y-124781550D01*
X89450600Y-124811550D01*
X89453600Y-124841050D01*
X89455100Y-124871050D01*
X89455100Y-124901050D01*
X89453600Y-124930550D01*
X89450600Y-124960550D01*
X89446100Y-124990050D01*
X89440100Y-125019550D01*
X89432600Y-125048550D01*
X89424100Y-125077050D01*
X89413600Y-125105050D01*
X89402100Y-125132550D01*
X89389100Y-125159550D01*
X89374600Y-125186050D01*
X89359100Y-125211550D01*
X89342100Y-125236050D01*
X89324100Y-125260050D01*
X89305100Y-125283050D01*
X89284600Y-125305050D01*
X89263100Y-125325550D01*
X89240600Y-125345550D01*
X89217600Y-125364050D01*
X89193100Y-125381550D01*
X89168100Y-125398050D01*
X89142100Y-125413050D01*
X89115600Y-125426550D01*
X89088100Y-125439050D01*
X89060600Y-125449550D01*
X89032100Y-125459550D01*
X89003100Y-125467550D01*
X88974100Y-125474050D01*
X88944600Y-125479050D01*
X88915100Y-125483050D01*
X88885100Y-125485050D01*
X88855100Y-125486050D01*
X88255100Y-125486050D01*
X88225100Y-125485050D01*
X88195600Y-125483050D01*
X88165600Y-125479050D01*
X88136100Y-125474050D01*
X88107100Y-125467550D01*
X88078100Y-125459550D01*
X88050100Y-125449550D01*
X88022100Y-125439050D01*
X87994600Y-125426550D01*
X87968100Y-125413050D01*
X87942100Y-125398050D01*
X87917100Y-125381550D01*
X87893100Y-125364050D01*
X87869600Y-125345550D01*
X87847100Y-125325550D01*
X87825600Y-125305050D01*
X87805100Y-125283050D01*
X87786100Y-125260050D01*
X87768100Y-125236050D01*
X87751100Y-125211550D01*
X87735600Y-125186050D01*
X87721100Y-125159550D01*
X87708100Y-125132550D01*
X87696600Y-125105050D01*
X87686600Y-125077050D01*
X87677600Y-125048550D01*
X87670100Y-125019550D01*
X87664100Y-124990050D01*
X87659600Y-124960550D01*
X87656600Y-124930550D01*
X87655100Y-124901050D01*
X87655100Y-124871050D01*
X87656600Y-124841050D01*
X87659600Y-124811550D01*
X87664100Y-124781550D01*
X87670100Y-124752550D01*
X87677600Y-124723550D01*
X87686600Y-124695050D01*
X87696600Y-124666550D01*
X87708100Y-124639050D01*
X87721100Y-124612050D01*
X87735600Y-124586050D01*
X87751100Y-124560550D01*
X87768100Y-124535550D01*
X87786100Y-124512050D01*
X87805100Y-124489050D01*
X87825600Y-124467050D01*
X87847100Y-124446050D01*
X87869600Y-124426550D01*
X87893100Y-124407550D01*
X87917100Y-124390050D01*
X87942100Y-124374050D01*
X87968100Y-124359050D01*
X87994600Y-124345550D01*
X88022100Y-124333050D01*
X88050100Y-124322050D01*
X88078100Y-124312550D01*
X88107100Y-124304550D01*
X88136100Y-124298050D01*
X88165600Y-124292550D01*
X88195600Y-124289050D01*
X88225100Y-124286550D01*
X88255100Y-124286050D01*
X88855100Y-124286050D01*
X88885100Y-124286550D01*
G37*
G36*
X93282600Y-115668550D02*
G01*
X93309600Y-115670550D01*
X93337100Y-115674050D01*
X93364100Y-115679050D01*
X93390600Y-115685050D01*
X93417100Y-115692550D01*
X93443100Y-115701050D01*
X93468600Y-115711050D01*
X93493600Y-115722550D01*
X93518100Y-115735050D01*
X93541600Y-115748550D01*
X93565100Y-115763550D01*
X93587100Y-115779550D01*
X93608600Y-115796550D01*
X93629100Y-115814550D01*
X93648600Y-115834050D01*
X93667600Y-115854050D01*
X93685100Y-115875050D01*
X93701600Y-115897050D01*
X93717100Y-115919550D01*
X93731600Y-115943050D01*
X93744600Y-115967050D01*
X93756600Y-115991550D01*
X93767100Y-116017050D01*
X93776600Y-116042550D01*
X93784600Y-116069050D01*
X93791100Y-116095550D01*
X93796600Y-116122550D01*
X93800600Y-116149550D01*
X93803600Y-116177050D01*
X93805100Y-116204050D01*
X93805100Y-116231550D01*
X93803600Y-116259050D01*
X93800600Y-116286550D01*
X93796600Y-116313550D01*
X93791100Y-116340550D01*
X93784600Y-116367050D01*
X93776600Y-116393050D01*
X93767100Y-116419050D01*
X93756600Y-116444050D01*
X93744600Y-116469050D01*
X93731600Y-116493050D01*
X93717100Y-116516550D01*
X93701600Y-116539050D01*
X93685100Y-116561050D01*
X93667600Y-116582050D01*
X93648600Y-116602050D01*
X93629100Y-116621050D01*
X93608600Y-116639050D01*
X93587100Y-116656550D01*
X93565100Y-116672550D01*
X93541600Y-116687050D01*
X93518100Y-116701050D01*
X93493600Y-116713550D01*
X93468600Y-116724550D01*
X93443100Y-116734550D01*
X93417100Y-116743550D01*
X93390600Y-116751050D01*
X93364100Y-116757050D01*
X93337100Y-116762050D01*
X93309600Y-116765050D01*
X93282600Y-116767050D01*
X93255100Y-116768050D01*
X92255100Y-116768050D01*
X92227600Y-116767050D01*
X92200100Y-116765050D01*
X92173100Y-116762050D01*
X92146100Y-116757050D01*
X92119100Y-116751050D01*
X92093100Y-116743550D01*
X92067100Y-116734550D01*
X92041600Y-116724550D01*
X92016600Y-116713550D01*
X91992100Y-116701050D01*
X91968100Y-116687050D01*
X91945100Y-116672550D01*
X91923100Y-116656550D01*
X91901600Y-116639050D01*
X91881100Y-116621050D01*
X91861100Y-116602050D01*
X91842600Y-116582050D01*
X91825100Y-116561050D01*
X91808600Y-116539050D01*
X91793100Y-116516550D01*
X91778600Y-116493050D01*
X91765600Y-116469050D01*
X91753600Y-116444050D01*
X91743100Y-116419050D01*
X91733600Y-116393050D01*
X91725600Y-116367050D01*
X91718600Y-116340550D01*
X91713600Y-116313550D01*
X91709100Y-116286550D01*
X91706600Y-116259050D01*
X91705100Y-116231550D01*
X91705100Y-116204050D01*
X91706600Y-116177050D01*
X91709100Y-116149550D01*
X91713600Y-116122550D01*
X91718600Y-116095550D01*
X91725600Y-116069050D01*
X91733600Y-116042550D01*
X91743100Y-116017050D01*
X91753600Y-115991550D01*
X91765600Y-115967050D01*
X91778600Y-115943050D01*
X91793100Y-115919550D01*
X91808600Y-115897050D01*
X91825100Y-115875050D01*
X91842600Y-115854050D01*
X91861100Y-115834050D01*
X91881100Y-115814550D01*
X91901600Y-115796550D01*
X91923100Y-115779550D01*
X91945100Y-115763550D01*
X91968100Y-115748550D01*
X91992100Y-115735050D01*
X92016600Y-115722550D01*
X92041600Y-115711050D01*
X92067100Y-115701050D01*
X92093100Y-115692550D01*
X92119100Y-115685050D01*
X92146100Y-115679050D01*
X92173100Y-115674050D01*
X92200100Y-115670550D01*
X92227600Y-115668550D01*
X92255100Y-115668050D01*
X93255100Y-115668050D01*
X93282600Y-115668550D01*
G37*
G36*
X93282600Y-124318550D02*
G01*
X93309600Y-124320550D01*
X93337100Y-124324050D01*
X93364100Y-124329050D01*
X93390600Y-124335050D01*
X93417100Y-124342550D01*
X93443100Y-124351050D01*
X93468600Y-124361050D01*
X93493600Y-124372550D01*
X93518100Y-124385050D01*
X93541600Y-124398550D01*
X93565100Y-124413550D01*
X93587100Y-124429550D01*
X93608600Y-124446550D01*
X93629100Y-124464550D01*
X93648600Y-124484050D01*
X93667600Y-124504050D01*
X93685100Y-124525050D01*
X93701600Y-124547050D01*
X93717100Y-124569550D01*
X93731600Y-124593050D01*
X93744600Y-124617050D01*
X93756600Y-124641550D01*
X93767100Y-124667050D01*
X93776600Y-124692550D01*
X93784600Y-124719050D01*
X93791100Y-124745550D01*
X93796600Y-124772550D01*
X93800600Y-124799550D01*
X93803600Y-124827050D01*
X93805100Y-124854050D01*
X93805100Y-124881550D01*
X93803600Y-124909050D01*
X93800600Y-124936550D01*
X93796600Y-124963550D01*
X93791100Y-124990050D01*
X93784600Y-125017050D01*
X93776600Y-125043050D01*
X93767100Y-125069050D01*
X93756600Y-125094050D01*
X93744600Y-125119050D01*
X93731600Y-125143050D01*
X93717100Y-125166550D01*
X93701600Y-125189050D01*
X93685100Y-125211050D01*
X93667600Y-125232050D01*
X93648600Y-125252050D01*
X93629100Y-125271050D01*
X93608600Y-125289050D01*
X93587100Y-125306550D01*
X93565100Y-125322550D01*
X93541600Y-125337050D01*
X93518100Y-125351050D01*
X93493600Y-125363550D01*
X93468600Y-125374550D01*
X93443100Y-125384550D01*
X93417100Y-125393550D01*
X93390600Y-125401050D01*
X93364100Y-125407050D01*
X93337100Y-125411550D01*
X93309600Y-125415050D01*
X93282600Y-125417050D01*
X93255100Y-125418050D01*
X92255100Y-125418050D01*
X92227600Y-125417050D01*
X92200100Y-125415050D01*
X92173100Y-125411550D01*
X92146100Y-125407050D01*
X92119100Y-125401050D01*
X92093100Y-125393550D01*
X92067100Y-125384550D01*
X92041600Y-125374550D01*
X92016600Y-125363550D01*
X91992100Y-125351050D01*
X91968100Y-125337050D01*
X91945100Y-125322550D01*
X91923100Y-125306550D01*
X91901600Y-125289050D01*
X91881100Y-125271050D01*
X91861100Y-125252050D01*
X91842600Y-125232050D01*
X91825100Y-125211050D01*
X91808600Y-125189050D01*
X91793100Y-125166550D01*
X91778600Y-125143050D01*
X91765600Y-125119050D01*
X91753600Y-125094050D01*
X91743100Y-125069050D01*
X91733600Y-125043050D01*
X91725600Y-125017050D01*
X91718600Y-124990050D01*
X91713600Y-124963550D01*
X91709100Y-124936550D01*
X91706600Y-124909050D01*
X91705100Y-124881550D01*
X91705100Y-124854050D01*
X91706600Y-124827050D01*
X91709100Y-124799550D01*
X91713600Y-124772550D01*
X91718600Y-124745550D01*
X91725600Y-124719050D01*
X91733600Y-124692550D01*
X91743100Y-124667050D01*
X91753600Y-124641550D01*
X91765600Y-124617050D01*
X91778600Y-124593050D01*
X91793100Y-124569550D01*
X91808600Y-124547050D01*
X91825100Y-124525050D01*
X91842600Y-124504050D01*
X91861100Y-124484050D01*
X91881100Y-124464550D01*
X91901600Y-124446550D01*
X91923100Y-124429550D01*
X91945100Y-124413550D01*
X91968100Y-124398550D01*
X91992100Y-124385050D01*
X92016600Y-124372550D01*
X92041600Y-124361050D01*
X92067100Y-124351050D01*
X92093100Y-124342550D01*
X92119100Y-124335050D01*
X92146100Y-124329050D01*
X92173100Y-124324050D01*
X92200100Y-124320550D01*
X92227600Y-124318550D01*
X92255100Y-124318050D01*
X93255100Y-124318050D01*
X93282600Y-124318550D01*
G37*
%TO.C,R21*%
G36*
X132558200Y-135044600D02*
G01*
X132558200Y-135524600D01*
X132508200Y-135594600D01*
X132058200Y-135594600D01*
X132008200Y-135524600D01*
X132008200Y-135044600D01*
X132058200Y-134994600D01*
X132508200Y-134994600D01*
X132558200Y-135044600D01*
G37*
G36*
X132558200Y-136024600D02*
G01*
X132558200Y-136504600D01*
X132508200Y-136554600D01*
X132058200Y-136554600D01*
X132008200Y-136504600D01*
X132008200Y-136024600D01*
X132058200Y-135954600D01*
X132508200Y-135954600D01*
X132558200Y-136024600D01*
G37*
%TO.C,R18*%
G36*
X127935400Y-137178200D02*
G01*
X127935400Y-137658200D01*
X127885400Y-137728200D01*
X127435400Y-137728200D01*
X127385400Y-137658200D01*
X127385400Y-137178200D01*
X127435400Y-137128200D01*
X127885400Y-137128200D01*
X127935400Y-137178200D01*
G37*
G36*
X127935400Y-138158200D02*
G01*
X127935400Y-138638200D01*
X127885400Y-138688200D01*
X127435400Y-138688200D01*
X127385400Y-138638200D01*
X127385400Y-138158200D01*
X127435400Y-138088200D01*
X127885400Y-138088200D01*
X127935400Y-138158200D01*
G37*
%TD*%
D11*
%TO.C,Q7*%
X131125700Y-113675200D03*
X133125700Y-112725200D03*
X133125700Y-114625200D03*
%TD*%
D12*
%TO.C,Q6*%
X125749500Y-116160400D03*
X124799500Y-113690400D03*
X126699500Y-113690400D03*
%TD*%
D13*
%TO.C,R26*%
X125704600Y-118541800D03*
X124197600Y-118541800D03*
%TD*%
D14*
%TO.C,R24*%
X137376900Y-114630200D03*
X135376900Y-114630200D03*
%TD*%
D15*
%TO.C,R25*%
X124708900Y-111125000D03*
X126708900Y-111125000D03*
%TD*%
D16*
%TO.C,Q1*%
X103281200Y-109497050D03*
X101381200Y-109497050D03*
X102331200Y-106998050D03*
%TD*%
D17*
%TO.C,C10*%
X125526800Y-136202600D03*
X125526800Y-138277600D03*
%TD*%
D18*
%TO.C,R20*%
X120954800Y-139254400D03*
X120954800Y-138164400D03*
%TD*%
D16*
%TO.C,Q3*%
X97985600Y-77794800D03*
X96085600Y-77794800D03*
X97035600Y-79794800D03*
%TD*%
D18*
%TO.C,R19*%
X123190000Y-138351600D03*
X123190000Y-137261600D03*
%TD*%
D17*
%TO.C,C9*%
X93819800Y-129126400D03*
X93819800Y-131201400D03*
%TD*%
D19*
%TO.C,R14*%
X105156000Y-72424000D03*
X105156000Y-74424000D03*
%TD*%
D20*
%TO.C,R10*%
X110150000Y-81915000D03*
X110150000Y-80895000D03*
%TD*%
D18*
%TO.C,R22*%
X130200400Y-136472000D03*
X130200400Y-135382000D03*
%TD*%
D21*
%TO.C,C11*%
X125360000Y-102420000D03*
X125360000Y-101020000D03*
%TD*%
D22*
%TO.C,D2*%
X89839800Y-92788000D03*
X89839800Y-96188000D03*
%TD*%
D21*
%TO.C,C13*%
X134290000Y-102450000D03*
X134290000Y-101050000D03*
%TD*%
D23*
%TO.C,CARD1*%
X127570000Y-141740000D03*
X126470000Y-141740000D03*
X125370000Y-141740000D03*
X124270000Y-141740000D03*
X123170000Y-141740000D03*
X122070000Y-141740000D03*
X120970000Y-141740000D03*
X119870000Y-141740000D03*
D24*
X117570000Y-142740000D03*
D25*
X117570000Y-152340000D03*
X133070000Y-152340000D03*
D26*
X132170000Y-142740000D03*
D23*
X118770000Y-141740000D03*
%TD*%
D19*
%TO.C,R4*%
X99103000Y-129147900D03*
X99103000Y-131147900D03*
%TD*%
D27*
%TO.C,R5*%
X104437000Y-131147900D03*
X104437000Y-129147900D03*
%TD*%
D18*
%TO.C,R23*%
X118237000Y-138873400D03*
X118237000Y-137783400D03*
%TD*%
D28*
%TO.C,C1*%
X141352500Y-69059800D03*
X143427500Y-69059800D03*
%TD*%
D21*
%TO.C,R17*%
X136490000Y-102440000D03*
X136490000Y-101040000D03*
%TD*%
D27*
%TO.C,R9*%
X108648500Y-115309350D03*
X108648500Y-113309350D03*
%TD*%
D17*
%TO.C,C15*%
X113411200Y-66966200D03*
X113411200Y-69041200D03*
%TD*%
D29*
%TO.C,U3*%
X103502600Y-119448050D03*
X103502600Y-120568050D03*
X103502600Y-121688050D03*
X104622600Y-119448050D03*
X104622600Y-120568050D03*
X104622600Y-121688050D03*
X105742600Y-119448050D03*
X105742600Y-120568050D03*
X105742600Y-121688050D03*
D30*
X102172600Y-119068050D03*
X102172600Y-119568050D03*
X102172600Y-120068050D03*
X102172600Y-120568050D03*
X102172600Y-121068050D03*
X102172600Y-121568050D03*
X102172600Y-122068050D03*
D31*
X103122600Y-123018050D03*
X103622600Y-123018050D03*
X104122600Y-123018050D03*
X104622600Y-123018050D03*
X105122600Y-123018050D03*
X105622600Y-123018050D03*
X106122600Y-123018050D03*
D30*
X107072600Y-122068050D03*
X107072600Y-121568050D03*
X107072600Y-121068050D03*
X107072600Y-120568050D03*
X107072600Y-120068050D03*
X107072600Y-119568050D03*
X107072600Y-119068050D03*
D31*
X106122600Y-118118050D03*
X105622600Y-118118050D03*
X105122600Y-118118050D03*
X104622600Y-118118050D03*
X104122600Y-118118050D03*
X103622600Y-118118050D03*
X103122600Y-118118050D03*
%TD*%
D32*
%TO.C,C3*%
X90906600Y-83748800D03*
X88906600Y-83748800D03*
%TD*%
D33*
%TO.C,Q4*%
X101416000Y-81549200D03*
X101416000Y-83449200D03*
X103886000Y-82499200D03*
%TD*%
D11*
%TO.C,Q2*%
X103924100Y-113257750D03*
X103924100Y-115157750D03*
X101425100Y-114207750D03*
%TD*%
D17*
%TO.C,C5*%
X91178200Y-129122500D03*
X91178200Y-131197500D03*
%TD*%
D34*
%TO.C,U1*%
X96052600Y-121296050D03*
X97002600Y-121296050D03*
X97952600Y-121296050D03*
X97952600Y-119021050D03*
X97002600Y-119021050D03*
X96052600Y-119021050D03*
%TD*%
D35*
%TO.C,L_B-B1*%
X127348000Y-96234000D03*
X130904000Y-96234000D03*
%TD*%
D28*
%TO.C,C2*%
X88853100Y-80573800D03*
X90928100Y-80573800D03*
%TD*%
D36*
%TO.C,LED1*%
X111821000Y-84866000D03*
X111821000Y-86106000D03*
X110871000Y-84866000D03*
X110871000Y-86106000D03*
%TD*%
D37*
%TO.C,SW1*%
X141440000Y-73969800D03*
X143040000Y-73969800D03*
X141440000Y-78069800D03*
X143040000Y-78069800D03*
%TD*%
D22*
%TO.C,D1*%
X88646000Y-132256000D03*
X88646000Y-128856000D03*
%TD*%
D19*
%TO.C,R13*%
X94525600Y-82974800D03*
X94525600Y-84974800D03*
%TD*%
D37*
%TO.C,SW2*%
X89179600Y-73969800D03*
X90779600Y-73969800D03*
X89179600Y-78069800D03*
X90779600Y-78069800D03*
%TD*%
D38*
%TO.C,R11*%
X113400000Y-80895000D03*
X113400000Y-81915000D03*
%TD*%
D11*
%TO.C,Q5*%
X105882925Y-95097600D03*
X105882925Y-93197600D03*
X103882925Y-94147600D03*
%TD*%
D21*
%TO.C,C14*%
X132070000Y-102440000D03*
X132070000Y-101040000D03*
%TD*%
D27*
%TO.C,R8*%
X106159300Y-115293350D03*
X106159300Y-113293350D03*
%TD*%
D39*
%TO.C,U6*%
X117306000Y-60608400D03*
X117306000Y-61878400D03*
X117306000Y-63148400D03*
X117306000Y-64418400D03*
X117306000Y-65688400D03*
X117306000Y-66958400D03*
X117306000Y-68228400D03*
X117306000Y-69498400D03*
X117306000Y-70768400D03*
X117306000Y-72038400D03*
X117306000Y-73308400D03*
X117306000Y-74578400D03*
X117306000Y-75848400D03*
X117306000Y-77118400D03*
X117306000Y-78388400D03*
X117306000Y-79658400D03*
X117306000Y-80928400D03*
X117306000Y-82198400D03*
X117306000Y-83468400D03*
X135306000Y-83468400D03*
X135306000Y-82198400D03*
X135306000Y-80928400D03*
X135306000Y-79658400D03*
X135306000Y-78388400D03*
X135306000Y-77118400D03*
X135306000Y-75848400D03*
X135306000Y-74578400D03*
X135306000Y-73308400D03*
X135306000Y-72038400D03*
X135306000Y-70768400D03*
X135306000Y-69498400D03*
X135306000Y-68228400D03*
X135306000Y-66958400D03*
X135306000Y-65688400D03*
X135306000Y-64418400D03*
X135306000Y-63148400D03*
X135306000Y-61878400D03*
X135306000Y-60608400D03*
D40*
X123471000Y-66273400D03*
X123471000Y-68108400D03*
X123471000Y-69943400D03*
X125306000Y-66273400D03*
X125306000Y-68108400D03*
X125306000Y-69943400D03*
X127141000Y-66273400D03*
X127141000Y-68108400D03*
X127141000Y-69943400D03*
%TD*%
D28*
%TO.C,C7*%
X135898000Y-92231400D03*
X137973000Y-92231400D03*
%TD*%
%TO.C,C8*%
X135898000Y-95127000D03*
X137973000Y-95127000D03*
%TD*%
D27*
%TO.C,R3*%
X96461400Y-131129100D03*
X96461400Y-129129100D03*
%TD*%
D19*
%TO.C,R16*%
X102646000Y-68314000D03*
X102646000Y-70314000D03*
%TD*%
D27*
%TO.C,R2*%
X105308600Y-63996000D03*
X105308600Y-61996000D03*
%TD*%
D18*
%TO.C,C6*%
X96130600Y-75264800D03*
X96130600Y-74174800D03*
%TD*%
D19*
%TO.C,R6*%
X101744600Y-129147900D03*
X101744600Y-131147900D03*
%TD*%
D27*
%TO.C,R7*%
X107078600Y-131147900D03*
X107078600Y-129147900D03*
%TD*%
D32*
%TO.C,C4*%
X137898000Y-89183400D03*
X135898000Y-89183400D03*
%TD*%
D27*
%TO.C,R15*%
X110286000Y-68904000D03*
X110286000Y-66904000D03*
%TD*%
D41*
%TO.C,U5*%
X130124200Y-101107550D03*
X129624200Y-101107550D03*
X129124200Y-101107550D03*
X128624200Y-101107550D03*
X128124200Y-101107550D03*
D42*
X128124200Y-104107550D03*
X128624200Y-104107550D03*
X129124200Y-104107550D03*
X129624200Y-104107550D03*
X130124200Y-104107550D03*
D43*
X129119200Y-102607550D03*
%TD*%
D44*
%TO.C,U7*%
X93405100Y-117343050D03*
X93405100Y-118143050D03*
D45*
X93405100Y-119293050D03*
X93405100Y-120293050D03*
X93405100Y-120793050D03*
X93406100Y-121792550D03*
D44*
X93405100Y-122943050D03*
X93405100Y-123743050D03*
D45*
X93405100Y-122293050D03*
X93405100Y-121293050D03*
X93405100Y-119793050D03*
X93406100Y-118793050D03*
%TD*%
D18*
%TO.C,R21*%
X132283200Y-136319600D03*
X132283200Y-135229600D03*
%TD*%
%TO.C,R18*%
X127660400Y-138453200D03*
X127660400Y-137363200D03*
%TD*%
D22*
%TO.C,D3*%
X108458000Y-91723000D03*
X108458000Y-95123000D03*
%TD*%
D15*
%TO.C,R1*%
X94387200Y-136790500D03*
X92387200Y-136790500D03*
%TD*%
D38*
%TO.C,R12*%
X111760000Y-80895000D03*
X111760000Y-81915000D03*
%TD*%
D17*
%TO.C,C12*%
X122946000Y-100686500D03*
X122946000Y-102761500D03*
%TD*%
M02*
