%TF.GenerationSoftware,KiCad,Pcbnew,9.0.1*%
%TF.CreationDate,2025-06-12T08:49:48+02:00*%
%TF.ProjectId,MY-ESP32,4d592d45-5350-4333-922e-6b696361645f,rev?*%
%TF.SameCoordinates,Original*%
%TF.FileFunction,Soldermask,Bot*%
%TF.FilePolarity,Negative*%
%FSLAX46Y46*%
G04 Gerber Fmt 4.6, Leading zero omitted, Abs format (unit mm)*
G04 Created by KiCad (PCBNEW 9.0.1) date 2025-06-12 08:49:48*
%MOMM*%
%LPD*%
G01*
G04 APERTURE LIST*
%ADD10C,1.400000*%
%ADD11R,1.800000X1.800000*%
%ADD12C,1.600000*%
%ADD13C,1.800000*%
%ADD14O,2.500000X1.200000*%
%ADD15R,1.700000X1.700000*%
%ADD16C,1.700000*%
%ADD17C,3.200000*%
%ADD18R,1.575000X1.575000*%
%ADD19C,1.575000*%
%ADD20C,3.575000*%
%ADD21O,2.100000X1.100000*%
%ADD22O,1.800000X1.200000*%
G04 APERTURE END LIST*
D10*
%TO.C,U2*%
X92329000Y-107696000D03*
X92329000Y-109696000D03*
%TD*%
D11*
%TO.C,H6*%
X114300000Y-142468600D03*
D12*
X114300000Y-145008600D03*
X114300000Y-147548600D03*
X114300000Y-150088600D03*
X114300000Y-152628600D03*
X114300000Y-155168600D03*
%TD*%
D11*
%TO.C,SW3*%
X94488000Y-97282000D03*
D13*
X94488000Y-94282000D03*
X94488000Y-91282000D03*
D14*
X94488000Y-88482000D03*
X94488000Y-100082000D03*
%TD*%
D15*
%TO.C,H3*%
X137160000Y-129692400D03*
D16*
X137160000Y-127152400D03*
X137160000Y-124612400D03*
X137160000Y-122072400D03*
%TD*%
D15*
%TO.C,H8*%
X137160000Y-134772400D03*
D16*
X137160000Y-137312400D03*
%TD*%
D17*
%TO.C,H10*%
X168427400Y-64465200D03*
%TD*%
D15*
%TO.C,H7*%
X114300000Y-137312400D03*
D16*
X114300000Y-134772400D03*
%TD*%
D17*
%TO.C,H12*%
X168427400Y-152323800D03*
%TD*%
D18*
%TO.C,H1*%
X129540000Y-127203200D03*
D19*
X129540000Y-124663200D03*
X129540000Y-122123200D03*
%TD*%
D15*
%TO.C,H4*%
X114300000Y-122072400D03*
D16*
X114300000Y-124612400D03*
X114300000Y-127152400D03*
X114300000Y-129692400D03*
%TD*%
D17*
%TO.C,H9*%
X90678000Y-64465200D03*
%TD*%
D20*
%TO.C,U4*%
X167735600Y-106680000D03*
X152501600Y-106680000D03*
D19*
X167741600Y-88162500D03*
X165201600Y-88161500D03*
X162661600Y-88160500D03*
X160121600Y-88159500D03*
X157581600Y-88158500D03*
X155041600Y-88157500D03*
X152501600Y-88156500D03*
%TD*%
D17*
%TO.C,H11*%
X90678000Y-152323800D03*
%TD*%
D21*
%TO.C,U7*%
X92755100Y-116227050D03*
D22*
X88555100Y-116227050D03*
D21*
X92755100Y-124877050D03*
D22*
X88555100Y-124877050D03*
%TD*%
D11*
%TO.C,H5*%
X137160000Y-142468600D03*
D12*
X137160000Y-145008600D03*
X137160000Y-147548600D03*
X137160000Y-150088600D03*
X137160000Y-152628600D03*
X137160000Y-155168600D03*
%TD*%
D18*
%TO.C,H2*%
X121920000Y-127203200D03*
D19*
X121920000Y-124663200D03*
X121920000Y-122123200D03*
%TD*%
M02*
