%TF.GenerationSoftware,KiCad,Pcbnew,9.0.1*%
%TF.CreationDate,2025-06-12T08:49:47+02:00*%
%TF.ProjectId,MY-ESP32,4d592d45-5350-4333-922e-6b696361645f,rev?*%
%TF.SameCoordinates,Original*%
%TF.FileFunction,Copper,L1,Top*%
%TF.FilePolarity,Positive*%
%FSLAX46Y46*%
G04 Gerber Fmt 4.6, Leading zero omitted, Abs format (unit mm)*
G04 Created by KiCad (PCBNEW 9.0.1) date 2025-06-12 08:49:47*
%MOMM*%
%LPD*%
G01*
G04 APERTURE LIST*
G04 Aperture macros list*
%AMRoundRect*
0 Rectangle with rounded corners*
0 $1 Rounding radius*
0 $2 $3 $4 $5 $6 $7 $8 $9 X,Y pos of 4 corners*
0 Add a 4 corners polygon primitive as box body*
4,1,4,$2,$3,$4,$5,$6,$7,$8,$9,$2,$3,0*
0 Add four circle primitives for the rounded corners*
1,1,$1+$1,$2,$3*
1,1,$1+$1,$4,$5*
1,1,$1+$1,$6,$7*
1,1,$1+$1,$8,$9*
0 Add four rect primitives between the rounded corners*
20,1,$1+$1,$2,$3,$4,$5,0*
20,1,$1+$1,$4,$5,$6,$7,0*
20,1,$1+$1,$6,$7,$8,$9,0*
20,1,$1+$1,$8,$9,$2,$3,0*%
%AMFreePoly0*
4,1,21,-0.180000,0.885000,0.180000,0.885000,0.180000,1.715000,0.470000,1.715000,0.470000,0.885000,0.760000,0.885000,0.760000,-0.885000,0.470000,-0.885000,0.470000,-1.705000,0.180000,-1.705000,0.180000,-0.885000,-0.180000,-0.885000,-0.180000,-1.705000,-0.470000,-1.705000,-0.470000,-0.885000,-0.760000,-0.885000,-0.760000,0.895000,-0.470000,0.895000,-0.470000,1.715000,-0.180000,1.715000,
-0.180000,0.885000,-0.180000,0.885000,$1*%
G04 Aperture macros list end*
%TA.AperFunction,EtchedComponent*%
%ADD10C,0.200000*%
%TD*%
%TA.AperFunction,SMDPad,CuDef*%
%ADD11R,1.250000X0.700000*%
%TD*%
%TA.AperFunction,SMDPad,CuDef*%
%ADD12R,0.600000X1.070000*%
%TD*%
%TA.AperFunction,SMDPad,CuDef*%
%ADD13R,0.806500X0.864000*%
%TD*%
%TA.AperFunction,SMDPad,CuDef*%
%ADD14RoundRect,0.250000X-0.350000X-0.450000X0.350000X-0.450000X0.350000X0.450000X-0.350000X0.450000X0*%
%TD*%
%TA.AperFunction,SMDPad,CuDef*%
%ADD15RoundRect,0.250000X0.350000X0.450000X-0.350000X0.450000X-0.350000X-0.450000X0.350000X-0.450000X0*%
%TD*%
%TA.AperFunction,SMDPad,CuDef*%
%ADD16C,1.000000*%
%TD*%
%TA.AperFunction,ComponentPad*%
%ADD17C,0.500000*%
%TD*%
%TA.AperFunction,SMDPad,CuDef*%
%ADD18R,0.700000X1.250000*%
%TD*%
%TA.AperFunction,SMDPad,CuDef*%
%ADD19RoundRect,0.250000X-0.475000X0.337500X-0.475000X-0.337500X0.475000X-0.337500X0.475000X0.337500X0*%
%TD*%
%TA.AperFunction,ComponentPad*%
%ADD20C,1.400000*%
%TD*%
%TA.AperFunction,ComponentPad*%
%ADD21R,1.800000X1.800000*%
%TD*%
%TA.AperFunction,ComponentPad*%
%ADD22C,1.600000*%
%TD*%
%TA.AperFunction,SMDPad,CuDef*%
%ADD23R,0.540000X0.790000*%
%TD*%
%TA.AperFunction,ComponentPad*%
%ADD24C,1.800000*%
%TD*%
%TA.AperFunction,ComponentPad*%
%ADD25O,2.500000X1.200000*%
%TD*%
%TA.AperFunction,SMDPad,CuDef*%
%ADD26RoundRect,0.250000X-0.450000X0.350000X-0.450000X-0.350000X0.450000X-0.350000X0.450000X0.350000X0*%
%TD*%
%TA.AperFunction,ComponentPad*%
%ADD27R,1.700000X1.700000*%
%TD*%
%TA.AperFunction,ComponentPad*%
%ADD28C,1.700000*%
%TD*%
%TA.AperFunction,SMDPad,CuDef*%
%ADD29RoundRect,0.135000X0.185000X-0.135000X0.185000X0.135000X-0.185000X0.135000X-0.185000X-0.135000X0*%
%TD*%
%TA.AperFunction,SMDPad,CuDef*%
%ADD30R,0.900000X0.800000*%
%TD*%
%TA.AperFunction,SMDPad,CuDef*%
%ADD31R,1.300000X1.300000*%
%TD*%
%TA.AperFunction,SMDPad,CuDef*%
%ADD32R,0.700000X1.600000*%
%TD*%
%TA.AperFunction,SMDPad,CuDef*%
%ADD33R,1.200000X1.500000*%
%TD*%
%TA.AperFunction,SMDPad,CuDef*%
%ADD34R,1.200000X2.200000*%
%TD*%
%TA.AperFunction,SMDPad,CuDef*%
%ADD35R,1.600000X1.500000*%
%TD*%
%TA.AperFunction,SMDPad,CuDef*%
%ADD36RoundRect,0.250000X0.450000X-0.350000X0.450000X0.350000X-0.450000X0.350000X-0.450000X-0.350000X0*%
%TD*%
%TA.AperFunction,SMDPad,CuDef*%
%ADD37RoundRect,0.250000X-0.337500X-0.475000X0.337500X-0.475000X0.337500X0.475000X-0.337500X0.475000X0*%
%TD*%
%TA.AperFunction,SMDPad,CuDef*%
%ADD38RoundRect,0.062500X-0.337500X-0.062500X0.337500X-0.062500X0.337500X0.062500X-0.337500X0.062500X0*%
%TD*%
%TA.AperFunction,SMDPad,CuDef*%
%ADD39RoundRect,0.062500X-0.062500X-0.337500X0.062500X-0.337500X0.062500X0.337500X-0.062500X0.337500X0*%
%TD*%
%TA.AperFunction,HeatsinkPad*%
%ADD40R,3.350000X3.350000*%
%TD*%
%TA.AperFunction,SMDPad,CuDef*%
%ADD41R,1.410000X1.350000*%
%TD*%
%TA.AperFunction,SMDPad,CuDef*%
%ADD42R,1.070000X0.600000*%
%TD*%
%TA.AperFunction,SMDPad,CuDef*%
%ADD43RoundRect,0.150000X0.150000X-0.512500X0.150000X0.512500X-0.150000X0.512500X-0.150000X-0.512500X0*%
%TD*%
%TA.AperFunction,SMDPad,CuDef*%
%ADD44R,2.124000X3.820000*%
%TD*%
%TA.AperFunction,SMDPad,CuDef*%
%ADD45R,0.750000X0.700000*%
%TD*%
%TA.AperFunction,SMDPad,CuDef*%
%ADD46R,1.000000X0.900000*%
%TD*%
%TA.AperFunction,SMDPad,CuDef*%
%ADD47RoundRect,0.135000X-0.185000X0.135000X-0.185000X-0.135000X0.185000X-0.135000X0.185000X0.135000X0*%
%TD*%
%TA.AperFunction,ComponentPad*%
%ADD48R,1.575000X1.575000*%
%TD*%
%TA.AperFunction,ComponentPad*%
%ADD49C,1.575000*%
%TD*%
%TA.AperFunction,SMDPad,CuDef*%
%ADD50R,2.000000X0.900000*%
%TD*%
%TA.AperFunction,SMDPad,CuDef*%
%ADD51R,1.330000X1.330000*%
%TD*%
%TA.AperFunction,ComponentPad*%
%ADD52C,3.575000*%
%TD*%
%TA.AperFunction,SMDPad,CuDef*%
%ADD53R,0.240000X0.850000*%
%TD*%
%TA.AperFunction,SMDPad,CuDef*%
%ADD54R,0.230000X0.800000*%
%TD*%
%TA.AperFunction,SMDPad,CuDef*%
%ADD55FreePoly0,270.000000*%
%TD*%
%TA.AperFunction,ComponentPad*%
%ADD56O,2.100000X1.100000*%
%TD*%
%TA.AperFunction,ComponentPad*%
%ADD57O,1.800000X1.200000*%
%TD*%
%TA.AperFunction,SMDPad,CuDef*%
%ADD58R,1.300000X0.600000*%
%TD*%
%TA.AperFunction,SMDPad,CuDef*%
%ADD59R,1.300000X0.300000*%
%TD*%
%TA.AperFunction,ViaPad*%
%ADD60C,0.800000*%
%TD*%
%TA.AperFunction,Conductor*%
%ADD61C,0.508000*%
%TD*%
%TA.AperFunction,Conductor*%
%ADD62C,0.254000*%
%TD*%
%TA.AperFunction,Conductor*%
%ADD63C,0.355600*%
%TD*%
%TA.AperFunction,Conductor*%
%ADD64C,0.406400*%
%TD*%
%TA.AperFunction,Conductor*%
%ADD65C,0.250000*%
%TD*%
G04 APERTURE END LIST*
D10*
%TO.C,U4*%
X168735600Y-106680000D02*
G75*
G02*
X166735600Y-106680000I-1000000J0D01*
G01*
X166735600Y-106680000D02*
G75*
G02*
X168735600Y-106680000I1000000J0D01*
G01*
%TD*%
D11*
%TO.P,Q7,3,D*%
%TO.N,Net-(Q6-G)*%
X131125700Y-113675200D03*
%TO.P,Q7,2,S*%
%TO.N,GND*%
X133125700Y-112725200D03*
%TO.P,Q7,1,G*%
%TO.N,Net-(Q7-G)*%
X133125700Y-114625200D03*
%TD*%
D12*
%TO.P,Q6,3,D*%
%TO.N,/micro_SD-CARD_enable/3V3_Input_to_micro_SD-CARD*%
X125749500Y-116160400D03*
%TO.P,Q6,2,S*%
%TO.N,+3V3*%
X124799500Y-113690400D03*
%TO.P,Q6,1,G*%
%TO.N,Net-(Q6-G)*%
X126699500Y-113690400D03*
%TD*%
D13*
%TO.P,R26,2,2*%
%TO.N,/micro_SD-CARD_enable/3V3_Input_to_micro_SD-CARD*%
X125704600Y-118541800D03*
%TO.P,R26,1,1*%
%TO.N,GND*%
X124197600Y-118541800D03*
%TD*%
D14*
%TO.P,R24,2*%
%TO.N,D4*%
X137376900Y-114630200D03*
%TO.P,R24,1*%
%TO.N,Net-(Q7-G)*%
X135376900Y-114630200D03*
%TD*%
D15*
%TO.P,R25,2*%
%TO.N,+3V3*%
X124708900Y-111125000D03*
%TO.P,R25,1*%
%TO.N,Net-(Q6-G)*%
X126708900Y-111125000D03*
%TD*%
D16*
%TO.P,TP1,1,1*%
%TO.N,GND*%
X104919600Y-149860000D03*
%TD*%
D17*
%TO.P,,39,GND*%
%TO.N,GND*%
X126233600Y-70866000D03*
%TD*%
D18*
%TO.P,Q1,1,E*%
%TO.N,RTS*%
X103281200Y-109497050D03*
%TO.P,Q1,2,B*%
%TO.N,Net-(Q1-B)*%
X101381200Y-109497050D03*
%TO.P,Q1,3,C*%
%TO.N,ENA*%
X102331200Y-106998050D03*
%TD*%
D19*
%TO.P,C10,1*%
%TO.N,GND*%
X125526800Y-136202600D03*
%TO.P,C10,2*%
%TO.N,/micro_SD-CARD_enable/3V3_Input_to_micro_SD-CARD*%
X125526800Y-138277600D03*
%TD*%
D20*
%TO.P,U2,1,1*%
%TO.N,/Battery_Voltage_Monitor_with_MOSFETS/V_Batt_Monitor_INPUT*%
X92329000Y-107696000D03*
%TO.P,U2,2,2*%
%TO.N,GND*%
X92329000Y-109696000D03*
%TD*%
D21*
%TO.P,H6,1,1*%
%TO.N,GND*%
X114300000Y-142468600D03*
D22*
%TO.P,H6,2,2*%
%TO.N,EXT_5V*%
X114300000Y-145008600D03*
%TO.P,H6,3,3*%
%TO.N,D32*%
X114300000Y-147548600D03*
%TO.P,H6,4,4*%
%TO.N,D35*%
X114300000Y-150088600D03*
%TO.P,H6,5,5*%
%TO.N,GND*%
X114300000Y-152628600D03*
%TO.P,H6,6,6*%
X114300000Y-155168600D03*
%TD*%
D23*
%TO.P,R20,1,1*%
%TO.N,D2*%
X120954800Y-139254400D03*
%TO.P,R20,2,2*%
%TO.N,/micro_SD-CARD_enable/3V3_Input_to_micro_SD-CARD*%
X120954800Y-138164400D03*
%TD*%
D18*
%TO.P,Q3,1,G*%
%TO.N,Net-(Q3-G)*%
X97985600Y-77794800D03*
%TO.P,Q3,2,S*%
%TO.N,GND*%
X96085600Y-77794800D03*
%TO.P,Q3,3,D*%
%TO.N,Net-(Q3-D)*%
X97035600Y-79794800D03*
%TD*%
D23*
%TO.P,R19,1,1*%
%TO.N,D14*%
X123190000Y-138351600D03*
%TO.P,R19,2,2*%
%TO.N,/micro_SD-CARD_enable/3V3_Input_to_micro_SD-CARD*%
X123190000Y-137261600D03*
%TD*%
D17*
%TO.P,,11,GND*%
%TO.N,GND*%
X129692400Y-102616000D03*
%TD*%
D19*
%TO.P,C9,1*%
%TO.N,+3V3*%
X93819800Y-129126400D03*
%TO.P,C9,2*%
%TO.N,GND*%
X93819800Y-131201400D03*
%TD*%
D21*
%TO.P,SW3,1,1*%
%TO.N,VBAT*%
X94488000Y-97282000D03*
D24*
%TO.P,SW3,2,2*%
%TO.N,Net-(D2-C)*%
X94488000Y-94282000D03*
%TO.P,SW3,3,3*%
%TO.N,unconnected-(SW3-Pad3)*%
X94488000Y-91282000D03*
D25*
%TO.P,SW3,4,4*%
%TO.N,GND*%
X94488000Y-88482000D03*
%TO.P,SW3,5,5*%
X94488000Y-100082000D03*
%TD*%
D17*
%TO.P,,11,GND*%
%TO.N,GND*%
X128549400Y-102610000D03*
%TD*%
D26*
%TO.P,R14,1*%
%TO.N,D34*%
X105156000Y-72424000D03*
%TO.P,R14,2*%
%TO.N,Net-(Q4-D)*%
X105156000Y-74424000D03*
%TD*%
D17*
%TO.P,,39,GND*%
%TO.N,GND*%
X128066800Y-65354200D03*
%TD*%
%TO.P,,39,GND*%
%TO.N,GND*%
X124380000Y-69020000D03*
%TD*%
D27*
%TO.P,H3,1,1*%
%TO.N,+3V3*%
X137160000Y-129692400D03*
D28*
%TO.P,H3,2,2*%
%TO.N,GND*%
X137160000Y-127152400D03*
%TO.P,H3,3,3*%
%TO.N,IO0*%
X137160000Y-124612400D03*
%TO.P,H3,4,4*%
%TO.N,GND*%
X137160000Y-122072400D03*
%TD*%
D29*
%TO.P,R10,1,1*%
%TO.N,Net-(LED1-R)*%
X110150000Y-81915000D03*
%TO.P,R10,2,2*%
%TO.N,D33*%
X110150000Y-80895000D03*
%TD*%
D27*
%TO.P,H8,1,1*%
%TO.N,+3V3*%
X137160000Y-134772400D03*
D28*
%TO.P,H8,2,2*%
%TO.N,GND*%
X137160000Y-137312400D03*
%TD*%
D17*
%TO.P,,39,GND*%
%TO.N,GND*%
X126233600Y-65354200D03*
%TD*%
D23*
%TO.P,R22,1,1*%
%TO.N,Net-(CARD1-CD{slash}DAT3)*%
X130200400Y-136472000D03*
%TO.P,R22,2,2*%
%TO.N,/micro_SD-CARD_enable/3V3_Input_to_micro_SD-CARD*%
X130200400Y-135382000D03*
%TD*%
D30*
%TO.P,C11,1,1*%
%TO.N,GND*%
X125360000Y-102420000D03*
%TO.P,C11,2,2*%
%TO.N,/Buck-Boost3.3V/Buck-Boost_INPUT*%
X125360000Y-101020000D03*
%TD*%
D31*
%TO.P,D2,1,C*%
%TO.N,Net-(D2-C)*%
X89839800Y-92788000D03*
%TO.P,D2,2,A*%
%TO.N,/Battery_Voltage_Monitor_with_MOSFETS/V_Batt_Monitor_INPUT*%
X89839800Y-96188000D03*
%TD*%
D30*
%TO.P,C13,1,1*%
%TO.N,GND*%
X134290000Y-102450000D03*
%TO.P,C13,2,2*%
%TO.N,+3V3*%
X134290000Y-101050000D03*
%TD*%
D32*
%TO.P,CARD1,1,DAT2*%
%TO.N,Net-(CARD1-DAT2)*%
X127570000Y-141740000D03*
%TO.P,CARD1,2,CD/DAT3*%
%TO.N,Net-(CARD1-CD{slash}DAT3)*%
X126470000Y-141740000D03*
%TO.P,CARD1,3,CMD*%
%TO.N,D15*%
X125370000Y-141740000D03*
%TO.P,CARD1,4,VDD*%
%TO.N,/micro_SD-CARD_enable/3V3_Input_to_micro_SD-CARD*%
X124270000Y-141740000D03*
%TO.P,CARD1,5,CLX*%
%TO.N,D14*%
X123170000Y-141740000D03*
%TO.P,CARD1,6,VSS*%
%TO.N,GND*%
X122070000Y-141740000D03*
%TO.P,CARD1,7,DAT0*%
%TO.N,D2*%
X120970000Y-141740000D03*
%TO.P,CARD1,8,DAT1*%
%TO.N,Net-(CARD1-DAT1)*%
X119870000Y-141740000D03*
D33*
%TO.P,CARD1,10,10*%
%TO.N,GND*%
X117570000Y-142740000D03*
D34*
%TO.P,CARD1,11,11*%
X117570000Y-152340000D03*
%TO.P,CARD1,12,12*%
X133070000Y-152340000D03*
D35*
%TO.P,CARD1,13,13*%
X132170000Y-142740000D03*
D32*
%TO.P,CARD1,CD,CD*%
%TO.N,unconnected-(CARD1-PadCD)*%
X118770000Y-141740000D03*
%TD*%
D17*
%TO.P,,39,GND*%
%TO.N,GND*%
X122540000Y-69020000D03*
%TD*%
D26*
%TO.P,R4,1*%
%TO.N,Net-(U3-VBUS)*%
X99103000Y-129147900D03*
%TO.P,R4,2*%
%TO.N,GND*%
X99103000Y-131147900D03*
%TD*%
D36*
%TO.P,R5,1*%
%TO.N,Net-(R5-Pad1)*%
X104437000Y-131147900D03*
%TO.P,R5,2*%
%TO.N,+3V3*%
X104437000Y-129147900D03*
%TD*%
D23*
%TO.P,R23,1,1*%
%TO.N,Net-(CARD1-DAT1)*%
X118237000Y-138873400D03*
%TO.P,R23,2,2*%
%TO.N,/micro_SD-CARD_enable/3V3_Input_to_micro_SD-CARD*%
X118237000Y-137783400D03*
%TD*%
D17*
%TO.P,,39,GND*%
%TO.N,GND*%
X128060000Y-67200000D03*
%TD*%
D37*
%TO.P,C1,1*%
%TO.N,IO0*%
X141352500Y-69059800D03*
%TO.P,C1,2*%
%TO.N,GND*%
X143427500Y-69059800D03*
%TD*%
D17*
%TO.P,,11,GND*%
%TO.N,GND*%
X129124200Y-102607550D03*
%TD*%
D30*
%TO.P,R17,1,1*%
%TO.N,GND*%
X136490000Y-102440000D03*
%TO.P,R17,2,2*%
%TO.N,+3V3*%
X136490000Y-101040000D03*
%TD*%
D17*
%TO.P,,39,GND*%
%TO.N,GND*%
X124386800Y-65344200D03*
%TD*%
D36*
%TO.P,R9,1*%
%TO.N,RTS*%
X108648500Y-115309350D03*
%TO.P,R9,2*%
%TO.N,Net-(Q2-B)*%
X108648500Y-113309350D03*
%TD*%
D19*
%TO.P,C15,1*%
%TO.N,D34*%
X113411200Y-66966200D03*
%TO.P,C15,2*%
%TO.N,GND*%
X113411200Y-69041200D03*
%TD*%
D38*
%TO.P,U3,1,~{DCD}*%
%TO.N,unconnected-(U3-~{DCD}-Pad1)*%
X102172600Y-119068050D03*
%TO.P,U3,2,~{RI}/CLK*%
%TO.N,unconnected-(U3-~{RI}{slash}CLK-Pad2)*%
X102172600Y-119568050D03*
%TO.P,U3,3,GND*%
%TO.N,GND*%
X102172600Y-120068050D03*
%TO.P,U3,4,D+*%
%TO.N,D+*%
X102172600Y-120568050D03*
%TO.P,U3,5,D-*%
%TO.N,D-*%
X102172600Y-121068050D03*
%TO.P,U3,6,VDD*%
%TO.N,+3V3*%
X102172600Y-121568050D03*
%TO.P,U3,7,VREGIN*%
X102172600Y-122068050D03*
D39*
%TO.P,U3,8,VBUS*%
%TO.N,Net-(U3-VBUS)*%
X103122600Y-123018050D03*
%TO.P,U3,9,~{RST}*%
%TO.N,Net-(U3-~{RST})*%
X103622600Y-123018050D03*
%TO.P,U3,10,NC*%
%TO.N,unconnected-(U3-NC-Pad10)*%
X104122600Y-123018050D03*
%TO.P,U3,11,~{SUSPEND}*%
%TO.N,Net-(U3-~{SUSPEND})*%
X104622600Y-123018050D03*
%TO.P,U3,12,SUSPEND*%
%TO.N,unconnected-(U3-SUSPEND-Pad12)*%
X105122600Y-123018050D03*
%TO.P,U3,13,CHREN*%
%TO.N,unconnected-(U3-CHREN-Pad13)*%
X105622600Y-123018050D03*
%TO.P,U3,14,CHR1*%
%TO.N,unconnected-(U3-CHR1-Pad14)*%
X106122600Y-123018050D03*
D38*
%TO.P,U3,15,CHR0*%
%TO.N,unconnected-(U3-CHR0-Pad15)*%
X107072600Y-122068050D03*
%TO.P,U3,16,~{WAKEUP}/GPIO.3*%
%TO.N,unconnected-(U3-~{WAKEUP}{slash}GPIO.3-Pad16)*%
X107072600Y-121568050D03*
%TO.P,U3,17,RS485/GPIO.2*%
%TO.N,unconnected-(U3-RS485{slash}GPIO.2-Pad17)*%
X107072600Y-121068050D03*
%TO.P,U3,18,~{RXT}/GPIO.1*%
%TO.N,unconnected-(U3-~{RXT}{slash}GPIO.1-Pad18)*%
X107072600Y-120568050D03*
%TO.P,U3,19,~{TXT}/GPIO.0*%
%TO.N,unconnected-(U3-~{TXT}{slash}GPIO.0-Pad19)*%
X107072600Y-120068050D03*
%TO.P,U3,20,GPIO.6*%
%TO.N,unconnected-(U3-GPIO.6-Pad20)*%
X107072600Y-119568050D03*
%TO.P,U3,21,GPIO.5*%
%TO.N,unconnected-(U3-GPIO.5-Pad21)*%
X107072600Y-119068050D03*
D39*
%TO.P,U3,22,GPIO.4*%
%TO.N,unconnected-(U3-GPIO.4-Pad22)*%
X106122600Y-118118050D03*
%TO.P,U3,23,~{CTS}*%
%TO.N,unconnected-(U3-~{CTS}-Pad23)*%
X105622600Y-118118050D03*
%TO.P,U3,24,~{RTS}*%
%TO.N,RTS*%
X105122600Y-118118050D03*
%TO.P,U3,25,RXD*%
%TO.N,TXD0*%
X104622600Y-118118050D03*
%TO.P,U3,26,TXD*%
%TO.N,RXD0*%
X104122600Y-118118050D03*
%TO.P,U3,27,~{DSR}*%
%TO.N,unconnected-(U3-~{DSR}-Pad27)*%
X103622600Y-118118050D03*
%TO.P,U3,28,~{DTR}*%
%TO.N,DTR*%
X103122600Y-118118050D03*
D40*
%TO.P,U3,29,GND*%
%TO.N,GND*%
X104622600Y-120568050D03*
%TD*%
D41*
%TO.P,C3,1,1*%
%TO.N,GND*%
X90906600Y-83748800D03*
%TO.P,C3,2,2*%
%TO.N,ENA*%
X88906600Y-83748800D03*
%TD*%
D42*
%TO.P,Q4,1,G*%
%TO.N,Net-(Q3-D)*%
X101416000Y-81549200D03*
%TO.P,Q4,2,S*%
%TO.N,/Battery_Voltage_Monitor_with_MOSFETS/V_Batt_Monitor_INPUT*%
X101416000Y-83449200D03*
%TO.P,Q4,3,D*%
%TO.N,Net-(Q4-D)*%
X103886000Y-82499200D03*
%TD*%
D17*
%TO.P,,39,GND*%
%TO.N,GND*%
X128066800Y-70866000D03*
%TD*%
D27*
%TO.P,H7,1,1*%
%TO.N,EXT_5V*%
X114300000Y-137312400D03*
D28*
%TO.P,H7,2,2*%
%TO.N,GND*%
X114300000Y-134772400D03*
%TD*%
D11*
%TO.P,Q2,1,E*%
%TO.N,DTR*%
X103924100Y-113257750D03*
%TO.P,Q2,2,B*%
%TO.N,Net-(Q2-B)*%
X103924100Y-115157750D03*
%TO.P,Q2,3,C*%
%TO.N,IO0*%
X101425100Y-114207750D03*
%TD*%
D19*
%TO.P,C5,1*%
%TO.N,VBUS*%
X91178200Y-129122500D03*
%TO.P,C5,2*%
%TO.N,GND*%
X91178200Y-131197500D03*
%TD*%
D43*
%TO.P,U1,1,I/O1*%
%TO.N,DN*%
X96052600Y-121296050D03*
%TO.P,U1,2,GND*%
%TO.N,GND*%
X97002600Y-121296050D03*
%TO.P,U1,3,I/O2*%
%TO.N,DP*%
X97952600Y-121296050D03*
%TO.P,U1,4,I/O2*%
%TO.N,D+*%
X97952600Y-119021050D03*
%TO.P,U1,5,VBUS*%
%TO.N,VBUS*%
X97002600Y-119021050D03*
%TO.P,U1,6,I/O1*%
%TO.N,D-*%
X96052600Y-119021050D03*
%TD*%
D17*
%TO.P,,39,GND*%
%TO.N,GND*%
X126226800Y-69030000D03*
%TD*%
D16*
%TO.P,TP2,1,1*%
%TO.N,/Buck-Boost3.3V/Buck-Boost_INPUT*%
X119227600Y-89357200D03*
%TD*%
D44*
%TO.P,L_B-B1,1,1*%
%TO.N,Net-(U5-L1)*%
X127348000Y-96234000D03*
%TO.P,L_B-B1,2,2*%
%TO.N,Net-(U5-L2)*%
X130904000Y-96234000D03*
%TD*%
D37*
%TO.P,C2,1*%
%TO.N,ENA*%
X88853100Y-80573800D03*
%TO.P,C2,2*%
%TO.N,GND*%
X90928100Y-80573800D03*
%TD*%
D45*
%TO.P,LED1,1,B*%
%TO.N,Net-(LED1-B)*%
X111821000Y-84866000D03*
%TO.P,LED1,2,+*%
%TO.N,+3V3*%
X111821000Y-86106000D03*
%TO.P,LED1,3,G*%
%TO.N,Net-(LED1-G)*%
X110871000Y-84866000D03*
%TO.P,LED1,4,R*%
%TO.N,Net-(LED1-R)*%
X110871000Y-86106000D03*
%TD*%
D17*
%TO.P,,39,GND*%
%TO.N,GND*%
X122546800Y-65344200D03*
%TD*%
D46*
%TO.P,SW1,1,1*%
%TO.N,IO0*%
X141440000Y-73969800D03*
%TO.P,SW1,2,2*%
%TO.N,GND*%
X143040000Y-73969800D03*
%TO.P,SW1,3,3*%
%TO.N,IO0*%
X141440000Y-78069800D03*
%TO.P,SW1,4,4*%
%TO.N,GND*%
X143040000Y-78069800D03*
%TD*%
D31*
%TO.P,D1,1,C*%
%TO.N,EXT_5V*%
X88646000Y-132256000D03*
%TO.P,D1,2,A*%
%TO.N,VBUS*%
X88646000Y-128856000D03*
%TD*%
D26*
%TO.P,R13,1*%
%TO.N,Net-(Q3-D)*%
X94525600Y-82974800D03*
%TO.P,R13,2*%
%TO.N,/Battery_Voltage_Monitor_with_MOSFETS/V_Batt_Monitor_INPUT*%
X94525600Y-84974800D03*
%TD*%
D46*
%TO.P,SW2,1,1*%
%TO.N,ENA*%
X89179600Y-73969800D03*
%TO.P,SW2,2,2*%
%TO.N,GND*%
X90779600Y-73969800D03*
%TO.P,SW2,3,3*%
%TO.N,ENA*%
X89179600Y-78069800D03*
%TO.P,SW2,4,4*%
%TO.N,GND*%
X90779600Y-78069800D03*
%TD*%
D47*
%TO.P,R11,1,1*%
%TO.N,D27*%
X113400000Y-80895000D03*
%TO.P,R11,2,2*%
%TO.N,Net-(LED1-B)*%
X113400000Y-81915000D03*
%TD*%
D17*
%TO.P,,39,GND*%
%TO.N,GND*%
X122540000Y-67190000D03*
%TD*%
D11*
%TO.P,Q5,1,G*%
%TO.N,EXT_5V*%
X105882925Y-95097600D03*
%TO.P,Q5,2,S*%
%TO.N,/Buck-Boost3.3V/Buck-Boost_INPUT*%
X105882925Y-93197600D03*
%TO.P,Q5,3,D*%
%TO.N,VBAT*%
X103882925Y-94147600D03*
%TD*%
D30*
%TO.P,C14,1,1*%
%TO.N,GND*%
X132070000Y-102440000D03*
%TO.P,C14,2,2*%
%TO.N,+3V3*%
X132070000Y-101040000D03*
%TD*%
D48*
%TO.P,H1,1,1*%
%TO.N,D12*%
X129540000Y-127203200D03*
D49*
%TO.P,H1,2,2*%
%TO.N,D15*%
X129540000Y-124663200D03*
%TO.P,H1,3,3*%
%TO.N,D2*%
X129540000Y-122123200D03*
%TD*%
D17*
%TO.P,,39,GND*%
%TO.N,GND*%
X126226800Y-67200000D03*
%TD*%
D36*
%TO.P,R8,1*%
%TO.N,DTR*%
X106159300Y-115293350D03*
%TO.P,R8,2*%
%TO.N,Net-(Q1-B)*%
X106159300Y-113293350D03*
%TD*%
D50*
%TO.P,U6,1,GND*%
%TO.N,GND*%
X117306000Y-60608400D03*
%TO.P,U6,2,3V3*%
%TO.N,+3V3*%
X117306000Y-61878400D03*
%TO.P,U6,3,EN*%
%TO.N,ENA*%
X117306000Y-63148400D03*
%TO.P,U6,4,SENSOR_VP*%
%TO.N,unconnected-(U6-SENSOR_VP-Pad4)*%
X117306000Y-64418400D03*
%TO.P,U6,5,SENSOR_VN*%
%TO.N,unconnected-(U6-SENSOR_VN-Pad5)*%
X117306000Y-65688400D03*
%TO.P,U6,6,IO34*%
%TO.N,D34*%
X117306000Y-66958400D03*
%TO.P,U6,7,IO35*%
%TO.N,D35*%
X117306000Y-68228400D03*
%TO.P,U6,8,IO32*%
%TO.N,D32*%
X117306000Y-69498400D03*
%TO.P,U6,9,IO33*%
%TO.N,D33*%
X117306000Y-70768400D03*
%TO.P,U6,10,IO25*%
%TO.N,D25*%
X117306000Y-72038400D03*
%TO.P,U6,11,IO26*%
%TO.N,D26*%
X117306000Y-73308400D03*
%TO.P,U6,12,IO27*%
%TO.N,D27*%
X117306000Y-74578400D03*
%TO.P,U6,13,IO14*%
%TO.N,D14*%
X117306000Y-75848400D03*
%TO.P,U6,14,IO12*%
%TO.N,D12*%
X117306000Y-77118400D03*
%TO.P,U6,15,GND*%
%TO.N,GND*%
X117306000Y-78388400D03*
%TO.P,U6,16,IO13*%
%TO.N,D13*%
X117306000Y-79658400D03*
%TO.P,U6,17,NC*%
%TO.N,unconnected-(U6-NC-Pad17)*%
X117306000Y-80928400D03*
%TO.P,U6,18,NC*%
%TO.N,unconnected-(U6-NC-Pad18)*%
X117306000Y-82198400D03*
%TO.P,U6,19,NC*%
%TO.N,unconnected-(U6-NC-Pad19)*%
X117306000Y-83468400D03*
%TO.P,U6,20,NC*%
%TO.N,unconnected-(U6-NC-Pad20)*%
X135306000Y-83468400D03*
%TO.P,U6,21,NC*%
%TO.N,unconnected-(U6-NC-Pad21)*%
X135306000Y-82198400D03*
%TO.P,U6,22,NC*%
%TO.N,unconnected-(U6-NC-Pad22)*%
X135306000Y-80928400D03*
%TO.P,U6,23,IO15*%
%TO.N,D15*%
X135306000Y-79658400D03*
%TO.P,U6,24,IO2*%
%TO.N,D2*%
X135306000Y-78388400D03*
%TO.P,U6,25,IO0*%
%TO.N,IO0*%
X135306000Y-77118400D03*
%TO.P,U6,26,IO4*%
%TO.N,D4*%
X135306000Y-75848400D03*
%TO.P,U6,27,NC*%
%TO.N,unconnected-(U6-NC-Pad27)*%
X135306000Y-74578400D03*
%TO.P,U6,28,NC*%
%TO.N,unconnected-(U6-NC-Pad28)*%
X135306000Y-73308400D03*
%TO.P,U6,29,IO5*%
%TO.N,D5*%
X135306000Y-72038400D03*
%TO.P,U6,30,IO18*%
%TO.N,D18*%
X135306000Y-70768400D03*
%TO.P,U6,31,IO19*%
%TO.N,D19*%
X135306000Y-69498400D03*
%TO.P,U6,32,NC*%
%TO.N,unconnected-(U6-NC-Pad32)*%
X135306000Y-68228400D03*
%TO.P,U6,33,IO21*%
%TO.N,D21*%
X135306000Y-66958400D03*
%TO.P,U6,34,RXD0*%
%TO.N,RXD0*%
X135306000Y-65688400D03*
%TO.P,U6,35,TXD0*%
%TO.N,TXD0*%
X135306000Y-64418400D03*
%TO.P,U6,36,IO22*%
%TO.N,D22*%
X135306000Y-63148400D03*
%TO.P,U6,37,IO23*%
%TO.N,D23*%
X135306000Y-61878400D03*
%TO.P,U6,38,GND*%
%TO.N,GND*%
X135306000Y-60608400D03*
D51*
%TO.P,U6,39,GND*%
X123471000Y-66273400D03*
X123471000Y-68108400D03*
X123471000Y-69943400D03*
X125306000Y-66273400D03*
X125306000Y-68108400D03*
X125306000Y-69943400D03*
X127141000Y-66273400D03*
X127141000Y-68108400D03*
X127141000Y-69943400D03*
%TD*%
D17*
%TO.P,,39,GND*%
%TO.N,GND*%
X122546800Y-70856000D03*
%TD*%
D37*
%TO.P,C7,1*%
%TO.N,+3V3*%
X135898000Y-92231400D03*
%TO.P,C7,2*%
%TO.N,GND*%
X137973000Y-92231400D03*
%TD*%
%TO.P,C8,1*%
%TO.N,+3V3*%
X135898000Y-95127000D03*
%TO.P,C8,2*%
%TO.N,GND*%
X137973000Y-95127000D03*
%TD*%
D27*
%TO.P,H4,1,1*%
%TO.N,+3V3*%
X114300000Y-122072400D03*
D28*
%TO.P,H4,2,2*%
%TO.N,D14*%
X114300000Y-124612400D03*
%TO.P,H4,3,3*%
%TO.N,+3V3*%
X114300000Y-127152400D03*
%TO.P,H4,4,4*%
%TO.N,GND*%
X114300000Y-129692400D03*
%TD*%
D36*
%TO.P,R3,1*%
%TO.N,VBUS*%
X96461400Y-131129100D03*
%TO.P,R3,2*%
%TO.N,Net-(U3-VBUS)*%
X96461400Y-129129100D03*
%TD*%
D26*
%TO.P,R16,1*%
%TO.N,Net-(Q3-G)*%
X102646000Y-68314000D03*
%TO.P,R16,2*%
%TO.N,D25*%
X102646000Y-70314000D03*
%TD*%
D36*
%TO.P,R2,1*%
%TO.N,ENA*%
X105308600Y-63996000D03*
%TO.P,R2,2*%
%TO.N,+3V3*%
X105308600Y-61996000D03*
%TD*%
D16*
%TO.P,TP3,1,1*%
%TO.N,+3V3*%
X104970400Y-138926200D03*
%TD*%
%TO.P,TP5,1,1*%
%TO.N,EXT_5V*%
X104970400Y-144780000D03*
%TD*%
D52*
%TO.P,U4,*%
%TO.N,*%
X167735600Y-106680000D03*
X152501600Y-106680000D03*
D49*
%TO.P,U4,1,VCC*%
%TO.N,+3V3*%
X167741600Y-88162500D03*
%TO.P,U4,2,GND*%
%TO.N,GND*%
X165201600Y-88161500D03*
%TO.P,U4,3,SCL*%
%TO.N,D22*%
X162661600Y-88160500D03*
%TO.P,U4,4,SDA*%
%TO.N,D21*%
X160121600Y-88159500D03*
%TO.P,U4,5,INT*%
%TO.N,unconnected-(U4-INT-Pad5)*%
X157581600Y-88158500D03*
%TO.P,U4,6,RST*%
%TO.N,unconnected-(U4-RST-Pad6)*%
X155041600Y-88157500D03*
%TO.P,U4,7,32K*%
%TO.N,unconnected-(U4-32K-Pad7)*%
X152501600Y-88156500D03*
%TD*%
D23*
%TO.P,C6,1,1*%
%TO.N,GND*%
X96130600Y-75264800D03*
%TO.P,C6,2,2*%
%TO.N,ENA*%
X96130600Y-74174800D03*
%TD*%
D16*
%TO.P,TP4,1,1*%
%TO.N,D34*%
X108480000Y-73530000D03*
%TD*%
D26*
%TO.P,R6,1*%
%TO.N,Net-(U3-~{RST})*%
X101744600Y-129147900D03*
%TO.P,R6,2*%
%TO.N,Net-(R5-Pad1)*%
X101744600Y-131147900D03*
%TD*%
D36*
%TO.P,R7,1*%
%TO.N,GND*%
X107078600Y-131147900D03*
%TO.P,R7,2*%
%TO.N,Net-(U3-~{SUSPEND})*%
X107078600Y-129147900D03*
%TD*%
D41*
%TO.P,C4,1,1*%
%TO.N,GND*%
X137898000Y-89183400D03*
%TO.P,C4,2,2*%
%TO.N,+3V3*%
X135898000Y-89183400D03*
%TD*%
D36*
%TO.P,R15,1*%
%TO.N,GND*%
X110286000Y-68904000D03*
%TO.P,R15,2*%
%TO.N,D34*%
X110286000Y-66904000D03*
%TD*%
D53*
%TO.P,U5,1,VOUT*%
%TO.N,+3V3*%
X130124200Y-101107550D03*
%TO.P,U5,2,L2*%
%TO.N,Net-(U5-L2)*%
X129624200Y-101107550D03*
%TO.P,U5,3,PGND*%
%TO.N,GND*%
X129124200Y-101107550D03*
%TO.P,U5,4,L1*%
%TO.N,Net-(U5-L1)*%
X128624200Y-101107550D03*
%TO.P,U5,5,VIN*%
%TO.N,/Buck-Boost3.3V/Buck-Boost_INPUT*%
X128124200Y-101107550D03*
D54*
%TO.P,U5,6,EN*%
X128124200Y-104107550D03*
%TO.P,U5,7,PS/SYNC*%
X128624200Y-104107550D03*
%TO.P,U5,8,VINA*%
X129124200Y-104107550D03*
%TO.P,U5,9,GND*%
%TO.N,GND*%
X129624200Y-104107550D03*
%TO.P,U5,10,FB*%
%TO.N,+3V3*%
X130124200Y-104107550D03*
D55*
%TO.P,U5,11,PAD*%
%TO.N,GND*%
X129119200Y-102607550D03*
%TD*%
D17*
%TO.P,,39,GND*%
%TO.N,GND*%
X124380000Y-67190000D03*
%TD*%
D56*
%TO.P,U7,0,0*%
%TO.N,GND*%
X92755100Y-116227050D03*
D57*
X88555100Y-116227050D03*
D56*
X92755100Y-124877050D03*
D57*
X88555100Y-124877050D03*
D58*
%TO.P,U7,A1,GND*%
X93405100Y-117343050D03*
%TO.P,U7,A4,VBUS*%
%TO.N,VBUS*%
X93405100Y-118143050D03*
D59*
%TO.P,U7,A5,CC1*%
%TO.N,unconnected-(U7-CC1-PadA5)*%
X93405100Y-119293050D03*
%TO.P,U7,A6,DP1*%
%TO.N,DP*%
X93405100Y-120293050D03*
%TO.P,U7,A7,DN1*%
%TO.N,DN*%
X93405100Y-120793050D03*
%TO.P,U7,A8,SBU1*%
%TO.N,unconnected-(U7-SBU1-PadA8)*%
X93406100Y-121792550D03*
D58*
%TO.P,U7,A9,VBUS*%
%TO.N,VBUS*%
X93405100Y-122943050D03*
%TO.P,U7,A12,GND*%
%TO.N,GND*%
X93405100Y-123743050D03*
D59*
%TO.P,U7,B5,CC2*%
%TO.N,unconnected-(U7-CC2-PadB5)*%
X93405100Y-122293050D03*
%TO.P,U7,B6,DP2*%
%TO.N,DP*%
X93405100Y-121293050D03*
%TO.P,U7,B7,DN2*%
%TO.N,DN*%
X93405100Y-119793050D03*
%TO.P,U7,B8,SBU2*%
%TO.N,unconnected-(U7-SBU2-PadB8)*%
X93406100Y-118793050D03*
%TD*%
D23*
%TO.P,R21,1,1*%
%TO.N,Net-(CARD1-DAT2)*%
X132283200Y-136319600D03*
%TO.P,R21,2,2*%
%TO.N,/micro_SD-CARD_enable/3V3_Input_to_micro_SD-CARD*%
X132283200Y-135229600D03*
%TD*%
D21*
%TO.P,H5,1,1*%
%TO.N,D5*%
X137160000Y-142468600D03*
D22*
%TO.P,H5,2,2*%
%TO.N,D18*%
X137160000Y-145008600D03*
%TO.P,H5,3,3*%
%TO.N,D19*%
X137160000Y-147548600D03*
%TO.P,H5,4,4*%
%TO.N,+3V3*%
X137160000Y-150088600D03*
%TO.P,H5,5,5*%
%TO.N,GND*%
X137160000Y-152628600D03*
%TO.P,H5,6,6*%
%TO.N,D23*%
X137160000Y-155168600D03*
%TD*%
D48*
%TO.P,H2,1,1*%
%TO.N,GND*%
X121920000Y-127203200D03*
D49*
%TO.P,H2,2,2*%
%TO.N,+3V3*%
X121920000Y-124663200D03*
%TO.P,H2,3,3*%
%TO.N,D13*%
X121920000Y-122123200D03*
%TD*%
D17*
%TO.P,,39,GND*%
%TO.N,GND*%
X128060000Y-69030000D03*
%TD*%
D23*
%TO.P,R18,1,1*%
%TO.N,D15*%
X127660400Y-138453200D03*
%TO.P,R18,2,2*%
%TO.N,/micro_SD-CARD_enable/3V3_Input_to_micro_SD-CARD*%
X127660400Y-137363200D03*
%TD*%
D17*
%TO.P,,39,GND*%
%TO.N,GND*%
X124386800Y-70856000D03*
%TD*%
D31*
%TO.P,D3,1,C*%
%TO.N,/Buck-Boost3.3V/Buck-Boost_INPUT*%
X108458000Y-91723000D03*
%TO.P,D3,2,A*%
%TO.N,EXT_5V*%
X108458000Y-95123000D03*
%TD*%
D15*
%TO.P,R1,1*%
%TO.N,GND*%
X94387200Y-136790500D03*
%TO.P,R1,2*%
%TO.N,EXT_5V*%
X92387200Y-136790500D03*
%TD*%
D47*
%TO.P,R12,1,1*%
%TO.N,D26*%
X111760000Y-80895000D03*
%TO.P,R12,2,2*%
%TO.N,Net-(LED1-G)*%
X111760000Y-81915000D03*
%TD*%
D19*
%TO.P,C12,1*%
%TO.N,/Buck-Boost3.3V/Buck-Boost_INPUT*%
X122946000Y-100686500D03*
%TO.P,C12,2*%
%TO.N,GND*%
X122946000Y-102761500D03*
%TD*%
D60*
%TO.N,+3V3*%
X121721100Y-111099600D03*
%TO.N,GND*%
X136855200Y-110693200D03*
X121666000Y-115062000D03*
%TO.N,D4*%
X139827000Y-114655600D03*
%TO.N,GND*%
X99103000Y-132677800D03*
X120954800Y-103301800D03*
X165201600Y-84582000D03*
X132181600Y-145101900D03*
X125526800Y-133773500D03*
X141122400Y-80467200D03*
X119913400Y-144212900D03*
X140817600Y-95127000D03*
X129622000Y-106405000D03*
X97010000Y-123510000D03*
X104919600Y-149860000D03*
X100685600Y-119546750D03*
X136804400Y-104546400D03*
X122758200Y-105079800D03*
X93815900Y-131197500D03*
X119024400Y-152467900D03*
X94469800Y-77649200D03*
X131724400Y-152518700D03*
X134391400Y-104978200D03*
%TO.N,IO0*%
X101425100Y-114207750D03*
X132600700Y-76263500D03*
X137007600Y-77114400D03*
%TO.N,ENA*%
X88900000Y-86593600D03*
X87782400Y-102209600D03*
%TO.N,+3V3*%
X120629027Y-61878400D03*
X114096800Y-86614000D03*
X167741600Y-84582000D03*
X104437000Y-129147900D03*
X104970400Y-138926200D03*
X131092000Y-105109200D03*
X131369000Y-87253000D03*
X136332000Y-98655000D03*
X93819800Y-129126400D03*
%TO.N,D15*%
X133630000Y-79660000D03*
%TO.N,D2*%
X119874600Y-134134500D03*
X132560000Y-78388400D03*
%TO.N,D14*%
X115350000Y-76657200D03*
X116510000Y-116452400D03*
%TO.N,/Battery_Voltage_Monitor_with_MOSFETS/V_Batt_Monitor_INPUT*%
X89916000Y-99872800D03*
%TO.N,EXT_5V*%
X97350000Y-139930000D03*
X105882925Y-97434400D03*
X88701700Y-134316800D03*
X104970400Y-143000000D03*
%TO.N,D12*%
X124990000Y-77090000D03*
X127355600Y-122072400D03*
%TO.N,D13*%
X128390000Y-79640000D03*
%TO.N,D4*%
X138120000Y-75860000D03*
%TO.N,D26*%
X111760000Y-79502000D03*
X113870000Y-73300000D03*
%TO.N,D27*%
X113400000Y-79465600D03*
X115320000Y-74540000D03*
%TO.N,D22*%
X136960000Y-63140000D03*
X146456400Y-68986400D03*
%TO.N,D23*%
X136998400Y-61878400D03*
%TO.N,D21*%
X146367500Y-72072500D03*
X136990000Y-66960000D03*
%TO.N,D5*%
X138214100Y-73266300D03*
%TO.N,D19*%
X138938000Y-69510000D03*
%TO.N,D18*%
X137287000Y-70768400D03*
%TO.N,D33*%
X110185200Y-79502000D03*
X111928700Y-73041300D03*
%TO.N,D35*%
X119964200Y-68122800D03*
%TO.N,D32*%
X118890000Y-69500000D03*
%TO.N,DN*%
X94716600Y-121942050D03*
X94716600Y-119275050D03*
%TO.N,/micro_SD-CARD_enable/3V3_Input_to_micro_SD-CARD*%
X130204600Y-133484500D03*
X118259600Y-135649500D03*
X124155200Y-127431800D03*
X127660400Y-136053400D03*
X123240800Y-133011500D03*
X121056400Y-135399100D03*
%TO.N,D25*%
X102692400Y-72038400D03*
X115240000Y-72038400D03*
%TO.N,D-*%
X99415600Y-121053050D03*
X96046549Y-117665250D03*
%TO.N,TXD0*%
X131343600Y-62869000D03*
X104634733Y-116865150D03*
X99949000Y-102946200D03*
X96799400Y-102946200D03*
%TO.N,RXD0*%
X103606600Y-116865150D03*
X132378400Y-65695000D03*
%TO.N,/Buck-Boost3.3V/Buck-Boost_INPUT*%
X121488400Y-100638800D03*
X128550575Y-105064560D03*
%TD*%
D61*
%TO.N,/micro_SD-CARD_enable/3V3_Input_to_micro_SD-CARD*%
X125749500Y-116160400D02*
X125749500Y-118496900D01*
X125749500Y-118496900D02*
X125704600Y-118541800D01*
D62*
%TO.N,D4*%
X139801600Y-114630200D02*
X137376900Y-114630200D01*
X139827000Y-114655600D02*
X139801600Y-114630200D01*
%TO.N,Net-(Q7-G)*%
X133125700Y-114625200D02*
X135371900Y-114625200D01*
D61*
%TO.N,Net-(Q6-G)*%
X126708900Y-111125000D02*
X126708900Y-113681000D01*
D62*
%TO.N,Net-(Q7-G)*%
X135371900Y-114625200D02*
X135376900Y-114630200D01*
D61*
%TO.N,Net-(Q6-G)*%
X131110500Y-113690400D02*
X131125700Y-113675200D01*
X126699500Y-113690400D02*
X131110500Y-113690400D01*
X126708900Y-113681000D02*
X126699500Y-113690400D01*
%TO.N,GND*%
X123672600Y-118541800D02*
X124197600Y-118541800D01*
X135005300Y-112725200D02*
X133125700Y-112725200D01*
X136855200Y-110875300D02*
X135005300Y-112725200D01*
X121666000Y-116535200D02*
X123672600Y-118541800D01*
X121666000Y-115062000D02*
X121666000Y-116535200D01*
X136855200Y-110693200D02*
X136855200Y-110875300D01*
%TO.N,+3V3*%
X121721100Y-111099600D02*
X124683500Y-111099600D01*
X124683500Y-111099600D02*
X124708900Y-111125000D01*
X124708900Y-113599800D02*
X124799500Y-113690400D01*
X124708900Y-111125000D02*
X124708900Y-113599800D01*
D62*
%TO.N,GND*%
X90779600Y-80425300D02*
X90928100Y-80573800D01*
D61*
X165213900Y-88149200D02*
X165213900Y-84594300D01*
X118896500Y-152340000D02*
X119024400Y-152467900D01*
X132150000Y-142510000D02*
X132170000Y-142530000D01*
X117558800Y-143216200D02*
X117573600Y-143231000D01*
D62*
X94469800Y-77649200D02*
X94206200Y-77649200D01*
X129622000Y-105765000D02*
X129622200Y-105764800D01*
D61*
X132170000Y-142530000D02*
X132170000Y-142740000D01*
D62*
X110286000Y-68964000D02*
X110286000Y-68904000D01*
X90834600Y-74024800D02*
X92450600Y-74024800D01*
D61*
X96130600Y-75264800D02*
X96130600Y-77749800D01*
X143427500Y-73582300D02*
X143040000Y-73969800D01*
X125755600Y-60608400D02*
X135306000Y-60608400D01*
X125306000Y-61751400D02*
X125306000Y-60651600D01*
D62*
X90790600Y-78124800D02*
X90790600Y-73980800D01*
D61*
X143427500Y-65652700D02*
X143427500Y-69059800D01*
D62*
X92755100Y-124393050D02*
X93405100Y-123743050D01*
D61*
X132909200Y-152500800D02*
X131742300Y-152500800D01*
D62*
X90928100Y-80573800D02*
X90928100Y-83727300D01*
D61*
X122070000Y-141740000D02*
X122073600Y-141743600D01*
D62*
X93405100Y-117343050D02*
X93405100Y-116877050D01*
X97002600Y-123502600D02*
X97010000Y-123510000D01*
X125526800Y-136202600D02*
X125526800Y-133773500D01*
D61*
X125306000Y-61047800D02*
X124866600Y-60608400D01*
D62*
X104122600Y-120068050D02*
X104622600Y-120568050D01*
D61*
X143040000Y-78069800D02*
X143040000Y-78549600D01*
X117573600Y-152500800D02*
X117734400Y-152340000D01*
X132173600Y-145093900D02*
X132181600Y-145101900D01*
X119913400Y-143400100D02*
X119913400Y-144212900D01*
X135306000Y-60608400D02*
X138383200Y-60608400D01*
X133070000Y-152340000D02*
X132909200Y-152500800D01*
X122073600Y-141743600D02*
X122073600Y-142865500D01*
X115518400Y-78388400D02*
X117306000Y-78388400D01*
D62*
X92755100Y-124877050D02*
X92755100Y-124393050D01*
D61*
X113274000Y-68904000D02*
X113411200Y-69041200D01*
X125306000Y-61751400D02*
X125306000Y-61047800D01*
X133070000Y-152524000D02*
X133070000Y-152340000D01*
X143427500Y-69059800D02*
X143427500Y-73582300D01*
D62*
X129622200Y-103125000D02*
X129117200Y-102620000D01*
D61*
X125306000Y-61058000D02*
X125755600Y-60608400D01*
X128056800Y-65344200D02*
X128066800Y-65354200D01*
D62*
X128600400Y-102565000D02*
X128600400Y-102594600D01*
X93690600Y-75264800D02*
X96130600Y-75264800D01*
D61*
X117570000Y-142740000D02*
X117558800Y-142751200D01*
X125306000Y-61751400D02*
X125306000Y-61058000D01*
X125349200Y-60608400D02*
X125755600Y-60608400D01*
X137973000Y-89258400D02*
X137973000Y-92231400D01*
X125450800Y-78365200D02*
X127141000Y-76675000D01*
D62*
X90779600Y-73969800D02*
X90834600Y-74024800D01*
D61*
X117306000Y-60608400D02*
X124866600Y-60608400D01*
X93819800Y-131201400D02*
X93815900Y-131197500D01*
D62*
X93785600Y-78069800D02*
X90779600Y-78069800D01*
D61*
X99103000Y-132677800D02*
X99103000Y-131147900D01*
X117573600Y-152831000D02*
X117573600Y-152947500D01*
X133058800Y-152535200D02*
X133070000Y-152524000D01*
D63*
X129117200Y-102620000D02*
X129123300Y-102613900D01*
D61*
X94476233Y-77642767D02*
X94469800Y-77649200D01*
X137973000Y-95127000D02*
X137973000Y-92231400D01*
X127141000Y-76675000D02*
X127141000Y-69943400D01*
X132170000Y-142740000D02*
X132173600Y-142743600D01*
X91178200Y-131197500D02*
X93815900Y-131197500D01*
X96130600Y-77749800D02*
X96085600Y-77794800D01*
X125450800Y-78388400D02*
X125450800Y-78365200D01*
X110286000Y-68904000D02*
X110312400Y-68930400D01*
D62*
X129622200Y-105764800D02*
X129622200Y-104082000D01*
D61*
X143040000Y-78549600D02*
X141122400Y-80467200D01*
X117570000Y-142897200D02*
X117570000Y-142740000D01*
X121539000Y-143400100D02*
X119913400Y-143400100D01*
X131742300Y-152500800D02*
X131724400Y-152518700D01*
X165213900Y-84594300D02*
X165201600Y-84582000D01*
D62*
X90914200Y-78248400D02*
X90790600Y-78124800D01*
D63*
X129718000Y-102620000D02*
X129616000Y-102722000D01*
D62*
X90790600Y-73980800D02*
X90779600Y-73969800D01*
X110363200Y-69041200D02*
X110286000Y-68964000D01*
X93405100Y-116877050D02*
X92755100Y-116227050D01*
D61*
X94387200Y-136790500D02*
X94990300Y-136790500D01*
X118072900Y-143400100D02*
X117570000Y-142897200D01*
D62*
X90928100Y-83727300D02*
X90906600Y-83748800D01*
X92450600Y-74024800D02*
X93690600Y-75264800D01*
D61*
X99103000Y-132677800D02*
X105548700Y-132677800D01*
X105548700Y-132677800D02*
X107078600Y-131147900D01*
X94990300Y-136790500D02*
X99103000Y-132677800D01*
X138383200Y-60608400D02*
X143427500Y-65652700D01*
D62*
X97002600Y-121296050D02*
X97002600Y-123502600D01*
X129622200Y-104082000D02*
X129624200Y-104080000D01*
X101206900Y-120068050D02*
X102172600Y-120068050D01*
D61*
X117734400Y-152340000D02*
X118896500Y-152340000D01*
X122073600Y-142865500D02*
X121539000Y-143400100D01*
D62*
X129622000Y-106405000D02*
X129622000Y-105765000D01*
X100685600Y-119546750D02*
X101206900Y-120068050D01*
D61*
X125349200Y-60608400D02*
X125306000Y-60651600D01*
X132158800Y-142935200D02*
X132150000Y-142926400D01*
D62*
X90779600Y-78069800D02*
X90779600Y-80425300D01*
D61*
X125306000Y-61751400D02*
X125306000Y-66273400D01*
X132150000Y-142926400D02*
X132150000Y-142510000D01*
D62*
X102172600Y-120068050D02*
X104122600Y-120068050D01*
X129117200Y-102077800D02*
X129087600Y-102077800D01*
D61*
X110286000Y-68904000D02*
X111760000Y-68904000D01*
X117306000Y-78388400D02*
X125450800Y-78388400D01*
X111760000Y-68904000D02*
X113274000Y-68904000D01*
X137973000Y-95127000D02*
X140817600Y-95127000D01*
X165201600Y-88161500D02*
X165213900Y-88149200D01*
D62*
X129122200Y-101120000D02*
X129122200Y-102615000D01*
D61*
X96085600Y-77794800D02*
X95933567Y-77642767D01*
X119913400Y-143400100D02*
X118072900Y-143400100D01*
D62*
X114300000Y-129675500D02*
X114300000Y-129692400D01*
X129122200Y-102615000D02*
X129117200Y-102620000D01*
D61*
X143040000Y-73969800D02*
X143040000Y-78069800D01*
X132173600Y-142743600D02*
X132173600Y-145093900D01*
D63*
X129616400Y-103119200D02*
X129628400Y-103131200D01*
D61*
X110286000Y-73156000D02*
X115518400Y-78388400D01*
X110286000Y-68904000D02*
X110286000Y-73156000D01*
X124866600Y-60608400D02*
X125349200Y-60608400D01*
D62*
X94206200Y-77649200D02*
X93785600Y-78069800D01*
D61*
X95933567Y-77642767D02*
X94476233Y-77642767D01*
X117558800Y-142751200D02*
X117558800Y-143216200D01*
D62*
%TO.N,IO0*%
X137058400Y-77114400D02*
X138013800Y-78069800D01*
X132600700Y-76263500D02*
X133455600Y-77118400D01*
X133455600Y-77118400D02*
X135306000Y-77118400D01*
X141440000Y-69147300D02*
X141352500Y-69059800D01*
X141440000Y-73969800D02*
X141440000Y-69147300D01*
X137003600Y-77118400D02*
X137007600Y-77114400D01*
X141440000Y-78069800D02*
X141440000Y-73969800D01*
X135306000Y-77118400D02*
X137003600Y-77118400D01*
X138013800Y-78069800D02*
X141440000Y-78069800D01*
X137007600Y-77114400D02*
X137058400Y-77114400D01*
%TO.N,ENA*%
X105431200Y-63961200D02*
X105435600Y-63965600D01*
X96130600Y-74174800D02*
X96130600Y-72854800D01*
X89179600Y-74013800D02*
X89179600Y-73202600D01*
X88900000Y-86593600D02*
X88906600Y-86587000D01*
X88914200Y-83772400D02*
X88906600Y-83764800D01*
X96130600Y-72090000D02*
X96130600Y-72854800D01*
X89103200Y-104724200D02*
X100807350Y-104724200D01*
X105396400Y-63996000D02*
X105431200Y-63961200D01*
X89190600Y-74024800D02*
X89179600Y-74013800D01*
X108788400Y-63199200D02*
X117255200Y-63199200D01*
X95660000Y-71440000D02*
X96030000Y-71440000D01*
X100807350Y-104724200D02*
X102331200Y-106248050D01*
X96030000Y-71440000D02*
X96130600Y-71339400D01*
X102331200Y-106248050D02*
X102331200Y-106998050D01*
X87782400Y-102209600D02*
X87782400Y-103403400D01*
X95660000Y-71440000D02*
X95850600Y-71440000D01*
X88853100Y-78462300D02*
X89190600Y-78124800D01*
X88906600Y-86587000D02*
X88906600Y-83748800D01*
X108026400Y-63961200D02*
X108788400Y-63199200D01*
X105308600Y-63996000D02*
X105343400Y-63961200D01*
X88906600Y-83764800D02*
X88906600Y-80500300D01*
X88853100Y-80446800D02*
X88853100Y-80636700D01*
X96130600Y-71339400D02*
X96130600Y-71720000D01*
X88915400Y-80289800D02*
X88914000Y-80288400D01*
X87782400Y-103403400D02*
X89103200Y-104724200D01*
X89179600Y-73202600D02*
X90942200Y-71440000D01*
X88914000Y-80697600D02*
X88915400Y-80699000D01*
X88915400Y-80699000D02*
X88915400Y-80289800D01*
X89190600Y-78124800D02*
X89190600Y-74024800D01*
X105343400Y-63961200D02*
X108026400Y-63961200D01*
X105308600Y-63996000D02*
X103474000Y-63996000D01*
X95850600Y-71440000D02*
X96130600Y-71720000D01*
X88906600Y-80500300D02*
X88853100Y-80446800D01*
X96130600Y-71720000D02*
X96130600Y-72090000D01*
X88853100Y-80636700D02*
X88915400Y-80699000D01*
X90942200Y-71440000D02*
X95660000Y-71440000D01*
X117255200Y-63199200D02*
X117306000Y-63148400D01*
X88915400Y-80699000D02*
X88923600Y-80707200D01*
X103474000Y-63996000D02*
X96130600Y-71339400D01*
X88853100Y-80636700D02*
X88853100Y-78462300D01*
D61*
%TO.N,+3V3*%
X112329000Y-86614000D02*
X111821000Y-86106000D01*
D62*
X130122200Y-100793400D02*
X130122200Y-101078000D01*
D61*
X135878600Y-95146400D02*
X135898000Y-95127000D01*
X105308600Y-61996000D02*
X105426200Y-61878400D01*
X167741600Y-84582000D02*
X167741600Y-88072300D01*
D62*
X130124200Y-101476800D02*
X130124400Y-101477000D01*
D61*
X133967600Y-87253000D02*
X133655000Y-87253000D01*
D63*
X131092000Y-105109200D02*
X130556200Y-105109200D01*
D61*
X114096800Y-86614000D02*
X112329000Y-86614000D01*
X135898000Y-89183400D02*
X133967600Y-87253000D01*
X135898000Y-95127000D02*
X135898000Y-92231400D01*
D62*
X93819800Y-129126400D02*
X93983850Y-129126400D01*
X102172600Y-121568050D02*
X102172600Y-122068050D01*
D61*
X105426200Y-61878400D02*
X117306000Y-61878400D01*
X135898000Y-92231400D02*
X135898000Y-89183400D01*
D62*
X130124200Y-101080000D02*
X130124200Y-101476800D01*
D61*
X167741600Y-88072300D02*
X167753900Y-88084600D01*
X120629027Y-61878400D02*
X117306000Y-61878400D01*
X133655000Y-87253000D02*
X131369000Y-87253000D01*
X105308600Y-62021400D02*
X105368800Y-61961200D01*
D63*
X130556200Y-105109200D02*
X130128000Y-104681000D01*
D62*
X130124400Y-100791200D02*
X130122200Y-100793400D01*
D63*
X130128000Y-104681000D02*
X130128000Y-104120000D01*
D62*
X130122200Y-101078000D02*
X130124200Y-101080000D01*
X101042200Y-122068050D02*
X102172600Y-122068050D01*
X114300000Y-127135500D02*
X114300000Y-127152400D01*
X93983850Y-129126400D02*
X101042200Y-122068050D01*
D61*
%TO.N,VBUS*%
X94241050Y-122943050D02*
X93405100Y-122943050D01*
D64*
X92673600Y-118143050D02*
X91160600Y-119656050D01*
X93405100Y-118143050D02*
X92673600Y-118143050D01*
D61*
X93980000Y-126746000D02*
X95250000Y-125476000D01*
D64*
X91160600Y-121656950D02*
X92350900Y-122847250D01*
D61*
X96461400Y-131129100D02*
X96461400Y-132011600D01*
X89916000Y-131953000D02*
X89916000Y-129159000D01*
D64*
X93405100Y-118143050D02*
X94209900Y-118143050D01*
X94209900Y-118143050D02*
X95582600Y-116770350D01*
X95582600Y-116770350D02*
X96529900Y-116770350D01*
D61*
X88689000Y-128735000D02*
X90678000Y-126746000D01*
D64*
X96529900Y-116770350D02*
X97002600Y-117243050D01*
D61*
X89916000Y-129159000D02*
X88949000Y-129159000D01*
X88949000Y-129159000D02*
X88646000Y-128856000D01*
X96461400Y-132011600D02*
X95885000Y-132588000D01*
X88646000Y-128856000D02*
X88689000Y-128813000D01*
X95250000Y-123952000D02*
X94241050Y-122943050D01*
X91141700Y-129159000D02*
X91178200Y-129122500D01*
D64*
X91160600Y-119656050D02*
X91160600Y-121656950D01*
X97002600Y-117243050D02*
X97002600Y-119021050D01*
X93309300Y-122847250D02*
X93405100Y-122943050D01*
D61*
X89916000Y-129159000D02*
X91141700Y-129159000D01*
X90551000Y-132588000D02*
X89916000Y-131953000D01*
D64*
X92350900Y-122847250D02*
X93309300Y-122847250D01*
D61*
X95885000Y-132588000D02*
X90551000Y-132588000D01*
X88689000Y-128813000D02*
X88689000Y-128735000D01*
X95250000Y-125476000D02*
X95250000Y-123952000D01*
X90678000Y-126746000D02*
X93980000Y-126746000D01*
D62*
%TO.N,D15*%
X127660400Y-138853500D02*
X125358800Y-141155100D01*
X127660400Y-138453200D02*
X127660400Y-138751900D01*
X128689600Y-137739500D02*
X128097400Y-138331700D01*
X125370000Y-141740000D02*
X125370000Y-141166300D01*
X129514600Y-124644500D02*
X131739600Y-126869500D01*
X125370000Y-141166300D02*
X125358800Y-141155100D01*
X129514600Y-124629500D02*
X129514600Y-124644500D01*
X135304400Y-79660000D02*
X135306000Y-79658400D01*
X128689600Y-132639500D02*
X128689600Y-137739500D01*
X125358800Y-141886000D02*
X125373600Y-141900800D01*
X131739600Y-126869500D02*
X131739600Y-129589500D01*
X127781900Y-138331700D02*
X127660400Y-138453200D01*
X128097400Y-138331700D02*
X127781900Y-138331700D01*
X128080600Y-138331700D02*
X127660400Y-138751900D01*
X133630000Y-79660000D02*
X135304400Y-79660000D01*
X127660400Y-138751900D02*
X127660400Y-138853500D01*
X131739600Y-129589500D02*
X128689600Y-132639500D01*
D65*
%TO.N,Net-(CARD1-DAT2)*%
X132259600Y-136343200D02*
X132283200Y-136319600D01*
X127570000Y-141289100D02*
X132259600Y-136599500D01*
X132259600Y-136599500D02*
X132259600Y-136343200D01*
X127573600Y-141900800D02*
X127570000Y-141897200D01*
X127570000Y-141897200D02*
X127570000Y-141289100D01*
D62*
%TO.N,D2*%
X120970000Y-141924000D02*
X120958800Y-141935200D01*
X120954800Y-139449300D02*
X120650000Y-139144500D01*
X119874600Y-138588300D02*
X120430800Y-139144500D01*
X120954800Y-139144500D02*
X120954800Y-139449300D01*
X120973600Y-139468100D02*
X120973600Y-141736400D01*
X120973600Y-141736400D02*
X120970000Y-141740000D01*
X120954800Y-139449300D02*
X120973600Y-139468100D01*
X132560000Y-78388400D02*
X135306000Y-78388400D01*
X120970000Y-141740000D02*
X120970000Y-141924000D01*
X119874600Y-134134500D02*
X119874600Y-138588300D01*
X120650000Y-139144500D02*
X120954800Y-139144500D01*
X120430800Y-139144500D02*
X120650000Y-139144500D01*
%TO.N,D14*%
X115350000Y-76657200D02*
X116158800Y-75848400D01*
X123173600Y-138463500D02*
X123190000Y-138447100D01*
X123160000Y-141740000D02*
X123160000Y-141887200D01*
X114300000Y-124612400D02*
X114283100Y-124612400D01*
X122515800Y-138280900D02*
X123119300Y-138280900D01*
X116158800Y-75848400D02*
X117306000Y-75848400D01*
X116510000Y-116452400D02*
X116510000Y-122046800D01*
X123158800Y-141738800D02*
X123160000Y-141740000D01*
X114300000Y-124612400D02*
X114300000Y-125272800D01*
X123158800Y-138312100D02*
X123158800Y-141738800D01*
X121970800Y-137735900D02*
X122515800Y-138280900D01*
X114300000Y-125272800D02*
X121970800Y-132943600D01*
X123190000Y-138447100D02*
X123190000Y-138280900D01*
X114300000Y-124256800D02*
X114300000Y-124612400D01*
X116510000Y-122046800D02*
X114300000Y-124256800D01*
X121970800Y-132943600D02*
X121970800Y-137735900D01*
X123119300Y-138280900D02*
X123190000Y-138351600D01*
X123190000Y-138280900D02*
X123158800Y-138312100D01*
D65*
%TO.N,Net-(CARD1-DAT1)*%
X119858800Y-141935200D02*
X119870000Y-141924000D01*
X119873600Y-141736400D02*
X119873600Y-140893500D01*
X118279600Y-138916000D02*
X118237000Y-138873400D01*
X118279600Y-139299500D02*
X118279600Y-138916000D01*
X119870000Y-141740000D02*
X119873600Y-141736400D01*
X119870000Y-141924000D02*
X119870000Y-141740000D01*
X119873600Y-140893500D02*
X118279600Y-139299500D01*
%TO.N,Net-(CARD1-CD{slash}DAT3)*%
X126470000Y-141202400D02*
X126470000Y-141924000D01*
X130209600Y-137462800D02*
X126470000Y-141202400D01*
X126470000Y-141924000D02*
X126458800Y-141935200D01*
X130200400Y-136472000D02*
X130209600Y-136481200D01*
X130209600Y-136481200D02*
X130209600Y-137462800D01*
D61*
%TO.N,VBAT*%
X94488000Y-97352200D02*
X94488000Y-97282000D01*
X102956400Y-94147600D02*
X103882925Y-94147600D01*
X98145600Y-98958400D02*
X102956400Y-94147600D01*
X94488000Y-97282000D02*
X94488000Y-98069400D01*
X94488000Y-98069400D02*
X95377000Y-98958400D01*
X95377000Y-98958400D02*
X98145600Y-98958400D01*
X103847325Y-94183200D02*
X103882925Y-94147600D01*
D62*
%TO.N,/Battery_Voltage_Monitor_with_MOSFETS/V_Batt_Monitor_INPUT*%
X94525600Y-84974800D02*
X98164200Y-84974800D01*
X99674600Y-83464400D02*
X101400800Y-83464400D01*
D61*
X89839800Y-96188000D02*
X89839800Y-99796600D01*
D62*
X94537450Y-84792367D02*
X94525600Y-84804217D01*
X98164200Y-84974800D02*
X99674600Y-83464400D01*
D61*
X89839800Y-99796600D02*
X89916000Y-99872800D01*
D62*
X88392000Y-98348800D02*
X88392000Y-90043000D01*
X89916000Y-99872800D02*
X88392000Y-98348800D01*
X94525600Y-84974800D02*
X93460200Y-84974800D01*
X93460200Y-84974800D02*
X88392000Y-90043000D01*
X101400800Y-83464400D02*
X101416000Y-83449200D01*
%TO.N,D34*%
X105003800Y-72271800D02*
X105003800Y-68126800D01*
X105156000Y-72424000D02*
X105003800Y-72271800D01*
X107374000Y-72424000D02*
X108480000Y-73530000D01*
X113286800Y-66966200D02*
X110339000Y-66966200D01*
X110339000Y-66966200D02*
X110286000Y-66913200D01*
X106150800Y-66979800D02*
X110210200Y-66979800D01*
X110286000Y-66913200D02*
X110286000Y-66904000D01*
X113349000Y-66904000D02*
X113286800Y-66966200D01*
X105003800Y-68126800D02*
X106150800Y-66979800D01*
X113411200Y-66966200D02*
X117298200Y-66966200D01*
X110210200Y-66979800D02*
X110286000Y-66904000D01*
X105156000Y-72424000D02*
X107374000Y-72424000D01*
X117298200Y-66966200D02*
X117306000Y-66958400D01*
D61*
%TO.N,EXT_5V*%
X105882925Y-95097600D02*
X105907925Y-95122600D01*
X88701700Y-134515000D02*
X90977200Y-136790500D01*
X97350000Y-139930000D02*
X94450000Y-139930000D01*
X91740000Y-136790500D02*
X92387200Y-136790500D01*
X104970400Y-143000000D02*
X104970400Y-144780000D01*
D62*
X88696700Y-134321800D02*
X88701700Y-134316800D01*
D61*
X92387200Y-137867200D02*
X92387200Y-136790500D01*
X88701700Y-134316800D02*
X88701700Y-134515000D01*
X94450000Y-139930000D02*
X92387200Y-137867200D01*
X105882925Y-97434400D02*
X105882925Y-95097600D01*
X105882925Y-95097600D02*
X108432600Y-95097600D01*
X88646000Y-134261100D02*
X88701700Y-134316800D01*
X92387200Y-137437700D02*
X91740000Y-136790500D01*
X88646000Y-132256000D02*
X88646000Y-134261100D01*
X108432600Y-95097600D02*
X108458000Y-95123000D01*
X92387200Y-137867200D02*
X92387200Y-137437700D01*
X90977200Y-136790500D02*
X91740000Y-136790500D01*
D62*
%TO.N,Net-(U5-L2)*%
X129622200Y-100339800D02*
X129622200Y-101117800D01*
X129629100Y-100600700D02*
X129640700Y-100589100D01*
%TO.N,Net-(U5-L1)*%
X128622200Y-100312200D02*
X128622200Y-101120000D01*
%TO.N,D12*%
X129514600Y-127177800D02*
X129514600Y-127169500D01*
X129540000Y-127203200D02*
X129514600Y-127177800D01*
X124961600Y-77118400D02*
X124990000Y-77090000D01*
X129540000Y-127152400D02*
X129540000Y-127203200D01*
X117306000Y-77118400D02*
X124961600Y-77118400D01*
X127355600Y-126888000D02*
X127670800Y-127203200D01*
X127670800Y-127203200D02*
X129540000Y-127203200D01*
X127355600Y-122072400D02*
X127355600Y-126888000D01*
%TO.N,D13*%
X128350000Y-79680000D02*
X123033200Y-79680000D01*
X128390000Y-79640000D02*
X128350000Y-79680000D01*
X123033200Y-79680000D02*
X123011600Y-79658400D01*
X123011600Y-79658400D02*
X117306000Y-79658400D01*
%TO.N,D4*%
X138108400Y-75848400D02*
X138120000Y-75860000D01*
X135306000Y-75848400D02*
X138108400Y-75848400D01*
%TO.N,D26*%
X115288400Y-73308400D02*
X117306000Y-73308400D01*
X111760000Y-80895000D02*
X111760000Y-79502000D01*
X113870000Y-73300000D02*
X115280000Y-73300000D01*
X115280000Y-73300000D02*
X115288400Y-73308400D01*
%TO.N,D27*%
X117306000Y-74578400D02*
X115358400Y-74578400D01*
X115358400Y-74578400D02*
X115320000Y-74540000D01*
X113400000Y-79465600D02*
X113400000Y-80895000D01*
%TO.N,D22*%
X136951600Y-63148400D02*
X136960000Y-63140000D01*
X135306000Y-63148400D02*
X136951600Y-63148400D01*
X162661600Y-85191600D02*
X162661600Y-88070300D01*
X146456400Y-68986400D02*
X162661600Y-85191600D01*
X162661600Y-88070300D02*
X162673900Y-88082600D01*
%TO.N,D23*%
X137000000Y-61880000D02*
X136998400Y-61878400D01*
X135306000Y-61878400D02*
X136998400Y-61878400D01*
%TO.N,D21*%
X160121600Y-88069300D02*
X160133900Y-88081600D01*
X136988400Y-66958400D02*
X136990000Y-66960000D01*
X160121600Y-85826600D02*
X160121600Y-88069300D01*
X135306000Y-66958400D02*
X136988400Y-66958400D01*
X146367500Y-72072500D02*
X160121600Y-85826600D01*
%TO.N,D5*%
X136978200Y-72038400D02*
X135306000Y-72038400D01*
X138214100Y-73266300D02*
X138206100Y-73266300D01*
X138206100Y-73266300D02*
X136978200Y-72038400D01*
%TO.N,D19*%
X138938000Y-69510000D02*
X136980000Y-69510000D01*
X136980000Y-69510000D02*
X136968400Y-69498400D01*
X136968400Y-69498400D02*
X135306000Y-69498400D01*
%TO.N,D18*%
X137007600Y-70764400D02*
X137011600Y-70768400D01*
X137011600Y-70768400D02*
X137287000Y-70768400D01*
X135306000Y-70768400D02*
X137287000Y-70768400D01*
%TO.N,D33*%
X110185200Y-79502000D02*
X110150000Y-79537200D01*
X110150000Y-79537200D02*
X110150000Y-80895000D01*
X111928700Y-73041300D02*
X114201600Y-70768400D01*
X114201600Y-70768400D02*
X117306000Y-70768400D01*
%TO.N,D35*%
X119858600Y-68228400D02*
X117306000Y-68228400D01*
X119964200Y-68122800D02*
X119858600Y-68228400D01*
%TO.N,D32*%
X117306000Y-69498400D02*
X118888400Y-69498400D01*
X118888400Y-69498400D02*
X118890000Y-69500000D01*
%TO.N,DP*%
X93405100Y-120293050D02*
X92047600Y-120293050D01*
X97952600Y-120606050D02*
X97952600Y-121296050D01*
X91922600Y-121053050D02*
X92162600Y-121293050D01*
X91922600Y-120418050D02*
X91922600Y-121053050D01*
X94460600Y-120293050D02*
X94589600Y-120164050D01*
X94589600Y-120164050D02*
X97510600Y-120164050D01*
X92047600Y-120293050D02*
X91922600Y-120418050D01*
X92162600Y-121293050D02*
X93405100Y-121293050D01*
X97510600Y-120164050D02*
X97952600Y-120606050D01*
X93405100Y-120293050D02*
X94460600Y-120293050D01*
%TO.N,DN*%
X95097600Y-121296050D02*
X96052600Y-121296050D01*
X94832600Y-121296050D02*
X95097600Y-121296050D01*
X95097600Y-121561050D02*
X94716600Y-121942050D01*
X95097600Y-121296050D02*
X95097600Y-121561050D01*
X93405100Y-119793050D02*
X94198600Y-119793050D01*
X94329600Y-120793050D02*
X94832600Y-121296050D01*
X94198600Y-119793050D02*
X94716600Y-119275050D01*
X93405100Y-120793050D02*
X94329600Y-120793050D01*
D65*
%TO.N,/micro_SD-CARD_enable/3V3_Input_to_micro_SD-CARD*%
X118259600Y-137760800D02*
X118237000Y-137783400D01*
D62*
X127660400Y-136144000D02*
X125526800Y-138277600D01*
X123190000Y-133062300D02*
X123240800Y-133011500D01*
X125526800Y-138277600D02*
X124270000Y-139534400D01*
X131452500Y-133484500D02*
X132283200Y-134315200D01*
D61*
X124155200Y-127431800D02*
X124155200Y-121843800D01*
D62*
X130204600Y-133484500D02*
X131452500Y-133484500D01*
D65*
X130204600Y-135329500D02*
X130209600Y-135334500D01*
D62*
X124270000Y-139534400D02*
X124270000Y-141740000D01*
X132283200Y-134315200D02*
X132283200Y-135229600D01*
D61*
X124155200Y-121843800D02*
X125704600Y-120294400D01*
D62*
X120954800Y-138164400D02*
X120954800Y-135500700D01*
D65*
X118259600Y-135649500D02*
X118259600Y-137760800D01*
D62*
X127660400Y-137363200D02*
X127660400Y-136053400D01*
X120954800Y-135500700D02*
X121056400Y-135399100D01*
D65*
X132269600Y-135214500D02*
X132259600Y-135224500D01*
X130204600Y-133484500D02*
X130204600Y-135329500D01*
D62*
X127660400Y-136053400D02*
X127660400Y-136144000D01*
X123190000Y-137190900D02*
X123190000Y-133062300D01*
D61*
%TO.N,Net-(D2-C)*%
X89839800Y-92202000D02*
X90093800Y-91948000D01*
X90093800Y-91948000D02*
X92083800Y-91948000D01*
X94417800Y-94282000D02*
X94488000Y-94282000D01*
X89839800Y-92788000D02*
X89839800Y-92202000D01*
X92083800Y-91948000D02*
X94417800Y-94282000D01*
D62*
%TO.N,Net-(LED1-B)*%
X113400000Y-82942000D02*
X113400000Y-81915000D01*
X111821000Y-84866000D02*
X111821000Y-84521000D01*
X111821000Y-84521000D02*
X113400000Y-82942000D01*
%TO.N,Net-(LED1-G)*%
X111760000Y-83058000D02*
X111760000Y-81915000D01*
X110871000Y-83947000D02*
X111760000Y-83058000D01*
X110871000Y-84866000D02*
X110871000Y-83947000D01*
%TO.N,RTS*%
X105683316Y-117103350D02*
X108191300Y-117103350D01*
X110198900Y-115309350D02*
X108648500Y-115309350D01*
X105122600Y-117664066D02*
X105683316Y-117103350D01*
X108648500Y-116646150D02*
X108648500Y-115309350D01*
X103265200Y-109562250D02*
X103200000Y-109497050D01*
X110391200Y-110717050D02*
X110391200Y-115077050D01*
X105122600Y-118118050D02*
X105122600Y-117664066D01*
X103281200Y-109497050D02*
X109171200Y-109497050D01*
X108191300Y-117103350D02*
X108648500Y-116646150D01*
X110411200Y-115097050D02*
X110198900Y-115309350D01*
X110391200Y-115077050D02*
X110411200Y-115097050D01*
X109171200Y-109497050D02*
X110391200Y-110717050D01*
%TO.N,Net-(Q1-B)*%
X103381200Y-111497050D02*
X104363000Y-111497050D01*
X101381200Y-109497050D02*
X103381200Y-111497050D01*
X104363000Y-111497050D02*
X106159300Y-113293350D01*
%TO.N,Net-(Q2-B)*%
X103924100Y-114512550D02*
X103924100Y-115157750D01*
X107648500Y-114309350D02*
X104127300Y-114309350D01*
X104127300Y-114309350D02*
X103924100Y-114512550D01*
X108648500Y-113309350D02*
X107648500Y-114309350D01*
%TO.N,DTR*%
X102539800Y-117032150D02*
X102539800Y-116625750D01*
X102544700Y-116625750D02*
X102539800Y-116625750D01*
X102661800Y-116138150D02*
X102616000Y-116092350D01*
X103454200Y-116138150D02*
X105935700Y-116138150D01*
X102539800Y-116168550D02*
X102539800Y-115609750D01*
X102770850Y-116399600D02*
X102544700Y-116625750D01*
X102661800Y-116138150D02*
X102661800Y-116290550D01*
X102539800Y-115914550D02*
X102539800Y-115465050D01*
X102717600Y-115990750D02*
X102793800Y-115914550D01*
X102539800Y-113590450D02*
X102872500Y-113257750D01*
X102872500Y-113257750D02*
X103924100Y-113257750D01*
X102539800Y-115465050D02*
X102539800Y-113590450D01*
X102770850Y-116399600D02*
X103032300Y-116138150D01*
X102539800Y-115609750D02*
X102539800Y-115465050D01*
X106159300Y-115914550D02*
X106159300Y-115293350D01*
X105935700Y-116138150D02*
X106159300Y-115914550D01*
X102539800Y-116625750D02*
X102539800Y-116168550D01*
X103122600Y-117614950D02*
X102539800Y-117032150D01*
X103122600Y-118118050D02*
X103122600Y-117614950D01*
X103454200Y-116138150D02*
X102661800Y-116138150D01*
X102793800Y-115914550D02*
X102616000Y-116092350D01*
X103068200Y-116138150D02*
X102539800Y-115609750D01*
X102539800Y-115599750D02*
X102539800Y-115465050D01*
X103212900Y-116138150D02*
X103454200Y-116138150D01*
X102616000Y-116092350D02*
X102539800Y-116168550D01*
X103032300Y-116138150D02*
X103212900Y-116138150D01*
X103212900Y-116138150D02*
X103068200Y-116138150D01*
X102661800Y-116290550D02*
X102770850Y-116399600D01*
%TO.N,Net-(Q3-G)*%
X97976650Y-71693350D02*
X101356000Y-68314000D01*
X97985600Y-77794800D02*
X97976650Y-77785850D01*
X97976650Y-77785850D02*
X97976650Y-71693350D01*
X101356000Y-68314000D02*
X102646000Y-68314000D01*
%TO.N,Net-(Q3-D)*%
X97306283Y-81564400D02*
X97299850Y-81557967D01*
X97470000Y-81564400D02*
X97306283Y-81564400D01*
X96696450Y-81614967D02*
X96823450Y-81487967D01*
X94537450Y-82792367D02*
X94719883Y-82974800D01*
X97470000Y-81564400D02*
X101400800Y-81564400D01*
X96823450Y-81487967D02*
X97026650Y-81284767D01*
X96747016Y-81564400D02*
X96615708Y-81695708D01*
X97299850Y-81557967D02*
X97026650Y-81284767D01*
X95336617Y-82974800D02*
X96615708Y-81695708D01*
X97026650Y-81284767D02*
X97035600Y-81275817D01*
X97035600Y-81275817D02*
X97035600Y-79651717D01*
X96753450Y-81557967D02*
X96696450Y-81614967D01*
X96893450Y-81557967D02*
X97299850Y-81557967D01*
X97035600Y-79651717D02*
X97026650Y-79642767D01*
X97470000Y-81564400D02*
X96747016Y-81564400D01*
X94719883Y-82974800D02*
X95336617Y-82974800D01*
X97299850Y-81557967D02*
X96753450Y-81557967D01*
X96615708Y-81695708D02*
X96696450Y-81614967D01*
X101400800Y-81564400D02*
X101416000Y-81549200D01*
X96823450Y-81487967D02*
X96893450Y-81557967D01*
%TO.N,Net-(Q4-D)*%
X103900000Y-82514400D02*
X103915200Y-82499200D01*
X105156000Y-81808400D02*
X105156000Y-74424000D01*
X103915200Y-82499200D02*
X104465200Y-82499200D01*
X104465200Y-82499200D02*
X105156000Y-81808400D01*
%TO.N,Net-(U3-VBUS)*%
X101600000Y-126746000D02*
X101600000Y-125222000D01*
X99198100Y-129147900D02*
X101600000Y-126746000D01*
X96531000Y-129129100D02*
X96547000Y-129113100D01*
X103122600Y-123699400D02*
X103122600Y-123018050D01*
X101600000Y-125222000D02*
X103122600Y-123699400D01*
X96547000Y-129113100D02*
X99103000Y-129113100D01*
X99103000Y-129147900D02*
X99198100Y-129147900D01*
X96434600Y-129105100D02*
X96410600Y-129129100D01*
X96446200Y-129113900D02*
X96461400Y-129129100D01*
X96461400Y-129129100D02*
X96531000Y-129129100D01*
%TO.N,Net-(R5-Pad1)*%
X101744600Y-131147900D02*
X104437000Y-131147900D01*
%TO.N,Net-(U3-~{RST})*%
X103622600Y-127269900D02*
X101744600Y-129147900D01*
X103622600Y-123018050D02*
X103622600Y-127269900D01*
%TO.N,Net-(U3-~{SUSPEND})*%
X104622600Y-123018050D02*
X104622600Y-125625100D01*
X104622600Y-125625100D02*
X107078600Y-128081100D01*
X107078600Y-128081100D02*
X107078600Y-129147900D01*
%TO.N,D25*%
X102646000Y-71992000D02*
X102692400Y-72038400D01*
X102641600Y-70209600D02*
X102646000Y-70214000D01*
X102646000Y-70214000D02*
X102646000Y-71992000D01*
X117306000Y-72038400D02*
X115240000Y-72038400D01*
%TO.N,D+*%
X100455600Y-120569050D02*
X98907600Y-119021050D01*
X100456600Y-120568050D02*
X100455600Y-120569050D01*
X102172600Y-120568050D02*
X100456600Y-120568050D01*
X98907600Y-119021050D02*
X97952600Y-119021050D01*
%TO.N,D-*%
X96052600Y-119021050D02*
X96052600Y-117671301D01*
X96052600Y-117671301D02*
X96046549Y-117665250D01*
X102172600Y-121068050D02*
X99430600Y-121068050D01*
X99430600Y-121068050D02*
X99415600Y-121053050D01*
X99431600Y-121069050D02*
X99415600Y-121053050D01*
%TO.N,TXD0*%
X135306000Y-64418400D02*
X132893000Y-64418400D01*
X132893000Y-64418400D02*
X131343600Y-62869000D01*
X104634733Y-116954617D02*
X104622600Y-116966750D01*
X96799400Y-102946200D02*
X99949000Y-102946200D01*
X104622600Y-116966750D02*
X104622600Y-118118050D01*
X104634733Y-116865150D02*
X104634733Y-116954617D01*
%TO.N,RXD0*%
X132385000Y-65688400D02*
X135306000Y-65688400D01*
X103606600Y-116865150D02*
X104122600Y-117381150D01*
X104122600Y-117381150D02*
X104122600Y-118118050D01*
X132378400Y-65695000D02*
X132385000Y-65688400D01*
%TO.N,Net-(LED1-R)*%
X110032800Y-86106000D02*
X110871000Y-86106000D01*
X110150000Y-81915000D02*
X110150000Y-82636000D01*
X110150000Y-82636000D02*
X109524800Y-83261200D01*
X109524800Y-83261200D02*
X109524800Y-85598000D01*
X109524800Y-85598000D02*
X110032800Y-86106000D01*
%TO.N,/Buck-Boost3.3V/Buck-Boost_INPUT*%
X128550575Y-105064560D02*
X128622200Y-104992935D01*
D61*
X117500400Y-91084400D02*
X117500400Y-92151200D01*
X117500400Y-92151200D02*
X117492475Y-92159125D01*
D62*
X128622200Y-104992935D02*
X128622200Y-104082000D01*
X128122200Y-101472600D02*
X128122200Y-101082000D01*
X128550575Y-105064560D02*
X128852440Y-105064560D01*
X128117800Y-101477000D02*
X128122200Y-101472600D01*
D61*
X116959075Y-91625725D02*
X117492475Y-92159125D01*
X117500400Y-91084400D02*
X116535200Y-91084400D01*
X116535200Y-91084400D02*
X116530800Y-91080000D01*
X116535200Y-91084400D02*
X116476475Y-91143125D01*
X116530800Y-91080000D02*
X116530800Y-91088800D01*
X116476475Y-91143125D02*
X116959075Y-91625725D01*
D62*
X128622200Y-104082000D02*
X128624200Y-104080000D01*
X128122200Y-104636185D02*
X128550575Y-105064560D01*
X129122200Y-104794800D02*
X129122200Y-104082000D01*
D61*
X117500400Y-91084400D02*
X116959075Y-91625725D01*
X117492475Y-92159125D02*
X121488400Y-96155050D01*
X106307600Y-93197600D02*
X105882925Y-93197600D01*
D62*
X128124200Y-101080000D02*
X128122200Y-101078000D01*
D61*
X121488400Y-96155050D02*
X121488400Y-100638800D01*
X116530800Y-91088800D02*
X115896600Y-91723000D01*
X119227600Y-89357200D02*
X117500400Y-91084400D01*
X116861800Y-91723000D02*
X116959075Y-91625725D01*
X105882925Y-93197600D02*
X107386525Y-91694000D01*
D62*
X128852440Y-105064560D02*
X129122200Y-104794800D01*
X129122200Y-104082000D02*
X129124200Y-104080000D01*
X128122200Y-101082000D02*
X128124200Y-101080000D01*
X128122200Y-104082000D02*
X128122200Y-104636185D01*
D61*
X115896600Y-91723000D02*
X108458000Y-91723000D01*
D62*
X128122200Y-101078000D02*
X128122200Y-100821000D01*
X128122200Y-100821000D02*
X128117800Y-100816600D01*
D61*
X115896600Y-91723000D02*
X116861800Y-91723000D01*
D62*
X128124200Y-104080000D02*
X128122200Y-104082000D01*
D61*
X108429000Y-91694000D02*
X108458000Y-91723000D01*
X106307600Y-93197600D02*
X106320000Y-93210000D01*
X107386525Y-91694000D02*
X108429000Y-91694000D01*
%TO.N,/micro_SD-CARD_enable/3V3_Input_to_micro_SD-CARD*%
X125704600Y-120294400D02*
X125704600Y-118541800D01*
%TD*%
%TA.AperFunction,Conductor*%
%TO.N,Net-(U5-L1)*%
G36*
X128341340Y-93642258D02*
G01*
X128362518Y-93657074D01*
X128699480Y-93939336D01*
X128743771Y-94002476D01*
X128752800Y-94053555D01*
X128752800Y-98301998D01*
X128902951Y-99726368D01*
X128901968Y-99765103D01*
X128798706Y-100422665D01*
X128798395Y-100423364D01*
X128798469Y-100424127D01*
X128795495Y-100429900D01*
X128767428Y-100493166D01*
X128766492Y-100494314D01*
X128761931Y-100499847D01*
X128751994Y-100509785D01*
X128749977Y-100514352D01*
X128739181Y-100527452D01*
X128712983Y-100546142D01*
X128688549Y-100567076D01*
X128681901Y-100568318D01*
X128676395Y-100572247D01*
X128644362Y-100575334D01*
X128612734Y-100581246D01*
X128606355Y-100578998D01*
X128599622Y-100579647D01*
X128570339Y-100566305D01*
X128539991Y-100555611D01*
X128534239Y-100549858D01*
X128529435Y-100547670D01*
X128522920Y-100538539D01*
X128501271Y-100516888D01*
X128496405Y-100509784D01*
X128416964Y-100430343D01*
X128314194Y-100384966D01*
X128314191Y-100384965D01*
X128289065Y-100382050D01*
X128289059Y-100382050D01*
X128192449Y-100382050D01*
X128117949Y-100362088D01*
X128092823Y-100343845D01*
X126981997Y-99344996D01*
X125960311Y-98473615D01*
X125916581Y-98410082D01*
X125908000Y-98360248D01*
X125908000Y-94060819D01*
X125927962Y-93986319D01*
X125970574Y-93939446D01*
X126377206Y-93649917D01*
X126449470Y-93622970D01*
X126463625Y-93622296D01*
X128266840Y-93622296D01*
X128341340Y-93642258D01*
G37*
%TD.AperFunction*%
%TD*%
%TA.AperFunction,Conductor*%
%TO.N,GND*%
G36*
X128209677Y-64412685D02*
G01*
X128230319Y-64429319D01*
X128919681Y-65118681D01*
X128953166Y-65180004D01*
X128956000Y-65206362D01*
X128956000Y-70996438D01*
X128936315Y-71063477D01*
X128919681Y-71084119D01*
X128281119Y-71722681D01*
X128219796Y-71756166D01*
X128193438Y-71759000D01*
X122403362Y-71759000D01*
X122336323Y-71739315D01*
X122315681Y-71722681D01*
X121626319Y-71033319D01*
X121592834Y-70971996D01*
X121590000Y-70945638D01*
X121590000Y-65257162D01*
X121609685Y-65190123D01*
X121626319Y-65169481D01*
X122366481Y-64429319D01*
X122427804Y-64395834D01*
X122454162Y-64393000D01*
X128142638Y-64393000D01*
X128209677Y-64412685D01*
G37*
%TD.AperFunction*%
%TD*%
%TA.AperFunction,Conductor*%
%TO.N,GND*%
G36*
X129161095Y-101642815D02*
G01*
X129174965Y-101643870D01*
X129186544Y-101651783D01*
X129208406Y-101659487D01*
X129231254Y-101682336D01*
X129238644Y-101687387D01*
X129240806Y-101691889D01*
X129247129Y-101698213D01*
X129248529Y-101700257D01*
X129258734Y-101729224D01*
X129272032Y-101756914D01*
X129271403Y-101765181D01*
X129274159Y-101773002D01*
X129274600Y-101784455D01*
X129274600Y-101832600D01*
X129448152Y-101832646D01*
X129456692Y-101832896D01*
X129459310Y-101833047D01*
X129459335Y-101833050D01*
X129789064Y-101833049D01*
X129789080Y-101833047D01*
X129790065Y-101832990D01*
X129798690Y-101832741D01*
X129845704Y-101832754D01*
X129920156Y-101852714D01*
X129959391Y-101875367D01*
X130068119Y-101904500D01*
X130068121Y-101904500D01*
X130180680Y-101904500D01*
X130180682Y-101904500D01*
X130237870Y-101889176D01*
X130276432Y-101884100D01*
X137801530Y-101884100D01*
X137803654Y-101883950D01*
X137805049Y-101883853D01*
X137880764Y-101898550D01*
X137938986Y-101949136D01*
X137959671Y-101994934D01*
X138344243Y-103471538D01*
X138344288Y-103546472D01*
X137928090Y-105152352D01*
X137890075Y-105219462D01*
X137889685Y-105219856D01*
X137097317Y-106019364D01*
X137030696Y-106058228D01*
X137012323Y-106062015D01*
X135325826Y-106300199D01*
X135286135Y-106300465D01*
X133410679Y-106061210D01*
X133339304Y-106031981D01*
X133326543Y-106021082D01*
X130620800Y-103432800D01*
X130392339Y-103432800D01*
X130332157Y-103420105D01*
X130309191Y-103409965D01*
X130309182Y-103409964D01*
X130284065Y-103407050D01*
X130284059Y-103407050D01*
X129964333Y-103407050D01*
X129939210Y-103409964D01*
X129939206Y-103409965D01*
X129916242Y-103420105D01*
X129856060Y-103432800D01*
X129846718Y-103432800D01*
X129837761Y-103430400D01*
X129782600Y-103430400D01*
X129477800Y-103430400D01*
X129431912Y-103430400D01*
X129413682Y-103432800D01*
X129392339Y-103432800D01*
X129332157Y-103420105D01*
X129309191Y-103409965D01*
X129309182Y-103409964D01*
X129284065Y-103407050D01*
X129284059Y-103407050D01*
X128964333Y-103407050D01*
X128939210Y-103409964D01*
X128939209Y-103409964D01*
X128934380Y-103412097D01*
X128858164Y-103423926D01*
X128814019Y-103412096D01*
X128809191Y-103409965D01*
X128784065Y-103407050D01*
X128784059Y-103407050D01*
X128464333Y-103407050D01*
X128439210Y-103409964D01*
X128439209Y-103409964D01*
X128434380Y-103412097D01*
X128358164Y-103423926D01*
X128314019Y-103412096D01*
X128309191Y-103409965D01*
X128284065Y-103407050D01*
X128284059Y-103407050D01*
X127964333Y-103407050D01*
X127939210Y-103409964D01*
X127939206Y-103409965D01*
X127916242Y-103420105D01*
X127856060Y-103432800D01*
X127674400Y-103432800D01*
X127660600Y-103432800D01*
X126548752Y-104726412D01*
X125448548Y-106006476D01*
X125384849Y-106049963D01*
X125356483Y-106056877D01*
X123641560Y-106300224D01*
X123602393Y-106300582D01*
X121613400Y-106055337D01*
X121541903Y-106026408D01*
X121525611Y-106012148D01*
X120486162Y-104959470D01*
X120451006Y-104902417D01*
X119955072Y-103432634D01*
X119950169Y-103355664D01*
X119955069Y-103337376D01*
X120411521Y-101984600D01*
X120454252Y-101920397D01*
X120523364Y-101886158D01*
X120564047Y-101884790D01*
X120564114Y-101883781D01*
X120568981Y-101884100D01*
X127965769Y-101884100D01*
X128004330Y-101889176D01*
X128061519Y-101904500D01*
X128061521Y-101904500D01*
X128174079Y-101904500D01*
X128174081Y-101904500D01*
X128282809Y-101875367D01*
X128322030Y-101852722D01*
X128396479Y-101832761D01*
X128449792Y-101832746D01*
X128458423Y-101832996D01*
X128459302Y-101833046D01*
X128459335Y-101833050D01*
X128789064Y-101833049D01*
X128789074Y-101833047D01*
X128791675Y-101832897D01*
X128800230Y-101832647D01*
X128969800Y-101832600D01*
X128969800Y-101790294D01*
X128976308Y-101766003D01*
X128978215Y-101740929D01*
X128988423Y-101720790D01*
X128989762Y-101715794D01*
X128992832Y-101712092D01*
X128995876Y-101706088D01*
X129001276Y-101698205D01*
X129011902Y-101689101D01*
X129021732Y-101677250D01*
X129028532Y-101671411D01*
X129037675Y-101667020D01*
X129059847Y-101648025D01*
X129088310Y-101642704D01*
X129098059Y-101638023D01*
X129108931Y-101638849D01*
X129135662Y-101633853D01*
X129161095Y-101642815D01*
G37*
%TD.AperFunction*%
%TD*%
%TA.AperFunction,Conductor*%
%TO.N,/Buck-Boost3.3V/Buck-Boost_INPUT*%
G36*
X124361734Y-98740577D02*
G01*
X124400284Y-98754787D01*
X128116023Y-100743857D01*
X128172280Y-100796613D01*
X128194623Y-100870434D01*
X128194700Y-100875217D01*
X128194700Y-101176280D01*
X128198624Y-101190925D01*
X128203700Y-101229487D01*
X128203700Y-101429600D01*
X128183738Y-101504100D01*
X128129200Y-101558638D01*
X128054700Y-101578600D01*
X120568981Y-101578600D01*
X120494481Y-101558638D01*
X120439943Y-101504100D01*
X120427593Y-101476615D01*
X119956259Y-100059159D01*
X119951694Y-99982166D01*
X119959421Y-99956515D01*
X120418049Y-98816935D01*
X120464383Y-98755275D01*
X120522523Y-98727437D01*
X122319296Y-98309604D01*
X122384805Y-98309159D01*
X124361734Y-98740577D01*
G37*
%TD.AperFunction*%
%TD*%
%TA.AperFunction,Conductor*%
%TO.N,Net-(U5-L2)*%
G36*
X131899688Y-93642258D02*
G01*
X131917627Y-93654437D01*
X132277648Y-93939260D01*
X132323687Y-94001136D01*
X132334200Y-94056111D01*
X132334200Y-98361960D01*
X132314238Y-98436460D01*
X132284030Y-98473466D01*
X131312339Y-99334698D01*
X131311682Y-99335277D01*
X130179662Y-100326785D01*
X130110466Y-100360855D01*
X130108003Y-100361322D01*
X130094852Y-100363700D01*
X130068118Y-100363700D01*
X130012614Y-100378570D01*
X130006526Y-100379672D01*
X130001347Y-100379241D01*
X129980018Y-100382050D01*
X129959340Y-100382050D01*
X129959336Y-100382051D01*
X129934210Y-100384964D01*
X129934207Y-100384965D01*
X129831435Y-100430343D01*
X129751994Y-100509784D01*
X129747125Y-100516893D01*
X129732223Y-100529660D01*
X129721134Y-100545846D01*
X129703447Y-100554314D01*
X129688554Y-100567074D01*
X129669265Y-100570679D01*
X129651568Y-100579153D01*
X129632017Y-100577643D01*
X129612739Y-100581247D01*
X129594230Y-100574724D01*
X129574669Y-100573214D01*
X129561699Y-100563261D01*
X129539995Y-100555613D01*
X129511042Y-100529622D01*
X129498913Y-100515462D01*
X129496406Y-100509785D01*
X129479968Y-100493347D01*
X129476228Y-100488981D01*
X129461972Y-100459205D01*
X129445463Y-100430611D01*
X129443221Y-100420043D01*
X129442921Y-100419415D01*
X129442965Y-100418836D01*
X129442202Y-100415238D01*
X129339846Y-99765152D01*
X129338859Y-99726318D01*
X129489400Y-98302000D01*
X129489400Y-96524000D01*
X129489400Y-94771400D01*
X129489400Y-94058530D01*
X129509362Y-93984030D01*
X129549039Y-93939301D01*
X129549098Y-93939257D01*
X129932278Y-93652066D01*
X130003865Y-93623360D01*
X130021639Y-93622296D01*
X131825188Y-93622296D01*
X131899688Y-93642258D01*
G37*
%TD.AperFunction*%
%TD*%
%TA.AperFunction,Conductor*%
%TO.N,+3V3*%
G36*
X137921331Y-98217387D02*
G01*
X138343982Y-99788754D01*
X138344689Y-99863426D01*
X137955068Y-101429600D01*
X137946119Y-101465571D01*
X137908762Y-101533048D01*
X137842671Y-101572807D01*
X137801526Y-101578600D01*
X130193699Y-101578600D01*
X130119199Y-101558638D01*
X130064661Y-101504100D01*
X130044699Y-101429600D01*
X130044699Y-101212361D01*
X130048463Y-101183769D01*
X130048425Y-101183764D01*
X130049700Y-101174080D01*
X130049700Y-100861435D01*
X130069662Y-100786935D01*
X130123100Y-100733040D01*
X134417000Y-98205000D01*
X137916829Y-98205000D01*
X137921331Y-98217387D01*
G37*
%TD.AperFunction*%
%TD*%
%TA.AperFunction,Conductor*%
%TO.N,+3V3*%
G36*
X136221378Y-94435762D02*
G01*
X136275916Y-94490300D01*
X136284196Y-94506967D01*
X137091992Y-96424982D01*
X137912602Y-98193369D01*
X137916829Y-98205000D01*
X134417000Y-98205000D01*
X134417001Y-98204998D01*
X135503086Y-94522649D01*
X135543308Y-94456839D01*
X135611046Y-94419958D01*
X135645999Y-94415800D01*
X136146878Y-94415800D01*
X136221378Y-94435762D01*
G37*
%TD.AperFunction*%
%TD*%
M02*
