%TF.GenerationSoftware,KiCad,Pcbnew,9.0.1*%
%TF.CreationDate,2025-06-09T11:05:10+02:00*%
%TF.ProjectId,MY-ESP32,4d592d45-5350-4333-922e-6b696361645f,rev?*%
%TF.SameCoordinates,Original*%
%TF.FileFunction,Soldermask,Top*%
%TF.FilePolarity,Negative*%
%FSLAX46Y46*%
G04 Gerber Fmt 4.6, Leading zero omitted, Abs format (unit mm)*
G04 Created by KiCad (PCBNEW 9.0.1) date 2025-06-09 11:05:10*
%MOMM*%
%LPD*%
G01*
G04 APERTURE LIST*
G04 Aperture macros list*
%AMRoundRect*
0 Rectangle with rounded corners*
0 $1 Rounding radius*
0 $2 $3 $4 $5 $6 $7 $8 $9 X,Y pos of 4 corners*
0 Add a 4 corners polygon primitive as box body*
4,1,4,$2,$3,$4,$5,$6,$7,$8,$9,$2,$3,0*
0 Add four circle primitives for the rounded corners*
1,1,$1+$1,$2,$3*
1,1,$1+$1,$4,$5*
1,1,$1+$1,$6,$7*
1,1,$1+$1,$8,$9*
0 Add four rect primitives between the rounded corners*
20,1,$1+$1,$2,$3,$4,$5,0*
20,1,$1+$1,$4,$5,$6,$7,0*
20,1,$1+$1,$6,$7,$8,$9,0*
20,1,$1+$1,$8,$9,$2,$3,0*%
%AMFreePoly0*
4,1,21,-0.180000,0.885000,0.180000,0.885000,0.180000,1.715000,0.470000,1.715000,0.470000,0.885000,0.760000,0.885000,0.760000,-0.885000,0.470000,-0.885000,0.470000,-1.705000,0.180000,-1.705000,0.180000,-0.885000,-0.180000,-0.885000,-0.180000,-1.705000,-0.470000,-1.705000,-0.470000,-0.885000,-0.760000,-0.885000,-0.760000,0.895000,-0.470000,0.895000,-0.470000,1.715000,-0.180000,1.715000,
-0.180000,0.885000,-0.180000,0.885000,$1*%
G04 Aperture macros list end*
%ADD10R,1.207500X1.701000*%
%ADD11R,1.250000X0.700000*%
%ADD12R,2.300000X1.400000*%
%ADD13RoundRect,0.125000X0.125000X-0.125000X0.125000X0.125000X-0.125000X0.125000X-0.125000X-0.125000X0*%
%ADD14R,0.790000X0.540000*%
%ADD15RoundRect,0.250000X-0.475000X0.337500X-0.475000X-0.337500X0.475000X-0.337500X0.475000X0.337500X0*%
%ADD16C,3.200000*%
%ADD17O,0.500000X0.500000*%
%ADD18R,1.800000X1.800000*%
%ADD19C,1.600000*%
%ADD20R,0.800000X0.800000*%
%ADD21RoundRect,0.250000X-0.450000X0.350000X-0.450000X-0.350000X0.450000X-0.350000X0.450000X0.350000X0*%
%ADD22R,1.700000X1.700000*%
%ADD23C,1.700000*%
%ADD24R,0.700000X1.250000*%
%ADD25C,1.000000*%
%ADD26RoundRect,0.250000X0.450000X-0.350000X0.450000X0.350000X-0.450000X0.350000X-0.450000X-0.350000X0*%
%ADD27RoundRect,0.062500X-0.337500X-0.062500X0.337500X-0.062500X0.337500X0.062500X-0.337500X0.062500X0*%
%ADD28RoundRect,0.062500X-0.062500X-0.337500X0.062500X-0.337500X0.062500X0.337500X-0.062500X0.337500X0*%
%ADD29R,3.350000X3.350000*%
%ADD30R,0.540000X0.565500*%
%ADD31R,1.410000X1.350000*%
%ADD32RoundRect,0.150000X0.150000X-0.512500X0.150000X0.512500X-0.150000X0.512500X-0.150000X-0.512500X0*%
%ADD33O,0.280000X0.800000*%
%ADD34O,0.800000X0.280000*%
%ADD35R,1.500000X1.500000*%
%ADD36R,0.900000X0.800000*%
%ADD37R,2.124000X3.820000*%
%ADD38R,2.000000X0.900000*%
%ADD39R,1.330000X1.330000*%
%ADD40RoundRect,0.250000X-0.337500X-0.475000X0.337500X-0.475000X0.337500X0.475000X-0.337500X0.475000X0*%
%ADD41R,1.600000X0.700000*%
%ADD42R,1.500000X1.200000*%
%ADD43R,2.200000X1.200000*%
%ADD44R,1.500000X1.600000*%
%ADD45R,3.900000X1.450000*%
%ADD46R,1.575000X1.575000*%
%ADD47C,1.575000*%
%ADD48R,0.240000X0.850000*%
%ADD49R,0.230000X0.800000*%
%ADD50FreePoly0,270.000000*%
%ADD51RoundRect,0.125000X-0.125000X0.125000X-0.125000X-0.125000X0.125000X-0.125000X0.125000X0.125000X0*%
%ADD52R,1.350000X1.410000*%
%ADD53O,2.100000X1.100000*%
%ADD54O,1.800000X1.200000*%
%ADD55R,1.300000X0.600000*%
%ADD56R,1.300000X0.300000*%
%ADD57RoundRect,0.250000X0.475000X-0.337500X0.475000X0.337500X-0.475000X0.337500X-0.475000X-0.337500X0*%
%ADD58RoundRect,0.125000X0.125000X0.125000X-0.125000X0.125000X-0.125000X-0.125000X0.125000X-0.125000X0*%
%ADD59RoundRect,0.250000X-0.350000X-0.450000X0.350000X-0.450000X0.350000X0.450000X-0.350000X0.450000X0*%
%ADD60R,1.070000X0.600000*%
%ADD61R,0.565500X0.540000*%
%ADD62C,2.200000*%
G04 APERTURE END LIST*
D10*
%TO.C,R12*%
X35707150Y-69987400D03*
X38665150Y-69987400D03*
%TD*%
D11*
%TO.C,Q1*%
X49907100Y-82466000D03*
X49907100Y-80566000D03*
X52406100Y-81516000D03*
%TD*%
D12*
%TO.C,SW1*%
X61426000Y-88821000D03*
X70712000Y-88821000D03*
X70712000Y-93321000D03*
X61426000Y-93321000D03*
%TD*%
D13*
%TO.C,D1*%
X34400400Y-94957900D03*
X34400400Y-92757900D03*
%TD*%
D14*
%TO.C,R24*%
X101051000Y-39721000D03*
X99961000Y-39721000D03*
%TD*%
%TO.C,C12*%
X42985600Y-66367400D03*
X41895600Y-66367400D03*
%TD*%
%TO.C,C13*%
X38901150Y-65618600D03*
X37811150Y-65618600D03*
%TD*%
D15*
%TO.C,C1*%
X74126000Y-90048000D03*
X74126000Y-92123000D03*
%TD*%
D16*
%TO.C,H13*%
X117306000Y-66596000D03*
%TD*%
D17*
%TO.C,*%
X39746000Y-62361000D03*
%TD*%
D15*
%TO.C,C9*%
X39531200Y-92769600D03*
X39531200Y-94844600D03*
%TD*%
D17*
%TO.C,*%
X61486000Y-33601000D03*
%TD*%
%TO.C,*%
X63366000Y-28011000D03*
%TD*%
D18*
%TO.C,H5*%
X107120600Y-34846000D03*
D19*
X109660600Y-34846000D03*
X112200600Y-34846000D03*
X114740600Y-34846000D03*
X117280600Y-34846000D03*
X119820600Y-34846000D03*
%TD*%
D17*
%TO.C,*%
X39746000Y-63294000D03*
%TD*%
%TO.C,*%
X63366000Y-29893000D03*
%TD*%
D20*
%TO.C,LED2*%
X31577500Y-64450300D03*
X31584500Y-66049300D03*
%TD*%
D21*
%TO.C,R17*%
X40267800Y-35116000D03*
X40267800Y-37116000D03*
%TD*%
D15*
%TO.C,C16*%
X58987600Y-63374100D03*
X58987600Y-65449100D03*
%TD*%
D22*
%TO.C,H4*%
X86826000Y-57714600D03*
D23*
X89366000Y-57714600D03*
X91906000Y-57714600D03*
X94446000Y-57714600D03*
%TD*%
D12*
%TO.C,SW2*%
X70712000Y-83106000D03*
X61426000Y-83106000D03*
X61426000Y-78606000D03*
X70712000Y-78606000D03*
%TD*%
D17*
%TO.C,*%
X57768400Y-29893000D03*
%TD*%
D24*
%TO.C,U11*%
X44753850Y-57741800D03*
X46653850Y-57741800D03*
X45703850Y-55741800D03*
%TD*%
D25*
%TO.C,TP1*%
X60664000Y-51864000D03*
%TD*%
D17*
%TO.C,*%
X57768400Y-33601400D03*
%TD*%
D21*
%TO.C,R4*%
X44814400Y-92791100D03*
X44814400Y-94791100D03*
%TD*%
D26*
%TO.C,R5*%
X50148400Y-94791100D03*
X50148400Y-92791100D03*
%TD*%
D20*
%TO.C,LED1*%
X33990500Y-64467100D03*
X33997500Y-66066100D03*
%TD*%
D26*
%TO.C,R9*%
X47671900Y-82450000D03*
X47671900Y-80450000D03*
%TD*%
D15*
%TO.C,C19*%
X48675200Y-29672200D03*
X48675200Y-31747200D03*
%TD*%
D22*
%TO.C,H8*%
X99475200Y-34846000D03*
D23*
X102015200Y-34846000D03*
%TD*%
D27*
%TO.C,U3*%
X41196000Y-86208700D03*
X41196000Y-86708700D03*
X41196000Y-87208700D03*
X41196000Y-87708700D03*
X41196000Y-88208700D03*
X41196000Y-88708700D03*
X41196000Y-89208700D03*
D28*
X42146000Y-90158700D03*
X42646000Y-90158700D03*
X43146000Y-90158700D03*
X43646000Y-90158700D03*
X44146000Y-90158700D03*
X44646000Y-90158700D03*
X45146000Y-90158700D03*
D27*
X46096000Y-89208700D03*
X46096000Y-88708700D03*
X46096000Y-88208700D03*
X46096000Y-87708700D03*
X46096000Y-87208700D03*
X46096000Y-86708700D03*
X46096000Y-86208700D03*
D28*
X45146000Y-85258700D03*
X44646000Y-85258700D03*
X44146000Y-85258700D03*
X43646000Y-85258700D03*
X43146000Y-85258700D03*
X42646000Y-85258700D03*
X42146000Y-85258700D03*
D29*
X43646000Y-87708700D03*
%TD*%
D26*
%TO.C,R18*%
X45576400Y-31696400D03*
X45576400Y-29696400D03*
%TD*%
D14*
%TO.C,R23*%
X103881000Y-51025800D03*
X102791000Y-51025800D03*
%TD*%
D11*
%TO.C,Q2*%
X42947500Y-80398400D03*
X42947500Y-82298400D03*
X40448500Y-81348400D03*
%TD*%
D30*
%TO.C,R11*%
X37496750Y-59723400D03*
X37496750Y-60589400D03*
%TD*%
D15*
%TO.C,C5*%
X36889600Y-92765700D03*
X36889600Y-94840700D03*
%TD*%
D18*
%TO.C,H6*%
X107146000Y-57706000D03*
D19*
X109686000Y-57706000D03*
X112226000Y-57706000D03*
X114766000Y-57706000D03*
X117306000Y-57706000D03*
X119846000Y-57706000D03*
%TD*%
D31*
%TO.C,C11*%
X43001950Y-69022200D03*
X41001950Y-69022200D03*
%TD*%
D17*
%TO.C,*%
X57766000Y-28011000D03*
%TD*%
D16*
%TO.C,H12*%
X78571000Y-104061000D03*
%TD*%
D32*
%TO.C,U1*%
X35076000Y-88436700D03*
X36026000Y-88436700D03*
X36976000Y-88436700D03*
X36976000Y-86161700D03*
X36026000Y-86161700D03*
X35076000Y-86161700D03*
%TD*%
D33*
%TO.C,U7*%
X39463150Y-64328600D03*
X39963150Y-64328600D03*
X40463150Y-64328600D03*
X40963150Y-64328600D03*
D34*
X41713150Y-63578600D03*
X41713150Y-63078600D03*
X41713150Y-62578600D03*
X41713150Y-62078600D03*
D33*
X40963150Y-61328600D03*
X40463150Y-61328600D03*
X39963150Y-61328600D03*
X39463150Y-61328600D03*
D34*
X38713150Y-62078100D03*
X38713150Y-62578100D03*
X38713150Y-63078100D03*
X38713150Y-63578100D03*
D35*
X40213150Y-62828600D03*
%TD*%
D25*
%TO.C,TP2*%
X56790500Y-51864000D03*
%TD*%
D36*
%TO.C,C15*%
X61324400Y-65111600D03*
X61324400Y-63711600D03*
%TD*%
D10*
%TO.C,R13*%
X35707150Y-73086200D03*
X38665150Y-73086200D03*
%TD*%
D17*
%TO.C,*%
X61476800Y-29893000D03*
%TD*%
%TO.C,*%
X59648000Y-29893000D03*
%TD*%
%TO.C,*%
X57768400Y-31721800D03*
%TD*%
%TO.C,*%
X44204800Y-88262200D03*
%TD*%
%TO.C,*%
X43087200Y-87144600D03*
%TD*%
%TO.C,*%
X63762800Y-65326000D03*
%TD*%
D14*
%TO.C,C14*%
X42796000Y-59101000D03*
X41706000Y-59101000D03*
%TD*%
D11*
%TO.C,Q5*%
X49701850Y-54170200D03*
X49701850Y-52270200D03*
X47701850Y-53220200D03*
%TD*%
D36*
%TO.C,R20*%
X71873400Y-65137000D03*
X71873400Y-63737000D03*
%TD*%
D17*
%TO.C,*%
X61476000Y-28011000D03*
%TD*%
D14*
%TO.C,R22*%
X103017400Y-48790600D03*
X101927400Y-48790600D03*
%TD*%
D37*
%TO.C,L_B-B1*%
X62608000Y-58976000D03*
X66164000Y-58976000D03*
%TD*%
D14*
%TO.C,R25*%
X101161000Y-41771000D03*
X100071000Y-41771000D03*
%TD*%
D16*
%TO.C,H10*%
X117306000Y-22273000D03*
%TD*%
D26*
%TO.C,R8*%
X45182700Y-82434000D03*
X45182700Y-80434000D03*
%TD*%
D38*
%TO.C,U9*%
X52570000Y-23314400D03*
X52570000Y-24584400D03*
X52570000Y-25854400D03*
X52570000Y-27124400D03*
X52570000Y-28394400D03*
X52570000Y-29664400D03*
X52570000Y-30934400D03*
X52570000Y-32204400D03*
X52570000Y-33474400D03*
X52570000Y-34744400D03*
X52570000Y-36014400D03*
X52570000Y-37284400D03*
X52570000Y-38554400D03*
X52570000Y-39824400D03*
X52570000Y-41094400D03*
X52570000Y-42364400D03*
X52570000Y-43634400D03*
X52570000Y-44904400D03*
X52570000Y-46174400D03*
X70570000Y-46174400D03*
X70570000Y-44904400D03*
X70570000Y-43634400D03*
X70570000Y-42364400D03*
X70570000Y-41094400D03*
X70570000Y-39824400D03*
X70570000Y-38554400D03*
X70570000Y-37284400D03*
X70570000Y-36014400D03*
X70570000Y-34744400D03*
X70570000Y-33474400D03*
X70570000Y-32204400D03*
X70570000Y-30934400D03*
X70570000Y-29664400D03*
X70570000Y-28394400D03*
X70570000Y-27124400D03*
X70570000Y-25854400D03*
X70570000Y-24584400D03*
X70570000Y-23314400D03*
D39*
X58735000Y-28979400D03*
X58735000Y-30814400D03*
X58735000Y-32649400D03*
X60570000Y-28979400D03*
X60570000Y-30814400D03*
X60570000Y-32649400D03*
X62405000Y-28979400D03*
X62405000Y-30814400D03*
X62405000Y-32649400D03*
%TD*%
D40*
%TO.C,C7*%
X71162000Y-54937400D03*
X73237000Y-54937400D03*
%TD*%
%TO.C,C8*%
X71162000Y-57833000D03*
X73237000Y-57833000D03*
%TD*%
D14*
%TO.C,R21*%
X103068200Y-44320200D03*
X101978200Y-44320200D03*
%TD*%
D26*
%TO.C,R3*%
X42172800Y-94772300D03*
X42172800Y-92772300D03*
%TD*%
D21*
%TO.C,R16*%
X29311850Y-36077567D03*
X29311850Y-38077567D03*
%TD*%
D41*
%TO.C,CARD1*%
X106637300Y-44407000D03*
X106637300Y-45507000D03*
X106637300Y-46607000D03*
X106637300Y-47707000D03*
X106637300Y-48807000D03*
X106637300Y-49907000D03*
X106637300Y-51007000D03*
X106637300Y-52107000D03*
D42*
X107637300Y-54407000D03*
D43*
X117237300Y-54407000D03*
X117237300Y-38907000D03*
D44*
X107637300Y-39807000D03*
D41*
X106637300Y-53207000D03*
%TD*%
D16*
%TO.C,H9*%
X30438000Y-22273000D03*
%TD*%
D21*
%TO.C,R19*%
X37905600Y-30915600D03*
X37905600Y-32915600D03*
%TD*%
D26*
%TO.C,R2*%
X40572600Y-26702000D03*
X40572600Y-24702000D03*
%TD*%
D25*
%TO.C,TP3*%
X64728000Y-51864000D03*
%TD*%
D45*
%TO.C,L_B-CH1*%
X45624750Y-64348600D03*
X45624750Y-61398600D03*
%TD*%
D17*
%TO.C,*%
X43087200Y-88262200D03*
%TD*%
%TO.C,*%
X59648000Y-31721800D03*
%TD*%
D14*
%TO.C,C6*%
X30999000Y-28750000D03*
X32089000Y-28750000D03*
%TD*%
D17*
%TO.C,*%
X40674200Y-63294000D03*
%TD*%
D25*
%TO.C,TP4*%
X45297000Y-36573200D03*
%TD*%
D22*
%TO.C,H7*%
X102066000Y-57706000D03*
D23*
X99526000Y-57706000D03*
%TD*%
D46*
%TO.C,H1*%
X91906000Y-42466000D03*
D47*
X89366000Y-42466000D03*
X86826000Y-42466000D03*
%TD*%
D40*
%TO.C,C10*%
X100848500Y-46453800D03*
X102923500Y-46453800D03*
%TD*%
D21*
%TO.C,R6*%
X47456000Y-92791100D03*
X47456000Y-94791100D03*
%TD*%
D26*
%TO.C,R7*%
X52790000Y-94791100D03*
X52790000Y-92791100D03*
%TD*%
D17*
%TO.C,*%
X64386200Y-65326000D03*
%TD*%
D30*
%TO.C,R14*%
X39081950Y-57124600D03*
X39081950Y-57990600D03*
%TD*%
D48*
%TO.C,U5*%
X65386200Y-63826000D03*
X64886200Y-63826000D03*
X64386200Y-63826000D03*
X63886200Y-63826000D03*
X63386200Y-63826000D03*
D49*
X63386200Y-66826000D03*
X63886200Y-66826000D03*
X64386200Y-66826000D03*
X64886200Y-66826000D03*
X65386200Y-66826000D03*
D50*
X64381200Y-65326000D03*
%TD*%
D51*
%TO.C,D3*%
X52205800Y-52016400D03*
X52205800Y-54216400D03*
%TD*%
D46*
%TO.C,H2*%
X91906000Y-50083800D03*
D47*
X89366000Y-50083800D03*
X86826000Y-50083800D03*
%TD*%
D17*
%TO.C,*%
X44204800Y-87144600D03*
%TD*%
D31*
%TO.C,C4*%
X73162000Y-51889400D03*
X71162000Y-51889400D03*
%TD*%
D24*
%TO.C,Q3*%
X32751050Y-30927967D03*
X30851050Y-30927967D03*
X31801050Y-32927967D03*
%TD*%
D17*
%TO.C,*%
X63366000Y-33601000D03*
%TD*%
D52*
%TO.C,C3*%
X76691400Y-81105800D03*
X76691400Y-83105800D03*
%TD*%
D36*
%TO.C,C18*%
X67420400Y-65137000D03*
X67420400Y-63737000D03*
%TD*%
D16*
%TO.C,H11*%
X29041000Y-104061000D03*
%TD*%
D53*
%TO.C,U10*%
X31778500Y-83367700D03*
D54*
X27578500Y-83367700D03*
D53*
X31778500Y-92017700D03*
D54*
X27578500Y-92017700D03*
D55*
X32428500Y-84483700D03*
X32428500Y-85283700D03*
D56*
X32428500Y-86433700D03*
X32428500Y-87433700D03*
X32428500Y-87933700D03*
X32429500Y-88933200D03*
D55*
X32428500Y-90083700D03*
X32428500Y-90883700D03*
D56*
X32428500Y-89433700D03*
X32428500Y-88433700D03*
X32428500Y-86933700D03*
X32429500Y-85933700D03*
%TD*%
D17*
%TO.C,*%
X59648000Y-28013400D03*
%TD*%
%TO.C,*%
X61476800Y-31721800D03*
%TD*%
D57*
%TO.C,C2*%
X73618000Y-83104600D03*
X73618000Y-81029600D03*
%TD*%
D17*
%TO.C,*%
X63366000Y-31721000D03*
%TD*%
D25*
%TO.C,TP5*%
X32698600Y-97965000D03*
%TD*%
D17*
%TO.C,*%
X65007400Y-65326000D03*
%TD*%
D58*
%TO.C,D2*%
X41898250Y-42077167D03*
X39698250Y-42077167D03*
%TD*%
D17*
%TO.C,*%
X40674200Y-62361000D03*
%TD*%
D59*
%TO.C,R1*%
X36667600Y-76924400D03*
X38667600Y-76924400D03*
%TD*%
D60*
%TO.C,Q4*%
X34258650Y-36143567D03*
X34258650Y-38043567D03*
X36728650Y-37093567D03*
%TD*%
D22*
%TO.C,H3*%
X94446000Y-34846000D03*
D23*
X91906000Y-34846000D03*
X89366000Y-34846000D03*
X86826000Y-34846000D03*
%TD*%
D30*
%TO.C,R10*%
X46374450Y-69686800D03*
X46374450Y-70552800D03*
%TD*%
D17*
%TO.C,*%
X59648000Y-33601000D03*
%TD*%
D14*
%TO.C,R26*%
X103726000Y-53701000D03*
X102636000Y-53701000D03*
%TD*%
D61*
%TO.C,R15*%
X41418750Y-57124600D03*
X40552750Y-57124600D03*
%TD*%
D36*
%TO.C,C17*%
X69630200Y-65137000D03*
X69630200Y-63737000D03*
%TD*%
D62*
%TO.C,U2*%
X28738250Y-49857567D03*
X28738250Y-54857567D03*
%TD*%
M02*
