%TF.GenerationSoftware,KiCad,Pcbnew,9.0.1*%
%TF.CreationDate,2025-06-17T01:18:33+02:00*%
%TF.ProjectId,MY-ESP32,4d592d45-5350-4333-922e-6b696361645f,1*%
%TF.SameCoordinates,Original*%
%TF.FileFunction,Soldermask,Bot*%
%TF.FilePolarity,Negative*%
%FSLAX46Y46*%
G04 Gerber Fmt 4.6, Leading zero omitted, Abs format (unit mm)*
G04 Created by KiCad (PCBNEW 9.0.1) date 2025-06-17 01:18:33*
%MOMM*%
%LPD*%
G01*
G04 APERTURE LIST*
G04 Aperture macros list*
%AMRoundRect*
0 Rectangle with rounded corners*
0 $1 Rounding radius*
0 $2 $3 $4 $5 $6 $7 $8 $9 X,Y pos of 4 corners*
0 Add a 4 corners polygon primitive as box body*
4,1,4,$2,$3,$4,$5,$6,$7,$8,$9,$2,$3,0*
0 Add four circle primitives for the rounded corners*
1,1,$1+$1,$2,$3*
1,1,$1+$1,$4,$5*
1,1,$1+$1,$6,$7*
1,1,$1+$1,$8,$9*
0 Add four rect primitives between the rounded corners*
20,1,$1+$1,$2,$3,$4,$5,0*
20,1,$1+$1,$4,$5,$6,$7,0*
20,1,$1+$1,$6,$7,$8,$9,0*
20,1,$1+$1,$8,$9,$2,$3,0*%
G04 Aperture macros list end*
%ADD10C,3.400000*%
%ADD11RoundRect,0.100000X-0.900000X-0.900000X0.900000X-0.900000X0.900000X0.900000X-0.900000X0.900000X0*%
%ADD12C,1.800000*%
%ADD13RoundRect,0.100000X-0.850000X-0.850000X0.850000X-0.850000X0.850000X0.850000X-0.850000X0.850000X0*%
%ADD14C,1.900000*%
%ADD15C,0.850000*%
%ADD16C,1.600000*%
%ADD17RoundRect,0.100000X0.787500X-0.787500X0.787500X0.787500X-0.787500X0.787500X-0.787500X-0.787500X0*%
%ADD18C,1.775000*%
%ADD19RoundRect,0.100000X0.900000X-0.900000X0.900000X0.900000X-0.900000X0.900000X-0.900000X-0.900000X0*%
%ADD20C,2.000000*%
%ADD21O,2.700000X1.400000*%
%ADD22C,3.775000*%
%ADD23RoundRect,0.100000X-0.787500X0.787500X-0.787500X-0.787500X0.787500X-0.787500X0.787500X0.787500X0*%
G04 APERTURE END LIST*
D10*
%TO.C,H11*%
X99060000Y-134780000D03*
%TD*%
D11*
%TO.C,H6*%
X151644600Y-133835800D03*
D12*
X154184600Y-133835800D03*
X156724600Y-133835800D03*
X159264600Y-133835800D03*
X161804600Y-133835800D03*
D11*
X164344600Y-133835800D03*
%TD*%
%TO.C,H5*%
X114179600Y-133835800D03*
D12*
X116719600Y-133835800D03*
X119259600Y-133835800D03*
X121799600Y-133835800D03*
X124339600Y-133835800D03*
D11*
X126879600Y-133835800D03*
%TD*%
D13*
%TO.C,H8*%
X168154600Y-133835800D03*
D14*
X170694600Y-133835800D03*
%TD*%
D13*
%TO.C,H7*%
X107829600Y-133835800D03*
D14*
X110369600Y-133835800D03*
%TD*%
D10*
%TO.C,H10*%
X181460000Y-38661800D03*
%TD*%
D15*
%TO.C,U7*%
X101689600Y-99085800D03*
X101689600Y-104865800D03*
%TD*%
D10*
%TO.C,H12*%
X181490000Y-134790000D03*
%TD*%
D16*
%TO.C,U2*%
X101734600Y-89225800D03*
X101734600Y-91225800D03*
%TD*%
D17*
%TO.C,H1*%
X143592800Y-108639000D03*
D18*
X143592800Y-106099000D03*
X143592800Y-103559000D03*
%TD*%
D19*
%TO.C,SW3*%
X103874600Y-78705800D03*
D20*
X103874600Y-75705800D03*
X103874600Y-72705800D03*
D21*
X103874600Y-69905800D03*
X103874600Y-81505800D03*
%TD*%
D10*
%TO.C,H9*%
X99060000Y-38660000D03*
%TD*%
D22*
%TO.C,U4*%
X177140200Y-87079300D03*
X161906200Y-87079300D03*
D18*
X177146200Y-68561800D03*
D23*
X174606200Y-68560800D03*
D18*
X172066200Y-68559800D03*
X169526200Y-68558800D03*
X166986200Y-68557800D03*
X164446200Y-68556800D03*
X161906200Y-68555800D03*
%TD*%
D17*
%TO.C,H2*%
X135972800Y-108639000D03*
D18*
X135972800Y-106099000D03*
X135972800Y-103559000D03*
%TD*%
M02*
