%TF.GenerationSoftware,KiCad,Pcbnew,9.0.1*%
%TF.CreationDate,2025-06-13T19:07:15+02:00*%
%TF.ProjectId,MY-ESP32,4d592d45-5350-4333-922e-6b696361645f,1*%
%TF.SameCoordinates,Original*%
%TF.FileFunction,Copper,L2,Inr*%
%TF.FilePolarity,Positive*%
%FSLAX46Y46*%
G04 Gerber Fmt 4.6, Leading zero omitted, Abs format (unit mm)*
G04 Created by KiCad (PCBNEW 9.0.1) date 2025-06-13 19:07:15*
%MOMM*%
%LPD*%
G01*
G04 APERTURE LIST*
%TA.AperFunction,Conductor*%
%ADD10C,0.200000*%
%TD*%
%TA.AperFunction,ComponentPad*%
%ADD11R,0.900000X0.900000*%
%TD*%
%TA.AperFunction,ComponentPad*%
%ADD12R,1.800000X1.800000*%
%TD*%
%TA.AperFunction,ComponentPad*%
%ADD13C,1.600000*%
%TD*%
%TA.AperFunction,ComponentPad*%
%ADD14C,1.700000*%
%TD*%
%TA.AperFunction,ComponentPad*%
%ADD15R,1.700000X1.700000*%
%TD*%
%TA.AperFunction,ComponentPad*%
%ADD16C,1.575000*%
%TD*%
%TA.AperFunction,ComponentPad*%
%ADD17R,1.575000X1.575000*%
%TD*%
%TA.AperFunction,ComponentPad*%
%ADD18C,1.400000*%
%TD*%
%TA.AperFunction,ComponentPad*%
%ADD19C,1.800000*%
%TD*%
%TA.AperFunction,ComponentPad*%
%ADD20O,2.500000X1.200000*%
%TD*%
%TA.AperFunction,ComponentPad*%
%ADD21C,3.575000*%
%TD*%
%TA.AperFunction,ViaPad*%
%ADD22C,0.900000*%
%TD*%
%TA.AperFunction,Conductor*%
%ADD23C,0.508000*%
%TD*%
%TA.AperFunction,Conductor*%
%ADD24C,0.250000*%
%TD*%
%TA.AperFunction,Conductor*%
%ADD25C,0.355600*%
%TD*%
G04 APERTURE END LIST*
D10*
%TO.N,+3V3*%
X115163600Y-127177800D02*
G75*
G02*
X113436400Y-127177800I-863600J0D01*
G01*
X113436400Y-127177800D02*
G75*
G02*
X115163600Y-127177800I863600J0D01*
G01*
%TD*%
D11*
%TO.N,GND*%
%TO.C,U6*%
X122450000Y-69040000D03*
X122470000Y-65344400D03*
X122470000Y-70870000D03*
X122470600Y-67197600D03*
X124360000Y-67200000D03*
X124360000Y-69040000D03*
X124360000Y-70900000D03*
X124374400Y-65345400D03*
X126190000Y-65360000D03*
X126200000Y-67210000D03*
X126200000Y-69040000D03*
X126200000Y-70910000D03*
X128090000Y-65344400D03*
X128100000Y-67197600D03*
X128108200Y-69026400D03*
X128110000Y-70900000D03*
%TD*%
D12*
%TO.N,GND*%
%TO.C,H6*%
X114300000Y-142468600D03*
D13*
%TO.N,EXT_5V*%
X114300000Y-145008600D03*
%TO.N,D32*%
X114300000Y-147548600D03*
%TO.N,D35*%
X114300000Y-150088600D03*
%TO.N,GND*%
X114300000Y-152628600D03*
X114300000Y-155168600D03*
%TD*%
D14*
%TO.N,D14*%
%TO.C,H4*%
X114300000Y-124637800D03*
D15*
%TO.N,+3V3*%
X114300000Y-122097800D03*
D14*
X114300000Y-127177800D03*
%TO.N,GND*%
X114300000Y-129717800D03*
%TD*%
D16*
%TO.N,D13*%
%TO.C,H2*%
X121920000Y-122123200D03*
%TO.N,+3V3*%
X121920000Y-124663200D03*
D17*
%TO.N,GND*%
X121920000Y-127203200D03*
%TD*%
D15*
%TO.N,+3V3*%
%TO.C,H3*%
X137160000Y-129692400D03*
D14*
%TO.N,GND*%
X137160000Y-127152400D03*
%TO.N,IO0*%
X137160000Y-124612400D03*
%TO.N,GND*%
X137160000Y-122072400D03*
%TD*%
D15*
%TO.N,+3V3*%
%TO.C,H8*%
X137160000Y-134772400D03*
D14*
%TO.N,GND*%
X137160000Y-137312400D03*
%TD*%
D15*
%TO.N,EXT_5V*%
%TO.C,H7*%
X114300000Y-137312400D03*
D14*
%TO.N,GND*%
X114300000Y-134772400D03*
%TD*%
D18*
%TO.N,/Battery_Voltage_Monitor_with_MOSFETS/V_Batt_Monitor_INPUT*%
%TO.C,U2*%
X92330000Y-107790000D03*
%TO.N,GND*%
X92330000Y-109790000D03*
%TD*%
D17*
%TO.N,D12*%
%TO.C,H1*%
X129540000Y-127203200D03*
D16*
%TO.N,D15*%
X129540000Y-124663200D03*
%TO.N,D2*%
X129540000Y-122123200D03*
%TD*%
D12*
%TO.N,VBAT*%
%TO.C,SW3*%
X94470000Y-97270000D03*
D19*
%TO.N,Net-(D2-C)*%
X94470000Y-94270000D03*
%TO.N,unconnected-(SW3-Pad3)*%
X94470000Y-91270000D03*
D20*
%TO.N,GND*%
X94470000Y-88470000D03*
X94470000Y-100070000D03*
%TD*%
D12*
%TO.N,GND*%
%TO.C,H5*%
X137160000Y-142468600D03*
D13*
%TO.N,D18*%
X137160000Y-145008600D03*
%TO.N,D19*%
X137160000Y-147548600D03*
%TO.N,+3V3*%
X137160000Y-150088600D03*
%TO.N,GND*%
X137160000Y-152628600D03*
%TO.N,D23*%
X137160000Y-155168600D03*
%TD*%
D21*
%TO.N,*%
%TO.C,U4*%
X167735600Y-105643500D03*
X152501600Y-105643500D03*
D16*
%TO.N,+3V3*%
X167741600Y-87126000D03*
D17*
%TO.N,GND*%
X165201600Y-87125000D03*
D16*
%TO.N,D22*%
X162661600Y-87124000D03*
%TO.N,D21*%
X160121600Y-87123000D03*
%TO.N,unconnected-(U4-INT-Pad5)*%
X157581600Y-87122000D03*
%TO.N,unconnected-(U4-RST-Pad6)*%
X155041600Y-87121000D03*
%TO.N,unconnected-(U4-32K-Pad7)*%
X152501600Y-87120000D03*
%TD*%
D22*
%TO.N,GND*%
X104927400Y-147751800D03*
X121300000Y-103930000D03*
%TO.N,+3V3*%
X104394000Y-137134600D03*
X104385600Y-129260600D03*
%TO.N,GND*%
X99051600Y-134467600D03*
X88823800Y-120599200D03*
X94411800Y-77649200D03*
X164185600Y-134137400D03*
X88874600Y-123698000D03*
X140817600Y-95127000D03*
X131724400Y-152518700D03*
X168148000Y-112649000D03*
X119024400Y-152467900D03*
X100685600Y-119546750D03*
X119913400Y-144212900D03*
X93776800Y-134721600D03*
X136855200Y-110693200D03*
X88849200Y-117348000D03*
X125360000Y-104240000D03*
X134213600Y-104902000D03*
X132181600Y-145101900D03*
X168198800Y-134137400D03*
X129622000Y-106405000D03*
X166293800Y-134366000D03*
X97010000Y-123510000D03*
X103124000Y-101854000D03*
X153111200Y-134162800D03*
X156895800Y-134188200D03*
X136804400Y-104444800D03*
X125526800Y-133773500D03*
X155092400Y-134315200D03*
X121666000Y-115062000D03*
X141122400Y-80467200D03*
%TO.N,IO0*%
X137007600Y-77114400D03*
X132613400Y-76276200D03*
X101422200Y-111683800D03*
%TO.N,ENA*%
X88906600Y-86537800D03*
X87782400Y-102235000D03*
%TO.N,+3V3*%
X121716800Y-111099600D03*
X131064000Y-105109200D03*
X131354200Y-87238200D03*
X120675625Y-61878400D03*
X114274600Y-86614000D03*
X136804400Y-99263200D03*
X156464000Y-128346200D03*
X167741600Y-84582000D03*
X164675800Y-112504200D03*
X97739200Y-129794000D03*
%TO.N,D15*%
X133620000Y-79670000D03*
%TO.N,D2*%
X119874600Y-134162800D03*
X132530000Y-78418400D03*
%TO.N,D14*%
X116510000Y-116433600D03*
X115350000Y-76809600D03*
%TO.N,/Battery_Voltage_Monitor_with_MOSFETS/V_Batt_Monitor_INPUT*%
X89916000Y-99872800D03*
%TO.N,EXT_5V*%
X104970400Y-142951200D03*
X105882925Y-97358200D03*
X88650300Y-136194800D03*
X97383600Y-141351000D03*
%TO.N,D12*%
X127355600Y-122072400D03*
X124961600Y-77118400D03*
%TO.N,D13*%
X128390000Y-79640000D03*
%TO.N,D4*%
X138108400Y-75848400D03*
X139827000Y-114655600D03*
%TO.N,D26*%
X113944400Y-73300000D03*
X111760000Y-79502000D03*
%TO.N,D27*%
X113400000Y-79476600D03*
X115290600Y-74540000D03*
%TO.N,D22*%
X137007600Y-63140000D03*
X152781000Y-123393200D03*
X163830000Y-128219200D03*
X146431000Y-68961000D03*
X161594800Y-111150400D03*
%TO.N,D23*%
X136982200Y-61878400D03*
%TO.N,D21*%
X154609800Y-127076200D03*
X160121600Y-108762800D03*
X137033000Y-66960000D03*
X146329400Y-72034400D03*
X165125400Y-126949200D03*
%TO.N,D5*%
X150266400Y-92456000D03*
X142621000Y-92456000D03*
X171399200Y-104643000D03*
X138239500Y-73291700D03*
%TO.N,D19*%
X138988800Y-69510000D03*
%TO.N,D18*%
X137261600Y-70768400D03*
%TO.N,D33*%
X110185200Y-79502000D03*
X111928700Y-73041300D03*
%TO.N,D35*%
X120040000Y-68198600D03*
%TO.N,D32*%
X118890000Y-69500000D03*
%TO.N,DN*%
X94716600Y-119275050D03*
X94716600Y-121942050D03*
%TO.N,/micro_SD-CARD_enable/3V3_Input_to_micro_SD-CARD*%
X123325550Y-132926750D03*
X127660400Y-136144000D03*
X118259600Y-135636000D03*
X121056400Y-135399100D03*
X124167900Y-127444500D03*
X130204600Y-133502400D03*
%TO.N,D25*%
X102646000Y-71992000D03*
X115341400Y-72038400D03*
%TO.N,D-*%
X96046549Y-117665250D03*
X99466400Y-121068050D03*
%TO.N,TXD0*%
X99974400Y-102971600D03*
X104902000Y-116651800D03*
X96799400Y-102920800D03*
X131316100Y-62841500D03*
%TO.N,RXD0*%
X103606600Y-116865150D03*
X132410200Y-65688400D03*
%TO.N,/Buck-Boost3.3V/Buck-Boost_INPUT*%
X121501100Y-100549900D03*
X128516967Y-105098167D03*
%TD*%
D23*
%TO.N,/Buck-Boost3.3V/Buck-Boost_INPUT*%
X121488400Y-102328400D02*
X121488400Y-100562600D01*
X124790000Y-105630000D02*
X121488400Y-102328400D01*
X121488400Y-100562600D02*
X121501100Y-100549900D01*
X128516967Y-105098167D02*
X127985134Y-105630000D01*
X127985134Y-105630000D02*
X124790000Y-105630000D01*
%TO.N,/Battery_Voltage_Monitor_with_MOSFETS/V_Batt_Monitor_INPUT*%
X91703200Y-106883200D02*
X91850000Y-107030000D01*
X91440000Y-106883200D02*
X91703200Y-106883200D01*
X91440000Y-106980000D02*
X91660000Y-107200000D01*
X91440000Y-106980000D02*
X91440000Y-106883200D01*
%TO.N,+3V3*%
X167741600Y-88265000D02*
X167513000Y-88036400D01*
X167741600Y-88519000D02*
X167741600Y-88265000D01*
X167741600Y-88519000D02*
X167741600Y-88051600D01*
%TO.N,/Battery_Voltage_Monitor_with_MOSFETS/V_Batt_Monitor_INPUT*%
X91440000Y-106883200D02*
X91694000Y-106883200D01*
X89916000Y-105359200D02*
X91440000Y-106883200D01*
X89916000Y-105224550D02*
X89916000Y-105359200D01*
%TO.N,EXT_5V*%
X113157000Y-137261600D02*
X113309400Y-137109200D01*
X112979200Y-137261600D02*
X113157000Y-137261600D01*
X112979200Y-137261600D02*
X113334800Y-137261600D01*
X111404400Y-137261600D02*
X112979200Y-137261600D01*
X111353600Y-137312400D02*
X111404400Y-137261600D01*
X113055400Y-145008600D02*
X113360200Y-144703800D01*
X112725200Y-145008600D02*
X113055400Y-145008600D01*
X112725200Y-145008600D02*
X113360200Y-145008600D01*
%TO.N,+3V3*%
X136230400Y-149250400D02*
X136652000Y-149250400D01*
X136199900Y-149219900D02*
X136230400Y-149250400D01*
X136199900Y-149219900D02*
X135636000Y-148656000D01*
X122842400Y-124612400D02*
X122842400Y-124518800D01*
X121310000Y-123977800D02*
X121285000Y-124002800D01*
X121310000Y-123950000D02*
X121310000Y-123977800D01*
X121337800Y-123950000D02*
X121361200Y-123926600D01*
X121310000Y-123950000D02*
X121337800Y-123950000D01*
X115417600Y-122097800D02*
X115265200Y-121945400D01*
X115697000Y-122097800D02*
X115417600Y-122097800D01*
X115697000Y-122097800D02*
X115282200Y-122097800D01*
X113131600Y-122097800D02*
X113360200Y-121869200D01*
X112776000Y-122097800D02*
X113131600Y-122097800D01*
X112776000Y-122097800D02*
X113327800Y-122097800D01*
X113360200Y-126796800D02*
X113385600Y-126796800D01*
X112979200Y-127177800D02*
X113360200Y-126796800D01*
X112979200Y-127177800D02*
X113334800Y-127177800D01*
X108534200Y-127177800D02*
X112979200Y-127177800D01*
X135724900Y-130517900D02*
X135724900Y-130416300D01*
X135724900Y-130416300D02*
X135001000Y-129692400D01*
X135636000Y-130606800D02*
X135724900Y-130517900D01*
X135001000Y-129692400D02*
X135640000Y-129692400D01*
X135640000Y-129692400D02*
X135890000Y-129692400D01*
X136169400Y-130073400D02*
X136220200Y-130073400D01*
X136220200Y-130022600D02*
X135890000Y-129692400D01*
X135636000Y-130606800D02*
X135636000Y-129696400D01*
X136220200Y-130073400D02*
X136220200Y-130022600D01*
X135636000Y-130606800D02*
X136169400Y-130073400D01*
X135890000Y-134035800D02*
X135991600Y-134137400D01*
X135636000Y-134035800D02*
X135636000Y-133502400D01*
X135636000Y-134035800D02*
X135890000Y-134035800D01*
X136144000Y-134289800D02*
X136144000Y-134747000D01*
X136321800Y-134112000D02*
X136144000Y-134289800D01*
X136055100Y-133845300D02*
X136321800Y-134112000D01*
X135712200Y-133502400D02*
X136055100Y-133845300D01*
X135636000Y-133502400D02*
X135712200Y-133502400D01*
X135636000Y-133502400D02*
X135636000Y-130606800D01*
%TO.N,EXT_5V*%
X106979000Y-145008600D02*
X112725200Y-145008600D01*
%TO.N,+3V3*%
X104385600Y-137126200D02*
X104394000Y-137134600D01*
X104385600Y-131002100D02*
X104385600Y-137126200D01*
X104385600Y-129260600D02*
X104385600Y-129199300D01*
X136177600Y-129692400D02*
X136180000Y-129690000D01*
X135890000Y-129692400D02*
X136177600Y-129692400D01*
X135940000Y-134950000D02*
X136250000Y-135260000D01*
X135636000Y-134950000D02*
X135940000Y-134950000D01*
X135636000Y-134950000D02*
X135636000Y-134035800D01*
X136090000Y-135550000D02*
X135940000Y-135400000D01*
X136380000Y-135550000D02*
X136090000Y-135550000D01*
X135636000Y-136296400D02*
X135636000Y-134950000D01*
X135636000Y-129696400D02*
X135640000Y-129692400D01*
X136380000Y-135552400D02*
X136380000Y-135550000D01*
X135636000Y-136296400D02*
X136380000Y-135552400D01*
X136460000Y-149480000D02*
X136199900Y-149219900D01*
X135636000Y-148656000D02*
X135636000Y-136296400D01*
X115282200Y-122097800D02*
X115280000Y-122100000D01*
X119365100Y-122097800D02*
X115697000Y-122097800D01*
X111912400Y-122097800D02*
X112776000Y-122097800D01*
X122842400Y-124612400D02*
X122840000Y-124610000D01*
X123799600Y-124612400D02*
X122842400Y-124612400D01*
X119457800Y-122097800D02*
X121310000Y-123950000D01*
X119365100Y-122097800D02*
X119457800Y-122097800D01*
X167741600Y-88051600D02*
X167740000Y-88050000D01*
X167741600Y-98704400D02*
X167741600Y-88519000D01*
X108534200Y-127177800D02*
X108000800Y-126644400D01*
X111912400Y-122097800D02*
X111487100Y-122097800D01*
X111487100Y-122097800D02*
X111150400Y-122434500D01*
X111666700Y-122097800D02*
X111912400Y-122097800D01*
X111641300Y-122072400D02*
X111666700Y-122097800D01*
X108004050Y-126641150D02*
X108000800Y-126644400D01*
X121721100Y-111099600D02*
X121716800Y-111099600D01*
X130496000Y-88126000D02*
X130863000Y-87759000D01*
X130863000Y-87759000D02*
X130863000Y-87325200D01*
X130496000Y-88126000D02*
X131354200Y-87267800D01*
X131354200Y-87267800D02*
X131354200Y-87238200D01*
X164693600Y-112486400D02*
X164693600Y-101752400D01*
X111150400Y-110540800D02*
X111709200Y-111099600D01*
X114274600Y-86614000D02*
X114096800Y-86614000D01*
X136906000Y-99364800D02*
X136804400Y-99263200D01*
X166979600Y-81940400D02*
X167792400Y-82753200D01*
X111150400Y-121310400D02*
X111150400Y-122072400D01*
X131354200Y-87238200D02*
X131369000Y-87253000D01*
X111150400Y-113919000D02*
X111150400Y-112979200D01*
X123799600Y-124612400D02*
X128879600Y-129692400D01*
X111641300Y-122072400D02*
X111395850Y-121826950D01*
X130880000Y-81026000D02*
X130880000Y-81502400D01*
X111150400Y-111099600D02*
X111150400Y-110210600D01*
X104385600Y-129199300D02*
X106937250Y-126647650D01*
X130880000Y-81502400D02*
X131318000Y-81940400D01*
X111709200Y-111099600D02*
X111150400Y-111099600D01*
X106937250Y-126647650D02*
X107470650Y-126114250D01*
X111150400Y-110210600D02*
X111150400Y-110540800D01*
X103929000Y-130980600D02*
X104364100Y-130980600D01*
X167792400Y-84531200D02*
X167741600Y-84582000D01*
X111150400Y-122434500D02*
X111150400Y-122072400D01*
X130880000Y-86730000D02*
X130863000Y-86747000D01*
X164642800Y-112522000D02*
X164658000Y-112522000D01*
X104364100Y-130980600D02*
X104385600Y-131002100D01*
X131318000Y-81940400D02*
X166979600Y-81940400D01*
X130880000Y-82550000D02*
X130880000Y-82378400D01*
X111150400Y-112014000D02*
X111150400Y-111658400D01*
X130372000Y-86614000D02*
X130880000Y-86106000D01*
X111150400Y-111658400D02*
X111709200Y-111099600D01*
X111150400Y-107471600D02*
X130496000Y-88126000D01*
X104385600Y-131002100D02*
X104385600Y-130962400D01*
X128879600Y-129692400D02*
X135001000Y-129692400D01*
X111150400Y-122072400D02*
X111641300Y-122072400D01*
X130880000Y-81940400D02*
X131318000Y-81940400D01*
X108004050Y-126641150D02*
X107997550Y-126647650D01*
X164658000Y-112522000D02*
X164675800Y-112504200D01*
X108004050Y-125580850D02*
X108004050Y-126641150D01*
X125476000Y-86614000D02*
X114274600Y-86614000D01*
X127173000Y-61853000D02*
X130880000Y-65560000D01*
X111150400Y-121310400D02*
X111150400Y-121581500D01*
X136906000Y-100482400D02*
X136906000Y-99364800D01*
X111150400Y-112979200D02*
X111150400Y-112014000D01*
X111150400Y-112014000D02*
X111150400Y-111099600D01*
X136601200Y-100791400D02*
X136601200Y-100787200D01*
X130352800Y-86614000D02*
X125476000Y-86614000D01*
X130863000Y-87325200D02*
X130863000Y-87105000D01*
X108004050Y-125580850D02*
X111150400Y-122434500D01*
X130880000Y-86106000D02*
X130880000Y-86730000D01*
X130730000Y-86614000D02*
X130352800Y-86614000D01*
X156464000Y-128346200D02*
X156464000Y-120700800D01*
X111395850Y-121826950D02*
X111150400Y-121581500D01*
X167792400Y-82753200D02*
X167792400Y-84531200D01*
X164675800Y-112504200D02*
X164693600Y-112486400D01*
X111512500Y-122072400D02*
X111150400Y-122434500D01*
X108000800Y-126644400D02*
X107470650Y-126114250D01*
X111150400Y-121310400D02*
X111150400Y-113919000D01*
X130863000Y-86747000D02*
X131354200Y-87238200D01*
X111150400Y-110210600D02*
X111150400Y-107471600D01*
X130880000Y-82550000D02*
X130880000Y-86106000D01*
X131369000Y-87253000D02*
X130730000Y-86614000D01*
X130880000Y-65560000D02*
X130880000Y-81026000D01*
X130880000Y-82378400D02*
X131318000Y-81940400D01*
X97739200Y-130980600D02*
X97739200Y-129844800D01*
X130880000Y-81026000D02*
X130880000Y-81940400D01*
X107470650Y-126114250D02*
X108004050Y-125580850D01*
X104385600Y-130962400D02*
X104385600Y-129260600D01*
X120629027Y-61878400D02*
X120675625Y-61878400D01*
X164693600Y-101752400D02*
X167741600Y-98704400D01*
X132283400Y-105109200D02*
X131092000Y-105109200D01*
X130863000Y-87105000D02*
X130372000Y-86614000D01*
X136601200Y-100791400D02*
X132283400Y-105109200D01*
X121716800Y-111099600D02*
X111709200Y-111099600D01*
X136601200Y-100787200D02*
X136906000Y-100482400D01*
X107997550Y-126647650D02*
X106937250Y-126647650D01*
X156464000Y-120700800D02*
X164642800Y-112522000D01*
X130863000Y-87325200D02*
X130863000Y-86747000D01*
X120701025Y-61853000D02*
X127173000Y-61853000D01*
X120675625Y-61878400D02*
X120701025Y-61853000D01*
X130352800Y-86614000D02*
X130372000Y-86614000D01*
X97739200Y-130980600D02*
X103929000Y-130980600D01*
X130880000Y-81940400D02*
X130880000Y-82550000D01*
%TO.N,/Battery_Voltage_Monitor_with_MOSFETS/V_Batt_Monitor_INPUT*%
X89916000Y-99872800D02*
X89916000Y-105224550D01*
%TO.N,EXT_5V*%
X88731500Y-136125000D02*
X88731500Y-136252200D01*
X88650300Y-136194800D02*
X88650300Y-136171000D01*
X104394000Y-142265400D02*
X104970400Y-142265400D01*
X103479600Y-141351000D02*
X104394000Y-142265400D01*
X91388600Y-133432700D02*
X91388600Y-129820000D01*
X106908600Y-98450400D02*
X105892600Y-97434400D01*
X91388600Y-129820000D02*
X92964000Y-128244600D01*
X88650300Y-136171000D02*
X91388600Y-133432700D01*
X105892600Y-97434400D02*
X105882925Y-97434400D01*
X104970400Y-142951200D02*
X104970400Y-142705000D01*
X105410000Y-142265400D02*
X106400600Y-142265400D01*
X104970400Y-142705000D02*
X105410000Y-142265400D01*
X104970400Y-143000000D02*
X104970400Y-142951200D01*
X104970400Y-143000000D02*
X106979000Y-145008600D01*
X92964000Y-128244600D02*
X101092000Y-128244600D01*
X101092000Y-128244600D02*
X106908600Y-122428000D01*
X104970400Y-143000000D02*
X104970400Y-142841800D01*
X104970400Y-142841800D02*
X104394000Y-142265400D01*
X88674100Y-136194800D02*
X88650300Y-136194800D01*
X104970400Y-142265400D02*
X105410000Y-142265400D01*
X97383600Y-141351000D02*
X103479600Y-141351000D01*
X106908600Y-122428000D02*
X106908600Y-98450400D01*
X88731500Y-136252200D02*
X88674100Y-136194800D01*
X106400600Y-142265400D02*
X111353600Y-137312400D01*
X104970400Y-142265400D02*
X104970400Y-143000000D01*
%TO.N,/micro_SD-CARD_enable/3V3_Input_to_micro_SD-CARD*%
X122656150Y-133596150D02*
X123325550Y-132926750D01*
X122000000Y-133011500D02*
X122071500Y-133011500D01*
D24*
X118269600Y-135639500D02*
X118259600Y-135649500D01*
D23*
X127660400Y-136144000D02*
X127660400Y-136053400D01*
X121056400Y-135399100D02*
X121056400Y-135195900D01*
D25*
X127660400Y-136144000D02*
X127660400Y-136028700D01*
D23*
X127266700Y-130543300D02*
X127220300Y-130496900D01*
X127660400Y-136053400D02*
X130204600Y-133509200D01*
X130204600Y-133509200D02*
X130204600Y-133481200D01*
X122000000Y-133011500D02*
X119148500Y-133011500D01*
X124155200Y-127431800D02*
X124167900Y-127444500D01*
X122071500Y-133011500D02*
X122656150Y-133596150D01*
X121056400Y-135195900D02*
X122656150Y-133596150D01*
X126534500Y-130496900D02*
X125755400Y-129717800D01*
X119148500Y-133011500D02*
X118259600Y-133900400D01*
X126568200Y-130496900D02*
X125755400Y-130496900D01*
X127220300Y-130496900D02*
X126568200Y-130496900D01*
X125755400Y-129032000D02*
X127266700Y-130543300D01*
X125755400Y-129717800D02*
X125755400Y-130496900D01*
X123325550Y-132926750D02*
X123240800Y-133011500D01*
X123240800Y-133011500D02*
X122000000Y-133011500D01*
X118259600Y-135636000D02*
X118259600Y-135649500D01*
X124167900Y-127444500D02*
X125755400Y-129032000D01*
X125294050Y-130958250D02*
X123325550Y-132926750D01*
X125755400Y-129032000D02*
X125755400Y-129717800D01*
X126568200Y-130496900D02*
X126534500Y-130496900D01*
X124155200Y-127431800D02*
X124180600Y-127431800D01*
X118259600Y-133900400D02*
X118259600Y-135636000D01*
X126011150Y-130241150D02*
X125294050Y-130958250D01*
X130204600Y-133481200D02*
X127266700Y-130543300D01*
X125755400Y-130496900D02*
X125294050Y-130958250D01*
%TO.N,/Buck-Boost3.3V/Buck-Boost_INPUT*%
X128550575Y-105064560D02*
X128516967Y-105098167D01*
%TD*%
M02*
