%TF.GenerationSoftware,KiCad,Pcbnew,9.0.1*%
%TF.CreationDate,2025-06-17T08:09:02+02:00*%
%TF.ProjectId,MY-ESP32,4d592d45-5350-4333-922e-6b696361645f,1*%
%TF.SameCoordinates,Original*%
%TF.FileFunction,Paste,Top*%
%TF.FilePolarity,Positive*%
%FSLAX46Y46*%
G04 Gerber Fmt 4.6, Leading zero omitted, Abs format (unit mm)*
G04 Created by KiCad (PCBNEW 9.0.1) date 2025-06-17 08:09:02*
%MOMM*%
%LPD*%
G01*
G04 APERTURE LIST*
G04 Aperture macros list*
%AMRoundRect*
0 Rectangle with rounded corners*
0 $1 Rounding radius*
0 $2 $3 $4 $5 $6 $7 $8 $9 X,Y pos of 4 corners*
0 Add a 4 corners polygon primitive as box body*
4,1,4,$2,$3,$4,$5,$6,$7,$8,$9,$2,$3,0*
0 Add four circle primitives for the rounded corners*
1,1,$1+$1,$2,$3*
1,1,$1+$1,$4,$5*
1,1,$1+$1,$6,$7*
1,1,$1+$1,$8,$9*
0 Add four rect primitives between the rounded corners*
20,1,$1+$1,$2,$3,$4,$5,0*
20,1,$1+$1,$4,$5,$6,$7,0*
20,1,$1+$1,$6,$7,$8,$9,0*
20,1,$1+$1,$8,$9,$2,$3,0*%
%AMFreePoly0*
4,1,21,-0.180000,0.885000,0.180000,0.885000,0.180000,1.715000,0.470000,1.715000,0.470000,0.885000,0.760000,0.885000,0.760000,-0.885000,0.470000,-0.885000,0.470000,-1.705000,0.180000,-1.705000,0.180000,-0.885000,-0.180000,-0.885000,-0.180000,-1.705000,-0.470000,-1.705000,-0.470000,-0.885000,-0.760000,-0.885000,-0.760000,0.895000,-0.470000,0.895000,-0.470000,1.715000,-0.180000,1.715000,
-0.180000,0.885000,-0.180000,0.885000,$1*%
G04 Aperture macros list end*
%ADD10C,0.000000*%
%ADD11RoundRect,0.250000X0.350000X0.450000X-0.350000X0.450000X-0.350000X-0.450000X0.350000X-0.450000X0*%
%ADD12R,0.700000X1.250000*%
%ADD13RoundRect,0.250000X-0.475000X0.337500X-0.475000X-0.337500X0.475000X-0.337500X0.475000X0.337500X0*%
%ADD14R,0.540000X0.790000*%
%ADD15R,0.240000X0.850000*%
%ADD16R,0.230000X0.800000*%
%ADD17FreePoly0,270.000000*%
%ADD18RoundRect,0.250000X-0.450000X0.350000X-0.450000X-0.350000X0.450000X-0.350000X0.450000X0.350000X0*%
%ADD19R,0.540000X0.565500*%
%ADD20R,0.900000X0.800000*%
%ADD21R,1.150000X0.600000*%
%ADD22R,1.150000X0.300000*%
%ADD23R,2.000000X2.180000*%
%ADD24R,0.700000X1.600000*%
%ADD25R,1.200000X1.500000*%
%ADD26R,1.200000X2.200000*%
%ADD27R,1.600000X1.500000*%
%ADD28R,0.600000X1.070000*%
%ADD29R,1.300000X1.300000*%
%ADD30RoundRect,0.250000X0.450000X-0.350000X0.450000X0.350000X-0.450000X0.350000X-0.450000X-0.350000X0*%
%ADD31RoundRect,0.250000X-0.337500X-0.475000X0.337500X-0.475000X0.337500X0.475000X-0.337500X0.475000X0*%
%ADD32RoundRect,0.250000X0.475000X-0.337500X0.475000X0.337500X-0.475000X0.337500X-0.475000X-0.337500X0*%
%ADD33RoundRect,0.225000X-0.225000X-0.225000X0.225000X-0.225000X0.225000X0.225000X-0.225000X0.225000X0*%
%ADD34RoundRect,0.062500X-0.337500X-0.062500X0.337500X-0.062500X0.337500X0.062500X-0.337500X0.062500X0*%
%ADD35RoundRect,0.062500X-0.062500X-0.337500X0.062500X-0.337500X0.062500X0.337500X-0.062500X0.337500X0*%
%ADD36R,1.410000X1.350000*%
%ADD37R,1.070000X0.600000*%
%ADD38R,1.250000X0.700000*%
%ADD39RoundRect,0.250000X-0.350000X-0.450000X0.350000X-0.450000X0.350000X0.450000X-0.350000X0.450000X0*%
%ADD40RoundRect,0.150000X0.150000X-0.512500X0.150000X0.512500X-0.150000X0.512500X-0.150000X-0.512500X0*%
%ADD41R,0.864000X0.806500*%
%ADD42R,2.000000X0.900000*%
%ADD43R,1.330000X1.330000*%
%ADD44R,2.124000X3.820000*%
%ADD45R,0.806500X0.864000*%
%ADD46R,0.660400X1.549400*%
%ADD47R,1.295400X1.905000*%
%ADD48R,1.000000X0.900000*%
%ADD49R,0.750000X0.700000*%
%ADD50RoundRect,0.250000X0.337500X0.475000X-0.337500X0.475000X-0.337500X-0.475000X0.337500X-0.475000X0*%
G04 APERTURE END LIST*
D10*
%TO.C,R20*%
G36*
X131799800Y-119415200D02*
G01*
X131799800Y-119895200D01*
X131749800Y-119965200D01*
X131299800Y-119965200D01*
X131249800Y-119895200D01*
X131249800Y-119415200D01*
X131299800Y-119365200D01*
X131749800Y-119365200D01*
X131799800Y-119415200D01*
G37*
G36*
X131799800Y-120395200D02*
G01*
X131799800Y-120875200D01*
X131749800Y-120925200D01*
X131299800Y-120925200D01*
X131249800Y-120875200D01*
X131249800Y-120395200D01*
X131299800Y-120325200D01*
X131749800Y-120325200D01*
X131799800Y-120395200D01*
G37*
%TO.C,R19*%
G36*
X134035000Y-118512400D02*
G01*
X134035000Y-118992400D01*
X133985000Y-119062400D01*
X133535000Y-119062400D01*
X133485000Y-118992400D01*
X133485000Y-118512400D01*
X133535000Y-118462400D01*
X133985000Y-118462400D01*
X134035000Y-118512400D01*
G37*
G36*
X134035000Y-119492400D02*
G01*
X134035000Y-119972400D01*
X133985000Y-120022400D01*
X133535000Y-120022400D01*
X133485000Y-119972400D01*
X133485000Y-119492400D01*
X133535000Y-119422400D01*
X133985000Y-119422400D01*
X134035000Y-119492400D01*
G37*
%TO.C,R10*%
G36*
X119824600Y-62165300D02*
G01*
X119824600Y-62665800D01*
X119784600Y-62705800D01*
X119324600Y-62705800D01*
X119284600Y-62665800D01*
X119284600Y-62165300D01*
X119324600Y-62125300D01*
X119784600Y-62125300D01*
X119824600Y-62165300D01*
G37*
G36*
X119824600Y-63015800D02*
G01*
X119824600Y-63516300D01*
X119784600Y-63556300D01*
X119324600Y-63556300D01*
X119284600Y-63516300D01*
X119284600Y-63015800D01*
X119324600Y-62975800D01*
X119784600Y-62975800D01*
X119824600Y-63015800D01*
G37*
%TO.C,R22*%
G36*
X141045400Y-116632800D02*
G01*
X141045400Y-117112800D01*
X140995400Y-117182800D01*
X140545400Y-117182800D01*
X140495400Y-117112800D01*
X140495400Y-116632800D01*
X140545400Y-116582800D01*
X140995400Y-116582800D01*
X141045400Y-116632800D01*
G37*
G36*
X141045400Y-117612800D02*
G01*
X141045400Y-118092800D01*
X140995400Y-118142800D01*
X140545400Y-118142800D01*
X140495400Y-118092800D01*
X140495400Y-117612800D01*
X140545400Y-117542800D01*
X140995400Y-117542800D01*
X141045400Y-117612800D01*
G37*
%TO.C,R23*%
G36*
X129082000Y-119034200D02*
G01*
X129082000Y-119514200D01*
X129032000Y-119584200D01*
X128582000Y-119584200D01*
X128532000Y-119514200D01*
X128532000Y-119034200D01*
X128582000Y-118984200D01*
X129032000Y-118984200D01*
X129082000Y-119034200D01*
G37*
G36*
X129082000Y-120014200D02*
G01*
X129082000Y-120494200D01*
X129032000Y-120544200D01*
X128582000Y-120544200D01*
X128532000Y-120494200D01*
X128532000Y-120014200D01*
X128582000Y-119944200D01*
X129032000Y-119944200D01*
X129082000Y-120014200D01*
G37*
%TO.C,C3*%
G36*
X98856200Y-64544600D02*
G01*
X98861200Y-64954600D01*
X98411200Y-64954600D01*
X98411200Y-65404600D01*
X98851200Y-65404600D01*
X98856200Y-65824600D01*
X98806200Y-65874600D01*
X97656200Y-65874600D01*
X97606200Y-65824600D01*
X97606200Y-64544600D01*
X97656200Y-64494600D01*
X98806200Y-64494600D01*
X98856200Y-64544600D01*
G37*
G36*
X101016200Y-64544600D02*
G01*
X101016200Y-65824600D01*
X100966200Y-65874600D01*
X99816200Y-65874600D01*
X99766200Y-65824600D01*
X99761200Y-65414600D01*
X100211200Y-65414600D01*
X100211200Y-64964600D01*
X99771200Y-64964600D01*
X99766200Y-64544600D01*
X99816200Y-64494600D01*
X100966200Y-64494600D01*
X101016200Y-64544600D01*
G37*
%TO.C,R30*%
G36*
X127380400Y-105378100D02*
G01*
X127380400Y-106178100D01*
X127330400Y-106228100D01*
X127088400Y-106228100D01*
X127088400Y-105858100D01*
X126758400Y-105858100D01*
X126758400Y-106228100D01*
X126530400Y-106228100D01*
X126480400Y-106178100D01*
X126480400Y-105378100D01*
X126530400Y-105328100D01*
X127330400Y-105328100D01*
X127380400Y-105378100D01*
G37*
G36*
X126772400Y-107288100D02*
G01*
X127102400Y-107288100D01*
X127102400Y-106918100D01*
X127330400Y-106918100D01*
X127380400Y-106968100D01*
X127380400Y-107768100D01*
X127330400Y-107818100D01*
X126530400Y-107818100D01*
X126480400Y-107768100D01*
X126480400Y-106968100D01*
X126530400Y-106918100D01*
X126772400Y-106918100D01*
X126772400Y-107288100D01*
G37*
%TO.C,R11*%
G36*
X123074600Y-62165300D02*
G01*
X123074600Y-62665800D01*
X123034600Y-62705800D01*
X122574600Y-62705800D01*
X122534600Y-62665800D01*
X122534600Y-62165300D01*
X122574600Y-62125300D01*
X123034600Y-62125300D01*
X123074600Y-62165300D01*
G37*
G36*
X123074600Y-63015800D02*
G01*
X123074600Y-63516300D01*
X123034600Y-63556300D01*
X122574600Y-63556300D01*
X122534600Y-63516300D01*
X122534600Y-63015800D01*
X122574600Y-62975800D01*
X123034600Y-62975800D01*
X123074600Y-63015800D01*
G37*
%TO.C,R28*%
G36*
X176606500Y-109610600D02*
G01*
X176606500Y-109852600D01*
X176236500Y-109852600D01*
X176236500Y-110182600D01*
X176606500Y-110182600D01*
X176606500Y-110410600D01*
X176556500Y-110460600D01*
X175756500Y-110460600D01*
X175706500Y-110410600D01*
X175706500Y-109610600D01*
X175756500Y-109560600D01*
X176556500Y-109560600D01*
X176606500Y-109610600D01*
G37*
G36*
X178196500Y-109610600D02*
G01*
X178196500Y-110410600D01*
X178146500Y-110460600D01*
X177346500Y-110460600D01*
X177296500Y-110410600D01*
X177296500Y-110168600D01*
X177666500Y-110168600D01*
X177666500Y-109838600D01*
X177296500Y-109838600D01*
X177296500Y-109610600D01*
X177346500Y-109560600D01*
X178146500Y-109560600D01*
X178196500Y-109610600D01*
G37*
%TO.C,C6*%
G36*
X105810200Y-55425600D02*
G01*
X105810200Y-55905600D01*
X105760200Y-55975600D01*
X105310200Y-55975600D01*
X105260200Y-55905600D01*
X105260200Y-55425600D01*
X105310200Y-55375600D01*
X105760200Y-55375600D01*
X105810200Y-55425600D01*
G37*
G36*
X105810200Y-56405600D02*
G01*
X105810200Y-56885600D01*
X105760200Y-56935600D01*
X105310200Y-56935600D01*
X105260200Y-56885600D01*
X105260200Y-56405600D01*
X105310200Y-56335600D01*
X105760200Y-56335600D01*
X105810200Y-56405600D01*
G37*
%TO.C,R27*%
G36*
X138658900Y-99577600D02*
G01*
X138658900Y-99819600D01*
X138288900Y-99819600D01*
X138288900Y-100149600D01*
X138658900Y-100149600D01*
X138658900Y-100377600D01*
X138608900Y-100427600D01*
X137808900Y-100427600D01*
X137758900Y-100377600D01*
X137758900Y-99577600D01*
X137808900Y-99527600D01*
X138608900Y-99527600D01*
X138658900Y-99577600D01*
G37*
G36*
X140248900Y-99577600D02*
G01*
X140248900Y-100377600D01*
X140198900Y-100427600D01*
X139398900Y-100427600D01*
X139348900Y-100377600D01*
X139348900Y-100135600D01*
X139718900Y-100135600D01*
X139718900Y-99805600D01*
X139348900Y-99805600D01*
X139348900Y-99577600D01*
X139398900Y-99527600D01*
X140198900Y-99527600D01*
X140248900Y-99577600D01*
G37*
%TO.C,C4*%
G36*
X145847600Y-69979200D02*
G01*
X145852600Y-70389200D01*
X145402600Y-70389200D01*
X145402600Y-70839200D01*
X145842600Y-70839200D01*
X145847600Y-71259200D01*
X145797600Y-71309200D01*
X144647600Y-71309200D01*
X144597600Y-71259200D01*
X144597600Y-69979200D01*
X144647600Y-69929200D01*
X145797600Y-69929200D01*
X145847600Y-69979200D01*
G37*
G36*
X148007600Y-69979200D02*
G01*
X148007600Y-71259200D01*
X147957600Y-71309200D01*
X146807600Y-71309200D01*
X146757600Y-71259200D01*
X146752600Y-70849200D01*
X147202600Y-70849200D01*
X147202600Y-70399200D01*
X146762600Y-70399200D01*
X146757600Y-69979200D01*
X146807600Y-69929200D01*
X147957600Y-69929200D01*
X148007600Y-69979200D01*
G37*
%TO.C,R21*%
G36*
X143128200Y-116480400D02*
G01*
X143128200Y-116960400D01*
X143078200Y-117030400D01*
X142628200Y-117030400D01*
X142578200Y-116960400D01*
X142578200Y-116480400D01*
X142628200Y-116430400D01*
X143078200Y-116430400D01*
X143128200Y-116480400D01*
G37*
G36*
X143128200Y-117460400D02*
G01*
X143128200Y-117940400D01*
X143078200Y-117990400D01*
X142628200Y-117990400D01*
X142578200Y-117940400D01*
X142578200Y-117460400D01*
X142628200Y-117390400D01*
X143078200Y-117390400D01*
X143128200Y-117460400D01*
G37*
%TO.C,R18*%
G36*
X138505400Y-118614000D02*
G01*
X138505400Y-119094000D01*
X138455400Y-119164000D01*
X138005400Y-119164000D01*
X137955400Y-119094000D01*
X137955400Y-118614000D01*
X138005400Y-118564000D01*
X138455400Y-118564000D01*
X138505400Y-118614000D01*
G37*
G36*
X138505400Y-119594000D02*
G01*
X138505400Y-120074000D01*
X138455400Y-120124000D01*
X138005400Y-120124000D01*
X137955400Y-120074000D01*
X137955400Y-119594000D01*
X138005400Y-119524000D01*
X138455400Y-119524000D01*
X138505400Y-119594000D01*
G37*
%TO.C,R12*%
G36*
X121434600Y-62165300D02*
G01*
X121434600Y-62665800D01*
X121394600Y-62705800D01*
X120934600Y-62705800D01*
X120894600Y-62665800D01*
X120894600Y-62165300D01*
X120934600Y-62125300D01*
X121394600Y-62125300D01*
X121434600Y-62165300D01*
G37*
G36*
X121434600Y-63015800D02*
G01*
X121434600Y-63516300D01*
X121394600Y-63556300D01*
X120934600Y-63556300D01*
X120894600Y-63516300D01*
X120894600Y-63015800D01*
X120934600Y-62975800D01*
X121394600Y-62975800D01*
X121434600Y-63015800D01*
G37*
%TD*%
D11*
%TO.C,R25*%
X140761700Y-92560800D03*
X138761700Y-92560800D03*
%TD*%
D12*
%TO.C,Q1*%
X112685800Y-90932850D03*
X110785800Y-90932850D03*
X111735800Y-88433850D03*
%TD*%
D13*
%TO.C,C10*%
X136096800Y-117638400D03*
X136096800Y-119713400D03*
%TD*%
D14*
%TO.C,R20*%
X131524800Y-120690200D03*
X131524800Y-119600200D03*
%TD*%
D15*
%TO.C,U5*%
X139524600Y-82555800D03*
X139024600Y-82555800D03*
X138524600Y-82555800D03*
X138024600Y-82555800D03*
X137524600Y-82555800D03*
D16*
X137524600Y-85555800D03*
X138024600Y-85555800D03*
X138524600Y-85555800D03*
X139024600Y-85555800D03*
X139524600Y-85555800D03*
D17*
X138519600Y-84055800D03*
%TD*%
D14*
%TO.C,R19*%
X133760000Y-119787400D03*
X133760000Y-118697400D03*
%TD*%
D13*
%TO.C,C9*%
X103173000Y-112416400D03*
X103173000Y-114491400D03*
%TD*%
D11*
%TO.C,R32*%
X124882400Y-99926800D03*
X122882400Y-99926800D03*
%TD*%
D18*
%TO.C,R14*%
X114560600Y-53859800D03*
X114560600Y-55859800D03*
%TD*%
D19*
%TO.C,R10*%
X119554600Y-63273800D03*
X119554600Y-62407800D03*
%TD*%
D12*
%TO.C,Q12*%
X125873800Y-95564600D03*
X123973800Y-95564600D03*
X124923800Y-97564600D03*
%TD*%
D14*
%TO.C,R22*%
X140770400Y-117907800D03*
X140770400Y-116817800D03*
%TD*%
D20*
%TO.C,C11*%
X134764600Y-83855800D03*
X134764600Y-82455800D03*
%TD*%
D12*
%TO.C,Q3*%
X107382600Y-59150400D03*
X105482600Y-59150400D03*
X106432600Y-61150400D03*
%TD*%
D20*
%TO.C,C13*%
X143694600Y-83885800D03*
X143694600Y-82485800D03*
%TD*%
D21*
%TO.C,U7*%
X102764600Y-98775800D03*
X102764600Y-99575800D03*
D22*
X102764600Y-100725800D03*
X102764600Y-101725800D03*
X102764600Y-102225800D03*
X102764600Y-103225800D03*
D21*
X102764600Y-105175800D03*
X102764600Y-104375800D03*
D22*
X102764600Y-103725800D03*
X102764600Y-102725800D03*
X102764600Y-101225800D03*
X102764600Y-100225800D03*
D23*
X102189600Y-96865800D03*
X102189600Y-107085800D03*
X98259600Y-96865800D03*
X98259600Y-107085800D03*
%TD*%
D24*
%TO.C,CARD1*%
X138140000Y-123175800D03*
X137040000Y-123175800D03*
X135940000Y-123175800D03*
X134840000Y-123175800D03*
X133740000Y-123175800D03*
X132640000Y-123175800D03*
X131540000Y-123175800D03*
X130440000Y-123175800D03*
D25*
X128140000Y-124175800D03*
D26*
X128140000Y-133775800D03*
X143640000Y-133775800D03*
D27*
X142740000Y-124175800D03*
D24*
X129340000Y-123175800D03*
%TD*%
D28*
%TO.C,Q8*%
X140752300Y-95126200D03*
X138852300Y-95126200D03*
X139802300Y-97596200D03*
%TD*%
D18*
%TO.C,R4*%
X108456200Y-112437900D03*
X108456200Y-114437900D03*
%TD*%
D29*
%TO.C,D1*%
X97999800Y-115620400D03*
X97999800Y-112220400D03*
%TD*%
D30*
%TO.C,R5*%
X113790200Y-114437900D03*
X113790200Y-112437900D03*
%TD*%
D14*
%TO.C,R23*%
X128807000Y-120309200D03*
X128807000Y-119219200D03*
%TD*%
D31*
%TO.C,C1*%
X150757100Y-50495600D03*
X152832100Y-50495600D03*
%TD*%
D20*
%TO.C,R17*%
X145894600Y-83875800D03*
X145894600Y-82475800D03*
%TD*%
D30*
%TO.C,R9*%
X118053100Y-96745150D03*
X118053100Y-94745150D03*
%TD*%
D32*
%TO.C,C18*%
X129546600Y-107902400D03*
X129546600Y-105827400D03*
%TD*%
D13*
%TO.C,C15*%
X122815800Y-48402000D03*
X122815800Y-50477000D03*
%TD*%
D33*
%TO.C,U3*%
X112907200Y-100883850D03*
X112907200Y-102003850D03*
X112907200Y-103123850D03*
X114027200Y-100883850D03*
X114027200Y-102003850D03*
X114027200Y-103123850D03*
X115147200Y-100883850D03*
X115147200Y-102003850D03*
X115147200Y-103123850D03*
D34*
X111577200Y-100503850D03*
X111577200Y-101003850D03*
X111577200Y-101503850D03*
X111577200Y-102003850D03*
X111577200Y-102503850D03*
X111577200Y-103003850D03*
X111577200Y-103503850D03*
D35*
X112527200Y-104453850D03*
X113027200Y-104453850D03*
X113527200Y-104453850D03*
X114027200Y-104453850D03*
X114527200Y-104453850D03*
X115027200Y-104453850D03*
X115527200Y-104453850D03*
D34*
X116477200Y-103503850D03*
X116477200Y-103003850D03*
X116477200Y-102503850D03*
X116477200Y-102003850D03*
X116477200Y-101503850D03*
X116477200Y-101003850D03*
X116477200Y-100503850D03*
D35*
X115527200Y-99553850D03*
X115027200Y-99553850D03*
X114527200Y-99553850D03*
X114027200Y-99553850D03*
X113527200Y-99553850D03*
X113027200Y-99553850D03*
X112527200Y-99553850D03*
%TD*%
D36*
%TO.C,C3*%
X100311200Y-65184600D03*
X98311200Y-65184600D03*
%TD*%
D37*
%TO.C,Q4*%
X110820600Y-62985000D03*
X110820600Y-64885000D03*
X113290600Y-63935000D03*
%TD*%
D38*
%TO.C,Q2*%
X113328700Y-94693550D03*
X113328700Y-96593550D03*
X110829700Y-95643550D03*
%TD*%
D39*
%TO.C,R24*%
X149429700Y-96066000D03*
X151429700Y-96066000D03*
%TD*%
D13*
%TO.C,C5*%
X100531400Y-112412500D03*
X100531400Y-114487500D03*
%TD*%
D40*
%TO.C,U1*%
X105457200Y-102731850D03*
X106407200Y-102731850D03*
X107357200Y-102731850D03*
X107357200Y-100456850D03*
X106407200Y-100456850D03*
X105457200Y-100456850D03*
%TD*%
D41*
%TO.C,R30*%
X126930400Y-107326600D03*
X126930400Y-105819600D03*
%TD*%
D29*
%TO.C,D3*%
X117888000Y-73184200D03*
X117888000Y-76584200D03*
%TD*%
D42*
%TO.C,U6*%
X126684600Y-42055800D03*
X126684600Y-43325800D03*
X126684600Y-44595800D03*
X126684600Y-45865800D03*
X126684600Y-47135800D03*
X126684600Y-48405800D03*
X126684600Y-49675800D03*
X126684600Y-50945800D03*
X126684600Y-52215800D03*
X126684600Y-53485800D03*
X126684600Y-54755800D03*
X126684600Y-56025800D03*
X126684600Y-57295800D03*
X126684600Y-58565800D03*
X126684600Y-59835800D03*
X126684600Y-61105800D03*
X126684600Y-62375800D03*
X126684600Y-63645800D03*
X126684600Y-64915800D03*
X144684600Y-64915800D03*
X144684600Y-63645800D03*
X144684600Y-62375800D03*
X144684600Y-61105800D03*
X144684600Y-59835800D03*
X144684600Y-58565800D03*
X144684600Y-57295800D03*
X144684600Y-56025800D03*
X144684600Y-54755800D03*
X144684600Y-53485800D03*
X144684600Y-52215800D03*
X144684600Y-50945800D03*
X144684600Y-49675800D03*
X144684600Y-48405800D03*
X144684600Y-47135800D03*
X144684600Y-45865800D03*
X144684600Y-44595800D03*
X144684600Y-43325800D03*
X144684600Y-42055800D03*
D43*
X132849600Y-47720800D03*
X132849600Y-49555800D03*
X132849600Y-51390800D03*
X134684600Y-47720800D03*
X134684600Y-49555800D03*
X134684600Y-51390800D03*
X136519600Y-47720800D03*
X136519600Y-49555800D03*
X136519600Y-51390800D03*
%TD*%
D38*
%TO.C,Q7*%
X147142200Y-96050800D03*
X147142200Y-94150800D03*
X145142200Y-95100800D03*
%TD*%
D31*
%TO.C,C2*%
X98257700Y-62009600D03*
X100332700Y-62009600D03*
%TD*%
D32*
%TO.C,C17*%
X112528600Y-81279300D03*
X112528600Y-79204300D03*
%TD*%
D18*
%TO.C,R13*%
X103930200Y-64410600D03*
X103930200Y-66410600D03*
%TD*%
D19*
%TO.C,R11*%
X122804600Y-62407800D03*
X122804600Y-63273800D03*
%TD*%
D20*
%TO.C,C14*%
X141474600Y-83875800D03*
X141474600Y-82475800D03*
%TD*%
D28*
%TO.C,Q9*%
X175962600Y-101358800D03*
X174062600Y-101358800D03*
X175012600Y-103828800D03*
%TD*%
D44*
%TO.C,L_B-B1*%
X136760200Y-77672285D03*
X140316200Y-77672285D03*
%TD*%
D45*
%TO.C,R28*%
X177705000Y-110010600D03*
X176198000Y-110010600D03*
%TD*%
D30*
%TO.C,R8*%
X115563900Y-96729150D03*
X115563900Y-94729150D03*
%TD*%
D31*
%TO.C,C7*%
X145302600Y-73667200D03*
X147377600Y-73667200D03*
%TD*%
%TO.C,C8*%
X145302600Y-76562800D03*
X147377600Y-76562800D03*
%TD*%
D30*
%TO.C,R26*%
X180788600Y-93195800D03*
X180788600Y-91195800D03*
%TD*%
%TO.C,R3*%
X105814600Y-114419100D03*
X105814600Y-112419100D03*
%TD*%
D46*
%TO.C,J2*%
X162979601Y-113261800D03*
X163979602Y-113261800D03*
X164979600Y-113261800D03*
X165979601Y-113261800D03*
D47*
X167279600Y-117136801D03*
X161679602Y-117136801D03*
%TD*%
D18*
%TO.C,R16*%
X112050600Y-49749800D03*
X112050600Y-51749800D03*
%TD*%
D12*
%TO.C,Q10*%
X180854600Y-95685000D03*
X178954600Y-95685000D03*
X179904600Y-97685000D03*
%TD*%
D30*
%TO.C,R2*%
X114713200Y-45431800D03*
X114713200Y-43431800D03*
%TD*%
D46*
%TO.C,J1*%
X174171600Y-113261800D03*
X175171601Y-113261800D03*
X176171599Y-113261800D03*
X177171600Y-113261800D03*
D47*
X178471599Y-117136801D03*
X172871601Y-117136801D03*
%TD*%
D28*
%TO.C,Q11*%
X124706200Y-102568400D03*
X122806200Y-102568400D03*
X123756200Y-105038400D03*
%TD*%
D14*
%TO.C,C6*%
X105535200Y-56700600D03*
X105535200Y-55610600D03*
%TD*%
D45*
%TO.C,R27*%
X138250400Y-99977600D03*
X139757400Y-99977600D03*
%TD*%
D18*
%TO.C,R6*%
X111097800Y-112437900D03*
X111097800Y-114437900D03*
%TD*%
D30*
%TO.C,R7*%
X116431800Y-114437900D03*
X116431800Y-112437900D03*
%TD*%
D48*
%TO.C,SW1*%
X150844600Y-55385800D03*
X152444600Y-55385800D03*
X150844600Y-59485800D03*
X152444600Y-59485800D03*
%TD*%
D36*
%TO.C,C4*%
X147302600Y-70619200D03*
X145302600Y-70619200D03*
%TD*%
D30*
%TO.C,R15*%
X119690600Y-50339800D03*
X119690600Y-48339800D03*
%TD*%
D49*
%TO.C,LED1*%
X121214600Y-66285800D03*
X121214600Y-67525800D03*
X120264600Y-66285800D03*
X120264600Y-67525800D03*
%TD*%
D14*
%TO.C,R21*%
X142853200Y-117755400D03*
X142853200Y-116665400D03*
%TD*%
D39*
%TO.C,R31*%
X128165600Y-95583400D03*
X130165600Y-95583400D03*
%TD*%
D14*
%TO.C,R18*%
X138230400Y-119889000D03*
X138230400Y-118799000D03*
%TD*%
D38*
%TO.C,Q5*%
X115398800Y-76533400D03*
X115398800Y-74633400D03*
X113398800Y-75583400D03*
%TD*%
D50*
%TO.C,C16*%
X178289200Y-106835600D03*
X176214200Y-106835600D03*
%TD*%
D11*
%TO.C,R1*%
X103740400Y-120080500D03*
X101740400Y-120080500D03*
%TD*%
D29*
%TO.C,D2*%
X99219000Y-74274600D03*
X99219000Y-77674600D03*
%TD*%
D19*
%TO.C,R12*%
X121164600Y-62407800D03*
X121164600Y-63273800D03*
%TD*%
D11*
%TO.C,R29*%
X176012600Y-99291800D03*
X174012600Y-99291800D03*
%TD*%
D13*
%TO.C,C12*%
X132350600Y-82122300D03*
X132350600Y-84197300D03*
%TD*%
D48*
%TO.C,SW2*%
X98604600Y-55445800D03*
X100204600Y-55445800D03*
X98604600Y-59545800D03*
X100204600Y-59545800D03*
%TD*%
M02*
