M48
; DRILL file {KiCad 9.0.1} date 2025-06-09T16:31:53+0200
; FORMAT={-:-/ absolute / metric / decimal}
; #@! TF.CreationDate,2025-06-09T16:31:53+02:00
; #@! TF.GenerationSoftware,Kicad,Pcbnew,9.0.1
; #@! TF.FileFunction,Plated,1,4,PTH
FMAT,2
METRIC
; #@! TA.AperFunction,Plated,PTH,ComponentDrill
T1C0.300
; #@! TA.AperFunction,Plated,PTH,ViaDrill
T2C0.400
; #@! TA.AperFunction,Plated,PTH,ComponentDrill
T3C0.700
; #@! TA.AperFunction,Plated,PTH,ComponentDrill
T4C1.000
; #@! TA.AperFunction,Plated,PTH,ComponentDrill
T5C1.020
; #@! TA.AperFunction,Plated,PTH,ComponentDrill
T6C1.100
; #@! TA.AperFunction,Plated,PTH,ComponentDrill
T7C1.400
%
G90
G05
T1
X43.078Y-87.147
X43.082Y-88.265
X44.196Y-88.265
X44.2Y-87.14
X57.783Y-28.014
X57.785Y-29.896
X57.785Y-31.725
X57.785Y-33.604
X59.665Y-28.016
X59.665Y-29.896
X59.665Y-31.725
X59.665Y-33.604
X61.493Y-28.014
X61.493Y-29.896
X61.493Y-31.725
X61.503Y-33.604
X63.383Y-28.014
X63.383Y-29.896
X63.383Y-31.724
X63.383Y-33.604
X63.765Y-65.3
X64.389Y-65.3
X65.01Y-65.3
T2
X29.244Y-30.934
X33.74Y-86.416
X33.74Y-89.083
X33.892Y-52.347
X34.236Y-59.723
X34.413Y-97.96
X34.476Y-76.924
X35.07Y-84.806
X36.61Y-65.605
X37.347Y-90.447
X37.55Y-52.372
X37.956Y-34.744
X38.439Y-88.194
X38.546Y-60.211
X39.237Y-66.921
X39.527Y-94.841
X39.531Y-92.77
X39.709Y-86.687
X40.448Y-81.348
X41.896Y-66.367
X42.63Y-84.006
X42.691Y-63.974
X42.844Y-61.79
X42.844Y-62.958
X42.856Y-57.771
X43.036Y-71.041
X43.658Y-84.006
X44.052Y-25.905
X44.052Y-74.165
X44.814Y-96.321
X45.576Y-33.398
X46.374Y-69.67
X47.026Y-73.101
X48.472Y-34.744
X49.702Y-56.319
X50.148Y-92.791
X52.79Y-96.301
X54.517Y-29.233
X54.568Y-37.827
X54.913Y-40.038
X54.936Y-31.511
X55.355Y-43.787
X55.813Y-35.964
X55.942Y-24.536
X56.6Y-65.961
X56.752Y-63.345
X56.765Y-54.188
X57.235Y-67.739
X58.251Y-38.859
X58.378Y-48.181
X59.191Y-78.595
X59.276Y-93.321
X59.521Y-67.739
X60.664Y-51.864
X60.715Y-41.094
X60.893Y-37.437
X61.426Y-88.821
X63.815Y-67.771
X64.728Y-51.864
X64.886Y-69.111
X66.356Y-67.815
X66.608Y-25.575
X66.633Y-49.959
X67.642Y-28.401
X69.3Y-67.866
X70.316Y-70.025
X71.586Y-67.866
X71.596Y-61.361
X71.713Y-47.683
X72.729Y-66.596
X72.966Y-45.171
X73.212Y-29.664
X73.226Y-24.341
X73.326Y-33.474
X76.046Y-48.41
X76.514Y-57.833
X76.844Y-69.974
X77.128Y-28.161
X77.466Y-32.776
X77.496Y-24.811
X77.53Y-50.111
X79.606Y-56.004
X84.006Y-33.17
X86.166Y-37.821
X96.156Y-39.711
X97.748Y-48.74
X98.221Y-41.776
X98.51Y-46.454
X98.871Y-52.106
X100.136Y-50.924
X100.386Y-53.721
X100.79Y-44.32
X108.949Y-52.067
X109.838Y-39.799
X117.204Y-52.956
X117.255Y-40.256
T4
X99.475Y-34.846
X99.526Y-57.706
X102.015Y-34.846
X102.066Y-57.706
T5
X86.826Y-42.466
X86.826Y-50.084
X89.366Y-42.466
X89.366Y-50.084
X91.906Y-42.466
X91.906Y-50.084
X107.121Y-34.846
X107.146Y-57.706
X109.661Y-34.846
X109.686Y-57.706
X112.201Y-34.846
X112.226Y-57.706
X114.741Y-34.846
X114.766Y-57.706
X117.281Y-34.846
X117.306Y-57.706
X119.821Y-34.846
X119.846Y-57.706
T6
X86.826Y-34.846
X86.826Y-57.715
X89.366Y-34.846
X89.366Y-57.715
X91.906Y-34.846
X91.906Y-57.715
X94.446Y-34.846
X94.446Y-57.715
T7
X28.738Y-49.858
X28.738Y-54.858
T3
G00X27.928Y-83.368
M15
G01X27.229Y-83.368
M16
G05
G00X27.928Y-92.018
M15
G01X27.229Y-92.018
M16
G05
G00X32.279Y-83.368
M15
G01X31.278Y-83.368
M16
G05
G00X32.279Y-92.018
M15
G01X31.278Y-92.018
M16
G05
M30
