%TF.GenerationSoftware,KiCad,Pcbnew,9.0.1*%
%TF.CreationDate,2025-06-13T06:34:05+02:00*%
%TF.ProjectId,MY-ESP32,4d592d45-5350-4333-922e-6b696361645f,1*%
%TF.SameCoordinates,Original*%
%TF.FileFunction,Copper,L1,Top*%
%TF.FilePolarity,Positive*%
%FSLAX46Y46*%
G04 Gerber Fmt 4.6, Leading zero omitted, Abs format (unit mm)*
G04 Created by KiCad (PCBNEW 9.0.1) date 2025-06-13 06:34:05*
%MOMM*%
%LPD*%
G01*
G04 APERTURE LIST*
G04 Aperture macros list*
%AMRoundRect*
0 Rectangle with rounded corners*
0 $1 Rounding radius*
0 $2 $3 $4 $5 $6 $7 $8 $9 X,Y pos of 4 corners*
0 Add a 4 corners polygon primitive as box body*
4,1,4,$2,$3,$4,$5,$6,$7,$8,$9,$2,$3,0*
0 Add four circle primitives for the rounded corners*
1,1,$1+$1,$2,$3*
1,1,$1+$1,$4,$5*
1,1,$1+$1,$6,$7*
1,1,$1+$1,$8,$9*
0 Add four rect primitives between the rounded corners*
20,1,$1+$1,$2,$3,$4,$5,0*
20,1,$1+$1,$4,$5,$6,$7,0*
20,1,$1+$1,$6,$7,$8,$9,0*
20,1,$1+$1,$8,$9,$2,$3,0*%
%AMFreePoly0*
4,1,21,-0.180000,0.885000,0.180000,0.885000,0.180000,1.715000,0.470000,1.715000,0.470000,0.885000,0.760000,0.885000,0.760000,-0.885000,0.470000,-0.885000,0.470000,-1.705000,0.180000,-1.705000,0.180000,-0.885000,-0.180000,-0.885000,-0.180000,-1.705000,-0.470000,-1.705000,-0.470000,-0.885000,-0.760000,-0.885000,-0.760000,0.895000,-0.470000,0.895000,-0.470000,1.715000,-0.180000,1.715000,
-0.180000,0.885000,-0.180000,0.885000,$1*%
G04 Aperture macros list end*
%TA.AperFunction,EtchedComponent*%
%ADD10C,0.200000*%
%TD*%
%TA.AperFunction,SMDPad,CuDef*%
%ADD11R,1.150000X0.600000*%
%TD*%
%TA.AperFunction,SMDPad,CuDef*%
%ADD12R,1.150000X0.300000*%
%TD*%
%TA.AperFunction,SMDPad,CuDef*%
%ADD13R,2.000000X2.180000*%
%TD*%
%TA.AperFunction,SMDPad,CuDef*%
%ADD14C,1.000000*%
%TD*%
%TA.AperFunction,SMDPad,CuDef*%
%ADD15RoundRect,0.250000X0.350000X0.450000X-0.350000X0.450000X-0.350000X-0.450000X0.350000X-0.450000X0*%
%TD*%
%TA.AperFunction,SMDPad,CuDef*%
%ADD16R,0.700000X1.250000*%
%TD*%
%TA.AperFunction,SMDPad,CuDef*%
%ADD17RoundRect,0.250000X-0.475000X0.337500X-0.475000X-0.337500X0.475000X-0.337500X0.475000X0.337500X0*%
%TD*%
%TA.AperFunction,ComponentPad*%
%ADD18C,1.400000*%
%TD*%
%TA.AperFunction,SMDPad,CuDef*%
%ADD19R,2.000000X0.900000*%
%TD*%
%TA.AperFunction,ComponentPad*%
%ADD20C,0.500000*%
%TD*%
%TA.AperFunction,SMDPad,CuDef*%
%ADD21R,1.330000X1.330000*%
%TD*%
%TA.AperFunction,ComponentPad*%
%ADD22R,1.800000X1.800000*%
%TD*%
%TA.AperFunction,ComponentPad*%
%ADD23C,1.600000*%
%TD*%
%TA.AperFunction,SMDPad,CuDef*%
%ADD24R,0.540000X0.790000*%
%TD*%
%TA.AperFunction,ComponentPad*%
%ADD25C,1.800000*%
%TD*%
%TA.AperFunction,ComponentPad*%
%ADD26O,2.500000X1.200000*%
%TD*%
%TA.AperFunction,SMDPad,CuDef*%
%ADD27RoundRect,0.250000X-0.450000X0.350000X-0.450000X-0.350000X0.450000X-0.350000X0.450000X0.350000X0*%
%TD*%
%TA.AperFunction,ComponentPad*%
%ADD28R,1.700000X1.700000*%
%TD*%
%TA.AperFunction,ComponentPad*%
%ADD29C,1.700000*%
%TD*%
%TA.AperFunction,SMDPad,CuDef*%
%ADD30RoundRect,0.135000X0.185000X-0.135000X0.185000X0.135000X-0.185000X0.135000X-0.185000X-0.135000X0*%
%TD*%
%TA.AperFunction,SMDPad,CuDef*%
%ADD31R,0.900000X0.800000*%
%TD*%
%TA.AperFunction,SMDPad,CuDef*%
%ADD32R,0.240000X0.850000*%
%TD*%
%TA.AperFunction,SMDPad,CuDef*%
%ADD33R,0.230000X0.800000*%
%TD*%
%TA.AperFunction,SMDPad,CuDef*%
%ADD34FreePoly0,270.000000*%
%TD*%
%TA.AperFunction,SMDPad,CuDef*%
%ADD35R,1.250000X0.700000*%
%TD*%
%TA.AperFunction,SMDPad,CuDef*%
%ADD36R,1.300000X1.300000*%
%TD*%
%TA.AperFunction,SMDPad,CuDef*%
%ADD37R,0.700000X1.600000*%
%TD*%
%TA.AperFunction,SMDPad,CuDef*%
%ADD38R,1.200000X1.500000*%
%TD*%
%TA.AperFunction,SMDPad,CuDef*%
%ADD39R,1.200000X2.200000*%
%TD*%
%TA.AperFunction,SMDPad,CuDef*%
%ADD40R,1.600000X1.500000*%
%TD*%
%TA.AperFunction,SMDPad,CuDef*%
%ADD41R,0.600000X1.070000*%
%TD*%
%TA.AperFunction,SMDPad,CuDef*%
%ADD42RoundRect,0.250000X0.450000X-0.350000X0.450000X0.350000X-0.450000X0.350000X-0.450000X-0.350000X0*%
%TD*%
%TA.AperFunction,SMDPad,CuDef*%
%ADD43RoundRect,0.250000X-0.337500X-0.475000X0.337500X-0.475000X0.337500X0.475000X-0.337500X0.475000X0*%
%TD*%
%TA.AperFunction,SMDPad,CuDef*%
%ADD44RoundRect,0.062500X-0.337500X-0.062500X0.337500X-0.062500X0.337500X0.062500X-0.337500X0.062500X0*%
%TD*%
%TA.AperFunction,SMDPad,CuDef*%
%ADD45RoundRect,0.062500X-0.062500X-0.337500X0.062500X-0.337500X0.062500X0.337500X-0.062500X0.337500X0*%
%TD*%
%TA.AperFunction,HeatsinkPad*%
%ADD46R,3.350000X3.350000*%
%TD*%
%TA.AperFunction,SMDPad,CuDef*%
%ADD47R,1.410000X1.350000*%
%TD*%
%TA.AperFunction,SMDPad,CuDef*%
%ADD48R,1.070000X0.600000*%
%TD*%
%TA.AperFunction,SMDPad,CuDef*%
%ADD49RoundRect,0.250000X-0.350000X-0.450000X0.350000X-0.450000X0.350000X0.450000X-0.350000X0.450000X0*%
%TD*%
%TA.AperFunction,SMDPad,CuDef*%
%ADD50RoundRect,0.150000X0.150000X-0.512500X0.150000X0.512500X-0.150000X0.512500X-0.150000X-0.512500X0*%
%TD*%
%TA.AperFunction,SMDPad,CuDef*%
%ADD51R,2.124000X3.820000*%
%TD*%
%TA.AperFunction,SMDPad,CuDef*%
%ADD52RoundRect,0.250000X0.475000X-0.337500X0.475000X0.337500X-0.475000X0.337500X-0.475000X-0.337500X0*%
%TD*%
%TA.AperFunction,SMDPad,CuDef*%
%ADD53R,0.750000X0.700000*%
%TD*%
%TA.AperFunction,SMDPad,CuDef*%
%ADD54R,1.000000X0.900000*%
%TD*%
%TA.AperFunction,SMDPad,CuDef*%
%ADD55RoundRect,0.135000X-0.185000X0.135000X-0.185000X-0.135000X0.185000X-0.135000X0.185000X0.135000X0*%
%TD*%
%TA.AperFunction,SMDPad,CuDef*%
%ADD56R,0.806500X0.864000*%
%TD*%
%TA.AperFunction,ComponentPad*%
%ADD57R,1.575000X1.575000*%
%TD*%
%TA.AperFunction,ComponentPad*%
%ADD58C,1.575000*%
%TD*%
%TA.AperFunction,SMDPad,CuDef*%
%ADD59R,0.660400X1.549400*%
%TD*%
%TA.AperFunction,SMDPad,CuDef*%
%ADD60R,1.295400X1.905000*%
%TD*%
%TA.AperFunction,ComponentPad*%
%ADD61C,3.575000*%
%TD*%
%TA.AperFunction,SMDPad,CuDef*%
%ADD62RoundRect,0.250000X0.337500X0.475000X-0.337500X0.475000X-0.337500X-0.475000X0.337500X-0.475000X0*%
%TD*%
%TA.AperFunction,ViaPad*%
%ADD63C,0.800000*%
%TD*%
%TA.AperFunction,Conductor*%
%ADD64C,0.254000*%
%TD*%
%TA.AperFunction,Conductor*%
%ADD65C,0.250000*%
%TD*%
%TA.AperFunction,Conductor*%
%ADD66C,0.508000*%
%TD*%
%TA.AperFunction,Conductor*%
%ADD67C,0.355600*%
%TD*%
%TA.AperFunction,Conductor*%
%ADD68C,0.406400*%
%TD*%
G04 APERTURE END LIST*
D10*
%TO.C,U4*%
X168735600Y-105643500D02*
G75*
G02*
X166735600Y-105643500I-1000000J0D01*
G01*
X166735600Y-105643500D02*
G75*
G02*
X168735600Y-105643500I1000000J0D01*
G01*
%TD*%
D11*
%TO.P,U7,A1/B12,GND*%
%TO.N,GND*%
X93360000Y-117340000D03*
%TO.P,U7,A4/B9,VBUS*%
%TO.N,VBUS*%
X93360000Y-118140000D03*
D12*
%TO.P,U7,A5,CC1*%
%TO.N,unconnected-(U7-CC1-PadA5)*%
X93360000Y-119290000D03*
%TO.P,U7,A6,DP1*%
%TO.N,DP*%
X93360000Y-120290000D03*
%TO.P,U7,A7,DN1*%
%TO.N,DN*%
X93360000Y-120790000D03*
%TO.P,U7,A8,SBU1*%
%TO.N,unconnected-(U7-SBU1-PadA8)*%
X93360000Y-121790000D03*
D11*
%TO.P,U7,B1/A12,GND*%
%TO.N,GND*%
X93360000Y-123740000D03*
%TO.P,U7,B4/A9,VBUS*%
%TO.N,VBUS*%
X93360000Y-122940000D03*
D12*
%TO.P,U7,B5,CC2*%
%TO.N,unconnected-(U7-CC2-PadB5)*%
X93360000Y-122290000D03*
%TO.P,U7,B6,DP2*%
%TO.N,DP*%
X93360000Y-121290000D03*
%TO.P,U7,B7,DN2*%
%TO.N,DN*%
X93360000Y-119790000D03*
%TO.P,U7,B8,SBU2*%
%TO.N,unconnected-(U7-SBU2-PadB8)*%
X93360000Y-118790000D03*
D13*
%TO.P,U7,S1,GND*%
%TO.N,GND*%
X92785000Y-115430000D03*
%TO.P,U7,S2,GND*%
X92785000Y-125650000D03*
%TO.P,U7,S3,GND*%
X88855000Y-115430000D03*
%TO.P,U7,S4,GND*%
X88855000Y-125650000D03*
%TD*%
D14*
%TO.P,TP1,1,1*%
%TO.N,GND*%
X104919600Y-149860000D03*
%TD*%
D15*
%TO.P,R25,1*%
%TO.N,Net-(Q7-D)*%
X126708900Y-111125000D03*
%TO.P,R25,2*%
%TO.N,+3V3*%
X124708900Y-111125000D03*
%TD*%
D16*
%TO.P,Q1,1,E*%
%TO.N,RTS*%
X103281200Y-109497050D03*
%TO.P,Q1,2,B*%
%TO.N,Net-(Q1-B)*%
X101381200Y-109497050D03*
%TO.P,Q1,3,C*%
%TO.N,ENA*%
X102331200Y-106998050D03*
%TD*%
D17*
%TO.P,C10,1*%
%TO.N,GND*%
X125526800Y-136202600D03*
%TO.P,C10,2*%
%TO.N,/micro_SD-CARD_enable/3V3_Input_to_micro_SD-CARD*%
X125526800Y-138277600D03*
%TD*%
D18*
%TO.P,U2,1,1*%
%TO.N,/Battery_Voltage_Monitor_with_MOSFETS/V_Batt_Monitor_INPUT*%
X92329000Y-107696000D03*
%TO.P,U2,2,2*%
%TO.N,GND*%
X92329000Y-109696000D03*
%TD*%
D19*
%TO.P,U6,1,GND*%
%TO.N,GND*%
X117297200Y-60553600D03*
%TO.P,U6,2,3V3*%
%TO.N,+3V3*%
X117297200Y-61823600D03*
%TO.P,U6,3,EN*%
%TO.N,ENA*%
X117297200Y-63093600D03*
%TO.P,U6,4,SENSOR_VP*%
%TO.N,unconnected-(U6-SENSOR_VP-Pad4)*%
X117297200Y-64363600D03*
%TO.P,U6,5,SENSOR_VN*%
%TO.N,unconnected-(U6-SENSOR_VN-Pad5)*%
X117297200Y-65633600D03*
%TO.P,U6,6,IO34*%
%TO.N,D34*%
X117297200Y-66903600D03*
%TO.P,U6,7,IO35*%
%TO.N,D35*%
X117297200Y-68173600D03*
%TO.P,U6,8,IO32*%
%TO.N,D32*%
X117297200Y-69443600D03*
%TO.P,U6,9,IO33*%
%TO.N,D33*%
X117297200Y-70713600D03*
%TO.P,U6,10,IO25*%
%TO.N,D25*%
X117297200Y-71983600D03*
%TO.P,U6,11,IO26*%
%TO.N,D26*%
X117297200Y-73253600D03*
%TO.P,U6,12,IO27*%
%TO.N,D27*%
X117297200Y-74523600D03*
%TO.P,U6,13,IO14*%
%TO.N,D14*%
X117297200Y-75793600D03*
%TO.P,U6,14,IO12*%
%TO.N,D12*%
X117297200Y-77063600D03*
%TO.P,U6,15,GND*%
%TO.N,GND*%
X117297200Y-78333600D03*
%TO.P,U6,16,IO13*%
%TO.N,D13*%
X117297200Y-79603600D03*
%TO.P,U6,17,NC*%
%TO.N,unconnected-(U6-NC-Pad17)*%
X117297200Y-80873600D03*
%TO.P,U6,18,NC*%
%TO.N,unconnected-(U6-NC-Pad18)*%
X117297200Y-82143600D03*
%TO.P,U6,19,NC*%
%TO.N,unconnected-(U6-NC-Pad19)*%
X117297200Y-83413600D03*
%TO.P,U6,20,NC*%
%TO.N,unconnected-(U6-NC-Pad20)*%
X135297200Y-83413600D03*
%TO.P,U6,21,NC*%
%TO.N,unconnected-(U6-NC-Pad21)*%
X135297200Y-82143600D03*
%TO.P,U6,22,NC*%
%TO.N,unconnected-(U6-NC-Pad22)*%
X135297200Y-80873600D03*
%TO.P,U6,23,IO15*%
%TO.N,D15*%
X135297200Y-79603600D03*
%TO.P,U6,24,IO2*%
%TO.N,D2*%
X135297200Y-78333600D03*
%TO.P,U6,25,IO0*%
%TO.N,IO0*%
X135297200Y-77063600D03*
%TO.P,U6,26,IO4*%
%TO.N,D4*%
X135297200Y-75793600D03*
%TO.P,U6,27,NC*%
%TO.N,unconnected-(U6-NC-Pad27)*%
X135297200Y-74523600D03*
%TO.P,U6,28,NC*%
%TO.N,unconnected-(U6-NC-Pad28)*%
X135297200Y-73253600D03*
%TO.P,U6,29,IO5*%
%TO.N,D5*%
X135297200Y-71983600D03*
%TO.P,U6,30,IO18*%
%TO.N,D18*%
X135297200Y-70713600D03*
%TO.P,U6,31,IO19*%
%TO.N,D19*%
X135297200Y-69443600D03*
%TO.P,U6,32,NC*%
%TO.N,unconnected-(U6-NC-Pad32)*%
X135297200Y-68173600D03*
%TO.P,U6,33,IO21*%
%TO.N,D21*%
X135297200Y-66903600D03*
%TO.P,U6,34,RXD0*%
%TO.N,RXD0*%
X135297200Y-65633600D03*
%TO.P,U6,35,TXD0*%
%TO.N,TXD0*%
X135297200Y-64363600D03*
%TO.P,U6,36,IO22*%
%TO.N,D22*%
X135297200Y-63093600D03*
%TO.P,U6,37,IO23*%
%TO.N,D23*%
X135297200Y-61823600D03*
%TO.P,U6,38,GND*%
%TO.N,GND*%
X135297200Y-60553600D03*
D20*
%TO.P,U6,39,GND*%
X122517200Y-68973600D03*
X122527200Y-65303600D03*
X122527200Y-70803600D03*
X122537200Y-67133600D03*
D21*
X123462200Y-66218600D03*
X123462200Y-68053600D03*
X123462200Y-69888600D03*
D20*
X124367200Y-68973600D03*
X124377200Y-65303600D03*
X124377200Y-70803600D03*
X124387200Y-67133600D03*
D21*
X125297200Y-66218600D03*
X125297200Y-68053600D03*
X125297200Y-69888600D03*
D20*
X126187200Y-68973600D03*
X126197200Y-65303600D03*
X126197200Y-70803600D03*
X126207200Y-67133600D03*
D21*
X127132200Y-66218600D03*
X127132200Y-68053600D03*
X127132200Y-69888600D03*
D20*
X128037200Y-68973600D03*
X128047200Y-65303600D03*
X128047200Y-70803600D03*
X128057200Y-67133600D03*
%TD*%
D22*
%TO.P,H6,1,1*%
%TO.N,GND*%
X114300000Y-142468600D03*
D23*
%TO.P,H6,2,2*%
%TO.N,EXT_5V*%
X114300000Y-145008600D03*
%TO.P,H6,3,3*%
%TO.N,D32*%
X114300000Y-147548600D03*
%TO.P,H6,4,4*%
%TO.N,D35*%
X114300000Y-150088600D03*
%TO.P,H6,5,5*%
%TO.N,GND*%
X114300000Y-152628600D03*
%TO.P,H6,6,6*%
X114300000Y-155168600D03*
%TD*%
D24*
%TO.P,R20,1,1*%
%TO.N,D2*%
X120954800Y-139254400D03*
%TO.P,R20,2,2*%
%TO.N,/micro_SD-CARD_enable/3V3_Input_to_micro_SD-CARD*%
X120954800Y-138164400D03*
%TD*%
D16*
%TO.P,Q3,1,G*%
%TO.N,Net-(Q3-G)*%
X97985600Y-77794800D03*
%TO.P,Q3,2,S*%
%TO.N,GND*%
X96085600Y-77794800D03*
%TO.P,Q3,3,D*%
%TO.N,Net-(Q3-D)*%
X97035600Y-79794800D03*
%TD*%
D24*
%TO.P,R19,1,1*%
%TO.N,D14*%
X123190000Y-138351600D03*
%TO.P,R19,2,2*%
%TO.N,/micro_SD-CARD_enable/3V3_Input_to_micro_SD-CARD*%
X123190000Y-137261600D03*
%TD*%
D17*
%TO.P,C9,1*%
%TO.N,+3V3*%
X93768400Y-130980600D03*
%TO.P,C9,2*%
%TO.N,GND*%
X93768400Y-133055600D03*
%TD*%
D22*
%TO.P,SW3,1,1*%
%TO.N,VBAT*%
X94488000Y-97282000D03*
D25*
%TO.P,SW3,2,2*%
%TO.N,Net-(D2-C)*%
X94488000Y-94282000D03*
%TO.P,SW3,3,3*%
%TO.N,unconnected-(SW3-Pad3)*%
X94488000Y-91282000D03*
D26*
%TO.P,SW3,4,4*%
%TO.N,GND*%
X94488000Y-88482000D03*
%TO.P,SW3,5,5*%
X94488000Y-100082000D03*
%TD*%
D27*
%TO.P,R14,1*%
%TO.N,D34*%
X105156000Y-72424000D03*
%TO.P,R14,2*%
%TO.N,Net-(Q4-D)*%
X105156000Y-74424000D03*
%TD*%
D28*
%TO.P,H3,1,1*%
%TO.N,+3V3*%
X137160000Y-129692400D03*
D29*
%TO.P,H3,2,2*%
%TO.N,GND*%
X137160000Y-127152400D03*
%TO.P,H3,3,3*%
%TO.N,IO0*%
X137160000Y-124612400D03*
%TO.P,H3,4,4*%
%TO.N,GND*%
X137160000Y-122072400D03*
%TD*%
D30*
%TO.P,R10,1,1*%
%TO.N,Net-(LED1-R)*%
X110150000Y-81915000D03*
%TO.P,R10,2,2*%
%TO.N,D33*%
X110150000Y-80895000D03*
%TD*%
D28*
%TO.P,H8,1,1*%
%TO.N,+3V3*%
X137160000Y-134772400D03*
D29*
%TO.P,H8,2,2*%
%TO.N,GND*%
X137160000Y-137312400D03*
%TD*%
D24*
%TO.P,R22,1,1*%
%TO.N,Net-(CARD1-CD{slash}DAT3)*%
X130200400Y-136472000D03*
%TO.P,R22,2,2*%
%TO.N,/micro_SD-CARD_enable/3V3_Input_to_micro_SD-CARD*%
X130200400Y-135382000D03*
%TD*%
D31*
%TO.P,C11,1,1*%
%TO.N,GND*%
X125360000Y-102420000D03*
%TO.P,C11,2,2*%
%TO.N,/Buck-Boost3.3V/Buck-Boost_INPUT*%
X125360000Y-101020000D03*
%TD*%
D32*
%TO.P,U5,1,VOUT*%
%TO.N,+3V3*%
X130120000Y-101132950D03*
%TO.P,U5,2,L2*%
%TO.N,Net-(U5-L2)*%
X129620000Y-101132950D03*
%TO.P,U5,3,PGND*%
%TO.N,GND*%
X129120000Y-101132950D03*
%TO.P,U5,4,L1*%
%TO.N,Net-(U5-L1)*%
X128620000Y-101132950D03*
%TO.P,U5,5,VIN*%
%TO.N,/Buck-Boost3.3V/Buck-Boost_INPUT*%
X128120000Y-101132950D03*
D33*
%TO.P,U5,6,EN*%
X128120000Y-104132950D03*
%TO.P,U5,7,PS/SYNC*%
X128620000Y-104132950D03*
%TO.P,U5,8,VINA*%
X129120000Y-104132950D03*
%TO.P,U5,9,GND*%
%TO.N,GND*%
X129620000Y-104132950D03*
%TO.P,U5,10,FB*%
%TO.N,+3V3*%
X130120000Y-104132950D03*
D20*
%TO.P,U5,11,PAD*%
%TO.N,GND*%
X129729600Y-102631950D03*
X129120000Y-102632950D03*
D34*
X129115000Y-102632950D03*
D20*
X128510400Y-102632950D03*
%TD*%
D35*
%TO.P,Q7,1,G*%
%TO.N,Net-(Q7-G)*%
X133125700Y-114625200D03*
%TO.P,Q7,2,S*%
%TO.N,GND*%
X133125700Y-112725200D03*
%TO.P,Q7,3,D*%
%TO.N,Net-(Q7-D)*%
X131125700Y-113675200D03*
%TD*%
D36*
%TO.P,D2,1,C*%
%TO.N,Net-(D2-C)*%
X89839800Y-92788000D03*
%TO.P,D2,2,A*%
%TO.N,/Battery_Voltage_Monitor_with_MOSFETS/V_Batt_Monitor_INPUT*%
X89839800Y-96188000D03*
%TD*%
D31*
%TO.P,C13,1,1*%
%TO.N,GND*%
X134290000Y-102450000D03*
%TO.P,C13,2,2*%
%TO.N,+3V3*%
X134290000Y-101050000D03*
%TD*%
D37*
%TO.P,CARD1,1,DAT2*%
%TO.N,Net-(CARD1-DAT2)*%
X127570000Y-141740000D03*
%TO.P,CARD1,2,CD/DAT3*%
%TO.N,Net-(CARD1-CD{slash}DAT3)*%
X126470000Y-141740000D03*
%TO.P,CARD1,3,CMD*%
%TO.N,D15*%
X125370000Y-141740000D03*
%TO.P,CARD1,4,VDD*%
%TO.N,/micro_SD-CARD_enable/3V3_Input_to_micro_SD-CARD*%
X124270000Y-141740000D03*
%TO.P,CARD1,5,CLX*%
%TO.N,D14*%
X123170000Y-141740000D03*
%TO.P,CARD1,6,VSS*%
%TO.N,GND*%
X122070000Y-141740000D03*
%TO.P,CARD1,7,DAT0*%
%TO.N,D2*%
X120970000Y-141740000D03*
%TO.P,CARD1,8,DAT1*%
%TO.N,Net-(CARD1-DAT1)*%
X119870000Y-141740000D03*
D38*
%TO.P,CARD1,10,10*%
%TO.N,GND*%
X117570000Y-142740000D03*
D39*
%TO.P,CARD1,11,11*%
X117570000Y-152340000D03*
%TO.P,CARD1,12,12*%
X133070000Y-152340000D03*
D40*
%TO.P,CARD1,13,13*%
X132170000Y-142740000D03*
D37*
%TO.P,CARD1,CD,CD*%
%TO.N,unconnected-(CARD1-PadCD)*%
X118770000Y-141740000D03*
%TD*%
D41*
%TO.P,Q8,1,G*%
%TO.N,Net-(Q7-D)*%
X126699500Y-113690400D03*
%TO.P,Q8,2,S*%
%TO.N,+3V3*%
X124799500Y-113690400D03*
%TO.P,Q8,3,D*%
%TO.N,/micro_SD-CARD_enable/3V3_Input_to_micro_SD-CARD*%
X125749500Y-116160400D03*
%TD*%
D27*
%TO.P,R4,1*%
%TO.N,Net-(U3-VBUS)*%
X99051600Y-131002100D03*
%TO.P,R4,2*%
%TO.N,GND*%
X99051600Y-133002100D03*
%TD*%
D42*
%TO.P,R5,1*%
%TO.N,Net-(R5-Pad1)*%
X104385600Y-133002100D03*
%TO.P,R5,2*%
%TO.N,+3V3*%
X104385600Y-131002100D03*
%TD*%
D24*
%TO.P,R23,1,1*%
%TO.N,Net-(CARD1-DAT1)*%
X118237000Y-138873400D03*
%TO.P,R23,2,2*%
%TO.N,/micro_SD-CARD_enable/3V3_Input_to_micro_SD-CARD*%
X118237000Y-137783400D03*
%TD*%
D43*
%TO.P,C1,1*%
%TO.N,IO0*%
X141352500Y-69059800D03*
%TO.P,C1,2*%
%TO.N,GND*%
X143427500Y-69059800D03*
%TD*%
D31*
%TO.P,R17,1,1*%
%TO.N,GND*%
X136490000Y-102440000D03*
%TO.P,R17,2,2*%
%TO.N,+3V3*%
X136490000Y-101040000D03*
%TD*%
D42*
%TO.P,R9,1*%
%TO.N,RTS*%
X108648500Y-115309350D03*
%TO.P,R9,2*%
%TO.N,Net-(Q2-B)*%
X108648500Y-113309350D03*
%TD*%
D17*
%TO.P,C15,1*%
%TO.N,D34*%
X113411200Y-66966200D03*
%TO.P,C15,2*%
%TO.N,GND*%
X113411200Y-69041200D03*
%TD*%
D44*
%TO.P,U3,1,~{DCD}*%
%TO.N,unconnected-(U3-~{DCD}-Pad1)*%
X102172600Y-119068050D03*
%TO.P,U3,2,~{RI}/CLK*%
%TO.N,unconnected-(U3-~{RI}{slash}CLK-Pad2)*%
X102172600Y-119568050D03*
%TO.P,U3,3,GND*%
%TO.N,GND*%
X102172600Y-120068050D03*
%TO.P,U3,4,D+*%
%TO.N,D+*%
X102172600Y-120568050D03*
%TO.P,U3,5,D-*%
%TO.N,D-*%
X102172600Y-121068050D03*
%TO.P,U3,6,VDD*%
%TO.N,+3V3*%
X102172600Y-121568050D03*
%TO.P,U3,7,VREGIN*%
X102172600Y-122068050D03*
D45*
%TO.P,U3,8,VBUS*%
%TO.N,Net-(U3-VBUS)*%
X103122600Y-123018050D03*
%TO.P,U3,9,~{RST}*%
%TO.N,Net-(U3-~{RST})*%
X103622600Y-123018050D03*
%TO.P,U3,10,NC*%
%TO.N,unconnected-(U3-NC-Pad10)*%
X104122600Y-123018050D03*
%TO.P,U3,11,~{SUSPEND}*%
%TO.N,Net-(U3-~{SUSPEND})*%
X104622600Y-123018050D03*
%TO.P,U3,12,SUSPEND*%
%TO.N,unconnected-(U3-SUSPEND-Pad12)*%
X105122600Y-123018050D03*
%TO.P,U3,13,CHREN*%
%TO.N,unconnected-(U3-CHREN-Pad13)*%
X105622600Y-123018050D03*
%TO.P,U3,14,CHR1*%
%TO.N,unconnected-(U3-CHR1-Pad14)*%
X106122600Y-123018050D03*
D44*
%TO.P,U3,15,CHR0*%
%TO.N,unconnected-(U3-CHR0-Pad15)*%
X107072600Y-122068050D03*
%TO.P,U3,16,~{WAKEUP}/GPIO.3*%
%TO.N,unconnected-(U3-~{WAKEUP}{slash}GPIO.3-Pad16)*%
X107072600Y-121568050D03*
%TO.P,U3,17,RS485/GPIO.2*%
%TO.N,unconnected-(U3-RS485{slash}GPIO.2-Pad17)*%
X107072600Y-121068050D03*
%TO.P,U3,18,~{RXT}/GPIO.1*%
%TO.N,unconnected-(U3-~{RXT}{slash}GPIO.1-Pad18)*%
X107072600Y-120568050D03*
%TO.P,U3,19,~{TXT}/GPIO.0*%
%TO.N,unconnected-(U3-~{TXT}{slash}GPIO.0-Pad19)*%
X107072600Y-120068050D03*
%TO.P,U3,20,GPIO.6*%
%TO.N,unconnected-(U3-GPIO.6-Pad20)*%
X107072600Y-119568050D03*
%TO.P,U3,21,GPIO.5*%
%TO.N,unconnected-(U3-GPIO.5-Pad21)*%
X107072600Y-119068050D03*
D45*
%TO.P,U3,22,GPIO.4*%
%TO.N,unconnected-(U3-GPIO.4-Pad22)*%
X106122600Y-118118050D03*
%TO.P,U3,23,~{CTS}*%
%TO.N,unconnected-(U3-~{CTS}-Pad23)*%
X105622600Y-118118050D03*
%TO.P,U3,24,~{RTS}*%
%TO.N,RTS*%
X105122600Y-118118050D03*
%TO.P,U3,25,RXD*%
%TO.N,TXD0*%
X104622600Y-118118050D03*
%TO.P,U3,26,TXD*%
%TO.N,RXD0*%
X104122600Y-118118050D03*
%TO.P,U3,27,~{DSR}*%
%TO.N,unconnected-(U3-~{DSR}-Pad27)*%
X103622600Y-118118050D03*
%TO.P,U3,28,~{DTR}*%
%TO.N,DTR*%
X103122600Y-118118050D03*
D46*
%TO.P,U3,29,GND*%
%TO.N,GND*%
X104622600Y-120568050D03*
%TD*%
D47*
%TO.P,C3,1,1*%
%TO.N,GND*%
X90906600Y-83748800D03*
%TO.P,C3,2,2*%
%TO.N,ENA*%
X88906600Y-83748800D03*
%TD*%
D48*
%TO.P,Q4,1,G*%
%TO.N,Net-(Q3-D)*%
X101416000Y-81549200D03*
%TO.P,Q4,2,S*%
%TO.N,/Battery_Voltage_Monitor_with_MOSFETS/V_Batt_Monitor_INPUT*%
X101416000Y-83449200D03*
%TO.P,Q4,3,D*%
%TO.N,Net-(Q4-D)*%
X103886000Y-82499200D03*
%TD*%
D28*
%TO.P,H7,1,1*%
%TO.N,EXT_5V*%
X114300000Y-137312400D03*
D29*
%TO.P,H7,2,2*%
%TO.N,GND*%
X114300000Y-134772400D03*
%TD*%
D35*
%TO.P,Q2,1,E*%
%TO.N,DTR*%
X103924100Y-113257750D03*
%TO.P,Q2,2,B*%
%TO.N,Net-(Q2-B)*%
X103924100Y-115157750D03*
%TO.P,Q2,3,C*%
%TO.N,IO0*%
X101425100Y-114207750D03*
%TD*%
D49*
%TO.P,R24,1*%
%TO.N,Net-(Q7-G)*%
X135376900Y-114630200D03*
%TO.P,R24,2*%
%TO.N,D4*%
X137376900Y-114630200D03*
%TD*%
D17*
%TO.P,C5,1*%
%TO.N,VBUS*%
X91126800Y-130976700D03*
%TO.P,C5,2*%
%TO.N,GND*%
X91126800Y-133051700D03*
%TD*%
D50*
%TO.P,U1,1,I/O1*%
%TO.N,DN*%
X96052600Y-121296050D03*
%TO.P,U1,2,GND*%
%TO.N,GND*%
X97002600Y-121296050D03*
%TO.P,U1,3,I/O2*%
%TO.N,DP*%
X97952600Y-121296050D03*
%TO.P,U1,4,I/O2*%
%TO.N,D+*%
X97952600Y-119021050D03*
%TO.P,U1,5,VBUS*%
%TO.N,VBUS*%
X97002600Y-119021050D03*
%TO.P,U1,6,I/O1*%
%TO.N,D-*%
X96052600Y-119021050D03*
%TD*%
D14*
%TO.P,TP2,1,1*%
%TO.N,/Buck-Boost3.3V/Buck-Boost_INPUT*%
X119227600Y-89357200D03*
%TD*%
D51*
%TO.P,L_B-B1,1,1*%
%TO.N,Net-(U5-L1)*%
X127348000Y-96234000D03*
%TO.P,L_B-B1,2,2*%
%TO.N,Net-(U5-L2)*%
X130904000Y-96234000D03*
%TD*%
D43*
%TO.P,C2,1*%
%TO.N,ENA*%
X88853100Y-80573800D03*
%TO.P,C2,2*%
%TO.N,GND*%
X90928100Y-80573800D03*
%TD*%
D52*
%TO.P,C17,1*%
%TO.N,GND*%
X103124000Y-99843500D03*
%TO.P,C17,2*%
%TO.N,VBAT*%
X103124000Y-97768500D03*
%TD*%
D53*
%TO.P,LED1,1,B*%
%TO.N,Net-(LED1-B)*%
X111821000Y-84866000D03*
%TO.P,LED1,2,+*%
%TO.N,+3V3*%
X111821000Y-86106000D03*
%TO.P,LED1,3,G*%
%TO.N,Net-(LED1-G)*%
X110871000Y-84866000D03*
%TO.P,LED1,4,R*%
%TO.N,Net-(LED1-R)*%
X110871000Y-86106000D03*
%TD*%
D54*
%TO.P,SW1,1,1*%
%TO.N,IO0*%
X141440000Y-73969800D03*
%TO.P,SW1,2,2*%
%TO.N,GND*%
X143040000Y-73969800D03*
%TO.P,SW1,3,3*%
%TO.N,IO0*%
X141440000Y-78069800D03*
%TO.P,SW1,4,4*%
%TO.N,GND*%
X143040000Y-78069800D03*
%TD*%
D36*
%TO.P,D1,1,C*%
%TO.N,EXT_5V*%
X88594600Y-134110200D03*
%TO.P,D1,2,A*%
%TO.N,VBUS*%
X88594600Y-130710200D03*
%TD*%
D27*
%TO.P,R13,1*%
%TO.N,Net-(Q3-D)*%
X94525600Y-82974800D03*
%TO.P,R13,2*%
%TO.N,/Battery_Voltage_Monitor_with_MOSFETS/V_Batt_Monitor_INPUT*%
X94525600Y-84974800D03*
%TD*%
D54*
%TO.P,SW2,1,1*%
%TO.N,ENA*%
X89179600Y-73969800D03*
%TO.P,SW2,2,2*%
%TO.N,GND*%
X90779600Y-73969800D03*
%TO.P,SW2,3,3*%
%TO.N,ENA*%
X89179600Y-78069800D03*
%TO.P,SW2,4,4*%
%TO.N,GND*%
X90779600Y-78069800D03*
%TD*%
D55*
%TO.P,R11,1,1*%
%TO.N,D27*%
X113400000Y-80895000D03*
%TO.P,R11,2,2*%
%TO.N,Net-(LED1-B)*%
X113400000Y-81915000D03*
%TD*%
D35*
%TO.P,Q5,1,G*%
%TO.N,EXT_5V*%
X105882925Y-95097600D03*
%TO.P,Q5,2,S*%
%TO.N,/Buck-Boost3.3V/Buck-Boost_INPUT*%
X105882925Y-93197600D03*
%TO.P,Q5,3,D*%
%TO.N,VBAT*%
X103882925Y-94147600D03*
%TD*%
D31*
%TO.P,C14,1,1*%
%TO.N,GND*%
X132070000Y-102440000D03*
%TO.P,C14,2,2*%
%TO.N,+3V3*%
X132070000Y-101040000D03*
%TD*%
D41*
%TO.P,Q9,1,G*%
%TO.N,Net-(Q10-D)*%
X166558000Y-119923000D03*
%TO.P,Q9,2,S*%
%TO.N,+3V3*%
X164658000Y-119923000D03*
%TO.P,Q9,3,D*%
%TO.N,/I2C_Connector_Enable/3V3_Input_to_I2C_Connector*%
X165608000Y-122393000D03*
%TD*%
D56*
%TO.P,R28,1,1*%
%TO.N,GND*%
X168300400Y-128574800D03*
%TO.P,R28,2,2*%
%TO.N,/I2C_Connector_Enable/3V3_Input_to_I2C_Connector*%
X166793400Y-128574800D03*
%TD*%
D57*
%TO.P,H1,1,1*%
%TO.N,D12*%
X129540000Y-127203200D03*
D58*
%TO.P,H1,2,2*%
%TO.N,D15*%
X129540000Y-124663200D03*
%TO.P,H1,3,3*%
%TO.N,D2*%
X129540000Y-122123200D03*
%TD*%
D42*
%TO.P,R8,1*%
%TO.N,DTR*%
X106159300Y-115293350D03*
%TO.P,R8,2*%
%TO.N,Net-(Q1-B)*%
X106159300Y-113293350D03*
%TD*%
D43*
%TO.P,C7,1*%
%TO.N,+3V3*%
X135898000Y-92231400D03*
%TO.P,C7,2*%
%TO.N,GND*%
X137973000Y-92231400D03*
%TD*%
%TO.P,C8,1*%
%TO.N,+3V3*%
X135898000Y-95127000D03*
%TO.P,C8,2*%
%TO.N,GND*%
X137973000Y-95127000D03*
%TD*%
D42*
%TO.P,R26,1*%
%TO.N,Net-(Q10-G)*%
X171384000Y-111760000D03*
%TO.P,R26,2*%
%TO.N,D5*%
X171384000Y-109760000D03*
%TD*%
D28*
%TO.P,H4,1,1*%
%TO.N,+3V3*%
X114300000Y-122072400D03*
D29*
%TO.P,H4,2,2*%
%TO.N,D14*%
X114300000Y-124612400D03*
%TO.P,H4,3,3*%
%TO.N,+3V3*%
X114300000Y-127152400D03*
%TO.P,H4,4,4*%
%TO.N,GND*%
X114300000Y-129692400D03*
%TD*%
D42*
%TO.P,R3,1*%
%TO.N,VBUS*%
X96410000Y-132983300D03*
%TO.P,R3,2*%
%TO.N,Net-(U3-VBUS)*%
X96410000Y-130983300D03*
%TD*%
D59*
%TO.P,J2,1,SCL*%
%TO.N,D22*%
X153575001Y-131826000D03*
%TO.P,J2,2,SDA*%
%TO.N,D21*%
X154575002Y-131826000D03*
%TO.P,J2,3,3V3*%
%TO.N,+3V3*%
X155575000Y-131826000D03*
%TO.P,J2,4,GND*%
%TO.N,GND*%
X156575001Y-131826000D03*
D60*
%TO.P,J2,5,5*%
X157875000Y-135701001D03*
%TO.P,J2,6,6*%
X152275002Y-135701001D03*
%TD*%
D27*
%TO.P,R16,1*%
%TO.N,Net-(Q3-G)*%
X102646000Y-68314000D03*
%TO.P,R16,2*%
%TO.N,D25*%
X102646000Y-70314000D03*
%TD*%
D42*
%TO.P,R2,1*%
%TO.N,ENA*%
X105308600Y-63996000D03*
%TO.P,R2,2*%
%TO.N,+3V3*%
X105308600Y-61996000D03*
%TD*%
D14*
%TO.P,TP3,1,1*%
%TO.N,+3V3*%
X104970400Y-138926200D03*
%TD*%
%TO.P,TP5,1,1*%
%TO.N,EXT_5V*%
X104970400Y-144780000D03*
%TD*%
D59*
%TO.P,J1,1,SCL*%
%TO.N,D22*%
X164767000Y-131826000D03*
%TO.P,J1,2,SDA*%
%TO.N,D21*%
X165767001Y-131826000D03*
%TO.P,J1,3,3V3*%
%TO.N,/I2C_Connector_Enable/3V3_Input_to_I2C_Connector*%
X166766999Y-131826000D03*
%TO.P,J1,4,GND*%
%TO.N,GND*%
X167767000Y-131826000D03*
D60*
%TO.P,J1,5,5*%
X169066999Y-135701001D03*
%TO.P,J1,6,6*%
X163467001Y-135701001D03*
%TD*%
D61*
%TO.P,U4,*%
%TO.N,*%
X167735600Y-105643500D03*
X152501600Y-105643500D03*
D58*
%TO.P,U4,1,VCC*%
%TO.N,+3V3*%
X167741600Y-87126000D03*
D57*
%TO.P,U4,2,GND*%
%TO.N,GND*%
X165201600Y-87125000D03*
D58*
%TO.P,U4,3,SCL*%
%TO.N,D22*%
X162661600Y-87124000D03*
%TO.P,U4,4,SDA*%
%TO.N,D21*%
X160121600Y-87123000D03*
%TO.P,U4,5,INT*%
%TO.N,unconnected-(U4-INT-Pad5)*%
X157581600Y-87122000D03*
%TO.P,U4,6,RST*%
%TO.N,unconnected-(U4-RST-Pad6)*%
X155041600Y-87121000D03*
%TO.P,U4,7,32K*%
%TO.N,unconnected-(U4-32K-Pad7)*%
X152501600Y-87120000D03*
%TD*%
D24*
%TO.P,C6,1,1*%
%TO.N,GND*%
X96130600Y-75264800D03*
%TO.P,C6,2,2*%
%TO.N,ENA*%
X96130600Y-74174800D03*
%TD*%
D14*
%TO.P,TP4,1,1*%
%TO.N,D34*%
X108480000Y-73530000D03*
%TD*%
D56*
%TO.P,R27,1,1*%
%TO.N,GND*%
X124197600Y-118541800D03*
%TO.P,R27,2,2*%
%TO.N,/micro_SD-CARD_enable/3V3_Input_to_micro_SD-CARD*%
X125704600Y-118541800D03*
%TD*%
D27*
%TO.P,R6,1*%
%TO.N,Net-(U3-~{RST})*%
X101693200Y-131002100D03*
%TO.P,R6,2*%
%TO.N,Net-(R5-Pad1)*%
X101693200Y-133002100D03*
%TD*%
D42*
%TO.P,R7,1*%
%TO.N,GND*%
X107027200Y-133002100D03*
%TO.P,R7,2*%
%TO.N,Net-(U3-~{SUSPEND})*%
X107027200Y-131002100D03*
%TD*%
D47*
%TO.P,C4,1,1*%
%TO.N,GND*%
X137898000Y-89183400D03*
%TO.P,C4,2,2*%
%TO.N,+3V3*%
X135898000Y-89183400D03*
%TD*%
D42*
%TO.P,R15,1*%
%TO.N,GND*%
X110286000Y-68904000D03*
%TO.P,R15,2*%
%TO.N,D34*%
X110286000Y-66904000D03*
%TD*%
D16*
%TO.P,Q10,1,G*%
%TO.N,Net-(Q10-G)*%
X171450000Y-114316000D03*
%TO.P,Q10,2,S*%
%TO.N,GND*%
X169550000Y-114316000D03*
%TO.P,Q10,3,D*%
%TO.N,Net-(Q10-D)*%
X170500000Y-116316000D03*
%TD*%
D24*
%TO.P,R21,1,1*%
%TO.N,Net-(CARD1-DAT2)*%
X132283200Y-136319600D03*
%TO.P,R21,2,2*%
%TO.N,/micro_SD-CARD_enable/3V3_Input_to_micro_SD-CARD*%
X132283200Y-135229600D03*
%TD*%
D22*
%TO.P,H5,1,1*%
%TO.N,GND*%
X137160000Y-142468600D03*
D23*
%TO.P,H5,2,2*%
%TO.N,D18*%
X137160000Y-145008600D03*
%TO.P,H5,3,3*%
%TO.N,D19*%
X137160000Y-147548600D03*
%TO.P,H5,4,4*%
%TO.N,+3V3*%
X137160000Y-150088600D03*
%TO.P,H5,5,5*%
%TO.N,GND*%
X137160000Y-152628600D03*
%TO.P,H5,6,6*%
%TO.N,D23*%
X137160000Y-155168600D03*
%TD*%
D57*
%TO.P,H2,1,1*%
%TO.N,GND*%
X121920000Y-127203200D03*
D58*
%TO.P,H2,2,2*%
%TO.N,+3V3*%
X121920000Y-124663200D03*
%TO.P,H2,3,3*%
%TO.N,D13*%
X121920000Y-122123200D03*
%TD*%
D24*
%TO.P,R18,1,1*%
%TO.N,D15*%
X127660400Y-138453200D03*
%TO.P,R18,2,2*%
%TO.N,/micro_SD-CARD_enable/3V3_Input_to_micro_SD-CARD*%
X127660400Y-137363200D03*
%TD*%
D62*
%TO.P,C16,1*%
%TO.N,GND*%
X168884600Y-125399800D03*
%TO.P,C16,2*%
%TO.N,/I2C_Connector_Enable/3V3_Input_to_I2C_Connector*%
X166809600Y-125399800D03*
%TD*%
D36*
%TO.P,D3,1,C*%
%TO.N,/Buck-Boost3.3V/Buck-Boost_INPUT*%
X108458000Y-91723000D03*
%TO.P,D3,2,A*%
%TO.N,EXT_5V*%
X108458000Y-95123000D03*
%TD*%
D15*
%TO.P,R1,1*%
%TO.N,GND*%
X94335800Y-138644700D03*
%TO.P,R1,2*%
%TO.N,EXT_5V*%
X92335800Y-138644700D03*
%TD*%
D55*
%TO.P,R12,1,1*%
%TO.N,D26*%
X111760000Y-80895000D03*
%TO.P,R12,2,2*%
%TO.N,Net-(LED1-G)*%
X111760000Y-81915000D03*
%TD*%
D15*
%TO.P,R29,1*%
%TO.N,Net-(Q10-D)*%
X166608000Y-117856000D03*
%TO.P,R29,2*%
%TO.N,+3V3*%
X164608000Y-117856000D03*
%TD*%
D17*
%TO.P,C12,1*%
%TO.N,/Buck-Boost3.3V/Buck-Boost_INPUT*%
X122946000Y-100686500D03*
%TO.P,C12,2*%
%TO.N,GND*%
X122946000Y-102761500D03*
%TD*%
D63*
%TO.N,GND*%
X99051600Y-134532000D03*
X120954800Y-103301800D03*
X165201600Y-84582000D03*
X153111200Y-134162800D03*
X132181600Y-145101900D03*
X166293800Y-134366000D03*
X156895800Y-134188200D03*
X125526800Y-133773500D03*
X164185600Y-134137400D03*
X141122400Y-80467200D03*
X103124000Y-101854000D03*
X88823800Y-120700800D03*
X119913400Y-144212900D03*
X140817600Y-95127000D03*
X168198800Y-134137400D03*
X129622000Y-106405000D03*
X97010000Y-123510000D03*
X88849200Y-117348000D03*
X104919600Y-149860000D03*
X168148000Y-112649000D03*
X100685600Y-119546750D03*
X155092400Y-134315200D03*
X136804400Y-104546400D03*
X122758200Y-105079800D03*
X88874600Y-123698000D03*
X93764500Y-133051700D03*
X119024400Y-152467900D03*
X121666000Y-115062000D03*
X94469800Y-77649200D03*
X136855200Y-110693200D03*
X131724400Y-152518700D03*
X134391400Y-104978200D03*
%TO.N,IO0*%
X101425100Y-114207750D03*
X132600700Y-76263500D03*
X137007600Y-77114400D03*
%TO.N,ENA*%
X88900000Y-86593600D03*
X87782400Y-102209600D03*
%TO.N,+3V3*%
X121721100Y-111099600D03*
X120629027Y-61878400D03*
X114096800Y-86614000D03*
X167741600Y-84582000D03*
X104385600Y-131002100D03*
X156464000Y-128346200D03*
X104970400Y-138926200D03*
X164658000Y-112522000D03*
X131092000Y-105109200D03*
X131369000Y-87253000D03*
X97739200Y-129844800D03*
X136332000Y-98655000D03*
X93768400Y-130980600D03*
%TO.N,D15*%
X133630000Y-79660000D03*
%TO.N,D2*%
X119874600Y-134134500D03*
X132560000Y-78388400D03*
%TO.N,D14*%
X115350000Y-76657200D03*
X116510000Y-116452400D03*
%TO.N,/Battery_Voltage_Monitor_with_MOSFETS/V_Batt_Monitor_INPUT*%
X89916000Y-99872800D03*
%TO.N,EXT_5V*%
X97409000Y-141351000D03*
X105882925Y-97434400D03*
X88650300Y-136171000D03*
X104970400Y-143000000D03*
%TO.N,D12*%
X124990000Y-77090000D03*
X127355600Y-122072400D03*
%TO.N,D13*%
X128390000Y-79640000D03*
%TO.N,D4*%
X138120000Y-75860000D03*
X139827000Y-114655600D03*
%TO.N,D26*%
X111760000Y-79502000D03*
X113870000Y-73300000D03*
%TO.N,D27*%
X113400000Y-79465600D03*
X115320000Y-74540000D03*
%TO.N,D22*%
X152781000Y-123367800D03*
X136960000Y-63140000D03*
X163830000Y-128219200D03*
X161594800Y-111150400D03*
X146456400Y-68986400D03*
%TO.N,D23*%
X136998400Y-61878400D03*
%TO.N,D21*%
X160147000Y-108915200D03*
X165125400Y-126949200D03*
X154609800Y-127076200D03*
X146367500Y-72072500D03*
X136990000Y-66960000D03*
%TO.N,D5*%
X150241000Y-92456000D03*
X138214100Y-73266300D03*
X142621000Y-92456000D03*
X171384000Y-104658200D03*
%TO.N,D19*%
X138938000Y-69510000D03*
%TO.N,D18*%
X137287000Y-70768400D03*
%TO.N,D33*%
X110185200Y-79502000D03*
X111928700Y-73041300D03*
%TO.N,D35*%
X119964200Y-68122800D03*
%TO.N,D32*%
X118890000Y-69500000D03*
%TO.N,DN*%
X94716600Y-121942050D03*
X94716600Y-119275050D03*
%TO.N,/micro_SD-CARD_enable/3V3_Input_to_micro_SD-CARD*%
X130204600Y-133484500D03*
X118259600Y-135649500D03*
X124155200Y-127431800D03*
X127660400Y-136053400D03*
X123240800Y-133011500D03*
X121056400Y-135399100D03*
%TO.N,D25*%
X102692400Y-72038400D03*
X115240000Y-72038400D03*
%TO.N,D-*%
X99415600Y-121053050D03*
X96046549Y-117665250D03*
%TO.N,TXD0*%
X131343600Y-62869000D03*
X104634733Y-116865150D03*
X99949000Y-102946200D03*
X96799400Y-102946200D03*
%TO.N,RXD0*%
X103606600Y-116865150D03*
X132378400Y-65695000D03*
%TO.N,/Buck-Boost3.3V/Buck-Boost_INPUT*%
X121488400Y-100638800D03*
X128550575Y-105064560D03*
%TD*%
D64*
%TO.N,DP*%
X91950000Y-120522000D02*
X92171000Y-120301000D01*
X91950000Y-121080450D02*
X91950000Y-120522000D01*
X92170550Y-121301000D02*
X93370400Y-121301000D01*
X91950000Y-121080450D02*
X92170550Y-121301000D01*
X97647550Y-120301000D02*
X92171000Y-120301000D01*
X97952600Y-120606050D02*
X97647550Y-120301000D01*
X97952600Y-121296050D02*
X97952600Y-120606050D01*
D65*
%TO.N,VBUS*%
X92782564Y-118143800D02*
X91109800Y-119816564D01*
X91109800Y-121263436D02*
X92786364Y-122940000D01*
X93405000Y-118143800D02*
X92782564Y-118143800D01*
X91109800Y-119816564D02*
X91109800Y-121263436D01*
X92786364Y-122940000D02*
X93360000Y-122940000D01*
X93405000Y-118143800D02*
X93397800Y-118151000D01*
D64*
%TO.N,Net-(Q10-D)*%
X167293800Y-117170200D02*
X166608000Y-117856000D01*
X170259800Y-117170200D02*
X167293800Y-117170200D01*
X170500000Y-116930000D02*
X170259800Y-117170200D01*
X170500000Y-116316000D02*
X170500000Y-116930000D01*
%TO.N,GND*%
X90779600Y-80425300D02*
X90928100Y-80573800D01*
D66*
X135005300Y-112725200D02*
X133125700Y-112725200D01*
X118896500Y-152340000D02*
X119024400Y-152467900D01*
X167776401Y-131816599D02*
X167776401Y-129098799D01*
X132150000Y-142510000D02*
X132170000Y-142530000D01*
X88865400Y-117331800D02*
X88849200Y-117348000D01*
X117558800Y-143216200D02*
X117573600Y-143231000D01*
X92788200Y-125653800D02*
X92804600Y-125653800D01*
D64*
X94469800Y-77649200D02*
X94206200Y-77649200D01*
X129622000Y-105765000D02*
X129622200Y-105764800D01*
D66*
X132170000Y-142530000D02*
X132170000Y-142740000D01*
D64*
X110286000Y-68964000D02*
X110286000Y-68904000D01*
X90834600Y-74024800D02*
X92450600Y-74024800D01*
D66*
X96130600Y-75264800D02*
X96130600Y-77749800D01*
X135221600Y-60608400D02*
X135251000Y-60579000D01*
X143427500Y-73582300D02*
X143040000Y-73969800D01*
X125306000Y-61751400D02*
X125306000Y-60651600D01*
D64*
X90790600Y-78124800D02*
X90790600Y-73980800D01*
D66*
X132909200Y-152500800D02*
X131742300Y-152500800D01*
D64*
X90928100Y-80573800D02*
X90928100Y-83727300D01*
D66*
X167776401Y-129098799D02*
X168300400Y-128574800D01*
X122070000Y-141740000D02*
X122073600Y-141743600D01*
D64*
X97002600Y-123502600D02*
X97010000Y-123510000D01*
X125526800Y-136202600D02*
X125526800Y-133773500D01*
D66*
X125306000Y-61047800D02*
X124866600Y-60608400D01*
D64*
X104122600Y-120068050D02*
X104622600Y-120568050D01*
D66*
X143040000Y-78069800D02*
X143040000Y-78549600D01*
X117573600Y-152500800D02*
X117734400Y-152340000D01*
X132173600Y-145093900D02*
X132181600Y-145101900D01*
X119913400Y-143400100D02*
X119913400Y-144212900D01*
X168884600Y-125399800D02*
X168884600Y-127990600D01*
X125306000Y-61751400D02*
X125306000Y-66984000D01*
X167767000Y-131826000D02*
X167776401Y-131816599D01*
X138383200Y-60608400D02*
X143427500Y-65652700D01*
X136855200Y-110875300D02*
X135005300Y-112725200D01*
X133070000Y-152340000D02*
X132909200Y-152500800D01*
X122073600Y-141743600D02*
X122073600Y-142865500D01*
X110286000Y-73156000D02*
X115518400Y-78388400D01*
X127141000Y-69809000D02*
X126821000Y-69489000D01*
X135280400Y-60608400D02*
X138383200Y-60608400D01*
X163476402Y-134846598D02*
X163476402Y-135712200D01*
X121666000Y-116535200D02*
X123672600Y-118541800D01*
X156591000Y-131841999D02*
X156591000Y-132816600D01*
X113274000Y-68904000D02*
X113411200Y-69041200D01*
X125306000Y-61751400D02*
X125306000Y-61047800D01*
X133070000Y-152524000D02*
X133070000Y-152340000D01*
X143427500Y-69059800D02*
X143427500Y-73582300D01*
X88865400Y-115441000D02*
X88865400Y-117331800D01*
X127141000Y-76675000D02*
X127141000Y-69809000D01*
D64*
X129622200Y-103125000D02*
X129117200Y-102620000D01*
D66*
X125306000Y-61058000D02*
X125755600Y-60608400D01*
X165201600Y-84582000D02*
X165201600Y-87125000D01*
D64*
X128600400Y-102565000D02*
X128600400Y-102594600D01*
X93690600Y-75264800D02*
X96130600Y-75264800D01*
D66*
X117570000Y-142740000D02*
X117558800Y-142751200D01*
X125306000Y-61751400D02*
X125306000Y-61058000D01*
X88823800Y-121689400D02*
X92788200Y-125653800D01*
X125349200Y-60608400D02*
X125755600Y-60608400D01*
X137973000Y-89258400D02*
X137973000Y-92231400D01*
X123672600Y-118541800D02*
X124197600Y-118541800D01*
D64*
X90779600Y-73969800D02*
X90834600Y-74024800D01*
D66*
X93768400Y-133055600D02*
X93764500Y-133051700D01*
D64*
X93785600Y-78069800D02*
X90779600Y-78069800D01*
D66*
X99051600Y-134532000D02*
X99051600Y-133002100D01*
X115518400Y-78388400D02*
X125450800Y-78388400D01*
X117573600Y-152831000D02*
X117573600Y-152947500D01*
X133058800Y-152535200D02*
X133070000Y-152524000D01*
X93370400Y-117309200D02*
X93370400Y-116016000D01*
D67*
X129117200Y-102620000D02*
X129123300Y-102613900D01*
D66*
X94476233Y-77642767D02*
X94469800Y-77649200D01*
X137973000Y-95127000D02*
X137973000Y-92231400D01*
X169550000Y-114316000D02*
X169550000Y-114051000D01*
X132170000Y-142740000D02*
X132173600Y-142743600D01*
X91126800Y-133051700D02*
X93764500Y-133051700D01*
X96130600Y-77749800D02*
X96085600Y-77794800D01*
X88823800Y-120700800D02*
X88823800Y-121689400D01*
X121666000Y-115062000D02*
X121666000Y-116535200D01*
X164185600Y-134137400D02*
X163476402Y-134846598D01*
X110286000Y-68904000D02*
X110312400Y-68930400D01*
D64*
X129622200Y-105764800D02*
X129622200Y-104082000D01*
D66*
X143040000Y-78549600D02*
X141122400Y-80467200D01*
X117570000Y-142897200D02*
X117570000Y-142740000D01*
X156895800Y-134188200D02*
X157890999Y-135183399D01*
X93370400Y-123753000D02*
X93379600Y-123743800D01*
X121539000Y-143400100D02*
X119913400Y-143400100D01*
X125450800Y-78388400D02*
X125450800Y-78365200D01*
X92795400Y-115441000D02*
X88823800Y-119412600D01*
X135251000Y-60579000D02*
X135280400Y-60608400D01*
X131742300Y-152500800D02*
X131724400Y-152518700D01*
X110286000Y-68904000D02*
X110286000Y-73156000D01*
D64*
X90914200Y-78248400D02*
X90790600Y-78124800D01*
D67*
X129718000Y-102620000D02*
X129616000Y-102722000D01*
D64*
X90790600Y-73980800D02*
X90779600Y-73969800D01*
X110363200Y-69041200D02*
X110286000Y-68964000D01*
D66*
X125450800Y-78365200D02*
X127141000Y-76675000D01*
X94335800Y-138644700D02*
X94938900Y-138644700D01*
X118072900Y-143400100D02*
X117570000Y-142897200D01*
X156575001Y-131826000D02*
X156591000Y-131841999D01*
D64*
X90928100Y-83727300D02*
X90906600Y-83748800D01*
D66*
X143427500Y-65652700D02*
X143427500Y-69059800D01*
D64*
X92450600Y-74024800D02*
X93690600Y-75264800D01*
D66*
X117297200Y-60553600D02*
X117352000Y-60608400D01*
X168884600Y-127990600D02*
X168300400Y-128574800D01*
X93370400Y-116016000D02*
X92795400Y-115441000D01*
X153111200Y-134162800D02*
X152291001Y-134982999D01*
X99051600Y-134532000D02*
X105497300Y-134532000D01*
X157890999Y-135183399D02*
X157890999Y-135709199D01*
X105497300Y-134532000D02*
X107027200Y-133002100D01*
X166293800Y-134366000D02*
X167776401Y-132883399D01*
X94938900Y-138644700D02*
X99051600Y-134532000D01*
D64*
X97002600Y-121296050D02*
X97002600Y-123502600D01*
X129622200Y-104082000D02*
X129624200Y-104080000D01*
D66*
X167776401Y-132883399D02*
X167776401Y-131835401D01*
D64*
X101206900Y-120068050D02*
X102172600Y-120068050D01*
D66*
X92804600Y-125653800D02*
X92804600Y-125651800D01*
X93370400Y-125086000D02*
X93370400Y-123753000D01*
X88874600Y-125651800D02*
X88874600Y-123698000D01*
X117734400Y-152340000D02*
X118896500Y-152340000D01*
X92804600Y-125651800D02*
X93370400Y-125086000D01*
X103124000Y-99843500D02*
X103124000Y-101854000D01*
X122073600Y-142865500D02*
X121539000Y-143400100D01*
X117352000Y-60608400D02*
X124866600Y-60608400D01*
X156591000Y-132816600D02*
X155092400Y-134315200D01*
D64*
X129622000Y-106405000D02*
X129622000Y-105765000D01*
X100685600Y-119546750D02*
X101206900Y-120068050D01*
D66*
X125349200Y-60608400D02*
X125306000Y-60651600D01*
X132158800Y-142935200D02*
X132150000Y-142926400D01*
X167776401Y-131835401D02*
X167767000Y-131826000D01*
D64*
X90779600Y-78069800D02*
X90779600Y-80425300D01*
D66*
X132150000Y-142926400D02*
X132150000Y-142510000D01*
D64*
X102172600Y-120068050D02*
X104122600Y-120068050D01*
X129117200Y-102077800D02*
X129087600Y-102077800D01*
D66*
X110286000Y-68904000D02*
X111760000Y-68904000D01*
X111760000Y-68904000D02*
X113274000Y-68904000D01*
X137973000Y-95127000D02*
X140817600Y-95127000D01*
X136855200Y-110693200D02*
X136855200Y-110875300D01*
D64*
X129122200Y-101120000D02*
X129122200Y-102615000D01*
D66*
X96085600Y-77794800D02*
X95933567Y-77642767D01*
X119913400Y-143400100D02*
X118072900Y-143400100D01*
D64*
X114300000Y-129675500D02*
X114300000Y-129692400D01*
X129122200Y-102615000D02*
X129117200Y-102620000D01*
D66*
X88865400Y-125661000D02*
X88874600Y-125651800D01*
X88823800Y-119412600D02*
X88823800Y-120700800D01*
X143040000Y-73969800D02*
X143040000Y-78069800D01*
X132173600Y-142743600D02*
X132173600Y-145093900D01*
X169076400Y-135015000D02*
X169076400Y-135712200D01*
X169550000Y-114051000D02*
X168148000Y-112649000D01*
D67*
X129616400Y-103119200D02*
X129628400Y-103131200D01*
D66*
X152291001Y-134982999D02*
X152291001Y-135709199D01*
X168198800Y-134137400D02*
X169076400Y-135015000D01*
X93405000Y-117343800D02*
X93370400Y-117309200D01*
X125755600Y-60608400D02*
X135221600Y-60608400D01*
X124866600Y-60608400D02*
X125349200Y-60608400D01*
D64*
X94206200Y-77649200D02*
X93785600Y-78069800D01*
D66*
X95933567Y-77642767D02*
X94476233Y-77642767D01*
X117558800Y-142751200D02*
X117558800Y-143216200D01*
D64*
%TO.N,IO0*%
X137058400Y-77114400D02*
X138013800Y-78069800D01*
X132600700Y-76263500D02*
X133455600Y-77118400D01*
X133455600Y-77118400D02*
X135306000Y-77118400D01*
X141440000Y-69147300D02*
X141352500Y-69059800D01*
X141440000Y-73969800D02*
X141440000Y-69147300D01*
X137003600Y-77118400D02*
X137007600Y-77114400D01*
X141440000Y-78069800D02*
X141440000Y-73969800D01*
X135306000Y-77118400D02*
X137003600Y-77118400D01*
X138013800Y-78069800D02*
X141440000Y-78069800D01*
X137007600Y-77114400D02*
X137058400Y-77114400D01*
%TO.N,ENA*%
X105431200Y-63961200D02*
X105435600Y-63965600D01*
X96130600Y-74174800D02*
X96130600Y-72854800D01*
X89179600Y-74013800D02*
X89179600Y-73202600D01*
X117297200Y-63139600D02*
X117306000Y-63148400D01*
X88900000Y-86593600D02*
X88906600Y-86587000D01*
X88914200Y-83772400D02*
X88906600Y-83764800D01*
X96130600Y-72090000D02*
X96130600Y-72854800D01*
X108026400Y-63961200D02*
X108788400Y-63199200D01*
X89103200Y-104724200D02*
X100807350Y-104724200D01*
X105396400Y-63996000D02*
X105431200Y-63961200D01*
X117191600Y-63199200D02*
X117297200Y-63093600D01*
X89190600Y-74024800D02*
X89179600Y-74013800D01*
X95660000Y-71440000D02*
X96030000Y-71440000D01*
X100807350Y-104724200D02*
X102331200Y-106248050D01*
X96030000Y-71440000D02*
X96130600Y-71339400D01*
X102331200Y-106248050D02*
X102331200Y-106998050D01*
X87782400Y-102209600D02*
X87782400Y-103403400D01*
X95660000Y-71440000D02*
X95850600Y-71440000D01*
X88853100Y-78462300D02*
X89190600Y-78124800D01*
X88906600Y-86587000D02*
X88906600Y-83748800D01*
X88906600Y-83764800D02*
X88906600Y-80500300D01*
X88853100Y-80446800D02*
X88853100Y-80636700D01*
X96130600Y-71339400D02*
X96130600Y-71720000D01*
X88915400Y-80289800D02*
X88914000Y-80288400D01*
X87782400Y-103403400D02*
X89103200Y-104724200D01*
X89179600Y-73202600D02*
X90942200Y-71440000D01*
X88914000Y-80697600D02*
X88915400Y-80699000D01*
X88915400Y-80699000D02*
X88915400Y-80289800D01*
X89190600Y-78124800D02*
X89190600Y-74024800D01*
X105308600Y-63996000D02*
X103474000Y-63996000D01*
X95850600Y-71440000D02*
X96130600Y-71720000D01*
X88906600Y-80500300D02*
X88853100Y-80446800D01*
X108788400Y-63199200D02*
X117191600Y-63199200D01*
X96130600Y-71720000D02*
X96130600Y-72090000D01*
X88853100Y-80636700D02*
X88915400Y-80699000D01*
X105343400Y-63961200D02*
X108026400Y-63961200D01*
X90942200Y-71440000D02*
X95660000Y-71440000D01*
X105308600Y-63996000D02*
X105343400Y-63961200D01*
X88915400Y-80699000D02*
X88923600Y-80707200D01*
X103474000Y-63996000D02*
X96130600Y-71339400D01*
X117297200Y-63093600D02*
X117297200Y-63139600D01*
X88853100Y-80636700D02*
X88853100Y-78462300D01*
D66*
%TO.N,+3V3*%
X112329000Y-86614000D02*
X111821000Y-86106000D01*
D64*
X130122200Y-100793400D02*
X130122200Y-101078000D01*
D66*
X135878600Y-95146400D02*
X135898000Y-95127000D01*
X101117400Y-122068050D02*
X102172600Y-122068050D01*
X124708900Y-111125000D02*
X124708900Y-113599800D01*
X97739200Y-125446250D02*
X101117400Y-122068050D01*
D64*
X130124200Y-101476800D02*
X130124400Y-101477000D01*
D66*
X101117400Y-122068050D02*
X101535400Y-121650050D01*
X164658000Y-117806000D02*
X164608000Y-117856000D01*
X133967600Y-87253000D02*
X133655000Y-87253000D01*
X105308600Y-61996000D02*
X105426200Y-61878400D01*
X124683500Y-111099600D02*
X124708900Y-111125000D01*
X117242400Y-61878400D02*
X117297200Y-61823600D01*
D67*
X131092000Y-105109200D02*
X130556200Y-105109200D01*
D66*
X117297200Y-61823600D02*
X117352000Y-61878400D01*
X114096800Y-86614000D02*
X112329000Y-86614000D01*
X156464000Y-128346200D02*
X156438600Y-128346200D01*
X105426200Y-61878400D02*
X117242400Y-61878400D01*
X135898000Y-89183400D02*
X133967600Y-87253000D01*
X101535400Y-121650050D02*
X102172600Y-121650050D01*
X167741600Y-84582000D02*
X167741600Y-87126000D01*
X135898000Y-95127000D02*
X135898000Y-92231400D01*
D64*
X93768400Y-130980600D02*
X93932450Y-130980600D01*
D66*
X164658000Y-112522000D02*
X164658000Y-117806000D01*
X135898000Y-92231400D02*
X135898000Y-89183400D01*
X102172600Y-122068050D02*
X102172600Y-121650050D01*
D64*
X130124200Y-101080000D02*
X130124200Y-101476800D01*
D66*
X124708900Y-113599800D02*
X124799500Y-113690400D01*
X133655000Y-87253000D02*
X131369000Y-87253000D01*
X105308600Y-62021400D02*
X105368800Y-61961200D01*
X117352000Y-61878400D02*
X120629027Y-61878400D01*
D67*
X130556200Y-105109200D02*
X130128000Y-104681000D01*
D64*
X130124400Y-100791200D02*
X130122200Y-100793400D01*
D67*
X130128000Y-104681000D02*
X130128000Y-104120000D01*
D66*
X155575000Y-131818199D02*
X155590999Y-131834198D01*
D64*
X130122200Y-101078000D02*
X130124200Y-101080000D01*
D66*
X156438600Y-128346200D02*
X155575000Y-129209800D01*
X164658000Y-119923000D02*
X164658000Y-117906000D01*
X97739200Y-129844800D02*
X97739200Y-125446250D01*
X155575000Y-129209800D02*
X155575000Y-131818199D01*
X121721100Y-111099600D02*
X124683500Y-111099600D01*
D64*
X114300000Y-127135500D02*
X114300000Y-127152400D01*
D66*
%TO.N,VBUS*%
X94241050Y-122943050D02*
X93405100Y-122943050D01*
D68*
X97002600Y-117243050D02*
X97002600Y-119021050D01*
D66*
X91090300Y-131013200D02*
X91126800Y-130976700D01*
D68*
X95634450Y-116770350D02*
X96529900Y-116770350D01*
D64*
X93372400Y-122951000D02*
X93379600Y-122943800D01*
D66*
X93928600Y-128600200D02*
X95198600Y-127330200D01*
X96410000Y-132983300D02*
X96410000Y-133865800D01*
D68*
X93405000Y-118143800D02*
X93412200Y-118151000D01*
D66*
X89864600Y-133807200D02*
X89864600Y-131013200D01*
D68*
X94253800Y-118151000D02*
X95634450Y-116770350D01*
D66*
X88637600Y-130589200D02*
X90626600Y-128600200D01*
X89864600Y-131013200D02*
X88897600Y-131013200D01*
X88897600Y-131013200D02*
X88594600Y-130710200D01*
X96410000Y-133865800D02*
X95833600Y-134442200D01*
D68*
X96529900Y-116770350D02*
X97002600Y-117243050D01*
D66*
X88594600Y-130710200D02*
X88637600Y-130667200D01*
D68*
X93412200Y-118151000D02*
X94253800Y-118151000D01*
D66*
X89864600Y-131013200D02*
X91090300Y-131013200D01*
X94241050Y-122943050D02*
X95198600Y-123900600D01*
X95198600Y-123900600D02*
X95198600Y-127330200D01*
X90499600Y-134442200D02*
X89864600Y-133807200D01*
X95833600Y-134442200D02*
X90499600Y-134442200D01*
X88637600Y-130667200D02*
X88637600Y-130589200D01*
X90626600Y-128600200D02*
X93928600Y-128600200D01*
D64*
%TO.N,D15*%
X127660400Y-138853500D02*
X125358800Y-141155100D01*
X127660400Y-138453200D02*
X127660400Y-138751900D01*
X128689600Y-137739500D02*
X128097400Y-138331700D01*
X125370000Y-141740000D02*
X125370000Y-141166300D01*
X129514600Y-124644500D02*
X131739600Y-126869500D01*
X125370000Y-141166300D02*
X125358800Y-141155100D01*
X129514600Y-124629500D02*
X129514600Y-124644500D01*
X135304400Y-79660000D02*
X135306000Y-79658400D01*
X128689600Y-132639500D02*
X128689600Y-137739500D01*
X125358800Y-141886000D02*
X125373600Y-141900800D01*
X131739600Y-126869500D02*
X131739600Y-129589500D01*
X127781900Y-138331700D02*
X127660400Y-138453200D01*
X128097400Y-138331700D02*
X127781900Y-138331700D01*
X128080600Y-138331700D02*
X127660400Y-138751900D01*
X133630000Y-79660000D02*
X135304400Y-79660000D01*
X127660400Y-138751900D02*
X127660400Y-138853500D01*
X131739600Y-129589500D02*
X128689600Y-132639500D01*
D65*
%TO.N,Net-(CARD1-DAT2)*%
X132259600Y-136343200D02*
X132283200Y-136319600D01*
X127570000Y-141289100D02*
X132259600Y-136599500D01*
X132259600Y-136599500D02*
X132259600Y-136343200D01*
X127573600Y-141900800D02*
X127570000Y-141897200D01*
X127570000Y-141897200D02*
X127570000Y-141289100D01*
D64*
%TO.N,D2*%
X120970000Y-141924000D02*
X120958800Y-141935200D01*
X120954800Y-139449300D02*
X120650000Y-139144500D01*
X119874600Y-138588300D02*
X120430800Y-139144500D01*
X120954800Y-139144500D02*
X120954800Y-139449300D01*
X120973600Y-139468100D02*
X120973600Y-141736400D01*
X120973600Y-141736400D02*
X120970000Y-141740000D01*
X120954800Y-139449300D02*
X120973600Y-139468100D01*
X132560000Y-78388400D02*
X135306000Y-78388400D01*
X120970000Y-141740000D02*
X120970000Y-141924000D01*
X119874600Y-134134500D02*
X119874600Y-138588300D01*
X120650000Y-139144500D02*
X120954800Y-139144500D01*
X120430800Y-139144500D02*
X120650000Y-139144500D01*
%TO.N,D14*%
X115350000Y-76657200D02*
X116158800Y-75848400D01*
X123173600Y-138463500D02*
X123190000Y-138447100D01*
X123160000Y-141740000D02*
X123160000Y-141887200D01*
X114300000Y-124612400D02*
X114283100Y-124612400D01*
X122515800Y-138280900D02*
X123119300Y-138280900D01*
X116158800Y-75848400D02*
X117306000Y-75848400D01*
X116510000Y-116452400D02*
X116510000Y-122046800D01*
X123158800Y-141738800D02*
X123160000Y-141740000D01*
X114300000Y-124612400D02*
X114300000Y-125272800D01*
X123158800Y-138312100D02*
X123158800Y-141738800D01*
X121970800Y-137735900D02*
X122515800Y-138280900D01*
X114300000Y-125272800D02*
X121970800Y-132943600D01*
X123190000Y-138447100D02*
X123190000Y-138280900D01*
X114300000Y-124256800D02*
X114300000Y-124612400D01*
X116510000Y-122046800D02*
X114300000Y-124256800D01*
X121970800Y-132943600D02*
X121970800Y-137735900D01*
X123119300Y-138280900D02*
X123190000Y-138351600D01*
X123190000Y-138280900D02*
X123158800Y-138312100D01*
D65*
%TO.N,Net-(CARD1-DAT1)*%
X119858800Y-141935200D02*
X119870000Y-141924000D01*
X119873600Y-141736400D02*
X119873600Y-140893500D01*
X118279600Y-138916000D02*
X118237000Y-138873400D01*
X118279600Y-139299500D02*
X118279600Y-138916000D01*
X119870000Y-141740000D02*
X119873600Y-141736400D01*
X119870000Y-141924000D02*
X119870000Y-141740000D01*
X119873600Y-140893500D02*
X118279600Y-139299500D01*
%TO.N,Net-(CARD1-CD{slash}DAT3)*%
X126470000Y-141202400D02*
X126470000Y-141924000D01*
X130209600Y-137462800D02*
X126470000Y-141202400D01*
X126470000Y-141924000D02*
X126458800Y-141935200D01*
X130200400Y-136472000D02*
X130209600Y-136481200D01*
X130209600Y-136481200D02*
X130209600Y-137462800D01*
D66*
%TO.N,VBAT*%
X94488000Y-97352200D02*
X94488000Y-97282000D01*
X98145600Y-98958400D02*
X102489000Y-94615000D01*
X102956400Y-94147600D02*
X103882925Y-94147600D01*
X102489000Y-94615000D02*
X102616000Y-94488000D01*
X103124000Y-95504000D02*
X103124000Y-95250000D01*
X102616000Y-94488000D02*
X102956400Y-94147600D01*
X94488000Y-97282000D02*
X94488000Y-98069400D01*
X94488000Y-98069400D02*
X95377000Y-98958400D01*
X103124000Y-97768500D02*
X103124000Y-95504000D01*
X103124000Y-95250000D02*
X102489000Y-94615000D01*
X102616000Y-94488000D02*
X102870000Y-94488000D01*
X103124000Y-94742000D02*
X103124000Y-94315200D01*
X102870000Y-94488000D02*
X103124000Y-94742000D01*
X103124000Y-94315200D02*
X102956400Y-94147600D01*
X103124000Y-95504000D02*
X103124000Y-94742000D01*
X95377000Y-98958400D02*
X98145600Y-98958400D01*
X103847325Y-94183200D02*
X103882925Y-94147600D01*
D64*
%TO.N,/Battery_Voltage_Monitor_with_MOSFETS/V_Batt_Monitor_INPUT*%
X94525600Y-84974800D02*
X98164200Y-84974800D01*
X99674600Y-83464400D02*
X101400800Y-83464400D01*
D66*
X89839800Y-96188000D02*
X89839800Y-99796600D01*
D64*
X94537450Y-84792367D02*
X94525600Y-84804217D01*
X98164200Y-84974800D02*
X99674600Y-83464400D01*
D66*
X89839800Y-99796600D02*
X89916000Y-99872800D01*
D64*
X88392000Y-98348800D02*
X88392000Y-90043000D01*
X89916000Y-99872800D02*
X88392000Y-98348800D01*
X94525600Y-84974800D02*
X93460200Y-84974800D01*
X93460200Y-84974800D02*
X88392000Y-90043000D01*
X101400800Y-83464400D02*
X101416000Y-83449200D01*
%TO.N,D34*%
X105003800Y-72271800D02*
X105003800Y-68126800D01*
X105156000Y-72424000D02*
X105003800Y-72271800D01*
X107374000Y-72424000D02*
X108480000Y-73530000D01*
X113286800Y-66966200D02*
X110339000Y-66966200D01*
X110339000Y-66966200D02*
X110286000Y-66913200D01*
X106150800Y-66979800D02*
X110210200Y-66979800D01*
X113411200Y-66966200D02*
X117298200Y-66966200D01*
X110286000Y-66913200D02*
X110286000Y-66904000D01*
X113349000Y-66904000D02*
X113286800Y-66966200D01*
X105003800Y-68126800D02*
X106150800Y-66979800D01*
X110210200Y-66979800D02*
X110286000Y-66904000D01*
X105156000Y-72424000D02*
X107374000Y-72424000D01*
X117298200Y-66966200D02*
X117306000Y-66958400D01*
D66*
%TO.N,EXT_5V*%
X105882925Y-95097600D02*
X105907925Y-95122600D01*
X88650300Y-136369200D02*
X90925800Y-138644700D01*
X93965400Y-141351000D02*
X97409000Y-141351000D01*
X91688600Y-138644700D02*
X92335800Y-138644700D01*
X104970400Y-143000000D02*
X104970400Y-144780000D01*
D64*
X88645300Y-136176000D02*
X88650300Y-136171000D01*
D66*
X92335800Y-139721400D02*
X92335800Y-138644700D01*
X88650300Y-136171000D02*
X88650300Y-136369200D01*
X105882925Y-97434400D02*
X105882925Y-95097600D01*
X105882925Y-95097600D02*
X108432600Y-95097600D01*
X88594600Y-136115300D02*
X88650300Y-136171000D01*
X92335800Y-139291900D02*
X91688600Y-138644700D01*
X88594600Y-134110200D02*
X88594600Y-136115300D01*
X108432600Y-95097600D02*
X108458000Y-95123000D01*
X92335800Y-139721400D02*
X93965400Y-141351000D01*
X90925800Y-138644700D02*
X91688600Y-138644700D01*
D64*
%TO.N,Net-(U5-L2)*%
X129622200Y-100339800D02*
X129622200Y-101117800D01*
X129629100Y-100600700D02*
X129640700Y-100589100D01*
%TO.N,Net-(U5-L1)*%
X128622200Y-100312200D02*
X128622200Y-101120000D01*
%TO.N,D12*%
X129514600Y-127177800D02*
X129514600Y-127169500D01*
X129540000Y-127203200D02*
X129514600Y-127177800D01*
X124961600Y-77118400D02*
X124990000Y-77090000D01*
X129540000Y-127152400D02*
X129540000Y-127203200D01*
X117306000Y-77118400D02*
X124961600Y-77118400D01*
X127355600Y-126888000D02*
X127670800Y-127203200D01*
X127670800Y-127203200D02*
X129540000Y-127203200D01*
X127355600Y-122072400D02*
X127355600Y-126888000D01*
%TO.N,D13*%
X128350000Y-79680000D02*
X123033200Y-79680000D01*
X128390000Y-79640000D02*
X128350000Y-79680000D01*
X123033200Y-79680000D02*
X123011600Y-79658400D01*
X123011600Y-79658400D02*
X117306000Y-79658400D01*
%TO.N,D4*%
X138108400Y-75848400D02*
X138120000Y-75860000D01*
X139801600Y-114630200D02*
X137376900Y-114630200D01*
X135306000Y-75848400D02*
X138108400Y-75848400D01*
X139827000Y-114655600D02*
X139801600Y-114630200D01*
%TO.N,D26*%
X115288400Y-73308400D02*
X117306000Y-73308400D01*
X111760000Y-80895000D02*
X111760000Y-79502000D01*
X113870000Y-73300000D02*
X115280000Y-73300000D01*
X115280000Y-73300000D02*
X115288400Y-73308400D01*
%TO.N,D27*%
X117306000Y-74578400D02*
X115358400Y-74578400D01*
X115358400Y-74578400D02*
X115320000Y-74540000D01*
X113400000Y-79465600D02*
X113400000Y-80895000D01*
%TO.N,D22*%
X164767000Y-131827798D02*
X164776401Y-131837199D01*
X163830000Y-128219200D02*
X163830000Y-129997200D01*
X152781000Y-123367800D02*
X152781000Y-127812800D01*
X162661600Y-85191600D02*
X146456400Y-68986400D01*
X153591000Y-131810001D02*
X153575001Y-131826000D01*
X153591000Y-128622800D02*
X153591000Y-131810001D01*
X162661600Y-85191600D02*
X162661600Y-87124000D01*
X162661600Y-110083600D02*
X162661600Y-87124000D01*
X135251000Y-63119000D02*
X135280400Y-63148400D01*
X161594800Y-111150400D02*
X162661600Y-110083600D01*
X136951600Y-63148400D02*
X136960000Y-63140000D01*
X152781000Y-127812800D02*
X153591000Y-128622800D01*
X163830000Y-129997200D02*
X164767000Y-130934200D01*
X135280400Y-63148400D02*
X136951600Y-63148400D01*
X164767000Y-130934200D02*
X164767000Y-131827798D01*
%TO.N,D23*%
X135251000Y-61849000D02*
X135280400Y-61878400D01*
X137000000Y-61880000D02*
X136998400Y-61878400D01*
X135280400Y-61878400D02*
X136998400Y-61878400D01*
%TO.N,D21*%
X154591001Y-131810001D02*
X154575002Y-131826000D01*
X146367500Y-72072500D02*
X160121600Y-85826600D01*
X154591001Y-127094999D02*
X154591001Y-131810001D01*
X165125400Y-129489200D02*
X165776402Y-130140202D01*
X160121600Y-108889800D02*
X160147000Y-108915200D01*
X160121600Y-87123000D02*
X160121600Y-108889800D01*
X165776402Y-130140202D02*
X165776402Y-131816599D01*
X136988400Y-66958400D02*
X136990000Y-66960000D01*
X160121600Y-85826600D02*
X160121600Y-87123000D01*
X165776402Y-131816599D02*
X165767001Y-131826000D01*
X165125400Y-126949200D02*
X165125400Y-129489200D01*
X154609800Y-127076200D02*
X154591001Y-127094999D01*
X135306000Y-66958400D02*
X136988400Y-66958400D01*
%TO.N,D5*%
X142621000Y-92456000D02*
X150241000Y-92456000D01*
X136978200Y-72038400D02*
X135306000Y-72038400D01*
X138214100Y-73266300D02*
X138206100Y-73266300D01*
X171384000Y-104658200D02*
X171384000Y-109760000D01*
X138206100Y-73266300D02*
X136978200Y-72038400D01*
%TO.N,D19*%
X138938000Y-69510000D02*
X136980000Y-69510000D01*
X136980000Y-69510000D02*
X136968400Y-69498400D01*
X136968400Y-69498400D02*
X135306000Y-69498400D01*
%TO.N,D18*%
X137007600Y-70764400D02*
X137011600Y-70768400D01*
X137011600Y-70768400D02*
X137287000Y-70768400D01*
X135306000Y-70768400D02*
X137287000Y-70768400D01*
%TO.N,D33*%
X110185200Y-79502000D02*
X110150000Y-79537200D01*
X110150000Y-79537200D02*
X110150000Y-80895000D01*
X111928700Y-73041300D02*
X114201600Y-70768400D01*
X114201600Y-70768400D02*
X117306000Y-70768400D01*
%TO.N,D35*%
X117250400Y-68228400D02*
X117221000Y-68199000D01*
X119858600Y-68228400D02*
X117250400Y-68228400D01*
X119964200Y-68122800D02*
X119858600Y-68228400D01*
%TO.N,D32*%
X117221000Y-69469000D02*
X117250400Y-69498400D01*
X118888400Y-69498400D02*
X118890000Y-69500000D01*
X117250400Y-69498400D02*
X118888400Y-69498400D01*
%TO.N,DN*%
X95097600Y-121296050D02*
X96052600Y-121296050D01*
X95097600Y-121561050D02*
X94716600Y-121942050D01*
X95097600Y-121296050D02*
X95097600Y-121561050D01*
X94832600Y-121296050D02*
X95097600Y-121296050D01*
X93377600Y-119793800D02*
X94197850Y-119793800D01*
X93370400Y-120801000D02*
X93378350Y-120793050D01*
X93378350Y-120793050D02*
X94329600Y-120793050D01*
X94329600Y-120793050D02*
X94832600Y-121296050D01*
X94197850Y-119793800D02*
X94716600Y-119275050D01*
X93370400Y-119801000D02*
X93377600Y-119793800D01*
D65*
%TO.N,/micro_SD-CARD_enable/3V3_Input_to_micro_SD-CARD*%
X118259600Y-137760800D02*
X118237000Y-137783400D01*
D66*
X125749500Y-118496900D02*
X125704600Y-118541800D01*
D64*
X127660400Y-136144000D02*
X125526800Y-138277600D01*
X123190000Y-133062300D02*
X123240800Y-133011500D01*
X125526800Y-138277600D02*
X124270000Y-139534400D01*
D66*
X125749500Y-116160400D02*
X125749500Y-118496900D01*
D64*
X131452500Y-133484500D02*
X132283200Y-134315200D01*
D66*
X124155200Y-127431800D02*
X124155200Y-121843800D01*
D64*
X130204600Y-133484500D02*
X131452500Y-133484500D01*
D65*
X130204600Y-135329500D02*
X130209600Y-135334500D01*
D64*
X124270000Y-139534400D02*
X124270000Y-141740000D01*
X132283200Y-134315200D02*
X132283200Y-135229600D01*
D66*
X124155200Y-121843800D02*
X125704600Y-120294400D01*
X125704600Y-120294400D02*
X125704600Y-118541800D01*
D64*
X120954800Y-138164400D02*
X120954800Y-135500700D01*
D65*
X118259600Y-135649500D02*
X118259600Y-137760800D01*
D64*
X127660400Y-137363200D02*
X127660400Y-136053400D01*
X120954800Y-135500700D02*
X121056400Y-135399100D01*
D65*
X132269600Y-135214500D02*
X132259600Y-135224500D01*
X130204600Y-133484500D02*
X130204600Y-135329500D01*
D64*
X127660400Y-136053400D02*
X127660400Y-136144000D01*
X123190000Y-137190900D02*
X123190000Y-133062300D01*
D66*
%TO.N,Net-(D2-C)*%
X89839800Y-92202000D02*
X90093800Y-91948000D01*
X90093800Y-91948000D02*
X92083800Y-91948000D01*
X94417800Y-94282000D02*
X94488000Y-94282000D01*
X89839800Y-92788000D02*
X89839800Y-92202000D01*
X92083800Y-91948000D02*
X94417800Y-94282000D01*
D64*
%TO.N,Net-(LED1-B)*%
X113400000Y-82942000D02*
X113400000Y-81915000D01*
X111821000Y-84866000D02*
X111821000Y-84521000D01*
X111821000Y-84521000D02*
X113400000Y-82942000D01*
%TO.N,Net-(LED1-G)*%
X111760000Y-83058000D02*
X111760000Y-81915000D01*
X110871000Y-83947000D02*
X111760000Y-83058000D01*
X110871000Y-84866000D02*
X110871000Y-83947000D01*
%TO.N,RTS*%
X105683316Y-117103350D02*
X108191300Y-117103350D01*
X110198900Y-115309350D02*
X108648500Y-115309350D01*
X105122600Y-117664066D02*
X105683316Y-117103350D01*
X108648500Y-116646150D02*
X108648500Y-115309350D01*
X103265200Y-109562250D02*
X103200000Y-109497050D01*
X110391200Y-110717050D02*
X110391200Y-115077050D01*
X105122600Y-118118050D02*
X105122600Y-117664066D01*
X103281200Y-109497050D02*
X109171200Y-109497050D01*
X108191300Y-117103350D02*
X108648500Y-116646150D01*
X110411200Y-115097050D02*
X110198900Y-115309350D01*
X110391200Y-115077050D02*
X110411200Y-115097050D01*
X109171200Y-109497050D02*
X110391200Y-110717050D01*
%TO.N,Net-(Q1-B)*%
X103381200Y-111497050D02*
X104363000Y-111497050D01*
X101381200Y-109497050D02*
X103381200Y-111497050D01*
X104363000Y-111497050D02*
X106159300Y-113293350D01*
%TO.N,Net-(Q2-B)*%
X103924100Y-114512550D02*
X103924100Y-115157750D01*
X107648500Y-114309350D02*
X104127300Y-114309350D01*
X104127300Y-114309350D02*
X103924100Y-114512550D01*
X108648500Y-113309350D02*
X107648500Y-114309350D01*
%TO.N,DTR*%
X102539800Y-117032150D02*
X102539800Y-116625750D01*
X102544700Y-116625750D02*
X102539800Y-116625750D01*
X102661800Y-116138150D02*
X102616000Y-116092350D01*
X103454200Y-116138150D02*
X105935700Y-116138150D01*
X102539800Y-116168550D02*
X102539800Y-115609750D01*
X102770850Y-116399600D02*
X102544700Y-116625750D01*
X102661800Y-116138150D02*
X102661800Y-116290550D01*
X102539800Y-115914550D02*
X102539800Y-115465050D01*
X102717600Y-115990750D02*
X102793800Y-115914550D01*
X102539800Y-113590450D02*
X102872500Y-113257750D01*
X102872500Y-113257750D02*
X103924100Y-113257750D01*
X102539800Y-115465050D02*
X102539800Y-113590450D01*
X102770850Y-116399600D02*
X103032300Y-116138150D01*
X102539800Y-115609750D02*
X102539800Y-115465050D01*
X106159300Y-115914550D02*
X106159300Y-115293350D01*
X105935700Y-116138150D02*
X106159300Y-115914550D01*
X102539800Y-116625750D02*
X102539800Y-116168550D01*
X103122600Y-117614950D02*
X102539800Y-117032150D01*
X103122600Y-118118050D02*
X103122600Y-117614950D01*
X103454200Y-116138150D02*
X102661800Y-116138150D01*
X102793800Y-115914550D02*
X102616000Y-116092350D01*
X103068200Y-116138150D02*
X102539800Y-115609750D01*
X102539800Y-115599750D02*
X102539800Y-115465050D01*
X103212900Y-116138150D02*
X103454200Y-116138150D01*
X102616000Y-116092350D02*
X102539800Y-116168550D01*
X103032300Y-116138150D02*
X103212900Y-116138150D01*
X103212900Y-116138150D02*
X103068200Y-116138150D01*
X102661800Y-116290550D02*
X102770850Y-116399600D01*
%TO.N,Net-(Q3-G)*%
X97976650Y-71693350D02*
X101356000Y-68314000D01*
X97985600Y-77794800D02*
X97976650Y-77785850D01*
X97976650Y-77785850D02*
X97976650Y-71693350D01*
X101356000Y-68314000D02*
X102646000Y-68314000D01*
%TO.N,Net-(Q3-D)*%
X97306283Y-81564400D02*
X97299850Y-81557967D01*
X97470000Y-81564400D02*
X97306283Y-81564400D01*
X96696450Y-81614967D02*
X96823450Y-81487967D01*
X94537450Y-82792367D02*
X94719883Y-82974800D01*
X97470000Y-81564400D02*
X101400800Y-81564400D01*
X96823450Y-81487967D02*
X97026650Y-81284767D01*
X96747016Y-81564400D02*
X96615708Y-81695708D01*
X97299850Y-81557967D02*
X97026650Y-81284767D01*
X95336617Y-82974800D02*
X96615708Y-81695708D01*
X97026650Y-81284767D02*
X97035600Y-81275817D01*
X97035600Y-81275817D02*
X97035600Y-79651717D01*
X96753450Y-81557967D02*
X96696450Y-81614967D01*
X96893450Y-81557967D02*
X97299850Y-81557967D01*
X97035600Y-79651717D02*
X97026650Y-79642767D01*
X97470000Y-81564400D02*
X96747016Y-81564400D01*
X94719883Y-82974800D02*
X95336617Y-82974800D01*
X97299850Y-81557967D02*
X96753450Y-81557967D01*
X96615708Y-81695708D02*
X96696450Y-81614967D01*
X101400800Y-81564400D02*
X101416000Y-81549200D01*
X96823450Y-81487967D02*
X96893450Y-81557967D01*
%TO.N,Net-(Q4-D)*%
X103900000Y-82514400D02*
X103915200Y-82499200D01*
X105156000Y-81808400D02*
X105156000Y-74424000D01*
X103915200Y-82499200D02*
X104465200Y-82499200D01*
X104465200Y-82499200D02*
X105156000Y-81808400D01*
%TO.N,Net-(U3-VBUS)*%
X99051600Y-131002100D02*
X99146700Y-131002100D01*
X99146700Y-131002100D02*
X101548600Y-128600200D01*
X96479600Y-130983300D02*
X96495600Y-130967300D01*
X101548600Y-128600200D02*
X101548600Y-125273400D01*
X103122600Y-123699400D02*
X103122600Y-123018050D01*
X96495600Y-130967300D02*
X99051600Y-130967300D01*
X101548600Y-125273400D02*
X103122600Y-123699400D01*
X96383200Y-130959300D02*
X96359200Y-130983300D01*
X96394800Y-130968100D02*
X96410000Y-130983300D01*
X96410000Y-130983300D02*
X96479600Y-130983300D01*
%TO.N,Net-(R5-Pad1)*%
X101693200Y-133002100D02*
X104385600Y-133002100D01*
%TO.N,Net-(U3-~{RST})*%
X101693200Y-131002100D02*
X103622600Y-129072700D01*
X103622600Y-129072700D02*
X103622600Y-123018050D01*
%TO.N,Net-(U3-~{SUSPEND})*%
X107027200Y-129935300D02*
X107027200Y-131002100D01*
X104622600Y-123018050D02*
X104622600Y-127530700D01*
X104622600Y-127530700D02*
X107027200Y-129935300D01*
%TO.N,D25*%
X102646000Y-71992000D02*
X102692400Y-72038400D01*
X102641600Y-70209600D02*
X102646000Y-70214000D01*
X102646000Y-70214000D02*
X102646000Y-71992000D01*
X117306000Y-72038400D02*
X115240000Y-72038400D01*
%TO.N,D+*%
X100455600Y-120569050D02*
X98907600Y-119021050D01*
X100456600Y-120568050D02*
X100455600Y-120569050D01*
X102172600Y-120568050D02*
X100456600Y-120568050D01*
X98907600Y-119021050D02*
X97952600Y-119021050D01*
%TO.N,D-*%
X96052600Y-119021050D02*
X96052600Y-117671301D01*
X96052600Y-117671301D02*
X96046549Y-117665250D01*
X102172600Y-121068050D02*
X99430600Y-121068050D01*
X99430600Y-121068050D02*
X99415600Y-121053050D01*
X99431600Y-121069050D02*
X99415600Y-121053050D01*
%TO.N,TXD0*%
X135221600Y-64418400D02*
X132893000Y-64418400D01*
X135251000Y-64389000D02*
X135221600Y-64418400D01*
X104634733Y-116954617D02*
X104622600Y-116966750D01*
X96799400Y-102946200D02*
X99949000Y-102946200D01*
X104622600Y-116966750D02*
X104622600Y-118118050D01*
X104634733Y-116865150D02*
X104634733Y-116954617D01*
X132893000Y-64418400D02*
X131343600Y-62869000D01*
%TO.N,RXD0*%
X132385000Y-65688400D02*
X135306000Y-65688400D01*
X103606600Y-116865150D02*
X104122600Y-117381150D01*
X104122600Y-117381150D02*
X104122600Y-118118050D01*
X132378400Y-65695000D02*
X132385000Y-65688400D01*
%TO.N,Net-(LED1-R)*%
X110032800Y-86106000D02*
X110871000Y-86106000D01*
X110150000Y-81915000D02*
X110150000Y-82636000D01*
X110150000Y-82636000D02*
X109524800Y-83261200D01*
X109524800Y-83261200D02*
X109524800Y-85598000D01*
X109524800Y-85598000D02*
X110032800Y-86106000D01*
D66*
%TO.N,/I2C_Connector_Enable/3V3_Input_to_I2C_Connector*%
X166793400Y-131799599D02*
X166766999Y-131826000D01*
X165608000Y-124198200D02*
X166809600Y-125399800D01*
X166793400Y-128574800D02*
X166793400Y-131799599D01*
X166809600Y-125399800D02*
X166809600Y-128558600D01*
X165608000Y-122393000D02*
X165608000Y-124198200D01*
X166809600Y-128558600D02*
X166793400Y-128574800D01*
D64*
%TO.N,Net-(Q7-G)*%
X133125700Y-114625200D02*
X135371900Y-114625200D01*
X135371900Y-114625200D02*
X135376900Y-114630200D01*
%TO.N,/Buck-Boost3.3V/Buck-Boost_INPUT*%
X128550575Y-105064560D02*
X128622200Y-104992935D01*
D66*
X117500400Y-91084400D02*
X117500400Y-92151200D01*
X117500400Y-92151200D02*
X117492475Y-92159125D01*
D64*
X128622200Y-104992935D02*
X128622200Y-104082000D01*
X128122200Y-101472600D02*
X128122200Y-101082000D01*
X128550575Y-105064560D02*
X128852440Y-105064560D01*
X128117800Y-101477000D02*
X128122200Y-101472600D01*
D66*
X116959075Y-91625725D02*
X117492475Y-92159125D01*
X117500400Y-91084400D02*
X116535200Y-91084400D01*
X116535200Y-91084400D02*
X116530800Y-91080000D01*
X116535200Y-91084400D02*
X116476475Y-91143125D01*
X116530800Y-91080000D02*
X116530800Y-91088800D01*
X116476475Y-91143125D02*
X116959075Y-91625725D01*
D64*
X128622200Y-104082000D02*
X128624200Y-104080000D01*
X128122200Y-104636185D02*
X128550575Y-105064560D01*
X129122200Y-104794800D02*
X129122200Y-104082000D01*
D66*
X117500400Y-91084400D02*
X116959075Y-91625725D01*
X117492475Y-92159125D02*
X121488400Y-96155050D01*
X106307600Y-93197600D02*
X105882925Y-93197600D01*
D64*
X128124200Y-101080000D02*
X128122200Y-101078000D01*
D66*
X121488400Y-96155050D02*
X121488400Y-100638800D01*
X116530800Y-91088800D02*
X115896600Y-91723000D01*
X119227600Y-89357200D02*
X117500400Y-91084400D01*
X116861800Y-91723000D02*
X116959075Y-91625725D01*
X105882925Y-93197600D02*
X107386525Y-91694000D01*
D64*
X128852440Y-105064560D02*
X129122200Y-104794800D01*
X129122200Y-104082000D02*
X129124200Y-104080000D01*
X128122200Y-101082000D02*
X128124200Y-101080000D01*
X128122200Y-104082000D02*
X128122200Y-104636185D01*
D66*
X115896600Y-91723000D02*
X108458000Y-91723000D01*
D64*
X128122200Y-101078000D02*
X128122200Y-100821000D01*
X128122200Y-100821000D02*
X128117800Y-100816600D01*
D66*
X115896600Y-91723000D02*
X116861800Y-91723000D01*
D64*
X128124200Y-104080000D02*
X128122200Y-104082000D01*
D66*
X108429000Y-91694000D02*
X108458000Y-91723000D01*
X106307600Y-93197600D02*
X106320000Y-93210000D01*
X107386525Y-91694000D02*
X108429000Y-91694000D01*
%TO.N,Net-(Q7-D)*%
X131110500Y-113690400D02*
X131125700Y-113675200D01*
X126708900Y-113681000D02*
X126699500Y-113690400D01*
X126708900Y-111125000D02*
X126708900Y-113681000D01*
X126699500Y-113690400D02*
X131110500Y-113690400D01*
D64*
%TO.N,Net-(Q10-D)*%
X166608000Y-117856000D02*
X166608000Y-119873000D01*
X166608000Y-119873000D02*
X166558000Y-119923000D01*
%TO.N,Net-(Q10-G)*%
X171384000Y-114250000D02*
X171450000Y-114316000D01*
X171384000Y-111760000D02*
X171384000Y-114250000D01*
%TD*%
%TA.AperFunction,Conductor*%
%TO.N,Net-(U5-L1)*%
G36*
X128341340Y-93642258D02*
G01*
X128362518Y-93657074D01*
X128699480Y-93939336D01*
X128743771Y-94002476D01*
X128752800Y-94053555D01*
X128752800Y-98301998D01*
X128902951Y-99726368D01*
X128901968Y-99765103D01*
X128794757Y-100447814D01*
X128794422Y-100448568D01*
X128794501Y-100449391D01*
X128791316Y-100455569D01*
X128763479Y-100518315D01*
X128762468Y-100519553D01*
X128757936Y-100525042D01*
X128747794Y-100535185D01*
X128745758Y-100539795D01*
X128734906Y-100552942D01*
X128708743Y-100571576D01*
X128684349Y-100592476D01*
X128677642Y-100593729D01*
X128672085Y-100597688D01*
X128640105Y-100600745D01*
X128608534Y-100606646D01*
X128602099Y-100604378D01*
X128595307Y-100605028D01*
X128566087Y-100591687D01*
X128535791Y-100581011D01*
X128529985Y-100575204D01*
X128525145Y-100572995D01*
X128518630Y-100563849D01*
X128497071Y-100542288D01*
X128492205Y-100535184D01*
X128412764Y-100455743D01*
X128309994Y-100410366D01*
X128309991Y-100410365D01*
X128284865Y-100407450D01*
X128284859Y-100407450D01*
X128262181Y-100407450D01*
X128223647Y-100402381D01*
X128223640Y-100402379D01*
X128174081Y-100389100D01*
X128174040Y-100389100D01*
X128164575Y-100386566D01*
X128138987Y-100371800D01*
X128111754Y-100360344D01*
X128103483Y-100353430D01*
X126981997Y-99344996D01*
X125960311Y-98473615D01*
X125916581Y-98410082D01*
X125908000Y-98360248D01*
X125908000Y-94060819D01*
X125927962Y-93986319D01*
X125970574Y-93939446D01*
X126377206Y-93649917D01*
X126449470Y-93622970D01*
X126463625Y-93622296D01*
X128266840Y-93622296D01*
X128341340Y-93642258D01*
G37*
%TD.AperFunction*%
%TD*%
%TA.AperFunction,Conductor*%
%TO.N,GND*%
G36*
X128209677Y-64412685D02*
G01*
X128230319Y-64429319D01*
X128919681Y-65118681D01*
X128953166Y-65180004D01*
X128956000Y-65206362D01*
X128956000Y-70996438D01*
X128936315Y-71063477D01*
X128919681Y-71084119D01*
X128281119Y-71722681D01*
X128219796Y-71756166D01*
X128193438Y-71759000D01*
X122403362Y-71759000D01*
X122336323Y-71739315D01*
X122315681Y-71722681D01*
X121626319Y-71033319D01*
X121592834Y-70971996D01*
X121590000Y-70945638D01*
X121590000Y-65257162D01*
X121609685Y-65190123D01*
X121626319Y-65169481D01*
X122366481Y-64429319D01*
X122427804Y-64395834D01*
X122454162Y-64393000D01*
X128142638Y-64393000D01*
X128209677Y-64412685D01*
G37*
%TD.AperFunction*%
%TD*%
%TA.AperFunction,Conductor*%
%TO.N,GND*%
G36*
X129204198Y-101684882D02*
G01*
X129219401Y-101700084D01*
X129241618Y-101716729D01*
X129247794Y-101730715D01*
X129274600Y-101757521D01*
X129274600Y-101832600D01*
X129378127Y-101832627D01*
X129430009Y-101855535D01*
X129455135Y-101858450D01*
X129784864Y-101858449D01*
X129784866Y-101858449D01*
X129809991Y-101855535D01*
X129820805Y-101852593D01*
X129821433Y-101854903D01*
X129882196Y-101845465D01*
X129940679Y-101864563D01*
X129959391Y-101875367D01*
X130068119Y-101904500D01*
X130068121Y-101904500D01*
X130180680Y-101904500D01*
X130180682Y-101904500D01*
X130237870Y-101889176D01*
X130276432Y-101884100D01*
X137801530Y-101884100D01*
X137803654Y-101883950D01*
X137805049Y-101883853D01*
X137880764Y-101898550D01*
X137938986Y-101949136D01*
X137959671Y-101994934D01*
X138344243Y-103471538D01*
X138344288Y-103546472D01*
X137928090Y-105152352D01*
X137890075Y-105219462D01*
X137889685Y-105219856D01*
X137097317Y-106019364D01*
X137030696Y-106058228D01*
X137012323Y-106062015D01*
X135325826Y-106300199D01*
X135286135Y-106300465D01*
X133410679Y-106061210D01*
X133339304Y-106031981D01*
X133326543Y-106021082D01*
X130620800Y-103432800D01*
X130290219Y-103432800D01*
X130281615Y-103432551D01*
X130279869Y-103432450D01*
X129960135Y-103432450D01*
X129958407Y-103432551D01*
X129949801Y-103432800D01*
X129846718Y-103432800D01*
X129837761Y-103430400D01*
X129782600Y-103430400D01*
X129477800Y-103430400D01*
X129431912Y-103430400D01*
X129413682Y-103432800D01*
X129290219Y-103432800D01*
X129281615Y-103432551D01*
X129279869Y-103432450D01*
X128960135Y-103432450D01*
X128958407Y-103432551D01*
X128949801Y-103432800D01*
X128790219Y-103432800D01*
X128781615Y-103432551D01*
X128779869Y-103432450D01*
X128460135Y-103432450D01*
X128458407Y-103432551D01*
X128449801Y-103432800D01*
X128290219Y-103432800D01*
X128281615Y-103432551D01*
X128279869Y-103432450D01*
X127960135Y-103432450D01*
X127958407Y-103432551D01*
X127949801Y-103432800D01*
X127674400Y-103432800D01*
X127660600Y-103432800D01*
X126548752Y-104726412D01*
X125448548Y-106006476D01*
X125384849Y-106049963D01*
X125356483Y-106056877D01*
X123641560Y-106300224D01*
X123602393Y-106300582D01*
X121613400Y-106055337D01*
X121541903Y-106026408D01*
X121525611Y-106012148D01*
X120486162Y-104959470D01*
X120451006Y-104902417D01*
X119955072Y-103432634D01*
X119950169Y-103355664D01*
X119955069Y-103337376D01*
X120411521Y-101984600D01*
X120454252Y-101920397D01*
X120523364Y-101886158D01*
X120564047Y-101884790D01*
X120564114Y-101883781D01*
X120568981Y-101884100D01*
X127965769Y-101884100D01*
X128004330Y-101889176D01*
X128061519Y-101904500D01*
X128061521Y-101904500D01*
X128174079Y-101904500D01*
X128174081Y-101904500D01*
X128282809Y-101875367D01*
X128300560Y-101865117D01*
X128375059Y-101845153D01*
X128418713Y-101854361D01*
X128419195Y-101852593D01*
X128430004Y-101855534D01*
X128430007Y-101855534D01*
X128430009Y-101855535D01*
X128455135Y-101858450D01*
X128784864Y-101858449D01*
X128784866Y-101858449D01*
X128797427Y-101856992D01*
X128809991Y-101855535D01*
X128833132Y-101845317D01*
X128893272Y-101832621D01*
X128969800Y-101832600D01*
X128969800Y-101809563D01*
X128989762Y-101735063D01*
X128995871Y-101725365D01*
X128997071Y-101723613D01*
X129055639Y-101673428D01*
X129131453Y-101659252D01*
X129204198Y-101684882D01*
G37*
%TD.AperFunction*%
%TD*%
%TA.AperFunction,Conductor*%
%TO.N,/Buck-Boost3.3V/Buck-Boost_INPUT*%
G36*
X124361734Y-98740577D02*
G01*
X124400284Y-98754787D01*
X128116023Y-100743857D01*
X128172280Y-100796613D01*
X128194623Y-100870434D01*
X128194700Y-100875217D01*
X128194700Y-101176284D01*
X128195974Y-101185962D01*
X128195836Y-101185980D01*
X128199500Y-101213810D01*
X128199500Y-101429600D01*
X128179538Y-101504100D01*
X128125000Y-101558638D01*
X128050500Y-101578600D01*
X120568981Y-101578600D01*
X120494481Y-101558638D01*
X120439943Y-101504100D01*
X120427593Y-101476615D01*
X119956259Y-100059159D01*
X119951694Y-99982166D01*
X119959421Y-99956515D01*
X120418049Y-98816935D01*
X120464383Y-98755275D01*
X120522523Y-98727437D01*
X122319296Y-98309604D01*
X122384805Y-98309159D01*
X124361734Y-98740577D01*
G37*
%TD.AperFunction*%
%TD*%
%TA.AperFunction,Conductor*%
%TO.N,Net-(U5-L2)*%
G36*
X131899688Y-93642258D02*
G01*
X131917627Y-93654437D01*
X132277648Y-93939260D01*
X132323687Y-94001136D01*
X132334200Y-94056111D01*
X132334200Y-98361960D01*
X132314238Y-98436460D01*
X132284030Y-98473466D01*
X131312339Y-99334698D01*
X131311682Y-99335277D01*
X130179662Y-100326785D01*
X130122826Y-100357851D01*
X130102571Y-100363700D01*
X130068118Y-100363700D01*
X129959391Y-100392833D01*
X129925824Y-100412212D01*
X129909293Y-100419511D01*
X129909280Y-100419515D01*
X129827235Y-100455743D01*
X129747794Y-100535184D01*
X129742925Y-100542293D01*
X129726546Y-100556325D01*
X129713887Y-100573787D01*
X129697763Y-100580985D01*
X129684354Y-100592474D01*
X129663153Y-100596437D01*
X129643459Y-100605230D01*
X129625896Y-100603402D01*
X129608539Y-100606647D01*
X129588196Y-100599478D01*
X129566745Y-100597246D01*
X129554538Y-100587617D01*
X129535795Y-100581013D01*
X129504301Y-100551975D01*
X129494031Y-100539320D01*
X129492206Y-100535185D01*
X129484091Y-100527070D01*
X129479219Y-100521066D01*
X129466542Y-100492671D01*
X129450995Y-100465743D01*
X129447805Y-100450703D01*
X129447776Y-100450638D01*
X129447781Y-100450589D01*
X129447731Y-100450353D01*
X129428275Y-100326785D01*
X129339847Y-99765152D01*
X129338859Y-99726317D01*
X129489400Y-98302000D01*
X129489400Y-96524000D01*
X129489400Y-94771400D01*
X129489400Y-94058530D01*
X129509362Y-93984030D01*
X129549039Y-93939301D01*
X129549098Y-93939257D01*
X129932278Y-93652066D01*
X130003865Y-93623360D01*
X130021639Y-93622296D01*
X131825188Y-93622296D01*
X131899688Y-93642258D01*
G37*
%TD.AperFunction*%
%TD*%
%TA.AperFunction,Conductor*%
%TO.N,+3V3*%
G36*
X137921331Y-98217387D02*
G01*
X138343982Y-99788754D01*
X138344689Y-99863426D01*
X137955068Y-101429600D01*
X137946119Y-101465571D01*
X137908762Y-101533048D01*
X137842671Y-101572807D01*
X137801526Y-101578600D01*
X130189499Y-101578600D01*
X130114999Y-101558638D01*
X130060461Y-101504100D01*
X130040499Y-101429600D01*
X130040499Y-101228033D01*
X130045577Y-101189466D01*
X130049700Y-101174081D01*
X130049700Y-100861435D01*
X130069662Y-100786935D01*
X130123100Y-100733040D01*
X134417000Y-98205000D01*
X137916829Y-98205000D01*
X137921331Y-98217387D01*
G37*
%TD.AperFunction*%
%TD*%
%TA.AperFunction,Conductor*%
%TO.N,+3V3*%
G36*
X136221378Y-94435762D02*
G01*
X136275916Y-94490300D01*
X136284196Y-94506967D01*
X137091992Y-96424982D01*
X137912602Y-98193369D01*
X137916829Y-98205000D01*
X134417000Y-98205000D01*
X134417001Y-98204998D01*
X135503086Y-94522649D01*
X135543308Y-94456839D01*
X135611046Y-94419958D01*
X135645999Y-94415800D01*
X136146878Y-94415800D01*
X136221378Y-94435762D01*
G37*
%TD.AperFunction*%
%TD*%
M02*
