%TF.GenerationSoftware,KiCad,Pcbnew,9.0.1*%
%TF.CreationDate,2025-06-18T08:40:29+02:00*%
%TF.ProjectId,MY-ESP32,4d592d45-5350-4333-922e-6b696361645f,1*%
%TF.SameCoordinates,Original*%
%TF.FileFunction,Soldermask,Top*%
%TF.FilePolarity,Negative*%
%FSLAX46Y46*%
G04 Gerber Fmt 4.6, Leading zero omitted, Abs format (unit mm)*
G04 Created by KiCad (PCBNEW 9.0.1) date 2025-06-18 08:40:29*
%MOMM*%
%LPD*%
G01*
G04 APERTURE LIST*
G04 Aperture macros list*
%AMRoundRect*
0 Rectangle with rounded corners*
0 $1 Rounding radius*
0 $2 $3 $4 $5 $6 $7 $8 $9 X,Y pos of 4 corners*
0 Add a 4 corners polygon primitive as box body*
4,1,4,$2,$3,$4,$5,$6,$7,$8,$9,$2,$3,0*
0 Add four circle primitives for the rounded corners*
1,1,$1+$1,$2,$3*
1,1,$1+$1,$4,$5*
1,1,$1+$1,$6,$7*
1,1,$1+$1,$8,$9*
0 Add four rect primitives between the rounded corners*
20,1,$1+$1,$2,$3,$4,$5,0*
20,1,$1+$1,$4,$5,$6,$7,0*
20,1,$1+$1,$6,$7,$8,$9,0*
20,1,$1+$1,$8,$9,$2,$3,0*%
%AMFreePoly0*
4,1,57,-0.121221,1.795902,-0.084894,1.745902,-0.080000,1.715000,-0.080000,0.985000,0.080000,0.985000,0.080000,1.715000,0.099098,1.773779,0.149098,1.810106,0.180000,1.815000,0.470000,1.815000,0.528779,1.795902,0.565106,1.745902,0.570000,1.715000,0.570000,0.985000,0.760000,0.985000,0.818779,0.965902,0.855106,0.915902,0.860000,0.885000,0.860000,-0.885000,0.840902,-0.943779,
0.790902,-0.980106,0.760000,-0.985000,0.570000,-0.985000,0.570000,-1.705000,0.550902,-1.763779,0.500902,-1.800106,0.470000,-1.805000,0.180000,-1.805000,0.121221,-1.785902,0.084894,-1.735902,0.080000,-1.705000,0.080000,-0.985000,-0.080000,-0.985000,-0.080000,-1.705000,-0.099098,-1.763779,-0.149098,-1.800106,-0.180000,-1.805000,-0.470000,-1.805000,-0.528779,-1.785902,-0.565106,-1.735902,
-0.570000,-1.705000,-0.570000,-0.985000,-0.760000,-0.985000,-0.818779,-0.965902,-0.855106,-0.915902,-0.860000,-0.885000,-0.860000,0.895000,-0.840902,0.953779,-0.790902,0.990106,-0.760000,0.995000,-0.570000,0.995000,-0.570000,1.715000,-0.550902,1.773779,-0.500902,1.810106,-0.470000,1.815000,-0.180000,1.815000,-0.121221,1.795902,-0.121221,1.795902,$1*%
G04 Aperture macros list end*
%ADD10RoundRect,0.100000X0.270000X-0.282750X0.270000X0.282750X-0.270000X0.282750X-0.270000X-0.282750X0*%
%ADD11RoundRect,0.100000X-0.270000X0.282750X-0.270000X-0.282750X0.270000X-0.282750X0.270000X0.282750X0*%
%ADD12RoundRect,0.100000X-0.375000X0.350000X-0.375000X-0.350000X0.375000X-0.350000X0.375000X0.350000X0*%
%ADD13C,1.200000*%
%ADD14RoundRect,0.291666X0.408334X0.508334X-0.408334X0.508334X-0.408334X-0.508334X0.408334X-0.508334X0*%
%ADD15RoundRect,0.100000X0.350000X0.625000X-0.350000X0.625000X-0.350000X-0.625000X0.350000X-0.625000X0*%
%ADD16RoundRect,0.292553X-0.532447X0.394947X-0.532447X-0.394947X0.532447X-0.394947X0.532447X0.394947X0*%
%ADD17RoundRect,0.100000X0.270000X-0.395000X0.270000X0.395000X-0.270000X0.395000X-0.270000X-0.395000X0*%
%ADD18RoundRect,0.100000X0.120000X0.425000X-0.120000X0.425000X-0.120000X-0.425000X0.120000X-0.425000X0*%
%ADD19RoundRect,0.100000X-0.120000X-0.425000X0.120000X-0.425000X0.120000X0.425000X-0.120000X0.425000X0*%
%ADD20RoundRect,0.100000X-0.115000X-0.400000X0.115000X-0.400000X0.115000X0.400000X-0.115000X0.400000X0*%
%ADD21RoundRect,0.100000X0.115000X0.400000X-0.115000X0.400000X-0.115000X-0.400000X0.115000X-0.400000X0*%
%ADD22FreePoly0,270.000000*%
%ADD23RoundRect,0.291666X-0.508334X0.408334X-0.508334X-0.408334X0.508334X-0.408334X0.508334X0.408334X0*%
%ADD24RoundRect,0.100000X0.350000X-0.625000X0.350000X0.625000X-0.350000X0.625000X-0.350000X-0.625000X0*%
%ADD25RoundRect,0.100000X0.450000X-0.400000X0.450000X0.400000X-0.450000X0.400000X-0.450000X-0.400000X0*%
%ADD26C,3.400000*%
%ADD27C,0.850000*%
%ADD28RoundRect,0.063500X-0.575000X0.300000X-0.575000X-0.300000X0.575000X-0.300000X0.575000X0.300000X0*%
%ADD29RoundRect,0.063500X-0.575000X0.150000X-0.575000X-0.150000X0.575000X-0.150000X0.575000X0.150000X0*%
%ADD30RoundRect,0.102000X-1.000000X1.090000X-1.000000X-1.090000X1.000000X-1.090000X1.000000X1.090000X0*%
%ADD31RoundRect,0.100000X-0.350000X-0.800000X0.350000X-0.800000X0.350000X0.800000X-0.350000X0.800000X0*%
%ADD32RoundRect,0.100000X-0.600000X-0.750000X0.600000X-0.750000X0.600000X0.750000X-0.600000X0.750000X0*%
%ADD33RoundRect,0.100000X-0.600000X-1.100000X0.600000X-1.100000X0.600000X1.100000X-0.600000X1.100000X0*%
%ADD34RoundRect,0.100000X-0.800000X-0.750000X0.800000X-0.750000X0.800000X0.750000X-0.800000X0.750000X0*%
%ADD35RoundRect,0.100000X0.300000X-0.535000X0.300000X0.535000X-0.300000X0.535000X-0.300000X-0.535000X0*%
%ADD36RoundRect,0.100000X0.650000X-0.650000X0.650000X0.650000X-0.650000X0.650000X-0.650000X-0.650000X0*%
%ADD37RoundRect,0.291666X0.508334X-0.408334X0.508334X0.408334X-0.508334X0.408334X-0.508334X-0.408334X0*%
%ADD38RoundRect,0.292553X-0.394947X-0.532447X0.394947X-0.532447X0.394947X0.532447X-0.394947X0.532447X0*%
%ADD39RoundRect,0.292553X0.532447X-0.394947X0.532447X0.394947X-0.532447X0.394947X-0.532447X-0.394947X0*%
%ADD40RoundRect,0.100000X-0.850000X-0.850000X0.850000X-0.850000X0.850000X0.850000X-0.850000X0.850000X0*%
%ADD41C,1.900000*%
%ADD42RoundRect,0.112500X-0.387500X-0.112500X0.387500X-0.112500X0.387500X0.112500X-0.387500X0.112500X0*%
%ADD43RoundRect,0.112500X-0.112500X-0.387500X0.112500X-0.387500X0.112500X0.387500X-0.112500X0.387500X0*%
%ADD44RoundRect,0.100000X-1.675000X-1.675000X1.675000X-1.675000X1.675000X1.675000X-1.675000X1.675000X0*%
%ADD45RoundRect,0.100000X0.705000X0.675000X-0.705000X0.675000X-0.705000X-0.675000X0.705000X-0.675000X0*%
%ADD46RoundRect,0.100000X0.535000X0.300000X-0.535000X0.300000X-0.535000X-0.300000X0.535000X-0.300000X0*%
%ADD47RoundRect,0.100000X-0.625000X0.350000X-0.625000X-0.350000X0.625000X-0.350000X0.625000X0.350000X0*%
%ADD48RoundRect,0.100000X-0.900000X-0.900000X0.900000X-0.900000X0.900000X0.900000X-0.900000X0.900000X0*%
%ADD49C,1.800000*%
%ADD50RoundRect,0.291666X-0.408334X-0.508334X0.408334X-0.508334X0.408334X0.508334X-0.408334X0.508334X0*%
%ADD51RoundRect,0.200000X0.200000X-0.562500X0.200000X0.562500X-0.200000X0.562500X-0.200000X-0.562500X0*%
%ADD52RoundRect,0.100000X0.432000X-0.403250X0.432000X0.403250X-0.432000X0.403250X-0.432000X-0.403250X0*%
%ADD53RoundRect,0.100000X-0.650000X0.650000X-0.650000X-0.650000X0.650000X-0.650000X0.650000X0.650000X0*%
%ADD54RoundRect,0.100000X-1.000000X-0.450000X1.000000X-0.450000X1.000000X0.450000X-1.000000X0.450000X0*%
%ADD55RoundRect,0.100000X-0.450000X-0.450000X0.450000X-0.450000X0.450000X0.450000X-0.450000X0.450000X0*%
%ADD56RoundRect,0.100000X-0.665000X-0.665000X0.665000X-0.665000X0.665000X0.665000X-0.665000X0.665000X0*%
%ADD57RoundRect,0.100000X-0.625000X-0.350000X0.625000X-0.350000X0.625000X0.350000X-0.625000X0.350000X0*%
%ADD58C,1.600000*%
%ADD59RoundRect,0.100000X1.062000X1.910000X-1.062000X1.910000X-1.062000X-1.910000X1.062000X-1.910000X0*%
%ADD60RoundRect,0.100000X0.403250X0.432000X-0.403250X0.432000X-0.403250X-0.432000X0.403250X-0.432000X0*%
%ADD61RoundRect,0.100000X0.787500X-0.787500X0.787500X0.787500X-0.787500X0.787500X-0.787500X-0.787500X0*%
%ADD62C,1.775000*%
%ADD63RoundRect,0.100000X0.900000X-0.900000X0.900000X0.900000X-0.900000X0.900000X-0.900000X-0.900000X0*%
%ADD64C,2.000000*%
%ADD65O,2.700000X1.400000*%
%ADD66RoundRect,0.100000X0.850000X-0.850000X0.850000X0.850000X-0.850000X0.850000X-0.850000X-0.850000X0*%
%ADD67RoundRect,0.100000X0.330200X0.774700X-0.330200X0.774700X-0.330200X-0.774700X0.330200X-0.774700X0*%
%ADD68RoundRect,0.100000X-0.647700X0.952500X-0.647700X-0.952500X0.647700X-0.952500X0.647700X0.952500X0*%
%ADD69C,3.775000*%
%ADD70RoundRect,0.100000X-0.787500X0.787500X-0.787500X-0.787500X0.787500X-0.787500X0.787500X0.787500X0*%
%ADD71RoundRect,0.100000X-0.403250X-0.432000X0.403250X-0.432000X0.403250X0.432000X-0.403250X0.432000X0*%
%ADD72RoundRect,0.100000X-0.500000X0.450000X-0.500000X-0.450000X0.500000X-0.450000X0.500000X0.450000X0*%
%ADD73RoundRect,0.100000X0.500000X-0.450000X0.500000X0.450000X-0.500000X0.450000X-0.500000X-0.450000X0*%
%ADD74RoundRect,0.292553X0.394947X0.532447X-0.394947X0.532447X-0.394947X-0.532447X0.394947X-0.532447X0*%
G04 APERTURE END LIST*
D10*
%TO.C,R35*%
X119557800Y-63271400D03*
X119557800Y-62405400D03*
%TD*%
D11*
%TO.C,R34*%
X122809000Y-62380000D03*
X122809000Y-63246000D03*
%TD*%
%TO.C,R33*%
X121158000Y-62407800D03*
X121158000Y-63273800D03*
%TD*%
D12*
%TO.C,LED2*%
X121234200Y-66319400D03*
X121234200Y-67559400D03*
X120284200Y-66319400D03*
X120284200Y-67559400D03*
%TD*%
D13*
%TO.C,TP1*%
X104654600Y-126215800D03*
%TD*%
D14*
%TO.C,R25*%
X140761700Y-92560800D03*
X138761700Y-92560800D03*
%TD*%
D15*
%TO.C,Q1*%
X112685800Y-90932850D03*
X110785800Y-90932850D03*
X111735800Y-88433850D03*
%TD*%
D16*
%TO.C,C10*%
X136096800Y-117638400D03*
X136096800Y-119713400D03*
%TD*%
D17*
%TO.C,R20*%
X131524800Y-120690200D03*
X131524800Y-119600200D03*
%TD*%
D18*
%TO.C,U5*%
X139524600Y-82555800D03*
X139024600Y-82555800D03*
X138524600Y-82555800D03*
X138024600Y-82555800D03*
D19*
X137524600Y-82555800D03*
D20*
X137524600Y-85555800D03*
X138024600Y-85555800D03*
X138524600Y-85555800D03*
D21*
X139024600Y-85555800D03*
X139524600Y-85555800D03*
D22*
X138519600Y-84055800D03*
%TD*%
D17*
%TO.C,R19*%
X133760000Y-119787400D03*
X133760000Y-118697400D03*
%TD*%
D16*
%TO.C,C9*%
X103173000Y-112416400D03*
X103173000Y-114491400D03*
%TD*%
D14*
%TO.C,R32*%
X124882400Y-99926800D03*
X122882400Y-99926800D03*
%TD*%
D23*
%TO.C,R14*%
X114560600Y-53859800D03*
X114560600Y-55859800D03*
%TD*%
D24*
%TO.C,Q11*%
X125873800Y-95564600D03*
X123973800Y-95564600D03*
X124923800Y-97564600D03*
%TD*%
D17*
%TO.C,R22*%
X140770400Y-117907800D03*
X140770400Y-116817800D03*
%TD*%
D25*
%TO.C,C11*%
X134764600Y-83855800D03*
X134764600Y-82455800D03*
%TD*%
D26*
%TO.C,H8*%
X181460000Y-38661800D03*
%TD*%
D24*
%TO.C,Q3*%
X107382600Y-59150400D03*
X105482600Y-59150400D03*
X106432600Y-61150400D03*
%TD*%
D25*
%TO.C,C13*%
X143694600Y-83885800D03*
X143694600Y-82485800D03*
%TD*%
D27*
%TO.C,U7*%
X101689600Y-99085800D03*
X101689600Y-104865800D03*
D28*
X102764600Y-98775800D03*
X102764600Y-99575800D03*
D29*
X102764600Y-100725800D03*
X102764600Y-101725800D03*
X102764600Y-102225800D03*
X102764600Y-103225800D03*
D28*
X102764600Y-105175800D03*
X102764600Y-104375800D03*
D29*
X102764600Y-103725800D03*
X102764600Y-102725800D03*
X102764600Y-101225800D03*
X102764600Y-100225800D03*
D30*
X102189600Y-96865800D03*
X102189600Y-107085800D03*
X98259600Y-96865800D03*
X98259600Y-107085800D03*
%TD*%
D31*
%TO.C,CARD1*%
X138140000Y-123175800D03*
X137040000Y-123175800D03*
X135940000Y-123175800D03*
X134840000Y-123175800D03*
X133740000Y-123175800D03*
X132640000Y-123175800D03*
X131540000Y-123175800D03*
X130440000Y-123175800D03*
D32*
X128140000Y-124175800D03*
D33*
X128140000Y-133775800D03*
X143640000Y-133775800D03*
D34*
X142740000Y-124175800D03*
D31*
X129340000Y-123175800D03*
%TD*%
D35*
%TO.C,Q7*%
X140752300Y-95126200D03*
X138852300Y-95126200D03*
X139802300Y-97596200D03*
%TD*%
D23*
%TO.C,R4*%
X108456200Y-112437900D03*
X108456200Y-114437900D03*
%TD*%
D36*
%TO.C,D1*%
X97999800Y-115620400D03*
X97999800Y-112220400D03*
%TD*%
D37*
%TO.C,R5*%
X113790200Y-114437900D03*
X113790200Y-112437900D03*
%TD*%
D17*
%TO.C,R23*%
X128807000Y-120309200D03*
X128807000Y-119219200D03*
%TD*%
D38*
%TO.C,C1*%
X150757100Y-50495600D03*
X152832100Y-50495600D03*
%TD*%
D25*
%TO.C,R17*%
X145894600Y-83875800D03*
X145894600Y-82475800D03*
%TD*%
D37*
%TO.C,R9*%
X118053100Y-96745150D03*
X118053100Y-94745150D03*
%TD*%
D39*
%TO.C,C18*%
X129546600Y-107902400D03*
X129546600Y-105827400D03*
%TD*%
D40*
%TO.C,H5*%
X105333800Y-133835800D03*
D41*
X107873800Y-133835800D03*
%TD*%
D16*
%TO.C,C15*%
X122815800Y-48402000D03*
X122815800Y-50477000D03*
%TD*%
D42*
%TO.C,U3*%
X111577200Y-100503850D03*
X111577200Y-101003850D03*
X111577200Y-101503850D03*
X111577200Y-102003850D03*
X111577200Y-102503850D03*
X111577200Y-103003850D03*
X111577200Y-103503850D03*
D43*
X112527200Y-104453850D03*
X113027200Y-104453850D03*
X113527200Y-104453850D03*
X114027200Y-104453850D03*
X114527200Y-104453850D03*
X115027200Y-104453850D03*
X115527200Y-104453850D03*
D42*
X116477200Y-103503850D03*
X116477200Y-103003850D03*
X116477200Y-102503850D03*
X116477200Y-102003850D03*
X116477200Y-101503850D03*
X116477200Y-101003850D03*
X116477200Y-100503850D03*
D43*
X115527200Y-99553850D03*
X115027200Y-99553850D03*
X114527200Y-99553850D03*
X114027200Y-99553850D03*
X113527200Y-99553850D03*
X113027200Y-99553850D03*
X112527200Y-99553850D03*
D44*
X114027200Y-102003850D03*
%TD*%
D45*
%TO.C,C3*%
X100311200Y-65184600D03*
X98311200Y-65184600D03*
%TD*%
D46*
%TO.C,Q4*%
X110820600Y-62985000D03*
X110820600Y-64885000D03*
X113290600Y-63935000D03*
%TD*%
D47*
%TO.C,Q2*%
X113328700Y-94693550D03*
X113328700Y-96593550D03*
X110829700Y-95643550D03*
%TD*%
D48*
%TO.C,H4*%
X147320000Y-133835800D03*
D49*
X149860000Y-133835800D03*
X152400000Y-133835800D03*
X154940000Y-133835800D03*
X157480000Y-133835800D03*
D48*
X160020000Y-133835800D03*
%TD*%
D50*
%TO.C,R24*%
X149429700Y-96066000D03*
X151429700Y-96066000D03*
%TD*%
D16*
%TO.C,C5*%
X100531400Y-112412500D03*
X100531400Y-114487500D03*
%TD*%
D26*
%TO.C,H10*%
X181490000Y-134790000D03*
%TD*%
D51*
%TO.C,U1*%
X105457200Y-102731850D03*
X106407200Y-102731850D03*
X107357200Y-102731850D03*
X107357200Y-100456850D03*
X106407200Y-100456850D03*
X105457200Y-100456850D03*
%TD*%
D13*
%TO.C,TP2*%
X128632200Y-70793000D03*
%TD*%
D52*
%TO.C,R30*%
X126930400Y-107326600D03*
X126930400Y-105819600D03*
%TD*%
D53*
%TO.C,D3*%
X117888000Y-73184200D03*
X117888000Y-76584200D03*
%TD*%
D54*
%TO.C,U6*%
X126684600Y-42055800D03*
X126684600Y-43325800D03*
X126684600Y-44595800D03*
X126684600Y-45865800D03*
X126684600Y-47135800D03*
X126684600Y-48405800D03*
X126684600Y-49675800D03*
X126684600Y-50945800D03*
X126684600Y-52215800D03*
X126684600Y-53485800D03*
X126684600Y-54755800D03*
X126684600Y-56025800D03*
X126684600Y-57295800D03*
X126684600Y-58565800D03*
X126684600Y-59835800D03*
X126684600Y-61105800D03*
X126684600Y-62375800D03*
X126684600Y-63645800D03*
X126684600Y-64915800D03*
X144684600Y-64915800D03*
X144684600Y-63645800D03*
X144684600Y-62375800D03*
X144684600Y-61105800D03*
X144684600Y-59835800D03*
X144684600Y-58565800D03*
X144684600Y-57295800D03*
X144684600Y-56025800D03*
X144684600Y-54755800D03*
X144684600Y-53485800D03*
X144684600Y-52215800D03*
X144684600Y-50945800D03*
X144684600Y-49675800D03*
X144684600Y-48405800D03*
X144684600Y-47135800D03*
X144684600Y-45865800D03*
X144684600Y-44595800D03*
X144684600Y-43325800D03*
X144684600Y-42055800D03*
D55*
X131854600Y-50475800D03*
X131874600Y-46780200D03*
X131874600Y-52305800D03*
X131875200Y-48633400D03*
D56*
X132849600Y-47720800D03*
X132849600Y-49555800D03*
X132849600Y-51390800D03*
D55*
X133764600Y-48635800D03*
X133764600Y-50475800D03*
X133764600Y-52335800D03*
X133779000Y-46781200D03*
D56*
X134684600Y-47720800D03*
X134684600Y-49555800D03*
X134684600Y-51390800D03*
D55*
X135594600Y-46795800D03*
X135604600Y-48645800D03*
X135604600Y-50475800D03*
X135604600Y-52345800D03*
D56*
X136519600Y-47720800D03*
X136519600Y-49555800D03*
X136519600Y-51390800D03*
D55*
X137494600Y-46780200D03*
X137504600Y-48633400D03*
X137512800Y-50462200D03*
X137514600Y-52335800D03*
%TD*%
D57*
%TO.C,Q6*%
X147142200Y-96050800D03*
X147142200Y-94150800D03*
X145142200Y-95100800D03*
%TD*%
D38*
%TO.C,C2*%
X98257700Y-62009600D03*
X100332700Y-62009600D03*
%TD*%
D39*
%TO.C,C17*%
X112528600Y-81279300D03*
X112528600Y-79204300D03*
%TD*%
D58*
%TO.C,U2*%
X101734600Y-89225800D03*
X101734600Y-91225800D03*
%TD*%
D23*
%TO.C,R13*%
X103930200Y-64410600D03*
X103930200Y-66410600D03*
%TD*%
D25*
%TO.C,C14*%
X141474600Y-83875800D03*
X141474600Y-82475800D03*
%TD*%
D35*
%TO.C,Q8*%
X175962600Y-101358800D03*
X174062600Y-101358800D03*
X175012600Y-103828800D03*
%TD*%
D59*
%TO.C,L_B-B1*%
X136760200Y-77672285D03*
X140316200Y-77672285D03*
%TD*%
D60*
%TO.C,R28*%
X177705000Y-110010600D03*
X176198000Y-110010600D03*
%TD*%
D61*
%TO.C,H1*%
X143592800Y-108639000D03*
D62*
X143592800Y-106099000D03*
X143592800Y-103559000D03*
%TD*%
D63*
%TO.C,SW3*%
X103874600Y-78705800D03*
D64*
X103874600Y-75705800D03*
X103874600Y-72705800D03*
D65*
X103874600Y-69905800D03*
X103874600Y-81505800D03*
%TD*%
D66*
%TO.C,H6*%
X180898800Y-50774600D03*
D41*
X180898800Y-48234600D03*
%TD*%
D37*
%TO.C,R8*%
X115563900Y-96729150D03*
X115563900Y-94729150D03*
%TD*%
D38*
%TO.C,C7*%
X145302600Y-73667200D03*
X147377600Y-73667200D03*
%TD*%
%TO.C,C8*%
X145302600Y-76562800D03*
X147377600Y-76562800D03*
%TD*%
D37*
%TO.C,R26*%
X180788600Y-93195800D03*
X180788600Y-91195800D03*
%TD*%
%TO.C,R3*%
X105814600Y-114419100D03*
X105814600Y-112419100D03*
%TD*%
D26*
%TO.C,H7*%
X99060000Y-38660000D03*
%TD*%
D67*
%TO.C,J2*%
X162979601Y-113261800D03*
X163979602Y-113261800D03*
X164979600Y-113261800D03*
X165979601Y-113261800D03*
D68*
X167279600Y-117136801D03*
X161679602Y-117136801D03*
%TD*%
D23*
%TO.C,R16*%
X112050600Y-49749800D03*
X112050600Y-51749800D03*
%TD*%
D24*
%TO.C,Q9*%
X180854600Y-95685000D03*
X178954600Y-95685000D03*
X179904600Y-97685000D03*
%TD*%
D37*
%TO.C,R2*%
X114713200Y-45431800D03*
X114713200Y-43431800D03*
%TD*%
D13*
%TO.C,TP3*%
X114375000Y-120362000D03*
%TD*%
%TO.C,TP5*%
X114375000Y-126215800D03*
%TD*%
D67*
%TO.C,J1*%
X174171600Y-113261800D03*
X175171601Y-113261800D03*
X176171599Y-113261800D03*
X177171600Y-113261800D03*
D68*
X178471599Y-117136801D03*
X172871601Y-117136801D03*
%TD*%
D35*
%TO.C,Q10*%
X124706200Y-102568400D03*
X122806200Y-102568400D03*
X123756200Y-105038400D03*
%TD*%
D69*
%TO.C,U4*%
X177140200Y-87079300D03*
X161906200Y-87079300D03*
D62*
X177146200Y-68561800D03*
D70*
X174606200Y-68560800D03*
D62*
X172066200Y-68559800D03*
X169526200Y-68558800D03*
X166986200Y-68557800D03*
X164446200Y-68556800D03*
X161906200Y-68555800D03*
%TD*%
D17*
%TO.C,C6*%
X105535200Y-56700600D03*
X105535200Y-55610600D03*
%TD*%
D13*
%TO.C,TP4*%
X117884600Y-54965800D03*
%TD*%
D71*
%TO.C,R27*%
X138250400Y-99977600D03*
X139757400Y-99977600D03*
%TD*%
D23*
%TO.C,R6*%
X111097800Y-112437900D03*
X111097800Y-114437900D03*
%TD*%
D37*
%TO.C,R7*%
X116431800Y-114437900D03*
X116431800Y-112437900D03*
%TD*%
D72*
%TO.C,SW1*%
X150844600Y-55385800D03*
D73*
X152444600Y-55385800D03*
X150844600Y-59485800D03*
X152444600Y-59485800D03*
%TD*%
D45*
%TO.C,C4*%
X147302600Y-70619200D03*
X145302600Y-70619200D03*
%TD*%
D37*
%TO.C,R15*%
X119690600Y-50339800D03*
X119690600Y-48339800D03*
%TD*%
D26*
%TO.C,H9*%
X99060000Y-134780000D03*
%TD*%
D17*
%TO.C,R21*%
X142853200Y-117755400D03*
X142853200Y-116665400D03*
%TD*%
D61*
%TO.C,H2*%
X135972800Y-108639000D03*
D62*
X135972800Y-106099000D03*
X135972800Y-103559000D03*
%TD*%
D50*
%TO.C,R31*%
X128165600Y-95583400D03*
X130165600Y-95583400D03*
%TD*%
D48*
%TO.C,H3*%
X111683800Y-133835800D03*
D49*
X114223800Y-133835800D03*
X116763800Y-133835800D03*
X119303800Y-133835800D03*
X121843800Y-133835800D03*
D48*
X124383800Y-133835800D03*
%TD*%
D17*
%TO.C,R18*%
X138230400Y-119889000D03*
X138230400Y-118799000D03*
%TD*%
D57*
%TO.C,Q5*%
X115398800Y-76533400D03*
X115398800Y-74633400D03*
X113398800Y-75583400D03*
%TD*%
D74*
%TO.C,C16*%
X178289200Y-106835600D03*
X176214200Y-106835600D03*
%TD*%
D14*
%TO.C,R1*%
X103740400Y-120080500D03*
X101740400Y-120080500D03*
%TD*%
D53*
%TO.C,D2*%
X99219000Y-74274600D03*
X99219000Y-77674600D03*
%TD*%
D14*
%TO.C,R29*%
X176012600Y-99291800D03*
X174012600Y-99291800D03*
%TD*%
D16*
%TO.C,C12*%
X132350600Y-82122300D03*
X132350600Y-84197300D03*
%TD*%
D72*
%TO.C,SW2*%
X98604600Y-55445800D03*
D73*
X100204600Y-55445800D03*
X98604600Y-59545800D03*
X100204600Y-59545800D03*
%TD*%
M02*
