%TF.GenerationSoftware,KiCad,Pcbnew,9.0.1*%
%TF.CreationDate,2025-06-12T08:49:48+02:00*%
%TF.ProjectId,MY-ESP32,4d592d45-5350-4333-922e-6b696361645f,rev?*%
%TF.SameCoordinates,Original*%
%TF.FileFunction,Soldermask,Top*%
%TF.FilePolarity,Negative*%
%FSLAX46Y46*%
G04 Gerber Fmt 4.6, Leading zero omitted, Abs format (unit mm)*
G04 Created by KiCad (PCBNEW 9.0.1) date 2025-06-12 08:49:48*
%MOMM*%
%LPD*%
G01*
G04 APERTURE LIST*
G04 Aperture macros list*
%AMRoundRect*
0 Rectangle with rounded corners*
0 $1 Rounding radius*
0 $2 $3 $4 $5 $6 $7 $8 $9 X,Y pos of 4 corners*
0 Add a 4 corners polygon primitive as box body*
4,1,4,$2,$3,$4,$5,$6,$7,$8,$9,$2,$3,0*
0 Add four circle primitives for the rounded corners*
1,1,$1+$1,$2,$3*
1,1,$1+$1,$4,$5*
1,1,$1+$1,$6,$7*
1,1,$1+$1,$8,$9*
0 Add four rect primitives between the rounded corners*
20,1,$1+$1,$2,$3,$4,$5,0*
20,1,$1+$1,$4,$5,$6,$7,0*
20,1,$1+$1,$6,$7,$8,$9,0*
20,1,$1+$1,$8,$9,$2,$3,0*%
%AMFreePoly0*
4,1,21,-0.180000,0.885000,0.180000,0.885000,0.180000,1.715000,0.470000,1.715000,0.470000,0.885000,0.760000,0.885000,0.760000,-0.885000,0.470000,-0.885000,0.470000,-1.705000,0.180000,-1.705000,0.180000,-0.885000,-0.180000,-0.885000,-0.180000,-1.705000,-0.470000,-1.705000,-0.470000,-0.885000,-0.760000,-0.885000,-0.760000,0.895000,-0.470000,0.895000,-0.470000,1.715000,-0.180000,1.715000,
-0.180000,0.885000,-0.180000,0.885000,$1*%
G04 Aperture macros list end*
%ADD10R,1.250000X0.700000*%
%ADD11R,0.600000X1.070000*%
%ADD12R,0.806500X0.864000*%
%ADD13RoundRect,0.250000X-0.350000X-0.450000X0.350000X-0.450000X0.350000X0.450000X-0.350000X0.450000X0*%
%ADD14RoundRect,0.250000X0.350000X0.450000X-0.350000X0.450000X-0.350000X-0.450000X0.350000X-0.450000X0*%
%ADD15C,1.000000*%
%ADD16C,0.500000*%
%ADD17R,0.700000X1.250000*%
%ADD18RoundRect,0.250000X-0.475000X0.337500X-0.475000X-0.337500X0.475000X-0.337500X0.475000X0.337500X0*%
%ADD19C,1.400000*%
%ADD20R,1.800000X1.800000*%
%ADD21C,1.600000*%
%ADD22R,0.540000X0.790000*%
%ADD23C,1.800000*%
%ADD24O,2.500000X1.200000*%
%ADD25RoundRect,0.250000X-0.450000X0.350000X-0.450000X-0.350000X0.450000X-0.350000X0.450000X0.350000X0*%
%ADD26R,1.700000X1.700000*%
%ADD27C,1.700000*%
%ADD28RoundRect,0.135000X0.185000X-0.135000X0.185000X0.135000X-0.185000X0.135000X-0.185000X-0.135000X0*%
%ADD29R,0.900000X0.800000*%
%ADD30C,3.200000*%
%ADD31R,1.300000X1.300000*%
%ADD32R,0.700000X1.600000*%
%ADD33R,1.200000X1.500000*%
%ADD34R,1.200000X2.200000*%
%ADD35R,1.600000X1.500000*%
%ADD36RoundRect,0.250000X0.450000X-0.350000X0.450000X0.350000X-0.450000X0.350000X-0.450000X-0.350000X0*%
%ADD37RoundRect,0.250000X-0.337500X-0.475000X0.337500X-0.475000X0.337500X0.475000X-0.337500X0.475000X0*%
%ADD38RoundRect,0.062500X-0.337500X-0.062500X0.337500X-0.062500X0.337500X0.062500X-0.337500X0.062500X0*%
%ADD39RoundRect,0.062500X-0.062500X-0.337500X0.062500X-0.337500X0.062500X0.337500X-0.062500X0.337500X0*%
%ADD40R,3.350000X3.350000*%
%ADD41R,1.410000X1.350000*%
%ADD42R,1.070000X0.600000*%
%ADD43RoundRect,0.150000X0.150000X-0.512500X0.150000X0.512500X-0.150000X0.512500X-0.150000X-0.512500X0*%
%ADD44R,2.124000X3.820000*%
%ADD45R,0.750000X0.700000*%
%ADD46R,1.000000X0.900000*%
%ADD47RoundRect,0.135000X-0.185000X0.135000X-0.185000X-0.135000X0.185000X-0.135000X0.185000X0.135000X0*%
%ADD48R,1.575000X1.575000*%
%ADD49C,1.575000*%
%ADD50R,2.000000X0.900000*%
%ADD51R,1.330000X1.330000*%
%ADD52C,3.575000*%
%ADD53R,0.240000X0.850000*%
%ADD54R,0.230000X0.800000*%
%ADD55FreePoly0,270.000000*%
%ADD56O,2.100000X1.100000*%
%ADD57O,1.800000X1.200000*%
%ADD58R,1.300000X0.600000*%
%ADD59R,1.300000X0.300000*%
G04 APERTURE END LIST*
D10*
%TO.C,Q7*%
X131125700Y-113675200D03*
X133125700Y-112725200D03*
X133125700Y-114625200D03*
%TD*%
D11*
%TO.C,Q6*%
X125749500Y-116160400D03*
X124799500Y-113690400D03*
X126699500Y-113690400D03*
%TD*%
D12*
%TO.C,R26*%
X125704600Y-118541800D03*
X124197600Y-118541800D03*
%TD*%
D13*
%TO.C,R24*%
X137376900Y-114630200D03*
X135376900Y-114630200D03*
%TD*%
D14*
%TO.C,R25*%
X124708900Y-111125000D03*
X126708900Y-111125000D03*
%TD*%
D15*
%TO.C,TP1*%
X104919600Y-149860000D03*
%TD*%
D16*
%TO.C,*%
X126233600Y-70866000D03*
%TD*%
D17*
%TO.C,Q1*%
X103281200Y-109497050D03*
X101381200Y-109497050D03*
X102331200Y-106998050D03*
%TD*%
D18*
%TO.C,C10*%
X125526800Y-136202600D03*
X125526800Y-138277600D03*
%TD*%
D19*
%TO.C,U2*%
X92329000Y-107696000D03*
X92329000Y-109696000D03*
%TD*%
D20*
%TO.C,H6*%
X114300000Y-142468600D03*
D21*
X114300000Y-145008600D03*
X114300000Y-147548600D03*
X114300000Y-150088600D03*
X114300000Y-152628600D03*
X114300000Y-155168600D03*
%TD*%
D22*
%TO.C,R20*%
X120954800Y-139254400D03*
X120954800Y-138164400D03*
%TD*%
D17*
%TO.C,Q3*%
X97985600Y-77794800D03*
X96085600Y-77794800D03*
X97035600Y-79794800D03*
%TD*%
D22*
%TO.C,R19*%
X123190000Y-138351600D03*
X123190000Y-137261600D03*
%TD*%
D16*
%TO.C,*%
X129692400Y-102616000D03*
%TD*%
D18*
%TO.C,C9*%
X93819800Y-129126400D03*
X93819800Y-131201400D03*
%TD*%
D20*
%TO.C,SW3*%
X94488000Y-97282000D03*
D23*
X94488000Y-94282000D03*
X94488000Y-91282000D03*
D24*
X94488000Y-88482000D03*
X94488000Y-100082000D03*
%TD*%
D16*
%TO.C,*%
X128549400Y-102610000D03*
%TD*%
D25*
%TO.C,R14*%
X105156000Y-72424000D03*
X105156000Y-74424000D03*
%TD*%
D16*
%TO.C,*%
X128066800Y-65354200D03*
%TD*%
%TO.C,*%
X124380000Y-69020000D03*
%TD*%
D26*
%TO.C,H3*%
X137160000Y-129692400D03*
D27*
X137160000Y-127152400D03*
X137160000Y-124612400D03*
X137160000Y-122072400D03*
%TD*%
D28*
%TO.C,R10*%
X110150000Y-81915000D03*
X110150000Y-80895000D03*
%TD*%
D26*
%TO.C,H8*%
X137160000Y-134772400D03*
D27*
X137160000Y-137312400D03*
%TD*%
D16*
%TO.C,*%
X126233600Y-65354200D03*
%TD*%
D22*
%TO.C,R22*%
X130200400Y-136472000D03*
X130200400Y-135382000D03*
%TD*%
D29*
%TO.C,C11*%
X125360000Y-102420000D03*
X125360000Y-101020000D03*
%TD*%
D30*
%TO.C,H10*%
X168427400Y-64465200D03*
%TD*%
D31*
%TO.C,D2*%
X89839800Y-92788000D03*
X89839800Y-96188000D03*
%TD*%
D29*
%TO.C,C13*%
X134290000Y-102450000D03*
X134290000Y-101050000D03*
%TD*%
D32*
%TO.C,CARD1*%
X127570000Y-141740000D03*
X126470000Y-141740000D03*
X125370000Y-141740000D03*
X124270000Y-141740000D03*
X123170000Y-141740000D03*
X122070000Y-141740000D03*
X120970000Y-141740000D03*
X119870000Y-141740000D03*
D33*
X117570000Y-142740000D03*
D34*
X117570000Y-152340000D03*
X133070000Y-152340000D03*
D35*
X132170000Y-142740000D03*
D32*
X118770000Y-141740000D03*
%TD*%
D16*
%TO.C,*%
X122540000Y-69020000D03*
%TD*%
D25*
%TO.C,R4*%
X99103000Y-129147900D03*
X99103000Y-131147900D03*
%TD*%
D36*
%TO.C,R5*%
X104437000Y-131147900D03*
X104437000Y-129147900D03*
%TD*%
D22*
%TO.C,R23*%
X118237000Y-138873400D03*
X118237000Y-137783400D03*
%TD*%
D16*
%TO.C,*%
X128060000Y-67200000D03*
%TD*%
D37*
%TO.C,C1*%
X141352500Y-69059800D03*
X143427500Y-69059800D03*
%TD*%
D16*
%TO.C,*%
X129124200Y-102607550D03*
%TD*%
D29*
%TO.C,R17*%
X136490000Y-102440000D03*
X136490000Y-101040000D03*
%TD*%
D16*
%TO.C,*%
X124386800Y-65344200D03*
%TD*%
D36*
%TO.C,R9*%
X108648500Y-115309350D03*
X108648500Y-113309350D03*
%TD*%
D18*
%TO.C,C15*%
X113411200Y-66966200D03*
X113411200Y-69041200D03*
%TD*%
D38*
%TO.C,U3*%
X102172600Y-119068050D03*
X102172600Y-119568050D03*
X102172600Y-120068050D03*
X102172600Y-120568050D03*
X102172600Y-121068050D03*
X102172600Y-121568050D03*
X102172600Y-122068050D03*
D39*
X103122600Y-123018050D03*
X103622600Y-123018050D03*
X104122600Y-123018050D03*
X104622600Y-123018050D03*
X105122600Y-123018050D03*
X105622600Y-123018050D03*
X106122600Y-123018050D03*
D38*
X107072600Y-122068050D03*
X107072600Y-121568050D03*
X107072600Y-121068050D03*
X107072600Y-120568050D03*
X107072600Y-120068050D03*
X107072600Y-119568050D03*
X107072600Y-119068050D03*
D39*
X106122600Y-118118050D03*
X105622600Y-118118050D03*
X105122600Y-118118050D03*
X104622600Y-118118050D03*
X104122600Y-118118050D03*
X103622600Y-118118050D03*
X103122600Y-118118050D03*
D40*
X104622600Y-120568050D03*
%TD*%
D41*
%TO.C,C3*%
X90906600Y-83748800D03*
X88906600Y-83748800D03*
%TD*%
D42*
%TO.C,Q4*%
X101416000Y-81549200D03*
X101416000Y-83449200D03*
X103886000Y-82499200D03*
%TD*%
D16*
%TO.C,*%
X128066800Y-70866000D03*
%TD*%
D26*
%TO.C,H7*%
X114300000Y-137312400D03*
D27*
X114300000Y-134772400D03*
%TD*%
D10*
%TO.C,Q2*%
X103924100Y-113257750D03*
X103924100Y-115157750D03*
X101425100Y-114207750D03*
%TD*%
D18*
%TO.C,C5*%
X91178200Y-129122500D03*
X91178200Y-131197500D03*
%TD*%
D30*
%TO.C,H12*%
X168427400Y-152323800D03*
%TD*%
D43*
%TO.C,U1*%
X96052600Y-121296050D03*
X97002600Y-121296050D03*
X97952600Y-121296050D03*
X97952600Y-119021050D03*
X97002600Y-119021050D03*
X96052600Y-119021050D03*
%TD*%
D16*
%TO.C,*%
X126226800Y-69030000D03*
%TD*%
D15*
%TO.C,TP2*%
X119227600Y-89357200D03*
%TD*%
D44*
%TO.C,L_B-B1*%
X127348000Y-96234000D03*
X130904000Y-96234000D03*
%TD*%
D37*
%TO.C,C2*%
X88853100Y-80573800D03*
X90928100Y-80573800D03*
%TD*%
D45*
%TO.C,LED1*%
X111821000Y-84866000D03*
X111821000Y-86106000D03*
X110871000Y-84866000D03*
X110871000Y-86106000D03*
%TD*%
D16*
%TO.C,*%
X122546800Y-65344200D03*
%TD*%
D46*
%TO.C,SW1*%
X141440000Y-73969800D03*
X143040000Y-73969800D03*
X141440000Y-78069800D03*
X143040000Y-78069800D03*
%TD*%
D31*
%TO.C,D1*%
X88646000Y-132256000D03*
X88646000Y-128856000D03*
%TD*%
D25*
%TO.C,R13*%
X94525600Y-82974800D03*
X94525600Y-84974800D03*
%TD*%
D46*
%TO.C,SW2*%
X89179600Y-73969800D03*
X90779600Y-73969800D03*
X89179600Y-78069800D03*
X90779600Y-78069800D03*
%TD*%
D47*
%TO.C,R11*%
X113400000Y-80895000D03*
X113400000Y-81915000D03*
%TD*%
D16*
%TO.C,*%
X122540000Y-67190000D03*
%TD*%
D10*
%TO.C,Q5*%
X105882925Y-95097600D03*
X105882925Y-93197600D03*
X103882925Y-94147600D03*
%TD*%
D29*
%TO.C,C14*%
X132070000Y-102440000D03*
X132070000Y-101040000D03*
%TD*%
D48*
%TO.C,H1*%
X129540000Y-127203200D03*
D49*
X129540000Y-124663200D03*
X129540000Y-122123200D03*
%TD*%
D16*
%TO.C,*%
X126226800Y-67200000D03*
%TD*%
D36*
%TO.C,R8*%
X106159300Y-115293350D03*
X106159300Y-113293350D03*
%TD*%
D50*
%TO.C,U6*%
X117306000Y-60608400D03*
X117306000Y-61878400D03*
X117306000Y-63148400D03*
X117306000Y-64418400D03*
X117306000Y-65688400D03*
X117306000Y-66958400D03*
X117306000Y-68228400D03*
X117306000Y-69498400D03*
X117306000Y-70768400D03*
X117306000Y-72038400D03*
X117306000Y-73308400D03*
X117306000Y-74578400D03*
X117306000Y-75848400D03*
X117306000Y-77118400D03*
X117306000Y-78388400D03*
X117306000Y-79658400D03*
X117306000Y-80928400D03*
X117306000Y-82198400D03*
X117306000Y-83468400D03*
X135306000Y-83468400D03*
X135306000Y-82198400D03*
X135306000Y-80928400D03*
X135306000Y-79658400D03*
X135306000Y-78388400D03*
X135306000Y-77118400D03*
X135306000Y-75848400D03*
X135306000Y-74578400D03*
X135306000Y-73308400D03*
X135306000Y-72038400D03*
X135306000Y-70768400D03*
X135306000Y-69498400D03*
X135306000Y-68228400D03*
X135306000Y-66958400D03*
X135306000Y-65688400D03*
X135306000Y-64418400D03*
X135306000Y-63148400D03*
X135306000Y-61878400D03*
X135306000Y-60608400D03*
D51*
X123471000Y-66273400D03*
X123471000Y-68108400D03*
X123471000Y-69943400D03*
X125306000Y-66273400D03*
X125306000Y-68108400D03*
X125306000Y-69943400D03*
X127141000Y-66273400D03*
X127141000Y-68108400D03*
X127141000Y-69943400D03*
%TD*%
D16*
%TO.C,*%
X122546800Y-70856000D03*
%TD*%
D37*
%TO.C,C7*%
X135898000Y-92231400D03*
X137973000Y-92231400D03*
%TD*%
%TO.C,C8*%
X135898000Y-95127000D03*
X137973000Y-95127000D03*
%TD*%
D26*
%TO.C,H4*%
X114300000Y-122072400D03*
D27*
X114300000Y-124612400D03*
X114300000Y-127152400D03*
X114300000Y-129692400D03*
%TD*%
D36*
%TO.C,R3*%
X96461400Y-131129100D03*
X96461400Y-129129100D03*
%TD*%
D30*
%TO.C,H9*%
X90678000Y-64465200D03*
%TD*%
D25*
%TO.C,R16*%
X102646000Y-68314000D03*
X102646000Y-70314000D03*
%TD*%
D36*
%TO.C,R2*%
X105308600Y-63996000D03*
X105308600Y-61996000D03*
%TD*%
D15*
%TO.C,TP3*%
X104970400Y-138926200D03*
%TD*%
%TO.C,TP5*%
X104970400Y-144780000D03*
%TD*%
D52*
%TO.C,U4*%
X167735600Y-106680000D03*
X152501600Y-106680000D03*
D49*
X167741600Y-88162500D03*
X165201600Y-88161500D03*
X162661600Y-88160500D03*
X160121600Y-88159500D03*
X157581600Y-88158500D03*
X155041600Y-88157500D03*
X152501600Y-88156500D03*
%TD*%
D22*
%TO.C,C6*%
X96130600Y-75264800D03*
X96130600Y-74174800D03*
%TD*%
D15*
%TO.C,TP4*%
X108480000Y-73530000D03*
%TD*%
D25*
%TO.C,R6*%
X101744600Y-129147900D03*
X101744600Y-131147900D03*
%TD*%
D36*
%TO.C,R7*%
X107078600Y-131147900D03*
X107078600Y-129147900D03*
%TD*%
D41*
%TO.C,C4*%
X137898000Y-89183400D03*
X135898000Y-89183400D03*
%TD*%
D36*
%TO.C,R15*%
X110286000Y-68904000D03*
X110286000Y-66904000D03*
%TD*%
D53*
%TO.C,U5*%
X130124200Y-101107550D03*
X129624200Y-101107550D03*
X129124200Y-101107550D03*
X128624200Y-101107550D03*
X128124200Y-101107550D03*
D54*
X128124200Y-104107550D03*
X128624200Y-104107550D03*
X129124200Y-104107550D03*
X129624200Y-104107550D03*
X130124200Y-104107550D03*
D55*
X129119200Y-102607550D03*
%TD*%
D16*
%TO.C,*%
X124380000Y-67190000D03*
%TD*%
D30*
%TO.C,H11*%
X90678000Y-152323800D03*
%TD*%
D56*
%TO.C,U7*%
X92755100Y-116227050D03*
D57*
X88555100Y-116227050D03*
D56*
X92755100Y-124877050D03*
D57*
X88555100Y-124877050D03*
D58*
X93405100Y-117343050D03*
X93405100Y-118143050D03*
D59*
X93405100Y-119293050D03*
X93405100Y-120293050D03*
X93405100Y-120793050D03*
X93406100Y-121792550D03*
D58*
X93405100Y-122943050D03*
X93405100Y-123743050D03*
D59*
X93405100Y-122293050D03*
X93405100Y-121293050D03*
X93405100Y-119793050D03*
X93406100Y-118793050D03*
%TD*%
D22*
%TO.C,R21*%
X132283200Y-136319600D03*
X132283200Y-135229600D03*
%TD*%
D20*
%TO.C,H5*%
X137160000Y-142468600D03*
D21*
X137160000Y-145008600D03*
X137160000Y-147548600D03*
X137160000Y-150088600D03*
X137160000Y-152628600D03*
X137160000Y-155168600D03*
%TD*%
D48*
%TO.C,H2*%
X121920000Y-127203200D03*
D49*
X121920000Y-124663200D03*
X121920000Y-122123200D03*
%TD*%
D16*
%TO.C,*%
X128060000Y-69030000D03*
%TD*%
D22*
%TO.C,R18*%
X127660400Y-138453200D03*
X127660400Y-137363200D03*
%TD*%
D16*
%TO.C,*%
X124386800Y-70856000D03*
%TD*%
D31*
%TO.C,D3*%
X108458000Y-91723000D03*
X108458000Y-95123000D03*
%TD*%
D14*
%TO.C,R1*%
X94387200Y-136790500D03*
X92387200Y-136790500D03*
%TD*%
D47*
%TO.C,R12*%
X111760000Y-80895000D03*
X111760000Y-81915000D03*
%TD*%
D18*
%TO.C,C12*%
X122946000Y-100686500D03*
X122946000Y-102761500D03*
%TD*%
M02*
