%TF.GenerationSoftware,KiCad,Pcbnew,9.0.1*%
%TF.CreationDate,2025-06-09T16:31:51+02:00*%
%TF.ProjectId,MY-ESP32,4d592d45-5350-4333-922e-6b696361645f,rev?*%
%TF.SameCoordinates,Original*%
%TF.FileFunction,Copper,L4,Bot*%
%TF.FilePolarity,Positive*%
%FSLAX46Y46*%
G04 Gerber Fmt 4.6, Leading zero omitted, Abs format (unit mm)*
G04 Created by KiCad (PCBNEW 9.0.1) date 2025-06-09 16:31:51*
%MOMM*%
%LPD*%
G01*
G04 APERTURE LIST*
%TA.AperFunction,ComponentPad*%
%ADD10O,0.500000X0.500000*%
%TD*%
%TA.AperFunction,ComponentPad*%
%ADD11R,1.800000X1.800000*%
%TD*%
%TA.AperFunction,ComponentPad*%
%ADD12C,1.600000*%
%TD*%
%TA.AperFunction,ComponentPad*%
%ADD13R,1.700000X1.700000*%
%TD*%
%TA.AperFunction,ComponentPad*%
%ADD14C,1.700000*%
%TD*%
%TA.AperFunction,ComponentPad*%
%ADD15R,1.575000X1.575000*%
%TD*%
%TA.AperFunction,ComponentPad*%
%ADD16C,1.575000*%
%TD*%
%TA.AperFunction,ComponentPad*%
%ADD17O,2.100000X1.100000*%
%TD*%
%TA.AperFunction,ComponentPad*%
%ADD18O,1.800000X1.200000*%
%TD*%
%TA.AperFunction,ComponentPad*%
%ADD19C,2.200000*%
%TD*%
%TA.AperFunction,ViaPad*%
%ADD20C,0.800000*%
%TD*%
%TA.AperFunction,Conductor*%
%ADD21C,0.254000*%
%TD*%
%TA.AperFunction,Conductor*%
%ADD22C,0.355600*%
%TD*%
G04 APERTURE END LIST*
D10*
%TO.P,,PTH13,GND*%
%TO.N,GND*%
X44196000Y-88265000D03*
%TD*%
%TO.P,,PTH13,GND*%
%TO.N,GND*%
X44200000Y-87140000D03*
%TD*%
%TO.P,,PTH13,GND*%
%TO.N,GND*%
X43078400Y-87147400D03*
%TD*%
%TO.P,,PTH13,GND*%
%TO.N,GND*%
X43081800Y-88265000D03*
%TD*%
%TO.P,,PTH17,GND*%
%TO.N,GND*%
X63765400Y-65300000D03*
%TD*%
%TO.P,,PTH19,GND*%
%TO.N,GND*%
X65010000Y-65300000D03*
%TD*%
%TO.P,,PTH18,GND*%
%TO.N,GND*%
X64388800Y-65300000D03*
%TD*%
%TO.P,,PTH10,GND*%
%TO.N,GND*%
X59664600Y-31724600D03*
%TD*%
%TO.P,,PTH15,GND*%
%TO.N,GND*%
X61502600Y-33603800D03*
%TD*%
%TO.P,,PTH16,GND*%
%TO.N,GND*%
X63382600Y-33603800D03*
%TD*%
%TO.P,,PTH5,GND*%
%TO.N,GND*%
X57785000Y-29895800D03*
%TD*%
%TO.P,,PTH8,GND*%
%TO.N,GND*%
X63382600Y-29895800D03*
%TD*%
%TO.P,,PTH4,GND*%
%TO.N,GND*%
X63382600Y-28013800D03*
%TD*%
%TO.P,,PTH14,GND*%
%TO.N,GND*%
X59664600Y-33603800D03*
%TD*%
%TO.P,,PTH12,GND*%
%TO.N,GND*%
X63382600Y-31723800D03*
%TD*%
%TO.P,,PTH11,GND*%
%TO.N,GND*%
X61493400Y-31724600D03*
%TD*%
%TO.P,,PTH13,GND*%
%TO.N,GND*%
X57785000Y-33604200D03*
%TD*%
%TO.P,,PTH2,GND*%
%TO.N,GND*%
X59664600Y-28016200D03*
%TD*%
%TO.P,,PTH3,GND*%
%TO.N,GND*%
X61492600Y-28013800D03*
%TD*%
%TO.P,,PTH6,GND*%
%TO.N,GND*%
X59664600Y-29895800D03*
%TD*%
%TO.P,,PTH1,GND*%
%TO.N,GND*%
X57782600Y-28013800D03*
%TD*%
%TO.P,,PTH9,GND*%
%TO.N,GND*%
X57785000Y-31724600D03*
%TD*%
%TO.P,,PTH7,GND*%
%TO.N,GND*%
X61493400Y-29895800D03*
%TD*%
D11*
%TO.P,H5,1,1*%
%TO.N,D5*%
X107120600Y-34846000D03*
D12*
%TO.P,H5,2,2*%
%TO.N,D18*%
X109660600Y-34846000D03*
%TO.P,H5,3,3*%
%TO.N,D19*%
X112200600Y-34846000D03*
%TO.P,H5,4,4*%
%TO.N,D21*%
X114740600Y-34846000D03*
%TO.P,H5,5,5*%
%TO.N,D22*%
X117280600Y-34846000D03*
%TO.P,H5,6,6*%
%TO.N,D23*%
X119820600Y-34846000D03*
%TD*%
D13*
%TO.P,H4,1,1*%
%TO.N,+3V3*%
X86826000Y-57714600D03*
D14*
%TO.P,H4,2,2*%
%TO.N,D14*%
X89366000Y-57714600D03*
%TO.P,H4,3,3*%
%TO.N,D27*%
X91906000Y-57714600D03*
%TO.P,H4,4,4*%
%TO.N,D26*%
X94446000Y-57714600D03*
%TD*%
D13*
%TO.P,H8,1,1*%
%TO.N,+3V3*%
X99475200Y-34846000D03*
D14*
%TO.P,H8,2,2*%
%TO.N,GND*%
X102015200Y-34846000D03*
%TD*%
D11*
%TO.P,H6,1,1*%
%TO.N,GND*%
X107146000Y-57706000D03*
D12*
%TO.P,H6,2,2*%
%TO.N,D33*%
X109686000Y-57706000D03*
%TO.P,H6,3,3*%
%TO.N,D32*%
X112226000Y-57706000D03*
%TO.P,H6,4,4*%
%TO.N,D35*%
X114766000Y-57706000D03*
%TO.P,H6,5,5*%
%TO.N,GND*%
X117306000Y-57706000D03*
%TO.P,H6,6,6*%
X119846000Y-57706000D03*
%TD*%
D13*
%TO.P,H7,1,1*%
%TO.N,EXT_5V*%
X102066000Y-57706000D03*
D14*
%TO.P,H7,2,2*%
%TO.N,GND*%
X99526000Y-57706000D03*
%TD*%
D15*
%TO.P,H1,1,1*%
%TO.N,D12*%
X91906000Y-42466000D03*
D16*
%TO.P,H1,2,2*%
%TO.N,D15*%
X89366000Y-42466000D03*
%TO.P,H1,3,3*%
%TO.N,D2*%
X86826000Y-42466000D03*
%TD*%
D15*
%TO.P,H2,1,1*%
%TO.N,GND*%
X91906000Y-50083800D03*
D16*
%TO.P,H2,2,2*%
%TO.N,+3V3*%
X89366000Y-50083800D03*
%TO.P,H2,3,3*%
%TO.N,D13*%
X86826000Y-50083800D03*
%TD*%
D17*
%TO.P,U10,0,0*%
%TO.N,GND*%
X31778500Y-83367700D03*
D18*
X27578500Y-83367700D03*
D17*
X31778500Y-92017700D03*
D18*
X27578500Y-92017700D03*
%TD*%
D13*
%TO.P,H3,1,1*%
%TO.N,+3V3*%
X94446000Y-34846000D03*
D14*
%TO.P,H3,2,2*%
%TO.N,IO0*%
X91906000Y-34846000D03*
%TO.P,H3,3,3*%
%TO.N,D4*%
X89366000Y-34846000D03*
%TO.P,H3,4,4*%
%TO.N,GND*%
X86826000Y-34846000D03*
%TD*%
D19*
%TO.P,U2,1,1*%
%TO.N,/Battery_Charger_LiFePO4_3.6V/Battery_Charger_OUTPUT*%
X28738250Y-49857567D03*
%TO.P,U2,2,2*%
%TO.N,GND*%
X28738250Y-54857567D03*
%TD*%
D20*
%TO.N,GND*%
X44814400Y-96321000D03*
X57235000Y-67739000D03*
X34236000Y-59723400D03*
X56600000Y-65961000D03*
X98510000Y-46453800D03*
X72729000Y-66596000D03*
X38546000Y-60211000D03*
X42843850Y-61789800D03*
X117255200Y-40256200D03*
X42691450Y-63974200D03*
X59190800Y-78595400D03*
X43036000Y-71041000D03*
X76513600Y-57833000D03*
X64886000Y-69111000D03*
X71586000Y-67866000D03*
X37346800Y-90446600D03*
X59276000Y-93321000D03*
X39709000Y-86687400D03*
X52790000Y-96301000D03*
X45576400Y-33398200D03*
X36610200Y-65605400D03*
X60664000Y-51864000D03*
X109838400Y-39799000D03*
X42856000Y-57771000D03*
X60714800Y-41094400D03*
X39527300Y-94840700D03*
X34476000Y-76924400D03*
X59521000Y-67739000D03*
X108949400Y-52067200D03*
X29244200Y-30934400D03*
X117204400Y-52956200D03*
X69300000Y-67866000D03*
%TO.N,IO0*%
X61426000Y-88821000D03*
X86166000Y-37821000D03*
X58378000Y-48181000D03*
X40448500Y-81348400D03*
%TO.N,ENA*%
X44052400Y-74165200D03*
X44052400Y-25905200D03*
%TO.N,+3V3*%
X100386000Y-53721000D03*
X55941726Y-24535701D03*
X98221000Y-41776000D03*
X50148400Y-92791100D03*
X100789900Y-44320200D03*
X64728000Y-51864000D03*
X97748000Y-48739800D03*
X66356000Y-67815200D03*
X66633000Y-49959000D03*
X100135600Y-50924200D03*
X96156000Y-39711000D03*
X71596000Y-61361000D03*
X39531200Y-92769600D03*
%TO.N,D2*%
X98871000Y-52106000D03*
%TO.N,D14*%
X58251000Y-38859200D03*
X79606000Y-56004200D03*
%TO.N,Net-(U7-BOOST)*%
X39237050Y-66920600D03*
X41895600Y-66367400D03*
%TO.N,EXT_5V*%
X70316000Y-70025000D03*
X47026325Y-73101325D03*
X49701850Y-56319000D03*
X76843800Y-69974200D03*
X34413100Y-97960000D03*
%TO.N,D12*%
X54913100Y-40038100D03*
X76046000Y-48409600D03*
%TO.N,D13*%
X55355400Y-43786800D03*
X77529600Y-50111400D03*
%TO.N,D4*%
X84006000Y-33169600D03*
%TO.N,D26*%
X72966000Y-45171000D03*
X55812600Y-35963600D03*
%TO.N,D27*%
X71713000Y-47682600D03*
X54568000Y-37827400D03*
%TO.N,D22*%
X77496000Y-24811000D03*
%TO.N,D23*%
X73226200Y-24341200D03*
%TO.N,D21*%
X73211600Y-29664400D03*
%TO.N,D5*%
X77466100Y-32775900D03*
%TO.N,D19*%
X77128000Y-28161000D03*
%TO.N,D18*%
X73326000Y-33474400D03*
%TO.N,D33*%
X60892600Y-37436800D03*
%TO.N,D35*%
X54517200Y-29232600D03*
%TO.N,D32*%
X54936000Y-31511000D03*
%TO.N,DN*%
X33740000Y-89082700D03*
X33740000Y-86415700D03*
%TO.N,Net-(U7-MPPT)*%
X42843850Y-62958200D03*
X46374450Y-69670048D03*
%TO.N,D25*%
X37956400Y-34744400D03*
X48472000Y-34744400D03*
%TO.N,D-*%
X38439000Y-88193700D03*
X35069949Y-84805900D03*
%TO.N,TXD0*%
X66607600Y-25575000D03*
X43658133Y-84005800D03*
X33892400Y-52346600D03*
X37550000Y-52372000D03*
%TO.N,RXD0*%
X42630000Y-84005800D03*
X67642400Y-28401000D03*
%TO.N,/Buck-Boost3.3V/Buck-Boost_INPUT*%
X56752400Y-63344800D03*
X63814575Y-67770560D03*
X56765100Y-54188100D03*
%TD*%
D21*
%TO.N,IO0*%
X40448500Y-81348400D02*
X48594000Y-81348400D01*
X63000800Y-87373200D02*
X63000800Y-85087200D01*
X86166000Y-37821000D02*
X90429600Y-37821000D01*
X58352600Y-80439000D02*
X58352600Y-48206400D01*
X90429600Y-37821000D02*
X91906000Y-36344600D01*
X61426000Y-88821000D02*
X61553000Y-88821000D01*
X91906000Y-36344600D02*
X91906000Y-34846000D01*
X56066600Y-88821000D02*
X61426000Y-88821000D01*
X63000800Y-85087200D02*
X58352600Y-80439000D01*
X61405600Y-88841400D02*
X61426000Y-88821000D01*
X58352600Y-48206400D02*
X58378000Y-48181000D01*
X61553000Y-88821000D02*
X63000800Y-87373200D01*
X48594000Y-81348400D02*
X56066600Y-88821000D01*
%TO.N,D2*%
X98871000Y-52106000D02*
X93726800Y-46961800D01*
X93726800Y-46961800D02*
X91321800Y-46961800D01*
X91321800Y-46961800D02*
X86826000Y-42466000D01*
%TO.N,D14*%
X69706400Y-39900600D02*
X79606000Y-49800200D01*
X63889800Y-38859200D02*
X64931200Y-39900600D01*
X79606000Y-49800200D02*
X79606000Y-56004200D01*
X58251000Y-38859200D02*
X63889800Y-38859200D01*
X64931200Y-39900600D02*
X69706400Y-39900600D01*
X89366000Y-56994800D02*
X89366000Y-57714600D01*
%TO.N,Net-(U7-BOOST)*%
X39237050Y-66920600D02*
X41342400Y-66920600D01*
X41342400Y-66920600D02*
X41895600Y-66367400D01*
X39237050Y-66920600D02*
X39242650Y-66926200D01*
%TO.N,D12*%
X61136000Y-46261000D02*
X66745000Y-46261000D01*
X68893600Y-48409600D02*
X76046000Y-48409600D01*
X66745000Y-46261000D02*
X68893600Y-48409600D01*
X54913100Y-40038100D02*
X61136000Y-46261000D01*
%TO.N,D13*%
X68436400Y-50111400D02*
X66326000Y-48001000D01*
X77529600Y-50111400D02*
X68436400Y-50111400D01*
X66326000Y-48001000D02*
X59569600Y-48001000D01*
X59569600Y-48001000D02*
X55355400Y-43786800D01*
%TO.N,D4*%
X89366000Y-34160200D02*
X89366000Y-34846000D01*
X84006000Y-33169600D02*
X88375400Y-33169600D01*
X88375400Y-33169600D02*
X89366000Y-34160200D01*
%TO.N,D26*%
X69083000Y-43011000D02*
X71243000Y-45171000D01*
X61285200Y-43011000D02*
X69083000Y-43011000D01*
X71243000Y-45171000D02*
X72966000Y-45171000D01*
X55812600Y-37538400D02*
X61285200Y-43011000D01*
X55812600Y-35963600D02*
X55812600Y-37538400D01*
%TO.N,D27*%
X54568000Y-37827400D02*
X54568000Y-37843200D01*
X54568000Y-37843200D02*
X61375800Y-44651000D01*
X68681400Y-44651000D02*
X71713000Y-47682600D01*
X61375800Y-44651000D02*
X68681400Y-44651000D01*
%TO.N,D22*%
X109430000Y-24811000D02*
X117280600Y-32661600D01*
X77496000Y-24811000D02*
X109430000Y-24811000D01*
X117280600Y-32661600D02*
X117280600Y-34846000D01*
%TO.N,D23*%
X110103000Y-23071000D02*
X119820600Y-32788600D01*
X119820600Y-32788600D02*
X119820600Y-34846000D01*
X74496400Y-23071000D02*
X110103000Y-23071000D01*
X73226200Y-24341200D02*
X74496400Y-23071000D01*
%TO.N,D21*%
X114740600Y-32534600D02*
X114740600Y-34846000D01*
X73211600Y-29664400D02*
X76315000Y-26561000D01*
X108767000Y-26561000D02*
X114740600Y-32534600D01*
X76315000Y-26561000D02*
X108767000Y-26561000D01*
%TO.N,D5*%
X78661000Y-31581000D02*
X77466100Y-32775900D01*
X107120600Y-32407600D02*
X106294000Y-31581000D01*
X107120600Y-34846000D02*
X107120600Y-32407600D01*
X106294000Y-31581000D02*
X78661000Y-31581000D01*
%TO.N,D19*%
X77128000Y-28161000D02*
X107954000Y-28161000D01*
X112200600Y-32407600D02*
X112200600Y-34846000D01*
X107954000Y-28161000D02*
X112200600Y-32407600D01*
%TO.N,D18*%
X74100600Y-33474400D02*
X77809000Y-29766000D01*
X77809000Y-29766000D02*
X107019000Y-29766000D01*
X109660600Y-32407600D02*
X109660600Y-34846000D01*
X73326000Y-33474400D02*
X74100600Y-33474400D01*
X107019000Y-29766000D02*
X109660600Y-32407600D01*
%TO.N,D33*%
X81696000Y-59357800D02*
X84108200Y-61770000D01*
X84108200Y-61770000D02*
X108162000Y-61770000D01*
X109686000Y-60246000D02*
X109686000Y-57706000D01*
X81696000Y-49401000D02*
X81696000Y-59357800D01*
X69731800Y-37436800D02*
X81696000Y-49401000D01*
X60892600Y-37436800D02*
X69731800Y-37436800D01*
X108162000Y-61770000D02*
X109686000Y-60246000D01*
%TO.N,D35*%
X111881000Y-54821000D02*
X114766000Y-57706000D01*
X56244400Y-33068000D02*
X58247400Y-35071000D01*
X88016000Y-54821000D02*
X111881000Y-54821000D01*
X56244400Y-30248600D02*
X56244400Y-33068000D01*
X72903200Y-35071000D02*
X84946000Y-47113800D01*
X84946000Y-51751000D02*
X88016000Y-54821000D01*
X58247400Y-35071000D02*
X72903200Y-35071000D01*
X84946000Y-47113800D02*
X84946000Y-51751000D01*
X55228400Y-29232600D02*
X56244400Y-30248600D01*
X54517200Y-29232600D02*
X55228400Y-29232600D01*
%TO.N,D32*%
X54936000Y-33283600D02*
X57895400Y-36243000D01*
X57895400Y-36243000D02*
X71306600Y-36243000D01*
X86604200Y-56011000D02*
X110531000Y-56011000D01*
X110531000Y-56011000D02*
X112226000Y-57706000D01*
X54936000Y-31511000D02*
X54936000Y-33283600D01*
X83244600Y-48181000D02*
X83244600Y-52651400D01*
X71306600Y-36243000D02*
X83244600Y-48181000D01*
X83244600Y-52651400D02*
X86604200Y-56011000D01*
%TO.N,DN*%
X33740000Y-86415700D02*
X33740000Y-89082700D01*
D22*
%TO.N,Net-(U7-MPPT)*%
X43936050Y-68825600D02*
X44780498Y-69670048D01*
X44780498Y-69670048D02*
X46374450Y-69670048D01*
X42843850Y-62958200D02*
X43936050Y-64050400D01*
X43936050Y-64050400D02*
X43936050Y-68825600D01*
D21*
%TO.N,D25*%
X48472000Y-34744400D02*
X37956400Y-34744400D01*
%TO.N,D-*%
X35069949Y-84824649D02*
X35069949Y-84805900D01*
X38439000Y-88193700D02*
X35069949Y-84824649D01*
%TO.N,TXD0*%
X38769200Y-82648800D02*
X37550000Y-81429600D01*
X43658133Y-83321333D02*
X42985600Y-82648800D01*
X66093600Y-25061000D02*
X66607600Y-25575000D01*
X33917800Y-52321200D02*
X33917800Y-31112200D01*
X37931000Y-27099000D02*
X55177600Y-27099000D01*
X57215600Y-25061000D02*
X66093600Y-25061000D01*
X33917800Y-31112200D02*
X37931000Y-27099000D01*
X37550000Y-81429600D02*
X37550000Y-52372000D01*
X33892400Y-52346600D02*
X33917800Y-52321200D01*
X42985600Y-82648800D02*
X38769200Y-82648800D01*
X55177600Y-27099000D02*
X57215600Y-25061000D01*
X43658133Y-84005800D02*
X43658133Y-83321333D01*
%TO.N,RXD0*%
X39906200Y-28121000D02*
X35645000Y-32382200D01*
X67642400Y-28401000D02*
X67642400Y-28387800D01*
X35645000Y-32382200D02*
X35645000Y-81963000D01*
X67642400Y-28387800D02*
X65591600Y-26337000D01*
X35645000Y-81963000D02*
X37702400Y-84020400D01*
X65591600Y-26337000D02*
X57920800Y-26337000D01*
X37702400Y-84020400D02*
X42615400Y-84020400D01*
X57920800Y-26337000D02*
X56136800Y-28121000D01*
X42615400Y-84020400D02*
X42630000Y-84005800D01*
X56136800Y-28121000D02*
X39906200Y-28121000D01*
%TD*%
M02*
