%TF.GenerationSoftware,KiCad,Pcbnew,9.0.1*%
%TF.CreationDate,2025-06-13T19:07:15+02:00*%
%TF.ProjectId,MY-ESP32,4d592d45-5350-4333-922e-6b696361645f,1*%
%TF.SameCoordinates,Original*%
%TF.FileFunction,Copper,L1,Top*%
%TF.FilePolarity,Positive*%
%FSLAX46Y46*%
G04 Gerber Fmt 4.6, Leading zero omitted, Abs format (unit mm)*
G04 Created by KiCad (PCBNEW 9.0.1) date 2025-06-13 19:07:15*
%MOMM*%
%LPD*%
G01*
G04 APERTURE LIST*
G04 Aperture macros list*
%AMRoundRect*
0 Rectangle with rounded corners*
0 $1 Rounding radius*
0 $2 $3 $4 $5 $6 $7 $8 $9 X,Y pos of 4 corners*
0 Add a 4 corners polygon primitive as box body*
4,1,4,$2,$3,$4,$5,$6,$7,$8,$9,$2,$3,0*
0 Add four circle primitives for the rounded corners*
1,1,$1+$1,$2,$3*
1,1,$1+$1,$4,$5*
1,1,$1+$1,$6,$7*
1,1,$1+$1,$8,$9*
0 Add four rect primitives between the rounded corners*
20,1,$1+$1,$2,$3,$4,$5,0*
20,1,$1+$1,$4,$5,$6,$7,0*
20,1,$1+$1,$6,$7,$8,$9,0*
20,1,$1+$1,$8,$9,$2,$3,0*%
%AMFreePoly0*
4,1,21,-0.180000,0.885000,0.180000,0.885000,0.180000,1.715000,0.470000,1.715000,0.470000,0.885000,0.760000,0.885000,0.760000,-0.885000,0.470000,-0.885000,0.470000,-1.705000,0.180000,-1.705000,0.180000,-0.885000,-0.180000,-0.885000,-0.180000,-1.705000,-0.470000,-1.705000,-0.470000,-0.885000,-0.760000,-0.885000,-0.760000,0.895000,-0.470000,0.895000,-0.470000,1.715000,-0.180000,1.715000,
-0.180000,0.885000,-0.180000,0.885000,$1*%
G04 Aperture macros list end*
%TA.AperFunction,EtchedComponent*%
%ADD10C,0.200000*%
%TD*%
%TA.AperFunction,SMDPad,CuDef*%
%ADD11R,0.240000X0.850000*%
%TD*%
%TA.AperFunction,SMDPad,CuDef*%
%ADD12R,0.230000X0.800000*%
%TD*%
%TA.AperFunction,SMDPad,CuDef*%
%ADD13FreePoly0,270.000000*%
%TD*%
%TA.AperFunction,SMDPad,CuDef*%
%ADD14R,2.000000X0.900000*%
%TD*%
%TA.AperFunction,ComponentPad*%
%ADD15R,0.900000X0.900000*%
%TD*%
%TA.AperFunction,SMDPad,CuDef*%
%ADD16R,1.330000X1.330000*%
%TD*%
%TA.AperFunction,ComponentPad*%
%ADD17R,1.800000X1.800000*%
%TD*%
%TA.AperFunction,ComponentPad*%
%ADD18C,1.600000*%
%TD*%
%TA.AperFunction,ComponentPad*%
%ADD19C,1.700000*%
%TD*%
%TA.AperFunction,ComponentPad*%
%ADD20R,1.700000X1.700000*%
%TD*%
%TA.AperFunction,ComponentPad*%
%ADD21C,1.575000*%
%TD*%
%TA.AperFunction,ComponentPad*%
%ADD22R,1.575000X1.575000*%
%TD*%
%TA.AperFunction,SMDPad,CuDef*%
%ADD23C,1.000000*%
%TD*%
%TA.AperFunction,SMDPad,CuDef*%
%ADD24RoundRect,0.250000X0.350000X0.450000X-0.350000X0.450000X-0.350000X-0.450000X0.350000X-0.450000X0*%
%TD*%
%TA.AperFunction,SMDPad,CuDef*%
%ADD25R,0.700000X1.250000*%
%TD*%
%TA.AperFunction,SMDPad,CuDef*%
%ADD26RoundRect,0.250000X-0.475000X0.337500X-0.475000X-0.337500X0.475000X-0.337500X0.475000X0.337500X0*%
%TD*%
%TA.AperFunction,SMDPad,CuDef*%
%ADD27R,0.540000X0.790000*%
%TD*%
%TA.AperFunction,SMDPad,CuDef*%
%ADD28RoundRect,0.250000X-0.450000X0.350000X-0.450000X-0.350000X0.450000X-0.350000X0.450000X0.350000X0*%
%TD*%
%TA.AperFunction,SMDPad,CuDef*%
%ADD29R,0.540000X0.565500*%
%TD*%
%TA.AperFunction,SMDPad,CuDef*%
%ADD30R,0.900000X0.800000*%
%TD*%
%TA.AperFunction,SMDPad,CuDef*%
%ADD31R,1.150000X0.600000*%
%TD*%
%TA.AperFunction,SMDPad,CuDef*%
%ADD32R,1.150000X0.300000*%
%TD*%
%TA.AperFunction,SMDPad,CuDef*%
%ADD33R,2.000000X2.180000*%
%TD*%
%TA.AperFunction,SMDPad,CuDef*%
%ADD34R,0.700000X1.600000*%
%TD*%
%TA.AperFunction,SMDPad,CuDef*%
%ADD35R,1.200000X1.500000*%
%TD*%
%TA.AperFunction,SMDPad,CuDef*%
%ADD36R,1.200000X2.200000*%
%TD*%
%TA.AperFunction,SMDPad,CuDef*%
%ADD37R,1.600000X1.500000*%
%TD*%
%TA.AperFunction,SMDPad,CuDef*%
%ADD38R,0.600000X1.070000*%
%TD*%
%TA.AperFunction,SMDPad,CuDef*%
%ADD39R,1.300000X1.300000*%
%TD*%
%TA.AperFunction,SMDPad,CuDef*%
%ADD40RoundRect,0.250000X0.450000X-0.350000X0.450000X0.350000X-0.450000X0.350000X-0.450000X-0.350000X0*%
%TD*%
%TA.AperFunction,SMDPad,CuDef*%
%ADD41RoundRect,0.250000X-0.337500X-0.475000X0.337500X-0.475000X0.337500X0.475000X-0.337500X0.475000X0*%
%TD*%
%TA.AperFunction,SMDPad,CuDef*%
%ADD42RoundRect,0.062500X-0.337500X-0.062500X0.337500X-0.062500X0.337500X0.062500X-0.337500X0.062500X0*%
%TD*%
%TA.AperFunction,SMDPad,CuDef*%
%ADD43RoundRect,0.062500X-0.062500X-0.337500X0.062500X-0.337500X0.062500X0.337500X-0.062500X0.337500X0*%
%TD*%
%TA.AperFunction,HeatsinkPad*%
%ADD44R,3.350000X3.350000*%
%TD*%
%TA.AperFunction,SMDPad,CuDef*%
%ADD45R,1.410000X1.350000*%
%TD*%
%TA.AperFunction,SMDPad,CuDef*%
%ADD46R,1.070000X0.600000*%
%TD*%
%TA.AperFunction,SMDPad,CuDef*%
%ADD47R,1.250000X0.700000*%
%TD*%
%TA.AperFunction,SMDPad,CuDef*%
%ADD48RoundRect,0.250000X-0.350000X-0.450000X0.350000X-0.450000X0.350000X0.450000X-0.350000X0.450000X0*%
%TD*%
%TA.AperFunction,SMDPad,CuDef*%
%ADD49RoundRect,0.150000X0.150000X-0.512500X0.150000X0.512500X-0.150000X0.512500X-0.150000X-0.512500X0*%
%TD*%
%TA.AperFunction,SMDPad,CuDef*%
%ADD50RoundRect,0.250000X0.475000X-0.337500X0.475000X0.337500X-0.475000X0.337500X-0.475000X-0.337500X0*%
%TD*%
%TA.AperFunction,ComponentPad*%
%ADD51C,1.400000*%
%TD*%
%TA.AperFunction,SMDPad,CuDef*%
%ADD52R,2.124000X3.820000*%
%TD*%
%TA.AperFunction,SMDPad,CuDef*%
%ADD53R,0.806500X0.864000*%
%TD*%
%TA.AperFunction,ComponentPad*%
%ADD54C,1.800000*%
%TD*%
%TA.AperFunction,ComponentPad*%
%ADD55O,2.500000X1.200000*%
%TD*%
%TA.AperFunction,SMDPad,CuDef*%
%ADD56R,0.660400X1.549400*%
%TD*%
%TA.AperFunction,SMDPad,CuDef*%
%ADD57R,1.295400X1.905000*%
%TD*%
%TA.AperFunction,SMDPad,CuDef*%
%ADD58R,1.000000X0.900000*%
%TD*%
%TA.AperFunction,SMDPad,CuDef*%
%ADD59R,0.750000X0.700000*%
%TD*%
%TA.AperFunction,SMDPad,CuDef*%
%ADD60RoundRect,0.250000X0.337500X0.475000X-0.337500X0.475000X-0.337500X-0.475000X0.337500X-0.475000X0*%
%TD*%
%TA.AperFunction,ComponentPad*%
%ADD61C,3.575000*%
%TD*%
%TA.AperFunction,ViaPad*%
%ADD62C,0.900000*%
%TD*%
%TA.AperFunction,Conductor*%
%ADD63C,0.254000*%
%TD*%
%TA.AperFunction,Conductor*%
%ADD64C,0.508000*%
%TD*%
%TA.AperFunction,Conductor*%
%ADD65C,1.117600*%
%TD*%
%TA.AperFunction,Conductor*%
%ADD66C,1.016000*%
%TD*%
%TA.AperFunction,Conductor*%
%ADD67C,1.092200*%
%TD*%
%TA.AperFunction,Conductor*%
%ADD68C,0.609600*%
%TD*%
%TA.AperFunction,Conductor*%
%ADD69C,0.250000*%
%TD*%
%TA.AperFunction,Conductor*%
%ADD70C,0.355600*%
%TD*%
%TA.AperFunction,Conductor*%
%ADD71C,0.406400*%
%TD*%
G04 APERTURE END LIST*
D10*
%TO.C,U4*%
X168735600Y-105643500D02*
G75*
G02*
X166735600Y-105643500I-1000000J0D01*
G01*
X166735600Y-105643500D02*
G75*
G02*
X168735600Y-105643500I1000000J0D01*
G01*
%TD*%
D11*
%TO.P,U5,1,VOUT*%
%TO.N,+3V3*%
X130120000Y-101120000D03*
%TO.P,U5,2,L2*%
%TO.N,Net-(U5-L2)*%
X129620000Y-101120000D03*
%TO.P,U5,3,PGND*%
%TO.N,GND*%
X129120000Y-101120000D03*
%TO.P,U5,4,L1*%
%TO.N,Net-(U5-L1)*%
X128620000Y-101120000D03*
%TO.P,U5,5,VIN*%
%TO.N,/Buck-Boost3.3V/Buck-Boost_INPUT*%
X128120000Y-101120000D03*
D12*
%TO.P,U5,6,EN*%
X128120000Y-104120000D03*
%TO.P,U5,7,PS/SYNC*%
X128620000Y-104120000D03*
%TO.P,U5,8,VINA*%
X129120000Y-104120000D03*
%TO.P,U5,9,GND*%
%TO.N,GND*%
X129620000Y-104120000D03*
%TO.P,U5,10,FB*%
%TO.N,+3V3*%
X130120000Y-104120000D03*
D13*
%TO.P,U5,11,PAD*%
%TO.N,GND*%
X129115000Y-102620000D03*
%TD*%
D14*
%TO.P,U6,1,GND*%
%TO.N,GND*%
X117280000Y-60620000D03*
%TO.P,U6,2,3V3*%
%TO.N,+3V3*%
X117280000Y-61890000D03*
%TO.P,U6,3,EN*%
%TO.N,ENA*%
X117280000Y-63160000D03*
%TO.P,U6,4,SENSOR_VP*%
%TO.N,unconnected-(U6-SENSOR_VP-Pad4)*%
X117280000Y-64430000D03*
%TO.P,U6,5,SENSOR_VN*%
%TO.N,unconnected-(U6-SENSOR_VN-Pad5)*%
X117280000Y-65700000D03*
%TO.P,U6,6,IO34*%
%TO.N,D34*%
X117280000Y-66970000D03*
%TO.P,U6,7,IO35*%
%TO.N,D35*%
X117280000Y-68240000D03*
%TO.P,U6,8,IO32*%
%TO.N,D32*%
X117280000Y-69510000D03*
%TO.P,U6,9,IO33*%
%TO.N,D33*%
X117280000Y-70780000D03*
%TO.P,U6,10,IO25*%
%TO.N,D25*%
X117280000Y-72050000D03*
%TO.P,U6,11,IO26*%
%TO.N,D26*%
X117280000Y-73320000D03*
%TO.P,U6,12,IO27*%
%TO.N,D27*%
X117280000Y-74590000D03*
%TO.P,U6,13,IO14*%
%TO.N,D14*%
X117280000Y-75860000D03*
%TO.P,U6,14,IO12*%
%TO.N,D12*%
X117280000Y-77130000D03*
%TO.P,U6,15,GND*%
%TO.N,GND*%
X117280000Y-78400000D03*
%TO.P,U6,16,IO13*%
%TO.N,D13*%
X117280000Y-79670000D03*
%TO.P,U6,17,NC*%
%TO.N,unconnected-(U6-NC-Pad17)*%
X117280000Y-80940000D03*
%TO.P,U6,18,NC*%
%TO.N,unconnected-(U6-NC-Pad18)*%
X117280000Y-82210000D03*
%TO.P,U6,19,NC*%
%TO.N,unconnected-(U6-NC-Pad19)*%
X117280000Y-83480000D03*
%TO.P,U6,20,NC*%
%TO.N,unconnected-(U6-NC-Pad20)*%
X135280000Y-83480000D03*
%TO.P,U6,21,NC*%
%TO.N,unconnected-(U6-NC-Pad21)*%
X135280000Y-82210000D03*
%TO.P,U6,22,NC*%
%TO.N,unconnected-(U6-NC-Pad22)*%
X135280000Y-80940000D03*
%TO.P,U6,23,IO15*%
%TO.N,D15*%
X135280000Y-79670000D03*
%TO.P,U6,24,IO2*%
%TO.N,D2*%
X135280000Y-78400000D03*
%TO.P,U6,25,IO0*%
%TO.N,IO0*%
X135280000Y-77130000D03*
%TO.P,U6,26,IO4*%
%TO.N,D4*%
X135280000Y-75860000D03*
%TO.P,U6,27,NC*%
%TO.N,unconnected-(U6-NC-Pad27)*%
X135280000Y-74590000D03*
%TO.P,U6,28,NC*%
%TO.N,unconnected-(U6-NC-Pad28)*%
X135280000Y-73320000D03*
%TO.P,U6,29,IO5*%
%TO.N,D5*%
X135280000Y-72050000D03*
%TO.P,U6,30,IO18*%
%TO.N,D18*%
X135280000Y-70780000D03*
%TO.P,U6,31,IO19*%
%TO.N,D19*%
X135280000Y-69510000D03*
%TO.P,U6,32,NC*%
%TO.N,unconnected-(U6-NC-Pad32)*%
X135280000Y-68240000D03*
%TO.P,U6,33,IO21*%
%TO.N,D21*%
X135280000Y-66970000D03*
%TO.P,U6,34,RXD0*%
%TO.N,RXD0*%
X135280000Y-65700000D03*
%TO.P,U6,35,TXD0*%
%TO.N,TXD0*%
X135280000Y-64430000D03*
%TO.P,U6,36,IO22*%
%TO.N,D22*%
X135280000Y-63160000D03*
%TO.P,U6,37,IO23*%
%TO.N,D23*%
X135280000Y-61890000D03*
%TO.P,U6,38,GND*%
%TO.N,GND*%
X135280000Y-60620000D03*
D15*
%TO.P,U6,39,GND*%
X122450000Y-69040000D03*
X122470000Y-65344400D03*
X122470000Y-70870000D03*
X122470600Y-67197600D03*
D16*
X123445000Y-66285000D03*
X123445000Y-68120000D03*
X123445000Y-69955000D03*
D15*
X124360000Y-67200000D03*
X124360000Y-69040000D03*
X124360000Y-70900000D03*
X124374400Y-65345400D03*
D16*
X125280000Y-66285000D03*
X125280000Y-68120000D03*
X125280000Y-69955000D03*
D15*
X126190000Y-65360000D03*
X126200000Y-67210000D03*
X126200000Y-69040000D03*
X126200000Y-70910000D03*
D16*
X127115000Y-66285000D03*
X127115000Y-68120000D03*
X127115000Y-69955000D03*
D15*
X128090000Y-65344400D03*
X128100000Y-67197600D03*
X128108200Y-69026400D03*
X128110000Y-70900000D03*
%TD*%
D17*
%TO.P,H6,1,1*%
%TO.N,GND*%
X114300000Y-142468600D03*
D18*
%TO.P,H6,2,2*%
%TO.N,EXT_5V*%
X114300000Y-145008600D03*
%TO.P,H6,3,3*%
%TO.N,D32*%
X114300000Y-147548600D03*
%TO.P,H6,4,4*%
%TO.N,D35*%
X114300000Y-150088600D03*
%TO.P,H6,5,5*%
%TO.N,GND*%
X114300000Y-152628600D03*
%TO.P,H6,6,6*%
X114300000Y-155168600D03*
%TD*%
D19*
%TO.P,H4,2,2*%
%TO.N,D14*%
X114300000Y-124637800D03*
D20*
%TO.P,H4,1,1*%
%TO.N,+3V3*%
X114300000Y-122097800D03*
D19*
%TO.P,H4,3,3*%
X114300000Y-127177800D03*
%TO.P,H4,4,4*%
%TO.N,GND*%
X114300000Y-129717800D03*
%TD*%
D21*
%TO.P,H2,3,3*%
%TO.N,D13*%
X121920000Y-122123200D03*
%TO.P,H2,2,2*%
%TO.N,+3V3*%
X121920000Y-124663200D03*
D22*
%TO.P,H2,1,1*%
%TO.N,GND*%
X121920000Y-127203200D03*
%TD*%
D23*
%TO.P,TP1,1,1*%
%TO.N,GND*%
X104919600Y-149860000D03*
%TD*%
D24*
%TO.P,R25,1*%
%TO.N,Net-(Q7-D)*%
X126708900Y-111125000D03*
%TO.P,R25,2*%
%TO.N,+3V3*%
X124708900Y-111125000D03*
%TD*%
D25*
%TO.P,Q1,1,E*%
%TO.N,RTS*%
X103281200Y-109497050D03*
%TO.P,Q1,2,B*%
%TO.N,Net-(Q1-B)*%
X101381200Y-109497050D03*
%TO.P,Q1,3,C*%
%TO.N,ENA*%
X102331200Y-106998050D03*
%TD*%
D26*
%TO.P,C10,1*%
%TO.N,GND*%
X125526800Y-136202600D03*
%TO.P,C10,2*%
%TO.N,/micro_SD-CARD_enable/3V3_Input_to_micro_SD-CARD*%
X125526800Y-138277600D03*
%TD*%
D27*
%TO.P,R20,1,1*%
%TO.N,D2*%
X120954800Y-139254400D03*
%TO.P,R20,2,2*%
%TO.N,/micro_SD-CARD_enable/3V3_Input_to_micro_SD-CARD*%
X120954800Y-138164400D03*
%TD*%
%TO.P,R19,1,1*%
%TO.N,D14*%
X123190000Y-138351600D03*
%TO.P,R19,2,2*%
%TO.N,/micro_SD-CARD_enable/3V3_Input_to_micro_SD-CARD*%
X123190000Y-137261600D03*
%TD*%
D26*
%TO.P,C9,1*%
%TO.N,+3V3*%
X93768400Y-130980600D03*
%TO.P,C9,2*%
%TO.N,GND*%
X93768400Y-133055600D03*
%TD*%
D28*
%TO.P,R14,1*%
%TO.N,D34*%
X105156000Y-72424000D03*
%TO.P,R14,2*%
%TO.N,Net-(Q4-D)*%
X105156000Y-74424000D03*
%TD*%
D20*
%TO.P,H3,1,1*%
%TO.N,+3V3*%
X137160000Y-129692400D03*
D19*
%TO.P,H3,2,2*%
%TO.N,GND*%
X137160000Y-127152400D03*
%TO.P,H3,3,3*%
%TO.N,IO0*%
X137160000Y-124612400D03*
%TO.P,H3,4,4*%
%TO.N,GND*%
X137160000Y-122072400D03*
%TD*%
D29*
%TO.P,R10,1,1*%
%TO.N,Net-(LED1-R)*%
X110150000Y-81838000D03*
%TO.P,R10,2,2*%
%TO.N,D33*%
X110150000Y-80972000D03*
%TD*%
D20*
%TO.P,H8,1,1*%
%TO.N,+3V3*%
X137160000Y-134772400D03*
D19*
%TO.P,H8,2,2*%
%TO.N,GND*%
X137160000Y-137312400D03*
%TD*%
D27*
%TO.P,R22,1,1*%
%TO.N,Net-(CARD1-CD{slash}DAT3)*%
X130200400Y-136472000D03*
%TO.P,R22,2,2*%
%TO.N,/micro_SD-CARD_enable/3V3_Input_to_micro_SD-CARD*%
X130200400Y-135382000D03*
%TD*%
D30*
%TO.P,C11,1,1*%
%TO.N,GND*%
X125360000Y-102420000D03*
%TO.P,C11,2,2*%
%TO.N,/Buck-Boost3.3V/Buck-Boost_INPUT*%
X125360000Y-101020000D03*
%TD*%
D25*
%TO.P,Q3,1,G*%
%TO.N,Net-(Q3-G)*%
X97978000Y-77714600D03*
%TO.P,Q3,2,S*%
%TO.N,GND*%
X96078000Y-77714600D03*
%TO.P,Q3,3,D*%
%TO.N,Net-(Q3-D)*%
X97028000Y-79714600D03*
%TD*%
D30*
%TO.P,C13,1,1*%
%TO.N,GND*%
X134290000Y-102450000D03*
%TO.P,C13,2,2*%
%TO.N,+3V3*%
X134290000Y-101050000D03*
%TD*%
D31*
%TO.P,U7,A1/B12,GND*%
%TO.N,GND*%
X93360000Y-117340000D03*
%TO.P,U7,A4/B9,VBUS*%
%TO.N,VBUS*%
X93360000Y-118140000D03*
D32*
%TO.P,U7,A5,CC1*%
%TO.N,unconnected-(U7-CC1-PadA5)*%
X93360000Y-119290000D03*
%TO.P,U7,A6,DP1*%
%TO.N,DP*%
X93360000Y-120290000D03*
%TO.P,U7,A7,DN1*%
%TO.N,DN*%
X93360000Y-120790000D03*
%TO.P,U7,A8,SBU1*%
%TO.N,unconnected-(U7-SBU1-PadA8)*%
X93360000Y-121790000D03*
D31*
%TO.P,U7,B1/A12,GND*%
%TO.N,GND*%
X93360000Y-123740000D03*
%TO.P,U7,B4/A9,VBUS*%
%TO.N,VBUS*%
X93360000Y-122940000D03*
D32*
%TO.P,U7,B5,CC2*%
%TO.N,unconnected-(U7-CC2-PadB5)*%
X93360000Y-122290000D03*
%TO.P,U7,B6,DP2*%
%TO.N,DP*%
X93360000Y-121290000D03*
%TO.P,U7,B7,DN2*%
%TO.N,DN*%
X93360000Y-119790000D03*
%TO.P,U7,B8,SBU2*%
%TO.N,unconnected-(U7-SBU2-PadB8)*%
X93360000Y-118790000D03*
D33*
%TO.P,U7,S1,GND*%
%TO.N,GND*%
X92785000Y-115430000D03*
%TO.P,U7,S2,GND*%
X92785000Y-125650000D03*
%TO.P,U7,S3,GND*%
X88855000Y-115430000D03*
%TO.P,U7,S4,GND*%
X88855000Y-125650000D03*
%TD*%
D34*
%TO.P,CARD1,1,DAT2*%
%TO.N,Net-(CARD1-DAT2)*%
X127570000Y-141740000D03*
%TO.P,CARD1,2,CD/DAT3*%
%TO.N,Net-(CARD1-CD{slash}DAT3)*%
X126470000Y-141740000D03*
%TO.P,CARD1,3,CMD*%
%TO.N,D15*%
X125370000Y-141740000D03*
%TO.P,CARD1,4,VDD*%
%TO.N,/micro_SD-CARD_enable/3V3_Input_to_micro_SD-CARD*%
X124270000Y-141740000D03*
%TO.P,CARD1,5,CLX*%
%TO.N,D14*%
X123170000Y-141740000D03*
%TO.P,CARD1,6,VSS*%
%TO.N,GND*%
X122070000Y-141740000D03*
%TO.P,CARD1,7,DAT0*%
%TO.N,D2*%
X120970000Y-141740000D03*
%TO.P,CARD1,8,DAT1*%
%TO.N,Net-(CARD1-DAT1)*%
X119870000Y-141740000D03*
D35*
%TO.P,CARD1,10,10*%
%TO.N,GND*%
X117570000Y-142740000D03*
D36*
%TO.P,CARD1,11,11*%
X117570000Y-152340000D03*
%TO.P,CARD1,12,12*%
X133070000Y-152340000D03*
D37*
%TO.P,CARD1,13,13*%
X132170000Y-142740000D03*
D34*
%TO.P,CARD1,CD,CD*%
%TO.N,unconnected-(CARD1-PadCD)*%
X118770000Y-141740000D03*
%TD*%
D38*
%TO.P,Q8,1,G*%
%TO.N,Net-(Q7-D)*%
X126699500Y-113690400D03*
%TO.P,Q8,2,S*%
%TO.N,+3V3*%
X124799500Y-113690400D03*
%TO.P,Q8,3,D*%
%TO.N,/micro_SD-CARD_enable/3V3_Input_to_micro_SD-CARD*%
X125749500Y-116160400D03*
%TD*%
D28*
%TO.P,R4,1*%
%TO.N,Net-(U3-VBUS)*%
X99051600Y-131002100D03*
%TO.P,R4,2*%
%TO.N,GND*%
X99051600Y-133002100D03*
%TD*%
D39*
%TO.P,D1,1,C*%
%TO.N,EXT_5V*%
X88595200Y-134184600D03*
%TO.P,D1,2,A*%
%TO.N,VBUS*%
X88595200Y-130784600D03*
%TD*%
D40*
%TO.P,R5,1*%
%TO.N,Net-(R5-Pad1)*%
X104385600Y-133002100D03*
%TO.P,R5,2*%
%TO.N,+3V3*%
X104385600Y-131002100D03*
%TD*%
D27*
%TO.P,R23,1,1*%
%TO.N,Net-(CARD1-DAT1)*%
X118237000Y-138873400D03*
%TO.P,R23,2,2*%
%TO.N,/micro_SD-CARD_enable/3V3_Input_to_micro_SD-CARD*%
X118237000Y-137783400D03*
%TD*%
D41*
%TO.P,C1,1*%
%TO.N,IO0*%
X141352500Y-69059800D03*
%TO.P,C1,2*%
%TO.N,GND*%
X143427500Y-69059800D03*
%TD*%
D30*
%TO.P,R17,1,1*%
%TO.N,GND*%
X136490000Y-102440000D03*
%TO.P,R17,2,2*%
%TO.N,+3V3*%
X136490000Y-101040000D03*
%TD*%
D40*
%TO.P,R9,1*%
%TO.N,RTS*%
X108648500Y-115309350D03*
%TO.P,R9,2*%
%TO.N,Net-(Q2-B)*%
X108648500Y-113309350D03*
%TD*%
D26*
%TO.P,C15,1*%
%TO.N,D34*%
X113411200Y-66966200D03*
%TO.P,C15,2*%
%TO.N,GND*%
X113411200Y-69041200D03*
%TD*%
D42*
%TO.P,U3,1,~{DCD}*%
%TO.N,unconnected-(U3-~{DCD}-Pad1)*%
X102172600Y-119068050D03*
%TO.P,U3,2,~{RI}/CLK*%
%TO.N,unconnected-(U3-~{RI}{slash}CLK-Pad2)*%
X102172600Y-119568050D03*
%TO.P,U3,3,GND*%
%TO.N,GND*%
X102172600Y-120068050D03*
%TO.P,U3,4,D+*%
%TO.N,D+*%
X102172600Y-120568050D03*
%TO.P,U3,5,D-*%
%TO.N,D-*%
X102172600Y-121068050D03*
%TO.P,U3,6,VDD*%
%TO.N,+3V3*%
X102172600Y-121568050D03*
%TO.P,U3,7,VREGIN*%
X102172600Y-122068050D03*
D43*
%TO.P,U3,8,VBUS*%
%TO.N,Net-(U3-VBUS)*%
X103122600Y-123018050D03*
%TO.P,U3,9,~{RST}*%
%TO.N,Net-(U3-~{RST})*%
X103622600Y-123018050D03*
%TO.P,U3,10,NC*%
%TO.N,unconnected-(U3-NC-Pad10)*%
X104122600Y-123018050D03*
%TO.P,U3,11,~{SUSPEND}*%
%TO.N,Net-(U3-~{SUSPEND})*%
X104622600Y-123018050D03*
%TO.P,U3,12,SUSPEND*%
%TO.N,unconnected-(U3-SUSPEND-Pad12)*%
X105122600Y-123018050D03*
%TO.P,U3,13,CHREN*%
%TO.N,unconnected-(U3-CHREN-Pad13)*%
X105622600Y-123018050D03*
%TO.P,U3,14,CHR1*%
%TO.N,unconnected-(U3-CHR1-Pad14)*%
X106122600Y-123018050D03*
D42*
%TO.P,U3,15,CHR0*%
%TO.N,unconnected-(U3-CHR0-Pad15)*%
X107072600Y-122068050D03*
%TO.P,U3,16,~{WAKEUP}/GPIO.3*%
%TO.N,unconnected-(U3-~{WAKEUP}{slash}GPIO.3-Pad16)*%
X107072600Y-121568050D03*
%TO.P,U3,17,RS485/GPIO.2*%
%TO.N,unconnected-(U3-RS485{slash}GPIO.2-Pad17)*%
X107072600Y-121068050D03*
%TO.P,U3,18,~{RXT}/GPIO.1*%
%TO.N,unconnected-(U3-~{RXT}{slash}GPIO.1-Pad18)*%
X107072600Y-120568050D03*
%TO.P,U3,19,~{TXT}/GPIO.0*%
%TO.N,unconnected-(U3-~{TXT}{slash}GPIO.0-Pad19)*%
X107072600Y-120068050D03*
%TO.P,U3,20,GPIO.6*%
%TO.N,unconnected-(U3-GPIO.6-Pad20)*%
X107072600Y-119568050D03*
%TO.P,U3,21,GPIO.5*%
%TO.N,unconnected-(U3-GPIO.5-Pad21)*%
X107072600Y-119068050D03*
D43*
%TO.P,U3,22,GPIO.4*%
%TO.N,unconnected-(U3-GPIO.4-Pad22)*%
X106122600Y-118118050D03*
%TO.P,U3,23,~{CTS}*%
%TO.N,unconnected-(U3-~{CTS}-Pad23)*%
X105622600Y-118118050D03*
%TO.P,U3,24,~{RTS}*%
%TO.N,RTS*%
X105122600Y-118118050D03*
%TO.P,U3,25,RXD*%
%TO.N,TXD0*%
X104622600Y-118118050D03*
%TO.P,U3,26,TXD*%
%TO.N,RXD0*%
X104122600Y-118118050D03*
%TO.P,U3,27,~{DSR}*%
%TO.N,unconnected-(U3-~{DSR}-Pad27)*%
X103622600Y-118118050D03*
%TO.P,U3,28,~{DTR}*%
%TO.N,DTR*%
X103122600Y-118118050D03*
D44*
%TO.P,U3,29,GND*%
%TO.N,GND*%
X104622600Y-120568050D03*
%TD*%
D45*
%TO.P,C3,1,1*%
%TO.N,GND*%
X90906600Y-83748800D03*
%TO.P,C3,2,2*%
%TO.N,ENA*%
X88906600Y-83748800D03*
%TD*%
D46*
%TO.P,Q4,1,G*%
%TO.N,Net-(Q3-D)*%
X101416000Y-81549200D03*
%TO.P,Q4,2,S*%
%TO.N,/Battery_Voltage_Monitor_with_MOSFETS/V_Batt_Monitor_INPUT*%
X101416000Y-83449200D03*
%TO.P,Q4,3,D*%
%TO.N,Net-(Q4-D)*%
X103886000Y-82499200D03*
%TD*%
D20*
%TO.P,H7,1,1*%
%TO.N,EXT_5V*%
X114300000Y-137312400D03*
D19*
%TO.P,H7,2,2*%
%TO.N,GND*%
X114300000Y-134772400D03*
%TD*%
D47*
%TO.P,Q2,1,E*%
%TO.N,DTR*%
X103924100Y-113257750D03*
%TO.P,Q2,2,B*%
%TO.N,Net-(Q2-B)*%
X103924100Y-115157750D03*
%TO.P,Q2,3,C*%
%TO.N,IO0*%
X101425100Y-114207750D03*
%TD*%
D48*
%TO.P,R24,1*%
%TO.N,Net-(Q7-G)*%
X135376900Y-114630200D03*
%TO.P,R24,2*%
%TO.N,D4*%
X137376900Y-114630200D03*
%TD*%
D26*
%TO.P,C5,1*%
%TO.N,VBUS*%
X91126800Y-130976700D03*
%TO.P,C5,2*%
%TO.N,GND*%
X91126800Y-133051700D03*
%TD*%
D49*
%TO.P,U1,1,I/O1*%
%TO.N,DN*%
X96052600Y-121296050D03*
%TO.P,U1,2,GND*%
%TO.N,GND*%
X97002600Y-121296050D03*
%TO.P,U1,3,I/O2*%
%TO.N,DP*%
X97952600Y-121296050D03*
%TO.P,U1,4,I/O2*%
%TO.N,D+*%
X97952600Y-119021050D03*
%TO.P,U1,5,VBUS*%
%TO.N,VBUS*%
X97002600Y-119021050D03*
%TO.P,U1,6,I/O1*%
%TO.N,D-*%
X96052600Y-119021050D03*
%TD*%
D23*
%TO.P,TP2,1,1*%
%TO.N,/Buck-Boost3.3V/Buck-Boost_INPUT*%
X119227600Y-89357200D03*
%TD*%
D39*
%TO.P,D3,1,C*%
%TO.N,/Buck-Boost3.3V/Buck-Boost_INPUT*%
X108483400Y-91748400D03*
%TO.P,D3,2,A*%
%TO.N,EXT_5V*%
X108483400Y-95148400D03*
%TD*%
D47*
%TO.P,Q7,1,G*%
%TO.N,Net-(Q7-G)*%
X133089400Y-114615000D03*
%TO.P,Q7,2,S*%
%TO.N,GND*%
X133089400Y-112715000D03*
%TO.P,Q7,3,D*%
%TO.N,Net-(Q7-D)*%
X131089400Y-113665000D03*
%TD*%
D41*
%TO.P,C2,1*%
%TO.N,ENA*%
X88853100Y-80573800D03*
%TO.P,C2,2*%
%TO.N,GND*%
X90928100Y-80573800D03*
%TD*%
D50*
%TO.P,C17,1*%
%TO.N,GND*%
X103124000Y-99843500D03*
%TO.P,C17,2*%
%TO.N,VBAT*%
X103124000Y-97768500D03*
%TD*%
D51*
%TO.P,U2,1,1*%
%TO.N,/Battery_Voltage_Monitor_with_MOSFETS/V_Batt_Monitor_INPUT*%
X92330000Y-107790000D03*
%TO.P,U2,2,2*%
%TO.N,GND*%
X92330000Y-109790000D03*
%TD*%
D28*
%TO.P,R13,1*%
%TO.N,Net-(Q3-D)*%
X94525600Y-82974800D03*
%TO.P,R13,2*%
%TO.N,/Battery_Voltage_Monitor_with_MOSFETS/V_Batt_Monitor_INPUT*%
X94525600Y-84974800D03*
%TD*%
D29*
%TO.P,R11,1,1*%
%TO.N,D27*%
X113400000Y-80972000D03*
%TO.P,R11,2,2*%
%TO.N,Net-(LED1-B)*%
X113400000Y-81838000D03*
%TD*%
D30*
%TO.P,C14,1,1*%
%TO.N,GND*%
X132070000Y-102440000D03*
%TO.P,C14,2,2*%
%TO.N,+3V3*%
X132070000Y-101040000D03*
%TD*%
D38*
%TO.P,Q9,1,G*%
%TO.N,Net-(Q10-D)*%
X166558000Y-119923000D03*
%TO.P,Q9,2,S*%
%TO.N,+3V3*%
X164658000Y-119923000D03*
%TO.P,Q9,3,D*%
%TO.N,/I2C_Connector_Enable/3V3_Input_to_I2C_Connector*%
X165608000Y-122393000D03*
%TD*%
D52*
%TO.P,L_B-B1,1,1*%
%TO.N,Net-(U5-L1)*%
X127355600Y-96236485D03*
%TO.P,L_B-B1,2,2*%
%TO.N,Net-(U5-L2)*%
X130911600Y-96236485D03*
%TD*%
D53*
%TO.P,R28,1,1*%
%TO.N,GND*%
X168300400Y-128574800D03*
%TO.P,R28,2,2*%
%TO.N,/I2C_Connector_Enable/3V3_Input_to_I2C_Connector*%
X166793400Y-128574800D03*
%TD*%
D22*
%TO.P,H1,1,1*%
%TO.N,D12*%
X129540000Y-127203200D03*
D21*
%TO.P,H1,2,2*%
%TO.N,D15*%
X129540000Y-124663200D03*
%TO.P,H1,3,3*%
%TO.N,D2*%
X129540000Y-122123200D03*
%TD*%
D17*
%TO.P,SW3,1,1*%
%TO.N,VBAT*%
X94470000Y-97270000D03*
D54*
%TO.P,SW3,2,2*%
%TO.N,Net-(D2-C)*%
X94470000Y-94270000D03*
%TO.P,SW3,3,3*%
%TO.N,unconnected-(SW3-Pad3)*%
X94470000Y-91270000D03*
D55*
%TO.P,SW3,4,4*%
%TO.N,GND*%
X94470000Y-88470000D03*
%TO.P,SW3,5,5*%
X94470000Y-100070000D03*
%TD*%
D40*
%TO.P,R8,1*%
%TO.N,DTR*%
X106159300Y-115293350D03*
%TO.P,R8,2*%
%TO.N,Net-(Q1-B)*%
X106159300Y-113293350D03*
%TD*%
D41*
%TO.P,C7,1*%
%TO.N,+3V3*%
X135898000Y-92231400D03*
%TO.P,C7,2*%
%TO.N,GND*%
X137973000Y-92231400D03*
%TD*%
%TO.P,C8,1*%
%TO.N,+3V3*%
X135898000Y-95127000D03*
%TO.P,C8,2*%
%TO.N,GND*%
X137973000Y-95127000D03*
%TD*%
D40*
%TO.P,R26,1*%
%TO.N,Net-(Q10-G)*%
X171384000Y-111760000D03*
%TO.P,R26,2*%
%TO.N,D5*%
X171384000Y-109760000D03*
%TD*%
%TO.P,R3,1*%
%TO.N,VBUS*%
X96410000Y-132983300D03*
%TO.P,R3,2*%
%TO.N,Net-(U3-VBUS)*%
X96410000Y-130983300D03*
%TD*%
D56*
%TO.P,J2,1,SCL*%
%TO.N,D22*%
X153575001Y-131826000D03*
%TO.P,J2,2,SDA*%
%TO.N,D21*%
X154575002Y-131826000D03*
%TO.P,J2,3,3V3*%
%TO.N,+3V3*%
X155575000Y-131826000D03*
%TO.P,J2,4,GND*%
%TO.N,GND*%
X156575001Y-131826000D03*
D57*
%TO.P,J2,5,5*%
X157875000Y-135701001D03*
%TO.P,J2,6,6*%
X152275002Y-135701001D03*
%TD*%
D28*
%TO.P,R16,1*%
%TO.N,Net-(Q3-G)*%
X102646000Y-68314000D03*
%TO.P,R16,2*%
%TO.N,D25*%
X102646000Y-70314000D03*
%TD*%
D25*
%TO.P,Q10,1,G*%
%TO.N,Net-(Q10-G)*%
X171450000Y-114249200D03*
%TO.P,Q10,2,S*%
%TO.N,GND*%
X169550000Y-114249200D03*
%TO.P,Q10,3,D*%
%TO.N,Net-(Q10-D)*%
X170500000Y-116249200D03*
%TD*%
D40*
%TO.P,R2,1*%
%TO.N,ENA*%
X105308600Y-63996000D03*
%TO.P,R2,2*%
%TO.N,+3V3*%
X105308600Y-61996000D03*
%TD*%
D23*
%TO.P,TP3,1,1*%
%TO.N,+3V3*%
X104970400Y-138926200D03*
%TD*%
%TO.P,TP5,1,1*%
%TO.N,EXT_5V*%
X104970400Y-144780000D03*
%TD*%
D56*
%TO.P,J1,1,SCL*%
%TO.N,D22*%
X164767000Y-131826000D03*
%TO.P,J1,2,SDA*%
%TO.N,D21*%
X165767001Y-131826000D03*
%TO.P,J1,3,3V3*%
%TO.N,/I2C_Connector_Enable/3V3_Input_to_I2C_Connector*%
X166766999Y-131826000D03*
%TO.P,J1,4,GND*%
%TO.N,GND*%
X167767000Y-131826000D03*
D57*
%TO.P,J1,5,5*%
X169066999Y-135701001D03*
%TO.P,J1,6,6*%
X163467001Y-135701001D03*
%TD*%
D27*
%TO.P,C6,1,1*%
%TO.N,GND*%
X96130600Y-75264800D03*
%TO.P,C6,2,2*%
%TO.N,ENA*%
X96130600Y-74174800D03*
%TD*%
D23*
%TO.P,TP4,1,1*%
%TO.N,D34*%
X108480000Y-73530000D03*
%TD*%
D53*
%TO.P,R27,1,1*%
%TO.N,GND*%
X124197600Y-118541800D03*
%TO.P,R27,2,2*%
%TO.N,/micro_SD-CARD_enable/3V3_Input_to_micro_SD-CARD*%
X125704600Y-118541800D03*
%TD*%
D28*
%TO.P,R6,1*%
%TO.N,Net-(U3-~{RST})*%
X101693200Y-131002100D03*
%TO.P,R6,2*%
%TO.N,Net-(R5-Pad1)*%
X101693200Y-133002100D03*
%TD*%
D40*
%TO.P,R7,1*%
%TO.N,GND*%
X107027200Y-133002100D03*
%TO.P,R7,2*%
%TO.N,Net-(U3-~{SUSPEND})*%
X107027200Y-131002100D03*
%TD*%
D58*
%TO.P,SW1,1,1*%
%TO.N,IO0*%
X141440000Y-73950000D03*
%TO.P,SW1,2,2*%
%TO.N,GND*%
X143040000Y-73950000D03*
%TO.P,SW1,3,3*%
%TO.N,IO0*%
X141440000Y-78050000D03*
%TO.P,SW1,4,4*%
%TO.N,GND*%
X143040000Y-78050000D03*
%TD*%
D45*
%TO.P,C4,1,1*%
%TO.N,GND*%
X137898000Y-89183400D03*
%TO.P,C4,2,2*%
%TO.N,+3V3*%
X135898000Y-89183400D03*
%TD*%
D40*
%TO.P,R15,1*%
%TO.N,GND*%
X110286000Y-68904000D03*
%TO.P,R15,2*%
%TO.N,D34*%
X110286000Y-66904000D03*
%TD*%
D59*
%TO.P,LED1,1,B*%
%TO.N,Net-(LED1-B)*%
X111810000Y-84850000D03*
%TO.P,LED1,2,+*%
%TO.N,+3V3*%
X111810000Y-86090000D03*
%TO.P,LED1,3,G*%
%TO.N,Net-(LED1-G)*%
X110860000Y-84850000D03*
%TO.P,LED1,4,R*%
%TO.N,Net-(LED1-R)*%
X110860000Y-86090000D03*
%TD*%
D27*
%TO.P,R21,1,1*%
%TO.N,Net-(CARD1-DAT2)*%
X132283200Y-136319600D03*
%TO.P,R21,2,2*%
%TO.N,/micro_SD-CARD_enable/3V3_Input_to_micro_SD-CARD*%
X132283200Y-135229600D03*
%TD*%
D17*
%TO.P,H5,1,1*%
%TO.N,GND*%
X137160000Y-142468600D03*
D18*
%TO.P,H5,2,2*%
%TO.N,D18*%
X137160000Y-145008600D03*
%TO.P,H5,3,3*%
%TO.N,D19*%
X137160000Y-147548600D03*
%TO.P,H5,4,4*%
%TO.N,+3V3*%
X137160000Y-150088600D03*
%TO.P,H5,5,5*%
%TO.N,GND*%
X137160000Y-152628600D03*
%TO.P,H5,6,6*%
%TO.N,D23*%
X137160000Y-155168600D03*
%TD*%
D27*
%TO.P,R18,1,1*%
%TO.N,D15*%
X127660400Y-138453200D03*
%TO.P,R18,2,2*%
%TO.N,/micro_SD-CARD_enable/3V3_Input_to_micro_SD-CARD*%
X127660400Y-137363200D03*
%TD*%
D47*
%TO.P,Q5,1,G*%
%TO.N,EXT_5V*%
X105994200Y-95097600D03*
%TO.P,Q5,2,S*%
%TO.N,/Buck-Boost3.3V/Buck-Boost_INPUT*%
X105994200Y-93197600D03*
%TO.P,Q5,3,D*%
%TO.N,VBAT*%
X103994200Y-94147600D03*
%TD*%
D60*
%TO.P,C16,1*%
%TO.N,GND*%
X168884600Y-125399800D03*
%TO.P,C16,2*%
%TO.N,/I2C_Connector_Enable/3V3_Input_to_I2C_Connector*%
X166809600Y-125399800D03*
%TD*%
D24*
%TO.P,R1,1*%
%TO.N,GND*%
X94335800Y-138644700D03*
%TO.P,R1,2*%
%TO.N,EXT_5V*%
X92335800Y-138644700D03*
%TD*%
D39*
%TO.P,D2,1,C*%
%TO.N,Net-(D2-C)*%
X89814400Y-92838800D03*
%TO.P,D2,2,A*%
%TO.N,/Battery_Voltage_Monitor_with_MOSFETS/V_Batt_Monitor_INPUT*%
X89814400Y-96238800D03*
%TD*%
D29*
%TO.P,R12,1,1*%
%TO.N,D26*%
X111760000Y-80972000D03*
%TO.P,R12,2,2*%
%TO.N,Net-(LED1-G)*%
X111760000Y-81838000D03*
%TD*%
D24*
%TO.P,R29,1*%
%TO.N,Net-(Q10-D)*%
X166608000Y-117856000D03*
%TO.P,R29,2*%
%TO.N,+3V3*%
X164608000Y-117856000D03*
%TD*%
D26*
%TO.P,C12,1*%
%TO.N,/Buck-Boost3.3V/Buck-Boost_INPUT*%
X122946000Y-100686500D03*
%TO.P,C12,2*%
%TO.N,GND*%
X122946000Y-102761500D03*
%TD*%
D58*
%TO.P,SW2,1,1*%
%TO.N,ENA*%
X89200000Y-74010000D03*
%TO.P,SW2,2,2*%
%TO.N,GND*%
X90800000Y-74010000D03*
%TO.P,SW2,3,3*%
%TO.N,ENA*%
X89200000Y-78110000D03*
%TO.P,SW2,4,4*%
%TO.N,GND*%
X90800000Y-78110000D03*
%TD*%
D61*
%TO.P,U4,*%
%TO.N,*%
X167735600Y-105643500D03*
X152501600Y-105643500D03*
D21*
%TO.P,U4,1,VCC*%
%TO.N,+3V3*%
X167741600Y-87126000D03*
D22*
%TO.P,U4,2,GND*%
%TO.N,GND*%
X165201600Y-87125000D03*
D21*
%TO.P,U4,3,SCL*%
%TO.N,D22*%
X162661600Y-87124000D03*
%TO.P,U4,4,SDA*%
%TO.N,D21*%
X160121600Y-87123000D03*
%TO.P,U4,5,INT*%
%TO.N,unconnected-(U4-INT-Pad5)*%
X157581600Y-87122000D03*
%TO.P,U4,6,RST*%
%TO.N,unconnected-(U4-RST-Pad6)*%
X155041600Y-87121000D03*
%TO.P,U4,7,32K*%
%TO.N,unconnected-(U4-32K-Pad7)*%
X152501600Y-87120000D03*
%TD*%
D62*
%TO.N,GND*%
X104927400Y-147751800D03*
X121300000Y-103930000D03*
%TO.N,+3V3*%
X104394000Y-137134600D03*
X104385600Y-129260600D03*
%TO.N,GND*%
X99051600Y-134467600D03*
X88823800Y-120599200D03*
X94411800Y-77649200D03*
X164185600Y-134137400D03*
X88874600Y-123698000D03*
X140817600Y-95127000D03*
X131724400Y-152518700D03*
X168148000Y-112649000D03*
X119024400Y-152467900D03*
X100685600Y-119546750D03*
X119913400Y-144212900D03*
X93776800Y-134721600D03*
X136855200Y-110693200D03*
X88849200Y-117348000D03*
X125360000Y-104240000D03*
X134213600Y-104902000D03*
X132181600Y-145101900D03*
X168198800Y-134137400D03*
X129622000Y-106405000D03*
X166293800Y-134366000D03*
X97010000Y-123510000D03*
X103124000Y-101854000D03*
X153111200Y-134162800D03*
X156895800Y-134188200D03*
X136804400Y-104444800D03*
X125526800Y-133773500D03*
X155092400Y-134315200D03*
X121666000Y-115062000D03*
X141122400Y-80467200D03*
%TO.N,IO0*%
X137007600Y-77114400D03*
X132613400Y-76276200D03*
X101422200Y-111683800D03*
%TO.N,ENA*%
X88906600Y-86537800D03*
X87782400Y-102235000D03*
%TO.N,+3V3*%
X121716800Y-111099600D03*
X131064000Y-105109200D03*
X131354200Y-87238200D03*
X120675625Y-61878400D03*
X114274600Y-86614000D03*
X136804400Y-99263200D03*
X156464000Y-128346200D03*
X167741600Y-84582000D03*
X164675800Y-112504200D03*
X97739200Y-129794000D03*
%TO.N,D15*%
X133620000Y-79670000D03*
%TO.N,D2*%
X119874600Y-134162800D03*
X132530000Y-78418400D03*
%TO.N,D14*%
X116510000Y-116433600D03*
X115350000Y-76809600D03*
%TO.N,/Battery_Voltage_Monitor_with_MOSFETS/V_Batt_Monitor_INPUT*%
X89916000Y-99872800D03*
%TO.N,EXT_5V*%
X104970400Y-142951200D03*
X105882925Y-97358200D03*
X88650300Y-136194800D03*
X97383600Y-141351000D03*
%TO.N,D12*%
X127355600Y-122072400D03*
X124961600Y-77118400D03*
%TO.N,D13*%
X128390000Y-79640000D03*
%TO.N,D4*%
X138108400Y-75848400D03*
X139827000Y-114655600D03*
%TO.N,D26*%
X113944400Y-73300000D03*
X111760000Y-79502000D03*
%TO.N,D27*%
X113400000Y-79476600D03*
X115290600Y-74540000D03*
%TO.N,D22*%
X137007600Y-63140000D03*
X152781000Y-123393200D03*
X163830000Y-128219200D03*
X146431000Y-68961000D03*
X161594800Y-111150400D03*
%TO.N,D23*%
X136982200Y-61878400D03*
%TO.N,D21*%
X154609800Y-127076200D03*
X160121600Y-108762800D03*
X137033000Y-66960000D03*
X146329400Y-72034400D03*
X165125400Y-126949200D03*
%TO.N,D5*%
X150266400Y-92456000D03*
X142621000Y-92456000D03*
X171399200Y-104643000D03*
X138239500Y-73291700D03*
%TO.N,D19*%
X138988800Y-69510000D03*
%TO.N,D18*%
X137261600Y-70768400D03*
%TO.N,D33*%
X110185200Y-79502000D03*
X111928700Y-73041300D03*
%TO.N,D35*%
X120040000Y-68198600D03*
%TO.N,D32*%
X118890000Y-69500000D03*
%TO.N,DN*%
X94716600Y-119275050D03*
X94716600Y-121942050D03*
%TO.N,/micro_SD-CARD_enable/3V3_Input_to_micro_SD-CARD*%
X123325550Y-132926750D03*
X127660400Y-136144000D03*
X118259600Y-135636000D03*
X121056400Y-135399100D03*
X124167900Y-127444500D03*
X130204600Y-133502400D03*
%TO.N,D25*%
X102646000Y-71992000D03*
X115341400Y-72038400D03*
%TO.N,D-*%
X96046549Y-117665250D03*
X99466400Y-121068050D03*
%TO.N,TXD0*%
X99974400Y-102971600D03*
X104902000Y-116651800D03*
X96799400Y-102920800D03*
X131316100Y-62841500D03*
%TO.N,RXD0*%
X103606600Y-116865150D03*
X132410200Y-65688400D03*
%TO.N,/Buck-Boost3.3V/Buck-Boost_INPUT*%
X121501100Y-100549900D03*
X128516967Y-105098167D03*
%TD*%
D63*
%TO.N,VBUS*%
X94253800Y-118266200D02*
X94253800Y-118151000D01*
X94208000Y-118312000D02*
X94253800Y-118266200D01*
X92617192Y-118312000D02*
X94208000Y-118312000D01*
X92918000Y-118312000D02*
X93150000Y-118080000D01*
X92617192Y-118312000D02*
X92918000Y-118312000D01*
X94248000Y-122768000D02*
X94330000Y-122850000D01*
X92614364Y-122768000D02*
X94248000Y-122768000D01*
X93120000Y-122940000D02*
X92960000Y-122780000D01*
X91109800Y-121263436D02*
X91109800Y-119816564D01*
X93188000Y-122768000D02*
X92614364Y-122768000D01*
X92614364Y-122768000D02*
X91109800Y-121263436D01*
X93360000Y-122940000D02*
X93188000Y-122768000D01*
X91112628Y-119816564D02*
X92617192Y-118312000D01*
X91109800Y-119816564D02*
X91112628Y-119816564D01*
D64*
%TO.N,GND*%
X125360000Y-104240000D02*
X125360000Y-102420000D01*
X134290000Y-104825600D02*
X134213600Y-104902000D01*
X134290000Y-102450000D02*
X134290000Y-104825600D01*
X136490000Y-104130400D02*
X136804400Y-104444800D01*
X136490000Y-102440000D02*
X136490000Y-104130400D01*
X121300000Y-103930000D02*
X121300000Y-103273000D01*
X121300000Y-103273000D02*
X121811500Y-102761500D01*
X122946000Y-102761500D02*
X121811500Y-102761500D01*
D65*
X127140000Y-71210000D02*
X127140000Y-65120000D01*
X123410000Y-69040000D02*
X123410000Y-71250000D01*
X123410000Y-67280000D02*
X123410000Y-69040000D01*
X123410000Y-65100000D02*
X123410000Y-67280000D01*
D66*
X130737400Y-102420000D02*
X130757400Y-102440000D01*
X126790000Y-102420000D02*
X130737400Y-102420000D01*
D67*
X125280000Y-65120000D02*
X125280000Y-71300000D01*
D64*
X127141000Y-76675000D02*
X127141000Y-71280000D01*
X125280000Y-65120000D02*
X125280000Y-61620000D01*
D68*
X125280000Y-65120000D02*
X125280000Y-65445000D01*
D64*
X125693400Y-60608400D02*
X125280000Y-61021800D01*
X126500000Y-60608400D02*
X125693400Y-60608400D01*
X125280000Y-61620000D02*
X125280000Y-61021800D01*
X125280000Y-61021800D02*
X124866600Y-60608400D01*
X125280000Y-61620000D02*
X125280000Y-60677600D01*
X125280000Y-60677600D02*
X125349200Y-60608400D01*
D63*
%TO.N,D21*%
X160121600Y-88392000D02*
X160121600Y-88061800D01*
X160121600Y-88392000D02*
X160121600Y-108762800D01*
X160121600Y-88061800D02*
X159969200Y-87909400D01*
X160121600Y-87931600D02*
X160121600Y-88392000D01*
X160121600Y-86258400D02*
X160197800Y-86334600D01*
X160121600Y-86080600D02*
X160121600Y-86258400D01*
X160121600Y-86080600D02*
X160121600Y-86334600D01*
%TO.N,D22*%
X162661600Y-86283800D02*
X162712400Y-86334600D01*
X162661600Y-85902800D02*
X162661600Y-86283800D01*
X162661600Y-85902800D02*
X162661600Y-86328400D01*
X162661600Y-88036400D02*
X162560000Y-87934800D01*
X162661600Y-88290400D02*
X162661600Y-88036400D01*
X162661600Y-88290400D02*
X162661600Y-87931600D01*
D64*
%TO.N,+3V3*%
X167741600Y-86080600D02*
X167868600Y-86207600D01*
X167741600Y-85623400D02*
X167741600Y-86080600D01*
X167741600Y-85623400D02*
X167741600Y-86198400D01*
%TO.N,Net-(U5-L1)*%
X128447800Y-100250000D02*
X128470000Y-100250000D01*
X127355600Y-98729800D02*
X128447800Y-99822000D01*
X128447800Y-99822000D02*
X128447800Y-100250000D01*
%TO.N,GND*%
X104927400Y-149852200D02*
X104919600Y-149860000D01*
X104927400Y-147751800D02*
X104927400Y-149852200D01*
%TO.N,+3V3*%
X104394000Y-138349800D02*
X104970400Y-138926200D01*
X104394000Y-137134600D02*
X104394000Y-138349800D01*
D63*
%TO.N,IO0*%
X101422200Y-114204850D02*
X101425100Y-114207750D01*
X101422200Y-111683800D02*
X101422200Y-114204850D01*
D64*
%TO.N,Net-(U5-L2)*%
X132279085Y-96236485D02*
X132283200Y-96240600D01*
X129622200Y-99917600D02*
X130886200Y-98653600D01*
X129622200Y-100339800D02*
X129622200Y-99917600D01*
%TO.N,+3V3*%
X136169400Y-95398400D02*
X136169400Y-96012000D01*
X135898000Y-95127000D02*
X136169400Y-95398400D01*
X135686800Y-95338200D02*
X135686800Y-95935800D01*
X135898000Y-95127000D02*
X135686800Y-95338200D01*
X135898000Y-95181800D02*
X136601200Y-95885000D01*
X135898000Y-95127000D02*
X135898000Y-95181800D01*
X135331200Y-95693800D02*
X135331200Y-96266000D01*
X135898000Y-95127000D02*
X135331200Y-95693800D01*
D63*
%TO.N,Net-(U3-~{SUSPEND})*%
X107027200Y-127347200D02*
X107027200Y-131002100D01*
X104622600Y-124942600D02*
X107027200Y-127347200D01*
X104622600Y-123018050D02*
X104622600Y-124942600D01*
%TO.N,Net-(U3-~{RST})*%
X103622600Y-125028200D02*
X103622600Y-123018050D01*
X101693200Y-126957600D02*
X103622600Y-125028200D01*
X101693200Y-131002100D02*
X101693200Y-126957600D01*
%TO.N,Net-(U3-VBUS)*%
X103122600Y-123699400D02*
X103122600Y-123018050D01*
X99051600Y-127770400D02*
X103122600Y-123699400D01*
X99051600Y-131002100D02*
X99051600Y-127770400D01*
D64*
%TO.N,+3V3*%
X93784000Y-130980600D02*
X94284800Y-130479800D01*
X93768400Y-130980600D02*
X93784000Y-130980600D01*
X104385600Y-129260600D02*
X104385600Y-131002100D01*
X94284800Y-130464200D02*
X94284800Y-130479800D01*
X94955000Y-129794000D02*
X94284800Y-130464200D01*
X97739200Y-129794000D02*
X94955000Y-129794000D01*
%TO.N,GND*%
X127210400Y-102420000D02*
X127482600Y-102692200D01*
X127500800Y-102420000D02*
X127508000Y-102412800D01*
X127460000Y-103090000D02*
X127651800Y-103090000D01*
D63*
X129120000Y-101967400D02*
X129133600Y-101981000D01*
X129120000Y-101130000D02*
X129120000Y-101967400D01*
D64*
X131191000Y-102870000D02*
X130683000Y-102870000D01*
D63*
%TO.N,Net-(U5-L2)*%
X129672000Y-100530200D02*
X129672000Y-100590000D01*
X129622200Y-100580000D02*
X129672000Y-100530200D01*
X129622200Y-100339800D02*
X129622200Y-100580000D01*
%TO.N,Net-(U5-L1)*%
X128622200Y-100612200D02*
X128470000Y-100460000D01*
X128622200Y-100640000D02*
X128622200Y-100612200D01*
X128622200Y-100640000D02*
X128622200Y-101120000D01*
D64*
%TO.N,GND*%
X127370000Y-102420000D02*
X127370000Y-102550000D01*
X125360000Y-102420000D02*
X126330000Y-102420000D01*
%TO.N,VBAT*%
X98370000Y-97270000D02*
X95460000Y-97270000D01*
X101025000Y-94615000D02*
X98370000Y-97270000D01*
X102489000Y-94615000D02*
X101025000Y-94615000D01*
%TO.N,Net-(D2-C)*%
X92148000Y-91948000D02*
X93760000Y-93560000D01*
D63*
%TO.N,D14*%
X121970800Y-132020800D02*
X115020000Y-125070000D01*
X121970800Y-132943600D02*
X121970800Y-132020800D01*
X116510000Y-122670000D02*
X115010000Y-124170000D01*
X116510000Y-122046800D02*
X116510000Y-122670000D01*
D64*
%TO.N,+3V3*%
X167741600Y-84582000D02*
X167741600Y-85623400D01*
X167740000Y-84601800D02*
X167741600Y-84603400D01*
D63*
%TO.N,D22*%
X162661600Y-87931600D02*
X162660000Y-87930000D01*
X162661600Y-110083600D02*
X162661600Y-88290400D01*
X162661600Y-86328400D02*
X162660000Y-86330000D01*
X162661600Y-85191600D02*
X162661600Y-85902800D01*
%TO.N,D21*%
X160121600Y-85826600D02*
X160121600Y-86080600D01*
%TO.N,D12*%
X127670800Y-127203200D02*
X128752600Y-127203200D01*
%TO.N,D15*%
X128689600Y-137739500D02*
X128097400Y-138331700D01*
X127781900Y-138331700D02*
X127660400Y-138453200D01*
X131739600Y-129589500D02*
X128689600Y-132639500D01*
X128689600Y-132639500D02*
X128689600Y-137739500D01*
X131739600Y-126862800D02*
X131739600Y-129589500D01*
X128097400Y-138331700D02*
X127781900Y-138331700D01*
%TO.N,D12*%
X127355600Y-122072400D02*
X127355600Y-126888000D01*
X127355600Y-126888000D02*
X127670800Y-127203200D01*
D64*
%TO.N,GND*%
X118896500Y-152340000D02*
X119024400Y-152467900D01*
X117573600Y-152340000D02*
X118896500Y-152340000D01*
X117573600Y-152500800D02*
X117573600Y-152340000D01*
%TO.N,/Buck-Boost3.3V/Buck-Boost_INPUT*%
X117056350Y-91723000D02*
X116861800Y-91723000D01*
X117492475Y-92159125D02*
X117056350Y-91723000D01*
%TO.N,EXT_5V*%
X94391000Y-141351000D02*
X97383600Y-141351000D01*
X92335800Y-139295800D02*
X94391000Y-141351000D01*
X92335800Y-138644700D02*
X92335800Y-139295800D01*
X91688600Y-138638600D02*
X91688600Y-138644700D01*
X89244800Y-136194800D02*
X91688600Y-138638600D01*
X88650300Y-136194800D02*
X89244800Y-136194800D01*
D63*
%TO.N,GND*%
X90779600Y-80425300D02*
X90928100Y-80573800D01*
D64*
X93768400Y-133055600D02*
X93768400Y-134713200D01*
X167776401Y-131816599D02*
X167776401Y-129098799D01*
X132150000Y-142510000D02*
X132170000Y-142530000D01*
X88865400Y-117331800D02*
X88849200Y-117348000D01*
X92788200Y-125653800D02*
X92804600Y-125653800D01*
D63*
X94469800Y-77649200D02*
X94411800Y-77649200D01*
X129622000Y-105765000D02*
X129622200Y-105764800D01*
D64*
X132170000Y-142530000D02*
X132170000Y-142740000D01*
D63*
X110286000Y-68964000D02*
X110286000Y-68904000D01*
D64*
X132070000Y-102440000D02*
X134280000Y-102440000D01*
X169550000Y-114051000D02*
X168148000Y-112649000D01*
X93768400Y-134713200D02*
X93776800Y-134721600D01*
X169550000Y-114249200D02*
X169550000Y-114051000D01*
D63*
X90834600Y-74024800D02*
X92450600Y-74024800D01*
D64*
X135221600Y-60608400D02*
X135251000Y-60579000D01*
X143427500Y-73582300D02*
X143040000Y-73969800D01*
D63*
X90790600Y-78124800D02*
X90790600Y-73980800D01*
D64*
X95933567Y-77642767D02*
X94476233Y-77642767D01*
X132909200Y-152500800D02*
X131742300Y-152500800D01*
X135005300Y-112725200D02*
X133099600Y-112725200D01*
D63*
X90928100Y-80573800D02*
X90928100Y-83727300D01*
D64*
X167776401Y-129098799D02*
X168300400Y-128574800D01*
X122070000Y-141740000D02*
X122073600Y-141743600D01*
D63*
X97002600Y-123502600D02*
X97010000Y-123510000D01*
X104122600Y-120068050D02*
X104622600Y-120568050D01*
D64*
X143040000Y-78069800D02*
X143040000Y-78549600D01*
X132173600Y-145093900D02*
X132181600Y-145101900D01*
X119913400Y-143400100D02*
X119913400Y-144212900D01*
X168884600Y-125399800D02*
X168884600Y-127990600D01*
X167767000Y-131826000D02*
X167776401Y-131816599D01*
X138383200Y-60608400D02*
X143427500Y-65652700D01*
X133070000Y-152340000D02*
X132909200Y-152500800D01*
X122073600Y-141743600D02*
X122073600Y-142865500D01*
X135280400Y-60608400D02*
X138383200Y-60608400D01*
D63*
X125526800Y-136202600D02*
X125526800Y-133773500D01*
D64*
X163476402Y-134846598D02*
X163476402Y-135712200D01*
X121666000Y-116535200D02*
X123672600Y-118541800D01*
X156591000Y-131841999D02*
X156591000Y-132816600D01*
X113274000Y-68904000D02*
X113411200Y-69041200D01*
X133070000Y-152524000D02*
X133070000Y-152340000D01*
X88823800Y-120599200D02*
X88823800Y-120700800D01*
X143427500Y-69059800D02*
X143427500Y-73582300D01*
X88865400Y-115441000D02*
X88865400Y-117331800D01*
X110286000Y-68904000D02*
X110286000Y-73156000D01*
D63*
X93785600Y-78069800D02*
X90779600Y-78069800D01*
X93690600Y-75264800D02*
X96130600Y-75264800D01*
D64*
X117570000Y-142740000D02*
X117558800Y-142751200D01*
X123910000Y-60608400D02*
X124866600Y-60608400D01*
X88823800Y-121689400D02*
X92788200Y-125653800D01*
X125349200Y-60608400D02*
X125755600Y-60608400D01*
X137973000Y-89258400D02*
X137973000Y-92231400D01*
X123672600Y-118541800D02*
X124197600Y-118541800D01*
D63*
X90779600Y-73969800D02*
X90834600Y-74024800D01*
D64*
X133099600Y-112725200D02*
X133089400Y-112715000D01*
X93768400Y-133055600D02*
X93764500Y-133051700D01*
X99051600Y-134532000D02*
X99051600Y-134467600D01*
X133058800Y-152535200D02*
X133070000Y-152524000D01*
X93370400Y-117309200D02*
X93370400Y-116016000D01*
X137973000Y-95127000D02*
X137973000Y-92231400D01*
X99051600Y-134467600D02*
X99051600Y-133002100D01*
X132170000Y-142740000D02*
X132173600Y-142743600D01*
X91126800Y-133051700D02*
X93764500Y-133051700D01*
X88823800Y-120700800D02*
X88823800Y-121689400D01*
X96130600Y-75264800D02*
X96130600Y-77749800D01*
D63*
X94469800Y-77649200D02*
X94206200Y-77649200D01*
D64*
X121666000Y-115062000D02*
X121666000Y-116535200D01*
X164185600Y-134137400D02*
X163476402Y-134846598D01*
X110286000Y-68904000D02*
X110312400Y-68930400D01*
D63*
X129622200Y-105764800D02*
X129622200Y-104082000D01*
D64*
X143040000Y-78549600D02*
X141122400Y-80467200D01*
X117570000Y-142897200D02*
X117570000Y-142740000D01*
X156895800Y-134188200D02*
X157890999Y-135183399D01*
X115518400Y-78388400D02*
X125450800Y-78388400D01*
X126500000Y-60608400D02*
X135221600Y-60608400D01*
X136480000Y-102450000D02*
X136490000Y-102440000D01*
X93370400Y-123753000D02*
X93379600Y-123743800D01*
X125450800Y-78388400D02*
X125450800Y-78365200D01*
X121539000Y-143400100D02*
X119913400Y-143400100D01*
X122946000Y-102761500D02*
X125018500Y-102761500D01*
X92795400Y-115441000D02*
X88823800Y-119412600D01*
X135251000Y-60579000D02*
X135280400Y-60608400D01*
X131742300Y-152500800D02*
X131724400Y-152518700D01*
D63*
X90914200Y-78248400D02*
X90790600Y-78124800D01*
X90790600Y-73980800D02*
X90779600Y-73969800D01*
X110363200Y-69041200D02*
X110286000Y-68964000D01*
D64*
X94335800Y-138644700D02*
X94938900Y-138644700D01*
X118072900Y-143400100D02*
X117570000Y-142897200D01*
X156575001Y-131826000D02*
X156591000Y-131841999D01*
D63*
X90928100Y-83727300D02*
X90906600Y-83748800D01*
D64*
X143427500Y-65652700D02*
X143427500Y-69059800D01*
D63*
X92450600Y-74024800D02*
X93690600Y-75264800D01*
D64*
X110286000Y-73156000D02*
X115518400Y-78388400D01*
X117297200Y-60553600D02*
X117352000Y-60608400D01*
X168884600Y-127990600D02*
X168300400Y-128574800D01*
X93370400Y-116016000D02*
X92795400Y-115441000D01*
X153111200Y-134162800D02*
X152291001Y-134982999D01*
X99051600Y-134532000D02*
X105497300Y-134532000D01*
X157890999Y-135183399D02*
X157890999Y-135709199D01*
X105497300Y-134532000D02*
X107027200Y-133002100D01*
X166293800Y-134366000D02*
X167776401Y-132883399D01*
X94938900Y-138644700D02*
X99051600Y-134532000D01*
D63*
X97002600Y-121296050D02*
X97002600Y-123502600D01*
X129622200Y-104082000D02*
X129624200Y-104080000D01*
D64*
X167776401Y-132883399D02*
X167776401Y-131835401D01*
D63*
X101206900Y-120068050D02*
X102172600Y-120068050D01*
D64*
X92804600Y-125653800D02*
X92804600Y-125651800D01*
X134280000Y-102440000D02*
X134290000Y-102450000D01*
X93370400Y-125086000D02*
X93370400Y-123753000D01*
X88874600Y-125651800D02*
X88874600Y-123698000D01*
X136855200Y-110875300D02*
X135005300Y-112725200D01*
X92804600Y-125651800D02*
X93370400Y-125086000D01*
X103124000Y-99843500D02*
X103124000Y-101854000D01*
X122073600Y-142865500D02*
X121539000Y-143400100D01*
X117352000Y-60608400D02*
X123910000Y-60608400D01*
X156591000Y-132816600D02*
X155092400Y-134315200D01*
D63*
X129622000Y-106405000D02*
X129622000Y-105765000D01*
X100685600Y-119546750D02*
X101206900Y-120068050D01*
D64*
X132158800Y-142935200D02*
X132150000Y-142926400D01*
X167776401Y-131835401D02*
X167767000Y-131826000D01*
X123910000Y-60608400D02*
X124447800Y-60608400D01*
D63*
X90779600Y-78069800D02*
X90779600Y-80425300D01*
D64*
X136855200Y-110693200D02*
X136855200Y-110875300D01*
X132150000Y-142926400D02*
X132150000Y-142510000D01*
D63*
X102172600Y-120068050D02*
X104122600Y-120068050D01*
D64*
X96130600Y-77749800D02*
X96085600Y-77794800D01*
X110286000Y-68904000D02*
X111760000Y-68904000D01*
X111760000Y-68904000D02*
X113274000Y-68904000D01*
X137973000Y-95127000D02*
X140817600Y-95127000D01*
X134290000Y-102450000D02*
X136480000Y-102450000D01*
X119913400Y-143400100D02*
X118072900Y-143400100D01*
X125110000Y-60608400D02*
X125349200Y-60608400D01*
X88865400Y-125661000D02*
X88874600Y-125651800D01*
X125018500Y-102761500D02*
X125360000Y-102420000D01*
X88823800Y-119412600D02*
X88823800Y-120599200D01*
X96085600Y-77794800D02*
X95933567Y-77642767D01*
D63*
X94206200Y-77649200D02*
X93785600Y-78069800D01*
D64*
X143040000Y-73969800D02*
X143040000Y-78069800D01*
X132173600Y-142743600D02*
X132173600Y-145093900D01*
X169076400Y-135015000D02*
X169076400Y-135712200D01*
X152291001Y-134982999D02*
X152291001Y-135709199D01*
X168198800Y-134137400D02*
X169076400Y-135015000D01*
X93405000Y-117343800D02*
X93370400Y-117309200D01*
X94476233Y-77642767D02*
X94469800Y-77649200D01*
X125755600Y-60608400D02*
X126500000Y-60608400D01*
X124866600Y-60608400D02*
X125110000Y-60608400D01*
X125450800Y-78365200D02*
X127141000Y-76675000D01*
D63*
%TO.N,IO0*%
X137058400Y-77114400D02*
X138013800Y-78069800D01*
X132600700Y-76263500D02*
X132613400Y-76276200D01*
X141440000Y-69147300D02*
X141352500Y-69059800D01*
X141440000Y-73969800D02*
X141440000Y-69147300D01*
X141440000Y-78069800D02*
X141440000Y-73969800D01*
X137003600Y-77118400D02*
X137007600Y-77114400D01*
X133455600Y-77118400D02*
X137003600Y-77118400D01*
X132613400Y-76276200D02*
X133455600Y-77118400D01*
X138013800Y-78069800D02*
X141440000Y-78069800D01*
X137007600Y-77114400D02*
X137058400Y-77114400D01*
%TO.N,ENA*%
X105431200Y-63961200D02*
X105435600Y-63965600D01*
X96130600Y-74174800D02*
X96130600Y-72854800D01*
X89103200Y-104724200D02*
X100807350Y-104724200D01*
X89179600Y-74013800D02*
X89179600Y-73202600D01*
X88906600Y-86537800D02*
X88906600Y-83748800D01*
X117297200Y-63139600D02*
X117306000Y-63148400D01*
X88900000Y-86593600D02*
X88906600Y-86587000D01*
X88914200Y-83772400D02*
X88906600Y-83764800D01*
X96130600Y-72090000D02*
X96130600Y-72854800D01*
X108026400Y-63961200D02*
X108788400Y-63199200D01*
X105396400Y-63996000D02*
X105431200Y-63961200D01*
X117191600Y-63199200D02*
X117297200Y-63093600D01*
X89190600Y-74024800D02*
X89179600Y-74013800D01*
X102331200Y-106248050D02*
X102331200Y-106998050D01*
X95660000Y-71440000D02*
X96030000Y-71440000D01*
X96030000Y-71440000D02*
X96130600Y-71339400D01*
X87782400Y-102209600D02*
X87782400Y-102235000D01*
X95660000Y-71440000D02*
X95850600Y-71440000D01*
X88853100Y-78462300D02*
X89190600Y-78124800D01*
X88906600Y-86587000D02*
X88906600Y-86537800D01*
X87782400Y-102235000D02*
X87782400Y-103403400D01*
X88906600Y-83764800D02*
X88906600Y-80500300D01*
X88853100Y-80446800D02*
X88853100Y-80636700D01*
X96130600Y-71339400D02*
X96130600Y-71720000D01*
X88915400Y-80289800D02*
X88914000Y-80288400D01*
X89179600Y-73202600D02*
X90942200Y-71440000D01*
X88914000Y-80697600D02*
X88915400Y-80699000D01*
X87782400Y-103403400D02*
X89103200Y-104724200D01*
X88915400Y-80699000D02*
X88915400Y-80289800D01*
X100807350Y-104724200D02*
X102331200Y-106248050D01*
X89190600Y-78124800D02*
X89190600Y-74024800D01*
X105308600Y-63996000D02*
X103474000Y-63996000D01*
X95850600Y-71440000D02*
X96130600Y-71720000D01*
X88906600Y-80500300D02*
X88853100Y-80446800D01*
X108788400Y-63199200D02*
X117191600Y-63199200D01*
X96130600Y-71720000D02*
X96130600Y-72090000D01*
X88853100Y-80636700D02*
X88915400Y-80699000D01*
X105343400Y-63961200D02*
X108026400Y-63961200D01*
X90942200Y-71440000D02*
X95660000Y-71440000D01*
X105308600Y-63996000D02*
X105343400Y-63961200D01*
X88915400Y-80699000D02*
X88923600Y-80707200D01*
X103474000Y-63996000D02*
X96130600Y-71339400D01*
X117297200Y-63093600D02*
X117297200Y-63139600D01*
X88853100Y-80636700D02*
X88853100Y-78462300D01*
D64*
%TO.N,+3V3*%
X112329000Y-86614000D02*
X111821000Y-86106000D01*
X135878600Y-95146400D02*
X135898000Y-95127000D01*
D69*
X130120000Y-101070800D02*
X130276600Y-100914200D01*
D70*
X130128000Y-104681000D02*
X130128000Y-104120000D01*
D69*
X130124200Y-101476800D02*
X130124200Y-101080000D01*
D64*
X101117400Y-122068050D02*
X102172600Y-122068050D01*
X124708900Y-111125000D02*
X124708900Y-113599800D01*
D69*
X130276600Y-100914200D02*
X130302000Y-100939600D01*
D64*
X97739200Y-125446250D02*
X101117400Y-122068050D01*
X131369000Y-87253000D02*
X131354200Y-87238200D01*
X101117400Y-122068050D02*
X101535400Y-121650050D01*
X133967600Y-87253000D02*
X131369000Y-87253000D01*
X155575000Y-131818199D02*
X155590999Y-131834198D01*
X155575000Y-129209800D02*
X155575000Y-131818199D01*
X134280000Y-101040000D02*
X134290000Y-101050000D01*
D69*
X130120000Y-101132950D02*
X130317550Y-101132950D01*
D64*
X105308600Y-61996000D02*
X105426200Y-61878400D01*
X117242400Y-61878400D02*
X117297200Y-61823600D01*
D70*
X131092000Y-105109200D02*
X131064000Y-105109200D01*
D69*
X130556000Y-101523800D02*
X130632200Y-101447600D01*
D70*
X130556200Y-105109200D02*
X130128000Y-104681000D01*
D64*
X117297200Y-61823600D02*
X117352000Y-61878400D01*
X114096800Y-86614000D02*
X112329000Y-86614000D01*
X156438600Y-128346200D02*
X155575000Y-129209800D01*
X105426200Y-61878400D02*
X117242400Y-61878400D01*
X101535400Y-121650050D02*
X102172600Y-121650050D01*
X135898000Y-95127000D02*
X135898000Y-92231400D01*
D69*
X130120000Y-101132950D02*
X130673150Y-101132950D01*
D64*
X156464000Y-128346200D02*
X156438600Y-128346200D01*
D69*
X130122200Y-101078000D02*
X130122200Y-100793400D01*
X130429000Y-101523800D02*
X130556000Y-101523800D01*
D70*
X131064000Y-105109200D02*
X130556200Y-105109200D01*
D64*
X136804400Y-100725600D02*
X136490000Y-101040000D01*
X124683500Y-111099600D02*
X124708900Y-111125000D01*
X164675800Y-117788200D02*
X164608000Y-117856000D01*
D69*
X130673150Y-101132950D02*
X130683000Y-101142800D01*
D64*
X121716800Y-111099600D02*
X124683500Y-111099600D01*
D69*
X130276600Y-101523800D02*
X130429000Y-101523800D01*
D64*
X135898000Y-89183400D02*
X133967600Y-87253000D01*
X134290000Y-101050000D02*
X136480000Y-101050000D01*
D69*
X130124200Y-101080000D02*
X130122200Y-101078000D01*
D64*
X135898000Y-92231400D02*
X135898000Y-89183400D01*
X164675800Y-112539800D02*
X164675800Y-117788200D01*
D69*
X130302000Y-100939600D02*
X130606800Y-100939600D01*
X130318900Y-100596700D02*
X130594100Y-100596700D01*
D64*
X102172600Y-122068050D02*
X102172600Y-121650050D01*
X130707200Y-101040000D02*
X132070000Y-101040000D01*
X124708900Y-113599800D02*
X124799500Y-113690400D01*
X132070000Y-101040000D02*
X134280000Y-101040000D01*
X136480000Y-101050000D02*
X136490000Y-101040000D01*
X105308600Y-62021400D02*
X105368800Y-61961200D01*
X117352000Y-61878400D02*
X120629027Y-61878400D01*
D69*
X130276600Y-100914200D02*
X130594100Y-100596700D01*
X130124400Y-101477000D02*
X130124200Y-101476800D01*
X130122200Y-100793400D02*
X130318900Y-100596700D01*
X130429000Y-101523800D02*
X130429000Y-101447600D01*
D64*
X164658000Y-119923000D02*
X164658000Y-117906000D01*
D69*
X130317550Y-101132950D02*
X130632200Y-101447600D01*
X130120000Y-101132950D02*
X130120000Y-101070800D01*
D64*
X97739200Y-129844800D02*
X97739200Y-129794000D01*
D69*
X130120000Y-101367200D02*
X130276600Y-101523800D01*
D64*
X130606800Y-100939600D02*
X130707200Y-101040000D01*
X136804400Y-99263200D02*
X136804400Y-100725600D01*
X97739200Y-129794000D02*
X97739200Y-125446250D01*
D70*
X130606800Y-100584000D02*
X130606800Y-101422200D01*
D69*
X130429000Y-101447600D02*
X130302000Y-101320600D01*
D64*
X164658000Y-112522000D02*
X164675800Y-112539800D01*
D69*
X130594100Y-100596700D02*
X130606800Y-100584000D01*
D70*
X130606800Y-101422200D02*
X130632200Y-101447600D01*
D64*
%TO.N,VBUS*%
X94241050Y-122943050D02*
X93405100Y-122943050D01*
X89864600Y-134263800D02*
X89864600Y-131013200D01*
D71*
X97002600Y-117243050D02*
X97002600Y-119021050D01*
D64*
X91090300Y-131013200D02*
X91126800Y-130976700D01*
D71*
X95634450Y-116770350D02*
X96529900Y-116770350D01*
D63*
X93372400Y-122951000D02*
X93379600Y-122943800D01*
D64*
X93928600Y-128600200D02*
X95198600Y-127330200D01*
D71*
X93405000Y-118143800D02*
X93412200Y-118151000D01*
D64*
X95250000Y-135890000D02*
X91490800Y-135890000D01*
D71*
X94253800Y-118151000D02*
X95634450Y-116770350D01*
D64*
X88637600Y-130589200D02*
X90626600Y-128600200D01*
D69*
X93405000Y-118143800D02*
X93397800Y-118151000D01*
D64*
X89864600Y-131013200D02*
X88897600Y-131013200D01*
X88897600Y-131013200D02*
X88594600Y-130710200D01*
D71*
X96529900Y-116770350D02*
X97002600Y-117243050D01*
D64*
X88594600Y-130710200D02*
X88637600Y-130667200D01*
D71*
X93412200Y-118151000D02*
X94253800Y-118151000D01*
D64*
X89864600Y-131013200D02*
X91090300Y-131013200D01*
X96410000Y-132983300D02*
X96410000Y-134730000D01*
X94241050Y-122943050D02*
X95198600Y-123900600D01*
X96410000Y-134730000D02*
X95250000Y-135890000D01*
X95198600Y-123900600D02*
X95198600Y-127330200D01*
X91490800Y-135890000D02*
X89864600Y-134263800D01*
X88637600Y-130667200D02*
X88637600Y-130589200D01*
X90626600Y-128600200D02*
X93928600Y-128600200D01*
D63*
%TO.N,D15*%
X127660400Y-138853500D02*
X125358800Y-141155100D01*
X127660400Y-138453200D02*
X127660400Y-138751900D01*
X135304400Y-79660000D02*
X135306000Y-79658400D01*
X125370000Y-141740000D02*
X125370000Y-141166300D01*
X125370000Y-141166300D02*
X125358800Y-141155100D01*
X133620000Y-79670000D02*
X133630000Y-79660000D01*
X125358800Y-141886000D02*
X125373600Y-141900800D01*
X128080600Y-138331700D02*
X127660400Y-138751900D01*
X127660400Y-138751900D02*
X127660400Y-138853500D01*
X133630000Y-79660000D02*
X135304400Y-79660000D01*
D69*
%TO.N,Net-(CARD1-DAT2)*%
X132259600Y-136343200D02*
X132283200Y-136319600D01*
X127570000Y-141289100D02*
X132259600Y-136599500D01*
X132259600Y-136599500D02*
X132259600Y-136343200D01*
X127573600Y-141900800D02*
X127570000Y-141897200D01*
X127570000Y-141897200D02*
X127570000Y-141289100D01*
D63*
%TO.N,D2*%
X132560000Y-78388400D02*
X132590000Y-78418400D01*
X120970000Y-141924000D02*
X120958800Y-141935200D01*
X120954800Y-139449300D02*
X120650000Y-139144500D01*
X119874600Y-134162800D02*
X119874600Y-138588300D01*
X132590000Y-78418400D02*
X135276000Y-78418400D01*
X135276000Y-78418400D02*
X135306000Y-78388400D01*
X120954800Y-139144500D02*
X120954800Y-139449300D01*
X120973600Y-139468100D02*
X120973600Y-141736400D01*
X120973600Y-141736400D02*
X120970000Y-141740000D01*
X120954800Y-139449300D02*
X120973600Y-139468100D01*
X120430800Y-139144500D02*
X120650000Y-139144500D01*
X120970000Y-141740000D02*
X120970000Y-141924000D01*
X119874600Y-138588300D02*
X120430800Y-139144500D01*
X119874600Y-134134500D02*
X119874600Y-134162800D01*
X120650000Y-139144500D02*
X120954800Y-139144500D01*
%TO.N,D14*%
X115350000Y-76657200D02*
X116158800Y-75848400D01*
X116510000Y-116452400D02*
X116510000Y-122046800D01*
X123173600Y-138463500D02*
X123190000Y-138447100D01*
X115350000Y-76809600D02*
X115350000Y-76657200D01*
X123160000Y-141740000D02*
X123160000Y-141887200D01*
X122515800Y-138280900D02*
X123119300Y-138280900D01*
X123158800Y-141738800D02*
X123160000Y-141740000D01*
X123158800Y-138312100D02*
X123158800Y-141738800D01*
X121970800Y-137735900D02*
X122515800Y-138280900D01*
X116158800Y-75848400D02*
X117306000Y-75848400D01*
X123190000Y-138447100D02*
X123190000Y-138280900D01*
X121970800Y-132943600D02*
X121970800Y-137735900D01*
X123119300Y-138280900D02*
X123190000Y-138351600D01*
X123190000Y-138280900D02*
X123158800Y-138312100D01*
D69*
%TO.N,Net-(CARD1-DAT1)*%
X119858800Y-141935200D02*
X119870000Y-141924000D01*
X119873600Y-141736400D02*
X119873600Y-140893500D01*
X118279600Y-138916000D02*
X118237000Y-138873400D01*
X118279600Y-139299500D02*
X118279600Y-138916000D01*
X119870000Y-141740000D02*
X119873600Y-141736400D01*
X119870000Y-141924000D02*
X119870000Y-141740000D01*
X119873600Y-140893500D02*
X118279600Y-139299500D01*
%TO.N,Net-(CARD1-CD{slash}DAT3)*%
X126470000Y-141202400D02*
X126470000Y-141924000D01*
X130209600Y-137462800D02*
X126470000Y-141202400D01*
X126470000Y-141924000D02*
X126458800Y-141935200D01*
X130200400Y-136472000D02*
X130209600Y-136481200D01*
X130209600Y-136481200D02*
X130209600Y-137462800D01*
D64*
%TO.N,VBAT*%
X102956400Y-94147600D02*
X103882925Y-94147600D01*
X102489000Y-94615000D02*
X102616000Y-94488000D01*
X103124000Y-95504000D02*
X103124000Y-95250000D01*
X102616000Y-94488000D02*
X102956400Y-94147600D01*
X103124000Y-97768500D02*
X103124000Y-95504000D01*
X103124000Y-95250000D02*
X102489000Y-94615000D01*
X102616000Y-94488000D02*
X102870000Y-94488000D01*
X103124000Y-94742000D02*
X103124000Y-94315200D01*
X102870000Y-94488000D02*
X103124000Y-94742000D01*
X103124000Y-94315200D02*
X102956400Y-94147600D01*
X103124000Y-95504000D02*
X103124000Y-94742000D01*
X103847325Y-94183200D02*
X103882925Y-94147600D01*
D63*
%TO.N,/Battery_Voltage_Monitor_with_MOSFETS/V_Batt_Monitor_INPUT*%
X94525600Y-84974800D02*
X98164200Y-84974800D01*
X99674600Y-83464400D02*
X101400800Y-83464400D01*
D64*
X89839800Y-96188000D02*
X89839800Y-99796600D01*
D63*
X94537450Y-84792367D02*
X94525600Y-84804217D01*
X98164200Y-84974800D02*
X99674600Y-83464400D01*
D64*
X89839800Y-99796600D02*
X89916000Y-99872800D01*
D63*
X88392000Y-98348800D02*
X88392000Y-90043000D01*
X89916000Y-99872800D02*
X88392000Y-98348800D01*
X94525600Y-84974800D02*
X93460200Y-84974800D01*
X93460200Y-84974800D02*
X88392000Y-90043000D01*
X101400800Y-83464400D02*
X101416000Y-83449200D01*
%TO.N,D34*%
X105003800Y-72271800D02*
X105003800Y-68126800D01*
X105156000Y-72424000D02*
X105003800Y-72271800D01*
X107374000Y-72424000D02*
X108480000Y-73530000D01*
X113286800Y-66966200D02*
X110339000Y-66966200D01*
X110339000Y-66966200D02*
X110286000Y-66913200D01*
X106150800Y-66979800D02*
X110210200Y-66979800D01*
X113411200Y-66966200D02*
X117298200Y-66966200D01*
X110286000Y-66913200D02*
X110286000Y-66904000D01*
X113349000Y-66904000D02*
X113286800Y-66966200D01*
X105003800Y-68126800D02*
X106150800Y-66979800D01*
X110210200Y-66979800D02*
X110286000Y-66904000D01*
X105156000Y-72424000D02*
X107374000Y-72424000D01*
X117298200Y-66966200D02*
X117306000Y-66958400D01*
D64*
%TO.N,EXT_5V*%
X105882925Y-95097600D02*
X105907925Y-95122600D01*
X97383600Y-141351000D02*
X97409000Y-141351000D01*
X91688600Y-138644700D02*
X92335800Y-138644700D01*
D63*
X88645300Y-136176000D02*
X88650300Y-136171000D01*
D64*
X88650300Y-136171000D02*
X88650300Y-136194800D01*
X104970400Y-143000000D02*
X104970400Y-144780000D01*
X105882925Y-97434400D02*
X105882925Y-97358200D01*
X105882925Y-95097600D02*
X108432600Y-95097600D01*
X88594600Y-134110200D02*
X88594600Y-136115300D01*
X92335800Y-139291900D02*
X91688600Y-138644700D01*
X88594600Y-136115300D02*
X88650300Y-136171000D01*
X108432600Y-95097600D02*
X108458000Y-95123000D01*
X105882925Y-97358200D02*
X105882925Y-95097600D01*
D63*
%TO.N,Net-(U5-L2)*%
X129622200Y-100580000D02*
X129622200Y-101117800D01*
%TO.N,Net-(U5-L1)*%
X128622200Y-100312200D02*
X128622200Y-100640000D01*
%TO.N,D12*%
X124961600Y-77118400D02*
X124990000Y-77090000D01*
X117306000Y-77118400D02*
X124961600Y-77118400D01*
%TO.N,D13*%
X128350000Y-79680000D02*
X123033200Y-79680000D01*
X128390000Y-79640000D02*
X128350000Y-79680000D01*
X123033200Y-79680000D02*
X123011600Y-79658400D01*
X123011600Y-79658400D02*
X117306000Y-79658400D01*
%TO.N,D4*%
X138108400Y-75848400D02*
X138120000Y-75860000D01*
X139801600Y-114630200D02*
X137376900Y-114630200D01*
X139827000Y-114655600D02*
X139801600Y-114630200D01*
X135306000Y-75848400D02*
X138108400Y-75848400D01*
%TO.N,D26*%
X113952800Y-73308400D02*
X117306000Y-73308400D01*
X113944400Y-73300000D02*
X113952800Y-73308400D01*
X111760000Y-80895000D02*
X111760000Y-79502000D01*
X113870000Y-73300000D02*
X113944400Y-73300000D01*
%TO.N,D27*%
X117306000Y-74578400D02*
X117267600Y-74540000D01*
X113400000Y-79476600D02*
X113400000Y-80895000D01*
X117267600Y-74540000D02*
X115320000Y-74540000D01*
X113400000Y-79465600D02*
X113400000Y-79476600D01*
%TO.N,D22*%
X164767000Y-131827798D02*
X164776401Y-131837199D01*
X163830000Y-128219200D02*
X163830000Y-129997200D01*
X152781000Y-123367800D02*
X152781000Y-123393200D01*
X162661600Y-85191600D02*
X146431000Y-68961000D01*
X161594800Y-111150400D02*
X162661600Y-110083600D01*
X152781000Y-123393200D02*
X152781000Y-127812800D01*
X153591000Y-131810001D02*
X153575001Y-131826000D01*
X153591000Y-128622800D02*
X153591000Y-131810001D01*
X135251000Y-63119000D02*
X135280400Y-63148400D01*
X152781000Y-127812800D02*
X153591000Y-128622800D01*
X136951600Y-63148400D02*
X136960000Y-63140000D01*
X163830000Y-129997200D02*
X164767000Y-130934200D01*
X135280400Y-63148400D02*
X136951600Y-63148400D01*
X164767000Y-130934200D02*
X164767000Y-131827798D01*
%TO.N,D23*%
X135251000Y-61849000D02*
X135280400Y-61878400D01*
X137000000Y-61880000D02*
X136998400Y-61878400D01*
X135280400Y-61878400D02*
X136982200Y-61878400D01*
X136982200Y-61878400D02*
X136998400Y-61878400D01*
%TO.N,D21*%
X160121600Y-108762800D02*
X160121600Y-108889800D01*
X165125400Y-129489200D02*
X165776402Y-130140202D01*
X160121600Y-108889800D02*
X160147000Y-108915200D01*
X165776402Y-130140202D02*
X165776402Y-131816599D01*
X136988400Y-66958400D02*
X136990000Y-66960000D01*
X154609800Y-131791202D02*
X154575002Y-131826000D01*
X165776402Y-131816599D02*
X165767001Y-131826000D01*
X165125400Y-126949200D02*
X165125400Y-129489200D01*
X154609800Y-127076200D02*
X154609800Y-131791202D01*
X135306000Y-66958400D02*
X136988400Y-66958400D01*
X146329400Y-72034400D02*
X160121600Y-85826600D01*
%TO.N,D5*%
X136978200Y-72038400D02*
X135306000Y-72038400D01*
X171384000Y-104658200D02*
X171399200Y-104673400D01*
X142621000Y-92456000D02*
X150241000Y-92456000D01*
X171399200Y-109744800D02*
X171384000Y-109760000D01*
X138214100Y-73266300D02*
X138206100Y-73266300D01*
X138206100Y-73266300D02*
X136978200Y-72038400D01*
X171399200Y-104673400D02*
X171399200Y-109744800D01*
%TO.N,D19*%
X138938000Y-69510000D02*
X138926400Y-69498400D01*
X138926400Y-69498400D02*
X135306000Y-69498400D01*
%TO.N,D18*%
X137007600Y-70764400D02*
X137011600Y-70768400D01*
X137011600Y-70768400D02*
X137287000Y-70768400D01*
X137261600Y-70768400D02*
X137287000Y-70768400D01*
X135306000Y-70768400D02*
X137261600Y-70768400D01*
%TO.N,D33*%
X114201600Y-70768400D02*
X117306000Y-70768400D01*
X110185200Y-79502000D02*
X110150000Y-79537200D01*
X110150000Y-79537200D02*
X110150000Y-80895000D01*
X111928700Y-73041300D02*
X114201600Y-70768400D01*
%TO.N,D35*%
X117250400Y-68228400D02*
X117221000Y-68199000D01*
X119858600Y-68228400D02*
X117250400Y-68228400D01*
X119964200Y-68122800D02*
X119858600Y-68228400D01*
%TO.N,D32*%
X117221000Y-69469000D02*
X117250400Y-69498400D01*
X118888400Y-69498400D02*
X118890000Y-69500000D01*
X117250400Y-69498400D02*
X118888400Y-69498400D01*
%TO.N,DP*%
X91950000Y-121080450D02*
X91950000Y-120522000D01*
X97952600Y-120606050D02*
X97647550Y-120301000D01*
X91950000Y-121080450D02*
X92170550Y-121301000D01*
X97647550Y-120301000D02*
X92171000Y-120301000D01*
X91950000Y-120522000D02*
X92171000Y-120301000D01*
X97952600Y-121296050D02*
X97952600Y-120606050D01*
X92170550Y-121301000D02*
X93370400Y-121301000D01*
%TO.N,DN*%
X95097600Y-121296050D02*
X96052600Y-121296050D01*
X95097600Y-121561050D02*
X94716600Y-121942050D01*
X95097600Y-121296050D02*
X95097600Y-121561050D01*
X94832600Y-121296050D02*
X95097600Y-121296050D01*
X93377600Y-119793800D02*
X94197850Y-119793800D01*
X93370400Y-120801000D02*
X93378350Y-120793050D01*
X93378350Y-120793050D02*
X94329600Y-120793050D01*
X94329600Y-120793050D02*
X94832600Y-121296050D01*
X94197850Y-119793800D02*
X94716600Y-119275050D01*
X93370400Y-119801000D02*
X93377600Y-119793800D01*
D64*
%TO.N,/micro_SD-CARD_enable/3V3_Input_to_micro_SD-CARD*%
X124155200Y-127431800D02*
X124167900Y-127419100D01*
X125749500Y-118496900D02*
X125704600Y-118541800D01*
D63*
X131452500Y-133484500D02*
X132283200Y-134315200D01*
D69*
X130204600Y-135329500D02*
X130209600Y-135334500D01*
D63*
X125526800Y-138277600D02*
X124270000Y-139534400D01*
X127660400Y-136144000D02*
X125526800Y-138277600D01*
X121056400Y-138062800D02*
X121056400Y-135399100D01*
D64*
X125749500Y-116160400D02*
X125749500Y-118496900D01*
X124167900Y-121831100D02*
X125704600Y-120294400D01*
D63*
X123190000Y-133062300D02*
X123325550Y-132926750D01*
D64*
X125704600Y-120294400D02*
X125704600Y-118541800D01*
D63*
X124270000Y-139534400D02*
X124270000Y-141740000D01*
X123325550Y-132926750D02*
X123240800Y-133011500D01*
X130204600Y-133484500D02*
X131452500Y-133484500D01*
X123190000Y-137190900D02*
X123190000Y-133062300D01*
D69*
X130204600Y-133502400D02*
X130204600Y-135329500D01*
D63*
X132283200Y-134315200D02*
X132283200Y-135229600D01*
D69*
X118259600Y-135649500D02*
X118259600Y-137760800D01*
D63*
X120954800Y-138164400D02*
X121056400Y-138062800D01*
D64*
X124167900Y-127419100D02*
X124167900Y-121831100D01*
D69*
X132269600Y-135214500D02*
X132259600Y-135224500D01*
X130204600Y-133484500D02*
X130204600Y-133502400D01*
X118259600Y-137760800D02*
X118237000Y-137783400D01*
D63*
X127660400Y-137363200D02*
X127660400Y-136144000D01*
%TO.N,Net-(LED1-B)*%
X113400000Y-82942000D02*
X113400000Y-81915000D01*
X111821000Y-84866000D02*
X111821000Y-84521000D01*
X111821000Y-84521000D02*
X113400000Y-82942000D01*
%TO.N,Net-(LED1-G)*%
X111760000Y-83058000D02*
X111760000Y-81915000D01*
X110871000Y-83947000D02*
X111760000Y-83058000D01*
X110871000Y-84866000D02*
X110871000Y-83947000D01*
%TO.N,RTS*%
X105683316Y-117103350D02*
X108191300Y-117103350D01*
X110198900Y-115309350D02*
X108648500Y-115309350D01*
X105122600Y-117664066D02*
X105683316Y-117103350D01*
X108648500Y-116646150D02*
X108648500Y-115309350D01*
X103265200Y-109562250D02*
X103200000Y-109497050D01*
X110391200Y-110717050D02*
X110391200Y-115077050D01*
X105122600Y-118118050D02*
X105122600Y-117664066D01*
X103281200Y-109497050D02*
X109171200Y-109497050D01*
X108191300Y-117103350D02*
X108648500Y-116646150D01*
X110411200Y-115097050D02*
X110198900Y-115309350D01*
X110391200Y-115077050D02*
X110411200Y-115097050D01*
X109171200Y-109497050D02*
X110391200Y-110717050D01*
%TO.N,Net-(Q1-B)*%
X103381200Y-111497050D02*
X104363000Y-111497050D01*
X101381200Y-109497050D02*
X103381200Y-111497050D01*
X104363000Y-111497050D02*
X106159300Y-113293350D01*
%TO.N,Net-(Q2-B)*%
X103924100Y-114512550D02*
X103924100Y-115157750D01*
X107648500Y-114309350D02*
X104127300Y-114309350D01*
X104127300Y-114309350D02*
X103924100Y-114512550D01*
X108648500Y-113309350D02*
X107648500Y-114309350D01*
%TO.N,DTR*%
X102819200Y-115900200D02*
X102539800Y-115620800D01*
X102539800Y-117032150D02*
X102539800Y-116625750D01*
X106159300Y-115293350D02*
X106042250Y-115293350D01*
X102819200Y-115914550D02*
X102539800Y-115914550D01*
X102858950Y-115874800D02*
X102819200Y-115914550D01*
X106042250Y-115293350D02*
X105460800Y-115874800D01*
X102539800Y-116168550D02*
X102539800Y-115620800D01*
X102539800Y-113590450D02*
X102872500Y-113257750D01*
X102565200Y-116168550D02*
X102819200Y-115914550D01*
X102872500Y-113257750D02*
X103924100Y-113257750D01*
X102539800Y-115465050D02*
X102539800Y-113590450D01*
X105460800Y-115874800D02*
X102858950Y-115874800D01*
X102539800Y-115609750D02*
X102539800Y-115465050D01*
X102539800Y-115914550D02*
X102539800Y-115465050D01*
X102819200Y-115914550D02*
X102819200Y-115900200D01*
X102539800Y-116625750D02*
X102539800Y-116168550D01*
X103122600Y-117614950D02*
X102539800Y-117032150D01*
X103122600Y-118118050D02*
X103122600Y-117614950D01*
X102539800Y-116168550D02*
X102565200Y-116168550D01*
X102539800Y-115599750D02*
X102539800Y-115465050D01*
X102539800Y-115620800D02*
X102539800Y-115609750D01*
%TO.N,Net-(Q3-G)*%
X97976650Y-71693350D02*
X101356000Y-68314000D01*
X97985600Y-77794800D02*
X97976650Y-77785850D01*
X97976650Y-77785850D02*
X97976650Y-71693350D01*
X101356000Y-68314000D02*
X102646000Y-68314000D01*
%TO.N,Net-(Q3-D)*%
X97306283Y-81564400D02*
X97299850Y-81557967D01*
X97470000Y-81564400D02*
X97306283Y-81564400D01*
X96696450Y-81614967D02*
X96823450Y-81487967D01*
X94537450Y-82792367D02*
X94719883Y-82974800D01*
X97470000Y-81564400D02*
X101400800Y-81564400D01*
X96823450Y-81487967D02*
X97026650Y-81284767D01*
X96747016Y-81564400D02*
X96615708Y-81695708D01*
X97299850Y-81557967D02*
X97026650Y-81284767D01*
X95336617Y-82974800D02*
X96615708Y-81695708D01*
X97026650Y-81284767D02*
X97035600Y-81275817D01*
X97035600Y-81275817D02*
X97035600Y-79651717D01*
X96753450Y-81557967D02*
X96696450Y-81614967D01*
X96893450Y-81557967D02*
X97299850Y-81557967D01*
X97035600Y-79651717D02*
X97026650Y-79642767D01*
X97470000Y-81564400D02*
X96747016Y-81564400D01*
X94719883Y-82974800D02*
X95336617Y-82974800D01*
X97299850Y-81557967D02*
X96753450Y-81557967D01*
X96615708Y-81695708D02*
X96696450Y-81614967D01*
X101400800Y-81564400D02*
X101416000Y-81549200D01*
X96823450Y-81487967D02*
X96893450Y-81557967D01*
%TO.N,Net-(Q4-D)*%
X103900000Y-82514400D02*
X103915200Y-82499200D01*
X105156000Y-81808400D02*
X105156000Y-74424000D01*
X103915200Y-82499200D02*
X104465200Y-82499200D01*
X104465200Y-82499200D02*
X105156000Y-81808400D01*
%TO.N,Net-(U3-VBUS)*%
X96479600Y-130983300D02*
X96495600Y-130967300D01*
X96495600Y-130967300D02*
X99051600Y-130967300D01*
X96383200Y-130959300D02*
X96359200Y-130983300D01*
X96394800Y-130968100D02*
X96410000Y-130983300D01*
X96410000Y-130983300D02*
X96479600Y-130983300D01*
%TO.N,Net-(R5-Pad1)*%
X101693200Y-133002100D02*
X104385600Y-133002100D01*
%TO.N,D25*%
X102646000Y-71992000D02*
X102692400Y-72038400D01*
X115341400Y-72038400D02*
X115240000Y-72038400D01*
X102641600Y-70209600D02*
X102646000Y-70214000D01*
X102646000Y-70214000D02*
X102646000Y-71992000D01*
X117306000Y-72038400D02*
X115341400Y-72038400D01*
%TO.N,D+*%
X100455600Y-120569050D02*
X98907600Y-119021050D01*
X100456600Y-120568050D02*
X100455600Y-120569050D01*
X102172600Y-120568050D02*
X100456600Y-120568050D01*
X98907600Y-119021050D02*
X97952600Y-119021050D01*
%TO.N,D-*%
X99466400Y-121068050D02*
X99430600Y-121068050D01*
X96052600Y-119021050D02*
X96052600Y-117671301D01*
X96052600Y-117671301D02*
X96046549Y-117665250D01*
X102172600Y-121068050D02*
X99466400Y-121068050D01*
X99430600Y-121068050D02*
X99415600Y-121053050D01*
X99431600Y-121069050D02*
X99415600Y-121053050D01*
%TO.N,TXD0*%
X132893000Y-64418400D02*
X131316100Y-62841500D01*
X135251000Y-64389000D02*
X135221600Y-64418400D01*
X96799400Y-102946200D02*
X99949000Y-102946200D01*
X104902000Y-116738400D02*
X104622600Y-117017800D01*
X104622600Y-117017800D02*
X104622600Y-118118050D01*
X104902000Y-116651800D02*
X104902000Y-116738400D01*
X135221600Y-64418400D02*
X132893000Y-64418400D01*
%TO.N,RXD0*%
X132385000Y-65688400D02*
X132410200Y-65688400D01*
X103606600Y-116865150D02*
X104122600Y-117381150D01*
X132410200Y-65688400D02*
X135306000Y-65688400D01*
X104122600Y-117381150D02*
X104122600Y-118118050D01*
X132378400Y-65695000D02*
X132385000Y-65688400D01*
%TO.N,Net-(LED1-R)*%
X110032800Y-86106000D02*
X110871000Y-86106000D01*
X110150000Y-81915000D02*
X110150000Y-82636000D01*
X110150000Y-82636000D02*
X109524800Y-83261200D01*
X109524800Y-83261200D02*
X109524800Y-85598000D01*
X109524800Y-85598000D02*
X110032800Y-86106000D01*
D64*
%TO.N,/I2C_Connector_Enable/3V3_Input_to_I2C_Connector*%
X166793400Y-131799599D02*
X166766999Y-131826000D01*
X165608000Y-124198200D02*
X166809600Y-125399800D01*
X166793400Y-128574800D02*
X166793400Y-131799599D01*
X166809600Y-125399800D02*
X166809600Y-128558600D01*
X165608000Y-122393000D02*
X165608000Y-124198200D01*
X166809600Y-128558600D02*
X166793400Y-128574800D01*
D63*
%TO.N,Net-(Q7-G)*%
X135371900Y-114625200D02*
X135376900Y-114630200D01*
X133099600Y-114625200D02*
X135371900Y-114625200D01*
X133089400Y-114615000D02*
X133099600Y-114625200D01*
D64*
%TO.N,/Buck-Boost3.3V/Buck-Boost_INPUT*%
X123279500Y-101020000D02*
X122946000Y-100686500D01*
X121501100Y-96167750D02*
X121501100Y-100626100D01*
D70*
X127742800Y-101416000D02*
X127685800Y-101473000D01*
D64*
X117500400Y-91084400D02*
X117500400Y-92151200D01*
D63*
X129122200Y-104794800D02*
X128852440Y-105064560D01*
X129122200Y-104082000D02*
X129122200Y-104794800D01*
D64*
X117500400Y-92151200D02*
X117492475Y-92159125D01*
D69*
X127889000Y-101269800D02*
X127685800Y-101473000D01*
D64*
X127776050Y-101020000D02*
X127889000Y-101132950D01*
X116959075Y-91625725D02*
X117492475Y-92159125D01*
D70*
X127742800Y-100717200D02*
X127742800Y-101416000D01*
D64*
X117500400Y-91084400D02*
X116535200Y-91084400D01*
X125360000Y-101020000D02*
X123279500Y-101020000D01*
X116535200Y-91084400D02*
X116530800Y-91080000D01*
X116535200Y-91084400D02*
X116476475Y-91143125D01*
D69*
X127711200Y-101498400D02*
X127965200Y-101498400D01*
D64*
X116530800Y-91080000D02*
X116530800Y-91088800D01*
D69*
X127939800Y-100685600D02*
X127711200Y-100685600D01*
D64*
X116476475Y-91143125D02*
X116959075Y-91625725D01*
D69*
X127939800Y-100914200D02*
X127914400Y-100888800D01*
D64*
X117500400Y-91084400D02*
X116959075Y-91625725D01*
D69*
X128120000Y-101132950D02*
X128120000Y-100865800D01*
D64*
X121637700Y-100686500D02*
X121501100Y-100549900D01*
D69*
X127914400Y-100888800D02*
X127787400Y-100888800D01*
D64*
X106307600Y-93197600D02*
X105882925Y-93197600D01*
D69*
X128120000Y-100815000D02*
X128117600Y-100812600D01*
D63*
X128622200Y-104992934D02*
X128622200Y-104082000D01*
D69*
X128120000Y-100815000D02*
X128120000Y-101132950D01*
D64*
X116530800Y-91088800D02*
X115896600Y-91723000D01*
D69*
X128120000Y-100865800D02*
X127939800Y-100685600D01*
D64*
X119227600Y-89357200D02*
X117500400Y-91084400D01*
D69*
X128120000Y-101132950D02*
X128120000Y-101343600D01*
D63*
X128516967Y-105030952D02*
X128516967Y-105098167D01*
D64*
X116861800Y-91723000D02*
X116959075Y-91625725D01*
X105882925Y-93197600D02*
X107386525Y-91694000D01*
D69*
X127787400Y-100888800D02*
X127711200Y-100965000D01*
D64*
X115896600Y-91723000D02*
X108458000Y-91723000D01*
X115896600Y-91723000D02*
X116861800Y-91723000D01*
D63*
X128852440Y-105064560D02*
X128550575Y-105064560D01*
D70*
X127711200Y-100685600D02*
X127742800Y-100717200D01*
D63*
X128122200Y-104636185D02*
X128516967Y-105030952D01*
X129124200Y-104080000D02*
X129122200Y-104082000D01*
D69*
X127685800Y-101473000D02*
X127711200Y-101498400D01*
D63*
X128124200Y-104080000D02*
X128122200Y-104082000D01*
X128122200Y-104082000D02*
X128122200Y-104636185D01*
D64*
X117492475Y-92159125D02*
X121501100Y-96167750D01*
D63*
X128516967Y-105098167D02*
X128622200Y-104992934D01*
X128550575Y-105064560D02*
X128516967Y-105098167D01*
D69*
X127711200Y-100685600D02*
X127939800Y-100914200D01*
X128120000Y-101132950D02*
X127889000Y-101132950D01*
D63*
X128622200Y-104082000D02*
X128624200Y-104080000D01*
D69*
X127889000Y-101132950D02*
X127889000Y-101269800D01*
D64*
X125360000Y-101020000D02*
X127776050Y-101020000D01*
X108429000Y-91694000D02*
X108458000Y-91723000D01*
D69*
X128120000Y-101343600D02*
X127965200Y-101498400D01*
D64*
X106307600Y-93197600D02*
X106320000Y-93210000D01*
X122946000Y-100686500D02*
X121637700Y-100686500D01*
X107386525Y-91694000D02*
X108429000Y-91694000D01*
X121501100Y-100626100D02*
X121488400Y-100638800D01*
%TO.N,Net-(Q7-D)*%
X126699500Y-113690400D02*
X131110500Y-113690400D01*
X126708900Y-113681000D02*
X126699500Y-113690400D01*
X126708900Y-111125000D02*
X126708900Y-113681000D01*
D63*
%TO.N,Net-(Q10-D)*%
X167293800Y-117170200D02*
X166608000Y-117856000D01*
X166608000Y-117856000D02*
X166608000Y-119873000D01*
X170500000Y-116930000D02*
X170259800Y-117170200D01*
X166608000Y-119873000D02*
X166558000Y-119923000D01*
X170500000Y-116316000D02*
X170500000Y-116930000D01*
X170259800Y-117170200D02*
X167293800Y-117170200D01*
%TO.N,Net-(Q10-G)*%
X171384000Y-111760000D02*
X171384000Y-114183200D01*
X171450000Y-114249200D02*
X171450000Y-114316000D01*
X171384000Y-114183200D02*
X171450000Y-114249200D01*
D64*
%TO.N,Net-(D2-C)*%
X90093800Y-91948000D02*
X92148000Y-91948000D01*
X89839800Y-92788000D02*
X89839800Y-92202000D01*
X89839800Y-92202000D02*
X90093800Y-91948000D01*
D63*
%TO.N,D15*%
X131739600Y-126862800D02*
X130098800Y-125222000D01*
D66*
%TO.N,GND*%
X131191000Y-102870000D02*
X127340000Y-102870000D01*
D64*
X132070000Y-102440000D02*
X131142000Y-102440000D01*
%TO.N,Net-(U5-L2)*%
X130911600Y-96236485D02*
X132279085Y-96236485D01*
X130886200Y-98653600D02*
X130886200Y-94107000D01*
X130911600Y-96236485D02*
X129645715Y-96236485D01*
X129641600Y-96240600D02*
X129645715Y-96236485D01*
%TO.N,Net-(U5-L1)*%
X127355600Y-96236485D02*
X126208485Y-96236485D01*
X128545285Y-96236485D02*
X128549400Y-96240600D01*
X127355600Y-96236485D02*
X127355600Y-94056200D01*
X127355600Y-96236485D02*
X128545285Y-96236485D01*
X127355600Y-96236485D02*
X127355600Y-98729800D01*
%TD*%
%TA.AperFunction,Conductor*%
%TO.N,+3V3*%
G36*
X135982191Y-95145907D02*
G01*
X136018155Y-95195407D01*
X136023000Y-95226000D01*
X136023000Y-96051998D01*
X136023001Y-96051999D01*
X136289703Y-96051999D01*
X136320100Y-96049149D01*
X136320102Y-96049149D01*
X136448147Y-96004345D01*
X136557290Y-95923792D01*
X136557292Y-95923790D01*
X136637845Y-95814646D01*
X136642383Y-95801678D01*
X136679447Y-95752997D01*
X136738047Y-95735399D01*
X136795799Y-95755606D01*
X136827066Y-95795948D01*
X137091998Y-96424996D01*
X137914413Y-98197270D01*
X137917223Y-98205000D01*
X134417000Y-98205000D01*
X135076601Y-95968635D01*
X135111196Y-95918174D01*
X135168848Y-95897683D01*
X135227534Y-95914992D01*
X135233499Y-95919947D01*
X135347852Y-96004345D01*
X135475898Y-96049149D01*
X135506289Y-96051999D01*
X135772998Y-96051999D01*
X135773000Y-96051998D01*
X135773000Y-95226000D01*
X135777845Y-95211088D01*
X135777845Y-95195407D01*
X135787061Y-95182721D01*
X135791907Y-95167809D01*
X135804592Y-95158592D01*
X135813809Y-95145907D01*
X135828721Y-95141061D01*
X135841407Y-95131845D01*
X135872000Y-95127000D01*
X135924000Y-95127000D01*
X135982191Y-95145907D01*
G37*
%TD.AperFunction*%
%TD*%
%TA.AperFunction,Conductor*%
%TO.N,+3V3*%
G36*
X137920213Y-98213228D02*
G01*
X138347343Y-99801252D01*
X138347813Y-99850866D01*
X138153911Y-100630302D01*
X137946360Y-101464603D01*
X137936683Y-101503500D01*
X137904287Y-101555405D01*
X137847569Y-101578355D01*
X137840611Y-101578600D01*
X137236981Y-101578600D01*
X137178790Y-101559693D01*
X137142826Y-101510193D01*
X137140138Y-101464603D01*
X137139523Y-101464543D01*
X137139905Y-101460653D01*
X137139884Y-101460282D01*
X137139999Y-101459700D01*
X137140000Y-101459697D01*
X137140000Y-101165001D01*
X137139999Y-101165000D01*
X135840001Y-101165000D01*
X135840000Y-101165001D01*
X135840000Y-101459700D01*
X135840116Y-101460282D01*
X135840084Y-101460551D01*
X135840477Y-101464543D01*
X135839601Y-101464629D01*
X135832927Y-101521044D01*
X135791396Y-101565975D01*
X135743019Y-101578600D01*
X135038504Y-101578600D01*
X134980313Y-101559693D01*
X134944349Y-101510193D01*
X134940485Y-101474561D01*
X134940000Y-101474561D01*
X134940000Y-101470086D01*
X134939980Y-101469902D01*
X134940000Y-101469698D01*
X134940000Y-101175001D01*
X134939999Y-101175000D01*
X133640001Y-101175000D01*
X133640000Y-101175001D01*
X133640000Y-101469698D01*
X133640020Y-101469902D01*
X133640000Y-101469993D01*
X133640000Y-101474561D01*
X133638998Y-101474561D01*
X133626904Y-101529665D01*
X133581165Y-101570305D01*
X133541496Y-101578600D01*
X132816981Y-101578600D01*
X132758790Y-101559693D01*
X132722826Y-101510193D01*
X132720138Y-101464603D01*
X132719523Y-101464543D01*
X132719905Y-101460653D01*
X132719884Y-101460282D01*
X132719999Y-101459700D01*
X132720000Y-101459697D01*
X132720000Y-101165001D01*
X132719999Y-101165000D01*
X131420001Y-101165000D01*
X131420000Y-101165001D01*
X131420000Y-101459700D01*
X131420116Y-101460282D01*
X131420084Y-101460551D01*
X131420477Y-101464543D01*
X131419601Y-101464629D01*
X131412927Y-101521044D01*
X131371396Y-101565975D01*
X131323019Y-101578600D01*
X130579000Y-101578600D01*
X130520809Y-101559693D01*
X130484845Y-101510193D01*
X130480000Y-101479600D01*
X130480000Y-100620299D01*
X131420000Y-100620299D01*
X131420000Y-100914999D01*
X131420001Y-100915000D01*
X131944999Y-100915000D01*
X131945000Y-100914999D01*
X131945000Y-100440001D01*
X132195000Y-100440001D01*
X132195000Y-100914999D01*
X132195001Y-100915000D01*
X132719999Y-100915000D01*
X132720000Y-100914999D01*
X132720000Y-100630299D01*
X133640000Y-100630299D01*
X133640000Y-100924999D01*
X133640001Y-100925000D01*
X134164999Y-100925000D01*
X134165000Y-100924999D01*
X134165000Y-100450001D01*
X134415000Y-100450001D01*
X134415000Y-100924999D01*
X134415001Y-100925000D01*
X134939999Y-100925000D01*
X134940000Y-100924999D01*
X134940000Y-100630302D01*
X134939999Y-100630295D01*
X134938011Y-100620299D01*
X135840000Y-100620299D01*
X135840000Y-100914999D01*
X135840001Y-100915000D01*
X136364999Y-100915000D01*
X136365000Y-100914999D01*
X136365000Y-100440001D01*
X136615000Y-100440001D01*
X136615000Y-100914999D01*
X136615001Y-100915000D01*
X137139999Y-100915000D01*
X137140000Y-100914999D01*
X137140000Y-100620302D01*
X137139999Y-100620299D01*
X137128396Y-100561963D01*
X137084193Y-100495810D01*
X137084189Y-100495806D01*
X137018036Y-100451603D01*
X136959700Y-100440000D01*
X136615001Y-100440000D01*
X136615000Y-100440001D01*
X136365000Y-100440001D01*
X136364999Y-100440000D01*
X136020299Y-100440000D01*
X135961963Y-100451603D01*
X135895810Y-100495806D01*
X135895806Y-100495810D01*
X135851603Y-100561963D01*
X135840000Y-100620299D01*
X134938011Y-100620299D01*
X134928396Y-100571963D01*
X134884193Y-100505810D01*
X134884189Y-100505806D01*
X134818036Y-100461603D01*
X134759700Y-100450000D01*
X134415001Y-100450000D01*
X134415000Y-100450001D01*
X134165000Y-100450001D01*
X134164999Y-100450000D01*
X133820299Y-100450000D01*
X133761963Y-100461603D01*
X133695810Y-100505806D01*
X133695806Y-100505810D01*
X133651603Y-100571963D01*
X133640000Y-100630299D01*
X132720000Y-100630299D01*
X132720000Y-100620302D01*
X132719999Y-100620299D01*
X132708396Y-100561963D01*
X132664193Y-100495810D01*
X132664189Y-100495806D01*
X132598036Y-100451603D01*
X132539700Y-100440000D01*
X132195001Y-100440000D01*
X132195000Y-100440001D01*
X131945000Y-100440001D01*
X131944999Y-100440000D01*
X131600299Y-100440000D01*
X131541963Y-100451603D01*
X131475810Y-100495806D01*
X131475806Y-100495810D01*
X131431603Y-100561963D01*
X131420000Y-100620299D01*
X130480000Y-100620299D01*
X130480000Y-100579512D01*
X130498907Y-100521321D01*
X130528770Y-100494201D01*
X134417000Y-98205000D01*
X137917222Y-98205000D01*
X137920213Y-98213228D01*
G37*
%TD.AperFunction*%
%TD*%
%TA.AperFunction,Conductor*%
%TO.N,/Buck-Boost3.3V/Buck-Boost_INPUT*%
G36*
X124368539Y-98742062D02*
G01*
X124394151Y-98751504D01*
X127532707Y-100431603D01*
X127701722Y-100522078D01*
X127744102Y-100566210D01*
X127754000Y-100609359D01*
X127754000Y-101479600D01*
X127735093Y-101537791D01*
X127685593Y-101573755D01*
X127655000Y-101578600D01*
X126103003Y-101578600D01*
X126044812Y-101559693D01*
X126008848Y-101510193D01*
X126005905Y-101460286D01*
X126009999Y-101439700D01*
X126010000Y-101439697D01*
X126010000Y-101145001D01*
X126009999Y-101145000D01*
X124710001Y-101145000D01*
X124710000Y-101145001D01*
X124710000Y-101439700D01*
X124714095Y-101460286D01*
X124706903Y-101521047D01*
X124665370Y-101565977D01*
X124616997Y-101578600D01*
X123728206Y-101578600D01*
X123670015Y-101559693D01*
X123634051Y-101510193D01*
X123634051Y-101449007D01*
X123669418Y-101399945D01*
X123742787Y-101345795D01*
X123742792Y-101345790D01*
X123823345Y-101236647D01*
X123868149Y-101108601D01*
X123870999Y-101078211D01*
X123871000Y-101078210D01*
X123871000Y-100811501D01*
X123870999Y-100811500D01*
X122021002Y-100811500D01*
X122021001Y-100811501D01*
X122021001Y-101078203D01*
X122023850Y-101108600D01*
X122023850Y-101108602D01*
X122068654Y-101236647D01*
X122149207Y-101345790D01*
X122149212Y-101345795D01*
X122222582Y-101399945D01*
X122258175Y-101449713D01*
X122257717Y-101510896D01*
X122221384Y-101560126D01*
X122163794Y-101578600D01*
X120532916Y-101578600D01*
X120474725Y-101559693D01*
X120438974Y-101510838D01*
X120136199Y-100600299D01*
X124710000Y-100600299D01*
X124710000Y-100894999D01*
X124710001Y-100895000D01*
X125234999Y-100895000D01*
X125235000Y-100894999D01*
X125235000Y-100420001D01*
X125485000Y-100420001D01*
X125485000Y-100894999D01*
X125485001Y-100895000D01*
X126009999Y-100895000D01*
X126010000Y-100894999D01*
X126010000Y-100600302D01*
X126009999Y-100600299D01*
X125998396Y-100541963D01*
X125954193Y-100475810D01*
X125954189Y-100475806D01*
X125888036Y-100431603D01*
X125829700Y-100420000D01*
X125485001Y-100420000D01*
X125485000Y-100420001D01*
X125235000Y-100420001D01*
X125234999Y-100420000D01*
X124890299Y-100420000D01*
X124831963Y-100431603D01*
X124765810Y-100475806D01*
X124765806Y-100475810D01*
X124721603Y-100541963D01*
X124710000Y-100600299D01*
X120136199Y-100600299D01*
X120094804Y-100475810D01*
X120034610Y-100294788D01*
X122021000Y-100294788D01*
X122021000Y-100561499D01*
X122021001Y-100561500D01*
X122820999Y-100561500D01*
X122821000Y-100561499D01*
X122821000Y-99899001D01*
X123071000Y-99899001D01*
X123071000Y-100561499D01*
X123071001Y-100561500D01*
X123870998Y-100561500D01*
X123870999Y-100561499D01*
X123870999Y-100294796D01*
X123868149Y-100264399D01*
X123868149Y-100264397D01*
X123823345Y-100136352D01*
X123742792Y-100027209D01*
X123742790Y-100027207D01*
X123633647Y-99946654D01*
X123505601Y-99901850D01*
X123475211Y-99899000D01*
X123071001Y-99899000D01*
X123071000Y-99899001D01*
X122821000Y-99899001D01*
X122820999Y-99899000D01*
X122416796Y-99899000D01*
X122386399Y-99901850D01*
X122386397Y-99901850D01*
X122258352Y-99946654D01*
X122149209Y-100027207D01*
X122149207Y-100027209D01*
X122068654Y-100136352D01*
X122023850Y-100264398D01*
X122021000Y-100294788D01*
X120034610Y-100294788D01*
X119950465Y-100041737D01*
X119950047Y-99980556D01*
X119952558Y-99973566D01*
X120427765Y-98792793D01*
X120467030Y-98745871D01*
X120497177Y-98733331D01*
X122330266Y-98307053D01*
X122373798Y-98306757D01*
X124368539Y-98742062D01*
G37*
%TD.AperFunction*%
%TD*%
%TA.AperFunction,Conductor*%
%TO.N,Net-(U5-L1)*%
G36*
X128344800Y-93636873D02*
G01*
X128857710Y-93951034D01*
X128897456Y-93997550D01*
X128905000Y-94035455D01*
X128905000Y-99738764D01*
X128904005Y-99752765D01*
X128810114Y-100410001D01*
X128783167Y-100464933D01*
X128755367Y-100479633D01*
X128740000Y-100495001D01*
X128740000Y-101021000D01*
X128735155Y-101035911D01*
X128735155Y-101051593D01*
X128725938Y-101064278D01*
X128721093Y-101079191D01*
X128708407Y-101088407D01*
X128699191Y-101101093D01*
X128684278Y-101105938D01*
X128671593Y-101115155D01*
X128641000Y-101120000D01*
X128599000Y-101120000D01*
X128540809Y-101101093D01*
X128504845Y-101051593D01*
X128500000Y-101021000D01*
X128500000Y-100495001D01*
X128499999Y-100495000D01*
X128480299Y-100495000D01*
X128421963Y-100506603D01*
X128412959Y-100510334D01*
X128412018Y-100508063D01*
X128366554Y-100520881D01*
X128342117Y-100516817D01*
X128327837Y-100512552D01*
X128318231Y-100506133D01*
X128282650Y-100499055D01*
X128278189Y-100497723D01*
X128266179Y-100489429D01*
X128240328Y-100476480D01*
X128183906Y-100425746D01*
X128166396Y-100410001D01*
X126982000Y-99345000D01*
X126593093Y-99013306D01*
X125307757Y-97917060D01*
X125275751Y-97864913D01*
X125273000Y-97841735D01*
X125273000Y-96361486D01*
X126093600Y-96361486D01*
X126093600Y-98166185D01*
X126105203Y-98224521D01*
X126149406Y-98290674D01*
X126149410Y-98290678D01*
X126215563Y-98334881D01*
X126273899Y-98346484D01*
X126273903Y-98346485D01*
X127230599Y-98346485D01*
X127230600Y-98346484D01*
X127230600Y-96361486D01*
X127480600Y-96361486D01*
X127480600Y-98346484D01*
X127480601Y-98346485D01*
X128437297Y-98346485D01*
X128437300Y-98346484D01*
X128495636Y-98334881D01*
X128561789Y-98290678D01*
X128561793Y-98290674D01*
X128605996Y-98224521D01*
X128617599Y-98166185D01*
X128617600Y-98166182D01*
X128617600Y-96361486D01*
X128617599Y-96361485D01*
X127480601Y-96361485D01*
X127480600Y-96361486D01*
X127230600Y-96361486D01*
X127230599Y-96361485D01*
X126093601Y-96361485D01*
X126093600Y-96361486D01*
X125273000Y-96361486D01*
X125273000Y-94487171D01*
X125291907Y-94428980D01*
X125314579Y-94406525D01*
X125454662Y-94306784D01*
X126093600Y-94306784D01*
X126093600Y-96111484D01*
X126093601Y-96111485D01*
X127230599Y-96111485D01*
X127230600Y-96111484D01*
X127230600Y-94126486D01*
X127480600Y-94126486D01*
X127480600Y-96111484D01*
X127480601Y-96111485D01*
X128617599Y-96111485D01*
X128617600Y-96111484D01*
X128617600Y-94306787D01*
X128617599Y-94306784D01*
X128605996Y-94248448D01*
X128561793Y-94182295D01*
X128561789Y-94182291D01*
X128495636Y-94138088D01*
X128437300Y-94126485D01*
X127480601Y-94126485D01*
X127480600Y-94126486D01*
X127230600Y-94126486D01*
X127230599Y-94126485D01*
X126273899Y-94126485D01*
X126215563Y-94138088D01*
X126149410Y-94182291D01*
X126149406Y-94182295D01*
X126105203Y-94248448D01*
X126093600Y-94306784D01*
X125454662Y-94306784D01*
X125574752Y-94221278D01*
X125851848Y-94023980D01*
X126390222Y-93640649D01*
X126447643Y-93622296D01*
X128293092Y-93622296D01*
X128344800Y-93636873D01*
G37*
%TD.AperFunction*%
%TD*%
%TA.AperFunction,Conductor*%
%TO.N,GND*%
G36*
X127259683Y-101851988D02*
G01*
X127295661Y-101901478D01*
X127295678Y-101962663D01*
X127278916Y-101993823D01*
X127225300Y-102061053D01*
X127205000Y-102150000D01*
X127205000Y-102440008D01*
X127210139Y-102485615D01*
X127254565Y-102577865D01*
X127251723Y-102579233D01*
X127266902Y-102619688D01*
X127250619Y-102678667D01*
X127245403Y-102685846D01*
X127225300Y-102711053D01*
X127205000Y-102800000D01*
X127205000Y-103090008D01*
X127210139Y-103135615D01*
X127249725Y-103217815D01*
X127321054Y-103274699D01*
X127410000Y-103295000D01*
X127563406Y-103295000D01*
X127621597Y-103313907D01*
X127657561Y-103363407D01*
X127657561Y-103424593D01*
X127638485Y-103458530D01*
X125436283Y-106020746D01*
X125384015Y-106052552D01*
X125375113Y-106054234D01*
X123634996Y-106301155D01*
X123608972Y-106301393D01*
X121596152Y-106053211D01*
X121540712Y-106027325D01*
X121537822Y-106024514D01*
X120478053Y-104951256D01*
X120454694Y-104913348D01*
X119994336Y-103548999D01*
X119949678Y-103416648D01*
X119948990Y-103355470D01*
X119949661Y-103353401D01*
X120439283Y-101902324D01*
X120475800Y-101853236D01*
X120533054Y-101834979D01*
X122213243Y-101834505D01*
X122271436Y-101853396D01*
X122307414Y-101902886D01*
X122307431Y-101964071D01*
X122271481Y-102013581D01*
X122259536Y-102021028D01*
X122258360Y-102021649D01*
X122149209Y-102102207D01*
X122149207Y-102102209D01*
X122068654Y-102211352D01*
X122023850Y-102339398D01*
X122021000Y-102369788D01*
X122021000Y-103153203D01*
X122023850Y-103183600D01*
X122023850Y-103183602D01*
X122068654Y-103311647D01*
X122149207Y-103420790D01*
X122149209Y-103420792D01*
X122258352Y-103501345D01*
X122386398Y-103546149D01*
X122416789Y-103548999D01*
X123475203Y-103548999D01*
X123505600Y-103546149D01*
X123505602Y-103546149D01*
X123633647Y-103501345D01*
X123742790Y-103420792D01*
X123742792Y-103420790D01*
X123823345Y-103311647D01*
X123868149Y-103183601D01*
X123870999Y-103153211D01*
X123870999Y-102369796D01*
X123868149Y-102339399D01*
X123868149Y-102339397D01*
X123823345Y-102211352D01*
X123742792Y-102102209D01*
X123742790Y-102102207D01*
X123633644Y-102021653D01*
X123631688Y-102020619D01*
X123630285Y-102019174D01*
X123627676Y-102017248D01*
X123627995Y-102016814D01*
X123589076Y-101976711D01*
X123580411Y-101916143D01*
X123609002Y-101862048D01*
X123663928Y-101835090D01*
X123677909Y-101834092D01*
X124622454Y-101833826D01*
X124680649Y-101852717D01*
X124716627Y-101902207D01*
X124719579Y-101952138D01*
X124710000Y-102000294D01*
X124710000Y-102839700D01*
X124721603Y-102898036D01*
X124765806Y-102964189D01*
X124765810Y-102964193D01*
X124831963Y-103008396D01*
X124890299Y-103019999D01*
X124890303Y-103020000D01*
X125829697Y-103020000D01*
X125829700Y-103019999D01*
X125888036Y-103008396D01*
X125954189Y-102964193D01*
X125954193Y-102964189D01*
X125998396Y-102898036D01*
X126009999Y-102839700D01*
X126010000Y-102839697D01*
X126010000Y-102000302D01*
X126009999Y-102000299D01*
X126000337Y-101951723D01*
X126007529Y-101890962D01*
X126049061Y-101846032D01*
X126097402Y-101833410D01*
X127201492Y-101833098D01*
X127259683Y-101851988D01*
G37*
%TD.AperFunction*%
%TA.AperFunction,Conductor*%
G36*
X131336828Y-101833156D02*
G01*
X131395006Y-101852077D01*
X131430957Y-101901587D01*
X131430943Y-101951891D01*
X131433506Y-101952401D01*
X131420000Y-102020299D01*
X131420000Y-102859700D01*
X131431603Y-102918036D01*
X131475806Y-102984189D01*
X131475810Y-102984193D01*
X131541963Y-103028396D01*
X131600299Y-103039999D01*
X131600303Y-103040000D01*
X132539697Y-103040000D01*
X132539700Y-103039999D01*
X132598036Y-103028396D01*
X132664189Y-102984193D01*
X132664193Y-102984189D01*
X132708396Y-102918036D01*
X132719999Y-102859700D01*
X132720000Y-102859697D01*
X132720000Y-102020302D01*
X132719999Y-102020299D01*
X132706494Y-101952401D01*
X132710434Y-101951617D01*
X132707084Y-101909526D01*
X132739006Y-101857328D01*
X132795513Y-101833862D01*
X132803343Y-101833552D01*
X133560718Y-101833756D01*
X133618899Y-101852678D01*
X133654850Y-101902188D01*
X133654833Y-101963373D01*
X133652153Y-101970636D01*
X133651604Y-101971960D01*
X133640000Y-102030299D01*
X133640000Y-102869700D01*
X133651603Y-102928036D01*
X133695806Y-102994189D01*
X133695810Y-102994193D01*
X133761963Y-103038396D01*
X133820299Y-103049999D01*
X133820303Y-103050000D01*
X134759697Y-103050000D01*
X134759700Y-103049999D01*
X134818036Y-103038396D01*
X134884189Y-102994193D01*
X134884193Y-102994189D01*
X134928396Y-102928036D01*
X134939999Y-102869700D01*
X134940000Y-102869697D01*
X134940000Y-102030302D01*
X134939999Y-102030299D01*
X134928396Y-101971963D01*
X134928013Y-101971039D01*
X134927882Y-101969381D01*
X134926494Y-101962401D01*
X134927319Y-101962236D01*
X134923209Y-101910042D01*
X134955176Y-101857872D01*
X135011703Y-101834455D01*
X135019477Y-101834149D01*
X135756385Y-101834348D01*
X135814568Y-101853271D01*
X135850519Y-101902781D01*
X135853454Y-101952662D01*
X135840000Y-102020299D01*
X135840000Y-102859700D01*
X135851603Y-102918036D01*
X135895806Y-102984189D01*
X135895810Y-102984193D01*
X135961963Y-103028396D01*
X136020299Y-103039999D01*
X136020303Y-103040000D01*
X136959697Y-103040000D01*
X136959700Y-103039999D01*
X137018036Y-103028396D01*
X137084189Y-102984193D01*
X137084193Y-102984189D01*
X137128396Y-102918036D01*
X137139999Y-102859700D01*
X137140000Y-102859697D01*
X137140000Y-102020302D01*
X137139999Y-102020301D01*
X137126624Y-101953059D01*
X137133816Y-101892297D01*
X137175348Y-101847367D01*
X137223746Y-101834744D01*
X137841503Y-101834911D01*
X137899687Y-101853834D01*
X137935638Y-101903344D01*
X137937279Y-101908959D01*
X138347517Y-103484108D01*
X138347547Y-103533897D01*
X137924704Y-105165416D01*
X137899187Y-105210268D01*
X137085464Y-106031323D01*
X137031072Y-106059345D01*
X137028991Y-106059661D01*
X135319174Y-106301139D01*
X135292802Y-106301316D01*
X133394344Y-106059126D01*
X133339014Y-106033007D01*
X133338438Y-106032461D01*
X130655025Y-103465539D01*
X130626045Y-103411652D01*
X130634274Y-103351023D01*
X130676568Y-103306809D01*
X130723459Y-103295000D01*
X130829992Y-103295000D01*
X130830008Y-103294999D01*
X130875615Y-103289860D01*
X130957815Y-103250274D01*
X131014699Y-103178945D01*
X131035000Y-103089999D01*
X131035000Y-102800008D01*
X131034999Y-102799991D01*
X131029860Y-102754384D01*
X130985435Y-102662135D01*
X130988276Y-102660766D01*
X130973097Y-102620315D01*
X130989378Y-102561335D01*
X130994598Y-102554151D01*
X131014699Y-102528946D01*
X131035000Y-102439999D01*
X131035000Y-102150008D01*
X131034999Y-102149991D01*
X131029860Y-102104384D01*
X130990274Y-102022185D01*
X130974336Y-102009474D01*
X130940629Y-101958410D01*
X130943375Y-101897286D01*
X130981524Y-101849450D01*
X131036081Y-101833075D01*
X131336828Y-101833156D01*
G37*
%TD.AperFunction*%
%TD*%
%TA.AperFunction,Conductor*%
%TO.N,Net-(U5-L2)*%
G36*
X131900765Y-93641203D02*
G01*
X131903998Y-93643655D01*
X132931624Y-94456640D01*
X132965529Y-94507571D01*
X132969200Y-94534280D01*
X132969200Y-97821641D01*
X132950293Y-97879832D01*
X132935866Y-97895729D01*
X131312214Y-99334809D01*
X131311777Y-99335194D01*
X130245952Y-100268722D01*
X130222842Y-100283842D01*
X130214858Y-100287595D01*
X130193261Y-100293382D01*
X130156150Y-100314808D01*
X130152549Y-100316886D01*
X130152549Y-100316887D01*
X130119037Y-100336235D01*
X130119036Y-100336236D01*
X130064081Y-100391189D01*
X130064076Y-100391196D01*
X129977169Y-100478102D01*
X129926482Y-100505195D01*
X129921768Y-100506132D01*
X129912760Y-100509864D01*
X129911920Y-100507837D01*
X129865650Y-100520880D01*
X129827773Y-100508573D01*
X129827044Y-100510335D01*
X129818036Y-100506603D01*
X129759700Y-100495000D01*
X129740001Y-100495000D01*
X129740000Y-100495001D01*
X129740000Y-101021000D01*
X129735155Y-101035911D01*
X129735155Y-101051593D01*
X129725938Y-101064278D01*
X129721093Y-101079191D01*
X129708407Y-101088407D01*
X129699191Y-101101093D01*
X129684278Y-101105938D01*
X129671593Y-101115155D01*
X129641000Y-101120000D01*
X129599000Y-101120000D01*
X129540809Y-101101093D01*
X129504845Y-101051593D01*
X129500000Y-101021000D01*
X129500000Y-100495001D01*
X129485708Y-100480709D01*
X129471500Y-100476093D01*
X129435536Y-100426593D01*
X129431686Y-100410001D01*
X129337795Y-99752764D01*
X129336800Y-99738763D01*
X129336800Y-96361486D01*
X129649600Y-96361486D01*
X129649600Y-98166185D01*
X129661203Y-98224521D01*
X129705406Y-98290674D01*
X129705410Y-98290678D01*
X129771563Y-98334881D01*
X129829899Y-98346484D01*
X129829903Y-98346485D01*
X130786599Y-98346485D01*
X130786600Y-98346484D01*
X130786600Y-96361486D01*
X131036600Y-96361486D01*
X131036600Y-98346484D01*
X131036601Y-98346485D01*
X131993297Y-98346485D01*
X131993300Y-98346484D01*
X132051636Y-98334881D01*
X132117789Y-98290678D01*
X132117793Y-98290674D01*
X132161996Y-98224521D01*
X132173599Y-98166185D01*
X132173600Y-98166182D01*
X132173600Y-96361486D01*
X132173599Y-96361485D01*
X131036601Y-96361485D01*
X131036600Y-96361486D01*
X130786600Y-96361486D01*
X130786599Y-96361485D01*
X129649601Y-96361485D01*
X129649600Y-96361486D01*
X129336800Y-96361486D01*
X129336800Y-94306784D01*
X129649600Y-94306784D01*
X129649600Y-96111484D01*
X129649601Y-96111485D01*
X130786599Y-96111485D01*
X130786600Y-96111484D01*
X130786600Y-94126486D01*
X131036600Y-94126486D01*
X131036600Y-96111484D01*
X131036601Y-96111485D01*
X132173599Y-96111485D01*
X132173600Y-96111484D01*
X132173600Y-94306787D01*
X132173599Y-94306784D01*
X132161996Y-94248448D01*
X132117793Y-94182295D01*
X132117789Y-94182291D01*
X132051636Y-94138088D01*
X131993300Y-94126485D01*
X131036601Y-94126485D01*
X131036600Y-94126486D01*
X130786600Y-94126486D01*
X130786599Y-94126485D01*
X129829899Y-94126485D01*
X129771563Y-94138088D01*
X129705410Y-94182291D01*
X129705406Y-94182295D01*
X129661203Y-94248448D01*
X129649600Y-94306784D01*
X129336800Y-94306784D01*
X129336800Y-94041551D01*
X129355707Y-93983360D01*
X129386810Y-93955522D01*
X129949223Y-93635266D01*
X129998211Y-93622296D01*
X131842574Y-93622296D01*
X131900765Y-93641203D01*
G37*
%TD.AperFunction*%
%TD*%
M02*
