%TF.GenerationSoftware,KiCad,Pcbnew,9.0.1*%
%TF.CreationDate,2025-06-18T09:55:25+02:00*%
%TF.ProjectId,MY-ESP32,4d592d45-5350-4333-922e-6b696361645f,1*%
%TF.SameCoordinates,Original*%
%TF.FileFunction,Copper,L2,Inr*%
%TF.FilePolarity,Positive*%
%FSLAX46Y46*%
G04 Gerber Fmt 4.6, Leading zero omitted, Abs format (unit mm)*
G04 Created by KiCad (PCBNEW 9.0.1) date 2025-06-18 09:55:25*
%MOMM*%
%LPD*%
G01*
G04 APERTURE LIST*
%TA.AperFunction,ComponentPad*%
%ADD10R,1.700000X1.700000*%
%TD*%
%TA.AperFunction,ComponentPad*%
%ADD11C,1.700000*%
%TD*%
%TA.AperFunction,ComponentPad*%
%ADD12R,1.800000X1.800000*%
%TD*%
%TA.AperFunction,ComponentPad*%
%ADD13C,1.600000*%
%TD*%
%TA.AperFunction,ComponentPad*%
%ADD14R,0.900000X0.900000*%
%TD*%
%TA.AperFunction,ComponentPad*%
%ADD15C,1.400000*%
%TD*%
%TA.AperFunction,ComponentPad*%
%ADD16R,1.575000X1.575000*%
%TD*%
%TA.AperFunction,ComponentPad*%
%ADD17C,1.575000*%
%TD*%
%TA.AperFunction,ComponentPad*%
%ADD18C,1.800000*%
%TD*%
%TA.AperFunction,ComponentPad*%
%ADD19O,2.500000X1.200000*%
%TD*%
%TA.AperFunction,ComponentPad*%
%ADD20C,3.575000*%
%TD*%
%TA.AperFunction,ViaPad*%
%ADD21C,0.900000*%
%TD*%
%TA.AperFunction,Conductor*%
%ADD22C,0.508000*%
%TD*%
%TA.AperFunction,Conductor*%
%ADD23C,0.250000*%
%TD*%
%TA.AperFunction,Conductor*%
%ADD24C,0.355600*%
%TD*%
G04 APERTURE END LIST*
D10*
%TO.N,GND*%
%TO.C,H5*%
X105333800Y-133835800D03*
D11*
%TO.N,EXT_5V*%
X107873800Y-133835800D03*
%TD*%
D12*
%TO.N,GND*%
%TO.C,H4*%
X147320000Y-133835800D03*
D13*
%TO.N,+3V3*%
X149860000Y-133835800D03*
%TO.N,IO0*%
X152400000Y-133835800D03*
%TO.N,D19*%
X154940000Y-133835800D03*
%TO.N,D23*%
X157480000Y-133835800D03*
D12*
%TO.N,GND*%
X160020000Y-133835800D03*
%TD*%
D14*
%TO.N,GND*%
%TO.C,U6*%
X131854600Y-50475800D03*
X131874600Y-46780200D03*
X131874600Y-52305800D03*
X131875200Y-48633400D03*
X133764600Y-48635800D03*
X133764600Y-50475800D03*
X133764600Y-52335800D03*
X133779000Y-46781200D03*
X135594600Y-46795800D03*
X135604600Y-48645800D03*
X135604600Y-50475800D03*
X135604600Y-52345800D03*
X137494600Y-46780200D03*
X137504600Y-48633400D03*
X137512800Y-50462200D03*
X137514600Y-52335800D03*
%TD*%
D15*
%TO.N,/Battery_Voltage_Monitor_with_MOSFETS/V_Batt_Monitor_INPUT*%
%TO.C,U2*%
X101734600Y-89225800D03*
%TO.N,GND*%
X101734600Y-91225800D03*
%TD*%
D16*
%TO.N,D12*%
%TO.C,H1*%
X143592800Y-108639000D03*
D17*
%TO.N,D15*%
X143592800Y-106099000D03*
%TO.N,D14*%
X143592800Y-103559000D03*
%TD*%
D12*
%TO.N,VBAT*%
%TO.C,SW3*%
X103874600Y-78705800D03*
D18*
%TO.N,Net-(D2-C)*%
X103874600Y-75705800D03*
%TO.N,unconnected-(SW3-Pad3)*%
X103874600Y-72705800D03*
D19*
%TO.N,GND*%
X103874600Y-69905800D03*
X103874600Y-81505800D03*
%TD*%
D10*
%TO.N,SENSOR_VN*%
%TO.C,H6*%
X180898800Y-50774600D03*
D11*
%TO.N,SENSOR_VP*%
X180898800Y-48234600D03*
%TD*%
D20*
%TO.N,*%
%TO.C,U4*%
X177140200Y-87079300D03*
X161906200Y-87079300D03*
D17*
%TO.N,+3V3*%
X177146200Y-68561800D03*
D16*
%TO.N,GND*%
X174606200Y-68560800D03*
D17*
%TO.N,D22*%
X172066200Y-68559800D03*
%TO.N,D21*%
X169526200Y-68558800D03*
%TO.N,unconnected-(U4-INT-Pad5)*%
X166986200Y-68557800D03*
%TO.N,unconnected-(U4-RST-Pad6)*%
X164446200Y-68556800D03*
%TO.N,unconnected-(U4-32K-Pad7)*%
X161906200Y-68555800D03*
%TD*%
D16*
%TO.N,GND*%
%TO.C,H2*%
X135972800Y-108639000D03*
D17*
%TO.N,3V3_ON_OFF*%
X135972800Y-106099000D03*
%TO.N,D2*%
X135972800Y-103559000D03*
%TD*%
D12*
%TO.N,GND*%
%TO.C,H3*%
X111683800Y-133835800D03*
D13*
%TO.N,3V3_ON_OFF*%
X114223800Y-133835800D03*
%TO.N,D13*%
X116763800Y-133835800D03*
%TO.N,D32*%
X119303800Y-133835800D03*
%TO.N,D35*%
X121843800Y-133835800D03*
D12*
%TO.N,GND*%
X124383800Y-133835800D03*
%TD*%
D21*
%TO.N,GND*%
X118592600Y-67868800D03*
X108456200Y-115903400D03*
X98228400Y-102035000D03*
X103816400Y-59085000D03*
X173590200Y-115573200D03*
X98279200Y-105133800D03*
X122206000Y-94491200D03*
X148774400Y-76562800D03*
X142294400Y-133954500D03*
X129466500Y-133775800D03*
X110090200Y-100982550D03*
X130483400Y-125648700D03*
X103181400Y-116157400D03*
X148710900Y-93360900D03*
X178308000Y-105029000D03*
X98253800Y-98783800D03*
X134764600Y-85675800D03*
X143618200Y-86337800D03*
X142751600Y-126537700D03*
X177825400Y-94157800D03*
X139026600Y-87840800D03*
X130704600Y-85365800D03*
X106414600Y-104945800D03*
X104662400Y-124107600D03*
X177342800Y-115646200D03*
X112528600Y-83289800D03*
X129546600Y-109629600D03*
X162515800Y-115598600D03*
X178460400Y-114528600D03*
X166300400Y-115624000D03*
X146209000Y-85880600D03*
X137265200Y-114709600D03*
X164497000Y-115751000D03*
X134626600Y-96878800D03*
X149358600Y-61953800D03*
%TO.N,IO0*%
X146412200Y-58550200D03*
X142018000Y-57712000D03*
X110826800Y-93119600D03*
%TO.N,ENA*%
X98311200Y-67973600D03*
X97187000Y-83670800D03*
%TO.N,+3V3*%
X113798600Y-118570400D03*
X134677400Y-92535400D03*
X120555000Y-97996400D03*
X140468600Y-86545000D03*
X140758800Y-68674000D03*
X113790200Y-110696400D03*
X128479800Y-43314200D03*
X146209000Y-80699000D03*
X165868600Y-109782000D03*
X177146200Y-66017800D03*
X174080400Y-93940000D03*
X107143800Y-111229800D03*
%TO.N,D15*%
X143024600Y-61105800D03*
%TO.N,D2*%
X132924800Y-72367800D03*
X130444600Y-115598600D03*
%TO.N,D14*%
X131165600Y-57023000D03*
%TO.N,/Battery_Voltage_Monitor_with_MOSFETS/V_Batt_Monitor_INPUT*%
X99320600Y-81308600D03*
%TO.N,EXT_5V*%
X114375000Y-124387000D03*
X115287525Y-78794000D03*
X98054900Y-117630600D03*
X106788200Y-122786800D03*
%TO.N,D12*%
X141408400Y-107699200D03*
X131395900Y-58748500D03*
%TO.N,D13*%
X124796800Y-61090200D03*
%TO.N,D4*%
X147047200Y-56111800D03*
X151466800Y-94465800D03*
%TO.N,D26*%
X123349000Y-54735800D03*
X121164600Y-59817000D03*
%TO.N,D27*%
X122804600Y-60912400D03*
X124695200Y-55975800D03*
%TO.N,D22*%
X147707600Y-46891600D03*
X163760400Y-104321000D03*
X172313600Y-110210600D03*
X154413200Y-48974400D03*
X170999400Y-92586200D03*
%TO.N,D23*%
X147834600Y-44732600D03*
%TO.N,D21*%
X164014400Y-108512000D03*
X169526200Y-90198600D03*
X146437600Y-48395800D03*
X154438600Y-52174800D03*
X174530000Y-108385000D03*
%TO.N,D5*%
X167468800Y-83213600D03*
X150120600Y-65814600D03*
X180740300Y-84191500D03*
X149028400Y-56111800D03*
%TO.N,D19*%
X148393400Y-50945800D03*
%TO.N,D18*%
X128778000Y-97993200D03*
X131502400Y-63833400D03*
%TO.N,D33*%
X119589800Y-58420000D03*
X121333300Y-54477100D03*
%TO.N,D35*%
X129444600Y-55705400D03*
%TO.N,D32*%
X124720600Y-50904800D03*
%TO.N,DN*%
X104121200Y-100710850D03*
X104121200Y-103377850D03*
%TO.N,/micro_SD-CARD_enable/3V3_Input_to_micro_SD-CARD*%
X134395000Y-113863100D03*
X138230400Y-117579800D03*
X128829600Y-117071800D03*
X131626400Y-116834900D03*
X138220700Y-108880300D03*
X140774600Y-114938200D03*
%TO.N,D25*%
X112050600Y-53427800D03*
X124746000Y-53474200D03*
%TO.N,D-*%
X105451149Y-99101050D03*
X108871000Y-102503850D03*
%TO.N,TXD0*%
X109379000Y-84407400D03*
X114306600Y-98087600D03*
X106204000Y-84356600D03*
X141647800Y-45204400D03*
%TO.N,RXD0*%
X113011200Y-98300950D03*
X141789600Y-47124200D03*
%TO.N,/Buck-Boost3.3V/Buck-Boost_INPUT*%
X130905700Y-81985700D03*
X137921567Y-86533967D03*
%TO.N,3V3_ON_OFF*%
X132467600Y-105819600D03*
%TO.N,SENSOR_VN*%
X133356600Y-43208600D03*
%TO.N,SENSOR_VP*%
X130689600Y-43056200D03*
%TD*%
D22*
%TO.N,+3V3*%
X140468600Y-89122000D02*
X140468600Y-87503000D01*
X113790200Y-112437900D02*
X113790200Y-118562000D01*
X149860000Y-125790600D02*
X165868600Y-109782000D01*
X113790200Y-118562000D02*
X113798600Y-118570400D01*
X149860000Y-132235600D02*
X149860000Y-125790600D01*
X128479800Y-51971600D02*
X128454400Y-51997000D01*
X140758800Y-68703600D02*
X140758800Y-68674000D01*
X174098200Y-93922200D02*
X174098200Y-83188200D01*
X128454400Y-51997000D02*
X139833600Y-63376200D01*
X177146200Y-80140200D02*
X177146200Y-69954800D01*
X140468600Y-87503000D02*
X140468600Y-86545000D01*
X128479800Y-43314200D02*
X128479800Y-51971600D01*
X146310600Y-80800600D02*
X146209000Y-80699000D01*
X176384200Y-63376200D02*
X177197000Y-64189000D01*
X120555000Y-97996400D02*
X120555000Y-93719400D01*
X120555000Y-102746200D02*
X120555000Y-103508200D01*
X140758800Y-68674000D02*
X140773600Y-68688800D01*
X140284600Y-68199800D02*
X140758800Y-68674000D01*
X113790200Y-110635100D02*
X116341850Y-108083450D01*
X116341850Y-108083450D02*
X116875250Y-107550050D01*
X134677400Y-92535400D02*
X137055200Y-92535400D01*
X113333600Y-112416400D02*
X113768700Y-112416400D01*
X177197000Y-65967000D02*
X177146200Y-66017800D01*
X120555000Y-103870300D02*
X120555000Y-103813000D01*
X140284600Y-64544600D02*
X140284600Y-63827200D01*
X174047400Y-93957800D02*
X174062600Y-93957800D01*
X113768700Y-112416400D02*
X113790200Y-112437900D01*
X140722600Y-63376200D02*
X176384200Y-63376200D01*
X140284600Y-63985800D02*
X140284600Y-63814200D01*
X177146200Y-69487400D02*
X177144600Y-69485800D01*
X113790200Y-112437900D02*
X113790200Y-112398200D01*
X121739000Y-92535400D02*
X134677400Y-92535400D01*
X177146200Y-69954800D02*
X177146200Y-69700800D01*
X140284600Y-63376200D02*
X140722600Y-63376200D01*
X174062600Y-93957800D02*
X174080400Y-93940000D01*
X140284600Y-63827200D02*
X139833600Y-63376200D01*
X140284600Y-64544600D02*
X140284600Y-68199800D01*
X149860000Y-132769000D02*
X149987000Y-132896000D01*
X139833600Y-63376200D02*
X140284600Y-63376200D01*
X120555000Y-102746200D02*
X120555000Y-103017300D01*
X146310600Y-81918200D02*
X146310600Y-80800600D01*
X177146200Y-69700800D02*
X176917600Y-69472200D01*
X146005800Y-82227200D02*
X146005800Y-82223000D01*
X140468600Y-87503000D02*
X140468600Y-87097200D01*
X140758800Y-68674000D02*
X140581800Y-68674000D01*
X117408650Y-107016650D02*
X120555000Y-103870300D01*
X177146200Y-69954800D02*
X177146200Y-69487400D01*
X165868600Y-109782000D02*
X165868600Y-102136600D01*
X177197000Y-64189000D02*
X177197000Y-65967000D01*
X174080400Y-93940000D02*
X174098200Y-93922200D01*
X120555000Y-102746200D02*
X120555000Y-97996400D01*
X120555000Y-103813000D02*
X120555000Y-103508200D01*
X140284600Y-63985800D02*
X140284600Y-64544600D01*
X140284600Y-63814200D02*
X140722600Y-63376200D01*
X128479800Y-43314200D02*
X128505200Y-43288800D01*
X107143800Y-112416400D02*
X107143800Y-111280600D01*
X137055200Y-92535400D02*
X140468600Y-89122000D01*
X116875250Y-107550050D02*
X117408650Y-107016650D01*
X113790200Y-112398200D02*
X113790200Y-110696400D01*
X174098200Y-83188200D02*
X177146200Y-80140200D01*
X149860000Y-132235600D02*
X149860000Y-132769000D01*
X141688000Y-86545000D02*
X141020800Y-86545000D01*
X146005800Y-82227200D02*
X141688000Y-86545000D01*
X113790200Y-110696400D02*
X113790200Y-110635100D01*
X146005800Y-82223000D02*
X146310600Y-81918200D01*
X165868600Y-102136600D02*
X174047400Y-93957800D01*
X149860000Y-132235600D02*
X149860000Y-132896000D01*
X149860000Y-132769000D02*
X149733000Y-132896000D01*
X120555000Y-93719400D02*
X121739000Y-92535400D01*
X140468600Y-87097200D02*
X141020800Y-86545000D01*
X141020800Y-86545000D02*
X140496600Y-86545000D01*
X107143800Y-112416400D02*
X113333600Y-112416400D01*
X140284600Y-63376200D02*
X140284600Y-63985800D01*
%TO.N,/Battery_Voltage_Monitor_with_MOSFETS/V_Batt_Monitor_INPUT*%
X99320600Y-81308600D02*
X99320600Y-86660350D01*
X100844600Y-88415800D02*
X100844600Y-88319000D01*
X100844600Y-88319000D02*
X101107800Y-88319000D01*
X99320600Y-86795000D02*
X100844600Y-88319000D01*
X100844600Y-88415800D02*
X101064600Y-88635800D01*
X101107800Y-88319000D02*
X101254600Y-88465800D01*
X100844600Y-88319000D02*
X101098600Y-88319000D01*
X99320600Y-86660350D02*
X99320600Y-86795000D01*
%TO.N,EXT_5V*%
X107899200Y-123748800D02*
X107899200Y-123269400D01*
X107899200Y-123269400D02*
X108381800Y-122786800D01*
X107899200Y-123748800D02*
X107899200Y-123294800D01*
X98136100Y-117560800D02*
X98136100Y-117688000D01*
X98054900Y-117630600D02*
X98054900Y-117606800D01*
X107899200Y-132515000D02*
X107899200Y-132870600D01*
X100793200Y-114868500D02*
X100793200Y-111255800D01*
X116313200Y-79886200D02*
X115297200Y-78870200D01*
X100793200Y-111255800D02*
X102368600Y-109680400D01*
X98054900Y-117606800D02*
X100793200Y-114868500D01*
X111207800Y-122786800D02*
X110826800Y-122786800D01*
X107899200Y-132515000D02*
X107899200Y-132743600D01*
X115297200Y-78870200D02*
X115287525Y-78870200D01*
X107391200Y-122786800D02*
X107899200Y-122786800D01*
X107899200Y-123748800D02*
X107899200Y-122786800D01*
X109658400Y-122786800D02*
X110395000Y-122786800D01*
X107899200Y-123294800D02*
X107391200Y-122786800D01*
X110395000Y-122786800D02*
X111207800Y-122786800D01*
X102368600Y-109680400D02*
X110496600Y-109680400D01*
X108381800Y-122786800D02*
X109658400Y-122786800D01*
X110496600Y-109680400D02*
X116313200Y-103863800D01*
X114375000Y-124387000D02*
X114375000Y-124435800D01*
X107899200Y-132515000D02*
X107899200Y-123748800D01*
X111207800Y-122786800D02*
X112774800Y-122786800D01*
X107899200Y-132769000D02*
X108026200Y-132896000D01*
X98078700Y-117630600D02*
X98054900Y-117630600D01*
X107899200Y-122786800D02*
X108381800Y-122786800D01*
X109658400Y-122786800D02*
X109963200Y-122786800D01*
X112774800Y-122786800D02*
X114375000Y-124387000D01*
X106788200Y-122786800D02*
X107391200Y-122786800D01*
X116313200Y-103863800D02*
X116313200Y-79886200D01*
X107899200Y-132743600D02*
X107772200Y-132870600D01*
X98136100Y-117688000D02*
X98078700Y-117630600D01*
X107899200Y-132515000D02*
X107899200Y-132769000D01*
%TO.N,/micro_SD-CARD_enable/3V3_Input_to_micro_SD-CARD*%
X138220700Y-110052100D02*
X138544300Y-110375700D01*
X136582650Y-111676950D02*
X137909300Y-110350300D01*
X132570000Y-114447300D02*
X132641500Y-114447300D01*
D23*
X128839600Y-117075300D02*
X128829600Y-117085300D01*
D22*
X138544300Y-110375700D02*
X140774600Y-112606000D01*
X136581150Y-111676950D02*
X136582650Y-111676950D01*
X138230400Y-117579800D02*
X138230400Y-117489200D01*
X133226150Y-115031950D02*
X134395000Y-113863100D01*
X131626400Y-116834900D02*
X131626400Y-116631700D01*
X137934700Y-110375700D02*
X137909300Y-110350300D01*
X135864050Y-112394050D02*
X134395000Y-113863100D01*
D24*
X138230400Y-117579800D02*
X138230400Y-117464500D01*
D22*
X138230400Y-117489200D02*
X140774600Y-114945000D01*
X140774600Y-114945000D02*
X140774600Y-114917000D01*
X134395000Y-113863100D02*
X133810800Y-114447300D01*
X132570000Y-114447300D02*
X129718500Y-114447300D01*
X135864050Y-112394050D02*
X136581150Y-111676950D01*
X138208000Y-108867600D02*
X138220700Y-108880300D01*
X140774600Y-112606000D02*
X140774600Y-114938200D01*
X132641500Y-114447300D02*
X133226150Y-115031950D01*
X131626400Y-116631700D02*
X133226150Y-115031950D01*
X129718500Y-114447300D02*
X128829600Y-115336200D01*
X138220700Y-110038900D02*
X138220700Y-108880300D01*
X138544300Y-110375700D02*
X137934700Y-110375700D01*
X138220700Y-108880300D02*
X138220700Y-110052100D01*
X137909300Y-110350300D02*
X138220700Y-110038900D01*
X128829600Y-117071800D02*
X128829600Y-117085300D01*
X138208000Y-108867600D02*
X138233400Y-108867600D01*
X128829600Y-115336200D02*
X128829600Y-117071800D01*
X133810800Y-114447300D02*
X132570000Y-114447300D01*
X136325400Y-111932700D02*
X135864050Y-112394050D01*
%TO.N,/Buck-Boost3.3V/Buck-Boost_INPUT*%
X137389734Y-87065800D02*
X134194600Y-87065800D01*
X137955175Y-86500360D02*
X137921567Y-86533967D01*
X130893000Y-83764200D02*
X130893000Y-81998400D01*
X130893000Y-81998400D02*
X130905700Y-81985700D01*
X137921567Y-86533967D02*
X137389734Y-87065800D01*
X134194600Y-87065800D02*
X130893000Y-83764200D01*
%TO.N,3V3_ON_OFF*%
X133102600Y-105819600D02*
X132467600Y-106454600D01*
X133661400Y-105819600D02*
X133102600Y-105819600D01*
X133661400Y-105819600D02*
X134855200Y-105819600D01*
X114223800Y-132845200D02*
X114300000Y-132921400D01*
X114223800Y-132616600D02*
X114223800Y-128254400D01*
X134855200Y-105819600D02*
X135033000Y-105997400D01*
X132467600Y-106454600D02*
X132467600Y-105819600D01*
X135058400Y-105819600D02*
X135083800Y-105845000D01*
X134855200Y-105819600D02*
X135058400Y-105819600D01*
X132467600Y-105819600D02*
X133661400Y-105819600D01*
X114223800Y-132616600D02*
X114223800Y-132845200D01*
X114223800Y-128254400D02*
X132467600Y-110010600D01*
X114223800Y-132819800D02*
X114122200Y-132921400D01*
X135083800Y-105845000D02*
X135083800Y-105768800D01*
X135033000Y-105997400D02*
X135033000Y-106022800D01*
X114223800Y-132616600D02*
X114223800Y-132921400D01*
X114223800Y-132616600D02*
X114223800Y-132819800D01*
X132467600Y-110010600D02*
X132467600Y-106454600D01*
%TD*%
M02*
