%TF.GenerationSoftware,KiCad,Pcbnew,9.0.1*%
%TF.CreationDate,2025-06-06T16:35:30+02:00*%
%TF.ProjectId,MY-ESP32,4d592d45-5350-4333-922e-6b696361645f,rev?*%
%TF.SameCoordinates,Original*%
%TF.FileFunction,Copper,L1,Top*%
%TF.FilePolarity,Positive*%
%FSLAX46Y46*%
G04 Gerber Fmt 4.6, Leading zero omitted, Abs format (unit mm)*
G04 Created by KiCad (PCBNEW 9.0.1) date 2025-06-06 16:35:30*
%MOMM*%
%LPD*%
G01*
G04 APERTURE LIST*
G04 Aperture macros list*
%AMRoundRect*
0 Rectangle with rounded corners*
0 $1 Rounding radius*
0 $2 $3 $4 $5 $6 $7 $8 $9 X,Y pos of 4 corners*
0 Add a 4 corners polygon primitive as box body*
4,1,4,$2,$3,$4,$5,$6,$7,$8,$9,$2,$3,0*
0 Add four circle primitives for the rounded corners*
1,1,$1+$1,$2,$3*
1,1,$1+$1,$4,$5*
1,1,$1+$1,$6,$7*
1,1,$1+$1,$8,$9*
0 Add four rect primitives between the rounded corners*
20,1,$1+$1,$2,$3,$4,$5,0*
20,1,$1+$1,$4,$5,$6,$7,0*
20,1,$1+$1,$6,$7,$8,$9,0*
20,1,$1+$1,$8,$9,$2,$3,0*%
%AMFreePoly0*
4,1,21,-0.180000,0.885000,0.180000,0.885000,0.180000,1.715000,0.470000,1.715000,0.470000,0.885000,0.760000,0.885000,0.760000,-0.885000,0.470000,-0.885000,0.470000,-1.705000,0.180000,-1.705000,0.180000,-0.885000,-0.180000,-0.885000,-0.180000,-1.705000,-0.470000,-1.705000,-0.470000,-0.885000,-0.760000,-0.885000,-0.760000,0.895000,-0.470000,0.895000,-0.470000,1.715000,-0.180000,1.715000,
-0.180000,0.885000,-0.180000,0.885000,$1*%
G04 Aperture macros list end*
%TA.AperFunction,SMDPad,CuDef*%
%ADD10R,0.240000X0.850000*%
%TD*%
%TA.AperFunction,SMDPad,CuDef*%
%ADD11R,0.230000X0.800000*%
%TD*%
%TA.AperFunction,SMDPad,CuDef*%
%ADD12FreePoly0,270.000000*%
%TD*%
%TA.AperFunction,ComponentPad*%
%ADD13C,0.500000*%
%TD*%
%TA.AperFunction,SMDPad,CuDef*%
%ADD14R,1.207500X1.701000*%
%TD*%
%TA.AperFunction,SMDPad,CuDef*%
%ADD15R,1.250000X0.700000*%
%TD*%
%TA.AperFunction,SMDPad,CuDef*%
%ADD16R,2.300000X1.400000*%
%TD*%
%TA.AperFunction,SMDPad,CuDef*%
%ADD17RoundRect,0.125000X0.125000X-0.125000X0.125000X0.125000X-0.125000X0.125000X-0.125000X-0.125000X0*%
%TD*%
%TA.AperFunction,SMDPad,CuDef*%
%ADD18R,0.790000X0.540000*%
%TD*%
%TA.AperFunction,SMDPad,CuDef*%
%ADD19RoundRect,0.250000X-0.475000X0.337500X-0.475000X-0.337500X0.475000X-0.337500X0.475000X0.337500X0*%
%TD*%
%TA.AperFunction,ComponentPad*%
%ADD20R,1.800000X1.800000*%
%TD*%
%TA.AperFunction,ComponentPad*%
%ADD21C,1.600000*%
%TD*%
%TA.AperFunction,SMDPad,CuDef*%
%ADD22R,0.800000X0.800000*%
%TD*%
%TA.AperFunction,SMDPad,CuDef*%
%ADD23RoundRect,0.250000X-0.450000X0.350000X-0.450000X-0.350000X0.450000X-0.350000X0.450000X0.350000X0*%
%TD*%
%TA.AperFunction,ComponentPad*%
%ADD24R,1.700000X1.700000*%
%TD*%
%TA.AperFunction,ComponentPad*%
%ADD25C,1.700000*%
%TD*%
%TA.AperFunction,SMDPad,CuDef*%
%ADD26R,0.700000X1.250000*%
%TD*%
%TA.AperFunction,SMDPad,CuDef*%
%ADD27C,1.000000*%
%TD*%
%TA.AperFunction,SMDPad,CuDef*%
%ADD28RoundRect,0.250000X0.450000X-0.350000X0.450000X0.350000X-0.450000X0.350000X-0.450000X-0.350000X0*%
%TD*%
%TA.AperFunction,SMDPad,CuDef*%
%ADD29RoundRect,0.062500X-0.337500X-0.062500X0.337500X-0.062500X0.337500X0.062500X-0.337500X0.062500X0*%
%TD*%
%TA.AperFunction,SMDPad,CuDef*%
%ADD30RoundRect,0.062500X-0.062500X-0.337500X0.062500X-0.337500X0.062500X0.337500X-0.062500X0.337500X0*%
%TD*%
%TA.AperFunction,HeatsinkPad*%
%ADD31R,3.350000X3.350000*%
%TD*%
%TA.AperFunction,SMDPad,CuDef*%
%ADD32R,0.540000X0.565500*%
%TD*%
%TA.AperFunction,SMDPad,CuDef*%
%ADD33R,1.410000X1.350000*%
%TD*%
%TA.AperFunction,SMDPad,CuDef*%
%ADD34RoundRect,0.150000X0.150000X-0.512500X0.150000X0.512500X-0.150000X0.512500X-0.150000X-0.512500X0*%
%TD*%
%TA.AperFunction,SMDPad,CuDef*%
%ADD35O,0.280000X0.800000*%
%TD*%
%TA.AperFunction,SMDPad,CuDef*%
%ADD36O,0.800000X0.280000*%
%TD*%
%TA.AperFunction,SMDPad,CuDef*%
%ADD37R,1.500000X1.500000*%
%TD*%
%TA.AperFunction,SMDPad,CuDef*%
%ADD38R,0.900000X0.800000*%
%TD*%
%TA.AperFunction,SMDPad,CuDef*%
%ADD39R,2.124000X3.820000*%
%TD*%
%TA.AperFunction,SMDPad,CuDef*%
%ADD40R,2.000000X0.900000*%
%TD*%
%TA.AperFunction,SMDPad,CuDef*%
%ADD41R,1.330000X1.330000*%
%TD*%
%TA.AperFunction,SMDPad,CuDef*%
%ADD42RoundRect,0.250000X-0.337500X-0.475000X0.337500X-0.475000X0.337500X0.475000X-0.337500X0.475000X0*%
%TD*%
%TA.AperFunction,SMDPad,CuDef*%
%ADD43R,1.600000X0.700000*%
%TD*%
%TA.AperFunction,SMDPad,CuDef*%
%ADD44R,1.500000X1.200000*%
%TD*%
%TA.AperFunction,SMDPad,CuDef*%
%ADD45R,2.200000X1.200000*%
%TD*%
%TA.AperFunction,SMDPad,CuDef*%
%ADD46R,1.500000X1.600000*%
%TD*%
%TA.AperFunction,SMDPad,CuDef*%
%ADD47R,3.900000X1.450000*%
%TD*%
%TA.AperFunction,SMDPad,CuDef*%
%ADD48R,5.842000X5.842000*%
%TD*%
%TA.AperFunction,ComponentPad*%
%ADD49R,1.575000X1.575000*%
%TD*%
%TA.AperFunction,ComponentPad*%
%ADD50C,1.575000*%
%TD*%
%TA.AperFunction,SMDPad,CuDef*%
%ADD51RoundRect,0.125000X-0.125000X0.125000X-0.125000X-0.125000X0.125000X-0.125000X0.125000X0.125000X0*%
%TD*%
%TA.AperFunction,SMDPad,CuDef*%
%ADD52R,1.350000X1.410000*%
%TD*%
%TA.AperFunction,ComponentPad*%
%ADD53O,2.100000X1.100000*%
%TD*%
%TA.AperFunction,ComponentPad*%
%ADD54O,1.800000X1.200000*%
%TD*%
%TA.AperFunction,SMDPad,CuDef*%
%ADD55R,1.300000X0.600000*%
%TD*%
%TA.AperFunction,SMDPad,CuDef*%
%ADD56R,1.300000X0.300000*%
%TD*%
%TA.AperFunction,SMDPad,CuDef*%
%ADD57RoundRect,0.250000X0.475000X-0.337500X0.475000X0.337500X-0.475000X0.337500X-0.475000X-0.337500X0*%
%TD*%
%TA.AperFunction,SMDPad,CuDef*%
%ADD58RoundRect,0.125000X0.125000X0.125000X-0.125000X0.125000X-0.125000X-0.125000X0.125000X-0.125000X0*%
%TD*%
%TA.AperFunction,SMDPad,CuDef*%
%ADD59RoundRect,0.250000X-0.350000X-0.450000X0.350000X-0.450000X0.350000X0.450000X-0.350000X0.450000X0*%
%TD*%
%TA.AperFunction,SMDPad,CuDef*%
%ADD60R,1.070000X0.600000*%
%TD*%
%TA.AperFunction,SMDPad,CuDef*%
%ADD61R,0.565500X0.540000*%
%TD*%
%TA.AperFunction,ComponentPad*%
%ADD62C,2.200000*%
%TD*%
%TA.AperFunction,ViaPad*%
%ADD63C,0.800000*%
%TD*%
%TA.AperFunction,Conductor*%
%ADD64C,0.355600*%
%TD*%
%TA.AperFunction,Conductor*%
%ADD65C,0.254000*%
%TD*%
%TA.AperFunction,Conductor*%
%ADD66C,0.508000*%
%TD*%
%TA.AperFunction,Conductor*%
%ADD67C,0.406400*%
%TD*%
G04 APERTURE END LIST*
D10*
%TO.P,U5,1,VOUT*%
%TO.N,+3V3*%
X143660200Y-119785000D03*
%TO.P,U5,2,L2*%
%TO.N,Net-(U5-L2)*%
X143160200Y-119785000D03*
%TO.P,U5,3,PGND*%
%TO.N,GND*%
X142660200Y-119785000D03*
%TO.P,U5,4,L1*%
%TO.N,Net-(U5-L1)*%
X142160200Y-119785000D03*
%TO.P,U5,5,VIN*%
%TO.N,/Buck-Boost3.3V/Buck-Boost_INPUT*%
X141660200Y-119785000D03*
D11*
%TO.P,U5,6,EN*%
%TO.N,/Buck-Boost3.3V/Buck-Boost_EN*%
X141660200Y-122785000D03*
%TO.P,U5,7,PS/SYNC*%
%TO.N,/Buck-Boost3.3V/Buck-Boost_INPUT*%
X142160200Y-122785000D03*
%TO.P,U5,8,VINA*%
X142660200Y-122785000D03*
%TO.P,U5,9,GND*%
%TO.N,GND*%
X143160200Y-122785000D03*
%TO.P,U5,10,FB*%
%TO.N,+3V3*%
X143660200Y-122785000D03*
D12*
%TO.P,U5,11,PAD*%
%TO.N,GND*%
X142655200Y-121285000D03*
%TD*%
D13*
%TO.P,,PTH13,GND*%
%TO.N,GND*%
X142062200Y-121285000D03*
%TD*%
%TO.P,,PTH15,GND*%
%TO.N,GND*%
X143256000Y-121285000D03*
%TD*%
%TO.P,,PTH10,GND*%
%TO.N,GND*%
X140683000Y-87690000D03*
%TD*%
D14*
%TO.P,R12,1,1*%
%TO.N,Net-(LED1-A)*%
X113981150Y-125946400D03*
%TO.P,R12,2,2*%
%TO.N,EXT_5V*%
X116939150Y-125946400D03*
%TD*%
D15*
%TO.P,Q1,1,E*%
%TO.N,RTS*%
X128181100Y-138425000D03*
%TO.P,Q1,2,B*%
%TO.N,Net-(Q1-B)*%
X128181100Y-136525000D03*
%TO.P,Q1,3,C*%
%TO.N,ENA*%
X130680100Y-137475000D03*
%TD*%
D16*
%TO.P,SW1,1,1*%
%TO.N,IO0*%
X139700000Y-144780000D03*
%TO.P,SW1,2,2*%
X148986000Y-144780000D03*
%TO.P,SW1,3,3*%
%TO.N,GND*%
X148986000Y-149280000D03*
%TO.P,SW1,4,4*%
X139700000Y-149280000D03*
%TD*%
D17*
%TO.P,D1,1,K*%
%TO.N,EXT_5V*%
X112674400Y-150916900D03*
%TO.P,D1,2,A*%
%TO.N,VBUS*%
X112674400Y-148716900D03*
%TD*%
D18*
%TO.P,C12,1,1*%
%TO.N,Net-(U7-SW)*%
X121259600Y-122326400D03*
%TO.P,C12,2,2*%
%TO.N,Net-(U7-BOOST)*%
X120169600Y-122326400D03*
%TD*%
%TO.P,C13,1,1*%
%TO.N,Net-(U7-INTVcc)*%
X117175150Y-121577600D03*
%TO.P,C13,2,2*%
%TO.N,GND*%
X116085150Y-121577600D03*
%TD*%
D19*
%TO.P,C1,1*%
%TO.N,IO0*%
X152400000Y-146007000D03*
%TO.P,C1,2*%
%TO.N,GND*%
X152400000Y-148082000D03*
%TD*%
%TO.P,C9,1*%
%TO.N,+3V3*%
X117805200Y-148728600D03*
%TO.P,C9,2*%
%TO.N,GND*%
X117805200Y-150803600D03*
%TD*%
D20*
%TO.P,H5,1,1*%
%TO.N,D5*%
X185394600Y-90805000D03*
D21*
%TO.P,H5,2,2*%
%TO.N,D18*%
X187934600Y-90805000D03*
%TO.P,H5,3,3*%
%TO.N,D19*%
X190474600Y-90805000D03*
%TO.P,H5,4,4*%
%TO.N,D21*%
X193014600Y-90805000D03*
%TO.P,H5,5,5*%
%TO.N,D22*%
X195554600Y-90805000D03*
%TO.P,H5,6,6*%
%TO.N,D23*%
X198094600Y-90805000D03*
%TD*%
D13*
%TO.P,,PTH1,GND*%
%TO.N,GND*%
X137930000Y-84940000D03*
%TD*%
%TO.P,,PTH11,GND*%
%TO.N,GND*%
X137925800Y-88590000D03*
%TD*%
D22*
%TO.P,LED2,1,K*%
%TO.N,Net-(LED2-K)*%
X109851500Y-120409300D03*
%TO.P,LED2,2,A*%
%TO.N,Net-(LED2-A)*%
X109858500Y-122008300D03*
%TD*%
D23*
%TO.P,R17,1*%
%TO.N,D34*%
X118541800Y-91075000D03*
%TO.P,R17,2*%
%TO.N,Net-(Q4-D)*%
X118541800Y-93075000D03*
%TD*%
D19*
%TO.P,C16,1*%
%TO.N,/Buck-Boost3.3V/Buck-Boost_INPUT*%
X137261600Y-119333100D03*
%TO.P,C16,2*%
%TO.N,GND*%
X137261600Y-121408100D03*
%TD*%
D24*
%TO.P,H4,1,1*%
%TO.N,+3V3*%
X165100000Y-113673600D03*
D25*
%TO.P,H4,2,2*%
%TO.N,D14*%
X167640000Y-113673600D03*
%TO.P,H4,3,3*%
%TO.N,D27*%
X170180000Y-113673600D03*
%TO.P,H4,4,4*%
%TO.N,D26*%
X172720000Y-113673600D03*
%TD*%
D16*
%TO.P,SW2,1,1*%
%TO.N,ENA*%
X148986000Y-139065000D03*
%TO.P,SW2,2,2*%
X139700000Y-139065000D03*
%TO.P,SW2,3,3*%
%TO.N,GND*%
X139700000Y-134565000D03*
%TO.P,SW2,4,4*%
X148986000Y-134565000D03*
%TD*%
D26*
%TO.P,U11,1,GND*%
%TO.N,GND*%
X123027850Y-113700800D03*
%TO.P,U11,2,RESET#*%
%TO.N,/Buck-Boost3.3V/Buck-Boost_EN*%
X124927850Y-113700800D03*
%TO.P,U11,3,VDD*%
%TO.N,/Battery_Charger_LiFePO4_3.6V/Battery_Charger_OUTPUT*%
X123977850Y-111700800D03*
%TD*%
D27*
%TO.P,TP1,1,1*%
%TO.N,GND*%
X138938000Y-107823000D03*
%TD*%
D23*
%TO.P,R4,1*%
%TO.N,Net-(U3-VBUS)*%
X123088400Y-148750100D03*
%TO.P,R4,2*%
%TO.N,GND*%
X123088400Y-150750100D03*
%TD*%
D28*
%TO.P,R5,1*%
%TO.N,Net-(R5-Pad1)*%
X128422400Y-150750100D03*
%TO.P,R5,2*%
%TO.N,+3V3*%
X128422400Y-148750100D03*
%TD*%
D22*
%TO.P,LED1,1,K*%
%TO.N,Net-(LED1-K)*%
X112264500Y-120426100D03*
%TO.P,LED1,2,A*%
%TO.N,Net-(LED1-A)*%
X112271500Y-122025100D03*
%TD*%
D28*
%TO.P,R9,1*%
%TO.N,RTS*%
X125945900Y-138409000D03*
%TO.P,R9,2*%
%TO.N,Net-(Q2-B)*%
X125945900Y-136409000D03*
%TD*%
D13*
%TO.P,,PTH9,GND*%
%TO.N,GND*%
X138854200Y-87690000D03*
%TD*%
D19*
%TO.P,C19,1*%
%TO.N,D34*%
X126949200Y-85631200D03*
%TO.P,C19,2*%
%TO.N,GND*%
X126949200Y-87706200D03*
%TD*%
D24*
%TO.P,H8,1,1*%
%TO.N,+3V3*%
X177749200Y-90805000D03*
D25*
%TO.P,H8,2,2*%
%TO.N,GND*%
X180289200Y-90805000D03*
%TD*%
D29*
%TO.P,U3,1,~{DCD}*%
%TO.N,unconnected-(U3-~{DCD}-Pad1)*%
X119470000Y-142167700D03*
%TO.P,U3,2,~{RI}/CLK*%
%TO.N,unconnected-(U3-~{RI}{slash}CLK-Pad2)*%
X119470000Y-142667700D03*
%TO.P,U3,3,GND*%
%TO.N,GND*%
X119470000Y-143167700D03*
%TO.P,U3,4,D+*%
%TO.N,D+*%
X119470000Y-143667700D03*
%TO.P,U3,5,D-*%
%TO.N,D-*%
X119470000Y-144167700D03*
%TO.P,U3,6,VDD*%
%TO.N,+3V3*%
X119470000Y-144667700D03*
%TO.P,U3,7,VREGIN*%
X119470000Y-145167700D03*
D30*
%TO.P,U3,8,VBUS*%
%TO.N,Net-(U3-VBUS)*%
X120420000Y-146117700D03*
%TO.P,U3,9,~{RST}*%
%TO.N,Net-(U3-~{RST})*%
X120920000Y-146117700D03*
%TO.P,U3,10,NC*%
%TO.N,unconnected-(U3-NC-Pad10)*%
X121420000Y-146117700D03*
%TO.P,U3,11,~{SUSPEND}*%
%TO.N,Net-(U3-~{SUSPEND})*%
X121920000Y-146117700D03*
%TO.P,U3,12,SUSPEND*%
%TO.N,unconnected-(U3-SUSPEND-Pad12)*%
X122420000Y-146117700D03*
%TO.P,U3,13,CHREN*%
%TO.N,unconnected-(U3-CHREN-Pad13)*%
X122920000Y-146117700D03*
%TO.P,U3,14,CHR1*%
%TO.N,unconnected-(U3-CHR1-Pad14)*%
X123420000Y-146117700D03*
D29*
%TO.P,U3,15,CHR0*%
%TO.N,unconnected-(U3-CHR0-Pad15)*%
X124370000Y-145167700D03*
%TO.P,U3,16,~{WAKEUP}/GPIO.3*%
%TO.N,unconnected-(U3-~{WAKEUP}{slash}GPIO.3-Pad16)*%
X124370000Y-144667700D03*
%TO.P,U3,17,RS485/GPIO.2*%
%TO.N,unconnected-(U3-RS485{slash}GPIO.2-Pad17)*%
X124370000Y-144167700D03*
%TO.P,U3,18,~{RXT}/GPIO.1*%
%TO.N,unconnected-(U3-~{RXT}{slash}GPIO.1-Pad18)*%
X124370000Y-143667700D03*
%TO.P,U3,19,~{TXT}/GPIO.0*%
%TO.N,unconnected-(U3-~{TXT}{slash}GPIO.0-Pad19)*%
X124370000Y-143167700D03*
%TO.P,U3,20,GPIO.6*%
%TO.N,unconnected-(U3-GPIO.6-Pad20)*%
X124370000Y-142667700D03*
%TO.P,U3,21,GPIO.5*%
%TO.N,unconnected-(U3-GPIO.5-Pad21)*%
X124370000Y-142167700D03*
D30*
%TO.P,U3,22,GPIO.4*%
%TO.N,unconnected-(U3-GPIO.4-Pad22)*%
X123420000Y-141217700D03*
%TO.P,U3,23,~{CTS}*%
%TO.N,unconnected-(U3-~{CTS}-Pad23)*%
X122920000Y-141217700D03*
%TO.P,U3,24,~{RTS}*%
%TO.N,RTS*%
X122420000Y-141217700D03*
%TO.P,U3,25,RXD*%
%TO.N,TXD0*%
X121920000Y-141217700D03*
%TO.P,U3,26,TXD*%
%TO.N,RXD0*%
X121420000Y-141217700D03*
%TO.P,U3,27,~{DSR}*%
%TO.N,unconnected-(U3-~{DSR}-Pad27)*%
X120920000Y-141217700D03*
%TO.P,U3,28,~{DTR}*%
%TO.N,DTR*%
X120420000Y-141217700D03*
D31*
%TO.P,U3,29,GND*%
%TO.N,GND*%
X121920000Y-143667700D03*
%TD*%
D13*
%TO.P,,PTH2,GND*%
%TO.N,GND*%
X139760000Y-84940000D03*
%TD*%
D28*
%TO.P,R18,1*%
%TO.N,GND*%
X123850400Y-87655400D03*
%TO.P,R18,2*%
%TO.N,D34*%
X123850400Y-85655400D03*
%TD*%
D18*
%TO.P,R23,1,1*%
%TO.N,D2*%
X182155000Y-106984800D03*
%TO.P,R23,2,2*%
%TO.N,+3V3*%
X181065000Y-106984800D03*
%TD*%
D13*
%TO.P,,PTH4,GND*%
%TO.N,GND*%
X138861800Y-85852000D03*
%TD*%
D15*
%TO.P,Q2,1,E*%
%TO.N,DTR*%
X121221500Y-136357400D03*
%TO.P,Q2,2,B*%
%TO.N,Net-(Q2-B)*%
X121221500Y-138257400D03*
%TO.P,Q2,3,C*%
%TO.N,IO0*%
X118722500Y-137307400D03*
%TD*%
D32*
%TO.P,R11,1,1*%
%TO.N,GND*%
X115770750Y-115682400D03*
%TO.P,R11,2,2*%
%TO.N,Net-(U7-PROG)*%
X115770750Y-116548400D03*
%TD*%
D13*
%TO.P,,PTH12,GND*%
%TO.N,GND*%
X139760000Y-88590000D03*
%TD*%
%TO.P,,PTH8,GND*%
%TO.N,GND*%
X137000000Y-87690000D03*
%TD*%
D19*
%TO.P,C5,1*%
%TO.N,VBUS*%
X115163600Y-148724700D03*
%TO.P,C5,2*%
%TO.N,GND*%
X115163600Y-150799700D03*
%TD*%
D20*
%TO.P,H6,1,1*%
%TO.N,GND*%
X185420000Y-113665000D03*
D21*
%TO.P,H6,2,2*%
%TO.N,D33*%
X187960000Y-113665000D03*
%TO.P,H6,3,3*%
%TO.N,D32*%
X190500000Y-113665000D03*
%TO.P,H6,4,4*%
%TO.N,D35*%
X193040000Y-113665000D03*
%TO.P,H6,5,5*%
%TO.N,GND*%
X195580000Y-113665000D03*
%TO.P,H6,6,6*%
X198120000Y-113665000D03*
%TD*%
D33*
%TO.P,C11,1,1*%
%TO.N,GND*%
X121275950Y-124981200D03*
%TO.P,C11,2,2*%
%TO.N,EXT_5V*%
X119275950Y-124981200D03*
%TD*%
D34*
%TO.P,U1,1,I/O1*%
%TO.N,DN*%
X113350000Y-144395700D03*
%TO.P,U1,2,GND*%
%TO.N,GND*%
X114300000Y-144395700D03*
%TO.P,U1,3,I/O2*%
%TO.N,DP*%
X115250000Y-144395700D03*
%TO.P,U1,4,I/O2*%
%TO.N,D+*%
X115250000Y-142120700D03*
%TO.P,U1,5,VBUS*%
%TO.N,VBUS*%
X114300000Y-142120700D03*
%TO.P,U1,6,I/O1*%
%TO.N,D-*%
X113350000Y-142120700D03*
%TD*%
D35*
%TO.P,U7,1,INTVcc*%
%TO.N,Net-(U7-INTVcc)*%
X117737150Y-120287600D03*
%TO.P,U7,2,BOOST*%
%TO.N,Net-(U7-BOOST)*%
X118237150Y-120287600D03*
%TO.P,U7,3,IN*%
%TO.N,EXT_5V*%
X118737150Y-120287600D03*
%TO.P,U7,4,SW*%
%TO.N,Net-(U7-SW)*%
X119237150Y-120287600D03*
D36*
%TO.P,U7,5,GND*%
%TO.N,GND*%
X119987150Y-119537600D03*
%TO.P,U7,6,MPPT*%
%TO.N,Net-(U7-MPPT)*%
X119987150Y-119037600D03*
%TO.P,U7,7,FREQ*%
%TO.N,GND*%
X119987150Y-118537600D03*
%TO.P,U7,8,CHGSNS*%
%TO.N,Net-(U7-CHGSNS)*%
X119987150Y-118037600D03*
D35*
%TO.P,U7,9,BAT*%
%TO.N,/Battery_Charger_LiFePO4_3.6V/Battery_Charger_OUTPUT*%
X119237150Y-117287600D03*
%TO.P,U7,10,FB*%
%TO.N,Net-(U7-FB)*%
X118737150Y-117287600D03*
%TO.P,U7,11,FBG*%
%TO.N,Net-(U7-FBG)*%
X118237150Y-117287600D03*
%TO.P,U7,12,NTC*%
%TO.N,GND*%
X117737150Y-117287600D03*
D36*
%TO.P,U7,13,PROG*%
%TO.N,Net-(U7-PROG)*%
X116987150Y-118037100D03*
%TO.P,U7,14,CHRG#*%
%TO.N,Net-(LED2-K)*%
X116987150Y-118537100D03*
%TO.P,U7,15,FAULT#*%
%TO.N,Net-(LED1-K)*%
X116987150Y-119037100D03*
%TO.P,U7,16,RUN*%
%TO.N,EXT_5V*%
X116987150Y-119537100D03*
D37*
%TO.P,U7,17,GND*%
%TO.N,GND*%
X118487150Y-118787600D03*
%TD*%
D27*
%TO.P,TP2,1,1*%
%TO.N,/Buck-Boost3.3V/Buck-Boost_INPUT*%
X135064500Y-107823000D03*
%TD*%
D38*
%TO.P,C15,1,1*%
%TO.N,GND*%
X139598400Y-121070600D03*
%TO.P,C15,2,2*%
%TO.N,/Buck-Boost3.3V/Buck-Boost_INPUT*%
X139598400Y-119670600D03*
%TD*%
D14*
%TO.P,R13,1,1*%
%TO.N,Net-(LED2-A)*%
X113981150Y-129045200D03*
%TO.P,R13,2,2*%
%TO.N,EXT_5V*%
X116939150Y-129045200D03*
%TD*%
D18*
%TO.P,C14,1,1*%
%TO.N,GND*%
X120762250Y-115361200D03*
%TO.P,C14,2,2*%
%TO.N,/Battery_Charger_LiFePO4_3.6V/Battery_Charger_OUTPUT*%
X119672250Y-115361200D03*
%TD*%
D15*
%TO.P,Q5,1,G*%
%TO.N,EXT_5V*%
X127975850Y-110129200D03*
%TO.P,Q5,2,S*%
%TO.N,/Buck-Boost3.3V/Buck-Boost_INPUT*%
X127975850Y-108229200D03*
%TO.P,Q5,3,D*%
%TO.N,VBAT*%
X125975850Y-109179200D03*
%TD*%
D38*
%TO.P,R20,1,1*%
%TO.N,GND*%
X150147400Y-121096000D03*
%TO.P,R20,2,2*%
%TO.N,+3V3*%
X150147400Y-119696000D03*
%TD*%
D18*
%TO.P,R22,1,1*%
%TO.N,D14*%
X181291400Y-104749600D03*
%TO.P,R22,2,2*%
%TO.N,+3V3*%
X180201400Y-104749600D03*
%TD*%
D39*
%TO.P,L_B-B1,1,1*%
%TO.N,Net-(U5-L1)*%
X140882000Y-114935000D03*
%TO.P,L_B-B1,2,2*%
%TO.N,Net-(U5-L2)*%
X144438000Y-114935000D03*
%TD*%
D28*
%TO.P,R8,1*%
%TO.N,DTR*%
X123456700Y-138393000D03*
%TO.P,R8,2*%
%TO.N,Net-(Q1-B)*%
X123456700Y-136393000D03*
%TD*%
D40*
%TO.P,U9,1,GND*%
%TO.N,GND*%
X130844000Y-79273400D03*
%TO.P,U9,2,3V3*%
%TO.N,+3V3*%
X130844000Y-80543400D03*
%TO.P,U9,3,EN*%
%TO.N,ENA*%
X130844000Y-81813400D03*
%TO.P,U9,4,SENSOR_VP*%
%TO.N,unconnected-(U9-SENSOR_VP-Pad4)*%
X130844000Y-83083400D03*
%TO.P,U9,5,SENSOR_VN*%
%TO.N,unconnected-(U9-SENSOR_VN-Pad5)*%
X130844000Y-84353400D03*
%TO.P,U9,6,IO34*%
%TO.N,D34*%
X130844000Y-85623400D03*
%TO.P,U9,7,IO35*%
%TO.N,D35*%
X130844000Y-86893400D03*
%TO.P,U9,8,IO32*%
%TO.N,D32*%
X130844000Y-88163400D03*
%TO.P,U9,9,IO33*%
%TO.N,D33*%
X130844000Y-89433400D03*
%TO.P,U9,10,IO25*%
%TO.N,D25*%
X130844000Y-90703400D03*
%TO.P,U9,11,IO26*%
%TO.N,D26*%
X130844000Y-91973400D03*
%TO.P,U9,12,IO27*%
%TO.N,D27*%
X130844000Y-93243400D03*
%TO.P,U9,13,IO14*%
%TO.N,D14*%
X130844000Y-94513400D03*
%TO.P,U9,14,IO12*%
%TO.N,D12*%
X130844000Y-95783400D03*
%TO.P,U9,15,GND*%
%TO.N,GND*%
X130844000Y-97053400D03*
%TO.P,U9,16,IO13*%
%TO.N,D13*%
X130844000Y-98323400D03*
%TO.P,U9,17,NC*%
%TO.N,unconnected-(U9-NC-Pad17)*%
X130844000Y-99593400D03*
%TO.P,U9,18,NC*%
%TO.N,unconnected-(U9-NC-Pad18)*%
X130844000Y-100863400D03*
%TO.P,U9,19,NC*%
%TO.N,unconnected-(U9-NC-Pad19)*%
X130844000Y-102133400D03*
%TO.P,U9,20,NC*%
%TO.N,unconnected-(U9-NC-Pad20)*%
X148844000Y-102133400D03*
%TO.P,U9,21,NC*%
%TO.N,unconnected-(U9-NC-Pad21)*%
X148844000Y-100863400D03*
%TO.P,U9,22,NC*%
%TO.N,unconnected-(U9-NC-Pad22)*%
X148844000Y-99593400D03*
%TO.P,U9,23,IO15*%
%TO.N,D15*%
X148844000Y-98323400D03*
%TO.P,U9,24,IO2*%
%TO.N,D2*%
X148844000Y-97053400D03*
%TO.P,U9,25,IO0*%
%TO.N,IO0*%
X148844000Y-95783400D03*
%TO.P,U9,26,IO4*%
%TO.N,D4*%
X148844000Y-94513400D03*
%TO.P,U9,27,NC*%
%TO.N,unconnected-(U9-NC-Pad27)*%
X148844000Y-93243400D03*
%TO.P,U9,28,NC*%
%TO.N,unconnected-(U9-NC-Pad28)*%
X148844000Y-91973400D03*
%TO.P,U9,29,IO5*%
%TO.N,D5*%
X148844000Y-90703400D03*
%TO.P,U9,30,IO18*%
%TO.N,D18*%
X148844000Y-89433400D03*
%TO.P,U9,31,IO19*%
%TO.N,D19*%
X148844000Y-88163400D03*
%TO.P,U9,32,NC*%
%TO.N,unconnected-(U9-NC-Pad32)*%
X148844000Y-86893400D03*
%TO.P,U9,33,IO21*%
%TO.N,D21*%
X148844000Y-85623400D03*
%TO.P,U9,34,RXD0*%
%TO.N,RXD0*%
X148844000Y-84353400D03*
%TO.P,U9,35,TXD0*%
%TO.N,TXD0*%
X148844000Y-83083400D03*
%TO.P,U9,36,IO22*%
%TO.N,D22*%
X148844000Y-81813400D03*
%TO.P,U9,37,IO23*%
%TO.N,D23*%
X148844000Y-80543400D03*
%TO.P,U9,38,GND*%
%TO.N,GND*%
X148844000Y-79273400D03*
D41*
%TO.P,U9,39,GND*%
X137009000Y-84938400D03*
X137009000Y-86773400D03*
X137009000Y-88608400D03*
X138844000Y-84938400D03*
X138844000Y-86773400D03*
X138844000Y-88608400D03*
X140679000Y-84938400D03*
X140679000Y-86773400D03*
X140679000Y-88608400D03*
%TD*%
D42*
%TO.P,C7,1*%
%TO.N,+3V3*%
X149436000Y-110896400D03*
%TO.P,C7,2*%
%TO.N,GND*%
X151511000Y-110896400D03*
%TD*%
%TO.P,C8,1*%
%TO.N,+3V3*%
X149436000Y-113792000D03*
%TO.P,C8,2*%
%TO.N,GND*%
X151511000Y-113792000D03*
%TD*%
D18*
%TO.P,R21,1,1*%
%TO.N,D15*%
X181342200Y-100279200D03*
%TO.P,R21,2,2*%
%TO.N,+3V3*%
X180252200Y-100279200D03*
%TD*%
D28*
%TO.P,R3,1*%
%TO.N,VBUS*%
X120446800Y-150731300D03*
%TO.P,R3,2*%
%TO.N,Net-(U3-VBUS)*%
X120446800Y-148731300D03*
%TD*%
D23*
%TO.P,R16,1*%
%TO.N,Net-(Q3-D)*%
X107585850Y-92036567D03*
%TO.P,R16,2*%
%TO.N,/Battery_Charger_LiFePO4_3.6V/Battery_Charger_OUTPUT*%
X107585850Y-94036567D03*
%TD*%
D43*
%TO.P,CARD1,1,DAT2*%
%TO.N,unconnected-(CARD1-DAT2-Pad1)*%
X184911300Y-100366000D03*
%TO.P,CARD1,2,CD/DAT3*%
%TO.N,unconnected-(CARD1-CD{slash}DAT3-Pad2)*%
X184911300Y-101466000D03*
%TO.P,CARD1,3,CMD*%
%TO.N,D15*%
X184911300Y-102566000D03*
%TO.P,CARD1,4,VDD*%
%TO.N,+3V3*%
X184911300Y-103666000D03*
%TO.P,CARD1,5,CLX*%
%TO.N,D14*%
X184911300Y-104766000D03*
%TO.P,CARD1,6,VSS*%
%TO.N,GND*%
X184911300Y-105866000D03*
%TO.P,CARD1,7,DAT0*%
%TO.N,D2*%
X184911300Y-106966000D03*
%TO.P,CARD1,8,DAT1*%
%TO.N,unconnected-(CARD1-DAT1-Pad8)*%
X184911300Y-108066000D03*
D44*
%TO.P,CARD1,10,10*%
%TO.N,GND*%
X185911300Y-110366000D03*
D45*
%TO.P,CARD1,11,11*%
X195511300Y-110366000D03*
%TO.P,CARD1,12,12*%
X195511300Y-94866000D03*
D46*
%TO.P,CARD1,13,13*%
X185911300Y-95766000D03*
D43*
%TO.P,CARD1,CD,CD*%
%TO.N,unconnected-(CARD1-PadCD)*%
X184911300Y-109166000D03*
%TD*%
D13*
%TO.P,,PTH14,GND*%
%TO.N,GND*%
X142660200Y-121285000D03*
%TD*%
D23*
%TO.P,R19,1*%
%TO.N,Net-(Q3-G)*%
X116179600Y-86874600D03*
%TO.P,R19,2*%
%TO.N,D25*%
X116179600Y-88874600D03*
%TD*%
D28*
%TO.P,R2,1*%
%TO.N,ENA*%
X118846600Y-82661000D03*
%TO.P,R2,2*%
%TO.N,+3V3*%
X118846600Y-80661000D03*
%TD*%
D27*
%TO.P,TP3,1,1*%
%TO.N,+3V3*%
X143002000Y-107823000D03*
%TD*%
D47*
%TO.P,L_B-CH1,1,1*%
%TO.N,Net-(U7-SW)*%
X123898750Y-120307600D03*
%TO.P,L_B-CH1,2,2*%
%TO.N,Net-(U7-CHGSNS)*%
X123898750Y-117357600D03*
%TD*%
D13*
%TO.P,,PTH7,GND*%
%TO.N,GND*%
X139760000Y-86790000D03*
%TD*%
D18*
%TO.P,C6,1,1*%
%TO.N,GND*%
X109273000Y-84709000D03*
%TO.P,C6,2,2*%
%TO.N,ENA*%
X110363000Y-84709000D03*
%TD*%
D48*
%TO.P,,39,GND*%
%TO.N,GND*%
X138820000Y-86760000D03*
%TD*%
D27*
%TO.P,TP4,1,1*%
%TO.N,D34*%
X123571000Y-92532200D03*
%TD*%
D24*
%TO.P,H7,1,1*%
%TO.N,EXT_5V*%
X180340000Y-113665000D03*
D25*
%TO.P,H7,2,2*%
%TO.N,GND*%
X177800000Y-113665000D03*
%TD*%
D49*
%TO.P,H1,1,1*%
%TO.N,D12*%
X170180000Y-98425000D03*
D50*
%TO.P,H1,2,2*%
%TO.N,D15*%
X167640000Y-98425000D03*
%TO.P,H1,3,3*%
%TO.N,D2*%
X165100000Y-98425000D03*
%TD*%
D42*
%TO.P,C10,1*%
%TO.N,GND*%
X179122500Y-102412800D03*
%TO.P,C10,2*%
%TO.N,+3V3*%
X181197500Y-102412800D03*
%TD*%
D23*
%TO.P,R6,1*%
%TO.N,Net-(U3-~{RST})*%
X125730000Y-148750100D03*
%TO.P,R6,2*%
%TO.N,Net-(R5-Pad1)*%
X125730000Y-150750100D03*
%TD*%
D28*
%TO.P,R7,1*%
%TO.N,GND*%
X131064000Y-150750100D03*
%TO.P,R7,2*%
%TO.N,Net-(U3-~{SUSPEND})*%
X131064000Y-148750100D03*
%TD*%
D32*
%TO.P,R14,1,1*%
%TO.N,Net-(U7-FB)*%
X117355950Y-113083600D03*
%TO.P,R14,2,2*%
%TO.N,Net-(U7-FBG)*%
X117355950Y-113949600D03*
%TD*%
D51*
%TO.P,D3,1,K*%
%TO.N,/Buck-Boost3.3V/Buck-Boost_INPUT*%
X130479800Y-107975400D03*
%TO.P,D3,2,A*%
%TO.N,EXT_5V*%
X130479800Y-110175400D03*
%TD*%
D49*
%TO.P,H2,1,1*%
%TO.N,GND*%
X170180000Y-106042800D03*
D50*
%TO.P,H2,2,2*%
%TO.N,+3V3*%
X167640000Y-106042800D03*
%TO.P,H2,3,3*%
%TO.N,D13*%
X165100000Y-106042800D03*
%TD*%
D33*
%TO.P,C4,1,1*%
%TO.N,GND*%
X151436000Y-107848400D03*
%TO.P,C4,2,2*%
%TO.N,+3V3*%
X149436000Y-107848400D03*
%TD*%
D26*
%TO.P,Q3,1,G*%
%TO.N,Net-(Q3-G)*%
X111025050Y-86886967D03*
%TO.P,Q3,2,S*%
%TO.N,GND*%
X109125050Y-86886967D03*
%TO.P,Q3,3,D*%
%TO.N,Net-(Q3-D)*%
X110075050Y-88886967D03*
%TD*%
D52*
%TO.P,C3,1,1*%
%TO.N,GND*%
X154965400Y-137064800D03*
%TO.P,C3,2,2*%
%TO.N,ENA*%
X154965400Y-139064800D03*
%TD*%
D38*
%TO.P,C18,1,1*%
%TO.N,GND*%
X145694400Y-121096000D03*
%TO.P,C18,2,2*%
%TO.N,+3V3*%
X145694400Y-119696000D03*
%TD*%
D53*
%TO.P,U10,0,0*%
%TO.N,GND*%
X110052500Y-139326700D03*
D54*
X105852500Y-139326700D03*
D53*
X110052500Y-147976700D03*
D54*
X105852500Y-147976700D03*
D55*
%TO.P,U10,A1,GND*%
X110702500Y-140442700D03*
%TO.P,U10,A4,VBUS*%
%TO.N,VBUS*%
X110702500Y-141242700D03*
D56*
%TO.P,U10,A5,CC1*%
%TO.N,unconnected-(U10-CC1-PadA5)*%
X110702500Y-142392700D03*
%TO.P,U10,A6,DP1*%
%TO.N,DP*%
X110702500Y-143392700D03*
%TO.P,U10,A7,DN1*%
%TO.N,DN*%
X110702500Y-143892700D03*
%TO.P,U10,A8,SBU1*%
%TO.N,unconnected-(U10-SBU1-PadA8)*%
X110703500Y-144892200D03*
D55*
%TO.P,U10,A9,VBUS*%
%TO.N,VBUS*%
X110702500Y-146042700D03*
%TO.P,U10,A12,GND*%
%TO.N,GND*%
X110702500Y-146842700D03*
D56*
%TO.P,U10,B5,CC2*%
%TO.N,unconnected-(U10-CC2-PadB5)*%
X110702500Y-145392700D03*
%TO.P,U10,B6,DP2*%
%TO.N,DP*%
X110702500Y-144392700D03*
%TO.P,U10,B7,DN2*%
%TO.N,DN*%
X110702500Y-142892700D03*
%TO.P,U10,B8,SBU2*%
%TO.N,unconnected-(U10-SBU2-PadB8)*%
X110703500Y-141892700D03*
%TD*%
D13*
%TO.P,,PTH5,GND*%
%TO.N,GND*%
X140690600Y-85860000D03*
%TD*%
%TO.P,,PTH6,GND*%
%TO.N,GND*%
X137930000Y-86790000D03*
%TD*%
D57*
%TO.P,C2,1*%
%TO.N,ENA*%
X151892000Y-139063600D03*
%TO.P,C2,2*%
%TO.N,GND*%
X151892000Y-136988600D03*
%TD*%
D13*
%TO.P,,PTH3,GND*%
%TO.N,GND*%
X137007600Y-85860000D03*
%TD*%
D27*
%TO.P,TP5,1,1*%
%TO.N,EXT_5V*%
X110972600Y-153924000D03*
%TD*%
D58*
%TO.P,D2,1,K*%
%TO.N,VBAT*%
X120172250Y-98036167D03*
%TO.P,D2,2,A*%
%TO.N,/Battery_Charger_LiFePO4_3.6V/Battery_Charger_OUTPUT*%
X117972250Y-98036167D03*
%TD*%
D59*
%TO.P,R1,1*%
%TO.N,GND*%
X114941600Y-132883400D03*
%TO.P,R1,2*%
%TO.N,EXT_5V*%
X116941600Y-132883400D03*
%TD*%
D60*
%TO.P,Q4,1,G*%
%TO.N,Net-(Q3-D)*%
X112532650Y-92102567D03*
%TO.P,Q4,2,S*%
%TO.N,/Battery_Charger_LiFePO4_3.6V/Battery_Charger_OUTPUT*%
X112532650Y-94002567D03*
%TO.P,Q4,3,D*%
%TO.N,Net-(Q4-D)*%
X115002650Y-93052567D03*
%TD*%
D24*
%TO.P,H3,1,1*%
%TO.N,+3V3*%
X172720000Y-90805000D03*
D25*
%TO.P,H3,2,2*%
%TO.N,IO0*%
X170180000Y-90805000D03*
%TO.P,H3,3,3*%
%TO.N,D4*%
X167640000Y-90805000D03*
%TO.P,H3,4,4*%
%TO.N,GND*%
X165100000Y-90805000D03*
%TD*%
D32*
%TO.P,R10,1,1*%
%TO.N,Net-(U7-MPPT)*%
X124648450Y-125645800D03*
%TO.P,R10,2,2*%
%TO.N,EXT_5V*%
X124648450Y-126511800D03*
%TD*%
D61*
%TO.P,R15,1,1*%
%TO.N,/Battery_Charger_LiFePO4_3.6V/Battery_Charger_OUTPUT*%
X119692750Y-113083600D03*
%TO.P,R15,2,2*%
%TO.N,Net-(U7-FB)*%
X118826750Y-113083600D03*
%TD*%
D38*
%TO.P,C17,1,1*%
%TO.N,GND*%
X147904200Y-121096000D03*
%TO.P,C17,2,2*%
%TO.N,+3V3*%
X147904200Y-119696000D03*
%TD*%
D62*
%TO.P,U2,1,1*%
%TO.N,/Battery_Charger_LiFePO4_3.6V/Battery_Charger_OUTPUT*%
X107012250Y-105816567D03*
%TO.P,U2,2,2*%
%TO.N,GND*%
X107012250Y-110816567D03*
%TD*%
D63*
%TO.N,GND*%
X135077200Y-123596400D03*
X149174200Y-123799600D03*
%TO.N,+3V3*%
X150571200Y-117348000D03*
%TO.N,GND*%
X123088400Y-152603200D03*
X121920000Y-143662400D03*
X111175800Y-115570000D03*
X176784000Y-102412800D03*
X117195600Y-116484400D03*
X121117850Y-117748800D03*
X195529200Y-96215200D03*
X120965450Y-119933200D03*
X137464800Y-134554400D03*
X123342400Y-127000000D03*
X154787600Y-113792000D03*
X115620800Y-146405600D03*
X136753600Y-149275800D03*
X118110000Y-142341600D03*
X131064000Y-152603200D03*
X123850400Y-89357200D03*
X114884200Y-121564400D03*
X138938000Y-107823000D03*
X188112400Y-95758000D03*
X118487150Y-118787600D03*
X121361200Y-114350800D03*
X140593400Y-97053400D03*
X117801300Y-150799700D03*
X111353600Y-132867400D03*
X187223400Y-108026200D03*
X106807000Y-86893400D03*
X195478400Y-108915200D03*
%TO.N,IO0*%
X139700000Y-144780000D03*
X164465000Y-93218000D03*
X136652000Y-104140000D03*
X118722500Y-137307400D03*
%TO.N,ENA*%
X122326400Y-130124200D03*
X122326400Y-81864200D03*
%TO.N,+3V3*%
X134215726Y-80494701D03*
X128422400Y-148750100D03*
X179063900Y-100279200D03*
X143002000Y-107823000D03*
X176022000Y-104698800D03*
X144094200Y-123774200D03*
X144907000Y-105918000D03*
X178409600Y-106883200D03*
X117805200Y-148728600D03*
%TO.N,D2*%
X178206400Y-108458000D03*
%TO.N,D14*%
X138282367Y-95877633D03*
X158343600Y-111963200D03*
%TO.N,Net-(U7-BOOST)*%
X117511050Y-122879600D03*
X120169600Y-122326400D03*
%TO.N,EXT_5V*%
X148590000Y-125984000D03*
X125639050Y-128721600D03*
X127975850Y-112278000D03*
X155117800Y-125933200D03*
X112687100Y-153919000D03*
%TO.N,D12*%
X132940000Y-95750000D03*
X154787600Y-104368600D03*
%TO.N,D13*%
X133629400Y-99745800D03*
X155803600Y-106070400D03*
%TO.N,D4*%
X162661600Y-89128600D03*
%TO.N,D26*%
X150888700Y-102501700D03*
X133324600Y-91948000D03*
%TO.N,D27*%
X149987000Y-103641600D03*
X132638800Y-93294200D03*
%TO.N,D22*%
X152654000Y-81788000D03*
%TO.N,D23*%
X151257000Y-80543400D03*
%TO.N,D21*%
X153924000Y-83185000D03*
%TO.N,D5*%
X155740100Y-88734900D03*
%TO.N,D19*%
X154571700Y-84950300D03*
%TO.N,D18*%
X155143200Y-86664800D03*
%TO.N,D33*%
X133553200Y-90525600D03*
%TO.N,D35*%
X133299200Y-86893400D03*
%TO.N,D32*%
X133540500Y-88861900D03*
%TO.N,DN*%
X112014000Y-145041700D03*
X112014000Y-142374700D03*
%TO.N,Net-(U7-MPPT)*%
X121117850Y-118917200D03*
X124648450Y-125629048D03*
%TO.N,D25*%
X116230400Y-90703400D03*
X126746000Y-90703400D03*
%TO.N,D-*%
X116713000Y-144152700D03*
X113343949Y-140764900D03*
%TO.N,TXD0*%
X144881600Y-81534000D03*
X121932133Y-139964800D03*
X112166400Y-108305600D03*
X115824000Y-108331000D03*
%TO.N,RXD0*%
X120904000Y-139964800D03*
X144424400Y-82854800D03*
%TO.N,/Buck-Boost3.3V/Buck-Boost_INPUT*%
X135026400Y-119303800D03*
X142417800Y-123774200D03*
X135039100Y-107823000D03*
%TD*%
D64*
%TO.N,+3V3*%
X143666000Y-123346000D02*
X143666000Y-122785000D01*
X144094200Y-123774200D02*
X143666000Y-123346000D01*
D65*
%TO.N,GND*%
X143154400Y-122790800D02*
X143154400Y-123215400D01*
X143160200Y-122785000D02*
X143154400Y-122790800D01*
X143160200Y-122497849D02*
X143160200Y-122785000D01*
X142646400Y-119456200D02*
X142660200Y-119470000D01*
X142660200Y-119785000D02*
X142660200Y-119470000D01*
%TO.N,/Buck-Boost3.3V/Buck-Boost_INPUT*%
X141660200Y-119486000D02*
X141655800Y-119481600D01*
X141660200Y-119785000D02*
X141660200Y-119486000D01*
%TO.N,+3V3*%
X143660200Y-119458400D02*
X143662400Y-119456200D01*
X143660200Y-119785000D02*
X143660200Y-119458400D01*
X143662400Y-120142000D02*
X143660200Y-120139800D01*
X143660200Y-119785000D02*
X143660200Y-120139800D01*
%TO.N,/Buck-Boost3.3V/Buck-Boost_INPUT*%
X141655800Y-120142000D02*
X141660200Y-120137600D01*
X141660200Y-119785000D02*
X141660200Y-120137600D01*
D64*
%TO.N,GND*%
X143160200Y-122497849D02*
X143154400Y-122503649D01*
X143160200Y-121790000D02*
X143160200Y-122497849D01*
X142655200Y-121285000D02*
X143160200Y-121790000D01*
X142655200Y-121285000D02*
X142661300Y-121278900D01*
X142661300Y-121278900D02*
X142661300Y-119999209D01*
D65*
X142660200Y-121280000D02*
X142655200Y-121285000D01*
%TO.N,Net-(U5-L2)*%
X143178700Y-118986300D02*
X143160200Y-119004800D01*
X143446500Y-118986300D02*
X143178700Y-118986300D01*
X143167100Y-119265700D02*
X143446500Y-118986300D01*
X143160200Y-119004800D02*
X143160200Y-119782800D01*
%TO.N,Net-(U5-L1)*%
X142160200Y-118977200D02*
X142160200Y-119785000D01*
X142163800Y-118973600D02*
X142160200Y-118977200D01*
X141859000Y-118973600D02*
X142163800Y-118973600D01*
X142138400Y-119253000D02*
X141859000Y-118973600D01*
D64*
%TO.N,GND*%
X143256000Y-121285000D02*
X143154000Y-121387000D01*
D65*
X111252000Y-115646200D02*
X115734550Y-115646200D01*
D64*
X120762250Y-115361200D02*
X121011200Y-115361200D01*
D66*
X138844000Y-86773400D02*
X138829400Y-86773400D01*
X111369600Y-132883400D02*
X114941600Y-132883400D01*
D64*
X121361200Y-115011200D02*
X121361200Y-114350800D01*
D65*
X119565298Y-118537600D02*
X119315298Y-118787600D01*
D66*
X195580000Y-113665000D02*
X195503800Y-113665000D01*
D65*
X111175800Y-115570000D02*
X111252000Y-115646200D01*
D66*
X186410600Y-109866700D02*
X185911300Y-110366000D01*
X140679000Y-96967800D02*
X140679000Y-88599000D01*
X185911300Y-110366000D02*
X186241500Y-110366000D01*
X138887200Y-79273400D02*
X148844000Y-79273400D01*
D64*
X121011200Y-115361200D02*
X121361200Y-115011200D01*
D65*
X139700000Y-134565000D02*
X139695800Y-134569200D01*
D66*
X195511300Y-108948100D02*
X195478400Y-108915200D01*
D65*
X110052500Y-147492700D02*
X110702500Y-146842700D01*
X120409002Y-118537600D02*
X119987150Y-118537600D01*
D66*
X185911300Y-95766000D02*
X188104400Y-95766000D01*
D65*
X110702500Y-140442700D02*
X110702500Y-139976700D01*
D66*
X138887200Y-79273400D02*
X138844000Y-79316600D01*
D65*
X115734550Y-115646200D02*
X115770750Y-115682400D01*
X117737150Y-117287600D02*
X117737150Y-117025950D01*
X154940000Y-137064800D02*
X154863800Y-136988600D01*
D66*
X123850400Y-87655400D02*
X126898400Y-87655400D01*
D65*
X179122500Y-102412800D02*
X176784000Y-102412800D01*
X110052500Y-147976700D02*
X110052500Y-147492700D01*
X139689400Y-134554400D02*
X139700000Y-134565000D01*
X154965400Y-137064800D02*
X154940000Y-137064800D01*
X114300000Y-144395700D02*
X114300000Y-145084800D01*
X117737150Y-117025950D02*
X117195600Y-116484400D01*
D66*
X123317000Y-127000000D02*
X121298200Y-124981200D01*
X111353600Y-132867400D02*
X111369600Y-132883400D01*
X140679000Y-88608400D02*
X138844000Y-86773400D01*
D65*
X120569850Y-119537600D02*
X120965450Y-119933200D01*
X123088400Y-150750100D02*
X123088400Y-152603200D01*
X148986000Y-134565000D02*
X150901400Y-134565000D01*
X121920000Y-143667700D02*
X121920000Y-143662400D01*
X151892000Y-136988600D02*
X151892000Y-135555600D01*
D66*
X106807000Y-86893400D02*
X107518200Y-86893400D01*
D65*
X139705200Y-134559800D02*
X139700000Y-134565000D01*
X119470000Y-143167700D02*
X121420000Y-143167700D01*
D66*
X151511000Y-107923400D02*
X151511000Y-110896400D01*
D65*
X131064000Y-150750100D02*
X131064000Y-152603200D01*
D64*
X122021600Y-113690400D02*
X123017450Y-113690400D01*
D65*
X148986000Y-134565000D02*
X139700000Y-134565000D01*
D66*
X185876000Y-105866000D02*
X186410600Y-106400600D01*
X117805200Y-150803600D02*
X117801300Y-150799700D01*
X107524633Y-86886967D02*
X109125050Y-86886967D01*
X107518200Y-86893400D02*
X107524633Y-86886967D01*
D65*
X123901200Y-87706200D02*
X123850400Y-87655400D01*
X121117850Y-117828752D02*
X120409002Y-118537600D01*
D66*
X185420000Y-113665000D02*
X184988200Y-113665000D01*
X151511000Y-113792000D02*
X151511000Y-110896400D01*
X195511300Y-96197300D02*
X195529200Y-96215200D01*
D65*
X139700000Y-149280000D02*
X136757800Y-149280000D01*
D64*
X123017450Y-113690400D02*
X123027850Y-113700800D01*
D66*
X115163600Y-150799700D02*
X117801300Y-150799700D01*
D65*
X119987150Y-119537600D02*
X119237150Y-119537600D01*
D66*
X195511300Y-94866000D02*
X195511300Y-96197300D01*
D65*
X114884200Y-121564400D02*
X114897400Y-121577600D01*
X151892000Y-135555600D02*
X150901400Y-134565000D01*
X152400000Y-148767800D02*
X151887800Y-149280000D01*
D66*
X186410600Y-108026200D02*
X187223400Y-108026200D01*
D65*
X117737150Y-118037600D02*
X118487150Y-118787600D01*
X136757800Y-149280000D02*
X136753600Y-149275800D01*
D66*
X109273000Y-84709000D02*
X109125050Y-84856950D01*
X123342400Y-127000000D02*
X123317000Y-127000000D01*
D65*
X121420000Y-143167700D02*
X121920000Y-143667700D01*
X119237150Y-119537600D02*
X118487150Y-118787600D01*
X151887800Y-149280000D02*
X148986000Y-149280000D01*
D66*
X123850400Y-87655400D02*
X123850400Y-89357200D01*
X138844000Y-86773400D02*
X138844000Y-79316600D01*
X140593400Y-97053400D02*
X140679000Y-96967800D01*
D65*
X110702500Y-139976700D02*
X110052500Y-139326700D01*
D66*
X109125050Y-84856950D02*
X109125050Y-86886967D01*
X188104400Y-95766000D02*
X188112400Y-95758000D01*
X126898400Y-87655400D02*
X126949200Y-87706200D01*
D65*
X148986000Y-149280000D02*
X139700000Y-149280000D01*
X154863800Y-136988600D02*
X151892000Y-136988600D01*
D66*
X151511000Y-113792000D02*
X154787600Y-113792000D01*
D65*
X117737150Y-117287600D02*
X117737150Y-118037600D01*
X119987150Y-119537600D02*
X120569850Y-119537600D01*
D66*
X186410600Y-108026200D02*
X186410600Y-109866700D01*
D65*
X114897400Y-121577600D02*
X116085150Y-121577600D01*
X137464800Y-134554400D02*
X139689400Y-134554400D01*
D66*
X130844000Y-79273400D02*
X138887200Y-79273400D01*
D65*
X119315298Y-118787600D02*
X118487150Y-118787600D01*
X152400000Y-148082000D02*
X152400000Y-148767800D01*
D66*
X195841500Y-110366000D02*
X195958000Y-110366000D01*
X121298200Y-124981200D02*
X121275950Y-124981200D01*
D65*
X119470000Y-143167700D02*
X118936100Y-143167700D01*
D66*
X140593400Y-97053400D02*
X130844000Y-97053400D01*
D65*
X119987150Y-118537600D02*
X119565298Y-118537600D01*
D66*
X184911300Y-105866000D02*
X185876000Y-105866000D01*
X138829400Y-86773400D02*
X138811000Y-86791800D01*
D64*
X143154400Y-121784200D02*
X143166400Y-121796200D01*
D66*
X195511300Y-110366000D02*
X195511300Y-108948100D01*
D65*
X121117850Y-117748800D02*
X121117850Y-117828752D01*
X118936100Y-143167700D02*
X118110000Y-142341600D01*
D66*
X186410600Y-106400600D02*
X186410600Y-108026200D01*
D64*
X121361200Y-114350800D02*
X122021600Y-113690400D01*
D65*
X114300000Y-145084800D02*
X115620800Y-146405600D01*
%TO.N,IO0*%
X152400000Y-145338800D02*
X151841200Y-144780000D01*
X157454600Y-95783400D02*
X148844000Y-95783400D01*
X139700000Y-144780000D02*
X148986000Y-144780000D01*
X151841200Y-144780000D02*
X148986000Y-144780000D01*
X145008600Y-95783400D02*
X136652000Y-104140000D01*
X164465000Y-93218000D02*
X160020000Y-93218000D01*
X148844000Y-95783400D02*
X145008600Y-95783400D01*
X152400000Y-146007000D02*
X152400000Y-145338800D01*
X160020000Y-93218000D02*
X157454600Y-95783400D01*
%TO.N,ENA*%
X118969200Y-82626200D02*
X118973600Y-82630600D01*
X132537200Y-136558100D02*
X131804450Y-137290850D01*
X130680100Y-137475000D02*
X131620300Y-137475000D01*
X133210300Y-139065000D02*
X139700000Y-139065000D01*
X151890600Y-139065000D02*
X151892000Y-139063600D01*
X151482800Y-139063600D02*
X151481400Y-139065000D01*
X132537200Y-134061200D02*
X132537200Y-136558100D01*
X118934400Y-82661000D02*
X118969200Y-82626200D01*
X151892000Y-139063600D02*
X151900200Y-139055400D01*
X122326400Y-81864200D02*
X130793200Y-81864200D01*
X132111750Y-137966450D02*
X133210300Y-139065000D01*
X132111750Y-137966450D02*
X131804450Y-137659150D01*
X122326400Y-130124200D02*
X124409200Y-132207000D01*
X131620300Y-137475000D02*
X131804450Y-137290850D01*
X110363000Y-83820000D02*
X111522000Y-82661000D01*
X110363000Y-84709000D02*
X110363000Y-83820000D01*
X121564400Y-82626200D02*
X122326400Y-81864200D01*
X118846600Y-82661000D02*
X118881400Y-82626200D01*
X124409200Y-132207000D02*
X130683000Y-132207000D01*
X148986000Y-139065000D02*
X151890600Y-139065000D01*
X154965400Y-139064800D02*
X151893200Y-139064800D01*
X139559200Y-139065000D02*
X139559000Y-139064800D01*
X151893200Y-139064800D02*
X151892000Y-139063600D01*
X148986000Y-139065000D02*
X139700000Y-139065000D01*
X111522000Y-82661000D02*
X118846600Y-82661000D01*
X131804450Y-137659150D02*
X131804450Y-137290850D01*
X131620300Y-137475000D02*
X132111750Y-137966450D01*
X151892000Y-139063600D02*
X151482800Y-139063600D01*
X118881400Y-82626200D02*
X121564400Y-82626200D01*
X139700000Y-139065000D02*
X139559200Y-139065000D01*
X130793200Y-81864200D02*
X130844000Y-81813400D01*
X130683000Y-132207000D02*
X132537200Y-134061200D01*
D66*
%TO.N,+3V3*%
X149416600Y-113811400D02*
X149436000Y-113792000D01*
X147505600Y-105918000D02*
X147193000Y-105918000D01*
D65*
X180201400Y-104749600D02*
X176072800Y-104749600D01*
D66*
X149436000Y-107848400D02*
X147505600Y-105918000D01*
D65*
X178511200Y-106984800D02*
X178409600Y-106883200D01*
D66*
X134167027Y-80543400D02*
X134215726Y-80494701D01*
X149436000Y-113792000D02*
X149436000Y-110896400D01*
D65*
X181197500Y-102412800D02*
X181203600Y-102412800D01*
X180252200Y-100279200D02*
X179063900Y-100279200D01*
D66*
X130726400Y-80661000D02*
X130844000Y-80543400D01*
D65*
X118339600Y-145167700D02*
X119470000Y-145167700D01*
X181065000Y-106984800D02*
X178511200Y-106984800D01*
X179063900Y-100279200D02*
X181197500Y-102412800D01*
D66*
X130844000Y-80543400D02*
X134167027Y-80543400D01*
D65*
X119470000Y-144667700D02*
X119470000Y-145167700D01*
X117805200Y-145702100D02*
X118339600Y-145167700D01*
X181203600Y-102412800D02*
X182456800Y-103666000D01*
X185224700Y-103682800D02*
X185241500Y-103666000D01*
D66*
X149436000Y-110896400D02*
X149436000Y-107848400D01*
D65*
X182456800Y-103666000D02*
X184911300Y-103666000D01*
D66*
X118846600Y-80661000D02*
X130726400Y-80661000D01*
X147193000Y-105918000D02*
X144907000Y-105918000D01*
X118846600Y-80686400D02*
X118906800Y-80626200D01*
D65*
X176072800Y-104749600D02*
X176022000Y-104698800D01*
X117805200Y-148728600D02*
X117805200Y-145702100D01*
%TO.N,VBUS*%
X120446800Y-151798100D02*
X120446800Y-150731300D01*
X119938800Y-152306100D02*
X120446800Y-151798100D01*
X113919000Y-151772700D02*
X114452400Y-152306100D01*
D67*
X111495000Y-141242700D02*
X112776000Y-139961700D01*
X110702500Y-141242700D02*
X111495000Y-141242700D01*
X108458000Y-144756600D02*
X109648300Y-145946900D01*
D65*
X115155800Y-148716900D02*
X115163600Y-148724700D01*
D67*
X108458000Y-142755700D02*
X108458000Y-144756600D01*
D65*
X115675500Y-148724700D02*
X115697000Y-148703200D01*
D67*
X110702500Y-141242700D02*
X109971000Y-141242700D01*
X112674400Y-147056200D02*
X112674400Y-148716900D01*
D65*
X114452400Y-152306100D02*
X119938800Y-152306100D01*
D67*
X110702500Y-146042700D02*
X111660900Y-146042700D01*
X109971000Y-141242700D02*
X108458000Y-142755700D01*
D65*
X112674400Y-148716900D02*
X113919000Y-148716900D01*
D67*
X111660900Y-146042700D02*
X112674400Y-147056200D01*
X110606700Y-145946900D02*
X110702500Y-146042700D01*
D65*
X115146000Y-148716900D02*
X115163600Y-148699300D01*
D67*
X114300000Y-140342700D02*
X114300000Y-142120700D01*
X109648300Y-145946900D02*
X110606700Y-145946900D01*
D65*
X113919000Y-148716900D02*
X113919000Y-151772700D01*
D67*
X112776000Y-139961700D02*
X113919000Y-139961700D01*
X113919000Y-139961700D02*
X114300000Y-140342700D01*
D65*
X113919000Y-148716900D02*
X115155800Y-148716900D01*
%TO.N,D15*%
X181864000Y-100279200D02*
X184150800Y-102566000D01*
X168300400Y-96418400D02*
X178005400Y-96418400D01*
X158089600Y-100838000D02*
X165227000Y-100838000D01*
X181342200Y-100279200D02*
X181762400Y-100279200D01*
X165227000Y-100838000D02*
X167640000Y-98425000D01*
X148844000Y-98323400D02*
X155575000Y-98323400D01*
X178005400Y-96418400D02*
X181342200Y-99755200D01*
X184150800Y-102566000D02*
X184911300Y-102566000D01*
X167640000Y-98425000D02*
X167640000Y-97078800D01*
X181342200Y-99755200D02*
X181342200Y-100279200D01*
X181342200Y-99755200D02*
X181342200Y-99859000D01*
X167640000Y-97078800D02*
X168300400Y-96418400D01*
X181762400Y-100279200D02*
X181864000Y-100279200D01*
X181342200Y-99859000D02*
X181762400Y-100279200D01*
X155575000Y-98323400D02*
X158089600Y-100838000D01*
%TO.N,D2*%
X185222700Y-106984800D02*
X185241500Y-106966000D01*
X181205800Y-108458000D02*
X182155000Y-107508800D01*
X148844000Y-97053400D02*
X163728400Y-97053400D01*
X163728400Y-97053400D02*
X165100000Y-98425000D01*
X182155000Y-107289600D02*
X182155000Y-106984800D01*
X182478600Y-106966000D02*
X184911300Y-106966000D01*
X182459800Y-106984800D02*
X182478600Y-106966000D01*
X178206400Y-108458000D02*
X181205800Y-108458000D01*
X182155000Y-106984800D02*
X182459800Y-106984800D01*
X182155000Y-107508800D02*
X182155000Y-107289600D01*
X182459800Y-106984800D02*
X182155000Y-107289600D01*
%TO.N,D14*%
X158343600Y-111963200D02*
X165929600Y-111963200D01*
X181291400Y-104749600D02*
X184894900Y-104749600D01*
X185225100Y-104749600D02*
X185241500Y-104766000D01*
X175133000Y-115163600D02*
X175133000Y-107772200D01*
X176936400Y-105968800D02*
X180746400Y-105968800D01*
X170933400Y-116967000D02*
X173329600Y-116967000D01*
X138282367Y-95877633D02*
X136918134Y-94513400D01*
X175133000Y-107772200D02*
X176936400Y-105968800D01*
X180746400Y-105968800D02*
X181291400Y-105423800D01*
X181457600Y-104749600D02*
X181474000Y-104766000D01*
X167640000Y-113673600D02*
X170933400Y-116967000D01*
X181291400Y-104749600D02*
X181457600Y-104749600D01*
X184894900Y-104749600D02*
X184911300Y-104766000D01*
X181291400Y-105423800D02*
X181291400Y-104749600D01*
X165929600Y-111963200D02*
X167640000Y-113673600D01*
X136918134Y-94513400D02*
X130844000Y-94513400D01*
X173329600Y-116967000D02*
X175133000Y-115163600D01*
D66*
%TO.N,VBAT*%
X121226617Y-98036167D02*
X122489450Y-99299000D01*
X124089250Y-109179200D02*
X125975850Y-109179200D01*
X120187450Y-98051367D02*
X120172250Y-98036167D01*
X122489450Y-99299000D02*
X122489450Y-107579400D01*
X122489450Y-107579400D02*
X124089250Y-109179200D01*
X120172250Y-98036167D02*
X121226617Y-98036167D01*
D65*
%TO.N,Net-(U7-BOOST)*%
X118237150Y-120287600D02*
X118237150Y-122153500D01*
X118237150Y-122153500D02*
X117511050Y-122879600D01*
%TO.N,Net-(U7-INTVcc)*%
X117737150Y-120287600D02*
X117737150Y-121015600D01*
X117737150Y-121015600D02*
X117175150Y-121577600D01*
%TO.N,D34*%
X123877000Y-85631200D02*
X123850400Y-85604600D01*
X130836200Y-85631200D02*
X130844000Y-85623400D01*
X126949200Y-85631200D02*
X130836200Y-85631200D01*
X118541800Y-91075000D02*
X122113800Y-91075000D01*
X119678200Y-85655400D02*
X118541800Y-86791800D01*
X122113800Y-91075000D02*
X123571000Y-92532200D01*
X126949200Y-85631200D02*
X126898400Y-85580400D01*
X126949200Y-85631200D02*
X126906600Y-85588600D01*
X118541800Y-86791800D02*
X118541800Y-91075000D01*
X126949200Y-85631200D02*
X123877000Y-85631200D01*
X123850400Y-85655400D02*
X119678200Y-85655400D01*
X130742400Y-85623400D02*
X130793200Y-85674200D01*
D66*
%TO.N,EXT_5V*%
X127975850Y-110129200D02*
X128000850Y-110154200D01*
X116939150Y-129045200D02*
X116939150Y-132880950D01*
D65*
X113893600Y-120853200D02*
X113893600Y-123545600D01*
D66*
X119005250Y-128702700D02*
X118774500Y-128933450D01*
X119546650Y-128702700D02*
X119005250Y-128702700D01*
D67*
X116939150Y-129045200D02*
X116939150Y-125946400D01*
D64*
X116939150Y-125946400D02*
X116939150Y-125377200D01*
D65*
X116987150Y-119537100D02*
X115209700Y-119537100D01*
D66*
X125620150Y-128702700D02*
X125639050Y-128721600D01*
X124953250Y-128702700D02*
X125620150Y-128702700D01*
D65*
X118737150Y-124442400D02*
X118737150Y-120287600D01*
X113893600Y-123545600D02*
X116294400Y-125946400D01*
X110972600Y-153924000D02*
X112682100Y-153924000D01*
D66*
X124648450Y-127019800D02*
X124648450Y-127731000D01*
X124648450Y-127731000D02*
X125639050Y-128721600D01*
X119005250Y-128702700D02*
X123835650Y-128702700D01*
X127975850Y-112278000D02*
X127975850Y-110129200D01*
D65*
X116294400Y-125946400D02*
X116939150Y-125946400D01*
X115209700Y-119537100D02*
X113893600Y-120853200D01*
D66*
X119275950Y-124981200D02*
X119275950Y-128432000D01*
X118774500Y-128933450D02*
X119275950Y-128432000D01*
X130433600Y-110129200D02*
X130479800Y-110175400D01*
D65*
X112682100Y-153924000D02*
X112687100Y-153919000D01*
D66*
X127975850Y-110129200D02*
X130433600Y-110129200D01*
X116939150Y-129045200D02*
X118628650Y-129045200D01*
X123835650Y-128702700D02*
X124953250Y-128702700D01*
X124648450Y-127889900D02*
X123835650Y-128702700D01*
X112674400Y-153906300D02*
X112687100Y-153919000D01*
X155092400Y-125958600D02*
X148615400Y-125958600D01*
X112674400Y-150916900D02*
X112674400Y-153906300D01*
X118662750Y-129045200D02*
X118774500Y-128933450D01*
X119546650Y-128702700D02*
X119275950Y-128432000D01*
X148615400Y-125958600D02*
X148590000Y-125984000D01*
X124648450Y-127019800D02*
X124648450Y-128397900D01*
D65*
X119275950Y-124473200D02*
X119275950Y-124981200D01*
D66*
X118628650Y-129045200D02*
X118662750Y-129045200D01*
D67*
X116939150Y-129045200D02*
X116949550Y-129034800D01*
D65*
X119275950Y-124981200D02*
X118737150Y-124442400D01*
X119275950Y-125286000D02*
X119275950Y-124981200D01*
D66*
X155117800Y-125933200D02*
X155092400Y-125958600D01*
X124648450Y-127731000D02*
X124648450Y-127889900D01*
X124648450Y-128397900D02*
X124953250Y-128702700D01*
X124648450Y-126511800D02*
X124648450Y-127019800D01*
D65*
%TO.N,D12*%
X132940000Y-95750000D02*
X131783200Y-95750000D01*
X154787600Y-104368600D02*
X155702000Y-104368600D01*
X157657800Y-102412800D02*
X166192200Y-102412800D01*
X131783200Y-95750000D02*
X131749800Y-95783400D01*
X155702000Y-104368600D02*
X157657800Y-102412800D01*
X131749800Y-95783400D02*
X130844000Y-95783400D01*
X166192200Y-102412800D02*
X170180000Y-98425000D01*
%TO.N,D13*%
X155831200Y-106042800D02*
X165100000Y-106042800D01*
X155803600Y-106070400D02*
X155831200Y-106042800D01*
X132207000Y-98323400D02*
X130844000Y-98323400D01*
X133629400Y-99745800D02*
X132207000Y-98323400D01*
%TO.N,D4*%
X155422600Y-94513400D02*
X148844000Y-94513400D01*
X160807400Y-89128600D02*
X155422600Y-94513400D01*
X160807400Y-89128600D02*
X162661600Y-89128600D01*
%TO.N,D26*%
X156997400Y-108610400D02*
X167656800Y-108610400D01*
X133324600Y-91948000D02*
X130869400Y-91948000D01*
X167656800Y-108610400D02*
X172720000Y-113673600D01*
X150888700Y-102501700D02*
X156997400Y-108610400D01*
X130869400Y-91948000D02*
X130844000Y-91973400D01*
%TO.N,D27*%
X166793200Y-110286800D02*
X156641800Y-110286800D01*
X132638800Y-93294200D02*
X132588000Y-93243400D01*
X132588000Y-93243400D02*
X130844000Y-93243400D01*
X166793200Y-110286800D02*
X170180000Y-113673600D01*
X149987000Y-103641600D02*
X149996600Y-103641600D01*
X149996600Y-103641600D02*
X156641800Y-110286800D01*
%TO.N,D22*%
X152400000Y-81788000D02*
X152374600Y-81813400D01*
X152374600Y-81813400D02*
X148844000Y-81813400D01*
X152654000Y-81788000D02*
X152400000Y-81788000D01*
%TO.N,D23*%
X151257000Y-80543400D02*
X148844000Y-80543400D01*
%TO.N,D21*%
X151485600Y-85623400D02*
X153924000Y-83185000D01*
X148844000Y-85623400D02*
X151485600Y-85623400D01*
%TO.N,D5*%
X153771600Y-90703400D02*
X148844000Y-90703400D01*
X155740100Y-88734900D02*
X153771600Y-90703400D01*
%TO.N,D19*%
X154571700Y-84950300D02*
X151358600Y-88163400D01*
X151358600Y-88163400D02*
X148844000Y-88163400D01*
%TO.N,D18*%
X152374600Y-89433400D02*
X148844000Y-89433400D01*
X155143200Y-86664800D02*
X152374600Y-89433400D01*
%TO.N,D33*%
X132486400Y-89433400D02*
X130844000Y-89433400D01*
X133553200Y-90525600D02*
X133553200Y-90500200D01*
X133553200Y-90500200D02*
X132486400Y-89433400D01*
%TO.N,D35*%
X133299200Y-86893400D02*
X130844000Y-86893400D01*
%TO.N,D32*%
X133540500Y-88861900D02*
X132842000Y-88163400D01*
X132842000Y-88163400D02*
X130844000Y-88163400D01*
%TO.N,DP*%
X114808000Y-143263700D02*
X115250000Y-143705700D01*
X110702500Y-143392700D02*
X109345000Y-143392700D01*
X109220000Y-144152700D02*
X109460000Y-144392700D01*
X111758000Y-143392700D02*
X111887000Y-143263700D01*
X110702500Y-143392700D02*
X111758000Y-143392700D01*
X109220000Y-143517700D02*
X109220000Y-144152700D01*
X111887000Y-143263700D02*
X112268000Y-143263700D01*
X109345000Y-143392700D02*
X109220000Y-143517700D01*
X115250000Y-143705700D02*
X115250000Y-144395700D01*
X109460000Y-144392700D02*
X110702500Y-144392700D01*
X112268000Y-143263700D02*
X114808000Y-143263700D01*
%TO.N,DN*%
X112395000Y-144395700D02*
X113350000Y-144395700D01*
X112130000Y-144395700D02*
X112395000Y-144395700D01*
X112395000Y-144660700D02*
X112014000Y-145041700D01*
X112395000Y-144395700D02*
X112395000Y-144660700D01*
X110702500Y-142892700D02*
X111496000Y-142892700D01*
X111627000Y-143892700D02*
X112130000Y-144395700D01*
X111496000Y-142892700D02*
X112014000Y-142374700D01*
X110702500Y-143892700D02*
X111627000Y-143892700D01*
%TO.N,Net-(LED1-K)*%
X112610900Y-119037100D02*
X116987150Y-119037100D01*
X112264500Y-119383500D02*
X112610900Y-119037100D01*
X112264500Y-120426100D02*
X112264500Y-119383500D01*
%TO.N,Net-(LED1-A)*%
X112271500Y-124236750D02*
X113981150Y-125946400D01*
X112271500Y-122025100D02*
X112271500Y-124236750D01*
%TO.N,Net-(LED2-A)*%
X109858500Y-126876500D02*
X112027200Y-129045200D01*
X112027200Y-129045200D02*
X113981150Y-129045200D01*
X109858500Y-122008300D02*
X109858500Y-126876500D01*
%TO.N,Net-(LED2-K)*%
X116520298Y-118492100D02*
X116533298Y-118505100D01*
X116461383Y-118492100D02*
X116520298Y-118492100D01*
X116955150Y-118505100D02*
X116987150Y-118537100D01*
X116533298Y-118505100D02*
X116955150Y-118505100D01*
X116231683Y-118262400D02*
X116461383Y-118492100D01*
X109851500Y-120409300D02*
X109851500Y-120272850D01*
X109851500Y-119112906D02*
X110702006Y-118262400D01*
X109851500Y-120409300D02*
X109851500Y-119112906D01*
X110702006Y-118262400D02*
X116231683Y-118262400D01*
D66*
%TO.N,Net-(U7-CHGSNS)*%
X123898750Y-117357600D02*
X122371150Y-117357600D01*
D65*
%TO.N,RTS*%
X122420000Y-140763716D02*
X122980716Y-140203000D01*
X122420000Y-141217700D02*
X122420000Y-140763716D01*
X125945900Y-138409000D02*
X128115900Y-138409000D01*
X128115900Y-138409000D02*
X128181100Y-138343800D01*
X125945900Y-138409000D02*
X125485916Y-138409000D01*
X125945900Y-139745800D02*
X125945900Y-138409000D01*
X122980716Y-140203000D02*
X125488700Y-140203000D01*
X125488700Y-140203000D02*
X125945900Y-139745800D01*
%TO.N,Net-(Q1-B)*%
X128181100Y-135631000D02*
X128181100Y-136525000D01*
X123456700Y-135529400D02*
X123812300Y-135173800D01*
X123456700Y-136393000D02*
X123456700Y-135529400D01*
X123812300Y-135173800D02*
X127723900Y-135173800D01*
X127723900Y-135173800D02*
X128181100Y-135631000D01*
%TO.N,Net-(Q2-B)*%
X121221500Y-137612200D02*
X121221500Y-138257400D01*
X124945900Y-137409000D02*
X121424700Y-137409000D01*
X121424700Y-137409000D02*
X121221500Y-137612200D01*
X125945900Y-136409000D02*
X124945900Y-137409000D01*
%TO.N,DTR*%
X119837200Y-140131800D02*
X119837200Y-139725400D01*
X119842100Y-139725400D02*
X119837200Y-139725400D01*
X119959200Y-139237800D02*
X119913400Y-139192000D01*
X120751600Y-139237800D02*
X123233100Y-139237800D01*
X119837200Y-139268200D02*
X119837200Y-138709400D01*
X120068250Y-139499250D02*
X119842100Y-139725400D01*
X119959200Y-139237800D02*
X119959200Y-139390200D01*
X119837200Y-139014200D02*
X119837200Y-138564700D01*
X120015000Y-139090400D02*
X120091200Y-139014200D01*
X119837200Y-136690100D02*
X120169900Y-136357400D01*
X120169900Y-136357400D02*
X121221500Y-136357400D01*
X119837200Y-138564700D02*
X119837200Y-136690100D01*
X120068250Y-139499250D02*
X120329700Y-139237800D01*
X119837200Y-138709400D02*
X119837200Y-138564700D01*
X123456700Y-139014200D02*
X123456700Y-138393000D01*
X123233100Y-139237800D02*
X123456700Y-139014200D01*
X119837200Y-139725400D02*
X119837200Y-139268200D01*
X120420000Y-140714600D02*
X119837200Y-140131800D01*
X120420000Y-141217700D02*
X120420000Y-140714600D01*
X120751600Y-139237800D02*
X119959200Y-139237800D01*
X120091200Y-139014200D02*
X119913400Y-139192000D01*
X120365600Y-139237800D02*
X119837200Y-138709400D01*
X119837200Y-138699400D02*
X119837200Y-138564700D01*
X120510300Y-139237800D02*
X120751600Y-139237800D01*
X119913400Y-139192000D02*
X119837200Y-139268200D01*
X120329700Y-139237800D02*
X120510300Y-139237800D01*
X120510300Y-139237800D02*
X120365600Y-139237800D01*
X119959200Y-139390200D02*
X120068250Y-139499250D01*
%TO.N,Net-(Q3-G)*%
X111455200Y-85521800D02*
X115620800Y-85521800D01*
X116179600Y-86080600D02*
X116179600Y-86874600D01*
X111025050Y-85951950D02*
X111455200Y-85521800D01*
X116214000Y-86840200D02*
X116179600Y-86874600D01*
X115620800Y-85521800D02*
X116179600Y-86080600D01*
X111025050Y-86886967D02*
X111025050Y-85951950D01*
%TO.N,Net-(Q3-D)*%
X108567450Y-92036567D02*
X109744850Y-90859167D01*
X109744850Y-90859167D02*
X109871850Y-90732167D01*
X109871850Y-90732167D02*
X110075050Y-90528967D01*
X110348250Y-90802167D02*
X110075050Y-90528967D01*
X112532650Y-92102567D02*
X111648650Y-92102567D01*
X110075050Y-90528967D02*
X110075050Y-88886967D01*
X109801850Y-90802167D02*
X109744850Y-90859167D01*
X109941850Y-90802167D02*
X110348250Y-90802167D01*
X110348250Y-90802167D02*
X109801850Y-90802167D01*
X107585850Y-92036567D02*
X108567450Y-92036567D01*
X111648650Y-92102567D02*
X110348250Y-90802167D01*
X109871850Y-90732167D02*
X109941850Y-90802167D01*
%TO.N,Net-(Q4-D)*%
X118776334Y-93075000D02*
X115025083Y-93075000D01*
X115025083Y-93075000D02*
X115002650Y-93052567D01*
X118798767Y-93052567D02*
X118776334Y-93075000D01*
%TO.N,Net-(U3-VBUS)*%
X120420000Y-146117700D02*
X120420000Y-148707300D01*
X120516400Y-148731300D02*
X120532400Y-148715300D01*
X120532400Y-148715300D02*
X123088400Y-148715300D01*
X120420000Y-148707300D02*
X120396000Y-148731300D01*
X120431600Y-148716100D02*
X120446800Y-148731300D01*
X120446800Y-148731300D02*
X120516400Y-148731300D01*
%TO.N,Net-(R5-Pad1)*%
X125730000Y-150750100D02*
X128422400Y-150750100D01*
%TO.N,Net-(U3-~{RST})*%
X121259600Y-147632500D02*
X125425200Y-147632500D01*
X125730000Y-147937300D02*
X125730000Y-148750100D01*
X125425200Y-147632500D02*
X125730000Y-147937300D01*
X120920000Y-147292900D02*
X121259600Y-147632500D01*
X120920000Y-146117700D02*
X120920000Y-147292900D01*
%TO.N,Net-(U3-~{SUSPEND})*%
X130556000Y-147175300D02*
X131064000Y-147683300D01*
X122227000Y-147175300D02*
X130556000Y-147175300D01*
X131064000Y-147683300D02*
X131064000Y-148750100D01*
X121920000Y-146872700D02*
X122224800Y-147177500D01*
X122224800Y-147177500D02*
X122227000Y-147175300D01*
X121920000Y-146117700D02*
X121920000Y-146872700D01*
%TO.N,Net-(U7-FB)*%
X118737150Y-113173200D02*
X118826750Y-113083600D01*
D64*
X118826750Y-113083600D02*
X117355950Y-113083600D01*
D65*
X118737150Y-117287600D02*
X118737150Y-113173200D01*
D64*
%TO.N,Net-(U7-FBG)*%
X117355950Y-113949600D02*
X117355950Y-115265200D01*
X117355950Y-115265200D02*
X118231350Y-116140600D01*
D65*
X118237150Y-116793906D02*
X118237150Y-117287600D01*
D64*
X118231350Y-116140600D02*
X118231350Y-116788106D01*
D65*
X118237150Y-116865748D02*
X118237150Y-117287600D01*
%TO.N,Net-(U7-MPPT)*%
X120997450Y-119037600D02*
X121117850Y-118917200D01*
X119987150Y-119037600D02*
X120997450Y-119037600D01*
%TO.N,Net-(U7-PROG)*%
X115770750Y-117158000D02*
X115770750Y-116548400D01*
X116987150Y-118037100D02*
X116649850Y-118037100D01*
X116649850Y-118037100D02*
X115770750Y-117158000D01*
%TO.N,D25*%
X116179600Y-88874600D02*
X116179600Y-90652600D01*
X116179600Y-90652600D02*
X116230400Y-90703400D01*
X130844000Y-90703400D02*
X126746000Y-90703400D01*
%TO.N,D+*%
X117753000Y-143668700D02*
X116205000Y-142120700D01*
X117754000Y-143667700D02*
X117753000Y-143668700D01*
X119470000Y-143667700D02*
X117754000Y-143667700D01*
X116205000Y-142120700D02*
X115250000Y-142120700D01*
%TO.N,D-*%
X113350000Y-142120700D02*
X113350000Y-140770951D01*
X113350000Y-140770951D02*
X113343949Y-140764900D01*
X119470000Y-144167700D02*
X116728000Y-144167700D01*
X116728000Y-144167700D02*
X116713000Y-144152700D01*
X116729000Y-144168700D02*
X116713000Y-144152700D01*
%TO.N,TXD0*%
X112191800Y-108331000D02*
X115824000Y-108331000D01*
X148844000Y-83083400D02*
X146431000Y-83083400D01*
X146431000Y-83083400D02*
X144881600Y-81534000D01*
X121932133Y-140054267D02*
X121920000Y-140066400D01*
X112166400Y-108305600D02*
X112191800Y-108331000D01*
X121920000Y-140066400D02*
X121920000Y-141217700D01*
X121932133Y-139964800D02*
X121932133Y-140054267D01*
%TO.N,RXD0*%
X120904000Y-139964800D02*
X121420000Y-140480800D01*
X145923000Y-84353400D02*
X144424400Y-82854800D01*
X121420000Y-140480800D02*
X121420000Y-141217700D01*
X148844000Y-84353400D02*
X145923000Y-84353400D01*
D66*
%TO.N,/Battery_Charger_LiFePO4_3.6V/Battery_Charger_OUTPUT*%
X110921800Y-98036167D02*
X111567450Y-98036167D01*
D65*
X109789450Y-97456967D02*
X107585850Y-95253367D01*
D66*
X116342650Y-98036167D02*
X116037850Y-98036167D01*
X117972250Y-98036167D02*
X116647450Y-98036167D01*
D65*
X109789450Y-97731367D02*
X110109450Y-98051367D01*
D64*
X123977850Y-111277850D02*
X115509450Y-102809450D01*
D65*
X110124650Y-98036167D02*
X111657199Y-98036167D01*
D64*
X119684800Y-115348650D02*
X119684800Y-113091550D01*
D65*
X114463050Y-98036167D02*
X115509450Y-98036167D01*
X110921800Y-98036167D02*
X110668250Y-97782617D01*
X110668250Y-98036167D02*
X110424450Y-97792367D01*
D66*
X115225050Y-98036167D02*
X114971050Y-98036167D01*
D64*
X115509450Y-98564567D02*
X116037850Y-98036167D01*
D66*
X109789450Y-98371367D02*
X110109450Y-98051367D01*
D65*
X110668250Y-97492567D02*
X110780050Y-97380767D01*
D66*
X110124650Y-98036167D02*
X110921800Y-98036167D01*
D65*
X110983250Y-97177567D02*
X112532650Y-95628167D01*
X109789450Y-97456967D02*
X109789450Y-97731367D01*
X110668250Y-98036167D02*
X110668250Y-97612200D01*
D64*
X119255950Y-116263600D02*
X119672250Y-115847300D01*
D66*
X114971050Y-98036167D02*
X114463050Y-98036167D01*
D65*
X107585850Y-95253367D02*
X107585850Y-94036567D01*
D64*
X116380217Y-105788167D02*
X119692750Y-109100700D01*
D65*
X111542050Y-98061567D02*
X111567450Y-98036167D01*
D66*
X116037850Y-98036167D02*
X115225050Y-98036167D01*
D64*
X119692750Y-109100700D02*
X119692750Y-110119400D01*
X119684800Y-113091550D02*
X119692750Y-113083600D01*
X107012250Y-105816567D02*
X107040650Y-105788167D01*
D65*
X110109450Y-98051367D02*
X110790250Y-98051367D01*
X110068850Y-97736367D02*
X110424450Y-97736367D01*
D64*
X119672250Y-115361200D02*
X119684800Y-115348650D01*
D66*
X116647450Y-98036167D02*
X116342650Y-98036167D01*
D65*
X110668250Y-97782617D02*
X110668250Y-97612200D01*
D64*
X119255950Y-117287600D02*
X119255950Y-116263600D01*
D65*
X110109450Y-98051367D02*
X110124650Y-98036167D01*
D64*
X119692750Y-110119400D02*
X119692750Y-113083600D01*
D66*
X110124650Y-98036167D02*
X114463050Y-98036167D01*
D64*
X107040650Y-105788167D02*
X116380217Y-105788167D01*
X115509450Y-102809450D02*
X115509450Y-98564567D01*
D65*
X115509450Y-98320567D02*
X115225050Y-98036167D01*
X110983250Y-97177567D02*
X110780050Y-97380767D01*
D66*
X107012250Y-105816567D02*
X107012250Y-101148567D01*
D65*
X109789450Y-97456967D02*
X110068850Y-97736367D01*
X110668250Y-97612200D02*
X110668250Y-97492567D01*
X114971050Y-98036167D02*
X115509450Y-98574567D01*
D66*
X107012250Y-101148567D02*
X109789450Y-98371367D01*
D65*
X109789450Y-98371367D02*
X109789450Y-97731367D01*
D64*
X123977850Y-111700800D02*
X123977850Y-111277850D01*
D65*
X112532650Y-95628167D02*
X112532650Y-94002567D01*
X110424450Y-97736367D02*
X110983250Y-97177567D01*
X110424450Y-97792367D02*
X110424450Y-97736367D01*
D64*
X119672250Y-115847300D02*
X119672250Y-115361200D01*
D65*
X110109450Y-98051367D02*
X110424450Y-97736367D01*
X110109450Y-98051367D02*
X110780050Y-97380767D01*
D64*
%TO.N,/Buck-Boost3.3V/Buck-Boost_INPUT*%
X142166000Y-123522400D02*
X142166000Y-122785000D01*
D66*
X127976050Y-108229400D02*
X127975850Y-108229200D01*
D64*
X142417800Y-123774200D02*
X142166000Y-123522400D01*
D66*
X134327900Y-107111800D02*
X135039100Y-107823000D01*
X130479800Y-107975400D02*
X131343400Y-107111800D01*
D65*
X142660200Y-123531800D02*
X142417800Y-123774200D01*
D66*
X131343400Y-107111800D02*
X134327900Y-107111800D01*
D65*
X142160200Y-123516600D02*
X142417800Y-123774200D01*
D64*
X142417800Y-123774200D02*
X142648600Y-123543400D01*
X142648600Y-123543400D02*
X142648600Y-122785000D01*
D66*
X127975850Y-108229200D02*
X130226000Y-108229200D01*
X130226000Y-108229200D02*
X130479800Y-107975400D01*
D65*
%TO.N,/Buck-Boost3.3V/Buck-Boost_EN*%
X124927850Y-114742450D02*
X124927850Y-113700800D01*
X125577600Y-115392200D02*
X124927850Y-114742450D01*
X130810000Y-127000000D02*
X128778000Y-124968000D01*
X139762450Y-127000000D02*
X130810000Y-127000000D01*
X128778000Y-124968000D02*
X128778000Y-116890800D01*
X141660200Y-125102250D02*
X139762450Y-127000000D01*
X127279400Y-115392200D02*
X125577600Y-115392200D01*
X141660200Y-122785000D02*
X141660200Y-125102250D01*
X128778000Y-116890800D02*
X127279400Y-115392200D01*
%TO.N,GND*%
X142655200Y-120742800D02*
X142138400Y-121259600D01*
%TD*%
%TA.AperFunction,Conductor*%
%TO.N,+3V3*%
G36*
X149713706Y-112790512D02*
G01*
X149788145Y-112810701D01*
X149842516Y-112865405D01*
X149849286Y-112878720D01*
X151623435Y-116848817D01*
X151629617Y-116877807D01*
X148378870Y-116867086D01*
X148747626Y-112923143D01*
X148774437Y-112850827D01*
X148833815Y-112801603D01*
X148896433Y-112788017D01*
X149713706Y-112790512D01*
G37*
%TD.AperFunction*%
%TD*%
%TA.AperFunction,Conductor*%
%TO.N,Net-(U7-CHGSNS)*%
G36*
X126061900Y-116148762D02*
G01*
X126116438Y-116203300D01*
X126136400Y-116277800D01*
X126136400Y-118442727D01*
X126116438Y-118517227D01*
X126061900Y-118571765D01*
X125987432Y-118591727D01*
X122059615Y-118592575D01*
X121985111Y-118572629D01*
X121930561Y-118518103D01*
X121915708Y-118482316D01*
X121792754Y-118025632D01*
X121790495Y-117957828D01*
X121818350Y-117817792D01*
X121818350Y-117679806D01*
X121791430Y-117544474D01*
X121791429Y-117544470D01*
X121761501Y-117472217D01*
X121738625Y-117416989D01*
X121694244Y-117350569D01*
X121661966Y-117302261D01*
X121661964Y-117302258D01*
X121564392Y-117204686D01*
X121564388Y-117204683D01*
X121449665Y-117128027D01*
X121449659Y-117128024D01*
X121322179Y-117075220D01*
X121322175Y-117075219D01*
X121186843Y-117048300D01*
X121048857Y-117048300D01*
X120913524Y-117075219D01*
X120913520Y-117075220D01*
X120786040Y-117128024D01*
X120786034Y-117128027D01*
X120671311Y-117204683D01*
X120671304Y-117204689D01*
X120573739Y-117302254D01*
X120573733Y-117302261D01*
X120497077Y-117416984D01*
X120497074Y-117416990D01*
X120444270Y-117544470D01*
X120444269Y-117544474D01*
X120417350Y-117679806D01*
X120417350Y-117679807D01*
X120417350Y-117817793D01*
X120419479Y-117828496D01*
X120419546Y-117828833D01*
X120417331Y-117862616D01*
X120417331Y-117896460D01*
X120414827Y-117900795D01*
X120414500Y-117905795D01*
X120378768Y-117963256D01*
X120288568Y-118053458D01*
X120221774Y-118092023D01*
X120183208Y-118097100D01*
X119706800Y-118097100D01*
X119632300Y-118077138D01*
X119577762Y-118022600D01*
X119557800Y-117948100D01*
X119557800Y-117910143D01*
X119577762Y-117835643D01*
X119588597Y-117819428D01*
X119589628Y-117818082D01*
X119589638Y-117818073D01*
X119647631Y-117717627D01*
X119677650Y-117605593D01*
X119677650Y-117553718D01*
X119697612Y-117479218D01*
X119697613Y-117479216D01*
X119701654Y-117472217D01*
X119734250Y-117350569D01*
X119734250Y-117197735D01*
X119743149Y-117147013D01*
X120076198Y-116227078D01*
X120120329Y-116163823D01*
X120190175Y-116131108D01*
X120216299Y-116128800D01*
X125987400Y-116128800D01*
X126061900Y-116148762D01*
G37*
%TD.AperFunction*%
%TD*%
%TA.AperFunction,Conductor*%
%TO.N,+3V3*%
G36*
X151629617Y-116877807D02*
G01*
X151636400Y-116909608D01*
X151636400Y-120094600D01*
X151616438Y-120169100D01*
X151561900Y-120223638D01*
X151487400Y-120243600D01*
X143729699Y-120243600D01*
X143655199Y-120223638D01*
X143600661Y-120169100D01*
X143580699Y-120094600D01*
X143580699Y-119884824D01*
X143585777Y-119846257D01*
X143587700Y-119839081D01*
X143587700Y-119534215D01*
X143607662Y-119459715D01*
X143662200Y-119405177D01*
X143666018Y-119403048D01*
X148378870Y-116867086D01*
X151629617Y-116877807D01*
G37*
%TD.AperFunction*%
%TD*%
%TA.AperFunction,Conductor*%
%TO.N,Net-(U7-SW)*%
G36*
X122018406Y-121424035D02*
G01*
X122018406Y-121424036D01*
X121720792Y-122545810D01*
X121682395Y-122612699D01*
X121615695Y-122651427D01*
X121576776Y-122656600D01*
X121014099Y-122656600D01*
X120939599Y-122636638D01*
X120885061Y-122582100D01*
X120865099Y-122507600D01*
X120865099Y-122435208D01*
X120867963Y-122406133D01*
X120870100Y-122395393D01*
X120870100Y-122257407D01*
X120867962Y-122246658D01*
X120865099Y-122217589D01*
X120865099Y-122011533D01*
X120862185Y-121986410D01*
X120862184Y-121986407D01*
X120816806Y-121883635D01*
X120728200Y-121795029D01*
X120699033Y-121753730D01*
X120548400Y-121437400D01*
X122021600Y-121412000D01*
X122018406Y-121424035D01*
G37*
%TD.AperFunction*%
%TD*%
%TA.AperFunction,Conductor*%
%TO.N,Net-(U7-SW)*%
G36*
X126061900Y-119267562D02*
G01*
X126116438Y-119322100D01*
X126136400Y-119396600D01*
X126136400Y-121238948D01*
X126116438Y-121313448D01*
X126061900Y-121367986D01*
X125988754Y-121387942D01*
X122018407Y-121424034D01*
X122021600Y-121412000D01*
X120548400Y-121437400D01*
X120548399Y-121437399D01*
X119253502Y-120778977D01*
X119196142Y-120727416D01*
X119172247Y-120654083D01*
X119177115Y-120607592D01*
X119177649Y-120605598D01*
X119177650Y-120605592D01*
X119177650Y-120114100D01*
X119197612Y-120039600D01*
X119252150Y-119985062D01*
X119326650Y-119965100D01*
X119506897Y-119965100D01*
X119581397Y-119985062D01*
X119584272Y-119986765D01*
X120675400Y-120650000D01*
X121672036Y-120650000D01*
X121672037Y-120650000D01*
X121898242Y-119370657D01*
X121930871Y-119300771D01*
X121994071Y-119256562D01*
X122044966Y-119247600D01*
X125987400Y-119247600D01*
X126061900Y-119267562D01*
G37*
%TD.AperFunction*%
%TD*%
%TA.AperFunction,Conductor*%
%TO.N,/Buck-Boost3.3V/Buck-Boost_INPUT*%
G36*
X140020629Y-118002962D02*
G01*
X140041672Y-118017665D01*
X140871697Y-118711270D01*
X140877403Y-118716291D01*
X141446940Y-119243903D01*
X141446950Y-119243912D01*
X141446957Y-119243918D01*
X141473255Y-119265680D01*
X141500014Y-119285413D01*
X141501003Y-119286139D01*
X141602263Y-119334629D01*
X141602264Y-119334629D01*
X141604586Y-119335741D01*
X141645593Y-119364769D01*
X141689059Y-119408235D01*
X141727623Y-119475030D01*
X141732700Y-119513594D01*
X141732700Y-119841280D01*
X141734624Y-119848462D01*
X141739700Y-119887022D01*
X141739700Y-120094600D01*
X141719738Y-120169100D01*
X141665200Y-120223638D01*
X141590700Y-120243600D01*
X134198600Y-120243600D01*
X134124100Y-120223638D01*
X134069562Y-120169100D01*
X134049600Y-120094600D01*
X134049600Y-118132000D01*
X134069562Y-118057500D01*
X134124100Y-118002962D01*
X134198600Y-117983000D01*
X139946129Y-117983000D01*
X140020629Y-118002962D01*
G37*
%TD.AperFunction*%
%TD*%
%TA.AperFunction,Conductor*%
%TO.N,Net-(U5-L1)*%
G36*
X142216300Y-112307258D02*
G01*
X142270838Y-112361796D01*
X142290800Y-112436296D01*
X142290800Y-119085911D01*
X142270838Y-119160411D01*
X142216300Y-119214949D01*
X142141800Y-119234911D01*
X142067300Y-119214949D01*
X142036441Y-119191270D01*
X141952964Y-119107793D01*
X141850194Y-119062416D01*
X141850191Y-119062415D01*
X141825065Y-119059500D01*
X141825059Y-119059500D01*
X141755831Y-119059500D01*
X141681331Y-119039538D01*
X141654572Y-119019805D01*
X140535387Y-117983008D01*
X140535375Y-117982997D01*
X140078677Y-117610304D01*
X139500792Y-117138714D01*
X139455696Y-117076147D01*
X139446000Y-117023276D01*
X139446000Y-112436296D01*
X139465962Y-112361796D01*
X139520500Y-112307258D01*
X139595000Y-112287296D01*
X142141800Y-112287296D01*
X142216300Y-112307258D01*
G37*
%TD.AperFunction*%
%TD*%
%TA.AperFunction,Conductor*%
%TO.N,GND*%
G36*
X142744398Y-120336932D02*
G01*
X142783129Y-120375663D01*
X142786529Y-120380627D01*
X142789804Y-120389922D01*
X142794583Y-120395500D01*
X142797765Y-120412518D01*
X142812159Y-120453372D01*
X142812600Y-120464825D01*
X142812600Y-120497600D01*
X142916164Y-120497600D01*
X142958863Y-120506607D01*
X142959398Y-120504643D01*
X142970204Y-120507583D01*
X142970209Y-120507585D01*
X142995335Y-120510500D01*
X143325064Y-120510499D01*
X143325066Y-120510499D01*
X143332243Y-120509666D01*
X143350191Y-120507585D01*
X143350198Y-120507581D01*
X143351766Y-120507156D01*
X143353966Y-120507147D01*
X143361325Y-120506294D01*
X143361420Y-120507118D01*
X143428893Y-120506856D01*
X143465391Y-120521892D01*
X143497385Y-120540364D01*
X143497386Y-120540364D01*
X143497391Y-120540367D01*
X143606118Y-120569500D01*
X143718679Y-120569500D01*
X143718681Y-120569500D01*
X143775869Y-120554176D01*
X143814431Y-120549100D01*
X151489000Y-120549100D01*
X151563500Y-120569062D01*
X151618038Y-120623600D01*
X151638000Y-120698100D01*
X151638000Y-124565000D01*
X151618038Y-124639500D01*
X151563500Y-124694038D01*
X151489000Y-124714000D01*
X145508742Y-124714000D01*
X145434242Y-124694038D01*
X145379704Y-124639500D01*
X145374424Y-124629495D01*
X144158800Y-122097800D01*
X143900142Y-122097800D01*
X143856482Y-122088590D01*
X143856002Y-122090357D01*
X143845191Y-122087415D01*
X143845182Y-122087414D01*
X143820065Y-122084500D01*
X143820059Y-122084500D01*
X143500333Y-122084500D01*
X143475210Y-122087414D01*
X143464395Y-122090357D01*
X143463914Y-122088590D01*
X143420258Y-122097800D01*
X143320600Y-122097800D01*
X143320600Y-122125795D01*
X143319078Y-122131474D01*
X143320159Y-122137255D01*
X143309183Y-122168402D01*
X143300638Y-122200295D01*
X143294526Y-122209999D01*
X143287726Y-122219926D01*
X143229155Y-122270108D01*
X143153340Y-122284281D01*
X143080596Y-122258648D01*
X143030414Y-122200077D01*
X143015800Y-122135722D01*
X143015800Y-122097800D01*
X142900142Y-122097800D01*
X142856482Y-122088590D01*
X142856002Y-122090357D01*
X142845191Y-122087415D01*
X142845182Y-122087414D01*
X142820065Y-122084500D01*
X142820059Y-122084500D01*
X142500333Y-122084500D01*
X142475210Y-122087414D01*
X142464395Y-122090357D01*
X142463914Y-122088590D01*
X142420258Y-122097800D01*
X142400142Y-122097800D01*
X142356482Y-122088590D01*
X142356002Y-122090357D01*
X142345191Y-122087415D01*
X142345182Y-122087414D01*
X142320065Y-122084500D01*
X142320059Y-122084500D01*
X142000333Y-122084500D01*
X141975210Y-122087414D01*
X141964395Y-122090357D01*
X141963914Y-122088590D01*
X141920258Y-122097800D01*
X141900142Y-122097800D01*
X141856482Y-122088590D01*
X141856002Y-122090357D01*
X141845191Y-122087415D01*
X141845182Y-122087414D01*
X141820065Y-122084500D01*
X141820059Y-122084500D01*
X141500333Y-122084500D01*
X141475210Y-122087414D01*
X141464395Y-122090357D01*
X141463914Y-122088590D01*
X141420258Y-122097800D01*
X141198601Y-122097800D01*
X141198600Y-122097800D01*
X140599765Y-124565000D01*
X140591235Y-124600145D01*
X140554264Y-124667834D01*
X140488401Y-124707969D01*
X140446439Y-124714000D01*
X137414000Y-124714000D01*
X134198986Y-124714000D01*
X134124486Y-124694038D01*
X134069948Y-124639500D01*
X134049986Y-124565014D01*
X134049619Y-120698114D01*
X134069574Y-120623612D01*
X134124107Y-120569069D01*
X134198605Y-120549100D01*
X141503769Y-120549100D01*
X141542330Y-120554176D01*
X141599519Y-120569500D01*
X141599521Y-120569500D01*
X141712079Y-120569500D01*
X141712081Y-120569500D01*
X141820809Y-120540367D01*
X141853514Y-120521484D01*
X141928011Y-120501521D01*
X141967137Y-120506749D01*
X141970206Y-120507583D01*
X141970209Y-120507585D01*
X141995335Y-120510500D01*
X142325064Y-120510499D01*
X142325066Y-120510499D01*
X142337627Y-120509042D01*
X142350191Y-120507585D01*
X142350194Y-120507583D01*
X142361005Y-120504643D01*
X142361539Y-120506606D01*
X142404236Y-120497600D01*
X142507800Y-120497600D01*
X142507800Y-120464825D01*
X142509321Y-120459148D01*
X142508241Y-120453372D01*
X142519213Y-120422229D01*
X142527762Y-120390325D01*
X142533871Y-120380627D01*
X142537271Y-120375663D01*
X142595839Y-120325478D01*
X142671653Y-120311302D01*
X142744398Y-120336932D01*
G37*
%TD.AperFunction*%
%TD*%
%TA.AperFunction,Conductor*%
%TO.N,Net-(U5-L2)*%
G36*
X145797700Y-112307258D02*
G01*
X145852238Y-112361796D01*
X145872200Y-112436296D01*
X145872200Y-117023276D01*
X145852238Y-117097776D01*
X145817407Y-117138713D01*
X145467770Y-117424039D01*
X144782824Y-117982997D01*
X144782812Y-117983008D01*
X143696754Y-118989117D01*
X143631542Y-119024386D01*
X143614240Y-119028700D01*
X143606118Y-119028700D01*
X143497391Y-119057833D01*
X143497386Y-119057835D01*
X143496017Y-119058177D01*
X143495197Y-119058162D01*
X143477139Y-119061610D01*
X143470215Y-119062413D01*
X143470207Y-119062415D01*
X143367435Y-119107793D01*
X143281759Y-119193470D01*
X143214964Y-119232034D01*
X143137836Y-119232034D01*
X143071041Y-119193470D01*
X143032477Y-119126675D01*
X143027400Y-119088111D01*
X143027400Y-112436296D01*
X143047362Y-112361796D01*
X143101900Y-112307258D01*
X143176400Y-112287296D01*
X145723200Y-112287296D01*
X145797700Y-112307258D01*
G37*
%TD.AperFunction*%
%TD*%
M02*
