%TF.GenerationSoftware,KiCad,Pcbnew,9.0.1*%
%TF.CreationDate,2025-06-18T09:55:25+02:00*%
%TF.ProjectId,MY-ESP32,4d592d45-5350-4333-922e-6b696361645f,1*%
%TF.SameCoordinates,Original*%
%TF.FileFunction,Copper,L1,Top*%
%TF.FilePolarity,Positive*%
%FSLAX46Y46*%
G04 Gerber Fmt 4.6, Leading zero omitted, Abs format (unit mm)*
G04 Created by KiCad (PCBNEW 9.0.1) date 2025-06-18 09:55:25*
%MOMM*%
%LPD*%
G01*
G04 APERTURE LIST*
G04 Aperture macros list*
%AMRoundRect*
0 Rectangle with rounded corners*
0 $1 Rounding radius*
0 $2 $3 $4 $5 $6 $7 $8 $9 X,Y pos of 4 corners*
0 Add a 4 corners polygon primitive as box body*
4,1,4,$2,$3,$4,$5,$6,$7,$8,$9,$2,$3,0*
0 Add four circle primitives for the rounded corners*
1,1,$1+$1,$2,$3*
1,1,$1+$1,$4,$5*
1,1,$1+$1,$6,$7*
1,1,$1+$1,$8,$9*
0 Add four rect primitives between the rounded corners*
20,1,$1+$1,$2,$3,$4,$5,0*
20,1,$1+$1,$4,$5,$6,$7,0*
20,1,$1+$1,$6,$7,$8,$9,0*
20,1,$1+$1,$8,$9,$2,$3,0*%
%AMFreePoly0*
4,1,21,-0.180000,0.885000,0.180000,0.885000,0.180000,1.715000,0.470000,1.715000,0.470000,0.885000,0.760000,0.885000,0.760000,-0.885000,0.470000,-0.885000,0.470000,-1.705000,0.180000,-1.705000,0.180000,-0.885000,-0.180000,-0.885000,-0.180000,-1.705000,-0.470000,-1.705000,-0.470000,-0.885000,-0.760000,-0.885000,-0.760000,0.895000,-0.470000,0.895000,-0.470000,1.715000,-0.180000,1.715000,
-0.180000,0.885000,-0.180000,0.885000,$1*%
G04 Aperture macros list end*
%TA.AperFunction,EtchedComponent*%
%ADD10C,0.200000*%
%TD*%
%TA.AperFunction,SMDPad,CuDef*%
%ADD11R,0.540000X0.565500*%
%TD*%
%TA.AperFunction,SMDPad,CuDef*%
%ADD12R,1.100000X0.600000*%
%TD*%
%TA.AperFunction,SMDPad,CuDef*%
%ADD13C,1.000000*%
%TD*%
%TA.AperFunction,SMDPad,CuDef*%
%ADD14RoundRect,0.250000X0.350000X0.450000X-0.350000X0.450000X-0.350000X-0.450000X0.350000X-0.450000X0*%
%TD*%
%TA.AperFunction,SMDPad,CuDef*%
%ADD15R,0.700000X1.250000*%
%TD*%
%TA.AperFunction,SMDPad,CuDef*%
%ADD16RoundRect,0.250000X-0.475000X0.337500X-0.475000X-0.337500X0.475000X-0.337500X0.475000X0.337500X0*%
%TD*%
%TA.AperFunction,SMDPad,CuDef*%
%ADD17R,0.540000X0.790000*%
%TD*%
%TA.AperFunction,SMDPad,CuDef*%
%ADD18R,0.240000X0.850000*%
%TD*%
%TA.AperFunction,SMDPad,CuDef*%
%ADD19R,0.230000X0.800000*%
%TD*%
%TA.AperFunction,SMDPad,CuDef*%
%ADD20FreePoly0,270.000000*%
%TD*%
%TA.AperFunction,SMDPad,CuDef*%
%ADD21RoundRect,0.250000X-0.450000X0.350000X-0.450000X-0.350000X0.450000X-0.350000X0.450000X0.350000X0*%
%TD*%
%TA.AperFunction,SMDPad,CuDef*%
%ADD22R,0.900000X0.800000*%
%TD*%
%TA.AperFunction,SMDPad,CuDef*%
%ADD23R,1.150000X0.600000*%
%TD*%
%TA.AperFunction,SMDPad,CuDef*%
%ADD24R,1.150000X0.300000*%
%TD*%
%TA.AperFunction,SMDPad,CuDef*%
%ADD25R,2.000000X2.180000*%
%TD*%
%TA.AperFunction,SMDPad,CuDef*%
%ADD26R,0.700000X1.600000*%
%TD*%
%TA.AperFunction,SMDPad,CuDef*%
%ADD27R,1.200000X1.500000*%
%TD*%
%TA.AperFunction,SMDPad,CuDef*%
%ADD28R,1.200000X2.200000*%
%TD*%
%TA.AperFunction,SMDPad,CuDef*%
%ADD29R,1.600000X1.500000*%
%TD*%
%TA.AperFunction,SMDPad,CuDef*%
%ADD30R,0.600000X1.070000*%
%TD*%
%TA.AperFunction,SMDPad,CuDef*%
%ADD31R,1.300000X1.300000*%
%TD*%
%TA.AperFunction,SMDPad,CuDef*%
%ADD32RoundRect,0.250000X0.450000X-0.350000X0.450000X0.350000X-0.450000X0.350000X-0.450000X-0.350000X0*%
%TD*%
%TA.AperFunction,SMDPad,CuDef*%
%ADD33RoundRect,0.250000X-0.337500X-0.475000X0.337500X-0.475000X0.337500X0.475000X-0.337500X0.475000X0*%
%TD*%
%TA.AperFunction,SMDPad,CuDef*%
%ADD34RoundRect,0.250000X0.475000X-0.337500X0.475000X0.337500X-0.475000X0.337500X-0.475000X-0.337500X0*%
%TD*%
%TA.AperFunction,ComponentPad*%
%ADD35R,1.700000X1.700000*%
%TD*%
%TA.AperFunction,ComponentPad*%
%ADD36C,1.700000*%
%TD*%
%TA.AperFunction,SMDPad,CuDef*%
%ADD37RoundRect,0.062500X-0.337500X-0.062500X0.337500X-0.062500X0.337500X0.062500X-0.337500X0.062500X0*%
%TD*%
%TA.AperFunction,SMDPad,CuDef*%
%ADD38RoundRect,0.062500X-0.062500X-0.337500X0.062500X-0.337500X0.062500X0.337500X-0.062500X0.337500X0*%
%TD*%
%TA.AperFunction,HeatsinkPad*%
%ADD39R,3.350000X3.350000*%
%TD*%
%TA.AperFunction,SMDPad,CuDef*%
%ADD40R,1.410000X1.350000*%
%TD*%
%TA.AperFunction,SMDPad,CuDef*%
%ADD41R,1.070000X0.600000*%
%TD*%
%TA.AperFunction,SMDPad,CuDef*%
%ADD42R,1.250000X0.700000*%
%TD*%
%TA.AperFunction,ComponentPad*%
%ADD43R,1.800000X1.800000*%
%TD*%
%TA.AperFunction,ComponentPad*%
%ADD44C,1.600000*%
%TD*%
%TA.AperFunction,SMDPad,CuDef*%
%ADD45RoundRect,0.250000X-0.350000X-0.450000X0.350000X-0.450000X0.350000X0.450000X-0.350000X0.450000X0*%
%TD*%
%TA.AperFunction,SMDPad,CuDef*%
%ADD46RoundRect,0.150000X0.150000X-0.512500X0.150000X0.512500X-0.150000X0.512500X-0.150000X-0.512500X0*%
%TD*%
%TA.AperFunction,SMDPad,CuDef*%
%ADD47R,0.864000X0.806500*%
%TD*%
%TA.AperFunction,SMDPad,CuDef*%
%ADD48R,2.000000X0.900000*%
%TD*%
%TA.AperFunction,ComponentPad*%
%ADD49R,0.900000X0.900000*%
%TD*%
%TA.AperFunction,SMDPad,CuDef*%
%ADD50R,1.330000X1.330000*%
%TD*%
%TA.AperFunction,ComponentPad*%
%ADD51C,1.400000*%
%TD*%
%TA.AperFunction,SMDPad,CuDef*%
%ADD52R,2.124000X3.820000*%
%TD*%
%TA.AperFunction,SMDPad,CuDef*%
%ADD53R,0.806500X0.864000*%
%TD*%
%TA.AperFunction,ComponentPad*%
%ADD54R,1.575000X1.575000*%
%TD*%
%TA.AperFunction,ComponentPad*%
%ADD55C,1.575000*%
%TD*%
%TA.AperFunction,ComponentPad*%
%ADD56C,1.800000*%
%TD*%
%TA.AperFunction,ComponentPad*%
%ADD57O,2.500000X1.200000*%
%TD*%
%TA.AperFunction,SMDPad,CuDef*%
%ADD58R,0.660400X1.549400*%
%TD*%
%TA.AperFunction,SMDPad,CuDef*%
%ADD59R,1.295400X1.905000*%
%TD*%
%TA.AperFunction,ComponentPad*%
%ADD60C,3.575000*%
%TD*%
%TA.AperFunction,SMDPad,CuDef*%
%ADD61R,1.000000X0.900000*%
%TD*%
%TA.AperFunction,SMDPad,CuDef*%
%ADD62RoundRect,0.250000X0.337500X0.475000X-0.337500X0.475000X-0.337500X-0.475000X0.337500X-0.475000X0*%
%TD*%
%TA.AperFunction,ViaPad*%
%ADD63C,0.900000*%
%TD*%
%TA.AperFunction,Conductor*%
%ADD64C,0.254000*%
%TD*%
%TA.AperFunction,Conductor*%
%ADD65C,0.508000*%
%TD*%
%TA.AperFunction,Conductor*%
%ADD66C,1.092200*%
%TD*%
%TA.AperFunction,Conductor*%
%ADD67C,1.016000*%
%TD*%
%TA.AperFunction,Conductor*%
%ADD68C,1.117600*%
%TD*%
%TA.AperFunction,Conductor*%
%ADD69C,0.609600*%
%TD*%
%TA.AperFunction,Conductor*%
%ADD70C,0.250000*%
%TD*%
%TA.AperFunction,Conductor*%
%ADD71C,0.355600*%
%TD*%
%TA.AperFunction,Conductor*%
%ADD72C,0.406400*%
%TD*%
G04 APERTURE END LIST*
D10*
%TO.C,U4*%
X178140200Y-87079300D02*
G75*
G02*
X176140200Y-87079300I-1000000J0D01*
G01*
X176140200Y-87079300D02*
G75*
G02*
X178140200Y-87079300I1000000J0D01*
G01*
%TD*%
D11*
%TO.P,R34,1,1*%
%TO.N,Net-(LED1-B)*%
X122859800Y-63272600D03*
%TO.P,R34,2,2*%
%TO.N,D27*%
X122859800Y-62406600D03*
%TD*%
D12*
%TO.P,LED1,1,C*%
%TO.N,GND*%
X120208000Y-67887000D03*
%TO.P,LED1,2,B*%
%TO.N,Net-(LED1-B)*%
X122108000Y-67887000D03*
%TO.P,LED1,3,G*%
%TO.N,Net-(LED1-G)*%
X122108000Y-66987000D03*
%TO.P,LED1,4,R*%
%TO.N,Net-(LED1-R)*%
X120208000Y-66987000D03*
%TD*%
D13*
%TO.P,TP1,1,1*%
%TO.N,GND*%
X104654600Y-126215800D03*
%TD*%
D14*
%TO.P,R25,1*%
%TO.N,Net-(Q6-D)*%
X140761700Y-92560800D03*
%TO.P,R25,2*%
%TO.N,+3V3*%
X138761700Y-92560800D03*
%TD*%
D15*
%TO.P,Q1,1,E*%
%TO.N,RTS*%
X112685800Y-90932850D03*
%TO.P,Q1,2,B*%
%TO.N,Net-(Q1-B)*%
X110785800Y-90932850D03*
%TO.P,Q1,3,C*%
%TO.N,ENA*%
X111735800Y-88433850D03*
%TD*%
D16*
%TO.P,C10,1*%
%TO.N,GND*%
X136096800Y-117638400D03*
%TO.P,C10,2*%
%TO.N,/micro_SD-CARD_enable/3V3_Input_to_micro_SD-CARD*%
X136096800Y-119713400D03*
%TD*%
D17*
%TO.P,R20,1,1*%
%TO.N,D2*%
X131524800Y-120690200D03*
%TO.P,R20,2,2*%
%TO.N,/micro_SD-CARD_enable/3V3_Input_to_micro_SD-CARD*%
X131524800Y-119600200D03*
%TD*%
D18*
%TO.P,U5,1,VOUT*%
%TO.N,+3V3*%
X139524600Y-82555800D03*
%TO.P,U5,2,L2*%
%TO.N,Net-(U5-L2)*%
X139024600Y-82555800D03*
%TO.P,U5,3,PGND*%
%TO.N,GND*%
X138524600Y-82555800D03*
%TO.P,U5,4,L1*%
%TO.N,Net-(U5-L1)*%
X138024600Y-82555800D03*
%TO.P,U5,5,VIN*%
%TO.N,/Buck-Boost3.3V/Buck-Boost_INPUT*%
X137524600Y-82555800D03*
D19*
%TO.P,U5,6,EN*%
X137524600Y-85555800D03*
%TO.P,U5,7,PS/SYNC*%
X138024600Y-85555800D03*
%TO.P,U5,8,VINA*%
X138524600Y-85555800D03*
%TO.P,U5,9,GND*%
%TO.N,GND*%
X139024600Y-85555800D03*
%TO.P,U5,10,FB*%
%TO.N,+3V3*%
X139524600Y-85555800D03*
D20*
%TO.P,U5,11,PAD*%
%TO.N,GND*%
X138519600Y-84055800D03*
%TD*%
D17*
%TO.P,R19,1,1*%
%TO.N,D14*%
X133760000Y-119787400D03*
%TO.P,R19,2,2*%
%TO.N,/micro_SD-CARD_enable/3V3_Input_to_micro_SD-CARD*%
X133760000Y-118697400D03*
%TD*%
D16*
%TO.P,C9,1*%
%TO.N,+3V3*%
X103173000Y-112416400D03*
%TO.P,C9,2*%
%TO.N,GND*%
X103173000Y-114491400D03*
%TD*%
D14*
%TO.P,R32,1*%
%TO.N,Net-(Q10-G)*%
X124882400Y-99926800D03*
%TO.P,R32,2*%
%TO.N,+3V3*%
X122882400Y-99926800D03*
%TD*%
D21*
%TO.P,R14,1*%
%TO.N,D34*%
X114560600Y-53859800D03*
%TO.P,R14,2*%
%TO.N,Net-(Q4-D)*%
X114560600Y-55859800D03*
%TD*%
D15*
%TO.P,Q11,1,G*%
%TO.N,Net-(Q11-G)*%
X125873800Y-95564600D03*
%TO.P,Q11,2,S*%
%TO.N,GND*%
X123973800Y-95564600D03*
%TO.P,Q11,3,D*%
%TO.N,Net-(Q10-G)*%
X124923800Y-97564600D03*
%TD*%
D17*
%TO.P,R22,1,1*%
%TO.N,Net-(CARD1-CD{slash}DAT3)*%
X140770400Y-117907800D03*
%TO.P,R22,2,2*%
%TO.N,/micro_SD-CARD_enable/3V3_Input_to_micro_SD-CARD*%
X140770400Y-116817800D03*
%TD*%
D22*
%TO.P,C11,1,1*%
%TO.N,GND*%
X134764600Y-83855800D03*
%TO.P,C11,2,2*%
%TO.N,/Buck-Boost3.3V/Buck-Boost_INPUT*%
X134764600Y-82455800D03*
%TD*%
D15*
%TO.P,Q3,1,G*%
%TO.N,Net-(Q3-G)*%
X107382600Y-59150400D03*
%TO.P,Q3,2,S*%
%TO.N,GND*%
X105482600Y-59150400D03*
%TO.P,Q3,3,D*%
%TO.N,Net-(Q3-D)*%
X106432600Y-61150400D03*
%TD*%
D22*
%TO.P,C13,1,1*%
%TO.N,GND*%
X143694600Y-83885800D03*
%TO.P,C13,2,2*%
%TO.N,+3V3*%
X143694600Y-82485800D03*
%TD*%
D23*
%TO.P,U7,A1/B12,GND*%
%TO.N,GND*%
X102764600Y-98775800D03*
%TO.P,U7,A4/B9,VBUS*%
%TO.N,VBUS*%
X102764600Y-99575800D03*
D24*
%TO.P,U7,A5,CC1*%
%TO.N,unconnected-(U7-CC1-PadA5)*%
X102764600Y-100725800D03*
%TO.P,U7,A6,DP1*%
%TO.N,DP*%
X102764600Y-101725800D03*
%TO.P,U7,A7,DN1*%
%TO.N,DN*%
X102764600Y-102225800D03*
%TO.P,U7,A8,SBU1*%
%TO.N,unconnected-(U7-SBU1-PadA8)*%
X102764600Y-103225800D03*
D23*
%TO.P,U7,B1/A12,GND*%
%TO.N,GND*%
X102764600Y-105175800D03*
%TO.P,U7,B4/A9,VBUS*%
%TO.N,VBUS*%
X102764600Y-104375800D03*
D24*
%TO.P,U7,B5,CC2*%
%TO.N,unconnected-(U7-CC2-PadB5)*%
X102764600Y-103725800D03*
%TO.P,U7,B6,DP2*%
%TO.N,DP*%
X102764600Y-102725800D03*
%TO.P,U7,B7,DN2*%
%TO.N,DN*%
X102764600Y-101225800D03*
%TO.P,U7,B8,SBU2*%
%TO.N,unconnected-(U7-SBU2-PadB8)*%
X102764600Y-100225800D03*
D25*
%TO.P,U7,S1,GND*%
%TO.N,GND*%
X102189600Y-96865800D03*
%TO.P,U7,S2,GND*%
X102189600Y-107085800D03*
%TO.P,U7,S3,GND*%
X98259600Y-96865800D03*
%TO.P,U7,S4,GND*%
X98259600Y-107085800D03*
%TD*%
D26*
%TO.P,CARD1,1,DAT2*%
%TO.N,Net-(CARD1-DAT2)*%
X138140000Y-123175800D03*
%TO.P,CARD1,2,CD/DAT3*%
%TO.N,Net-(CARD1-CD{slash}DAT3)*%
X137040000Y-123175800D03*
%TO.P,CARD1,3,CMD*%
%TO.N,D15*%
X135940000Y-123175800D03*
%TO.P,CARD1,4,VDD*%
%TO.N,/micro_SD-CARD_enable/3V3_Input_to_micro_SD-CARD*%
X134840000Y-123175800D03*
%TO.P,CARD1,5,CLX*%
%TO.N,D14*%
X133740000Y-123175800D03*
%TO.P,CARD1,6,VSS*%
%TO.N,GND*%
X132640000Y-123175800D03*
%TO.P,CARD1,7,DAT0*%
%TO.N,D2*%
X131540000Y-123175800D03*
%TO.P,CARD1,8,DAT1*%
%TO.N,Net-(CARD1-DAT1)*%
X130440000Y-123175800D03*
D27*
%TO.P,CARD1,10,10*%
%TO.N,GND*%
X128140000Y-124175800D03*
D28*
%TO.P,CARD1,11,11*%
X128140000Y-133775800D03*
%TO.P,CARD1,12,12*%
X143640000Y-133775800D03*
D29*
%TO.P,CARD1,13,13*%
X142740000Y-124175800D03*
D26*
%TO.P,CARD1,CD,CD*%
%TO.N,unconnected-(CARD1-PadCD)*%
X129340000Y-123175800D03*
%TD*%
D30*
%TO.P,Q7,1,G*%
%TO.N,Net-(Q6-D)*%
X140752300Y-95126200D03*
%TO.P,Q7,2,S*%
%TO.N,+3V3*%
X138852300Y-95126200D03*
%TO.P,Q7,3,D*%
%TO.N,/micro_SD-CARD_enable/3V3_Input_to_micro_SD-CARD*%
X139802300Y-97596200D03*
%TD*%
D21*
%TO.P,R4,1*%
%TO.N,Net-(U3-VBUS)*%
X108456200Y-112437900D03*
%TO.P,R4,2*%
%TO.N,GND*%
X108456200Y-114437900D03*
%TD*%
D31*
%TO.P,D1,1,C*%
%TO.N,EXT_5V*%
X97999800Y-115620400D03*
%TO.P,D1,2,A*%
%TO.N,VBUS*%
X97999800Y-112220400D03*
%TD*%
D32*
%TO.P,R5,1*%
%TO.N,Net-(R5-Pad1)*%
X113790200Y-114437900D03*
%TO.P,R5,2*%
%TO.N,+3V3*%
X113790200Y-112437900D03*
%TD*%
D17*
%TO.P,R23,1,1*%
%TO.N,Net-(CARD1-DAT1)*%
X128807000Y-120309200D03*
%TO.P,R23,2,2*%
%TO.N,/micro_SD-CARD_enable/3V3_Input_to_micro_SD-CARD*%
X128807000Y-119219200D03*
%TD*%
D33*
%TO.P,C1,1*%
%TO.N,IO0*%
X150757100Y-50495600D03*
%TO.P,C1,2*%
%TO.N,GND*%
X152832100Y-50495600D03*
%TD*%
D22*
%TO.P,R17,1,1*%
%TO.N,GND*%
X145894600Y-83875800D03*
%TO.P,R17,2,2*%
%TO.N,+3V3*%
X145894600Y-82475800D03*
%TD*%
D32*
%TO.P,R9,1*%
%TO.N,RTS*%
X118053100Y-96745150D03*
%TO.P,R9,2*%
%TO.N,Net-(Q2-B)*%
X118053100Y-94745150D03*
%TD*%
D34*
%TO.P,C18,1*%
%TO.N,GND*%
X129546600Y-107902400D03*
%TO.P,C18,2*%
%TO.N,3V3_ON_OFF*%
X129546600Y-105827400D03*
%TD*%
D35*
%TO.P,H5,1,1*%
%TO.N,GND*%
X105333800Y-133835800D03*
D36*
%TO.P,H5,2,2*%
%TO.N,EXT_5V*%
X107873800Y-133835800D03*
%TD*%
D16*
%TO.P,C15,1*%
%TO.N,D34*%
X122815800Y-48402000D03*
%TO.P,C15,2*%
%TO.N,GND*%
X122815800Y-50477000D03*
%TD*%
D37*
%TO.P,U3,1,~{DCD}*%
%TO.N,unconnected-(U3-~{DCD}-Pad1)*%
X111577200Y-100503850D03*
%TO.P,U3,2,~{RI}/CLK*%
%TO.N,unconnected-(U3-~{RI}{slash}CLK-Pad2)*%
X111577200Y-101003850D03*
%TO.P,U3,3,GND*%
%TO.N,GND*%
X111577200Y-101503850D03*
%TO.P,U3,4,D+*%
%TO.N,D+*%
X111577200Y-102003850D03*
%TO.P,U3,5,D-*%
%TO.N,D-*%
X111577200Y-102503850D03*
%TO.P,U3,6,VDD*%
%TO.N,+3V3*%
X111577200Y-103003850D03*
%TO.P,U3,7,VREGIN*%
X111577200Y-103503850D03*
D38*
%TO.P,U3,8,VBUS*%
%TO.N,Net-(U3-VBUS)*%
X112527200Y-104453850D03*
%TO.P,U3,9,~{RST}*%
%TO.N,Net-(U3-~{RST})*%
X113027200Y-104453850D03*
%TO.P,U3,10,NC*%
%TO.N,unconnected-(U3-NC-Pad10)*%
X113527200Y-104453850D03*
%TO.P,U3,11,~{SUSPEND}*%
%TO.N,Net-(U3-~{SUSPEND})*%
X114027200Y-104453850D03*
%TO.P,U3,12,SUSPEND*%
%TO.N,unconnected-(U3-SUSPEND-Pad12)*%
X114527200Y-104453850D03*
%TO.P,U3,13,CHREN*%
%TO.N,unconnected-(U3-CHREN-Pad13)*%
X115027200Y-104453850D03*
%TO.P,U3,14,CHR1*%
%TO.N,unconnected-(U3-CHR1-Pad14)*%
X115527200Y-104453850D03*
D37*
%TO.P,U3,15,CHR0*%
%TO.N,unconnected-(U3-CHR0-Pad15)*%
X116477200Y-103503850D03*
%TO.P,U3,16,~{WAKEUP}/GPIO.3*%
%TO.N,unconnected-(U3-~{WAKEUP}{slash}GPIO.3-Pad16)*%
X116477200Y-103003850D03*
%TO.P,U3,17,RS485/GPIO.2*%
%TO.N,unconnected-(U3-RS485{slash}GPIO.2-Pad17)*%
X116477200Y-102503850D03*
%TO.P,U3,18,~{RXT}/GPIO.1*%
%TO.N,unconnected-(U3-~{RXT}{slash}GPIO.1-Pad18)*%
X116477200Y-102003850D03*
%TO.P,U3,19,~{TXT}/GPIO.0*%
%TO.N,unconnected-(U3-~{TXT}{slash}GPIO.0-Pad19)*%
X116477200Y-101503850D03*
%TO.P,U3,20,GPIO.6*%
%TO.N,unconnected-(U3-GPIO.6-Pad20)*%
X116477200Y-101003850D03*
%TO.P,U3,21,GPIO.5*%
%TO.N,unconnected-(U3-GPIO.5-Pad21)*%
X116477200Y-100503850D03*
D38*
%TO.P,U3,22,GPIO.4*%
%TO.N,unconnected-(U3-GPIO.4-Pad22)*%
X115527200Y-99553850D03*
%TO.P,U3,23,~{CTS}*%
%TO.N,unconnected-(U3-~{CTS}-Pad23)*%
X115027200Y-99553850D03*
%TO.P,U3,24,~{RTS}*%
%TO.N,RTS*%
X114527200Y-99553850D03*
%TO.P,U3,25,RXD*%
%TO.N,TXD0*%
X114027200Y-99553850D03*
%TO.P,U3,26,TXD*%
%TO.N,RXD0*%
X113527200Y-99553850D03*
%TO.P,U3,27,~{DSR}*%
%TO.N,unconnected-(U3-~{DSR}-Pad27)*%
X113027200Y-99553850D03*
%TO.P,U3,28,~{DTR}*%
%TO.N,DTR*%
X112527200Y-99553850D03*
D39*
%TO.P,U3,29,GND*%
%TO.N,GND*%
X114027200Y-102003850D03*
%TD*%
D40*
%TO.P,C3,1,1*%
%TO.N,GND*%
X100311200Y-65184600D03*
%TO.P,C3,2,2*%
%TO.N,ENA*%
X98311200Y-65184600D03*
%TD*%
D41*
%TO.P,Q4,1,G*%
%TO.N,Net-(Q3-D)*%
X110820600Y-62985000D03*
%TO.P,Q4,2,S*%
%TO.N,/Battery_Voltage_Monitor_with_MOSFETS/V_Batt_Monitor_INPUT*%
X110820600Y-64885000D03*
%TO.P,Q4,3,D*%
%TO.N,Net-(Q4-D)*%
X113290600Y-63935000D03*
%TD*%
D42*
%TO.P,Q2,1,E*%
%TO.N,DTR*%
X113328700Y-94693550D03*
%TO.P,Q2,2,B*%
%TO.N,Net-(Q2-B)*%
X113328700Y-96593550D03*
%TO.P,Q2,3,C*%
%TO.N,IO0*%
X110829700Y-95643550D03*
%TD*%
D43*
%TO.P,H4,1,1*%
%TO.N,GND*%
X147320000Y-133835800D03*
D44*
%TO.P,H4,2,2*%
%TO.N,+3V3*%
X149860000Y-133835800D03*
%TO.P,H4,3,3*%
%TO.N,IO0*%
X152400000Y-133835800D03*
%TO.P,H4,4,4*%
%TO.N,D19*%
X154940000Y-133835800D03*
%TO.P,H4,5,5*%
%TO.N,D23*%
X157480000Y-133835800D03*
D43*
%TO.P,H4,6,6*%
%TO.N,GND*%
X160020000Y-133835800D03*
%TD*%
D45*
%TO.P,R24,1*%
%TO.N,Net-(Q6-G)*%
X149429700Y-96066000D03*
%TO.P,R24,2*%
%TO.N,D4*%
X151429700Y-96066000D03*
%TD*%
D16*
%TO.P,C5,1*%
%TO.N,VBUS*%
X100531400Y-112412500D03*
%TO.P,C5,2*%
%TO.N,GND*%
X100531400Y-114487500D03*
%TD*%
D46*
%TO.P,U1,1,I/O1*%
%TO.N,DN*%
X105457200Y-102731850D03*
%TO.P,U1,2,GND*%
%TO.N,GND*%
X106407200Y-102731850D03*
%TO.P,U1,3,I/O2*%
%TO.N,DP*%
X107357200Y-102731850D03*
%TO.P,U1,4,I/O2*%
%TO.N,D+*%
X107357200Y-100456850D03*
%TO.P,U1,5,VBUS*%
%TO.N,VBUS*%
X106407200Y-100456850D03*
%TO.P,U1,6,I/O1*%
%TO.N,D-*%
X105457200Y-100456850D03*
%TD*%
D13*
%TO.P,TP2,1,1*%
%TO.N,/Buck-Boost3.3V/Buck-Boost_INPUT*%
X128632200Y-70793000D03*
%TD*%
D47*
%TO.P,R30,1,1*%
%TO.N,GND*%
X126930400Y-107326600D03*
%TO.P,R30,2,2*%
%TO.N,3V3_ON_OFF*%
X126930400Y-105819600D03*
%TD*%
D31*
%TO.P,D3,1,C*%
%TO.N,/Buck-Boost3.3V/Buck-Boost_INPUT*%
X117888000Y-73184200D03*
%TO.P,D3,2,A*%
%TO.N,EXT_5V*%
X117888000Y-76584200D03*
%TD*%
D48*
%TO.P,U6,1,GND*%
%TO.N,GND*%
X126684600Y-42055800D03*
%TO.P,U6,2,3V3*%
%TO.N,+3V3*%
X126684600Y-43325800D03*
%TO.P,U6,3,EN*%
%TO.N,ENA*%
X126684600Y-44595800D03*
%TO.P,U6,4,SENSOR_VP*%
%TO.N,SENSOR_VP*%
X126684600Y-45865800D03*
%TO.P,U6,5,SENSOR_VN*%
%TO.N,SENSOR_VN*%
X126684600Y-47135800D03*
%TO.P,U6,6,IO34*%
%TO.N,D34*%
X126684600Y-48405800D03*
%TO.P,U6,7,IO35*%
%TO.N,D35*%
X126684600Y-49675800D03*
%TO.P,U6,8,IO32*%
%TO.N,D32*%
X126684600Y-50945800D03*
%TO.P,U6,9,IO33*%
%TO.N,D33*%
X126684600Y-52215800D03*
%TO.P,U6,10,IO25*%
%TO.N,D25*%
X126684600Y-53485800D03*
%TO.P,U6,11,IO26*%
%TO.N,D26*%
X126684600Y-54755800D03*
%TO.P,U6,12,IO27*%
%TO.N,D27*%
X126684600Y-56025800D03*
%TO.P,U6,13,IO14*%
%TO.N,D14*%
X126684600Y-57295800D03*
%TO.P,U6,14,IO12*%
%TO.N,D12*%
X126684600Y-58565800D03*
%TO.P,U6,15,GND*%
%TO.N,GND*%
X126684600Y-59835800D03*
%TO.P,U6,16,IO13*%
%TO.N,D13*%
X126684600Y-61105800D03*
%TO.P,U6,17,NC*%
%TO.N,unconnected-(U6-NC-Pad17)*%
X126684600Y-62375800D03*
%TO.P,U6,18,NC*%
%TO.N,unconnected-(U6-NC-Pad18)*%
X126684600Y-63645800D03*
%TO.P,U6,19,NC*%
%TO.N,unconnected-(U6-NC-Pad19)*%
X126684600Y-64915800D03*
%TO.P,U6,20,NC*%
%TO.N,unconnected-(U6-NC-Pad20)*%
X144684600Y-64915800D03*
%TO.P,U6,21,NC*%
%TO.N,unconnected-(U6-NC-Pad21)*%
X144684600Y-63645800D03*
%TO.P,U6,22,NC*%
%TO.N,unconnected-(U6-NC-Pad22)*%
X144684600Y-62375800D03*
%TO.P,U6,23,IO15*%
%TO.N,D15*%
X144684600Y-61105800D03*
%TO.P,U6,24,IO2*%
%TO.N,D2*%
X144684600Y-59835800D03*
%TO.P,U6,25,IO0*%
%TO.N,IO0*%
X144684600Y-58565800D03*
%TO.P,U6,26,IO4*%
%TO.N,D4*%
X144684600Y-57295800D03*
%TO.P,U6,27,NC*%
%TO.N,unconnected-(U6-NC-Pad27)*%
X144684600Y-56025800D03*
%TO.P,U6,28,NC*%
%TO.N,unconnected-(U6-NC-Pad28)*%
X144684600Y-54755800D03*
%TO.P,U6,29,IO5*%
%TO.N,D5*%
X144684600Y-53485800D03*
%TO.P,U6,30,IO18*%
%TO.N,D18*%
X144684600Y-52215800D03*
%TO.P,U6,31,IO19*%
%TO.N,D19*%
X144684600Y-50945800D03*
%TO.P,U6,32,NC*%
%TO.N,unconnected-(U6-NC-Pad32)*%
X144684600Y-49675800D03*
%TO.P,U6,33,IO21*%
%TO.N,D21*%
X144684600Y-48405800D03*
%TO.P,U6,34,RXD0*%
%TO.N,RXD0*%
X144684600Y-47135800D03*
%TO.P,U6,35,TXD0*%
%TO.N,TXD0*%
X144684600Y-45865800D03*
%TO.P,U6,36,IO22*%
%TO.N,D22*%
X144684600Y-44595800D03*
%TO.P,U6,37,IO23*%
%TO.N,D23*%
X144684600Y-43325800D03*
%TO.P,U6,38,GND*%
%TO.N,GND*%
X144684600Y-42055800D03*
D49*
%TO.P,U6,39,GND*%
X131854600Y-50475800D03*
X131874600Y-46780200D03*
X131874600Y-52305800D03*
X131875200Y-48633400D03*
D50*
X132849600Y-47720800D03*
X132849600Y-49555800D03*
X132849600Y-51390800D03*
D49*
X133764600Y-48635800D03*
X133764600Y-50475800D03*
X133764600Y-52335800D03*
X133779000Y-46781200D03*
D50*
X134684600Y-47720800D03*
X134684600Y-49555800D03*
X134684600Y-51390800D03*
D49*
X135594600Y-46795800D03*
X135604600Y-48645800D03*
X135604600Y-50475800D03*
X135604600Y-52345800D03*
D50*
X136519600Y-47720800D03*
X136519600Y-49555800D03*
X136519600Y-51390800D03*
D49*
X137494600Y-46780200D03*
X137504600Y-48633400D03*
X137512800Y-50462200D03*
X137514600Y-52335800D03*
%TD*%
D42*
%TO.P,Q6,1,G*%
%TO.N,Net-(Q6-G)*%
X147142200Y-96050800D03*
%TO.P,Q6,2,S*%
%TO.N,GND*%
X147142200Y-94150800D03*
%TO.P,Q6,3,D*%
%TO.N,Net-(Q6-D)*%
X145142200Y-95100800D03*
%TD*%
D11*
%TO.P,R35,1,1*%
%TO.N,Net-(LED1-R)*%
X119557800Y-63271400D03*
%TO.P,R35,2,2*%
%TO.N,D33*%
X119557800Y-62405400D03*
%TD*%
D33*
%TO.P,C2,1*%
%TO.N,ENA*%
X98257700Y-62009600D03*
%TO.P,C2,2*%
%TO.N,GND*%
X100332700Y-62009600D03*
%TD*%
D34*
%TO.P,C17,1*%
%TO.N,GND*%
X112528600Y-81279300D03*
%TO.P,C17,2*%
%TO.N,VBAT*%
X112528600Y-79204300D03*
%TD*%
D51*
%TO.P,U2,1,1*%
%TO.N,/Battery_Voltage_Monitor_with_MOSFETS/V_Batt_Monitor_INPUT*%
X101734600Y-89225800D03*
%TO.P,U2,2,2*%
%TO.N,GND*%
X101734600Y-91225800D03*
%TD*%
D21*
%TO.P,R13,1*%
%TO.N,Net-(Q3-D)*%
X103930200Y-64410600D03*
%TO.P,R13,2*%
%TO.N,/Battery_Voltage_Monitor_with_MOSFETS/V_Batt_Monitor_INPUT*%
X103930200Y-66410600D03*
%TD*%
D22*
%TO.P,C14,1,1*%
%TO.N,GND*%
X141474600Y-83875800D03*
%TO.P,C14,2,2*%
%TO.N,+3V3*%
X141474600Y-82475800D03*
%TD*%
D30*
%TO.P,Q8,1,G*%
%TO.N,Net-(Q8-G)*%
X175962600Y-101358800D03*
%TO.P,Q8,2,S*%
%TO.N,+3V3*%
X174062600Y-101358800D03*
%TO.P,Q8,3,D*%
%TO.N,/I2C_Connector_Enable/3V3_Input_to_I2C_Connector*%
X175012600Y-103828800D03*
%TD*%
D52*
%TO.P,L_B-B1,1,1*%
%TO.N,Net-(U5-L1)*%
X136760200Y-77672285D03*
%TO.P,L_B-B1,2,2*%
%TO.N,Net-(U5-L2)*%
X140316200Y-77672285D03*
%TD*%
D53*
%TO.P,R28,1,1*%
%TO.N,GND*%
X177705000Y-110010600D03*
%TO.P,R28,2,2*%
%TO.N,/I2C_Connector_Enable/3V3_Input_to_I2C_Connector*%
X176198000Y-110010600D03*
%TD*%
D54*
%TO.P,H1,1,1*%
%TO.N,D12*%
X143592800Y-108639000D03*
D55*
%TO.P,H1,2,2*%
%TO.N,D15*%
X143592800Y-106099000D03*
%TO.P,H1,3,3*%
%TO.N,D14*%
X143592800Y-103559000D03*
%TD*%
D43*
%TO.P,SW3,1,1*%
%TO.N,VBAT*%
X103874600Y-78705800D03*
D56*
%TO.P,SW3,2,2*%
%TO.N,Net-(D2-C)*%
X103874600Y-75705800D03*
%TO.P,SW3,3,3*%
%TO.N,unconnected-(SW3-Pad3)*%
X103874600Y-72705800D03*
D57*
%TO.P,SW3,4,4*%
%TO.N,GND*%
X103874600Y-69905800D03*
%TO.P,SW3,5,5*%
X103874600Y-81505800D03*
%TD*%
D35*
%TO.P,H6,1,1*%
%TO.N,SENSOR_VN*%
X180898800Y-50774600D03*
D36*
%TO.P,H6,2,2*%
%TO.N,SENSOR_VP*%
X180898800Y-48234600D03*
%TD*%
D32*
%TO.P,R8,1*%
%TO.N,DTR*%
X115563900Y-96729150D03*
%TO.P,R8,2*%
%TO.N,Net-(Q1-B)*%
X115563900Y-94729150D03*
%TD*%
D33*
%TO.P,C7,1*%
%TO.N,+3V3*%
X145302600Y-73667200D03*
%TO.P,C7,2*%
%TO.N,GND*%
X147377600Y-73667200D03*
%TD*%
%TO.P,C8,1*%
%TO.N,+3V3*%
X145302600Y-76562800D03*
%TO.P,C8,2*%
%TO.N,GND*%
X147377600Y-76562800D03*
%TD*%
D32*
%TO.P,R26,1*%
%TO.N,Net-(Q9-G)*%
X180788600Y-93195800D03*
%TO.P,R26,2*%
%TO.N,D5*%
X180788600Y-91195800D03*
%TD*%
%TO.P,R3,1*%
%TO.N,VBUS*%
X105814600Y-114419100D03*
%TO.P,R3,2*%
%TO.N,Net-(U3-VBUS)*%
X105814600Y-112419100D03*
%TD*%
D58*
%TO.P,J2,1,SCL*%
%TO.N,D22*%
X162979601Y-113261800D03*
%TO.P,J2,2,SDA*%
%TO.N,D21*%
X163979602Y-113261800D03*
%TO.P,J2,3,3V3*%
%TO.N,+3V3*%
X164979600Y-113261800D03*
%TO.P,J2,4,GND*%
%TO.N,GND*%
X165979601Y-113261800D03*
D59*
%TO.P,J2,5,5*%
X167279600Y-117136801D03*
%TO.P,J2,6,6*%
X161679602Y-117136801D03*
%TD*%
D21*
%TO.P,R16,1*%
%TO.N,Net-(Q3-G)*%
X112050600Y-49749800D03*
%TO.P,R16,2*%
%TO.N,D25*%
X112050600Y-51749800D03*
%TD*%
D15*
%TO.P,Q9,1,G*%
%TO.N,Net-(Q9-G)*%
X180854600Y-95685000D03*
%TO.P,Q9,2,S*%
%TO.N,GND*%
X178954600Y-95685000D03*
%TO.P,Q9,3,D*%
%TO.N,Net-(Q8-G)*%
X179904600Y-97685000D03*
%TD*%
D32*
%TO.P,R2,1*%
%TO.N,ENA*%
X114713200Y-45431800D03*
%TO.P,R2,2*%
%TO.N,+3V3*%
X114713200Y-43431800D03*
%TD*%
D13*
%TO.P,TP3,1,1*%
%TO.N,+3V3*%
X114375000Y-120362000D03*
%TD*%
%TO.P,TP5,1,1*%
%TO.N,EXT_5V*%
X114375000Y-126215800D03*
%TD*%
D58*
%TO.P,J1,1,SCL*%
%TO.N,D22*%
X174171600Y-113261800D03*
%TO.P,J1,2,SDA*%
%TO.N,D21*%
X175171601Y-113261800D03*
%TO.P,J1,3,3V3*%
%TO.N,/I2C_Connector_Enable/3V3_Input_to_I2C_Connector*%
X176171599Y-113261800D03*
%TO.P,J1,4,GND*%
%TO.N,GND*%
X177171600Y-113261800D03*
D59*
%TO.P,J1,5,5*%
X178471599Y-117136801D03*
%TO.P,J1,6,6*%
X172871601Y-117136801D03*
%TD*%
D30*
%TO.P,Q10,1,G*%
%TO.N,Net-(Q10-G)*%
X124706200Y-102568400D03*
%TO.P,Q10,2,S*%
%TO.N,+3V3*%
X122806200Y-102568400D03*
%TO.P,Q10,3,D*%
%TO.N,3V3_ON_OFF*%
X123756200Y-105038400D03*
%TD*%
D60*
%TO.P,U4,*%
%TO.N,*%
X177140200Y-87079300D03*
X161906200Y-87079300D03*
D55*
%TO.P,U4,1,VCC*%
%TO.N,+3V3*%
X177146200Y-68561800D03*
D54*
%TO.P,U4,2,GND*%
%TO.N,GND*%
X174606200Y-68560800D03*
D55*
%TO.P,U4,3,SCL*%
%TO.N,D22*%
X172066200Y-68559800D03*
%TO.P,U4,4,SDA*%
%TO.N,D21*%
X169526200Y-68558800D03*
%TO.P,U4,5,INT*%
%TO.N,unconnected-(U4-INT-Pad5)*%
X166986200Y-68557800D03*
%TO.P,U4,6,RST*%
%TO.N,unconnected-(U4-RST-Pad6)*%
X164446200Y-68556800D03*
%TO.P,U4,7,32K*%
%TO.N,unconnected-(U4-32K-Pad7)*%
X161906200Y-68555800D03*
%TD*%
D17*
%TO.P,C6,1,1*%
%TO.N,GND*%
X105535200Y-56700600D03*
%TO.P,C6,2,2*%
%TO.N,ENA*%
X105535200Y-55610600D03*
%TD*%
D13*
%TO.P,TP4,1,1*%
%TO.N,D34*%
X117884600Y-54965800D03*
%TD*%
D53*
%TO.P,R27,1,1*%
%TO.N,GND*%
X138250400Y-99977600D03*
%TO.P,R27,2,2*%
%TO.N,/micro_SD-CARD_enable/3V3_Input_to_micro_SD-CARD*%
X139757400Y-99977600D03*
%TD*%
D21*
%TO.P,R6,1*%
%TO.N,Net-(U3-~{RST})*%
X111097800Y-112437900D03*
%TO.P,R6,2*%
%TO.N,Net-(R5-Pad1)*%
X111097800Y-114437900D03*
%TD*%
D32*
%TO.P,R7,1*%
%TO.N,GND*%
X116431800Y-114437900D03*
%TO.P,R7,2*%
%TO.N,Net-(U3-~{SUSPEND})*%
X116431800Y-112437900D03*
%TD*%
D61*
%TO.P,SW1,1,1*%
%TO.N,IO0*%
X150844600Y-55385800D03*
%TO.P,SW1,2,2*%
%TO.N,GND*%
X152444600Y-55385800D03*
%TO.P,SW1,3,3*%
%TO.N,IO0*%
X150844600Y-59485800D03*
%TO.P,SW1,4,4*%
%TO.N,GND*%
X152444600Y-59485800D03*
%TD*%
D40*
%TO.P,C4,1,1*%
%TO.N,GND*%
X147302600Y-70619200D03*
%TO.P,C4,2,2*%
%TO.N,+3V3*%
X145302600Y-70619200D03*
%TD*%
D11*
%TO.P,R33,1,1*%
%TO.N,Net-(LED1-G)*%
X121158000Y-63273800D03*
%TO.P,R33,2,2*%
%TO.N,D26*%
X121158000Y-62407800D03*
%TD*%
D32*
%TO.P,R15,1*%
%TO.N,GND*%
X119690600Y-50339800D03*
%TO.P,R15,2*%
%TO.N,D34*%
X119690600Y-48339800D03*
%TD*%
D17*
%TO.P,R21,1,1*%
%TO.N,Net-(CARD1-DAT2)*%
X142853200Y-117755400D03*
%TO.P,R21,2,2*%
%TO.N,/micro_SD-CARD_enable/3V3_Input_to_micro_SD-CARD*%
X142853200Y-116665400D03*
%TD*%
D54*
%TO.P,H2,1,1*%
%TO.N,GND*%
X135972800Y-108639000D03*
D55*
%TO.P,H2,2,2*%
%TO.N,3V3_ON_OFF*%
X135972800Y-106099000D03*
%TO.P,H2,3,3*%
%TO.N,D2*%
X135972800Y-103559000D03*
%TD*%
D45*
%TO.P,R31,1*%
%TO.N,Net-(Q11-G)*%
X128165600Y-95583400D03*
%TO.P,R31,2*%
%TO.N,D18*%
X130165600Y-95583400D03*
%TD*%
D43*
%TO.P,H3,1,1*%
%TO.N,GND*%
X111683800Y-133835800D03*
D44*
%TO.P,H3,2,2*%
%TO.N,3V3_ON_OFF*%
X114223800Y-133835800D03*
%TO.P,H3,3,3*%
%TO.N,D13*%
X116763800Y-133835800D03*
%TO.P,H3,4,4*%
%TO.N,D32*%
X119303800Y-133835800D03*
%TO.P,H3,5,5*%
%TO.N,D35*%
X121843800Y-133835800D03*
D43*
%TO.P,H3,6,6*%
%TO.N,GND*%
X124383800Y-133835800D03*
%TD*%
D17*
%TO.P,R18,1,1*%
%TO.N,D15*%
X138230400Y-119889000D03*
%TO.P,R18,2,2*%
%TO.N,/micro_SD-CARD_enable/3V3_Input_to_micro_SD-CARD*%
X138230400Y-118799000D03*
%TD*%
D42*
%TO.P,Q5,1,G*%
%TO.N,EXT_5V*%
X115398800Y-76533400D03*
%TO.P,Q5,2,S*%
%TO.N,/Buck-Boost3.3V/Buck-Boost_INPUT*%
X115398800Y-74633400D03*
%TO.P,Q5,3,D*%
%TO.N,VBAT*%
X113398800Y-75583400D03*
%TD*%
D62*
%TO.P,C16,1*%
%TO.N,GND*%
X178289200Y-106835600D03*
%TO.P,C16,2*%
%TO.N,/I2C_Connector_Enable/3V3_Input_to_I2C_Connector*%
X176214200Y-106835600D03*
%TD*%
D14*
%TO.P,R1,1*%
%TO.N,GND*%
X103740400Y-120080500D03*
%TO.P,R1,2*%
%TO.N,EXT_5V*%
X101740400Y-120080500D03*
%TD*%
D31*
%TO.P,D2,1,C*%
%TO.N,Net-(D2-C)*%
X99219000Y-74274600D03*
%TO.P,D2,2,A*%
%TO.N,/Battery_Voltage_Monitor_with_MOSFETS/V_Batt_Monitor_INPUT*%
X99219000Y-77674600D03*
%TD*%
D14*
%TO.P,R29,1*%
%TO.N,Net-(Q8-G)*%
X176012600Y-99291800D03*
%TO.P,R29,2*%
%TO.N,+3V3*%
X174012600Y-99291800D03*
%TD*%
D16*
%TO.P,C12,1*%
%TO.N,/Buck-Boost3.3V/Buck-Boost_INPUT*%
X132350600Y-82122300D03*
%TO.P,C12,2*%
%TO.N,GND*%
X132350600Y-84197300D03*
%TD*%
D61*
%TO.P,SW2,1,1*%
%TO.N,ENA*%
X98604600Y-55445800D03*
%TO.P,SW2,2,2*%
%TO.N,GND*%
X100204600Y-55445800D03*
%TO.P,SW2,3,3*%
%TO.N,ENA*%
X98604600Y-59545800D03*
%TO.P,SW2,4,4*%
%TO.N,GND*%
X100204600Y-59545800D03*
%TD*%
D63*
%TO.N,GND*%
X118592600Y-67868800D03*
X108456200Y-115903400D03*
X98228400Y-102035000D03*
X103816400Y-59085000D03*
X173590200Y-115573200D03*
X98279200Y-105133800D03*
X122206000Y-94491200D03*
X148774400Y-76562800D03*
X142294400Y-133954500D03*
X129466500Y-133775800D03*
X110090200Y-100982550D03*
X130483400Y-125648700D03*
X103181400Y-116157400D03*
X148710900Y-93360900D03*
X178308000Y-105029000D03*
X98253800Y-98783800D03*
X134764600Y-85675800D03*
X143618200Y-86337800D03*
X142751600Y-126537700D03*
X177825400Y-94157800D03*
X139026600Y-87840800D03*
X130704600Y-85365800D03*
X106414600Y-104945800D03*
X104662400Y-124107600D03*
X177342800Y-115646200D03*
X112528600Y-83289800D03*
X129546600Y-109629600D03*
X162515800Y-115598600D03*
X178460400Y-114528600D03*
X166300400Y-115624000D03*
X146209000Y-85880600D03*
X137265200Y-114709600D03*
X164497000Y-115751000D03*
X134626600Y-96878800D03*
X149358600Y-61953800D03*
%TO.N,IO0*%
X146412200Y-58550200D03*
X142018000Y-57712000D03*
X110826800Y-93119600D03*
%TO.N,ENA*%
X98311200Y-67973600D03*
X97187000Y-83670800D03*
%TO.N,+3V3*%
X113798600Y-118570400D03*
X134677400Y-92535400D03*
X120555000Y-97996400D03*
X140468600Y-86545000D03*
X140758800Y-68674000D03*
X113790200Y-110696400D03*
X128479800Y-43314200D03*
X146209000Y-80699000D03*
X165868600Y-109782000D03*
X177146200Y-66017800D03*
X174080400Y-93940000D03*
X107143800Y-111229800D03*
%TO.N,D15*%
X143024600Y-61105800D03*
%TO.N,D2*%
X132924800Y-72367800D03*
X130444600Y-115598600D03*
%TO.N,D14*%
X131165600Y-57023000D03*
%TO.N,/Battery_Voltage_Monitor_with_MOSFETS/V_Batt_Monitor_INPUT*%
X99320600Y-81308600D03*
%TO.N,EXT_5V*%
X114375000Y-124387000D03*
X115287525Y-78794000D03*
X98054900Y-117630600D03*
X106788200Y-122786800D03*
%TO.N,D12*%
X141408400Y-107699200D03*
X131395900Y-58748500D03*
%TO.N,D13*%
X124796800Y-61090200D03*
%TO.N,D4*%
X147047200Y-56111800D03*
X151466800Y-94465800D03*
%TO.N,D26*%
X123349000Y-54735800D03*
X121164600Y-59817000D03*
%TO.N,D27*%
X122804600Y-60912400D03*
X124695200Y-55975800D03*
%TO.N,D22*%
X147707600Y-46891600D03*
X163760400Y-104321000D03*
X172313600Y-110210600D03*
X154413200Y-48974400D03*
X170999400Y-92586200D03*
%TO.N,D23*%
X147834600Y-44732600D03*
%TO.N,D21*%
X164014400Y-108512000D03*
X169526200Y-90198600D03*
X146437600Y-48395800D03*
X154438600Y-52174800D03*
X174530000Y-108385000D03*
%TO.N,D5*%
X167468800Y-83213600D03*
X150120600Y-65814600D03*
X180740300Y-84191500D03*
X149028400Y-56111800D03*
%TO.N,D19*%
X148393400Y-50945800D03*
%TO.N,D18*%
X128778000Y-97993200D03*
X131502400Y-63833400D03*
%TO.N,D33*%
X119589800Y-58420000D03*
X121333300Y-54477100D03*
%TO.N,D35*%
X129444600Y-55705400D03*
%TO.N,D32*%
X124720600Y-50904800D03*
%TO.N,DN*%
X104121200Y-100710850D03*
X104121200Y-103377850D03*
%TO.N,/micro_SD-CARD_enable/3V3_Input_to_micro_SD-CARD*%
X134395000Y-113863100D03*
X138230400Y-117579800D03*
X128829600Y-117071800D03*
X131626400Y-116834900D03*
X138220700Y-108880300D03*
X140774600Y-114938200D03*
%TO.N,D25*%
X112050600Y-53427800D03*
X124746000Y-53474200D03*
%TO.N,D-*%
X105451149Y-99101050D03*
X108871000Y-102503850D03*
%TO.N,TXD0*%
X109379000Y-84407400D03*
X114306600Y-98087600D03*
X106204000Y-84356600D03*
X141647800Y-45204400D03*
%TO.N,RXD0*%
X113011200Y-98300950D03*
X141789600Y-47124200D03*
%TO.N,/Buck-Boost3.3V/Buck-Boost_INPUT*%
X130905700Y-81985700D03*
X137921567Y-86533967D03*
%TO.N,3V3_ON_OFF*%
X132467600Y-105819600D03*
%TO.N,SENSOR_VN*%
X133356600Y-43208600D03*
%TO.N,SENSOR_VP*%
X130689600Y-43056200D03*
%TD*%
D64*
%TO.N,D26*%
X121164600Y-62330800D02*
X121164600Y-59817000D01*
%TO.N,D33*%
X119589800Y-60937800D02*
X119554600Y-60973000D01*
X119589800Y-58420000D02*
X119589800Y-60937800D01*
X119554600Y-60973000D02*
X119554600Y-62330800D01*
D65*
%TO.N,GND*%
X118610800Y-67887000D02*
X118592600Y-67868800D01*
X120208000Y-67887000D02*
X118610800Y-67887000D01*
D64*
%TO.N,Net-(LED1-B)*%
X123095600Y-67887000D02*
X122108000Y-67887000D01*
X123647200Y-67335400D02*
X123095600Y-67887000D01*
X123647200Y-65608200D02*
X123647200Y-67335400D01*
X122804600Y-64765600D02*
X123647200Y-65608200D01*
X122804600Y-63350800D02*
X122804600Y-64765600D01*
%TO.N,Net-(LED1-G)*%
X121164600Y-65183000D02*
X122108000Y-66126400D01*
X122108000Y-66126400D02*
X122108000Y-66987000D01*
X121164600Y-63350800D02*
X121164600Y-65183000D01*
D65*
%TO.N,GND*%
X119768200Y-67887000D02*
X120208000Y-67887000D01*
D64*
%TO.N,Net-(LED1-R)*%
X119554600Y-66773400D02*
X119768200Y-66987000D01*
X119768200Y-66987000D02*
X120208000Y-66987000D01*
X119554600Y-63350800D02*
X119554600Y-66773400D01*
D65*
%TO.N,GND*%
X147910800Y-94161000D02*
X147152400Y-94161000D01*
D64*
X100184200Y-61861100D02*
X100332700Y-62009600D01*
D65*
X103173000Y-114491400D02*
X103173000Y-116149000D01*
X150476200Y-61953800D02*
X152444600Y-59985400D01*
X177181001Y-113252399D02*
X177181001Y-110534599D01*
X142720000Y-123945800D02*
X142740000Y-123965800D01*
X98270000Y-98767600D02*
X98253800Y-98783800D01*
X178954600Y-95685000D02*
X178954600Y-95287000D01*
X102192800Y-107089600D02*
X102209200Y-107089600D01*
D64*
X103874400Y-59085000D02*
X103816400Y-59085000D01*
X139026600Y-87200800D02*
X139026800Y-87200600D01*
D65*
X119690600Y-54591800D02*
X124934600Y-59835800D01*
X129466500Y-133775800D02*
X128143600Y-133775800D01*
X141474600Y-83875800D02*
X140546600Y-83875800D01*
X142740000Y-123965800D02*
X142740000Y-124175800D01*
X134764600Y-85675800D02*
X134764600Y-83855800D01*
D64*
X119690600Y-50399800D02*
X119690600Y-50339800D01*
D65*
X141474600Y-83875800D02*
X143684600Y-83875800D01*
X122206000Y-94491200D02*
X123171200Y-94491200D01*
X137265200Y-114709600D02*
X136096800Y-115878000D01*
X103173000Y-116149000D02*
X103181400Y-116157400D01*
X178954600Y-95685000D02*
X178954600Y-95486800D01*
D66*
X134684600Y-46555800D02*
X134684600Y-52735800D01*
D64*
X100239200Y-55460600D02*
X101855200Y-55460600D01*
D65*
X144626200Y-42044200D02*
X144655600Y-42014800D01*
D64*
X100195200Y-59560600D02*
X100195200Y-55416600D01*
D65*
X128034800Y-59835800D02*
X128651000Y-60452000D01*
X137725400Y-99977600D02*
X138250400Y-99977600D01*
X105338167Y-59078567D02*
X103880833Y-59078567D01*
X143479200Y-133936600D02*
X142312300Y-133936600D01*
D67*
X140595600Y-84305800D02*
X136744600Y-84305800D01*
D65*
X135734600Y-83855800D02*
X135734600Y-83889800D01*
D64*
X100332700Y-62009600D02*
X100332700Y-65163100D01*
D65*
X104662400Y-124107600D02*
X104662400Y-126208000D01*
X177181001Y-110534599D02*
X177705000Y-110010600D01*
X132640000Y-123175800D02*
X132643600Y-123179400D01*
X132350600Y-84197300D02*
X131216100Y-84197300D01*
D64*
X106407200Y-104938400D02*
X106414600Y-104945800D01*
D65*
X104662400Y-126208000D02*
X104654600Y-126215800D01*
X178289200Y-106835600D02*
X178289200Y-109426400D01*
D64*
X113527200Y-101503850D02*
X114027200Y-102003850D01*
D65*
X123973800Y-95293800D02*
X123973800Y-95564600D01*
X136404600Y-84559800D02*
X139808200Y-84559800D01*
X142743600Y-126529700D02*
X142751600Y-126537700D01*
X130483400Y-124835900D02*
X130483400Y-125648700D01*
X177171600Y-113261800D02*
X177181001Y-113252399D01*
X147787800Y-42044200D02*
X152832100Y-47088500D01*
X135734600Y-83855800D02*
X135838600Y-83855800D01*
D68*
X136544600Y-52645800D02*
X136544600Y-46555800D01*
D65*
X143640000Y-133775800D02*
X143479200Y-133936600D01*
X132643600Y-123179400D02*
X132643600Y-124301300D01*
X130704600Y-85365800D02*
X130704600Y-84708800D01*
X152444600Y-55405600D02*
X152832100Y-55018100D01*
X144685000Y-42044200D02*
X147787800Y-42044200D01*
X172881002Y-116282398D02*
X172881002Y-117148000D01*
X165995600Y-113277799D02*
X165995600Y-114252400D01*
X122678600Y-50339800D02*
X122815800Y-50477000D01*
X143640000Y-133959800D02*
X143640000Y-133775800D01*
X128970800Y-107326600D02*
X129546600Y-107902400D01*
X134684600Y-46555800D02*
X134684600Y-43055800D01*
X136905400Y-83855800D02*
X136912600Y-83848600D01*
X98228400Y-102035000D02*
X98228400Y-102136600D01*
X98270000Y-96876800D02*
X98270000Y-98767600D01*
X134684600Y-43055800D02*
X134684600Y-42113400D01*
D64*
X103190200Y-59505600D02*
X100184200Y-59505600D01*
D65*
X145894600Y-83875800D02*
X145894600Y-85566200D01*
D69*
X134684600Y-46555800D02*
X134684600Y-46880800D01*
D65*
X134684600Y-42457600D02*
X134271200Y-42044200D01*
X134684600Y-42113400D02*
X134753800Y-42044200D01*
D64*
X103095200Y-56700600D02*
X105535200Y-56700600D01*
D65*
X128140000Y-124175800D02*
X128128800Y-124187000D01*
X178471599Y-117136801D02*
X178471599Y-116774999D01*
X136774600Y-83855800D02*
X136774600Y-83985800D01*
X133314600Y-42044200D02*
X134271200Y-42044200D01*
X136379200Y-84534400D02*
X136404600Y-84559800D01*
X98228400Y-103125200D02*
X102192800Y-107089600D01*
X134753800Y-42044200D02*
X135160200Y-42044200D01*
X177698400Y-114528600D02*
X177723800Y-114528600D01*
X126684600Y-59835800D02*
X128034800Y-59835800D01*
X147377600Y-70694200D02*
X147377600Y-73667200D01*
D64*
X100184200Y-55405600D02*
X100239200Y-55460600D01*
D65*
X128143600Y-133775800D02*
X128143600Y-133936600D01*
D68*
X132814600Y-48715800D02*
X132814600Y-50475800D01*
D65*
X103173000Y-114491400D02*
X103169100Y-114487500D01*
X152444600Y-59985400D02*
X152444600Y-55405600D01*
X147377600Y-76562800D02*
X148774400Y-76562800D01*
X108456200Y-115967800D02*
X108456200Y-115903400D01*
X178289200Y-105047800D02*
X178308000Y-105029000D01*
X143628800Y-133971000D02*
X143640000Y-133959800D01*
X135098000Y-42044200D02*
X134684600Y-42457600D01*
X102775000Y-98745000D02*
X102775000Y-97451800D01*
X147377600Y-76562800D02*
X147377600Y-73667200D01*
X136864600Y-84525800D02*
X137056400Y-84525800D01*
X128651000Y-60452000D02*
X131962800Y-60452000D01*
X108456200Y-115903400D02*
X108456200Y-114437900D01*
X142740000Y-124175800D02*
X142743600Y-124179400D01*
X135838600Y-83855800D02*
X136150600Y-83543800D01*
X100531400Y-114487500D02*
X103169100Y-114487500D01*
X178954600Y-95287000D02*
X177825400Y-94157800D01*
X98228400Y-102136600D02*
X98228400Y-103125200D01*
X105535200Y-56700600D02*
X105535200Y-59185600D01*
D64*
X103874400Y-59085000D02*
X103610800Y-59085000D01*
D65*
X173590200Y-115573200D02*
X172881002Y-116282398D01*
X136150600Y-83543800D02*
X140544800Y-83543800D01*
X119690600Y-50339800D02*
X119717000Y-50366200D01*
D64*
X139026800Y-87200600D02*
X139026800Y-85517800D01*
D65*
X128140000Y-124333000D02*
X128140000Y-124175800D01*
X166300400Y-115624000D02*
X167295599Y-116619199D01*
X135904600Y-42044200D02*
X144626200Y-42044200D01*
X143694600Y-86261400D02*
X143618200Y-86337800D01*
X145884600Y-83885800D02*
X145894600Y-83875800D01*
X102775000Y-105188800D02*
X102784200Y-105179600D01*
X132109000Y-124835900D02*
X130483400Y-124835900D01*
X132350600Y-84197300D02*
X134423100Y-84197300D01*
X102200000Y-96876800D02*
X98228400Y-100848400D01*
X144655600Y-42014800D02*
X144685000Y-42044200D01*
X142312300Y-133936600D02*
X142294400Y-133954500D01*
D68*
X132814600Y-46535800D02*
X132814600Y-48715800D01*
D64*
X100318800Y-59684200D02*
X100195200Y-59560600D01*
X100195200Y-55416600D02*
X100184200Y-55405600D01*
X119767800Y-50477000D02*
X119690600Y-50399800D01*
D65*
X136545600Y-55869200D02*
X136545600Y-52715800D01*
X103740400Y-120080500D02*
X104343500Y-120080500D01*
X128642900Y-124835900D02*
X128140000Y-124333000D01*
X177165000Y-113268400D02*
X177165000Y-113995200D01*
X165979601Y-113261800D02*
X165995600Y-113277799D01*
D64*
X100332700Y-65163100D02*
X100311200Y-65184600D01*
D65*
X152832100Y-47088500D02*
X152832100Y-50495600D01*
X178289200Y-106835600D02*
X178289200Y-105047800D01*
D64*
X101855200Y-55460600D02*
X103095200Y-56700600D01*
D65*
X178471599Y-116774999D02*
X177342800Y-115646200D01*
D68*
X132814600Y-50475800D02*
X132814600Y-52685800D01*
D65*
X126701800Y-41989400D02*
X126756600Y-42044200D01*
X152832100Y-55018100D02*
X152832100Y-50495600D01*
X102775000Y-97451800D02*
X102200000Y-96876800D01*
X136615000Y-83855800D02*
X136887200Y-84128000D01*
X134764600Y-83855800D02*
X135734600Y-83855800D01*
X147152400Y-94161000D02*
X147142200Y-94150800D01*
X162515800Y-115598600D02*
X161695601Y-116418799D01*
X108456200Y-115967800D02*
X114901900Y-115967800D01*
X167295599Y-116619199D02*
X167295599Y-117144999D01*
D67*
X136194600Y-83855800D02*
X140142000Y-83855800D01*
D65*
X114901900Y-115967800D02*
X116431800Y-114437900D01*
D64*
X138524600Y-82565800D02*
X138524600Y-83403200D01*
D65*
X104343500Y-120080500D02*
X108456200Y-115967800D01*
D64*
X106407200Y-102731850D02*
X106407200Y-104938400D01*
X139026800Y-85517800D02*
X139028800Y-85515800D01*
X110611500Y-101503850D02*
X111577200Y-101503850D01*
D65*
X102209200Y-107089600D02*
X102209200Y-107087600D01*
X143684600Y-83875800D02*
X143694600Y-83885800D01*
X177723800Y-114528600D02*
X178460400Y-114528600D01*
X102775000Y-106521800D02*
X102775000Y-105188800D01*
X98279200Y-107087600D02*
X98279200Y-105133800D01*
X140544800Y-83543800D02*
X140875000Y-83874000D01*
X148710900Y-93360900D02*
X147910800Y-94161000D01*
X134626600Y-96878800D02*
X137725400Y-99977600D01*
X102209200Y-107087600D02*
X102775000Y-106521800D01*
X112528600Y-81279300D02*
X112528600Y-83289800D01*
X132643600Y-124301300D02*
X132109000Y-124835900D01*
X126756600Y-42044200D02*
X133314600Y-42044200D01*
X165995600Y-114252400D02*
X164497000Y-115751000D01*
X126930400Y-107326600D02*
X128970800Y-107326600D01*
D64*
X139026600Y-87840800D02*
X139026600Y-87200800D01*
X110090200Y-100982550D02*
X110611500Y-101503850D01*
D65*
X142728800Y-124371000D02*
X142720000Y-124362200D01*
X177181001Y-113271201D02*
X177171600Y-113261800D01*
X133314600Y-42044200D02*
X133852400Y-42044200D01*
D64*
X100184200Y-59505600D02*
X100184200Y-61861100D01*
D65*
X142720000Y-124362200D02*
X142720000Y-123945800D01*
D64*
X111577200Y-101503850D02*
X113527200Y-101503850D01*
D65*
X149358600Y-61953800D02*
X150476200Y-61953800D01*
X143694600Y-83885800D02*
X143694600Y-86261400D01*
X105535200Y-59185600D02*
X105490200Y-59230600D01*
X119690600Y-50339800D02*
X121164600Y-50339800D01*
X123171200Y-94491200D02*
X123973800Y-95293800D01*
X121164600Y-50339800D02*
X122678600Y-50339800D01*
X143694600Y-83885800D02*
X145884600Y-83885800D01*
X177171600Y-113261800D02*
X177165000Y-113268400D01*
X124934600Y-59835800D02*
X126684600Y-59835800D01*
X130483400Y-124835900D02*
X128642900Y-124835900D01*
X131962800Y-60452000D02*
X136545600Y-55869200D01*
D67*
X140142000Y-83855800D02*
X140162000Y-83875800D01*
D65*
X134514600Y-42044200D02*
X134753800Y-42044200D01*
X98270000Y-107096800D02*
X98279200Y-107087600D01*
X134423100Y-84197300D02*
X134764600Y-83855800D01*
X98228400Y-100848400D02*
X98228400Y-102035000D01*
X105490200Y-59230600D02*
X105338167Y-59078567D01*
D64*
X103610800Y-59085000D02*
X103190200Y-59505600D01*
D65*
X119690600Y-50339800D02*
X119690600Y-54591800D01*
X136096800Y-115878000D02*
X136096800Y-117638400D01*
X142743600Y-124179400D02*
X142743600Y-126529700D01*
X178289200Y-109426400D02*
X177705000Y-110010600D01*
X135904600Y-42044200D02*
X135098000Y-42044200D01*
X177165000Y-113995200D02*
X177698400Y-114528600D01*
X145894600Y-85566200D02*
X146209000Y-85880600D01*
X161695601Y-116418799D02*
X161695601Y-117144999D01*
X140595600Y-84305800D02*
X140087600Y-84305800D01*
X102809600Y-98779600D02*
X102775000Y-98745000D01*
X130704600Y-84708800D02*
X131216100Y-84197300D01*
X134684600Y-43055800D02*
X134684600Y-42457600D01*
X103880833Y-59078567D02*
X103874400Y-59085000D01*
X135160200Y-42044200D02*
X135904600Y-42044200D01*
X134271200Y-42044200D02*
X134514600Y-42044200D01*
X135734600Y-83889800D02*
X136379200Y-84534400D01*
X129546600Y-107902400D02*
X129546600Y-109629600D01*
D64*
X138524600Y-83403200D02*
X138538200Y-83416800D01*
%TO.N,IO0*%
X146463000Y-58550200D02*
X147418400Y-59505600D01*
X142005300Y-57699300D02*
X142018000Y-57712000D01*
X110826800Y-95640650D02*
X110829700Y-95643550D01*
X150844600Y-50583100D02*
X150757100Y-50495600D01*
X150844600Y-55405600D02*
X150844600Y-50583100D01*
X110826800Y-93119600D02*
X110826800Y-95640650D01*
X150844600Y-59505600D02*
X150844600Y-55405600D01*
X146408200Y-58554200D02*
X146412200Y-58550200D01*
X142860200Y-58554200D02*
X146408200Y-58554200D01*
X142018000Y-57712000D02*
X142860200Y-58554200D01*
X147418400Y-59505600D02*
X150844600Y-59505600D01*
X146412200Y-58550200D02*
X146463000Y-58550200D01*
%TO.N,ENA*%
X114835800Y-45397000D02*
X114840200Y-45401400D01*
X105535200Y-55610600D02*
X105535200Y-54290600D01*
X98507800Y-86160000D02*
X110211950Y-86160000D01*
X98584200Y-55449600D02*
X98584200Y-54638400D01*
X98311200Y-67973600D02*
X98311200Y-65184600D01*
X126701800Y-44575400D02*
X126710600Y-44584200D01*
X98304600Y-68029400D02*
X98311200Y-68022800D01*
X98318800Y-65208200D02*
X98311200Y-65200600D01*
X105535200Y-53525800D02*
X105535200Y-54290600D01*
X117431000Y-45397000D02*
X118193000Y-44635000D01*
X114801000Y-45431800D02*
X114835800Y-45397000D01*
X126596200Y-44635000D02*
X126701800Y-44529400D01*
X98595200Y-55460600D02*
X98584200Y-55449600D01*
X111735800Y-87683850D02*
X111735800Y-88433850D01*
X105064600Y-52875800D02*
X105434600Y-52875800D01*
X105434600Y-52875800D02*
X105535200Y-52775200D01*
X97187000Y-83645400D02*
X97187000Y-83670800D01*
X105064600Y-52875800D02*
X105255200Y-52875800D01*
X98257700Y-59898100D02*
X98595200Y-59560600D01*
X98311200Y-68022800D02*
X98311200Y-67973600D01*
X97187000Y-83670800D02*
X97187000Y-84839200D01*
X98311200Y-65200600D02*
X98311200Y-61936100D01*
X98257700Y-61882600D02*
X98257700Y-62072500D01*
X105535200Y-52775200D02*
X105535200Y-53155800D01*
X98320000Y-61725600D02*
X98318600Y-61724200D01*
X98584200Y-54638400D02*
X100346800Y-52875800D01*
X98318600Y-62133400D02*
X98320000Y-62134800D01*
X97187000Y-84839200D02*
X98507800Y-86160000D01*
X98320000Y-62134800D02*
X98320000Y-61725600D01*
X110211950Y-86160000D02*
X111735800Y-87683850D01*
X98595200Y-59560600D02*
X98595200Y-55460600D01*
X114713200Y-45431800D02*
X112878600Y-45431800D01*
X105255200Y-52875800D02*
X105535200Y-53155800D01*
X98311200Y-61936100D02*
X98257700Y-61882600D01*
X118193000Y-44635000D02*
X126596200Y-44635000D01*
X105535200Y-53155800D02*
X105535200Y-53525800D01*
X98257700Y-62072500D02*
X98320000Y-62134800D01*
X114748000Y-45397000D02*
X117431000Y-45397000D01*
X100346800Y-52875800D02*
X105064600Y-52875800D01*
X114713200Y-45431800D02*
X114748000Y-45397000D01*
X98320000Y-62134800D02*
X98328200Y-62143000D01*
X112878600Y-45431800D02*
X105535200Y-52775200D01*
X126701800Y-44529400D02*
X126701800Y-44575400D01*
X98257700Y-62072500D02*
X98257700Y-59898100D01*
D65*
%TO.N,+3V3*%
X104359600Y-111229800D02*
X103689400Y-111900000D01*
D70*
X139524600Y-82506600D02*
X139681200Y-82350000D01*
D71*
X139532600Y-86116800D02*
X139532600Y-85555800D01*
D65*
X103689400Y-111900000D02*
X103689400Y-111915600D01*
D70*
X139528800Y-82912600D02*
X139528800Y-82515800D01*
D65*
X110522000Y-103503850D02*
X111577200Y-103503850D01*
X138761700Y-92560800D02*
X138761700Y-95035600D01*
X145302600Y-76562800D02*
X145091400Y-76774000D01*
D70*
X139681200Y-82350000D02*
X139706600Y-82375400D01*
D65*
X146056600Y-77574800D02*
X144862800Y-77574800D01*
X146056600Y-77371600D02*
X145345400Y-76660400D01*
X107143800Y-106882050D02*
X110522000Y-103503850D01*
X140773600Y-68688800D02*
X140758800Y-68674000D01*
X110522000Y-103503850D02*
X110940000Y-103085850D01*
X143372200Y-68688800D02*
X140773600Y-68688800D01*
X164979600Y-113253999D02*
X164995599Y-113269998D01*
X164979600Y-110645600D02*
X164979600Y-113253999D01*
X143684600Y-82475800D02*
X143694600Y-82485800D01*
D70*
X139524600Y-82568750D02*
X139722150Y-82568750D01*
D65*
X145345400Y-76660400D02*
X145345400Y-76609600D01*
D71*
X140496600Y-86545000D02*
X140468600Y-86545000D01*
D70*
X139960600Y-82959600D02*
X140036800Y-82883400D01*
D71*
X139960800Y-86545000D02*
X139532600Y-86116800D01*
D65*
X103188600Y-112416400D02*
X103689400Y-111915600D01*
X177146200Y-67516400D02*
X177273200Y-67643400D01*
X165843200Y-109782000D02*
X164979600Y-110645600D01*
X122806200Y-102568400D02*
X122806200Y-100003000D01*
X145302600Y-76562800D02*
X144634200Y-77231200D01*
X110940000Y-103085850D02*
X111577200Y-103085850D01*
X113798600Y-118570400D02*
X113798600Y-119785600D01*
X103173000Y-112416400D02*
X103188600Y-112416400D01*
X145302600Y-76562800D02*
X145302600Y-73667200D01*
D70*
X139524600Y-82568750D02*
X140077750Y-82568750D01*
D65*
X165868600Y-109782000D02*
X165843200Y-109782000D01*
D70*
X139526800Y-82513800D02*
X139526800Y-82229200D01*
X139833600Y-82959600D02*
X139960600Y-82959600D01*
D71*
X140468600Y-86545000D02*
X139960800Y-86545000D01*
D65*
X146209000Y-82161400D02*
X145894600Y-82475800D01*
X114830800Y-43314200D02*
X114713200Y-43431800D01*
X126756600Y-43314200D02*
X126701800Y-43259400D01*
X122882400Y-99926800D02*
X122882400Y-98622000D01*
X107143800Y-111229800D02*
X104359600Y-111229800D01*
X174080400Y-99224000D02*
X174012600Y-99291800D01*
D70*
X140077750Y-82568750D02*
X140087600Y-82578600D01*
D65*
X177146200Y-67059200D02*
X177146200Y-67634200D01*
D70*
X139681200Y-82959600D02*
X139833600Y-82959600D01*
D65*
X145302600Y-70619200D02*
X143372200Y-68688800D01*
X143694600Y-82485800D02*
X145884600Y-82485800D01*
X113790200Y-110696400D02*
X113790200Y-112437900D01*
X144634200Y-77231200D02*
X144634200Y-77854200D01*
D70*
X139528800Y-82515800D02*
X139526800Y-82513800D01*
D65*
X145302600Y-73667200D02*
X145302600Y-70619200D01*
X174080400Y-93975600D02*
X174080400Y-99224000D01*
D70*
X139706600Y-82375400D02*
X140011400Y-82375400D01*
X139723500Y-82032500D02*
X139998700Y-82032500D01*
D65*
X138736300Y-92535400D02*
X138761700Y-92560800D01*
X111577200Y-103503850D02*
X111577200Y-103085850D01*
X140111800Y-82475800D02*
X141474600Y-82475800D01*
X145302600Y-76562800D02*
X145574000Y-76834200D01*
X126701800Y-43259400D02*
X126647000Y-43314200D01*
X138761700Y-95035600D02*
X138852300Y-95126200D01*
X177146200Y-66017800D02*
X177146200Y-67059200D01*
X141474600Y-82475800D02*
X143684600Y-82475800D01*
X145884600Y-82485800D02*
X145894600Y-82475800D01*
X114713200Y-43457200D02*
X114773400Y-43397000D01*
X146056600Y-77879600D02*
X144659600Y-77879600D01*
X145091400Y-76774000D02*
X145091400Y-77371600D01*
X113798600Y-119785600D02*
X114375000Y-120362000D01*
D70*
X139681200Y-82350000D02*
X139998700Y-82032500D01*
D65*
X146056600Y-77574800D02*
X146056600Y-77879600D01*
D70*
X139529000Y-82912800D02*
X139528800Y-82912600D01*
D65*
X128479800Y-43314200D02*
X126756600Y-43314200D01*
D70*
X139526800Y-82229200D02*
X139723500Y-82032500D01*
D65*
X177144600Y-66037600D02*
X177146200Y-66039200D01*
X122256800Y-97996400D02*
X120555000Y-97996400D01*
D70*
X139833600Y-82959600D02*
X139833600Y-82883400D01*
D65*
X177146200Y-67059200D02*
X177146200Y-67516400D01*
X146056600Y-77371600D02*
X146056600Y-77574800D01*
X174062600Y-101358800D02*
X174062600Y-99341800D01*
D70*
X139722150Y-82568750D02*
X140036800Y-82883400D01*
X139524600Y-82568750D02*
X139524600Y-82506600D01*
D65*
X107143800Y-111280600D02*
X107143800Y-111229800D01*
X144735800Y-77129600D02*
X145302600Y-76562800D01*
X145574000Y-76834200D02*
X145574000Y-77447800D01*
X145955000Y-77270000D02*
X146056600Y-77371600D01*
X126647000Y-43314200D02*
X114830800Y-43314200D01*
X134677400Y-92535400D02*
X138736300Y-92535400D01*
D70*
X139524600Y-82803000D02*
X139681200Y-82959600D01*
D65*
X140011400Y-82375400D02*
X140111800Y-82475800D01*
X146209000Y-80699000D02*
X146209000Y-82161400D01*
X107143800Y-111229800D02*
X107143800Y-106882050D01*
D71*
X140011400Y-82019800D02*
X140011400Y-82858000D01*
D65*
X144659600Y-77879600D02*
X144634200Y-77854200D01*
D70*
X139833600Y-82883400D02*
X139706600Y-82756400D01*
D65*
X174062600Y-93957800D02*
X174080400Y-93975600D01*
D70*
X139998700Y-82032500D02*
X140011400Y-82019800D01*
D65*
X122882400Y-98622000D02*
X122256800Y-97996400D01*
D71*
X140011400Y-82858000D02*
X140036800Y-82883400D01*
D64*
%TO.N,VBUS*%
X102018964Y-104203800D02*
X103652600Y-104203800D01*
D65*
X103645650Y-104378850D02*
X102809700Y-104378850D01*
X99269200Y-115699600D02*
X99269200Y-112449000D01*
D72*
X106407200Y-98678850D02*
X106407200Y-100456850D01*
D65*
X100494900Y-112449000D02*
X100531400Y-112412500D01*
D72*
X105039050Y-98206150D02*
X105934500Y-98206150D01*
D64*
X102777000Y-104386800D02*
X102784200Y-104379600D01*
X102524600Y-104375800D02*
X102364600Y-104215800D01*
D65*
X103333200Y-110036000D02*
X104603200Y-108766000D01*
D64*
X102764600Y-104375800D02*
X102592600Y-104203800D01*
X103652600Y-104203800D02*
X103734600Y-104285800D01*
X100517228Y-101252364D02*
X102021792Y-99747800D01*
D72*
X102809600Y-99579600D02*
X102816800Y-99586800D01*
D64*
X102592600Y-104203800D02*
X102018964Y-104203800D01*
D65*
X104654600Y-117325800D02*
X100895400Y-117325800D01*
D64*
X102018964Y-104203800D02*
X100514400Y-102699236D01*
X103612600Y-99747800D02*
X103658400Y-99702000D01*
D72*
X103658400Y-99586800D02*
X105039050Y-98206150D01*
D65*
X98042200Y-112025000D02*
X100031200Y-110036000D01*
D70*
X102809600Y-99579600D02*
X102802400Y-99586800D01*
D65*
X99269200Y-112449000D02*
X98302200Y-112449000D01*
D64*
X100514400Y-102699236D02*
X100514400Y-101252364D01*
D65*
X98302200Y-112449000D02*
X97999200Y-112146000D01*
D72*
X105934500Y-98206150D02*
X106407200Y-98678850D01*
D65*
X97999200Y-112146000D02*
X98042200Y-112103000D01*
D64*
X102322600Y-99747800D02*
X102554600Y-99515800D01*
X103658400Y-99702000D02*
X103658400Y-99586800D01*
X100514400Y-101252364D02*
X100517228Y-101252364D01*
D72*
X102816800Y-99586800D02*
X103658400Y-99586800D01*
D65*
X99269200Y-112449000D02*
X100494900Y-112449000D01*
D64*
X102021792Y-99747800D02*
X103612600Y-99747800D01*
D65*
X105814600Y-114419100D02*
X105814600Y-116165800D01*
X103645650Y-104378850D02*
X104603200Y-105336400D01*
X105814600Y-116165800D02*
X104654600Y-117325800D01*
X104603200Y-105336400D02*
X104603200Y-108766000D01*
X100895400Y-117325800D02*
X99269200Y-115699600D01*
X98042200Y-112103000D02*
X98042200Y-112025000D01*
D64*
X102021792Y-99747800D02*
X102322600Y-99747800D01*
D65*
X100031200Y-110036000D02*
X103333200Y-110036000D01*
D64*
%TO.N,D15*%
X138230400Y-120289300D02*
X135928800Y-122590900D01*
X138230400Y-119889000D02*
X138230400Y-120187700D01*
X144709000Y-61095800D02*
X144710600Y-61094200D01*
X135940000Y-123175800D02*
X135940000Y-122602100D01*
X135940000Y-122602100D02*
X135928800Y-122590900D01*
X138351900Y-119767500D02*
X138230400Y-119889000D01*
X143024600Y-61105800D02*
X143034600Y-61095800D01*
X139344400Y-113360200D02*
X139344400Y-119090500D01*
X144365000Y-106785000D02*
X144220000Y-106640000D01*
X135928800Y-123321800D02*
X135943600Y-123336600D01*
X144513100Y-107023100D02*
X144365000Y-106875000D01*
X140614400Y-112090200D02*
X139344400Y-113360200D01*
X144516900Y-107023100D02*
X145792400Y-108298600D01*
X144365000Y-106875000D02*
X144170000Y-106680000D01*
X144365000Y-106785000D02*
X144460000Y-106880000D01*
X144365000Y-106875000D02*
X144365000Y-106785000D01*
X144513100Y-107023100D02*
X144403100Y-107023100D01*
X144403100Y-107023100D02*
X144120000Y-106740000D01*
X143357600Y-112090200D02*
X140614400Y-112090200D01*
X144460000Y-106880000D02*
X144460000Y-106980000D01*
X138650600Y-119767500D02*
X138230400Y-120187700D01*
X138667400Y-119767500D02*
X138351900Y-119767500D01*
X139344400Y-119090500D02*
X138667400Y-119767500D01*
X145792400Y-108298600D02*
X145792400Y-109655400D01*
X138230400Y-120187700D02*
X138230400Y-120289300D01*
X145792400Y-109655400D02*
X143357600Y-112090200D01*
X143034600Y-61095800D02*
X144709000Y-61095800D01*
X144513100Y-107023100D02*
X144516900Y-107023100D01*
D70*
%TO.N,Net-(CARD1-DAT2)*%
X142829600Y-117779000D02*
X142853200Y-117755400D01*
X138140000Y-122724900D02*
X142829600Y-118035300D01*
X142829600Y-118035300D02*
X142829600Y-117779000D01*
X138143600Y-123336600D02*
X138140000Y-123333000D01*
X138140000Y-123333000D02*
X138140000Y-122724900D01*
D64*
%TO.N,D2*%
X131540000Y-123359800D02*
X131528800Y-123371000D01*
X131524800Y-120885100D02*
X131220000Y-120580300D01*
X130444600Y-115598600D02*
X130444600Y-120024100D01*
X131524800Y-120580300D02*
X131524800Y-120885100D01*
X138021600Y-59854200D02*
X144680600Y-59854200D01*
X131543600Y-120903900D02*
X131543600Y-123172200D01*
X131543600Y-123172200D02*
X131540000Y-123175800D01*
X131524800Y-120885100D02*
X131543600Y-120903900D01*
X131000800Y-120580300D02*
X131220000Y-120580300D01*
X144680600Y-59854200D02*
X144710600Y-59824200D01*
X132924800Y-64951000D02*
X138021600Y-59854200D01*
X131540000Y-123175800D02*
X131540000Y-123359800D01*
X130444600Y-120024100D02*
X131000800Y-120580300D01*
X130444600Y-115570300D02*
X130444600Y-115598600D01*
X132924800Y-72367800D02*
X132924800Y-64951000D01*
X131220000Y-120580300D02*
X131524800Y-120580300D01*
%TO.N,D14*%
X142705283Y-104565283D02*
X143078140Y-104192426D01*
X142705283Y-104565283D02*
X143040566Y-104230000D01*
X132794800Y-113280400D02*
X132794800Y-119425700D01*
X130950200Y-57048400D02*
X126932000Y-57048400D01*
X133743600Y-119899300D02*
X133760000Y-119882900D01*
X133730000Y-123175800D02*
X133730000Y-123323000D01*
X140087600Y-107182966D02*
X140087600Y-109518200D01*
X133728800Y-123174600D02*
X133730000Y-123175800D01*
X130975600Y-57023000D02*
X130950200Y-57048400D01*
X134950200Y-111125000D02*
X132794800Y-113280400D01*
X133728800Y-119747900D02*
X133728800Y-123174600D01*
X143010000Y-104260566D02*
X143010000Y-104150000D01*
X126932000Y-57048400D02*
X126684600Y-57295800D01*
X132794800Y-119425700D02*
X133085800Y-119716700D01*
X133085800Y-119716700D02*
X133689300Y-119716700D01*
X138480800Y-111125000D02*
X134950200Y-111125000D01*
X143040566Y-104230000D02*
X143100000Y-104230000D01*
X133760000Y-119882900D02*
X133760000Y-119716700D01*
X133689300Y-119716700D02*
X133760000Y-119787400D01*
X142705283Y-104565283D02*
X140087600Y-107182966D01*
X140087600Y-109518200D02*
X138480800Y-111125000D01*
X142705283Y-104565283D02*
X143010000Y-104260566D01*
X131165600Y-57023000D02*
X130975600Y-57023000D01*
X133760000Y-119716700D02*
X133728800Y-119747900D01*
D70*
%TO.N,Net-(CARD1-DAT1)*%
X130428800Y-123371000D02*
X130440000Y-123359800D01*
X130443600Y-123172200D02*
X130443600Y-122329300D01*
X128849600Y-120351800D02*
X128807000Y-120309200D01*
X128849600Y-120735300D02*
X128849600Y-120351800D01*
X130440000Y-123175800D02*
X130443600Y-123172200D01*
X130440000Y-123359800D02*
X130440000Y-123175800D01*
X130443600Y-122329300D02*
X128849600Y-120735300D01*
%TO.N,Net-(CARD1-CD{slash}DAT3)*%
X137040000Y-122638200D02*
X137040000Y-123359800D01*
X140779600Y-118898600D02*
X137040000Y-122638200D01*
X137040000Y-123359800D02*
X137028800Y-123371000D01*
X140770400Y-117907800D02*
X140779600Y-117917000D01*
X140779600Y-117917000D02*
X140779600Y-118898600D01*
D65*
%TO.N,VBAT*%
X110429600Y-76050800D02*
X107774600Y-78705800D01*
X112361000Y-75583400D02*
X113287525Y-75583400D01*
X111893600Y-76050800D02*
X112020600Y-75923800D01*
X112528600Y-76939800D02*
X112528600Y-76685800D01*
X112020600Y-75923800D02*
X112361000Y-75583400D01*
X112528600Y-79204300D02*
X112528600Y-76939800D01*
X107774600Y-78705800D02*
X104864600Y-78705800D01*
X112528600Y-76685800D02*
X111893600Y-76050800D01*
X111893600Y-76050800D02*
X110429600Y-76050800D01*
X112020600Y-75923800D02*
X112274600Y-75923800D01*
X112528600Y-76177800D02*
X112528600Y-75751000D01*
X112274600Y-75923800D02*
X112528600Y-76177800D01*
X112528600Y-75751000D02*
X112361000Y-75583400D01*
X112528600Y-76939800D02*
X112528600Y-76177800D01*
X113251925Y-75619000D02*
X113287525Y-75583400D01*
D64*
%TO.N,/Battery_Voltage_Monitor_with_MOSFETS/V_Batt_Monitor_INPUT*%
X103930200Y-66410600D02*
X107568800Y-66410600D01*
X109079200Y-64900200D02*
X110805400Y-64900200D01*
D65*
X99244400Y-77623800D02*
X99244400Y-81232400D01*
D64*
X103942050Y-66228167D02*
X103930200Y-66240017D01*
X107568800Y-66410600D02*
X109079200Y-64900200D01*
D65*
X99244400Y-81232400D02*
X99320600Y-81308600D01*
D64*
X97796600Y-79784600D02*
X97796600Y-71478800D01*
X99320600Y-81308600D02*
X97796600Y-79784600D01*
X103930200Y-66410600D02*
X102864800Y-66410600D01*
X102864800Y-66410600D02*
X97796600Y-71478800D01*
X110805400Y-64900200D02*
X110820600Y-64885000D01*
%TO.N,D34*%
X114408400Y-53707600D02*
X114408400Y-49562600D01*
X114560600Y-53859800D02*
X114408400Y-53707600D01*
X116778600Y-53859800D02*
X117884600Y-54965800D01*
X122691400Y-48402000D02*
X119743600Y-48402000D01*
X119743600Y-48402000D02*
X119690600Y-48349000D01*
X115555400Y-48415600D02*
X119614800Y-48415600D01*
X122815800Y-48402000D02*
X126702800Y-48402000D01*
X119690600Y-48349000D02*
X119690600Y-48339800D01*
X122753600Y-48339800D02*
X122691400Y-48402000D01*
X114408400Y-49562600D02*
X115555400Y-48415600D01*
X119614800Y-48415600D02*
X119690600Y-48339800D01*
X114560600Y-53859800D02*
X116778600Y-53859800D01*
X126702800Y-48402000D02*
X126710600Y-48394200D01*
D65*
%TO.N,EXT_5V*%
X115287525Y-76533400D02*
X115312525Y-76558400D01*
X106788200Y-122786800D02*
X106813600Y-122786800D01*
X103795600Y-122786800D02*
X106788200Y-122786800D01*
X101093200Y-120080500D02*
X101740400Y-120080500D01*
X98649400Y-117630600D02*
X101093200Y-120074400D01*
D64*
X98049900Y-117611800D02*
X98054900Y-117606800D01*
D65*
X98054900Y-117606800D02*
X98054900Y-117630600D01*
X114375000Y-124435800D02*
X114375000Y-126215800D01*
X101093200Y-120074400D02*
X101093200Y-120080500D01*
X115287525Y-78870200D02*
X115287525Y-78794000D01*
X115287525Y-76533400D02*
X117837200Y-76533400D01*
X97999200Y-115546000D02*
X97999200Y-117551100D01*
X101740400Y-120727700D02*
X101093200Y-120080500D01*
X101740400Y-120080500D02*
X101740400Y-120731600D01*
X98054900Y-117630600D02*
X98649400Y-117630600D01*
X97999200Y-117551100D02*
X98054900Y-117606800D01*
X101740400Y-120731600D02*
X103795600Y-122786800D01*
X117837200Y-76533400D02*
X117862600Y-76558800D01*
X115287525Y-78794000D02*
X115287525Y-76533400D01*
%TO.N,Net-(U5-L2)*%
X140316200Y-77672285D02*
X139050315Y-77672285D01*
D64*
X139026800Y-82015800D02*
X139076600Y-81966000D01*
D65*
X139026800Y-81775600D02*
X139026800Y-81353400D01*
X140316200Y-77672285D02*
X141683685Y-77672285D01*
X139026800Y-81353400D02*
X140290800Y-80089400D01*
X139046200Y-77676400D02*
X139050315Y-77672285D01*
D64*
X139026800Y-82015800D02*
X139026800Y-82553600D01*
X139026800Y-81775600D02*
X139026800Y-82015800D01*
X139076600Y-81966000D02*
X139076600Y-82025800D01*
D65*
X141683685Y-77672285D02*
X141687800Y-77676400D01*
X140290800Y-80089400D02*
X140290800Y-75542800D01*
%TO.N,Net-(U5-L1)*%
X136760200Y-77672285D02*
X136760200Y-80165600D01*
X136760200Y-77672285D02*
X136760200Y-75492000D01*
X137852400Y-81257800D02*
X137852400Y-81685800D01*
X137852400Y-81685800D02*
X137874600Y-81685800D01*
D64*
X138026800Y-82075800D02*
X138026800Y-82555800D01*
D65*
X137949885Y-77672285D02*
X137954000Y-77676400D01*
X136760200Y-77672285D02*
X135613085Y-77672285D01*
X136760200Y-80165600D02*
X137852400Y-81257800D01*
X136760200Y-77672285D02*
X137949885Y-77672285D01*
D64*
X138026800Y-81748000D02*
X138026800Y-82075800D01*
X138026800Y-82048000D02*
X137874600Y-81895800D01*
X138026800Y-82075800D02*
X138026800Y-82048000D01*
%TO.N,D12*%
X142322800Y-108639000D02*
X142739000Y-108639000D01*
X142322800Y-108639000D02*
X142540000Y-108630000D01*
X142741000Y-108639000D02*
X142800000Y-108580000D01*
X141408400Y-107699200D02*
X141408400Y-107724600D01*
X142540000Y-108630000D02*
X142741000Y-108639000D01*
X142322800Y-108639000D02*
X142805400Y-108639000D01*
X126710600Y-58554200D02*
X131201600Y-58554200D01*
X142540000Y-108630000D02*
X142770000Y-108630000D01*
X131201600Y-58554200D02*
X131395900Y-58748500D01*
X142739000Y-108639000D02*
X142800000Y-108700000D01*
X141408400Y-107724600D02*
X142322800Y-108639000D01*
%TO.N,D13*%
X126684600Y-61105800D02*
X124812400Y-61105800D01*
X124812400Y-61105800D02*
X124796800Y-61090200D01*
%TO.N,D4*%
X151466800Y-94465800D02*
X151429700Y-94502900D01*
X144710600Y-57284200D02*
X145874800Y-57284200D01*
X145874800Y-57284200D02*
X147047200Y-56111800D01*
X151429700Y-94502900D02*
X151429700Y-96066000D01*
%TO.N,D26*%
X123357400Y-54744200D02*
X126710600Y-54744200D01*
X123349000Y-54735800D02*
X123357400Y-54744200D01*
X123274600Y-54735800D02*
X123349000Y-54735800D01*
%TO.N,D27*%
X126710600Y-56014200D02*
X126672200Y-55975800D01*
X122804600Y-60912400D02*
X122804600Y-62330800D01*
X126672200Y-55975800D02*
X124724600Y-55975800D01*
X122804600Y-60901400D02*
X122804600Y-60912400D01*
%TO.N,D22*%
X172066200Y-69726200D02*
X172066200Y-69367400D01*
X154413200Y-48974400D02*
X172066200Y-66627400D01*
X145411800Y-44595800D02*
X144684600Y-44595800D01*
X162995600Y-113245801D02*
X162979601Y-113261800D01*
X172066200Y-69726200D02*
X172066200Y-69472200D01*
X162995600Y-110058600D02*
X162995600Y-113245801D01*
X147707600Y-46891600D02*
X145411800Y-44595800D01*
X170999400Y-92586200D02*
X172066200Y-91519400D01*
X172066200Y-67338600D02*
X172066200Y-67764200D01*
X172066200Y-66627400D02*
X172066200Y-67338600D01*
X174171600Y-112068600D02*
X174171600Y-113263598D01*
X172313600Y-110210600D02*
X174171600Y-112068600D01*
X172066200Y-67764200D02*
X172064600Y-67765800D01*
X144685000Y-44584200D02*
X144655600Y-44554800D01*
X172066200Y-67719600D02*
X172117000Y-67770400D01*
X163760400Y-104321000D02*
X162185600Y-105895800D01*
X172066200Y-67338600D02*
X172066200Y-67719600D01*
X172066200Y-69472200D02*
X171964600Y-69370600D01*
X172066200Y-91519400D02*
X172066200Y-69726200D01*
X162185600Y-105895800D02*
X162185600Y-109248600D01*
X162185600Y-109248600D02*
X162995600Y-110058600D01*
X172066200Y-69367400D02*
X172064600Y-69365800D01*
X174171600Y-113263598D02*
X174181001Y-113272999D01*
%TO.N,D23*%
X144684600Y-43325800D02*
X146427800Y-43325800D01*
X146427800Y-43325800D02*
X147834600Y-44732600D01*
X144685000Y-43314200D02*
X144655600Y-43284800D01*
%TO.N,D21*%
X169526200Y-67516400D02*
X169526200Y-67770400D01*
X169526200Y-90198600D02*
X169526200Y-90325600D01*
X169526200Y-69827800D02*
X169526200Y-90198600D01*
X169526200Y-69367400D02*
X169526200Y-69827800D01*
X169526200Y-67262400D02*
X169526200Y-67516400D01*
X174530000Y-110925000D02*
X175181002Y-111576002D01*
X154438600Y-52174800D02*
X169526200Y-67262400D01*
X169526200Y-90325600D02*
X169551600Y-90351000D01*
X169526200Y-69497600D02*
X169373800Y-69345200D01*
X169526200Y-67694200D02*
X169602400Y-67770400D01*
X169526200Y-69827800D02*
X169526200Y-69497600D01*
X175181002Y-111576002D02*
X175181002Y-113252399D01*
X146393000Y-48394200D02*
X146394600Y-48395800D01*
X164014400Y-113227002D02*
X163979602Y-113261800D01*
X169526200Y-67516400D02*
X169526200Y-67694200D01*
X175181002Y-113252399D02*
X175171601Y-113261800D01*
X174530000Y-108385000D02*
X174530000Y-110925000D01*
X164014400Y-108512000D02*
X164014400Y-113227002D01*
X144710600Y-48394200D02*
X146393000Y-48394200D01*
%TO.N,D5*%
X146382800Y-53474200D02*
X144710600Y-53474200D01*
X147618700Y-54702100D02*
X147610700Y-54702100D01*
X150120600Y-65814600D02*
X150120600Y-65894200D01*
X147610700Y-54702100D02*
X146382800Y-53474200D01*
X167440000Y-83213600D02*
X167468800Y-83213600D01*
X147618700Y-54702100D02*
X149028400Y-56111800D01*
X150120600Y-65894200D02*
X167440000Y-83213600D01*
X180740300Y-84191500D02*
X180803800Y-84255000D01*
X180803800Y-84255000D02*
X180803800Y-91180600D01*
X180803800Y-91180600D02*
X180788600Y-91195800D01*
%TO.N,D19*%
X148342600Y-50945800D02*
X148331000Y-50934200D01*
X148331000Y-50934200D02*
X144710600Y-50934200D01*
%TO.N,D18*%
X129946400Y-97993200D02*
X128778000Y-97993200D01*
X130508400Y-95583400D02*
X130867400Y-95942400D01*
X130867400Y-97072200D02*
X129946400Y-97993200D01*
X130165600Y-95583400D02*
X130508400Y-95583400D01*
X130867400Y-95942400D02*
X130867400Y-97072200D01*
X131502400Y-63808000D02*
X143094600Y-52215800D01*
X131502400Y-63833400D02*
X131502400Y-63808000D01*
X143094600Y-52215800D02*
X144684600Y-52215800D01*
%TO.N,D33*%
X123606200Y-52204200D02*
X126710600Y-52204200D01*
X121333300Y-54477100D02*
X123606200Y-52204200D01*
%TO.N,D35*%
X128479800Y-50676200D02*
X128479800Y-54740600D01*
X127479400Y-49675800D02*
X128479800Y-50676200D01*
X128479800Y-54740600D02*
X129444600Y-55705400D01*
X126684600Y-49675800D02*
X127479400Y-49675800D01*
%TO.N,D32*%
X124720600Y-50904800D02*
X126625600Y-50904800D01*
%TO.N,DP*%
X101354600Y-102516250D02*
X101354600Y-101957800D01*
X107357200Y-102041850D02*
X107052150Y-101736800D01*
X101354600Y-102516250D02*
X101575150Y-102736800D01*
X107052150Y-101736800D02*
X101575600Y-101736800D01*
X101354600Y-101957800D02*
X101575600Y-101736800D01*
X107357200Y-102731850D02*
X107357200Y-102041850D01*
X101575150Y-102736800D02*
X102775000Y-102736800D01*
%TO.N,DN*%
X104502200Y-102731850D02*
X105457200Y-102731850D01*
X104502200Y-102996850D02*
X104121200Y-103377850D01*
X104502200Y-102731850D02*
X104502200Y-102996850D01*
X104237200Y-102731850D02*
X104502200Y-102731850D01*
X102782200Y-101229600D02*
X103602450Y-101229600D01*
X102775000Y-102236800D02*
X102782950Y-102228850D01*
X102782950Y-102228850D02*
X103734200Y-102228850D01*
X103734200Y-102228850D02*
X104237200Y-102731850D01*
X103602450Y-101229600D02*
X104121200Y-100710850D01*
X102775000Y-101236800D02*
X102782200Y-101229600D01*
D65*
%TO.N,/micro_SD-CARD_enable/3V3_Input_to_micro_SD-CARD*%
X138208000Y-108867600D02*
X138220700Y-108854900D01*
X139802300Y-99932700D02*
X139757400Y-99977600D01*
X134840000Y-120970200D02*
X134840000Y-123175800D01*
D64*
X134395000Y-113863100D02*
X134395000Y-117991700D01*
X142022500Y-114920300D02*
X142853200Y-115751000D01*
D70*
X140774600Y-116765300D02*
X140779600Y-116770300D01*
D65*
X136096800Y-119713400D02*
X134840000Y-120970200D01*
D64*
X131626400Y-119498600D02*
X131626400Y-116834900D01*
D65*
X139802300Y-97596200D02*
X139802300Y-99932700D01*
X138220700Y-103266900D02*
X139757400Y-101730200D01*
X138230400Y-118799000D02*
X138230400Y-117579800D01*
X139757400Y-101730200D02*
X139757400Y-99977600D01*
D64*
X140774600Y-114920300D02*
X142022500Y-114920300D01*
D70*
X140774600Y-114938200D02*
X140774600Y-116765300D01*
D65*
X138230400Y-117579800D02*
X136096800Y-119713400D01*
D64*
X142853200Y-115751000D02*
X142853200Y-116665400D01*
D70*
X128829600Y-117085300D02*
X128829600Y-119196600D01*
D64*
X131524800Y-119600200D02*
X131626400Y-119498600D01*
D65*
X138220700Y-108854900D02*
X138220700Y-103266900D01*
D70*
X142839600Y-116650300D02*
X142829600Y-116660300D01*
X140774600Y-114920300D02*
X140774600Y-114938200D01*
X128829600Y-119196600D02*
X128807000Y-119219200D01*
D64*
X134395000Y-117991700D02*
X133760000Y-118626700D01*
D65*
%TO.N,Net-(D2-C)*%
X99244400Y-73637800D02*
X99498400Y-73383800D01*
X101552600Y-73383800D02*
X103164600Y-74995800D01*
X99244400Y-74223800D02*
X99244400Y-73637800D01*
X99498400Y-73383800D02*
X101552600Y-73383800D01*
D64*
%TO.N,RTS*%
X119113850Y-96745150D02*
X118053100Y-96745150D01*
X115087916Y-98539150D02*
X117595900Y-98539150D01*
X118575800Y-90932850D02*
X119795800Y-92152850D01*
X112685800Y-90932850D02*
X118575800Y-90932850D01*
X114527200Y-99099866D02*
X115087916Y-98539150D01*
X119795800Y-96063200D02*
X119113850Y-96745150D01*
X118053100Y-98081950D02*
X118053100Y-96745150D01*
X112669800Y-90998050D02*
X112604600Y-90932850D01*
X114527200Y-99553850D02*
X114527200Y-99099866D01*
X119795800Y-92152850D02*
X119795800Y-96063200D01*
X117595900Y-98539150D02*
X118053100Y-98081950D01*
%TO.N,Net-(Q1-B)*%
X112785800Y-92932850D02*
X113767600Y-92932850D01*
X110785800Y-90932850D02*
X112785800Y-92932850D01*
X113767600Y-92932850D02*
X115563900Y-94729150D01*
%TO.N,Net-(Q2-B)*%
X113328700Y-95948350D02*
X113328700Y-96593550D01*
X117053100Y-95745150D02*
X113531900Y-95745150D01*
X113531900Y-95745150D02*
X113328700Y-95948350D01*
X118053100Y-94745150D02*
X117053100Y-95745150D01*
%TO.N,DTR*%
X112223800Y-97336000D02*
X111944400Y-97056600D01*
X111944400Y-98467950D02*
X111944400Y-98061550D01*
X115563900Y-96729150D02*
X115446850Y-96729150D01*
X112223800Y-97350350D02*
X111944400Y-97350350D01*
X112263550Y-97310600D02*
X112223800Y-97350350D01*
X115446850Y-96729150D02*
X114865400Y-97310600D01*
X111944400Y-97604350D02*
X111944400Y-97056600D01*
X111944400Y-95026250D02*
X112277100Y-94693550D01*
X111969800Y-97604350D02*
X112223800Y-97350350D01*
X112277100Y-94693550D02*
X113328700Y-94693550D01*
X111944400Y-96900850D02*
X111944400Y-95026250D01*
X114865400Y-97310600D02*
X112263550Y-97310600D01*
X111944400Y-97045550D02*
X111944400Y-96900850D01*
X111944400Y-97350350D02*
X111944400Y-96900850D01*
X112223800Y-97350350D02*
X112223800Y-97336000D01*
X111944400Y-98061550D02*
X111944400Y-97604350D01*
X112527200Y-99050750D02*
X111944400Y-98467950D01*
X112527200Y-99553850D02*
X112527200Y-99050750D01*
X111944400Y-97604350D02*
X111969800Y-97604350D01*
X111944400Y-97035550D02*
X111944400Y-96900850D01*
X111944400Y-97056600D02*
X111944400Y-97045550D01*
%TO.N,Net-(Q3-G)*%
X107381250Y-53129150D02*
X110760600Y-49749800D01*
X107390200Y-59230600D02*
X107381250Y-59221650D01*
X107381250Y-59221650D02*
X107381250Y-53129150D01*
X110760600Y-49749800D02*
X112050600Y-49749800D01*
%TO.N,Net-(Q3-D)*%
X106710883Y-63000200D02*
X106704450Y-62993767D01*
X106874600Y-63000200D02*
X106710883Y-63000200D01*
X106101050Y-63050767D02*
X106228050Y-62923767D01*
X103942050Y-64228167D02*
X104124483Y-64410600D01*
X106874600Y-63000200D02*
X110805400Y-63000200D01*
X106228050Y-62923767D02*
X106431250Y-62720567D01*
X106151616Y-63000200D02*
X106020308Y-63131508D01*
X106704450Y-62993767D02*
X106431250Y-62720567D01*
X104741217Y-64410600D02*
X106020308Y-63131508D01*
X106431250Y-62720567D02*
X106440200Y-62711617D01*
X106440200Y-62711617D02*
X106440200Y-61087517D01*
X106158050Y-62993767D02*
X106101050Y-63050767D01*
X106298050Y-62993767D02*
X106704450Y-62993767D01*
X106440200Y-61087517D02*
X106431250Y-61078567D01*
X106874600Y-63000200D02*
X106151616Y-63000200D01*
X104124483Y-64410600D02*
X104741217Y-64410600D01*
X106704450Y-62993767D02*
X106158050Y-62993767D01*
X106020308Y-63131508D02*
X106101050Y-63050767D01*
X110805400Y-63000200D02*
X110820600Y-62985000D01*
X106228050Y-62923767D02*
X106298050Y-62993767D01*
%TO.N,Net-(Q4-D)*%
X113304600Y-63950200D02*
X113319800Y-63935000D01*
X114560600Y-63244200D02*
X114560600Y-55859800D01*
X113319800Y-63935000D02*
X113869800Y-63935000D01*
X113869800Y-63935000D02*
X114560600Y-63244200D01*
%TO.N,Net-(U3-VBUS)*%
X108456200Y-112437900D02*
X108456200Y-109206200D01*
X105884200Y-112419100D02*
X105900200Y-112403100D01*
X112527200Y-105135200D02*
X112527200Y-104453850D01*
X105900200Y-112403100D02*
X108456200Y-112403100D01*
X108456200Y-109206200D02*
X112527200Y-105135200D01*
X105787800Y-112395100D02*
X105763800Y-112419100D01*
X105799400Y-112403900D02*
X105814600Y-112419100D01*
X105814600Y-112419100D02*
X105884200Y-112419100D01*
%TO.N,Net-(R5-Pad1)*%
X111097800Y-114437900D02*
X113790200Y-114437900D01*
%TO.N,Net-(U3-~{RST})*%
X113027200Y-106464000D02*
X113027200Y-104453850D01*
X111097800Y-112437900D02*
X111097800Y-108393400D01*
X111097800Y-108393400D02*
X113027200Y-106464000D01*
%TO.N,Net-(U3-~{SUSPEND})*%
X116431800Y-108783000D02*
X116431800Y-112437900D01*
X114027200Y-104453850D02*
X114027200Y-106378400D01*
X114027200Y-106378400D02*
X116431800Y-108783000D01*
%TO.N,D25*%
X112050600Y-53427800D02*
X112097000Y-53474200D01*
X124746000Y-53474200D02*
X124644600Y-53474200D01*
X112046200Y-51645400D02*
X112050600Y-51649800D01*
X112050600Y-51649800D02*
X112050600Y-53427800D01*
X126710600Y-53474200D02*
X124746000Y-53474200D01*
%TO.N,D+*%
X109860200Y-102004850D02*
X108312200Y-100456850D01*
X109861200Y-102003850D02*
X109860200Y-102004850D01*
X111577200Y-102003850D02*
X109861200Y-102003850D01*
X108312200Y-100456850D02*
X107357200Y-100456850D01*
%TO.N,D-*%
X108871000Y-102503850D02*
X108835200Y-102503850D01*
X105457200Y-100456850D02*
X105457200Y-99107101D01*
X105457200Y-99107101D02*
X105451149Y-99101050D01*
X111577200Y-102503850D02*
X108871000Y-102503850D01*
X108835200Y-102503850D02*
X108820200Y-102488850D01*
X108836200Y-102504850D02*
X108820200Y-102488850D01*
%TO.N,TXD0*%
X141647800Y-45204400D02*
X142297600Y-45854200D01*
X144626200Y-45854200D02*
X144655600Y-45824800D01*
X106204000Y-84382000D02*
X109353600Y-84382000D01*
X114306600Y-98174200D02*
X114027200Y-98453600D01*
X114027200Y-98453600D02*
X114027200Y-99553850D01*
X114306600Y-98087600D02*
X114306600Y-98174200D01*
X142297600Y-45854200D02*
X144626200Y-45854200D01*
%TO.N,RXD0*%
X113011200Y-98300950D02*
X113527200Y-98816950D01*
X141789600Y-47124200D02*
X144710600Y-47124200D01*
X113527200Y-98816950D02*
X113527200Y-99553850D01*
D65*
%TO.N,/I2C_Connector_Enable/3V3_Input_to_I2C_Connector*%
X176198000Y-113235399D02*
X176171599Y-113261800D01*
X175012600Y-105634000D02*
X176214200Y-106835600D01*
X176198000Y-110010600D02*
X176198000Y-113235399D01*
X176214200Y-106835600D02*
X176214200Y-109994400D01*
X175012600Y-103828800D02*
X175012600Y-105634000D01*
X176214200Y-109994400D02*
X176198000Y-110010600D01*
D64*
%TO.N,Net-(Q6-G)*%
X149424700Y-96061000D02*
X149429700Y-96066000D01*
X147152400Y-96061000D02*
X149424700Y-96061000D01*
X147142200Y-96050800D02*
X147152400Y-96061000D01*
D65*
%TO.N,/Buck-Boost3.3V/Buck-Boost_INPUT*%
X132684100Y-82455800D02*
X132350600Y-82122300D01*
X130905700Y-77603550D02*
X130905700Y-82061900D01*
D71*
X137147400Y-82851800D02*
X137090400Y-82908800D01*
D65*
X126905000Y-72520200D02*
X126905000Y-73587000D01*
D64*
X138526800Y-86230600D02*
X138257040Y-86500360D01*
X138526800Y-85517800D02*
X138526800Y-86230600D01*
D65*
X126905000Y-73587000D02*
X126897075Y-73594925D01*
D70*
X137293600Y-82705600D02*
X137090400Y-82908800D01*
D65*
X137180650Y-82455800D02*
X137293600Y-82568750D01*
X126363675Y-73061525D02*
X126897075Y-73594925D01*
D71*
X137147400Y-82153000D02*
X137147400Y-82851800D01*
D65*
X126905000Y-72520200D02*
X125939800Y-72520200D01*
X134764600Y-82455800D02*
X132684100Y-82455800D01*
X125939800Y-72520200D02*
X125935400Y-72515800D01*
X125939800Y-72520200D02*
X125881075Y-72578925D01*
D70*
X137115800Y-82934200D02*
X137369800Y-82934200D01*
D65*
X125935400Y-72515800D02*
X125935400Y-72524600D01*
D70*
X137344400Y-82121400D02*
X137115800Y-82121400D01*
D65*
X125881075Y-72578925D02*
X126363675Y-73061525D01*
D70*
X137344400Y-82350000D02*
X137319000Y-82324600D01*
D65*
X126905000Y-72520200D02*
X126363675Y-73061525D01*
D70*
X137524600Y-82568750D02*
X137524600Y-82301600D01*
D65*
X131042300Y-82122300D02*
X130905700Y-81985700D01*
D70*
X137319000Y-82324600D02*
X137192000Y-82324600D01*
D65*
X115712200Y-74633400D02*
X115287525Y-74633400D01*
D70*
X137524600Y-82250800D02*
X137522200Y-82248400D01*
D64*
X138026800Y-86428734D02*
X138026800Y-85517800D01*
D70*
X137524600Y-82250800D02*
X137524600Y-82568750D01*
D65*
X125935400Y-72524600D02*
X125301200Y-73158800D01*
D70*
X137524600Y-82301600D02*
X137344400Y-82121400D01*
D65*
X128632200Y-70793000D02*
X126905000Y-72520200D01*
D70*
X137524600Y-82568750D02*
X137524600Y-82779400D01*
D64*
X137921567Y-86466752D02*
X137921567Y-86533967D01*
D65*
X126266400Y-73158800D02*
X126363675Y-73061525D01*
X115287525Y-74633400D02*
X116791125Y-73129800D01*
D70*
X137192000Y-82324600D02*
X137115800Y-82400800D01*
D65*
X126460950Y-73158800D02*
X126266400Y-73158800D01*
X125301200Y-73158800D02*
X117862600Y-73158800D01*
X125301200Y-73158800D02*
X126266400Y-73158800D01*
D64*
X138257040Y-86500360D02*
X137955175Y-86500360D01*
D71*
X137115800Y-82121400D02*
X137147400Y-82153000D01*
D64*
X137526800Y-86071985D02*
X137921567Y-86466752D01*
X138528800Y-85515800D02*
X138526800Y-85517800D01*
D70*
X137090400Y-82908800D02*
X137115800Y-82934200D01*
D64*
X137528800Y-85515800D02*
X137526800Y-85517800D01*
D65*
X126897075Y-73594925D02*
X126460950Y-73158800D01*
D64*
X137526800Y-85517800D02*
X137526800Y-86071985D01*
D65*
X126897075Y-73594925D02*
X130905700Y-77603550D01*
D64*
X137921567Y-86533967D02*
X138026800Y-86428734D01*
X137955175Y-86500360D02*
X137921567Y-86533967D01*
D70*
X137115800Y-82121400D02*
X137344400Y-82350000D01*
X137524600Y-82568750D02*
X137293600Y-82568750D01*
D64*
X138026800Y-85517800D02*
X138028800Y-85515800D01*
D70*
X137293600Y-82568750D02*
X137293600Y-82705600D01*
D65*
X134764600Y-82455800D02*
X137180650Y-82455800D01*
X117833600Y-73129800D02*
X117862600Y-73158800D01*
D70*
X137524600Y-82779400D02*
X137369800Y-82934200D01*
D65*
X115712200Y-74633400D02*
X115724600Y-74645800D01*
X132350600Y-82122300D02*
X131042300Y-82122300D01*
X116791125Y-73129800D02*
X117833600Y-73129800D01*
X130905700Y-82061900D02*
X130893000Y-82074600D01*
%TO.N,3V3_ON_OFF*%
X131469200Y-105827400D02*
X132459800Y-105827400D01*
X123756200Y-105038400D02*
X123756200Y-105261600D01*
X131469200Y-105827400D02*
X129546600Y-105827400D01*
X132459800Y-105827400D02*
X132467600Y-105819600D01*
X126930400Y-105819600D02*
X129538800Y-105819600D01*
X129538800Y-105819600D02*
X129546600Y-105827400D01*
X123756200Y-105261600D02*
X124314200Y-105819600D01*
X124314200Y-105819600D02*
X126930400Y-105819600D01*
D64*
%TO.N,SENSOR_VN*%
X133356600Y-43234000D02*
X129454800Y-47135800D01*
X129454800Y-47135800D02*
X126684600Y-47135800D01*
X133356600Y-43208600D02*
X133356600Y-43234000D01*
D65*
%TO.N,Net-(Q6-D)*%
X140752300Y-95126200D02*
X145163300Y-95126200D01*
X140761700Y-95116800D02*
X140752300Y-95126200D01*
X140761700Y-92560800D02*
X140761700Y-95116800D01*
D64*
%TO.N,Net-(Q8-G)*%
X176698400Y-98606000D02*
X176012600Y-99291800D01*
X176012600Y-99291800D02*
X176012600Y-101308800D01*
X179904600Y-98365800D02*
X179664400Y-98606000D01*
X176012600Y-101308800D02*
X175962600Y-101358800D01*
X179904600Y-97751800D02*
X179904600Y-98365800D01*
X179664400Y-98606000D02*
X176698400Y-98606000D01*
D65*
%TO.N,Net-(Q10-G)*%
X124706200Y-102568400D02*
X124706200Y-100103000D01*
X124923800Y-97564600D02*
X124923800Y-99885400D01*
X124706200Y-100103000D02*
X124882400Y-99926800D01*
X124923800Y-99885400D02*
X124882400Y-99926800D01*
D64*
%TO.N,SENSOR_VP*%
X127880000Y-45865800D02*
X130689600Y-43056200D01*
X126684600Y-45865800D02*
X127880000Y-45865800D01*
%TO.N,Net-(Q11-G)*%
X125892600Y-95583400D02*
X125873800Y-95564600D01*
X128165600Y-95583400D02*
X125892600Y-95583400D01*
%TO.N,Net-(Q9-G)*%
X180788600Y-93195800D02*
X180788600Y-95619000D01*
X180854600Y-95685000D02*
X180854600Y-95751800D01*
X180788600Y-95619000D02*
X180854600Y-95685000D01*
%TD*%
%TA.AperFunction,Conductor*%
%TO.N,Net-(U5-L1)*%
G36*
X137749400Y-75072673D02*
G01*
X138262310Y-75386834D01*
X138302056Y-75433350D01*
X138309600Y-75471255D01*
X138309600Y-81174564D01*
X138308605Y-81188565D01*
X138214714Y-81845801D01*
X138187767Y-81900733D01*
X138159967Y-81915433D01*
X138144600Y-81930801D01*
X138144600Y-82456800D01*
X138139755Y-82471711D01*
X138139755Y-82487393D01*
X138130538Y-82500078D01*
X138125693Y-82514991D01*
X138113007Y-82524207D01*
X138103791Y-82536893D01*
X138088878Y-82541738D01*
X138076193Y-82550955D01*
X138045600Y-82555800D01*
X138003600Y-82555800D01*
X137945409Y-82536893D01*
X137909445Y-82487393D01*
X137904600Y-82456800D01*
X137904600Y-81930801D01*
X137904599Y-81930800D01*
X137884899Y-81930800D01*
X137826563Y-81942403D01*
X137817559Y-81946134D01*
X137816618Y-81943863D01*
X137771154Y-81956681D01*
X137746717Y-81952617D01*
X137732437Y-81948352D01*
X137722831Y-81941933D01*
X137687250Y-81934855D01*
X137682789Y-81933523D01*
X137670779Y-81925229D01*
X137644928Y-81912280D01*
X137588506Y-81861546D01*
X137570996Y-81845801D01*
X136386600Y-80780800D01*
X135997693Y-80449106D01*
X134712357Y-79352860D01*
X134680351Y-79300713D01*
X134677600Y-79277535D01*
X134677600Y-77797286D01*
X135498200Y-77797286D01*
X135498200Y-79601985D01*
X135509803Y-79660321D01*
X135554006Y-79726474D01*
X135554010Y-79726478D01*
X135620163Y-79770681D01*
X135678499Y-79782284D01*
X135678503Y-79782285D01*
X136635199Y-79782285D01*
X136635200Y-79782284D01*
X136635200Y-77797286D01*
X136885200Y-77797286D01*
X136885200Y-79782284D01*
X136885201Y-79782285D01*
X137841897Y-79782285D01*
X137841900Y-79782284D01*
X137900236Y-79770681D01*
X137966389Y-79726478D01*
X137966393Y-79726474D01*
X138010596Y-79660321D01*
X138022199Y-79601985D01*
X138022200Y-79601982D01*
X138022200Y-77797286D01*
X138022199Y-77797285D01*
X136885201Y-77797285D01*
X136885200Y-77797286D01*
X136635200Y-77797286D01*
X136635199Y-77797285D01*
X135498201Y-77797285D01*
X135498200Y-77797286D01*
X134677600Y-77797286D01*
X134677600Y-75922971D01*
X134696507Y-75864780D01*
X134719179Y-75842325D01*
X134859262Y-75742584D01*
X135498200Y-75742584D01*
X135498200Y-77547284D01*
X135498201Y-77547285D01*
X136635199Y-77547285D01*
X136635200Y-77547284D01*
X136635200Y-75562286D01*
X136885200Y-75562286D01*
X136885200Y-77547284D01*
X136885201Y-77547285D01*
X138022199Y-77547285D01*
X138022200Y-77547284D01*
X138022200Y-75742587D01*
X138022199Y-75742584D01*
X138010596Y-75684248D01*
X137966393Y-75618095D01*
X137966389Y-75618091D01*
X137900236Y-75573888D01*
X137841900Y-75562285D01*
X136885201Y-75562285D01*
X136885200Y-75562286D01*
X136635200Y-75562286D01*
X136635199Y-75562285D01*
X135678499Y-75562285D01*
X135620163Y-75573888D01*
X135554010Y-75618091D01*
X135554006Y-75618095D01*
X135509803Y-75684248D01*
X135498200Y-75742584D01*
X134859262Y-75742584D01*
X134979352Y-75657078D01*
X135256448Y-75459780D01*
X135794822Y-75076449D01*
X135852243Y-75058096D01*
X137697692Y-75058096D01*
X137749400Y-75072673D01*
G37*
%TD.AperFunction*%
%TD*%
%TA.AperFunction,Conductor*%
%TO.N,GND*%
G36*
X136664283Y-83287788D02*
G01*
X136700261Y-83337278D01*
X136700278Y-83398463D01*
X136683516Y-83429623D01*
X136629900Y-83496853D01*
X136609600Y-83585800D01*
X136609600Y-83875808D01*
X136614739Y-83921415D01*
X136659165Y-84013665D01*
X136656323Y-84015033D01*
X136671502Y-84055488D01*
X136655219Y-84114467D01*
X136650003Y-84121646D01*
X136629900Y-84146853D01*
X136609600Y-84235800D01*
X136609600Y-84525808D01*
X136614739Y-84571415D01*
X136654325Y-84653615D01*
X136725654Y-84710499D01*
X136814600Y-84730800D01*
X136968006Y-84730800D01*
X137026197Y-84749707D01*
X137062161Y-84799207D01*
X137062161Y-84860393D01*
X137043085Y-84894330D01*
X134840883Y-87456546D01*
X134788615Y-87488352D01*
X134779713Y-87490034D01*
X133039596Y-87736955D01*
X133013572Y-87737193D01*
X131000752Y-87489011D01*
X130945312Y-87463125D01*
X130942422Y-87460314D01*
X129882653Y-86387056D01*
X129859294Y-86349148D01*
X129398936Y-84984799D01*
X129354278Y-84852448D01*
X129353590Y-84791270D01*
X129354261Y-84789201D01*
X129843883Y-83338124D01*
X129880400Y-83289036D01*
X129937654Y-83270779D01*
X131617843Y-83270305D01*
X131676036Y-83289196D01*
X131712014Y-83338686D01*
X131712031Y-83399871D01*
X131676081Y-83449381D01*
X131664136Y-83456828D01*
X131662960Y-83457449D01*
X131553809Y-83538007D01*
X131553807Y-83538009D01*
X131473254Y-83647152D01*
X131428450Y-83775198D01*
X131425600Y-83805588D01*
X131425600Y-84589003D01*
X131428450Y-84619400D01*
X131428450Y-84619402D01*
X131473254Y-84747447D01*
X131553807Y-84856590D01*
X131553809Y-84856592D01*
X131662952Y-84937145D01*
X131790998Y-84981949D01*
X131821389Y-84984799D01*
X132879803Y-84984799D01*
X132910200Y-84981949D01*
X132910202Y-84981949D01*
X133038247Y-84937145D01*
X133147390Y-84856592D01*
X133147392Y-84856590D01*
X133227945Y-84747447D01*
X133272749Y-84619401D01*
X133275599Y-84589011D01*
X133275599Y-83805596D01*
X133272749Y-83775199D01*
X133272749Y-83775197D01*
X133227945Y-83647152D01*
X133147392Y-83538009D01*
X133147390Y-83538007D01*
X133038244Y-83457453D01*
X133036288Y-83456419D01*
X133034885Y-83454974D01*
X133032276Y-83453048D01*
X133032595Y-83452614D01*
X132993676Y-83412511D01*
X132985011Y-83351943D01*
X133013602Y-83297848D01*
X133068528Y-83270890D01*
X133082509Y-83269892D01*
X134027054Y-83269626D01*
X134085249Y-83288517D01*
X134121227Y-83338007D01*
X134124179Y-83387938D01*
X134114600Y-83436094D01*
X134114600Y-84275500D01*
X134126203Y-84333836D01*
X134170406Y-84399989D01*
X134170410Y-84399993D01*
X134236563Y-84444196D01*
X134294899Y-84455799D01*
X134294903Y-84455800D01*
X135234297Y-84455800D01*
X135234300Y-84455799D01*
X135292636Y-84444196D01*
X135358789Y-84399993D01*
X135358793Y-84399989D01*
X135402996Y-84333836D01*
X135414599Y-84275500D01*
X135414600Y-84275497D01*
X135414600Y-83436102D01*
X135414599Y-83436099D01*
X135404937Y-83387523D01*
X135412129Y-83326762D01*
X135453661Y-83281832D01*
X135502002Y-83269210D01*
X136606092Y-83268898D01*
X136664283Y-83287788D01*
G37*
%TD.AperFunction*%
%TA.AperFunction,Conductor*%
G36*
X140590167Y-83298172D02*
G01*
X140641932Y-83312042D01*
X140656994Y-83317416D01*
X140665698Y-83321340D01*
X140675129Y-83324501D01*
X140675133Y-83324501D01*
X140675134Y-83324502D01*
X140688005Y-83326762D01*
X140735456Y-83335094D01*
X140735468Y-83335094D01*
X140737867Y-83335333D01*
X140738570Y-83335641D01*
X140739104Y-83335735D01*
X140739081Y-83335865D01*
X140793905Y-83359897D01*
X140824802Y-83412708D01*
X140825185Y-83453158D01*
X140824600Y-83456097D01*
X140824600Y-84295500D01*
X140836203Y-84353836D01*
X140880406Y-84419989D01*
X140880410Y-84419993D01*
X140946563Y-84464196D01*
X141004899Y-84475799D01*
X141004903Y-84475800D01*
X141944297Y-84475800D01*
X141944300Y-84475799D01*
X142002636Y-84464196D01*
X142068789Y-84419993D01*
X142068793Y-84419989D01*
X142112996Y-84353836D01*
X142124599Y-84295500D01*
X142124600Y-84295497D01*
X142124600Y-83451239D01*
X142126459Y-83451239D01*
X142137967Y-83398826D01*
X142183710Y-83358191D01*
X142223370Y-83349900D01*
X142947082Y-83349900D01*
X143005273Y-83368807D01*
X143041237Y-83418307D01*
X143043759Y-83461127D01*
X143045077Y-83461257D01*
X143044600Y-83466102D01*
X143044600Y-84305500D01*
X143056203Y-84363836D01*
X143100406Y-84429989D01*
X143100410Y-84429993D01*
X143166563Y-84474196D01*
X143224899Y-84485799D01*
X143224903Y-84485800D01*
X144164297Y-84485800D01*
X144164300Y-84485799D01*
X144222636Y-84474196D01*
X144288789Y-84429993D01*
X144288793Y-84429989D01*
X144332996Y-84363836D01*
X144344599Y-84305500D01*
X144344600Y-84305497D01*
X144344600Y-83466102D01*
X144344123Y-83461257D01*
X144345866Y-83461085D01*
X144352207Y-83407462D01*
X144393735Y-83362528D01*
X144442118Y-83349900D01*
X145145830Y-83349900D01*
X145204021Y-83368807D01*
X145239985Y-83418307D01*
X145243558Y-83451239D01*
X145244600Y-83451239D01*
X145244600Y-84295500D01*
X145256203Y-84353836D01*
X145300406Y-84419989D01*
X145300410Y-84419993D01*
X145366563Y-84464196D01*
X145424899Y-84475799D01*
X145424903Y-84475800D01*
X146364297Y-84475800D01*
X146364300Y-84475799D01*
X146422636Y-84464196D01*
X146488789Y-84419993D01*
X146488793Y-84419989D01*
X146532996Y-84353836D01*
X146544599Y-84295500D01*
X146544600Y-84295497D01*
X146544600Y-83451239D01*
X146546459Y-83451239D01*
X146557967Y-83398826D01*
X146603710Y-83358191D01*
X146643370Y-83349900D01*
X147212848Y-83349900D01*
X147212870Y-83349900D01*
X147220101Y-83349773D01*
X147227059Y-83349528D01*
X147244449Y-83345824D01*
X147305302Y-83352194D01*
X147350788Y-83393117D01*
X147360876Y-83417700D01*
X147752117Y-84919908D01*
X147752147Y-84969697D01*
X147329304Y-86601216D01*
X147303787Y-86646068D01*
X146490064Y-87467123D01*
X146435672Y-87495145D01*
X146433591Y-87495461D01*
X144723774Y-87736939D01*
X144697402Y-87737116D01*
X142798944Y-87494926D01*
X142743614Y-87468807D01*
X142743038Y-87468261D01*
X140059625Y-84901339D01*
X140030645Y-84847452D01*
X140038874Y-84786823D01*
X140081168Y-84742609D01*
X140128059Y-84730800D01*
X140234592Y-84730800D01*
X140234608Y-84730799D01*
X140280215Y-84725660D01*
X140362415Y-84686074D01*
X140419299Y-84614745D01*
X140439600Y-84525799D01*
X140439600Y-84235808D01*
X140439599Y-84235791D01*
X140434460Y-84190184D01*
X140390035Y-84097935D01*
X140392876Y-84096566D01*
X140377697Y-84056115D01*
X140393978Y-83997135D01*
X140399198Y-83989951D01*
X140419299Y-83964746D01*
X140439600Y-83875799D01*
X140439600Y-83585808D01*
X140439599Y-83585791D01*
X140434460Y-83540184D01*
X140394874Y-83457983D01*
X140392915Y-83455527D01*
X140390173Y-83448222D01*
X140390035Y-83447935D01*
X140390060Y-83447922D01*
X140371415Y-83398243D01*
X140387692Y-83339262D01*
X140435528Y-83301113D01*
X140470315Y-83294800D01*
X140480399Y-83294800D01*
X140480463Y-83294799D01*
X140564544Y-83294799D01*
X140590167Y-83298172D01*
G37*
%TD.AperFunction*%
%TD*%
%TA.AperFunction,Conductor*%
%TO.N,/Buck-Boost3.3V/Buck-Boost_INPUT*%
G36*
X133773139Y-80177862D02*
G01*
X133798751Y-80187304D01*
X136937307Y-81867403D01*
X137106322Y-81957878D01*
X137148702Y-82002010D01*
X137158600Y-82045159D01*
X137158600Y-82915400D01*
X137139693Y-82973591D01*
X137090193Y-83009555D01*
X137059600Y-83014400D01*
X135507603Y-83014400D01*
X135449412Y-82995493D01*
X135413448Y-82945993D01*
X135410505Y-82896086D01*
X135414599Y-82875500D01*
X135414600Y-82875497D01*
X135414600Y-82580801D01*
X135414599Y-82580800D01*
X134114601Y-82580800D01*
X134114600Y-82580801D01*
X134114600Y-82875500D01*
X134118695Y-82896086D01*
X134111503Y-82956847D01*
X134069970Y-83001777D01*
X134021597Y-83014400D01*
X133132806Y-83014400D01*
X133074615Y-82995493D01*
X133038651Y-82945993D01*
X133038651Y-82884807D01*
X133074018Y-82835745D01*
X133147387Y-82781595D01*
X133147392Y-82781590D01*
X133227945Y-82672447D01*
X133272749Y-82544401D01*
X133275599Y-82514011D01*
X133275600Y-82514010D01*
X133275600Y-82247301D01*
X133275599Y-82247300D01*
X131425602Y-82247300D01*
X131425601Y-82247301D01*
X131425601Y-82514003D01*
X131428450Y-82544400D01*
X131428450Y-82544402D01*
X131473254Y-82672447D01*
X131553807Y-82781590D01*
X131553812Y-82781595D01*
X131627182Y-82835745D01*
X131662775Y-82885513D01*
X131662317Y-82946696D01*
X131625984Y-82995926D01*
X131568394Y-83014400D01*
X129937516Y-83014400D01*
X129879325Y-82995493D01*
X129843574Y-82946638D01*
X129540799Y-82036099D01*
X134114600Y-82036099D01*
X134114600Y-82330799D01*
X134114601Y-82330800D01*
X134639599Y-82330800D01*
X134639600Y-82330799D01*
X134639600Y-81855801D01*
X134889600Y-81855801D01*
X134889600Y-82330799D01*
X134889601Y-82330800D01*
X135414599Y-82330800D01*
X135414600Y-82330799D01*
X135414600Y-82036102D01*
X135414599Y-82036099D01*
X135402996Y-81977763D01*
X135358793Y-81911610D01*
X135358789Y-81911606D01*
X135292636Y-81867403D01*
X135234300Y-81855800D01*
X134889601Y-81855800D01*
X134889600Y-81855801D01*
X134639600Y-81855801D01*
X134639599Y-81855800D01*
X134294899Y-81855800D01*
X134236563Y-81867403D01*
X134170410Y-81911606D01*
X134170406Y-81911610D01*
X134126203Y-81977763D01*
X134114600Y-82036099D01*
X129540799Y-82036099D01*
X129499404Y-81911610D01*
X129439210Y-81730588D01*
X131425600Y-81730588D01*
X131425600Y-81997299D01*
X131425601Y-81997300D01*
X132225599Y-81997300D01*
X132225600Y-81997299D01*
X132225600Y-81334801D01*
X132475600Y-81334801D01*
X132475600Y-81997299D01*
X132475601Y-81997300D01*
X133275598Y-81997300D01*
X133275599Y-81997299D01*
X133275599Y-81730596D01*
X133272749Y-81700199D01*
X133272749Y-81700197D01*
X133227945Y-81572152D01*
X133147392Y-81463009D01*
X133147390Y-81463007D01*
X133038247Y-81382454D01*
X132910201Y-81337650D01*
X132879811Y-81334800D01*
X132475601Y-81334800D01*
X132475600Y-81334801D01*
X132225600Y-81334801D01*
X132225599Y-81334800D01*
X131821396Y-81334800D01*
X131790999Y-81337650D01*
X131790997Y-81337650D01*
X131662952Y-81382454D01*
X131553809Y-81463007D01*
X131553807Y-81463009D01*
X131473254Y-81572152D01*
X131428450Y-81700198D01*
X131425600Y-81730588D01*
X129439210Y-81730588D01*
X129355065Y-81477537D01*
X129354647Y-81416356D01*
X129357158Y-81409366D01*
X129832365Y-80228593D01*
X129871630Y-80181671D01*
X129901777Y-80169131D01*
X131734866Y-79742853D01*
X131778398Y-79742557D01*
X133773139Y-80177862D01*
G37*
%TD.AperFunction*%
%TD*%
%TA.AperFunction,Conductor*%
%TO.N,Net-(U5-L2)*%
G36*
X141305365Y-75077003D02*
G01*
X141308598Y-75079455D01*
X142336224Y-75892440D01*
X142370129Y-75943371D01*
X142373800Y-75970080D01*
X142373800Y-79257441D01*
X142354893Y-79315632D01*
X142340466Y-79331529D01*
X140716814Y-80770609D01*
X140716377Y-80770994D01*
X139650552Y-81704522D01*
X139627442Y-81719642D01*
X139619458Y-81723395D01*
X139597861Y-81729182D01*
X139560750Y-81750608D01*
X139557149Y-81752686D01*
X139557149Y-81752687D01*
X139523637Y-81772035D01*
X139523636Y-81772036D01*
X139468681Y-81826989D01*
X139468676Y-81826996D01*
X139381769Y-81913902D01*
X139331082Y-81940995D01*
X139326368Y-81941932D01*
X139317360Y-81945664D01*
X139316520Y-81943637D01*
X139270250Y-81956680D01*
X139232373Y-81944373D01*
X139231644Y-81946135D01*
X139222636Y-81942403D01*
X139164300Y-81930800D01*
X139144601Y-81930800D01*
X139144600Y-81930801D01*
X139144600Y-82456800D01*
X139139755Y-82471711D01*
X139139755Y-82487393D01*
X139130538Y-82500078D01*
X139125693Y-82514991D01*
X139113007Y-82524207D01*
X139103791Y-82536893D01*
X139088878Y-82541738D01*
X139076193Y-82550955D01*
X139045600Y-82555800D01*
X139003600Y-82555800D01*
X138945409Y-82536893D01*
X138909445Y-82487393D01*
X138904600Y-82456800D01*
X138904600Y-81930801D01*
X138890308Y-81916509D01*
X138876100Y-81911893D01*
X138840136Y-81862393D01*
X138836286Y-81845801D01*
X138742395Y-81188564D01*
X138741400Y-81174563D01*
X138741400Y-77797286D01*
X139054200Y-77797286D01*
X139054200Y-79601985D01*
X139065803Y-79660321D01*
X139110006Y-79726474D01*
X139110010Y-79726478D01*
X139176163Y-79770681D01*
X139234499Y-79782284D01*
X139234503Y-79782285D01*
X140191199Y-79782285D01*
X140191200Y-79782284D01*
X140191200Y-77797286D01*
X140441200Y-77797286D01*
X140441200Y-79782284D01*
X140441201Y-79782285D01*
X141397897Y-79782285D01*
X141397900Y-79782284D01*
X141456236Y-79770681D01*
X141522389Y-79726478D01*
X141522393Y-79726474D01*
X141566596Y-79660321D01*
X141578199Y-79601985D01*
X141578200Y-79601982D01*
X141578200Y-77797286D01*
X141578199Y-77797285D01*
X140441201Y-77797285D01*
X140441200Y-77797286D01*
X140191200Y-77797286D01*
X140191199Y-77797285D01*
X139054201Y-77797285D01*
X139054200Y-77797286D01*
X138741400Y-77797286D01*
X138741400Y-75742584D01*
X139054200Y-75742584D01*
X139054200Y-77547284D01*
X139054201Y-77547285D01*
X140191199Y-77547285D01*
X140191200Y-77547284D01*
X140191200Y-75562286D01*
X140441200Y-75562286D01*
X140441200Y-77547284D01*
X140441201Y-77547285D01*
X141578199Y-77547285D01*
X141578200Y-77547284D01*
X141578200Y-75742587D01*
X141578199Y-75742584D01*
X141566596Y-75684248D01*
X141522393Y-75618095D01*
X141522389Y-75618091D01*
X141456236Y-75573888D01*
X141397900Y-75562285D01*
X140441201Y-75562285D01*
X140441200Y-75562286D01*
X140191200Y-75562286D01*
X140191199Y-75562285D01*
X139234499Y-75562285D01*
X139176163Y-75573888D01*
X139110010Y-75618091D01*
X139110006Y-75618095D01*
X139065803Y-75684248D01*
X139054200Y-75742584D01*
X138741400Y-75742584D01*
X138741400Y-75477351D01*
X138760307Y-75419160D01*
X138791410Y-75391322D01*
X139353823Y-75071066D01*
X139402811Y-75058096D01*
X141247174Y-75058096D01*
X141305365Y-75077003D01*
G37*
%TD.AperFunction*%
%TD*%
%TA.AperFunction,Conductor*%
%TO.N,+3V3*%
G36*
X147324813Y-79649028D02*
G01*
X147751943Y-81237052D01*
X147752413Y-81286666D01*
X147308942Y-83069300D01*
X147276546Y-83121205D01*
X147219828Y-83144155D01*
X147212870Y-83144400D01*
X146590881Y-83144400D01*
X146532690Y-83125493D01*
X146496726Y-83075993D01*
X146496726Y-83014807D01*
X146508566Y-82990398D01*
X146532996Y-82953836D01*
X146544599Y-82895500D01*
X146544600Y-82895497D01*
X146544600Y-82600801D01*
X146544599Y-82600800D01*
X145244601Y-82600800D01*
X145244600Y-82600801D01*
X145244600Y-82895500D01*
X145256203Y-82953836D01*
X145280634Y-82990398D01*
X145297243Y-83049286D01*
X145276066Y-83106690D01*
X145225192Y-83140683D01*
X145198319Y-83144400D01*
X144397563Y-83144400D01*
X144339372Y-83125493D01*
X144303408Y-83075993D01*
X144303408Y-83014807D01*
X144315248Y-82990398D01*
X144332996Y-82963836D01*
X144344599Y-82905500D01*
X144344600Y-82905497D01*
X144344600Y-82610801D01*
X144344599Y-82610800D01*
X143044601Y-82610800D01*
X143044600Y-82610801D01*
X143044600Y-82905500D01*
X143056203Y-82963836D01*
X143073952Y-82990398D01*
X143090561Y-83049286D01*
X143069384Y-83106690D01*
X143018510Y-83140683D01*
X142991637Y-83144400D01*
X142170881Y-83144400D01*
X142112690Y-83125493D01*
X142076726Y-83075993D01*
X142076726Y-83014807D01*
X142088566Y-82990398D01*
X142112996Y-82953836D01*
X142124599Y-82895500D01*
X142124600Y-82895497D01*
X142124600Y-82600801D01*
X142124599Y-82600800D01*
X140824601Y-82600800D01*
X140824600Y-82600801D01*
X140824600Y-82895500D01*
X140836203Y-82953836D01*
X140836204Y-82953839D01*
X140854209Y-82980784D01*
X140870818Y-83039672D01*
X140849640Y-83097075D01*
X140798767Y-83131068D01*
X140740436Y-83129654D01*
X140731005Y-83126493D01*
X140720231Y-83120273D01*
X140684321Y-83110651D01*
X140681379Y-83109862D01*
X140681377Y-83109862D01*
X140655008Y-83102796D01*
X140604636Y-83089299D01*
X140484964Y-83089299D01*
X140478901Y-83089299D01*
X140478885Y-83089300D01*
X139983600Y-83089300D01*
X139925409Y-83070393D01*
X139889445Y-83020893D01*
X139884600Y-82990300D01*
X139884600Y-82056099D01*
X140824600Y-82056099D01*
X140824600Y-82350799D01*
X140824601Y-82350800D01*
X141349599Y-82350800D01*
X141349600Y-82350799D01*
X141349600Y-81875801D01*
X141599600Y-81875801D01*
X141599600Y-82350799D01*
X141599601Y-82350800D01*
X142124599Y-82350800D01*
X142124600Y-82350799D01*
X142124600Y-82066099D01*
X143044600Y-82066099D01*
X143044600Y-82360799D01*
X143044601Y-82360800D01*
X143569599Y-82360800D01*
X143569600Y-82360799D01*
X143569600Y-81885801D01*
X143819600Y-81885801D01*
X143819600Y-82360799D01*
X143819601Y-82360800D01*
X144344599Y-82360800D01*
X144344600Y-82360799D01*
X144344600Y-82066102D01*
X144344599Y-82066095D01*
X144342611Y-82056099D01*
X145244600Y-82056099D01*
X145244600Y-82350799D01*
X145244601Y-82350800D01*
X145769599Y-82350800D01*
X145769600Y-82350799D01*
X145769600Y-81875801D01*
X146019600Y-81875801D01*
X146019600Y-82350799D01*
X146019601Y-82350800D01*
X146544599Y-82350800D01*
X146544600Y-82350799D01*
X146544600Y-82056102D01*
X146544599Y-82056099D01*
X146532996Y-81997763D01*
X146488793Y-81931610D01*
X146488789Y-81931606D01*
X146422636Y-81887403D01*
X146364300Y-81875800D01*
X146019601Y-81875800D01*
X146019600Y-81875801D01*
X145769600Y-81875801D01*
X145769599Y-81875800D01*
X145424899Y-81875800D01*
X145366563Y-81887403D01*
X145300410Y-81931606D01*
X145300406Y-81931610D01*
X145256203Y-81997763D01*
X145244600Y-82056099D01*
X144342611Y-82056099D01*
X144332996Y-82007763D01*
X144288793Y-81941610D01*
X144288789Y-81941606D01*
X144222636Y-81897403D01*
X144164300Y-81885800D01*
X143819601Y-81885800D01*
X143819600Y-81885801D01*
X143569600Y-81885801D01*
X143569599Y-81885800D01*
X143224899Y-81885800D01*
X143166563Y-81897403D01*
X143100410Y-81941606D01*
X143100406Y-81941610D01*
X143056203Y-82007763D01*
X143044600Y-82066099D01*
X142124600Y-82066099D01*
X142124600Y-82056102D01*
X142124599Y-82056099D01*
X142112996Y-81997763D01*
X142068793Y-81931610D01*
X142068789Y-81931606D01*
X142002636Y-81887403D01*
X141944300Y-81875800D01*
X141599601Y-81875800D01*
X141599600Y-81875801D01*
X141349600Y-81875801D01*
X141349599Y-81875800D01*
X141004899Y-81875800D01*
X140946563Y-81887403D01*
X140880410Y-81931606D01*
X140880406Y-81931610D01*
X140836203Y-81997763D01*
X140824600Y-82056099D01*
X139884600Y-82056099D01*
X139884600Y-82015312D01*
X139903507Y-81957121D01*
X139933370Y-81930001D01*
X143821600Y-79640800D01*
X147321822Y-79640800D01*
X147324813Y-79649028D01*
G37*
%TD.AperFunction*%
%TD*%
%TA.AperFunction,Conductor*%
%TO.N,+3V3*%
G36*
X145386791Y-76581707D02*
G01*
X145422755Y-76631207D01*
X145427600Y-76661800D01*
X145427600Y-77487798D01*
X145427601Y-77487799D01*
X145694303Y-77487799D01*
X145724700Y-77484949D01*
X145724702Y-77484949D01*
X145852747Y-77440145D01*
X145961890Y-77359592D01*
X145961892Y-77359590D01*
X146042445Y-77250446D01*
X146046983Y-77237478D01*
X146084047Y-77188797D01*
X146142647Y-77171199D01*
X146200399Y-77191406D01*
X146231666Y-77231748D01*
X146496598Y-77860796D01*
X147319013Y-79633070D01*
X147321823Y-79640800D01*
X143821600Y-79640800D01*
X144481201Y-77404435D01*
X144515796Y-77353974D01*
X144573448Y-77333483D01*
X144632134Y-77350792D01*
X144638099Y-77355747D01*
X144752452Y-77440145D01*
X144880498Y-77484949D01*
X144910889Y-77487799D01*
X145177598Y-77487799D01*
X145177600Y-77487798D01*
X145177600Y-76661800D01*
X145182445Y-76646888D01*
X145182445Y-76631207D01*
X145191661Y-76618521D01*
X145196507Y-76603609D01*
X145209192Y-76594392D01*
X145218409Y-76581707D01*
X145233321Y-76576861D01*
X145246007Y-76567645D01*
X145276600Y-76562800D01*
X145328600Y-76562800D01*
X145386791Y-76581707D01*
G37*
%TD.AperFunction*%
%TD*%
M02*
