M48
; DRILL file {KiCad 9.0.1} date 2025-06-13T19:07:19+0200
; FORMAT={-:-/ absolute / metric / decimal}
; #@! TF.CreationDate,2025-06-13T19:07:19+02:00
; #@! TF.GenerationSoftware,Kicad,Pcbnew,9.0.1
; #@! TF.FileFunction,Plated,1,4,PTH
FMAT,2
METRIC
; #@! TA.AperFunction,Plated,PTH,ViaDrill
T1C0.400
; #@! TA.AperFunction,Plated,PTH,ComponentDrill
T2C0.400
; #@! TA.AperFunction,Plated,PTH,ComponentDrill
T3C0.600
; #@! TA.AperFunction,Plated,PTH,ComponentDrill
T4C0.900
; #@! TA.AperFunction,Plated,PTH,ComponentDrill
T5C1.000
; #@! TA.AperFunction,Plated,PTH,ComponentDrill
T6C1.020
; #@! TA.AperFunction,Plated,PTH,ComponentDrill
T7C1.100
; #@! TA.AperFunction,Plated,PTH,ComponentDrill
T8C2.050
%
G90
G05
T1
X87.782Y-102.235
X88.65Y-136.195
X88.824Y-120.599
X88.849Y-117.348
X88.875Y-123.698
X88.907Y-86.538
X89.916Y-99.873
X93.777Y-134.722
X94.412Y-77.649
X94.717Y-119.275
X94.717Y-121.942
X96.047Y-117.665
X96.799Y-102.921
X97.01Y-123.51
X97.384Y-141.351
X97.739Y-129.794
X99.052Y-134.468
X99.466Y-121.068
X99.974Y-102.972
X100.686Y-119.547
X101.422Y-111.684
X102.646Y-71.992
X103.124Y-101.854
X103.607Y-116.865
X104.386Y-129.261
X104.394Y-137.135
X104.902Y-116.652
X104.927Y-147.752
X104.97Y-142.951
X105.883Y-97.358
X110.185Y-79.502
X111.76Y-79.502
X111.929Y-73.041
X113.4Y-79.477
X113.944Y-73.3
X114.275Y-86.614
X115.291Y-74.54
X115.341Y-72.038
X115.35Y-76.81
X116.51Y-116.434
X118.26Y-135.636
X118.89Y-69.5
X119.024Y-152.468
X119.875Y-134.163
X119.913Y-144.213
X120.04Y-68.199
X120.676Y-61.878
X121.056Y-135.399
X121.3Y-103.93
X121.501Y-100.55
X121.666Y-115.062
X121.717Y-111.1
X123.326Y-132.927
X124.168Y-127.444
X124.962Y-77.118
X125.36Y-104.24
X125.527Y-133.773
X127.356Y-122.072
X127.66Y-136.144
X128.39Y-79.64
X128.517Y-105.098
X129.622Y-106.405
X130.205Y-133.502
X131.064Y-105.109
X131.316Y-62.841
X131.354Y-87.238
X131.724Y-152.519
X132.182Y-145.102
X132.41Y-65.688
X132.53Y-78.418
X132.613Y-76.276
X133.62Y-79.67
X134.214Y-104.902
X136.804Y-99.263
X136.804Y-104.445
X136.855Y-110.693
X136.982Y-61.878
X137.008Y-63.14
X137.008Y-77.114
X137.033Y-66.96
X137.262Y-70.768
X138.108Y-75.848
X138.239Y-73.292
X138.989Y-69.51
X139.827Y-114.656
X140.818Y-95.127
X141.122Y-80.467
X142.621Y-92.456
X146.329Y-72.034
X146.431Y-68.961
X150.266Y-92.456
X152.781Y-123.393
X153.111Y-134.163
X154.61Y-127.076
X155.092Y-134.315
X156.464Y-128.346
X156.896Y-134.188
X160.122Y-108.763
X161.595Y-111.15
X163.83Y-128.219
X164.186Y-134.137
X164.676Y-112.504
X165.125Y-126.949
X166.294Y-134.366
X167.742Y-84.582
X168.148Y-112.649
X168.199Y-134.137
X171.399Y-104.643
T2
X122.45Y-69.04
X122.47Y-65.344
X122.47Y-70.87
X122.471Y-67.198
X124.36Y-67.2
X124.36Y-69.04
X124.36Y-70.9
X124.374Y-65.345
X126.19Y-65.36
X126.2Y-67.21
X126.2Y-69.04
X126.2Y-70.91
X128.09Y-65.344
X128.1Y-67.198
X128.108Y-69.026
X128.11Y-70.9
T4
X92.33Y-107.79
X92.33Y-109.79
T5
X114.3Y-134.772
X114.3Y-137.312
X137.16Y-134.772
X137.16Y-137.312
T6
X114.3Y-142.469
X114.3Y-145.009
X114.3Y-147.549
X114.3Y-150.089
X114.3Y-152.629
X114.3Y-155.169
X121.92Y-122.123
X121.92Y-124.663
X121.92Y-127.203
X129.54Y-122.123
X129.54Y-124.663
X129.54Y-127.203
X137.16Y-142.469
X137.16Y-145.009
X137.16Y-147.549
X137.16Y-150.089
X137.16Y-152.629
X137.16Y-155.169
X152.502Y-87.12
X155.042Y-87.121
X157.582Y-87.122
X160.122Y-87.123
X162.662Y-87.124
X165.202Y-87.125
X167.742Y-87.126
T7
X94.47Y-91.27
X94.47Y-94.27
X94.47Y-97.27
X114.3Y-122.098
X114.3Y-124.638
X114.3Y-127.178
X114.3Y-129.718
X137.16Y-122.072
X137.16Y-124.612
X137.16Y-127.152
X137.16Y-129.692
T8
X152.502Y-105.643
X167.736Y-105.643
T3
G00X93.77Y-88.47
M15
G01X95.17Y-88.47
M16
G05
G00X93.77Y-100.07
M15
G01X95.17Y-100.07
M16
G05
M30
