M48
; DRILL file {KiCad 9.0.1} date 2025-06-17T08:09:04+0200
; FORMAT={-:-/ absolute / metric / decimal}
; #@! TF.CreationDate,2025-06-17T08:09:04+02:00
; #@! TF.GenerationSoftware,Kicad,Pcbnew,9.0.1
; #@! TF.FileFunction,Plated,1,4,PTH
FMAT,2
METRIC
; #@! TA.AperFunction,Plated,PTH,ViaDrill
T1C0.400
; #@! TA.AperFunction,Plated,PTH,ComponentDrill
T2C0.400
; #@! TA.AperFunction,Plated,PTH,ComponentDrill
T3C0.600
; #@! TA.AperFunction,Plated,PTH,ComponentDrill
T4C0.900
; #@! TA.AperFunction,Plated,PTH,ComponentDrill
T5C1.000
; #@! TA.AperFunction,Plated,PTH,ComponentDrill
T6C1.020
; #@! TA.AperFunction,Plated,PTH,ComponentDrill
T7C1.100
; #@! TA.AperFunction,Plated,PTH,ComponentDrill
T8C2.050
%
G90
G05
T1
X97.187Y-83.671
X98.055Y-117.631
X98.228Y-102.035
X98.254Y-98.784
X98.279Y-105.134
X98.311Y-67.974
X99.321Y-81.309
X103.181Y-116.157
X103.816Y-59.085
X104.121Y-100.711
X104.121Y-103.378
X104.662Y-124.108
X105.451Y-99.101
X106.204Y-84.357
X106.415Y-104.946
X106.788Y-122.787
X107.144Y-111.23
X108.456Y-115.903
X108.871Y-102.504
X109.379Y-84.407
X110.09Y-100.983
X110.827Y-93.12
X112.051Y-53.428
X112.529Y-83.29
X113.011Y-98.301
X113.79Y-110.696
X113.799Y-118.57
X114.307Y-98.088
X114.375Y-124.387
X115.288Y-78.794
X119.59Y-60.938
X120.555Y-97.996
X121.165Y-60.938
X121.333Y-54.477
X122.206Y-94.491
X122.536Y-68.05
X122.805Y-60.912
X123.349Y-54.736
X124.695Y-55.976
X124.721Y-50.905
X124.746Y-53.474
X124.797Y-61.09
X128.48Y-43.314
X128.81Y-90.681
X128.83Y-117.072
X129.445Y-55.705
X129.466Y-133.776
X129.547Y-109.63
X130.445Y-115.599
X130.483Y-125.649
X130.69Y-43.056
X130.705Y-85.366
X130.906Y-81.986
X131.166Y-57.023
X131.396Y-58.748
X131.502Y-63.833
X131.626Y-116.835
X132.468Y-105.82
X132.925Y-72.368
X133.357Y-43.209
X134.395Y-113.863
X134.627Y-96.879
X134.677Y-92.535
X134.765Y-85.676
X137.265Y-114.71
X137.922Y-86.534
X138.221Y-108.88
X138.23Y-117.58
X139.027Y-87.841
X140.469Y-86.545
X140.759Y-68.674
X140.775Y-114.938
X141.408Y-107.699
X141.648Y-45.204
X141.79Y-47.124
X142.018Y-57.712
X142.294Y-133.954
X142.752Y-126.538
X143.025Y-61.106
X143.618Y-86.338
X146.209Y-80.699
X146.209Y-85.881
X146.412Y-58.55
X146.438Y-48.396
X147.047Y-56.112
X147.708Y-46.892
X147.835Y-44.733
X148.393Y-50.946
X148.711Y-93.361
X148.774Y-76.563
X149.028Y-56.112
X149.359Y-61.954
X150.121Y-65.815
X151.467Y-94.466
X154.413Y-48.974
X154.439Y-52.175
X162.516Y-115.599
X163.76Y-104.321
X164.014Y-108.512
X164.497Y-115.751
X165.869Y-109.782
X166.3Y-115.624
X167.469Y-83.214
X169.526Y-90.199
X170.999Y-92.586
X172.314Y-110.211
X173.59Y-115.573
X174.08Y-93.94
X174.53Y-108.385
X177.146Y-66.018
X177.343Y-115.646
X177.825Y-94.158
X178.308Y-105.029
X178.46Y-114.529
X180.74Y-84.191
T2
X131.855Y-50.476
X131.875Y-46.78
X131.875Y-52.306
X131.875Y-48.633
X133.765Y-48.636
X133.765Y-50.476
X133.765Y-52.336
X133.779Y-46.781
X135.595Y-46.796
X135.605Y-48.646
X135.605Y-50.476
X135.605Y-52.346
X137.495Y-46.78
X137.505Y-48.633
X137.513Y-50.462
X137.515Y-52.336
T4
X101.735Y-89.226
X101.735Y-91.226
T5
X105.334Y-133.836
X107.874Y-133.836
X180.95Y-48.26
X180.95Y-50.8
T6
X111.684Y-133.836
X114.224Y-133.836
X116.764Y-133.836
X119.304Y-133.836
X121.844Y-133.836
X124.384Y-133.836
X135.973Y-103.559
X135.973Y-106.099
X135.973Y-108.639
X143.593Y-103.559
X143.593Y-106.099
X143.593Y-108.639
X147.32Y-133.836
X149.86Y-133.836
X152.4Y-133.836
X154.94Y-133.836
X157.48Y-133.836
X160.02Y-133.836
X161.906Y-68.556
X164.446Y-68.557
X166.986Y-68.558
X169.526Y-68.559
X172.066Y-68.56
X174.606Y-68.561
X177.146Y-68.562
T7
X103.875Y-72.706
X103.875Y-75.706
X103.875Y-78.706
T8
X161.906Y-87.079
X177.14Y-87.079
T3
G00X103.175Y-69.906
M15
G01X104.575Y-69.906
M16
G05
G00X103.175Y-81.506
M15
G01X104.575Y-81.506
M16
G05
M30
