%TF.GenerationSoftware,KiCad,Pcbnew,9.0.1*%
%TF.CreationDate,2025-06-09T11:05:10+02:00*%
%TF.ProjectId,MY-ESP32,4d592d45-5350-4333-922e-6b696361645f,rev?*%
%TF.SameCoordinates,Original*%
%TF.FileFunction,Copper,L1,Top*%
%TF.FilePolarity,Positive*%
%FSLAX46Y46*%
G04 Gerber Fmt 4.6, Leading zero omitted, Abs format (unit mm)*
G04 Created by KiCad (PCBNEW 9.0.1) date 2025-06-09 11:05:10*
%MOMM*%
%LPD*%
G01*
G04 APERTURE LIST*
G04 Aperture macros list*
%AMRoundRect*
0 Rectangle with rounded corners*
0 $1 Rounding radius*
0 $2 $3 $4 $5 $6 $7 $8 $9 X,Y pos of 4 corners*
0 Add a 4 corners polygon primitive as box body*
4,1,4,$2,$3,$4,$5,$6,$7,$8,$9,$2,$3,0*
0 Add four circle primitives for the rounded corners*
1,1,$1+$1,$2,$3*
1,1,$1+$1,$4,$5*
1,1,$1+$1,$6,$7*
1,1,$1+$1,$8,$9*
0 Add four rect primitives between the rounded corners*
20,1,$1+$1,$2,$3,$4,$5,0*
20,1,$1+$1,$4,$5,$6,$7,0*
20,1,$1+$1,$6,$7,$8,$9,0*
20,1,$1+$1,$8,$9,$2,$3,0*%
%AMFreePoly0*
4,1,21,-0.180000,0.885000,0.180000,0.885000,0.180000,1.715000,0.470000,1.715000,0.470000,0.885000,0.760000,0.885000,0.760000,-0.885000,0.470000,-0.885000,0.470000,-1.705000,0.180000,-1.705000,0.180000,-0.885000,-0.180000,-0.885000,-0.180000,-1.705000,-0.470000,-1.705000,-0.470000,-0.885000,-0.760000,-0.885000,-0.760000,0.895000,-0.470000,0.895000,-0.470000,1.715000,-0.180000,1.715000,
-0.180000,0.885000,-0.180000,0.885000,$1*%
G04 Aperture macros list end*
%TA.AperFunction,SMDPad,CuDef*%
%ADD10R,1.207500X1.701000*%
%TD*%
%TA.AperFunction,SMDPad,CuDef*%
%ADD11R,1.250000X0.700000*%
%TD*%
%TA.AperFunction,SMDPad,CuDef*%
%ADD12R,2.300000X1.400000*%
%TD*%
%TA.AperFunction,SMDPad,CuDef*%
%ADD13RoundRect,0.125000X0.125000X-0.125000X0.125000X0.125000X-0.125000X0.125000X-0.125000X-0.125000X0*%
%TD*%
%TA.AperFunction,SMDPad,CuDef*%
%ADD14R,0.790000X0.540000*%
%TD*%
%TA.AperFunction,SMDPad,CuDef*%
%ADD15RoundRect,0.250000X-0.475000X0.337500X-0.475000X-0.337500X0.475000X-0.337500X0.475000X0.337500X0*%
%TD*%
%TA.AperFunction,ComponentPad*%
%ADD16O,0.500000X0.500000*%
%TD*%
%TA.AperFunction,ComponentPad*%
%ADD17R,1.800000X1.800000*%
%TD*%
%TA.AperFunction,ComponentPad*%
%ADD18C,1.600000*%
%TD*%
%TA.AperFunction,SMDPad,CuDef*%
%ADD19R,0.800000X0.800000*%
%TD*%
%TA.AperFunction,SMDPad,CuDef*%
%ADD20RoundRect,0.250000X-0.450000X0.350000X-0.450000X-0.350000X0.450000X-0.350000X0.450000X0.350000X0*%
%TD*%
%TA.AperFunction,ComponentPad*%
%ADD21R,1.700000X1.700000*%
%TD*%
%TA.AperFunction,ComponentPad*%
%ADD22C,1.700000*%
%TD*%
%TA.AperFunction,SMDPad,CuDef*%
%ADD23R,0.700000X1.250000*%
%TD*%
%TA.AperFunction,SMDPad,CuDef*%
%ADD24C,1.000000*%
%TD*%
%TA.AperFunction,SMDPad,CuDef*%
%ADD25RoundRect,0.250000X0.450000X-0.350000X0.450000X0.350000X-0.450000X0.350000X-0.450000X-0.350000X0*%
%TD*%
%TA.AperFunction,SMDPad,CuDef*%
%ADD26RoundRect,0.062500X-0.337500X-0.062500X0.337500X-0.062500X0.337500X0.062500X-0.337500X0.062500X0*%
%TD*%
%TA.AperFunction,SMDPad,CuDef*%
%ADD27RoundRect,0.062500X-0.062500X-0.337500X0.062500X-0.337500X0.062500X0.337500X-0.062500X0.337500X0*%
%TD*%
%TA.AperFunction,HeatsinkPad*%
%ADD28R,3.350000X3.350000*%
%TD*%
%TA.AperFunction,SMDPad,CuDef*%
%ADD29R,0.540000X0.565500*%
%TD*%
%TA.AperFunction,SMDPad,CuDef*%
%ADD30R,1.410000X1.350000*%
%TD*%
%TA.AperFunction,SMDPad,CuDef*%
%ADD31RoundRect,0.150000X0.150000X-0.512500X0.150000X0.512500X-0.150000X0.512500X-0.150000X-0.512500X0*%
%TD*%
%TA.AperFunction,SMDPad,CuDef*%
%ADD32O,0.280000X0.800000*%
%TD*%
%TA.AperFunction,SMDPad,CuDef*%
%ADD33O,0.800000X0.280000*%
%TD*%
%TA.AperFunction,SMDPad,CuDef*%
%ADD34R,1.500000X1.500000*%
%TD*%
%TA.AperFunction,SMDPad,CuDef*%
%ADD35R,0.900000X0.800000*%
%TD*%
%TA.AperFunction,SMDPad,CuDef*%
%ADD36R,2.124000X3.820000*%
%TD*%
%TA.AperFunction,SMDPad,CuDef*%
%ADD37R,2.000000X0.900000*%
%TD*%
%TA.AperFunction,SMDPad,CuDef*%
%ADD38R,1.330000X1.330000*%
%TD*%
%TA.AperFunction,SMDPad,CuDef*%
%ADD39RoundRect,0.250000X-0.337500X-0.475000X0.337500X-0.475000X0.337500X0.475000X-0.337500X0.475000X0*%
%TD*%
%TA.AperFunction,SMDPad,CuDef*%
%ADD40R,1.600000X0.700000*%
%TD*%
%TA.AperFunction,SMDPad,CuDef*%
%ADD41R,1.500000X1.200000*%
%TD*%
%TA.AperFunction,SMDPad,CuDef*%
%ADD42R,2.200000X1.200000*%
%TD*%
%TA.AperFunction,SMDPad,CuDef*%
%ADD43R,1.500000X1.600000*%
%TD*%
%TA.AperFunction,SMDPad,CuDef*%
%ADD44R,3.900000X1.450000*%
%TD*%
%TA.AperFunction,ComponentPad*%
%ADD45R,1.575000X1.575000*%
%TD*%
%TA.AperFunction,ComponentPad*%
%ADD46C,1.575000*%
%TD*%
%TA.AperFunction,SMDPad,CuDef*%
%ADD47R,0.240000X0.850000*%
%TD*%
%TA.AperFunction,SMDPad,CuDef*%
%ADD48R,0.230000X0.800000*%
%TD*%
%TA.AperFunction,SMDPad,CuDef*%
%ADD49FreePoly0,270.000000*%
%TD*%
%TA.AperFunction,SMDPad,CuDef*%
%ADD50RoundRect,0.125000X-0.125000X0.125000X-0.125000X-0.125000X0.125000X-0.125000X0.125000X0.125000X0*%
%TD*%
%TA.AperFunction,SMDPad,CuDef*%
%ADD51R,1.350000X1.410000*%
%TD*%
%TA.AperFunction,ComponentPad*%
%ADD52O,2.100000X1.100000*%
%TD*%
%TA.AperFunction,ComponentPad*%
%ADD53O,1.800000X1.200000*%
%TD*%
%TA.AperFunction,SMDPad,CuDef*%
%ADD54R,1.300000X0.600000*%
%TD*%
%TA.AperFunction,SMDPad,CuDef*%
%ADD55R,1.300000X0.300000*%
%TD*%
%TA.AperFunction,SMDPad,CuDef*%
%ADD56RoundRect,0.250000X0.475000X-0.337500X0.475000X0.337500X-0.475000X0.337500X-0.475000X-0.337500X0*%
%TD*%
%TA.AperFunction,SMDPad,CuDef*%
%ADD57RoundRect,0.125000X0.125000X0.125000X-0.125000X0.125000X-0.125000X-0.125000X0.125000X-0.125000X0*%
%TD*%
%TA.AperFunction,SMDPad,CuDef*%
%ADD58RoundRect,0.250000X-0.350000X-0.450000X0.350000X-0.450000X0.350000X0.450000X-0.350000X0.450000X0*%
%TD*%
%TA.AperFunction,SMDPad,CuDef*%
%ADD59R,1.070000X0.600000*%
%TD*%
%TA.AperFunction,SMDPad,CuDef*%
%ADD60R,0.565500X0.540000*%
%TD*%
%TA.AperFunction,ComponentPad*%
%ADD61C,2.200000*%
%TD*%
%TA.AperFunction,ViaPad*%
%ADD62C,0.800000*%
%TD*%
%TA.AperFunction,Conductor*%
%ADD63C,0.254000*%
%TD*%
%TA.AperFunction,Conductor*%
%ADD64C,0.508000*%
%TD*%
%TA.AperFunction,Conductor*%
%ADD65C,0.355600*%
%TD*%
%TA.AperFunction,Conductor*%
%ADD66C,0.250000*%
%TD*%
%TA.AperFunction,Conductor*%
%ADD67C,0.406400*%
%TD*%
G04 APERTURE END LIST*
D10*
%TO.P,R12,1,1*%
%TO.N,Net-(LED1-A)*%
X35707150Y-69987400D03*
%TO.P,R12,2,2*%
%TO.N,EXT_5V*%
X38665150Y-69987400D03*
%TD*%
D11*
%TO.P,Q1,1,E*%
%TO.N,RTS*%
X49907100Y-82466000D03*
%TO.P,Q1,2,B*%
%TO.N,Net-(Q1-B)*%
X49907100Y-80566000D03*
%TO.P,Q1,3,C*%
%TO.N,ENA*%
X52406100Y-81516000D03*
%TD*%
D12*
%TO.P,SW1,1,1*%
%TO.N,IO0*%
X61426000Y-88821000D03*
%TO.P,SW1,2,2*%
X70712000Y-88821000D03*
%TO.P,SW1,3,3*%
%TO.N,GND*%
X70712000Y-93321000D03*
%TO.P,SW1,4,4*%
X61426000Y-93321000D03*
%TD*%
D13*
%TO.P,D1,1,K*%
%TO.N,EXT_5V*%
X34400400Y-94957900D03*
%TO.P,D1,2,A*%
%TO.N,VBUS*%
X34400400Y-92757900D03*
%TD*%
D14*
%TO.P,R24,1,1*%
%TO.N,Net-(CARD1-DAT2)*%
X101051000Y-39721000D03*
%TO.P,R24,2,2*%
%TO.N,+3V3*%
X99961000Y-39721000D03*
%TD*%
%TO.P,C12,1,1*%
%TO.N,Net-(U7-SW)*%
X42985600Y-66367400D03*
%TO.P,C12,2,2*%
%TO.N,Net-(U7-BOOST)*%
X41895600Y-66367400D03*
%TD*%
%TO.P,C13,1,1*%
%TO.N,Net-(U7-INTVcc)*%
X38901150Y-65618600D03*
%TO.P,C13,2,2*%
%TO.N,GND*%
X37811150Y-65618600D03*
%TD*%
D15*
%TO.P,C1,1*%
%TO.N,IO0*%
X74126000Y-90048000D03*
%TO.P,C1,2*%
%TO.N,GND*%
X74126000Y-92123000D03*
%TD*%
D16*
%TO.P,,PTH13,GND*%
%TO.N,GND*%
X39746000Y-62361000D03*
%TD*%
D15*
%TO.P,C9,1*%
%TO.N,+3V3*%
X39531200Y-92769600D03*
%TO.P,C9,2*%
%TO.N,GND*%
X39531200Y-94844600D03*
%TD*%
D16*
%TO.P,,PTH15,GND*%
%TO.N,GND*%
X61486000Y-33601000D03*
%TD*%
%TO.P,,PTH4,GND*%
%TO.N,GND*%
X63366000Y-28011000D03*
%TD*%
D17*
%TO.P,H5,1,1*%
%TO.N,D5*%
X107120600Y-34846000D03*
D18*
%TO.P,H5,2,2*%
%TO.N,D18*%
X109660600Y-34846000D03*
%TO.P,H5,3,3*%
%TO.N,D19*%
X112200600Y-34846000D03*
%TO.P,H5,4,4*%
%TO.N,D21*%
X114740600Y-34846000D03*
%TO.P,H5,5,5*%
%TO.N,D22*%
X117280600Y-34846000D03*
%TO.P,H5,6,6*%
%TO.N,D23*%
X119820600Y-34846000D03*
%TD*%
D16*
%TO.P,,PTH13,GND*%
%TO.N,GND*%
X39746000Y-63294000D03*
%TD*%
%TO.P,,PTH8,GND*%
%TO.N,GND*%
X63366000Y-29893000D03*
%TD*%
D19*
%TO.P,LED2,1,K*%
%TO.N,Net-(LED2-K)*%
X31577500Y-64450300D03*
%TO.P,LED2,2,A*%
%TO.N,Net-(LED2-A)*%
X31584500Y-66049300D03*
%TD*%
D20*
%TO.P,R17,1*%
%TO.N,D34*%
X40267800Y-35116000D03*
%TO.P,R17,2*%
%TO.N,Net-(Q4-D)*%
X40267800Y-37116000D03*
%TD*%
D15*
%TO.P,C16,1*%
%TO.N,/Buck-Boost3.3V/Buck-Boost_INPUT*%
X58987600Y-63374100D03*
%TO.P,C16,2*%
%TO.N,GND*%
X58987600Y-65449100D03*
%TD*%
D21*
%TO.P,H4,1,1*%
%TO.N,+3V3*%
X86826000Y-57714600D03*
D22*
%TO.P,H4,2,2*%
%TO.N,D14*%
X89366000Y-57714600D03*
%TO.P,H4,3,3*%
%TO.N,D27*%
X91906000Y-57714600D03*
%TO.P,H4,4,4*%
%TO.N,D26*%
X94446000Y-57714600D03*
%TD*%
D12*
%TO.P,SW2,1,1*%
%TO.N,ENA*%
X70712000Y-83106000D03*
%TO.P,SW2,2,2*%
X61426000Y-83106000D03*
%TO.P,SW2,3,3*%
%TO.N,GND*%
X61426000Y-78606000D03*
%TO.P,SW2,4,4*%
X70712000Y-78606000D03*
%TD*%
D16*
%TO.P,,PTH5,GND*%
%TO.N,GND*%
X57768400Y-29893000D03*
%TD*%
D23*
%TO.P,U11,1,GND*%
%TO.N,GND*%
X44753850Y-57741800D03*
%TO.P,U11,2,RESET#*%
%TO.N,/Buck-Boost3.3V/Buck-Boost_EN*%
X46653850Y-57741800D03*
%TO.P,U11,3,VDD*%
%TO.N,/Battery_Charger_LiFePO4_3.6V/Battery_Charger_OUTPUT*%
X45703850Y-55741800D03*
%TD*%
D24*
%TO.P,TP1,1,1*%
%TO.N,GND*%
X60664000Y-51864000D03*
%TD*%
D16*
%TO.P,,PTH13,GND*%
%TO.N,GND*%
X57768400Y-33601400D03*
%TD*%
D20*
%TO.P,R4,1*%
%TO.N,Net-(U3-VBUS)*%
X44814400Y-92791100D03*
%TO.P,R4,2*%
%TO.N,GND*%
X44814400Y-94791100D03*
%TD*%
D25*
%TO.P,R5,1*%
%TO.N,Net-(R5-Pad1)*%
X50148400Y-94791100D03*
%TO.P,R5,2*%
%TO.N,+3V3*%
X50148400Y-92791100D03*
%TD*%
D19*
%TO.P,LED1,1,K*%
%TO.N,Net-(LED1-K)*%
X33990500Y-64467100D03*
%TO.P,LED1,2,A*%
%TO.N,Net-(LED1-A)*%
X33997500Y-66066100D03*
%TD*%
D25*
%TO.P,R9,1*%
%TO.N,RTS*%
X47671900Y-82450000D03*
%TO.P,R9,2*%
%TO.N,Net-(Q2-B)*%
X47671900Y-80450000D03*
%TD*%
D15*
%TO.P,C19,1*%
%TO.N,D34*%
X48675200Y-29672200D03*
%TO.P,C19,2*%
%TO.N,GND*%
X48675200Y-31747200D03*
%TD*%
D21*
%TO.P,H8,1,1*%
%TO.N,+3V3*%
X99475200Y-34846000D03*
D22*
%TO.P,H8,2,2*%
%TO.N,GND*%
X102015200Y-34846000D03*
%TD*%
D26*
%TO.P,U3,1,~{DCD}*%
%TO.N,unconnected-(U3-~{DCD}-Pad1)*%
X41196000Y-86208700D03*
%TO.P,U3,2,~{RI}/CLK*%
%TO.N,unconnected-(U3-~{RI}{slash}CLK-Pad2)*%
X41196000Y-86708700D03*
%TO.P,U3,3,GND*%
%TO.N,GND*%
X41196000Y-87208700D03*
%TO.P,U3,4,D+*%
%TO.N,D+*%
X41196000Y-87708700D03*
%TO.P,U3,5,D-*%
%TO.N,D-*%
X41196000Y-88208700D03*
%TO.P,U3,6,VDD*%
%TO.N,+3V3*%
X41196000Y-88708700D03*
%TO.P,U3,7,VREGIN*%
X41196000Y-89208700D03*
D27*
%TO.P,U3,8,VBUS*%
%TO.N,Net-(U3-VBUS)*%
X42146000Y-90158700D03*
%TO.P,U3,9,~{RST}*%
%TO.N,Net-(U3-~{RST})*%
X42646000Y-90158700D03*
%TO.P,U3,10,NC*%
%TO.N,unconnected-(U3-NC-Pad10)*%
X43146000Y-90158700D03*
%TO.P,U3,11,~{SUSPEND}*%
%TO.N,Net-(U3-~{SUSPEND})*%
X43646000Y-90158700D03*
%TO.P,U3,12,SUSPEND*%
%TO.N,unconnected-(U3-SUSPEND-Pad12)*%
X44146000Y-90158700D03*
%TO.P,U3,13,CHREN*%
%TO.N,unconnected-(U3-CHREN-Pad13)*%
X44646000Y-90158700D03*
%TO.P,U3,14,CHR1*%
%TO.N,unconnected-(U3-CHR1-Pad14)*%
X45146000Y-90158700D03*
D26*
%TO.P,U3,15,CHR0*%
%TO.N,unconnected-(U3-CHR0-Pad15)*%
X46096000Y-89208700D03*
%TO.P,U3,16,~{WAKEUP}/GPIO.3*%
%TO.N,unconnected-(U3-~{WAKEUP}{slash}GPIO.3-Pad16)*%
X46096000Y-88708700D03*
%TO.P,U3,17,RS485/GPIO.2*%
%TO.N,unconnected-(U3-RS485{slash}GPIO.2-Pad17)*%
X46096000Y-88208700D03*
%TO.P,U3,18,~{RXT}/GPIO.1*%
%TO.N,unconnected-(U3-~{RXT}{slash}GPIO.1-Pad18)*%
X46096000Y-87708700D03*
%TO.P,U3,19,~{TXT}/GPIO.0*%
%TO.N,unconnected-(U3-~{TXT}{slash}GPIO.0-Pad19)*%
X46096000Y-87208700D03*
%TO.P,U3,20,GPIO.6*%
%TO.N,unconnected-(U3-GPIO.6-Pad20)*%
X46096000Y-86708700D03*
%TO.P,U3,21,GPIO.5*%
%TO.N,unconnected-(U3-GPIO.5-Pad21)*%
X46096000Y-86208700D03*
D27*
%TO.P,U3,22,GPIO.4*%
%TO.N,unconnected-(U3-GPIO.4-Pad22)*%
X45146000Y-85258700D03*
%TO.P,U3,23,~{CTS}*%
%TO.N,unconnected-(U3-~{CTS}-Pad23)*%
X44646000Y-85258700D03*
%TO.P,U3,24,~{RTS}*%
%TO.N,RTS*%
X44146000Y-85258700D03*
%TO.P,U3,25,RXD*%
%TO.N,TXD0*%
X43646000Y-85258700D03*
%TO.P,U3,26,TXD*%
%TO.N,RXD0*%
X43146000Y-85258700D03*
%TO.P,U3,27,~{DSR}*%
%TO.N,unconnected-(U3-~{DSR}-Pad27)*%
X42646000Y-85258700D03*
%TO.P,U3,28,~{DTR}*%
%TO.N,DTR*%
X42146000Y-85258700D03*
D28*
%TO.P,U3,29,GND*%
%TO.N,GND*%
X43646000Y-87708700D03*
%TD*%
D25*
%TO.P,R18,1*%
%TO.N,GND*%
X45576400Y-31696400D03*
%TO.P,R18,2*%
%TO.N,D34*%
X45576400Y-29696400D03*
%TD*%
D14*
%TO.P,R23,1,1*%
%TO.N,D2*%
X103881000Y-51025800D03*
%TO.P,R23,2,2*%
%TO.N,+3V3*%
X102791000Y-51025800D03*
%TD*%
D11*
%TO.P,Q2,1,E*%
%TO.N,DTR*%
X42947500Y-80398400D03*
%TO.P,Q2,2,B*%
%TO.N,Net-(Q2-B)*%
X42947500Y-82298400D03*
%TO.P,Q2,3,C*%
%TO.N,IO0*%
X40448500Y-81348400D03*
%TD*%
D29*
%TO.P,R11,1,1*%
%TO.N,GND*%
X37496750Y-59723400D03*
%TO.P,R11,2,2*%
%TO.N,Net-(U7-PROG)*%
X37496750Y-60589400D03*
%TD*%
D15*
%TO.P,C5,1*%
%TO.N,VBUS*%
X36889600Y-92765700D03*
%TO.P,C5,2*%
%TO.N,GND*%
X36889600Y-94840700D03*
%TD*%
D17*
%TO.P,H6,1,1*%
%TO.N,GND*%
X107146000Y-57706000D03*
D18*
%TO.P,H6,2,2*%
%TO.N,D33*%
X109686000Y-57706000D03*
%TO.P,H6,3,3*%
%TO.N,D32*%
X112226000Y-57706000D03*
%TO.P,H6,4,4*%
%TO.N,D35*%
X114766000Y-57706000D03*
%TO.P,H6,5,5*%
%TO.N,GND*%
X117306000Y-57706000D03*
%TO.P,H6,6,6*%
X119846000Y-57706000D03*
%TD*%
D30*
%TO.P,C11,1,1*%
%TO.N,GND*%
X43001950Y-69022200D03*
%TO.P,C11,2,2*%
%TO.N,EXT_5V*%
X41001950Y-69022200D03*
%TD*%
D16*
%TO.P,,PTH1,GND*%
%TO.N,GND*%
X57766000Y-28011000D03*
%TD*%
D31*
%TO.P,U1,1,I/O1*%
%TO.N,DN*%
X35076000Y-88436700D03*
%TO.P,U1,2,GND*%
%TO.N,GND*%
X36026000Y-88436700D03*
%TO.P,U1,3,I/O2*%
%TO.N,DP*%
X36976000Y-88436700D03*
%TO.P,U1,4,I/O2*%
%TO.N,D+*%
X36976000Y-86161700D03*
%TO.P,U1,5,VBUS*%
%TO.N,VBUS*%
X36026000Y-86161700D03*
%TO.P,U1,6,I/O1*%
%TO.N,D-*%
X35076000Y-86161700D03*
%TD*%
D32*
%TO.P,U7,1,INTVcc*%
%TO.N,Net-(U7-INTVcc)*%
X39463150Y-64328600D03*
%TO.P,U7,2,BOOST*%
%TO.N,Net-(U7-BOOST)*%
X39963150Y-64328600D03*
%TO.P,U7,3,IN*%
%TO.N,EXT_5V*%
X40463150Y-64328600D03*
%TO.P,U7,4,SW*%
%TO.N,Net-(U7-SW)*%
X40963150Y-64328600D03*
D33*
%TO.P,U7,5,GND*%
%TO.N,GND*%
X41713150Y-63578600D03*
%TO.P,U7,6,MPPT*%
%TO.N,Net-(U7-MPPT)*%
X41713150Y-63078600D03*
%TO.P,U7,7,FREQ*%
%TO.N,GND*%
X41713150Y-62578600D03*
%TO.P,U7,8,CHGSNS*%
%TO.N,Net-(U7-CHGSNS)*%
X41713150Y-62078600D03*
D32*
%TO.P,U7,9,BAT*%
%TO.N,/Battery_Charger_LiFePO4_3.6V/Battery_Charger_OUTPUT*%
X40963150Y-61328600D03*
%TO.P,U7,10,FB*%
%TO.N,Net-(U7-FB)*%
X40463150Y-61328600D03*
%TO.P,U7,11,FBG*%
%TO.N,Net-(U7-FBG)*%
X39963150Y-61328600D03*
%TO.P,U7,12,NTC*%
%TO.N,GND*%
X39463150Y-61328600D03*
D33*
%TO.P,U7,13,PROG*%
%TO.N,Net-(U7-PROG)*%
X38713150Y-62078100D03*
%TO.P,U7,14,CHRG#*%
%TO.N,Net-(LED2-K)*%
X38713150Y-62578100D03*
%TO.P,U7,15,FAULT#*%
%TO.N,Net-(LED1-K)*%
X38713150Y-63078100D03*
%TO.P,U7,16,RUN*%
%TO.N,EXT_5V*%
X38713150Y-63578100D03*
D34*
%TO.P,U7,17,GND*%
%TO.N,GND*%
X40213150Y-62828600D03*
%TD*%
D24*
%TO.P,TP2,1,1*%
%TO.N,/Buck-Boost3.3V/Buck-Boost_INPUT*%
X56790500Y-51864000D03*
%TD*%
D35*
%TO.P,C15,1,1*%
%TO.N,GND*%
X61324400Y-65111600D03*
%TO.P,C15,2,2*%
%TO.N,/Buck-Boost3.3V/Buck-Boost_INPUT*%
X61324400Y-63711600D03*
%TD*%
D10*
%TO.P,R13,1,1*%
%TO.N,Net-(LED2-A)*%
X35707150Y-73086200D03*
%TO.P,R13,2,2*%
%TO.N,EXT_5V*%
X38665150Y-73086200D03*
%TD*%
D16*
%TO.P,,PTH7,GND*%
%TO.N,GND*%
X61476800Y-29893000D03*
%TD*%
%TO.P,,PTH6,GND*%
%TO.N,GND*%
X59648000Y-29893000D03*
%TD*%
%TO.P,,PTH9,GND*%
%TO.N,GND*%
X57768400Y-31721800D03*
%TD*%
%TO.P,,PTH23,GND*%
%TO.N,GND*%
X44204800Y-88262200D03*
%TD*%
%TO.P,,PTH20,GND*%
%TO.N,GND*%
X43087200Y-87144600D03*
%TD*%
%TO.P,,PTH17,GND*%
%TO.N,GND*%
X63762800Y-65326000D03*
%TD*%
D14*
%TO.P,C14,1,1*%
%TO.N,GND*%
X42796000Y-59101000D03*
%TO.P,C14,2,2*%
%TO.N,/Battery_Charger_LiFePO4_3.6V/Battery_Charger_OUTPUT*%
X41706000Y-59101000D03*
%TD*%
D11*
%TO.P,Q5,1,G*%
%TO.N,EXT_5V*%
X49701850Y-54170200D03*
%TO.P,Q5,2,S*%
%TO.N,/Buck-Boost3.3V/Buck-Boost_INPUT*%
X49701850Y-52270200D03*
%TO.P,Q5,3,D*%
%TO.N,VBAT*%
X47701850Y-53220200D03*
%TD*%
D35*
%TO.P,R20,1,1*%
%TO.N,GND*%
X71873400Y-65137000D03*
%TO.P,R20,2,2*%
%TO.N,+3V3*%
X71873400Y-63737000D03*
%TD*%
D16*
%TO.P,,PTH3,GND*%
%TO.N,GND*%
X61476000Y-28011000D03*
%TD*%
D14*
%TO.P,R22,1,1*%
%TO.N,D14*%
X103017400Y-48790600D03*
%TO.P,R22,2,2*%
%TO.N,+3V3*%
X101927400Y-48790600D03*
%TD*%
D36*
%TO.P,L_B-B1,1,1*%
%TO.N,Net-(U5-L1)*%
X62608000Y-58976000D03*
%TO.P,L_B-B1,2,2*%
%TO.N,Net-(U5-L2)*%
X66164000Y-58976000D03*
%TD*%
D14*
%TO.P,R25,1,1*%
%TO.N,Net-(CARD1-CD{slash}DAT3)*%
X101161000Y-41771000D03*
%TO.P,R25,2,2*%
%TO.N,+3V3*%
X100071000Y-41771000D03*
%TD*%
D25*
%TO.P,R8,1*%
%TO.N,DTR*%
X45182700Y-82434000D03*
%TO.P,R8,2*%
%TO.N,Net-(Q1-B)*%
X45182700Y-80434000D03*
%TD*%
D37*
%TO.P,U9,1,GND*%
%TO.N,GND*%
X52570000Y-23314400D03*
%TO.P,U9,2,3V3*%
%TO.N,+3V3*%
X52570000Y-24584400D03*
%TO.P,U9,3,EN*%
%TO.N,ENA*%
X52570000Y-25854400D03*
%TO.P,U9,4,SENSOR_VP*%
%TO.N,unconnected-(U9-SENSOR_VP-Pad4)*%
X52570000Y-27124400D03*
%TO.P,U9,5,SENSOR_VN*%
%TO.N,unconnected-(U9-SENSOR_VN-Pad5)*%
X52570000Y-28394400D03*
%TO.P,U9,6,IO34*%
%TO.N,D34*%
X52570000Y-29664400D03*
%TO.P,U9,7,IO35*%
%TO.N,D35*%
X52570000Y-30934400D03*
%TO.P,U9,8,IO32*%
%TO.N,D32*%
X52570000Y-32204400D03*
%TO.P,U9,9,IO33*%
%TO.N,D33*%
X52570000Y-33474400D03*
%TO.P,U9,10,IO25*%
%TO.N,D25*%
X52570000Y-34744400D03*
%TO.P,U9,11,IO26*%
%TO.N,D26*%
X52570000Y-36014400D03*
%TO.P,U9,12,IO27*%
%TO.N,D27*%
X52570000Y-37284400D03*
%TO.P,U9,13,IO14*%
%TO.N,D14*%
X52570000Y-38554400D03*
%TO.P,U9,14,IO12*%
%TO.N,D12*%
X52570000Y-39824400D03*
%TO.P,U9,15,GND*%
%TO.N,GND*%
X52570000Y-41094400D03*
%TO.P,U9,16,IO13*%
%TO.N,D13*%
X52570000Y-42364400D03*
%TO.P,U9,17,NC*%
%TO.N,unconnected-(U9-NC-Pad17)*%
X52570000Y-43634400D03*
%TO.P,U9,18,NC*%
%TO.N,unconnected-(U9-NC-Pad18)*%
X52570000Y-44904400D03*
%TO.P,U9,19,NC*%
%TO.N,unconnected-(U9-NC-Pad19)*%
X52570000Y-46174400D03*
%TO.P,U9,20,NC*%
%TO.N,unconnected-(U9-NC-Pad20)*%
X70570000Y-46174400D03*
%TO.P,U9,21,NC*%
%TO.N,unconnected-(U9-NC-Pad21)*%
X70570000Y-44904400D03*
%TO.P,U9,22,NC*%
%TO.N,unconnected-(U9-NC-Pad22)*%
X70570000Y-43634400D03*
%TO.P,U9,23,IO15*%
%TO.N,D15*%
X70570000Y-42364400D03*
%TO.P,U9,24,IO2*%
%TO.N,D2*%
X70570000Y-41094400D03*
%TO.P,U9,25,IO0*%
%TO.N,IO0*%
X70570000Y-39824400D03*
%TO.P,U9,26,IO4*%
%TO.N,D4*%
X70570000Y-38554400D03*
%TO.P,U9,27,NC*%
%TO.N,unconnected-(U9-NC-Pad27)*%
X70570000Y-37284400D03*
%TO.P,U9,28,NC*%
%TO.N,unconnected-(U9-NC-Pad28)*%
X70570000Y-36014400D03*
%TO.P,U9,29,IO5*%
%TO.N,D5*%
X70570000Y-34744400D03*
%TO.P,U9,30,IO18*%
%TO.N,D18*%
X70570000Y-33474400D03*
%TO.P,U9,31,IO19*%
%TO.N,D19*%
X70570000Y-32204400D03*
%TO.P,U9,32,NC*%
%TO.N,unconnected-(U9-NC-Pad32)*%
X70570000Y-30934400D03*
%TO.P,U9,33,IO21*%
%TO.N,D21*%
X70570000Y-29664400D03*
%TO.P,U9,34,RXD0*%
%TO.N,RXD0*%
X70570000Y-28394400D03*
%TO.P,U9,35,TXD0*%
%TO.N,TXD0*%
X70570000Y-27124400D03*
%TO.P,U9,36,IO22*%
%TO.N,D22*%
X70570000Y-25854400D03*
%TO.P,U9,37,IO23*%
%TO.N,D23*%
X70570000Y-24584400D03*
%TO.P,U9,38,GND*%
%TO.N,GND*%
X70570000Y-23314400D03*
D38*
%TO.P,U9,39,GND*%
X58735000Y-28979400D03*
X58735000Y-30814400D03*
X58735000Y-32649400D03*
X60570000Y-28979400D03*
X60570000Y-30814400D03*
X60570000Y-32649400D03*
X62405000Y-28979400D03*
X62405000Y-30814400D03*
X62405000Y-32649400D03*
%TD*%
D39*
%TO.P,C7,1*%
%TO.N,+3V3*%
X71162000Y-54937400D03*
%TO.P,C7,2*%
%TO.N,GND*%
X73237000Y-54937400D03*
%TD*%
%TO.P,C8,1*%
%TO.N,+3V3*%
X71162000Y-57833000D03*
%TO.P,C8,2*%
%TO.N,GND*%
X73237000Y-57833000D03*
%TD*%
D14*
%TO.P,R21,1,1*%
%TO.N,D15*%
X103068200Y-44320200D03*
%TO.P,R21,2,2*%
%TO.N,+3V3*%
X101978200Y-44320200D03*
%TD*%
D25*
%TO.P,R3,1*%
%TO.N,VBUS*%
X42172800Y-94772300D03*
%TO.P,R3,2*%
%TO.N,Net-(U3-VBUS)*%
X42172800Y-92772300D03*
%TD*%
D20*
%TO.P,R16,1*%
%TO.N,Net-(Q3-D)*%
X29311850Y-36077567D03*
%TO.P,R16,2*%
%TO.N,/Battery_Charger_LiFePO4_3.6V/Battery_Charger_OUTPUT*%
X29311850Y-38077567D03*
%TD*%
D40*
%TO.P,CARD1,1,DAT2*%
%TO.N,Net-(CARD1-DAT2)*%
X106637300Y-44407000D03*
%TO.P,CARD1,2,CD/DAT3*%
%TO.N,Net-(CARD1-CD{slash}DAT3)*%
X106637300Y-45507000D03*
%TO.P,CARD1,3,CMD*%
%TO.N,D15*%
X106637300Y-46607000D03*
%TO.P,CARD1,4,VDD*%
%TO.N,+3V3*%
X106637300Y-47707000D03*
%TO.P,CARD1,5,CLX*%
%TO.N,D14*%
X106637300Y-48807000D03*
%TO.P,CARD1,6,VSS*%
%TO.N,GND*%
X106637300Y-49907000D03*
%TO.P,CARD1,7,DAT0*%
%TO.N,D2*%
X106637300Y-51007000D03*
%TO.P,CARD1,8,DAT1*%
%TO.N,Net-(CARD1-DAT1)*%
X106637300Y-52107000D03*
D41*
%TO.P,CARD1,10,10*%
%TO.N,GND*%
X107637300Y-54407000D03*
D42*
%TO.P,CARD1,11,11*%
X117237300Y-54407000D03*
%TO.P,CARD1,12,12*%
X117237300Y-38907000D03*
D43*
%TO.P,CARD1,13,13*%
X107637300Y-39807000D03*
D40*
%TO.P,CARD1,CD,CD*%
%TO.N,unconnected-(CARD1-PadCD)*%
X106637300Y-53207000D03*
%TD*%
D20*
%TO.P,R19,1*%
%TO.N,Net-(Q3-G)*%
X37905600Y-30915600D03*
%TO.P,R19,2*%
%TO.N,D25*%
X37905600Y-32915600D03*
%TD*%
D25*
%TO.P,R2,1*%
%TO.N,ENA*%
X40572600Y-26702000D03*
%TO.P,R2,2*%
%TO.N,+3V3*%
X40572600Y-24702000D03*
%TD*%
D24*
%TO.P,TP3,1,1*%
%TO.N,+3V3*%
X64728000Y-51864000D03*
%TD*%
D44*
%TO.P,L_B-CH1,1,1*%
%TO.N,Net-(U7-SW)*%
X45624750Y-64348600D03*
%TO.P,L_B-CH1,2,2*%
%TO.N,Net-(U7-CHGSNS)*%
X45624750Y-61398600D03*
%TD*%
D16*
%TO.P,,PTH22,GND*%
%TO.N,GND*%
X43087200Y-88262200D03*
%TD*%
%TO.P,,PTH10,GND*%
%TO.N,GND*%
X59648000Y-31721800D03*
%TD*%
D14*
%TO.P,C6,1,1*%
%TO.N,GND*%
X30999000Y-28750000D03*
%TO.P,C6,2,2*%
%TO.N,ENA*%
X32089000Y-28750000D03*
%TD*%
D16*
%TO.P,,PTH13,GND*%
%TO.N,GND*%
X40674200Y-63294000D03*
%TD*%
D24*
%TO.P,TP4,1,1*%
%TO.N,D34*%
X45297000Y-36573200D03*
%TD*%
D21*
%TO.P,H7,1,1*%
%TO.N,EXT_5V*%
X102066000Y-57706000D03*
D22*
%TO.P,H7,2,2*%
%TO.N,GND*%
X99526000Y-57706000D03*
%TD*%
D45*
%TO.P,H1,1,1*%
%TO.N,D12*%
X91906000Y-42466000D03*
D46*
%TO.P,H1,2,2*%
%TO.N,D15*%
X89366000Y-42466000D03*
%TO.P,H1,3,3*%
%TO.N,D2*%
X86826000Y-42466000D03*
%TD*%
D39*
%TO.P,C10,1*%
%TO.N,GND*%
X100848500Y-46453800D03*
%TO.P,C10,2*%
%TO.N,+3V3*%
X102923500Y-46453800D03*
%TD*%
D20*
%TO.P,R6,1*%
%TO.N,Net-(U3-~{RST})*%
X47456000Y-92791100D03*
%TO.P,R6,2*%
%TO.N,Net-(R5-Pad1)*%
X47456000Y-94791100D03*
%TD*%
D25*
%TO.P,R7,1*%
%TO.N,GND*%
X52790000Y-94791100D03*
%TO.P,R7,2*%
%TO.N,Net-(U3-~{SUSPEND})*%
X52790000Y-92791100D03*
%TD*%
D16*
%TO.P,,PTH18,GND*%
%TO.N,GND*%
X64386200Y-65326000D03*
%TD*%
D29*
%TO.P,R14,1,1*%
%TO.N,Net-(U7-FB)*%
X39081950Y-57124600D03*
%TO.P,R14,2,2*%
%TO.N,Net-(U7-FBG)*%
X39081950Y-57990600D03*
%TD*%
D47*
%TO.P,U5,1,VOUT*%
%TO.N,+3V3*%
X65386200Y-63826000D03*
%TO.P,U5,2,L2*%
%TO.N,Net-(U5-L2)*%
X64886200Y-63826000D03*
%TO.P,U5,3,PGND*%
%TO.N,GND*%
X64386200Y-63826000D03*
%TO.P,U5,4,L1*%
%TO.N,Net-(U5-L1)*%
X63886200Y-63826000D03*
%TO.P,U5,5,VIN*%
%TO.N,/Buck-Boost3.3V/Buck-Boost_INPUT*%
X63386200Y-63826000D03*
D48*
%TO.P,U5,6,EN*%
%TO.N,/Buck-Boost3.3V/Buck-Boost_EN*%
X63386200Y-66826000D03*
%TO.P,U5,7,PS/SYNC*%
%TO.N,/Buck-Boost3.3V/Buck-Boost_INPUT*%
X63886200Y-66826000D03*
%TO.P,U5,8,VINA*%
X64386200Y-66826000D03*
%TO.P,U5,9,GND*%
%TO.N,GND*%
X64886200Y-66826000D03*
%TO.P,U5,10,FB*%
%TO.N,+3V3*%
X65386200Y-66826000D03*
D49*
%TO.P,U5,11,PAD*%
%TO.N,GND*%
X64381200Y-65326000D03*
%TD*%
D50*
%TO.P,D3,1,K*%
%TO.N,/Buck-Boost3.3V/Buck-Boost_INPUT*%
X52205800Y-52016400D03*
%TO.P,D3,2,A*%
%TO.N,EXT_5V*%
X52205800Y-54216400D03*
%TD*%
D45*
%TO.P,H2,1,1*%
%TO.N,GND*%
X91906000Y-50083800D03*
D46*
%TO.P,H2,2,2*%
%TO.N,+3V3*%
X89366000Y-50083800D03*
%TO.P,H2,3,3*%
%TO.N,D13*%
X86826000Y-50083800D03*
%TD*%
D16*
%TO.P,,PTH21,GND*%
%TO.N,GND*%
X44204800Y-87144600D03*
%TD*%
D30*
%TO.P,C4,1,1*%
%TO.N,GND*%
X73162000Y-51889400D03*
%TO.P,C4,2,2*%
%TO.N,+3V3*%
X71162000Y-51889400D03*
%TD*%
D23*
%TO.P,Q3,1,G*%
%TO.N,Net-(Q3-G)*%
X32751050Y-30927967D03*
%TO.P,Q3,2,S*%
%TO.N,GND*%
X30851050Y-30927967D03*
%TO.P,Q3,3,D*%
%TO.N,Net-(Q3-D)*%
X31801050Y-32927967D03*
%TD*%
D16*
%TO.P,,PTH16,GND*%
%TO.N,GND*%
X63366000Y-33601000D03*
%TD*%
D51*
%TO.P,C3,1,1*%
%TO.N,GND*%
X76691400Y-81105800D03*
%TO.P,C3,2,2*%
%TO.N,ENA*%
X76691400Y-83105800D03*
%TD*%
D35*
%TO.P,C18,1,1*%
%TO.N,GND*%
X67420400Y-65137000D03*
%TO.P,C18,2,2*%
%TO.N,+3V3*%
X67420400Y-63737000D03*
%TD*%
D52*
%TO.P,U10,0,0*%
%TO.N,GND*%
X31778500Y-83367700D03*
D53*
X27578500Y-83367700D03*
D52*
X31778500Y-92017700D03*
D53*
X27578500Y-92017700D03*
D54*
%TO.P,U10,A1,GND*%
X32428500Y-84483700D03*
%TO.P,U10,A4,VBUS*%
%TO.N,VBUS*%
X32428500Y-85283700D03*
D55*
%TO.P,U10,A5,CC1*%
%TO.N,unconnected-(U10-CC1-PadA5)*%
X32428500Y-86433700D03*
%TO.P,U10,A6,DP1*%
%TO.N,DP*%
X32428500Y-87433700D03*
%TO.P,U10,A7,DN1*%
%TO.N,DN*%
X32428500Y-87933700D03*
%TO.P,U10,A8,SBU1*%
%TO.N,unconnected-(U10-SBU1-PadA8)*%
X32429500Y-88933200D03*
D54*
%TO.P,U10,A9,VBUS*%
%TO.N,VBUS*%
X32428500Y-90083700D03*
%TO.P,U10,A12,GND*%
%TO.N,GND*%
X32428500Y-90883700D03*
D55*
%TO.P,U10,B5,CC2*%
%TO.N,unconnected-(U10-CC2-PadB5)*%
X32428500Y-89433700D03*
%TO.P,U10,B6,DP2*%
%TO.N,DP*%
X32428500Y-88433700D03*
%TO.P,U10,B7,DN2*%
%TO.N,DN*%
X32428500Y-86933700D03*
%TO.P,U10,B8,SBU2*%
%TO.N,unconnected-(U10-SBU2-PadB8)*%
X32429500Y-85933700D03*
%TD*%
D16*
%TO.P,,PTH2,GND*%
%TO.N,GND*%
X59648000Y-28013400D03*
%TD*%
%TO.P,,PTH11,GND*%
%TO.N,GND*%
X61476800Y-31721800D03*
%TD*%
D56*
%TO.P,C2,1*%
%TO.N,ENA*%
X73618000Y-83104600D03*
%TO.P,C2,2*%
%TO.N,GND*%
X73618000Y-81029600D03*
%TD*%
D16*
%TO.P,,PTH12,GND*%
%TO.N,GND*%
X63366000Y-31721000D03*
%TD*%
D24*
%TO.P,TP5,1,1*%
%TO.N,EXT_5V*%
X32698600Y-97965000D03*
%TD*%
D16*
%TO.P,,PTH19,GND*%
%TO.N,GND*%
X65007400Y-65326000D03*
%TD*%
D57*
%TO.P,D2,1,K*%
%TO.N,VBAT*%
X41898250Y-42077167D03*
%TO.P,D2,2,A*%
%TO.N,/Battery_Charger_LiFePO4_3.6V/Battery_Charger_OUTPUT*%
X39698250Y-42077167D03*
%TD*%
D16*
%TO.P,,PTH13,GND*%
%TO.N,GND*%
X40674200Y-62361000D03*
%TD*%
D58*
%TO.P,R1,1*%
%TO.N,GND*%
X36667600Y-76924400D03*
%TO.P,R1,2*%
%TO.N,EXT_5V*%
X38667600Y-76924400D03*
%TD*%
D59*
%TO.P,Q4,1,G*%
%TO.N,Net-(Q3-D)*%
X34258650Y-36143567D03*
%TO.P,Q4,2,S*%
%TO.N,/Battery_Charger_LiFePO4_3.6V/Battery_Charger_OUTPUT*%
X34258650Y-38043567D03*
%TO.P,Q4,3,D*%
%TO.N,Net-(Q4-D)*%
X36728650Y-37093567D03*
%TD*%
D21*
%TO.P,H3,1,1*%
%TO.N,+3V3*%
X94446000Y-34846000D03*
D22*
%TO.P,H3,2,2*%
%TO.N,IO0*%
X91906000Y-34846000D03*
%TO.P,H3,3,3*%
%TO.N,D4*%
X89366000Y-34846000D03*
%TO.P,H3,4,4*%
%TO.N,GND*%
X86826000Y-34846000D03*
%TD*%
D29*
%TO.P,R10,1,1*%
%TO.N,Net-(U7-MPPT)*%
X46374450Y-69686800D03*
%TO.P,R10,2,2*%
%TO.N,EXT_5V*%
X46374450Y-70552800D03*
%TD*%
D16*
%TO.P,,PTH14,GND*%
%TO.N,GND*%
X59648000Y-33601000D03*
%TD*%
D14*
%TO.P,R26,1,1*%
%TO.N,Net-(CARD1-DAT1)*%
X103726000Y-53701000D03*
%TO.P,R26,2,2*%
%TO.N,+3V3*%
X102636000Y-53701000D03*
%TD*%
D60*
%TO.P,R15,1,1*%
%TO.N,/Battery_Charger_LiFePO4_3.6V/Battery_Charger_OUTPUT*%
X41418750Y-57124600D03*
%TO.P,R15,2,2*%
%TO.N,Net-(U7-FB)*%
X40552750Y-57124600D03*
%TD*%
D35*
%TO.P,C17,1,1*%
%TO.N,GND*%
X69630200Y-65137000D03*
%TO.P,C17,2,2*%
%TO.N,+3V3*%
X69630200Y-63737000D03*
%TD*%
D61*
%TO.P,U2,1,1*%
%TO.N,/Battery_Charger_LiFePO4_3.6V/Battery_Charger_OUTPUT*%
X28738250Y-49857567D03*
%TO.P,U2,2,2*%
%TO.N,GND*%
X28738250Y-54857567D03*
%TD*%
D62*
%TO.N,GND*%
X44814400Y-96321000D03*
X57235000Y-67739000D03*
X34236000Y-59723400D03*
X56600000Y-65961000D03*
X98510000Y-46453800D03*
X72729000Y-66596000D03*
X38546000Y-60211000D03*
X42843850Y-61789800D03*
X117255200Y-40256200D03*
X42691450Y-63974200D03*
X59190800Y-78595400D03*
X43036000Y-71041000D03*
X76513600Y-57833000D03*
X64886000Y-69111000D03*
X71586000Y-67866000D03*
X37346800Y-90446600D03*
X59276000Y-93321000D03*
X39709000Y-86687400D03*
X52790000Y-96301000D03*
X45576400Y-33398200D03*
X36610200Y-65605400D03*
X60664000Y-51864000D03*
X109838400Y-39799000D03*
X42856000Y-57771000D03*
X60714800Y-41094400D03*
X39527300Y-94840700D03*
X34476000Y-76924400D03*
X59521000Y-67739000D03*
X108949400Y-52067200D03*
X29244200Y-30934400D03*
X117204400Y-52956200D03*
X69300000Y-67866000D03*
%TO.N,IO0*%
X61426000Y-88821000D03*
X86166000Y-37821000D03*
X58378000Y-48181000D03*
X40448500Y-81348400D03*
%TO.N,ENA*%
X44052400Y-74165200D03*
X44052400Y-25905200D03*
%TO.N,+3V3*%
X100386000Y-53721000D03*
X55941726Y-24535701D03*
X98221000Y-41776000D03*
X50148400Y-92791100D03*
X100789900Y-44320200D03*
X64728000Y-51864000D03*
X97748000Y-48739800D03*
X66356000Y-67815200D03*
X66633000Y-49959000D03*
X100135600Y-50924200D03*
X96156000Y-39711000D03*
X71596000Y-61361000D03*
X39531200Y-92769600D03*
%TO.N,D2*%
X98871000Y-52106000D03*
%TO.N,D14*%
X58251000Y-38859200D03*
X79606000Y-56004200D03*
%TO.N,Net-(U7-BOOST)*%
X39237050Y-66920600D03*
X41895600Y-66367400D03*
%TO.N,EXT_5V*%
X70316000Y-70025000D03*
X47026325Y-73101325D03*
X49701850Y-56319000D03*
X76843800Y-69974200D03*
X34413100Y-97960000D03*
%TO.N,D12*%
X54913100Y-40038100D03*
X76046000Y-48409600D03*
%TO.N,D13*%
X55355400Y-43786800D03*
X77529600Y-50111400D03*
%TO.N,D4*%
X84006000Y-33169600D03*
%TO.N,D26*%
X72966000Y-45171000D03*
X55812600Y-35963600D03*
%TO.N,D27*%
X71713000Y-47682600D03*
X54568000Y-37827400D03*
%TO.N,D22*%
X77496000Y-24811000D03*
%TO.N,D23*%
X73226200Y-24341200D03*
%TO.N,D21*%
X73211600Y-29664400D03*
%TO.N,D5*%
X77466100Y-32775900D03*
%TO.N,D19*%
X77128000Y-28161000D03*
%TO.N,D18*%
X73326000Y-33474400D03*
%TO.N,D33*%
X60892600Y-37436800D03*
%TO.N,D35*%
X54517200Y-29232600D03*
%TO.N,D32*%
X54936000Y-31511000D03*
%TO.N,DN*%
X33740000Y-89082700D03*
X33740000Y-86415700D03*
%TO.N,Net-(U7-MPPT)*%
X42843850Y-62958200D03*
X46374450Y-69670048D03*
%TO.N,D25*%
X37956400Y-34744400D03*
X48472000Y-34744400D03*
%TO.N,D-*%
X38439000Y-88193700D03*
X35069949Y-84805900D03*
%TO.N,TXD0*%
X66607600Y-25575000D03*
X43658133Y-84005800D03*
X33892400Y-52346600D03*
X37550000Y-52372000D03*
%TO.N,RXD0*%
X42630000Y-84005800D03*
X67642400Y-28401000D03*
%TO.N,/Buck-Boost3.3V/Buck-Boost_INPUT*%
X56752400Y-63344800D03*
X63814575Y-67770560D03*
X56765100Y-54188100D03*
%TD*%
D63*
%TO.N,GND*%
X39463150Y-62078150D02*
X39746000Y-62361000D01*
D64*
X43036000Y-71041000D02*
X43001950Y-71006950D01*
D65*
X44743450Y-57731400D02*
X44753850Y-57741800D01*
D64*
X117306000Y-57706000D02*
X117229800Y-57706000D01*
X108136600Y-53907700D02*
X107637300Y-54407000D01*
D65*
X42856000Y-57771000D02*
X42796000Y-57831000D01*
D64*
X107637300Y-54407000D02*
X107967500Y-54407000D01*
X61019600Y-23314400D02*
X70570000Y-23314400D01*
X60570000Y-24457400D02*
X60570000Y-23357600D01*
D63*
X61426000Y-78606000D02*
X61421800Y-78610200D01*
D64*
X117237300Y-52989100D02*
X117204400Y-52956200D01*
D63*
X31778500Y-91533700D02*
X32428500Y-90883700D01*
X42135002Y-62578600D02*
X41713150Y-62578600D01*
D64*
X43001950Y-71006950D02*
X43001950Y-69022200D01*
X107637300Y-39807000D02*
X109830400Y-39807000D01*
D63*
X44814400Y-94791100D02*
X44814400Y-96321000D01*
X32428500Y-84483700D02*
X32428500Y-84017700D01*
D64*
X60570000Y-23753800D02*
X60130600Y-23314400D01*
D63*
X37460550Y-59687200D02*
X37496750Y-59723400D01*
X43146000Y-87208700D02*
X43646000Y-87708700D01*
X76666000Y-81105800D02*
X76589800Y-81029600D01*
D64*
X45576400Y-31696400D02*
X48624400Y-31696400D01*
D65*
X42856000Y-57771000D02*
X42896000Y-57731000D01*
D63*
X100848500Y-46453800D02*
X98510000Y-46453800D01*
X31778500Y-92017700D02*
X31778500Y-91533700D01*
X61415400Y-78595400D02*
X61426000Y-78606000D01*
X76691400Y-81105800D02*
X76666000Y-81105800D01*
X36026000Y-88436700D02*
X36026000Y-89125800D01*
D64*
X60570000Y-24457400D02*
X60570000Y-23753800D01*
D63*
X38607200Y-60211000D02*
X39463150Y-61066950D01*
X34236000Y-59723400D02*
X37496750Y-59723400D01*
X40891800Y-62578600D02*
X41713150Y-62578600D01*
X42295850Y-63578600D02*
X42691450Y-63974200D01*
X64886200Y-65831000D02*
X64381200Y-65326000D01*
D64*
X60570000Y-23764000D02*
X61019600Y-23314400D01*
D63*
X70712000Y-78606000D02*
X72627400Y-78606000D01*
D64*
X60570000Y-24457400D02*
X60570000Y-23764000D01*
D63*
X73618000Y-81029600D02*
X73618000Y-79596600D01*
X61431200Y-78600800D02*
X61426000Y-78606000D01*
D64*
X60613200Y-23314400D02*
X61019600Y-23314400D01*
D63*
X40958800Y-63578600D02*
X40674200Y-63294000D01*
D64*
X73237000Y-51964400D02*
X73237000Y-54937400D01*
D63*
X70712000Y-78606000D02*
X61426000Y-78606000D01*
X64886000Y-68471000D02*
X64886200Y-68470800D01*
X39463150Y-61328600D02*
X39463150Y-62078150D01*
D64*
X107602000Y-49907000D02*
X108136600Y-50441600D01*
X39531200Y-94844600D02*
X39527300Y-94840700D01*
X29244200Y-30934400D02*
X29250633Y-30927967D01*
D63*
X45627200Y-31747200D02*
X45576400Y-31696400D01*
D64*
X60714800Y-41094400D02*
X52570000Y-41094400D01*
D63*
X64386200Y-65321000D02*
X64381200Y-65326000D01*
X42843850Y-61869752D02*
X42135002Y-62578600D01*
D65*
X64381200Y-65326000D02*
X64387300Y-65319900D01*
D63*
X64886200Y-68470800D02*
X64886200Y-66826000D01*
D64*
X107146000Y-57706000D02*
X106714200Y-57706000D01*
X73237000Y-57833000D02*
X73237000Y-54937400D01*
X117237300Y-40238300D02*
X117255200Y-40256200D01*
D65*
X34476000Y-76924400D02*
X36667600Y-76924400D01*
D64*
X36889600Y-94840700D02*
X39527300Y-94840700D01*
X117237300Y-38907000D02*
X117237300Y-40238300D01*
D63*
X36610200Y-65605400D02*
X36623400Y-65618600D01*
X73618000Y-79596600D02*
X72627400Y-78606000D01*
X74126000Y-92808800D02*
X73613800Y-93321000D01*
D64*
X62405000Y-39381000D02*
X62405000Y-32649400D01*
X108136600Y-52067200D02*
X108949400Y-52067200D01*
D63*
X40674200Y-62361000D02*
X40891800Y-62578600D01*
X41713150Y-63578600D02*
X40958800Y-63578600D01*
D64*
X30999000Y-28750000D02*
X30851050Y-28897950D01*
D65*
X43747200Y-57731000D02*
X43747600Y-57731400D01*
D63*
X73613800Y-93321000D02*
X70712000Y-93321000D01*
X39463150Y-61066950D02*
X39463150Y-61328600D01*
D64*
X45576400Y-31696400D02*
X45576400Y-33398200D01*
D63*
X64381200Y-64783800D02*
X63864400Y-65300600D01*
X52790000Y-94791100D02*
X52790000Y-96301000D01*
D65*
X64982000Y-65326000D02*
X64880000Y-65428000D01*
D63*
X59276000Y-93321000D02*
X61426000Y-93321000D01*
X32428500Y-84017700D02*
X31778500Y-83367700D01*
D64*
X30851050Y-28897950D02*
X30851050Y-30927967D01*
D63*
X64386200Y-63826000D02*
X64386200Y-65321000D01*
D64*
X109830400Y-39807000D02*
X109838400Y-39799000D01*
X48624400Y-31696400D02*
X48675200Y-31747200D01*
D63*
X70712000Y-93321000D02*
X61426000Y-93321000D01*
D65*
X43747600Y-57731400D02*
X44743450Y-57731400D01*
D63*
X76589800Y-81029600D02*
X73618000Y-81029600D01*
D64*
X62416600Y-39392600D02*
X62405000Y-39381000D01*
X73237000Y-57833000D02*
X76513600Y-57833000D01*
D63*
X41713150Y-63578600D02*
X42295850Y-63578600D01*
D64*
X108136600Y-52067200D02*
X108136600Y-53907700D01*
D63*
X40230300Y-87208700D02*
X41196000Y-87208700D01*
X36623400Y-65618600D02*
X37811150Y-65618600D01*
X59190800Y-78595400D02*
X61415400Y-78595400D01*
D64*
X52570000Y-23314400D02*
X60130600Y-23314400D01*
X29250633Y-30927967D02*
X30851050Y-30927967D01*
D63*
X74126000Y-92123000D02*
X74126000Y-92808800D01*
D64*
X117567500Y-54407000D02*
X117684000Y-54407000D01*
D65*
X42896000Y-57731000D02*
X43747200Y-57731000D01*
D64*
X43024200Y-69022200D02*
X43001950Y-69022200D01*
D63*
X39709000Y-86687400D02*
X40230300Y-87208700D01*
D64*
X60613200Y-23314400D02*
X60570000Y-23357600D01*
D63*
X38546000Y-60211000D02*
X38607200Y-60211000D01*
X41196000Y-87208700D02*
X43146000Y-87208700D01*
D64*
X106637300Y-49907000D02*
X107602000Y-49907000D01*
D65*
X42796000Y-57831000D02*
X42796000Y-59101000D01*
X64880400Y-65825200D02*
X64892400Y-65837200D01*
D64*
X117237300Y-54407000D02*
X117237300Y-52989100D01*
D63*
X42843850Y-61789800D02*
X42843850Y-61869752D01*
D64*
X60570000Y-24457400D02*
X60570000Y-28979400D01*
X60130600Y-23314400D02*
X60613200Y-23314400D01*
X108136600Y-50441600D02*
X108136600Y-52067200D01*
D63*
X64886000Y-69111000D02*
X64886000Y-68471000D01*
D64*
X60714800Y-41094400D02*
X62416600Y-39392600D01*
D63*
X36026000Y-89125800D02*
X37346800Y-90446600D01*
%TO.N,IO0*%
X86166000Y-37821000D02*
X81184000Y-37821000D01*
X74126000Y-89379800D02*
X73567200Y-88821000D01*
X61426000Y-88821000D02*
X70712000Y-88821000D01*
X73567200Y-88821000D02*
X70712000Y-88821000D01*
X79180600Y-39824400D02*
X70570000Y-39824400D01*
X66734600Y-39824400D02*
X58378000Y-48181000D01*
X70570000Y-39824400D02*
X66734600Y-39824400D01*
X74126000Y-90048000D02*
X74126000Y-89379800D01*
X81184000Y-37821000D02*
X79180600Y-39824400D01*
%TO.N,ENA*%
X40695200Y-26667200D02*
X40699600Y-26671600D01*
X54263200Y-80599100D02*
X53530450Y-81331850D01*
X52406100Y-81516000D02*
X53346300Y-81516000D01*
X54936300Y-83106000D02*
X61426000Y-83106000D01*
X73616600Y-83106000D02*
X73618000Y-83104600D01*
X73208800Y-83104600D02*
X73207400Y-83106000D01*
X54263200Y-78102200D02*
X54263200Y-80599100D01*
X40660400Y-26702000D02*
X40695200Y-26667200D01*
X73618000Y-83104600D02*
X73626200Y-83096400D01*
X44052400Y-25905200D02*
X52519200Y-25905200D01*
X53837750Y-82007450D02*
X54936300Y-83106000D01*
X53837750Y-82007450D02*
X53530450Y-81700150D01*
X44052400Y-74165200D02*
X46135200Y-76248000D01*
X53346300Y-81516000D02*
X53530450Y-81331850D01*
X32089000Y-27861000D02*
X33248000Y-26702000D01*
X32089000Y-28750000D02*
X32089000Y-27861000D01*
X43290400Y-26667200D02*
X44052400Y-25905200D01*
X40572600Y-26702000D02*
X40607400Y-26667200D01*
X46135200Y-76248000D02*
X52409000Y-76248000D01*
X70712000Y-83106000D02*
X73616600Y-83106000D01*
X76691400Y-83105800D02*
X73619200Y-83105800D01*
X61285200Y-83106000D02*
X61285000Y-83105800D01*
X73619200Y-83105800D02*
X73618000Y-83104600D01*
X70712000Y-83106000D02*
X61426000Y-83106000D01*
X33248000Y-26702000D02*
X40572600Y-26702000D01*
X53530450Y-81700150D02*
X53530450Y-81331850D01*
X53346300Y-81516000D02*
X53837750Y-82007450D01*
X73618000Y-83104600D02*
X73208800Y-83104600D01*
X40607400Y-26667200D02*
X43290400Y-26667200D01*
X61426000Y-83106000D02*
X61285200Y-83106000D01*
X52519200Y-25905200D02*
X52570000Y-25854400D01*
X52409000Y-76248000D02*
X54263200Y-78102200D01*
D64*
%TO.N,+3V3*%
X71142600Y-57852400D02*
X71162000Y-57833000D01*
D63*
X65386200Y-63826000D02*
X65386200Y-63499400D01*
X65386200Y-63826000D02*
X65386200Y-64180800D01*
D64*
X69231600Y-49959000D02*
X68919000Y-49959000D01*
D63*
X65386200Y-63499400D02*
X65388400Y-63497200D01*
D66*
X98221000Y-41776000D02*
X100066000Y-41776000D01*
D63*
X101927400Y-48790600D02*
X97798800Y-48790600D01*
D66*
X99951000Y-39711000D02*
X99961000Y-39721000D01*
D65*
X65820200Y-67815200D02*
X65392000Y-67387000D01*
X66356000Y-67815200D02*
X65820200Y-67815200D01*
D64*
X71162000Y-51889400D02*
X69231600Y-49959000D01*
D63*
X100237200Y-51025800D02*
X100135600Y-50924200D01*
D64*
X55893027Y-24584400D02*
X55941726Y-24535701D01*
X71162000Y-57833000D02*
X71162000Y-54937400D01*
D63*
X102923500Y-46453800D02*
X102929600Y-46453800D01*
X101978200Y-44320200D02*
X100789900Y-44320200D01*
D64*
X52452400Y-24702000D02*
X52570000Y-24584400D01*
D63*
X40065600Y-89208700D02*
X41196000Y-89208700D01*
X102791000Y-51025800D02*
X100237200Y-51025800D01*
X100789900Y-44320200D02*
X102923500Y-46453800D01*
D64*
X52570000Y-24584400D02*
X55893027Y-24584400D01*
D66*
X96156000Y-39711000D02*
X99951000Y-39711000D01*
D63*
X41196000Y-88708700D02*
X41196000Y-89208700D01*
X39531200Y-89743100D02*
X40065600Y-89208700D01*
X102929600Y-46453800D02*
X104182800Y-47707000D01*
X106950700Y-47723800D02*
X106967500Y-47707000D01*
D64*
X71162000Y-54937400D02*
X71162000Y-51889400D01*
D63*
X104182800Y-47707000D02*
X106637300Y-47707000D01*
D64*
X40572600Y-24702000D02*
X52452400Y-24702000D01*
X68919000Y-49959000D02*
X66633000Y-49959000D01*
X40572600Y-24727400D02*
X40632800Y-24667200D01*
D66*
X100386000Y-53721000D02*
X102616000Y-53721000D01*
D63*
X97798800Y-48790600D02*
X97748000Y-48739800D01*
D66*
X102616000Y-53721000D02*
X102636000Y-53701000D01*
D63*
X65388400Y-64183000D02*
X65386200Y-64180800D01*
X39531200Y-92769600D02*
X39531200Y-89743100D01*
D65*
X65392000Y-67387000D02*
X65392000Y-66826000D01*
D66*
X100066000Y-41776000D02*
X100071000Y-41771000D01*
D63*
%TO.N,VBUS*%
X42172800Y-95839100D02*
X42172800Y-94772300D01*
X41664800Y-96347100D02*
X42172800Y-95839100D01*
X35645000Y-95813700D02*
X36178400Y-96347100D01*
D67*
X30184000Y-88797600D02*
X31374300Y-89987900D01*
D63*
X36881800Y-92757900D02*
X36889600Y-92765700D01*
D67*
X30184000Y-86796700D02*
X30184000Y-88797600D01*
D63*
X37401500Y-92765700D02*
X37423000Y-92744200D01*
D67*
X32428500Y-85283700D02*
X33233300Y-85283700D01*
X32428500Y-85283700D02*
X31697000Y-85283700D01*
X34400400Y-91097200D02*
X34400400Y-92757900D01*
D63*
X36178400Y-96347100D02*
X41664800Y-96347100D01*
D67*
X32428500Y-90083700D02*
X33386900Y-90083700D01*
X33233300Y-85283700D02*
X34606000Y-83911000D01*
X31697000Y-85283700D02*
X30184000Y-86796700D01*
X34606000Y-83911000D02*
X35553300Y-83911000D01*
X35553300Y-83911000D02*
X36026000Y-84383700D01*
D63*
X34400400Y-92757900D02*
X35645000Y-92757900D01*
D67*
X33386900Y-90083700D02*
X34400400Y-91097200D01*
X32332700Y-89987900D02*
X32428500Y-90083700D01*
D63*
X36872000Y-92757900D02*
X36889600Y-92740300D01*
D67*
X36026000Y-84383700D02*
X36026000Y-86161700D01*
X31374300Y-89987900D02*
X32332700Y-89987900D01*
D63*
X35645000Y-92757900D02*
X35645000Y-95813700D01*
X35645000Y-92757900D02*
X36881800Y-92757900D01*
%TO.N,D15*%
X103590000Y-44320200D02*
X105876800Y-46607000D01*
X79815600Y-44879000D02*
X86953000Y-44879000D01*
X103068200Y-44320200D02*
X103488400Y-44320200D01*
X86953000Y-44879000D02*
X89366000Y-42466000D01*
X70570000Y-42364400D02*
X77301000Y-42364400D01*
X102981200Y-43796200D02*
X103068200Y-43883200D01*
X105876800Y-46607000D02*
X106637300Y-46607000D01*
X94326000Y-40241000D02*
X97376000Y-43291000D01*
X89381000Y-42466000D02*
X91606000Y-40241000D01*
X103068200Y-43883200D02*
X103068200Y-44320200D01*
X97376000Y-43291000D02*
X102476000Y-43291000D01*
X103488400Y-44320200D02*
X103590000Y-44320200D01*
X103068200Y-43900000D02*
X103488400Y-44320200D01*
X77301000Y-42364400D02*
X79815600Y-44879000D01*
X89366000Y-42466000D02*
X89381000Y-42466000D01*
X91606000Y-40241000D02*
X94326000Y-40241000D01*
X102476000Y-43291000D02*
X102981200Y-43796200D01*
D66*
%TO.N,Net-(CARD1-DAT2)*%
X101336000Y-39721000D02*
X101051000Y-39721000D01*
X106022000Y-44407000D02*
X101336000Y-39721000D01*
X106637300Y-44407000D02*
X106022000Y-44407000D01*
D63*
%TO.N,D2*%
X106948700Y-51025800D02*
X106967500Y-51007000D01*
X70570000Y-41094400D02*
X85454400Y-41094400D01*
X85454400Y-41094400D02*
X86826000Y-42466000D01*
X103881000Y-51330600D02*
X103881000Y-51025800D01*
X104204600Y-51007000D02*
X106637300Y-51007000D01*
X104185800Y-51025800D02*
X104204600Y-51007000D01*
X103881000Y-51549800D02*
X103881000Y-51330600D01*
X98871000Y-52106000D02*
X103324800Y-52106000D01*
X103324800Y-52106000D02*
X103881000Y-51549800D01*
X103881000Y-51025800D02*
X104185800Y-51025800D01*
X104185800Y-51025800D02*
X103881000Y-51330600D01*
%TO.N,D14*%
X103017400Y-48790600D02*
X106620900Y-48790600D01*
X106951100Y-48790600D02*
X106967500Y-48807000D01*
X96859000Y-59204600D02*
X96859000Y-51813200D01*
X98662400Y-50009800D02*
X102472400Y-50009800D01*
X92659400Y-61008000D02*
X95055600Y-61008000D01*
X79606000Y-56004200D02*
X87655600Y-56004200D01*
X96859000Y-51813200D02*
X98662400Y-50009800D01*
X58251000Y-38859200D02*
X52874800Y-38859200D01*
X102472400Y-50009800D02*
X103017400Y-49464800D01*
X52874800Y-38859200D02*
X52570000Y-38554400D01*
X103183600Y-48790600D02*
X103200000Y-48807000D01*
X89366000Y-57714600D02*
X92659400Y-61008000D01*
X87655600Y-56004200D02*
X89366000Y-57714600D01*
X103017400Y-48790600D02*
X103183600Y-48790600D01*
X106620900Y-48790600D02*
X106637300Y-48807000D01*
X103017400Y-49464800D02*
X103017400Y-48790600D01*
X95055600Y-61008000D02*
X96859000Y-59204600D01*
D66*
%TO.N,Net-(CARD1-DAT1)*%
X105630000Y-52107000D02*
X104036000Y-53701000D01*
X104036000Y-53701000D02*
X103726000Y-53701000D01*
X106637300Y-52107000D02*
X105630000Y-52107000D01*
%TO.N,Net-(CARD1-CD{slash}DAT3)*%
X102199300Y-41771000D02*
X105935300Y-45507000D01*
X101161000Y-41771000D02*
X102199300Y-41771000D01*
X105935300Y-45507000D02*
X106637300Y-45507000D01*
D64*
%TO.N,VBAT*%
X44576000Y-43700550D02*
X44576000Y-51980950D01*
X45815250Y-53220200D02*
X47701850Y-53220200D01*
X41913450Y-42092367D02*
X41898250Y-42077167D01*
X42952617Y-42077167D02*
X44576000Y-43700550D01*
X41898250Y-42077167D02*
X42952617Y-42077167D01*
X44576000Y-51980950D02*
X45815250Y-53220200D01*
D63*
%TO.N,Net-(U7-BOOST)*%
X39963150Y-64328600D02*
X39963150Y-66194500D01*
X39963150Y-66194500D02*
X39237050Y-66920600D01*
%TO.N,Net-(U7-INTVcc)*%
X39463150Y-64328600D02*
X39463150Y-65056600D01*
X39463150Y-65056600D02*
X38901150Y-65618600D01*
%TO.N,D34*%
X45603000Y-29672200D02*
X45576400Y-29645600D01*
X52562200Y-29672200D02*
X52570000Y-29664400D01*
X48675200Y-29672200D02*
X52562200Y-29672200D01*
X40267800Y-35116000D02*
X43839800Y-35116000D01*
X41404200Y-29696400D02*
X40267800Y-30832800D01*
X43839800Y-35116000D02*
X45297000Y-36573200D01*
X48675200Y-29672200D02*
X48624400Y-29621400D01*
X48675200Y-29672200D02*
X48632600Y-29629600D01*
X40267800Y-30832800D02*
X40267800Y-35116000D01*
X48675200Y-29672200D02*
X45603000Y-29672200D01*
X45576400Y-29696400D02*
X41404200Y-29696400D01*
X52468400Y-29664400D02*
X52519200Y-29715200D01*
D64*
%TO.N,EXT_5V*%
X49701850Y-54170200D02*
X49726850Y-54195200D01*
D65*
X45716000Y-73086200D02*
X46180800Y-73086200D01*
X35516000Y-67081000D02*
X35516000Y-64701000D01*
X41001950Y-72672150D02*
X41416000Y-73086200D01*
X38665150Y-69987400D02*
X38665150Y-69418200D01*
X41001950Y-73080250D02*
X40996000Y-73086200D01*
X40996000Y-73086200D02*
X41416000Y-73086200D01*
D63*
X32698600Y-97965000D02*
X34408100Y-97965000D01*
D65*
X46180800Y-73086200D02*
X46466000Y-72801000D01*
X38422400Y-69987400D02*
X35516000Y-67081000D01*
X38665150Y-69987400D02*
X38665150Y-73086200D01*
X38665150Y-73086200D02*
X40426000Y-73086200D01*
D64*
X49701850Y-56319000D02*
X49701850Y-54170200D01*
D65*
X41416000Y-73086200D02*
X45716000Y-73086200D01*
X47011200Y-73086200D02*
X47026325Y-73101325D01*
D64*
X52159600Y-54170200D02*
X52205800Y-54216400D01*
D65*
X38665150Y-76921950D02*
X38667600Y-76924400D01*
D63*
X34408100Y-97965000D02*
X34413100Y-97960000D01*
D65*
X45716000Y-73086200D02*
X47011200Y-73086200D01*
D64*
X47026325Y-73101325D02*
X47026325Y-73090775D01*
X49701850Y-54170200D02*
X52159600Y-54170200D01*
D65*
X35536000Y-64701000D02*
X36640100Y-63596900D01*
X36640100Y-63596900D02*
X38713150Y-63596900D01*
D64*
X34400400Y-97947300D02*
X34413100Y-97960000D01*
D65*
X38665150Y-69987400D02*
X38422400Y-69987400D01*
X46374450Y-72171000D02*
X46374450Y-72449450D01*
X40426000Y-73086200D02*
X40586750Y-73086200D01*
D64*
X76818400Y-69999600D02*
X70341400Y-69999600D01*
D65*
X46374450Y-70552800D02*
X46374450Y-72171000D01*
X40586750Y-73086200D02*
X41001950Y-72671000D01*
D64*
X34400400Y-94957900D02*
X34400400Y-97947300D01*
X46948025Y-73101325D02*
X47026325Y-73101325D01*
D63*
X40463150Y-68483400D02*
X41001950Y-69022200D01*
D64*
X70341400Y-69999600D02*
X70316000Y-70025000D01*
D65*
X46374450Y-72427750D02*
X45716000Y-73086200D01*
X46374450Y-72171000D02*
X46374450Y-72427750D01*
X38665150Y-73086200D02*
X38665150Y-76921950D01*
D67*
X38665150Y-73086200D02*
X38675550Y-73075800D01*
D63*
X41001950Y-69327000D02*
X41001950Y-69022200D01*
D64*
X76843800Y-69974200D02*
X76818400Y-69999600D01*
D63*
X40463150Y-64328600D02*
X40463150Y-68483400D01*
D65*
X41001950Y-72671000D02*
X41001950Y-73080250D01*
D64*
X41001950Y-69022200D02*
X40996000Y-69028150D01*
D65*
X41001950Y-72671000D02*
X41001950Y-72672150D01*
X35516000Y-64701000D02*
X35536000Y-64701000D01*
X46374450Y-72449450D02*
X47026325Y-73101325D01*
X41001950Y-72671000D02*
X41001950Y-69022200D01*
X40426000Y-73086200D02*
X40996000Y-73086200D01*
D63*
%TO.N,/Buck-Boost3.3V/Buck-Boost_EN*%
X59746000Y-70801000D02*
X54806000Y-70801000D01*
X46653850Y-58783450D02*
X46653850Y-57741800D01*
X51276000Y-61703800D02*
X49005400Y-59433200D01*
X63386200Y-67160800D02*
X59746000Y-70801000D01*
X51276000Y-67271000D02*
X51276000Y-61703800D01*
X47303600Y-59433200D02*
X46653850Y-58783450D01*
X63386200Y-66826000D02*
X63386200Y-67160800D01*
X54806000Y-70801000D02*
X51276000Y-67271000D01*
X49005400Y-59433200D02*
X47303600Y-59433200D01*
%TO.N,Net-(U5-L2)*%
X65172500Y-63027300D02*
X64904700Y-63027300D01*
X64886200Y-63045800D02*
X64886200Y-63823800D01*
X64904700Y-63027300D02*
X64886200Y-63045800D01*
X64893100Y-63306700D02*
X65172500Y-63027300D01*
%TO.N,Net-(U5-L1)*%
X63585000Y-63014600D02*
X63889800Y-63014600D01*
X63864400Y-63294000D02*
X63585000Y-63014600D01*
X63889800Y-63014600D02*
X63886200Y-63018200D01*
X63886200Y-63018200D02*
X63886200Y-63826000D01*
%TO.N,D12*%
X87918200Y-46453800D02*
X91906000Y-42466000D01*
X54913100Y-40038100D02*
X54699400Y-39824400D01*
X76046000Y-48409600D02*
X77428000Y-48409600D01*
X54699400Y-39824400D02*
X52570000Y-39824400D01*
X79383800Y-46453800D02*
X87918200Y-46453800D01*
X77428000Y-48409600D02*
X79383800Y-46453800D01*
%TO.N,D13*%
X77557200Y-50083800D02*
X86826000Y-50083800D01*
X77529600Y-50111400D02*
X77557200Y-50083800D01*
X53933000Y-42364400D02*
X52570000Y-42364400D01*
X55355400Y-43786800D02*
X53933000Y-42364400D01*
%TO.N,D4*%
X84006000Y-33169600D02*
X82533400Y-33169600D01*
X82533400Y-33169600D02*
X77148600Y-38554400D01*
X77148600Y-38554400D02*
X70570000Y-38554400D01*
%TO.N,D26*%
X78723400Y-52651400D02*
X89382800Y-52651400D01*
X55812600Y-35963600D02*
X55787200Y-35989000D01*
X74266000Y-46471000D02*
X74266000Y-48194000D01*
X52595400Y-35989000D02*
X52570000Y-36014400D01*
X74266000Y-48194000D02*
X78723400Y-52651400D01*
X55787200Y-35989000D02*
X52595400Y-35989000D01*
X72966000Y-45171000D02*
X74266000Y-46471000D01*
X89382800Y-52651400D02*
X94446000Y-57714600D01*
%TO.N,D27*%
X88519200Y-54327800D02*
X78367800Y-54327800D01*
X54025000Y-37284400D02*
X52570000Y-37284400D01*
X88519200Y-54327800D02*
X91906000Y-57714600D01*
X71713000Y-47682600D02*
X71722600Y-47682600D01*
X71722600Y-47682600D02*
X78367800Y-54327800D01*
X54568000Y-37827400D02*
X54025000Y-37284400D01*
%TO.N,D22*%
X75422600Y-25854400D02*
X70570000Y-25854400D01*
X76466000Y-24811000D02*
X75422600Y-25854400D01*
X77496000Y-24811000D02*
X76466000Y-24811000D01*
%TO.N,D23*%
X72983000Y-24584400D02*
X70570000Y-24584400D01*
X73226200Y-24341200D02*
X72983000Y-24584400D01*
%TO.N,D21*%
X73211600Y-29664400D02*
X70570000Y-29664400D01*
%TO.N,D5*%
X75497600Y-34744400D02*
X70570000Y-34744400D01*
X77466100Y-32775900D02*
X75497600Y-34744400D01*
%TO.N,D19*%
X73084600Y-32204400D02*
X70570000Y-32204400D01*
X77128000Y-28161000D02*
X73084600Y-32204400D01*
%TO.N,D18*%
X73326000Y-33474400D02*
X70570000Y-33474400D01*
%TO.N,D33*%
X60892600Y-37436800D02*
X58987600Y-37436800D01*
X58987600Y-37436800D02*
X55025200Y-33474400D01*
X55025200Y-33474400D02*
X52570000Y-33474400D01*
%TO.N,D35*%
X54517200Y-30020000D02*
X53602800Y-30934400D01*
X53602800Y-30934400D02*
X52570000Y-30934400D01*
X54517200Y-29232600D02*
X54517200Y-30020000D01*
%TO.N,D32*%
X54936000Y-31511000D02*
X54242600Y-32204400D01*
X54242600Y-32204400D02*
X52570000Y-32204400D01*
%TO.N,DP*%
X32428500Y-87433700D02*
X31071000Y-87433700D01*
X36976000Y-87746700D02*
X36976000Y-88436700D01*
X30946000Y-88193700D02*
X31186000Y-88433700D01*
X30946000Y-87558700D02*
X30946000Y-88193700D01*
X33484000Y-87433700D02*
X33613000Y-87304700D01*
X33613000Y-87304700D02*
X36534000Y-87304700D01*
X31071000Y-87433700D02*
X30946000Y-87558700D01*
X31186000Y-88433700D02*
X32428500Y-88433700D01*
X36534000Y-87304700D02*
X36976000Y-87746700D01*
X32428500Y-87433700D02*
X33484000Y-87433700D01*
%TO.N,DN*%
X34121000Y-88436700D02*
X35076000Y-88436700D01*
X33856000Y-88436700D02*
X34121000Y-88436700D01*
X34121000Y-88701700D02*
X33740000Y-89082700D01*
X34121000Y-88436700D02*
X34121000Y-88701700D01*
X32428500Y-86933700D02*
X33222000Y-86933700D01*
X33353000Y-87933700D02*
X33856000Y-88436700D01*
X33222000Y-86933700D02*
X33740000Y-86415700D01*
X32428500Y-87933700D02*
X33353000Y-87933700D01*
%TO.N,Net-(LED1-K)*%
X34336900Y-63078100D02*
X38713150Y-63078100D01*
X33990500Y-63424500D02*
X34336900Y-63078100D01*
X33990500Y-64467100D02*
X33990500Y-63424500D01*
%TO.N,Net-(LED1-A)*%
X33997500Y-68277750D02*
X35707150Y-69987400D01*
X33997500Y-66066100D02*
X33997500Y-68277750D01*
%TO.N,Net-(LED2-A)*%
X31584500Y-70917500D02*
X33753200Y-73086200D01*
X33753200Y-73086200D02*
X35707150Y-73086200D01*
X31584500Y-66049300D02*
X31584500Y-70917500D01*
%TO.N,Net-(LED2-K)*%
X38246298Y-62533100D02*
X38259298Y-62546100D01*
X38187383Y-62533100D02*
X38246298Y-62533100D01*
X38681150Y-62546100D02*
X38713150Y-62578100D01*
X38259298Y-62546100D02*
X38681150Y-62546100D01*
X37957683Y-62303400D02*
X38187383Y-62533100D01*
X31577500Y-64450300D02*
X31577500Y-64313850D01*
X31577500Y-63153906D02*
X32428006Y-62303400D01*
X31577500Y-64450300D02*
X31577500Y-63153906D01*
X32428006Y-62303400D02*
X37957683Y-62303400D01*
D64*
%TO.N,Net-(U7-CHGSNS)*%
X45624750Y-61398600D02*
X44097150Y-61398600D01*
D63*
%TO.N,RTS*%
X44146000Y-84804716D02*
X44706716Y-84244000D01*
X44146000Y-85258700D02*
X44146000Y-84804716D01*
X47671900Y-82450000D02*
X49841900Y-82450000D01*
X49841900Y-82450000D02*
X49907100Y-82384800D01*
X47671900Y-82450000D02*
X47211916Y-82450000D01*
X47671900Y-83786800D02*
X47671900Y-82450000D01*
X44706716Y-84244000D02*
X47214700Y-84244000D01*
X47214700Y-84244000D02*
X47671900Y-83786800D01*
%TO.N,Net-(Q1-B)*%
X49907100Y-79672000D02*
X49907100Y-80566000D01*
X45182700Y-79570400D02*
X45538300Y-79214800D01*
X45182700Y-80434000D02*
X45182700Y-79570400D01*
X45538300Y-79214800D02*
X49449900Y-79214800D01*
X49449900Y-79214800D02*
X49907100Y-79672000D01*
%TO.N,Net-(Q2-B)*%
X42947500Y-81653200D02*
X42947500Y-82298400D01*
X46671900Y-81450000D02*
X43150700Y-81450000D01*
X43150700Y-81450000D02*
X42947500Y-81653200D01*
X47671900Y-80450000D02*
X46671900Y-81450000D01*
%TO.N,DTR*%
X41563200Y-84172800D02*
X41563200Y-83766400D01*
X41568100Y-83766400D02*
X41563200Y-83766400D01*
X41685200Y-83278800D02*
X41639400Y-83233000D01*
X42477600Y-83278800D02*
X44959100Y-83278800D01*
X41563200Y-83309200D02*
X41563200Y-82750400D01*
X41794250Y-83540250D02*
X41568100Y-83766400D01*
X41685200Y-83278800D02*
X41685200Y-83431200D01*
X41563200Y-83055200D02*
X41563200Y-82605700D01*
X41741000Y-83131400D02*
X41817200Y-83055200D01*
X41563200Y-80731100D02*
X41895900Y-80398400D01*
X41895900Y-80398400D02*
X42947500Y-80398400D01*
X41563200Y-82605700D02*
X41563200Y-80731100D01*
X41794250Y-83540250D02*
X42055700Y-83278800D01*
X41563200Y-82750400D02*
X41563200Y-82605700D01*
X45182700Y-83055200D02*
X45182700Y-82434000D01*
X44959100Y-83278800D02*
X45182700Y-83055200D01*
X41563200Y-83766400D02*
X41563200Y-83309200D01*
X42146000Y-84755600D02*
X41563200Y-84172800D01*
X42146000Y-85258700D02*
X42146000Y-84755600D01*
X42477600Y-83278800D02*
X41685200Y-83278800D01*
X41817200Y-83055200D02*
X41639400Y-83233000D01*
X42091600Y-83278800D02*
X41563200Y-82750400D01*
X41563200Y-82740400D02*
X41563200Y-82605700D01*
X42236300Y-83278800D02*
X42477600Y-83278800D01*
X41639400Y-83233000D02*
X41563200Y-83309200D01*
X42055700Y-83278800D02*
X42236300Y-83278800D01*
X42236300Y-83278800D02*
X42091600Y-83278800D01*
X41685200Y-83431200D02*
X41794250Y-83540250D01*
%TO.N,Net-(Q3-G)*%
X33181200Y-29562800D02*
X37346800Y-29562800D01*
X37905600Y-30121600D02*
X37905600Y-30915600D01*
X32751050Y-29992950D02*
X33181200Y-29562800D01*
X37940000Y-30881200D02*
X37905600Y-30915600D01*
X37346800Y-29562800D02*
X37905600Y-30121600D01*
X32751050Y-30927967D02*
X32751050Y-29992950D01*
%TO.N,Net-(Q3-D)*%
X30293450Y-36077567D02*
X31470850Y-34900167D01*
X31470850Y-34900167D02*
X31597850Y-34773167D01*
X31597850Y-34773167D02*
X31801050Y-34569967D01*
X32074250Y-34843167D02*
X31801050Y-34569967D01*
X34258650Y-36143567D02*
X33374650Y-36143567D01*
X31801050Y-34569967D02*
X31801050Y-32927967D01*
X31527850Y-34843167D02*
X31470850Y-34900167D01*
X31667850Y-34843167D02*
X32074250Y-34843167D01*
X32074250Y-34843167D02*
X31527850Y-34843167D01*
X29311850Y-36077567D02*
X30293450Y-36077567D01*
X33374650Y-36143567D02*
X32074250Y-34843167D01*
X31597850Y-34773167D02*
X31667850Y-34843167D01*
%TO.N,Net-(Q4-D)*%
X40502334Y-37116000D02*
X36751083Y-37116000D01*
X36751083Y-37116000D02*
X36728650Y-37093567D01*
X40524767Y-37093567D02*
X40502334Y-37116000D01*
%TO.N,Net-(U3-VBUS)*%
X42146000Y-90158700D02*
X42146000Y-92748300D01*
X42242400Y-92772300D02*
X42258400Y-92756300D01*
X42258400Y-92756300D02*
X44814400Y-92756300D01*
X42146000Y-92748300D02*
X42122000Y-92772300D01*
X42157600Y-92757100D02*
X42172800Y-92772300D01*
X42172800Y-92772300D02*
X42242400Y-92772300D01*
%TO.N,Net-(R5-Pad1)*%
X47456000Y-94791100D02*
X50148400Y-94791100D01*
%TO.N,Net-(U3-~{RST})*%
X42985600Y-91673500D02*
X47151200Y-91673500D01*
X47456000Y-91978300D02*
X47456000Y-92791100D01*
X47151200Y-91673500D02*
X47456000Y-91978300D01*
X42646000Y-91333900D02*
X42985600Y-91673500D01*
X42646000Y-90158700D02*
X42646000Y-91333900D01*
%TO.N,Net-(U3-~{SUSPEND})*%
X52282000Y-91216300D02*
X52790000Y-91724300D01*
X43953000Y-91216300D02*
X52282000Y-91216300D01*
X52790000Y-91724300D02*
X52790000Y-92791100D01*
X43646000Y-90913700D02*
X43950800Y-91218500D01*
X43950800Y-91218500D02*
X43953000Y-91216300D01*
X43646000Y-90158700D02*
X43646000Y-90913700D01*
%TO.N,Net-(U7-FB)*%
X40463150Y-57214200D02*
X40552750Y-57124600D01*
D65*
X40552750Y-57124600D02*
X39081950Y-57124600D01*
D63*
X40463150Y-61328600D02*
X40463150Y-57214200D01*
D65*
%TO.N,Net-(U7-FBG)*%
X39081950Y-57990600D02*
X39081950Y-59306200D01*
X39081950Y-59306200D02*
X39957350Y-60181600D01*
D63*
X39963150Y-60834906D02*
X39963150Y-61328600D01*
D65*
X39957350Y-60181600D02*
X39957350Y-60829106D01*
D63*
X39963150Y-60906748D02*
X39963150Y-61328600D01*
%TO.N,Net-(U7-MPPT)*%
X42723450Y-63078600D02*
X42843850Y-62958200D01*
X41713150Y-63078600D02*
X42723450Y-63078600D01*
%TO.N,Net-(U7-PROG)*%
X37496750Y-61199000D02*
X37496750Y-60589400D01*
X38713150Y-62078100D02*
X38375850Y-62078100D01*
X38375850Y-62078100D02*
X37496750Y-61199000D01*
%TO.N,D25*%
X37905600Y-32915600D02*
X37905600Y-34693600D01*
X37905600Y-34693600D02*
X37956400Y-34744400D01*
X52570000Y-34744400D02*
X48472000Y-34744400D01*
%TO.N,D+*%
X39479000Y-87709700D02*
X37931000Y-86161700D01*
X39480000Y-87708700D02*
X39479000Y-87709700D01*
X41196000Y-87708700D02*
X39480000Y-87708700D01*
X37931000Y-86161700D02*
X36976000Y-86161700D01*
%TO.N,D-*%
X35076000Y-86161700D02*
X35076000Y-84811951D01*
X35076000Y-84811951D02*
X35069949Y-84805900D01*
X41196000Y-88208700D02*
X38454000Y-88208700D01*
X38454000Y-88208700D02*
X38439000Y-88193700D01*
X38455000Y-88209700D02*
X38439000Y-88193700D01*
%TO.N,TXD0*%
X33917800Y-52372000D02*
X37550000Y-52372000D01*
X70570000Y-27124400D02*
X68157000Y-27124400D01*
X68157000Y-27124400D02*
X66607600Y-25575000D01*
X43658133Y-84095267D02*
X43646000Y-84107400D01*
X33892400Y-52346600D02*
X33917800Y-52372000D01*
X43646000Y-84107400D02*
X43646000Y-85258700D01*
X43658133Y-84005800D02*
X43658133Y-84095267D01*
%TO.N,RXD0*%
X67649000Y-28394400D02*
X70570000Y-28394400D01*
X42630000Y-84005800D02*
X43146000Y-84521800D01*
X43146000Y-84521800D02*
X43146000Y-85258700D01*
X67642400Y-28401000D02*
X67649000Y-28394400D01*
D64*
%TO.N,/Battery_Charger_LiFePO4_3.6V/Battery_Charger_OUTPUT*%
X32647800Y-42077167D02*
X33293450Y-42077167D01*
D63*
X31515450Y-41497967D02*
X29311850Y-39294367D01*
D65*
X41418750Y-58813750D02*
X41706000Y-59101000D01*
D64*
X38068650Y-42077167D02*
X37763850Y-42077167D01*
X39698250Y-42077167D02*
X38373450Y-42077167D01*
D63*
X31515450Y-41772367D02*
X31835450Y-42092367D01*
D65*
X45703850Y-55318850D02*
X37235450Y-46850450D01*
D63*
X31850650Y-42077167D02*
X33383199Y-42077167D01*
X36189050Y-42077167D02*
X37235450Y-42077167D01*
X32647800Y-42077167D02*
X32394250Y-41823617D01*
X32394250Y-42077167D02*
X32150450Y-41833367D01*
D64*
X36951050Y-42077167D02*
X36697050Y-42077167D01*
D65*
X37235450Y-42605567D02*
X37763850Y-42077167D01*
D64*
X31515450Y-42412367D02*
X31835450Y-42092367D01*
D63*
X32394250Y-41533567D02*
X32506050Y-41421767D01*
D64*
X31850650Y-42077167D02*
X32647800Y-42077167D01*
D63*
X32709250Y-41218567D02*
X34258650Y-39669167D01*
X36697050Y-42077167D02*
X37235450Y-42615567D01*
X31515450Y-41497967D02*
X31515450Y-41772367D01*
X32394250Y-42077167D02*
X32394250Y-41653200D01*
D64*
X36697050Y-42077167D02*
X36189050Y-42077167D01*
D63*
X29311850Y-39294367D02*
X29311850Y-38077567D01*
D65*
X38106217Y-49829167D02*
X41418750Y-53141700D01*
D63*
X33268050Y-42102567D02*
X33293450Y-42077167D01*
D64*
X37763850Y-42077167D02*
X36951050Y-42077167D01*
D65*
X41418750Y-53141700D02*
X41418750Y-54160400D01*
X41410800Y-57132550D02*
X41418750Y-57124600D01*
X41706000Y-59580550D02*
X41706000Y-59101000D01*
X28738250Y-49857567D02*
X28766650Y-49829167D01*
D63*
X31835450Y-42092367D02*
X32516250Y-42092367D01*
X31794850Y-41777367D02*
X32150450Y-41777367D01*
D65*
X40981950Y-61328600D02*
X40981950Y-60304600D01*
D64*
X38373450Y-42077167D02*
X38068650Y-42077167D01*
D63*
X32394250Y-41823617D02*
X32394250Y-41653200D01*
X31835450Y-42092367D02*
X31850650Y-42077167D01*
D65*
X41418750Y-54160400D02*
X41418750Y-57124600D01*
D64*
X31850650Y-42077167D02*
X36189050Y-42077167D01*
D65*
X28766650Y-49829167D02*
X38106217Y-49829167D01*
X37235450Y-46850450D02*
X37235450Y-42605567D01*
X40981950Y-60304600D02*
X41706000Y-59580550D01*
D63*
X37235450Y-42361567D02*
X36951050Y-42077167D01*
X32709250Y-41218567D02*
X32506050Y-41421767D01*
D64*
X28738250Y-49857567D02*
X28738250Y-45189567D01*
D63*
X31515450Y-41497967D02*
X31794850Y-41777367D01*
X32394250Y-41653200D02*
X32394250Y-41533567D01*
D64*
X28738250Y-45189567D02*
X31515450Y-42412367D01*
D65*
X41418750Y-57124600D02*
X41418750Y-58813750D01*
D63*
X31515450Y-42412367D02*
X31515450Y-41772367D01*
D65*
X45703850Y-55741800D02*
X45703850Y-55318850D01*
D63*
X34258650Y-39669167D02*
X34258650Y-38043567D01*
X32150450Y-41777367D02*
X32709250Y-41218567D01*
X32150450Y-41833367D02*
X32150450Y-41777367D01*
X31835450Y-42092367D02*
X32150450Y-41777367D01*
X31835450Y-42092367D02*
X32506050Y-41421767D01*
%TO.N,/Buck-Boost3.3V/Buck-Boost_INPUT*%
X63386200Y-63826000D02*
X63386200Y-63527000D01*
D64*
X49702050Y-52270400D02*
X49701850Y-52270200D01*
D63*
X63814575Y-67770560D02*
X64116440Y-67770560D01*
D64*
X55984050Y-52670450D02*
X55984050Y-53241950D01*
X55634800Y-53057800D02*
X55279200Y-52702200D01*
X49701850Y-52270200D02*
X49981050Y-51991000D01*
X55984050Y-52670450D02*
X55310950Y-52670450D01*
X55310950Y-52670450D02*
X55279200Y-52702200D01*
X55279200Y-52702200D02*
X54568000Y-51991000D01*
X52231200Y-51991000D02*
X52205800Y-52016400D01*
D63*
X63814575Y-67770560D02*
X63886200Y-67698935D01*
X63386200Y-63527000D02*
X63381800Y-63522600D01*
D64*
X54568000Y-51991000D02*
X52231200Y-51991000D01*
D63*
X64116440Y-67770560D02*
X64386200Y-67500800D01*
D64*
X55984050Y-52670450D02*
X56790500Y-51864000D01*
D63*
X63886200Y-67698935D02*
X63886200Y-66826000D01*
X63381800Y-64183000D02*
X63386200Y-64178600D01*
D64*
X49981050Y-51991000D02*
X52180400Y-51991000D01*
X52180400Y-51991000D02*
X52205800Y-52016400D01*
X55984050Y-53241950D02*
X55901500Y-53324500D01*
D63*
X63386200Y-63826000D02*
X63386200Y-64178600D01*
X64386200Y-67500800D02*
X64386200Y-66826000D01*
D64*
X55634800Y-53057800D02*
X55634800Y-53019700D01*
X55634800Y-53019700D02*
X55984050Y-52670450D01*
X56765100Y-54188100D02*
X55901500Y-53324500D01*
X55901500Y-53324500D02*
X55634800Y-53057800D01*
%TD*%
%TA.AperFunction,Conductor*%
%TO.N,Net-(U5-L1)*%
G36*
X63605340Y-56348258D02*
G01*
X63626518Y-56363074D01*
X63963480Y-56645336D01*
X64007771Y-56708476D01*
X64016800Y-56759555D01*
X64016800Y-63126911D01*
X63996838Y-63201411D01*
X63942300Y-63255949D01*
X63867800Y-63275911D01*
X63793300Y-63255949D01*
X63762441Y-63232270D01*
X63678964Y-63148793D01*
X63576194Y-63103416D01*
X63576191Y-63103415D01*
X63551065Y-63100500D01*
X63551059Y-63100500D01*
X63477850Y-63100500D01*
X63439452Y-63095467D01*
X63438081Y-63095100D01*
X63438073Y-63095100D01*
X63428708Y-63092602D01*
X63428663Y-63092576D01*
X63428643Y-63092571D01*
X63428644Y-63092565D01*
X63403049Y-63077826D01*
X63375754Y-63066344D01*
X63367483Y-63059430D01*
X62245997Y-62050996D01*
X61224311Y-61179615D01*
X61180581Y-61116082D01*
X61172000Y-61066248D01*
X61172000Y-56766819D01*
X61191962Y-56692319D01*
X61234574Y-56645446D01*
X61641206Y-56355917D01*
X61713470Y-56328970D01*
X61727625Y-56328296D01*
X63530840Y-56328296D01*
X63605340Y-56348258D01*
G37*
%TD.AperFunction*%
%TD*%
%TA.AperFunction,Conductor*%
%TO.N,GND*%
G36*
X63473677Y-27118685D02*
G01*
X63494319Y-27135319D01*
X64183681Y-27824681D01*
X64217166Y-27886004D01*
X64220000Y-27912362D01*
X64220000Y-33702438D01*
X64200315Y-33769477D01*
X64183681Y-33790119D01*
X63545119Y-34428681D01*
X63483796Y-34462166D01*
X63457438Y-34465000D01*
X57667362Y-34465000D01*
X57600323Y-34445315D01*
X57579681Y-34428681D01*
X56890319Y-33739319D01*
X56856834Y-33677996D01*
X56854000Y-33651638D01*
X56854000Y-27963162D01*
X56873685Y-27896123D01*
X56890319Y-27875481D01*
X57630481Y-27135319D01*
X57691804Y-27101834D01*
X57718162Y-27099000D01*
X63406638Y-27099000D01*
X63473677Y-27118685D01*
G37*
%TD.AperFunction*%
%TD*%
%TA.AperFunction,Conductor*%
%TO.N,Net-(U7-CHGSNS)*%
G36*
X47787900Y-60189762D02*
G01*
X47842438Y-60244300D01*
X47862400Y-60318800D01*
X47862400Y-62324027D01*
X47842438Y-62398527D01*
X47787900Y-62453065D01*
X47713432Y-62473027D01*
X43742621Y-62473884D01*
X43668117Y-62453938D01*
X43613567Y-62399412D01*
X43598714Y-62363625D01*
X43518753Y-62066629D01*
X43516494Y-61998827D01*
X43517427Y-61994133D01*
X43517430Y-61994128D01*
X43544350Y-61858793D01*
X43544350Y-61720807D01*
X43517430Y-61585472D01*
X43464625Y-61457989D01*
X43420244Y-61391569D01*
X43387966Y-61343261D01*
X43387964Y-61343258D01*
X43290392Y-61245686D01*
X43290388Y-61245683D01*
X43175665Y-61169027D01*
X43175659Y-61169024D01*
X43048179Y-61116220D01*
X43048175Y-61116219D01*
X42912843Y-61089300D01*
X42774857Y-61089300D01*
X42639524Y-61116219D01*
X42639520Y-61116220D01*
X42512040Y-61169024D01*
X42512034Y-61169027D01*
X42397311Y-61245683D01*
X42397304Y-61245689D01*
X42299739Y-61343254D01*
X42299733Y-61343261D01*
X42223077Y-61457984D01*
X42223074Y-61457990D01*
X42170270Y-61585470D01*
X42170269Y-61585474D01*
X42143350Y-61720806D01*
X42143350Y-61720807D01*
X42143350Y-61858793D01*
X42145479Y-61869496D01*
X42145546Y-61869833D01*
X42143331Y-61903616D01*
X42143331Y-61937460D01*
X42140827Y-61941795D01*
X42140500Y-61946795D01*
X42104768Y-62004256D01*
X42014568Y-62094458D01*
X41947774Y-62133023D01*
X41909208Y-62138100D01*
X41432800Y-62138100D01*
X41358300Y-62118138D01*
X41303762Y-62063600D01*
X41283800Y-61989100D01*
X41283800Y-61951143D01*
X41303762Y-61876643D01*
X41314597Y-61860428D01*
X41315628Y-61859082D01*
X41315638Y-61859073D01*
X41373631Y-61758627D01*
X41403650Y-61646593D01*
X41403650Y-61594718D01*
X41423612Y-61520218D01*
X41423613Y-61520216D01*
X41427654Y-61513217D01*
X41460250Y-61391569D01*
X41460250Y-61238735D01*
X41469149Y-61188013D01*
X41802198Y-60268078D01*
X41846329Y-60204823D01*
X41916175Y-60172108D01*
X41942299Y-60169800D01*
X47713400Y-60169800D01*
X47787900Y-60189762D01*
G37*
%TD.AperFunction*%
%TD*%
%TA.AperFunction,Conductor*%
%TO.N,Net-(U7-SW)*%
G36*
X43445902Y-66585235D02*
G01*
X43408235Y-66652540D01*
X43341962Y-66691994D01*
X43301476Y-66697600D01*
X42740099Y-66697600D01*
X42665599Y-66677638D01*
X42611061Y-66623100D01*
X42591099Y-66548600D01*
X42591099Y-66476208D01*
X42593963Y-66447133D01*
X42596100Y-66436393D01*
X42596100Y-66298407D01*
X42593962Y-66287658D01*
X42591099Y-66258589D01*
X42591099Y-66052533D01*
X42588185Y-66027410D01*
X42588184Y-66027407D01*
X42542806Y-65924635D01*
X42462038Y-65843867D01*
X42431862Y-65800405D01*
X42286000Y-65481000D01*
X43726000Y-65481000D01*
X43445902Y-66585235D01*
G37*
%TD.AperFunction*%
%TD*%
%TA.AperFunction,Conductor*%
%TO.N,GND*%
G36*
X64470398Y-64377932D02*
G01*
X64509129Y-64416663D01*
X64512529Y-64421627D01*
X64515804Y-64430922D01*
X64520583Y-64436500D01*
X64523765Y-64453518D01*
X64538159Y-64494372D01*
X64538600Y-64505825D01*
X64538600Y-64538600D01*
X64642269Y-64538627D01*
X64684856Y-64547620D01*
X64685395Y-64545643D01*
X64696204Y-64548584D01*
X64696207Y-64548584D01*
X64696209Y-64548585D01*
X64721335Y-64551500D01*
X65051064Y-64551499D01*
X65051066Y-64551499D01*
X65058243Y-64550666D01*
X65076191Y-64548585D01*
X65076198Y-64548581D01*
X65077766Y-64548156D01*
X65079966Y-64548147D01*
X65087325Y-64547294D01*
X65087420Y-64548118D01*
X65154893Y-64547856D01*
X65191385Y-64562888D01*
X65223391Y-64581367D01*
X65332118Y-64610500D01*
X65444679Y-64610500D01*
X65444681Y-64610500D01*
X65501869Y-64595176D01*
X65540431Y-64590100D01*
X73065530Y-64590100D01*
X73067654Y-64589950D01*
X73069049Y-64589853D01*
X73144764Y-64604550D01*
X73202986Y-64655136D01*
X73223671Y-64700934D01*
X73608243Y-66177538D01*
X73608288Y-66252472D01*
X73192090Y-67858352D01*
X73154075Y-67925462D01*
X73153685Y-67925856D01*
X72361317Y-68725364D01*
X72294696Y-68764228D01*
X72276323Y-68768015D01*
X70589826Y-69006199D01*
X70550135Y-69006465D01*
X68674679Y-68767210D01*
X68603304Y-68737981D01*
X68590543Y-68727082D01*
X65884800Y-66138800D01*
X65626142Y-66138800D01*
X65582482Y-66129590D01*
X65582002Y-66131357D01*
X65571191Y-66128415D01*
X65571182Y-66128414D01*
X65546065Y-66125500D01*
X65546059Y-66125500D01*
X65226333Y-66125500D01*
X65201210Y-66128414D01*
X65190395Y-66131357D01*
X65189914Y-66129590D01*
X65146258Y-66138800D01*
X65110718Y-66138800D01*
X65101761Y-66136400D01*
X65046600Y-66136400D01*
X64741800Y-66136400D01*
X64695912Y-66136400D01*
X64677682Y-66138800D01*
X64626142Y-66138800D01*
X64582482Y-66129590D01*
X64582002Y-66131357D01*
X64571191Y-66128415D01*
X64571182Y-66128414D01*
X64546065Y-66125500D01*
X64546059Y-66125500D01*
X64226333Y-66125500D01*
X64201210Y-66128414D01*
X64190395Y-66131357D01*
X64189914Y-66129590D01*
X64146258Y-66138800D01*
X64126142Y-66138800D01*
X64082482Y-66129590D01*
X64082002Y-66131357D01*
X64071191Y-66128415D01*
X64071182Y-66128414D01*
X64046065Y-66125500D01*
X64046059Y-66125500D01*
X63726333Y-66125500D01*
X63701210Y-66128414D01*
X63690395Y-66131357D01*
X63689914Y-66129590D01*
X63646258Y-66138800D01*
X63626142Y-66138800D01*
X63582482Y-66129590D01*
X63582002Y-66131357D01*
X63571191Y-66128415D01*
X63571182Y-66128414D01*
X63546065Y-66125500D01*
X63546059Y-66125500D01*
X63226333Y-66125500D01*
X63201210Y-66128414D01*
X63190395Y-66131357D01*
X63189914Y-66129590D01*
X63146258Y-66138800D01*
X62938400Y-66138800D01*
X62924600Y-66138800D01*
X61812752Y-67432412D01*
X60712548Y-68712476D01*
X60648849Y-68755963D01*
X60620483Y-68762877D01*
X58905560Y-69006224D01*
X58866393Y-69006582D01*
X56877400Y-68761337D01*
X56805903Y-68732408D01*
X56789611Y-68718148D01*
X55750162Y-67665470D01*
X55715006Y-67608417D01*
X55219072Y-66138634D01*
X55214169Y-66061664D01*
X55219069Y-66043376D01*
X55675521Y-64690600D01*
X55718252Y-64626397D01*
X55787364Y-64592158D01*
X55828047Y-64590790D01*
X55828114Y-64589781D01*
X55832981Y-64590100D01*
X63229769Y-64590100D01*
X63268330Y-64595176D01*
X63325519Y-64610500D01*
X63325521Y-64610500D01*
X63438079Y-64610500D01*
X63438081Y-64610500D01*
X63546809Y-64581367D01*
X63579511Y-64562486D01*
X63654010Y-64542521D01*
X63693141Y-64547750D01*
X63696206Y-64548583D01*
X63696209Y-64548585D01*
X63721335Y-64551500D01*
X64051064Y-64551499D01*
X64051066Y-64551499D01*
X64076191Y-64548585D01*
X64087005Y-64545643D01*
X64087543Y-64547620D01*
X64130126Y-64538629D01*
X64233800Y-64538600D01*
X64233800Y-64505825D01*
X64235321Y-64500148D01*
X64234241Y-64494372D01*
X64245213Y-64463229D01*
X64253762Y-64431325D01*
X64259871Y-64421627D01*
X64263271Y-64416663D01*
X64321839Y-64366478D01*
X64397653Y-64352302D01*
X64470398Y-64377932D01*
G37*
%TD.AperFunction*%
%TD*%
%TA.AperFunction,Conductor*%
%TO.N,/Buck-Boost3.3V/Buck-Boost_INPUT*%
G36*
X59625734Y-61446577D02*
G01*
X59664284Y-61460787D01*
X63380021Y-63449856D01*
X63436280Y-63502614D01*
X63458623Y-63576435D01*
X63458700Y-63581218D01*
X63458700Y-63882280D01*
X63460624Y-63889462D01*
X63465700Y-63928022D01*
X63465700Y-64135600D01*
X63445738Y-64210100D01*
X63391200Y-64264638D01*
X63316700Y-64284600D01*
X55832981Y-64284600D01*
X55758481Y-64264638D01*
X55703943Y-64210100D01*
X55691593Y-64182615D01*
X55220259Y-62765159D01*
X55215694Y-62688166D01*
X55223421Y-62662515D01*
X55682049Y-61522935D01*
X55728383Y-61461275D01*
X55786523Y-61433437D01*
X57583296Y-61015604D01*
X57648805Y-61015159D01*
X59625734Y-61446577D01*
G37*
%TD.AperFunction*%
%TD*%
%TA.AperFunction,Conductor*%
%TO.N,Net-(U5-L2)*%
G36*
X67163688Y-56348258D02*
G01*
X67181627Y-56360437D01*
X67541648Y-56645260D01*
X67587687Y-56707136D01*
X67598200Y-56762111D01*
X67598200Y-61067960D01*
X67578238Y-61142460D01*
X67548030Y-61179466D01*
X66576339Y-62040698D01*
X66575682Y-62041277D01*
X65443662Y-63032785D01*
X65376465Y-63066445D01*
X65361150Y-63069700D01*
X65332118Y-63069700D01*
X65223391Y-63098833D01*
X65222992Y-63099062D01*
X65216946Y-63100348D01*
X65215410Y-63100267D01*
X65203139Y-63102610D01*
X65196215Y-63103413D01*
X65196207Y-63103415D01*
X65093435Y-63148793D01*
X65007759Y-63234470D01*
X64940964Y-63273034D01*
X64863836Y-63273034D01*
X64797041Y-63234470D01*
X64758477Y-63167675D01*
X64753400Y-63129111D01*
X64753400Y-56764530D01*
X64773362Y-56690030D01*
X64813039Y-56645301D01*
X64813098Y-56645257D01*
X65196278Y-56358066D01*
X65267865Y-56329360D01*
X65285639Y-56328296D01*
X67089188Y-56328296D01*
X67163688Y-56348258D01*
G37*
%TD.AperFunction*%
%TD*%
%TA.AperFunction,Conductor*%
%TO.N,Net-(U7-SW)*%
G36*
X47791500Y-63308562D02*
G01*
X47846038Y-63363100D01*
X47866000Y-63437600D01*
X47866000Y-65332000D01*
X47846038Y-65406500D01*
X47791500Y-65461038D01*
X47717000Y-65481000D01*
X42286000Y-65481000D01*
X42286000Y-65480999D01*
X40979838Y-64819702D01*
X40922388Y-64768241D01*
X40898366Y-64694950D01*
X40902380Y-64656279D01*
X40902375Y-64656279D01*
X40902403Y-64656060D01*
X40903220Y-64648199D01*
X40903649Y-64646596D01*
X40903650Y-64646592D01*
X40903650Y-64155100D01*
X40923612Y-64080600D01*
X40978150Y-64026062D01*
X41052650Y-64006100D01*
X41232897Y-64006100D01*
X41307397Y-64026062D01*
X41310272Y-64027765D01*
X42401400Y-64691000D01*
X43256000Y-64691000D01*
X43615666Y-63397679D01*
X43654859Y-63331251D01*
X43722015Y-63293319D01*
X43759218Y-63288600D01*
X47717000Y-63288600D01*
X47791500Y-63308562D01*
G37*
%TD.AperFunction*%
%TD*%
%TA.AperFunction,Conductor*%
%TO.N,+3V3*%
G36*
X73185331Y-60923387D02*
G01*
X73607982Y-62494754D01*
X73608689Y-62569426D01*
X73219068Y-64135600D01*
X73210119Y-64171571D01*
X73172762Y-64239048D01*
X73106671Y-64278807D01*
X73065526Y-64284600D01*
X65455699Y-64284600D01*
X65381199Y-64264638D01*
X65326661Y-64210100D01*
X65306699Y-64135600D01*
X65306699Y-63925824D01*
X65311777Y-63887257D01*
X65313700Y-63880081D01*
X65313700Y-63567435D01*
X65333662Y-63492935D01*
X65387100Y-63439040D01*
X69681000Y-60911000D01*
X73180829Y-60911000D01*
X73185331Y-60923387D01*
G37*
%TD.AperFunction*%
%TD*%
%TA.AperFunction,Conductor*%
%TO.N,+3V3*%
G36*
X71485378Y-57141762D02*
G01*
X71539916Y-57196300D01*
X71548196Y-57212967D01*
X72355992Y-59130982D01*
X73176602Y-60899369D01*
X73180829Y-60911000D01*
X69681000Y-60911000D01*
X69681001Y-60910998D01*
X70767086Y-57228649D01*
X70807308Y-57162839D01*
X70875046Y-57125958D01*
X70909999Y-57121800D01*
X71410878Y-57121800D01*
X71485378Y-57141762D01*
G37*
%TD.AperFunction*%
%TD*%
M02*
