%TF.GenerationSoftware,KiCad,Pcbnew,9.0.1*%
%TF.CreationDate,2025-06-13T19:07:15+02:00*%
%TF.ProjectId,MY-ESP32,4d592d45-5350-4333-922e-6b696361645f,1*%
%TF.SameCoordinates,Original*%
%TF.FileFunction,Copper,L4,Bot*%
%TF.FilePolarity,Positive*%
%FSLAX46Y46*%
G04 Gerber Fmt 4.6, Leading zero omitted, Abs format (unit mm)*
G04 Created by KiCad (PCBNEW 9.0.1) date 2025-06-13 19:07:15*
%MOMM*%
%LPD*%
G01*
G04 APERTURE LIST*
%TA.AperFunction,ComponentPad*%
%ADD10R,0.900000X0.900000*%
%TD*%
%TA.AperFunction,ComponentPad*%
%ADD11R,1.800000X1.800000*%
%TD*%
%TA.AperFunction,ComponentPad*%
%ADD12C,1.600000*%
%TD*%
%TA.AperFunction,ComponentPad*%
%ADD13C,1.700000*%
%TD*%
%TA.AperFunction,ComponentPad*%
%ADD14R,1.700000X1.700000*%
%TD*%
%TA.AperFunction,ComponentPad*%
%ADD15C,1.575000*%
%TD*%
%TA.AperFunction,ComponentPad*%
%ADD16R,1.575000X1.575000*%
%TD*%
%TA.AperFunction,ComponentPad*%
%ADD17C,1.400000*%
%TD*%
%TA.AperFunction,ComponentPad*%
%ADD18C,1.800000*%
%TD*%
%TA.AperFunction,ComponentPad*%
%ADD19O,2.500000X1.200000*%
%TD*%
%TA.AperFunction,ComponentPad*%
%ADD20C,3.575000*%
%TD*%
%TA.AperFunction,ViaPad*%
%ADD21C,0.900000*%
%TD*%
%TA.AperFunction,Conductor*%
%ADD22C,0.254000*%
%TD*%
G04 APERTURE END LIST*
D10*
%TO.P,U6,39,GND*%
%TO.N,GND*%
X122450000Y-69040000D03*
X122470000Y-65344400D03*
X122470000Y-70870000D03*
X122470600Y-67197600D03*
X124360000Y-67200000D03*
X124360000Y-69040000D03*
X124360000Y-70900000D03*
X124374400Y-65345400D03*
X126190000Y-65360000D03*
X126200000Y-67210000D03*
X126200000Y-69040000D03*
X126200000Y-70910000D03*
X128090000Y-65344400D03*
X128100000Y-67197600D03*
X128108200Y-69026400D03*
X128110000Y-70900000D03*
%TD*%
D11*
%TO.P,H6,1,1*%
%TO.N,GND*%
X114300000Y-142468600D03*
D12*
%TO.P,H6,2,2*%
%TO.N,EXT_5V*%
X114300000Y-145008600D03*
%TO.P,H6,3,3*%
%TO.N,D32*%
X114300000Y-147548600D03*
%TO.P,H6,4,4*%
%TO.N,D35*%
X114300000Y-150088600D03*
%TO.P,H6,5,5*%
%TO.N,GND*%
X114300000Y-152628600D03*
%TO.P,H6,6,6*%
X114300000Y-155168600D03*
%TD*%
D13*
%TO.P,H4,2,2*%
%TO.N,D14*%
X114300000Y-124637800D03*
D14*
%TO.P,H4,1,1*%
%TO.N,+3V3*%
X114300000Y-122097800D03*
D13*
%TO.P,H4,3,3*%
X114300000Y-127177800D03*
%TO.P,H4,4,4*%
%TO.N,GND*%
X114300000Y-129717800D03*
%TD*%
D15*
%TO.P,H2,3,3*%
%TO.N,D13*%
X121920000Y-122123200D03*
%TO.P,H2,2,2*%
%TO.N,+3V3*%
X121920000Y-124663200D03*
D16*
%TO.P,H2,1,1*%
%TO.N,GND*%
X121920000Y-127203200D03*
%TD*%
D14*
%TO.P,H3,1,1*%
%TO.N,+3V3*%
X137160000Y-129692400D03*
D13*
%TO.P,H3,2,2*%
%TO.N,GND*%
X137160000Y-127152400D03*
%TO.P,H3,3,3*%
%TO.N,IO0*%
X137160000Y-124612400D03*
%TO.P,H3,4,4*%
%TO.N,GND*%
X137160000Y-122072400D03*
%TD*%
D14*
%TO.P,H8,1,1*%
%TO.N,+3V3*%
X137160000Y-134772400D03*
D13*
%TO.P,H8,2,2*%
%TO.N,GND*%
X137160000Y-137312400D03*
%TD*%
D14*
%TO.P,H7,1,1*%
%TO.N,EXT_5V*%
X114300000Y-137312400D03*
D13*
%TO.P,H7,2,2*%
%TO.N,GND*%
X114300000Y-134772400D03*
%TD*%
D17*
%TO.P,U2,1,1*%
%TO.N,/Battery_Voltage_Monitor_with_MOSFETS/V_Batt_Monitor_INPUT*%
X92330000Y-107790000D03*
%TO.P,U2,2,2*%
%TO.N,GND*%
X92330000Y-109790000D03*
%TD*%
D16*
%TO.P,H1,1,1*%
%TO.N,D12*%
X129540000Y-127203200D03*
D15*
%TO.P,H1,2,2*%
%TO.N,D15*%
X129540000Y-124663200D03*
%TO.P,H1,3,3*%
%TO.N,D2*%
X129540000Y-122123200D03*
%TD*%
D11*
%TO.P,SW3,1,1*%
%TO.N,VBAT*%
X94470000Y-97270000D03*
D18*
%TO.P,SW3,2,2*%
%TO.N,Net-(D2-C)*%
X94470000Y-94270000D03*
%TO.P,SW3,3,3*%
%TO.N,unconnected-(SW3-Pad3)*%
X94470000Y-91270000D03*
D19*
%TO.P,SW3,4,4*%
%TO.N,GND*%
X94470000Y-88470000D03*
%TO.P,SW3,5,5*%
X94470000Y-100070000D03*
%TD*%
D11*
%TO.P,H5,1,1*%
%TO.N,GND*%
X137160000Y-142468600D03*
D12*
%TO.P,H5,2,2*%
%TO.N,D18*%
X137160000Y-145008600D03*
%TO.P,H5,3,3*%
%TO.N,D19*%
X137160000Y-147548600D03*
%TO.P,H5,4,4*%
%TO.N,+3V3*%
X137160000Y-150088600D03*
%TO.P,H5,5,5*%
%TO.N,GND*%
X137160000Y-152628600D03*
%TO.P,H5,6,6*%
%TO.N,D23*%
X137160000Y-155168600D03*
%TD*%
D20*
%TO.P,U4,*%
%TO.N,*%
X167735600Y-105643500D03*
X152501600Y-105643500D03*
D15*
%TO.P,U4,1,VCC*%
%TO.N,+3V3*%
X167741600Y-87126000D03*
D16*
%TO.P,U4,2,GND*%
%TO.N,GND*%
X165201600Y-87125000D03*
D15*
%TO.P,U4,3,SCL*%
%TO.N,D22*%
X162661600Y-87124000D03*
%TO.P,U4,4,SDA*%
%TO.N,D21*%
X160121600Y-87123000D03*
%TO.P,U4,5,INT*%
%TO.N,unconnected-(U4-INT-Pad5)*%
X157581600Y-87122000D03*
%TO.P,U4,6,RST*%
%TO.N,unconnected-(U4-RST-Pad6)*%
X155041600Y-87121000D03*
%TO.P,U4,7,32K*%
%TO.N,unconnected-(U4-32K-Pad7)*%
X152501600Y-87120000D03*
%TD*%
D21*
%TO.N,GND*%
X104927400Y-147751800D03*
X121300000Y-103930000D03*
%TO.N,+3V3*%
X104394000Y-137134600D03*
X104385600Y-129260600D03*
%TO.N,GND*%
X99051600Y-134467600D03*
X88823800Y-120599200D03*
X94411800Y-77649200D03*
X164185600Y-134137400D03*
X88874600Y-123698000D03*
X140817600Y-95127000D03*
X131724400Y-152518700D03*
X168148000Y-112649000D03*
X119024400Y-152467900D03*
X100685600Y-119546750D03*
X119913400Y-144212900D03*
X93776800Y-134721600D03*
X136855200Y-110693200D03*
X88849200Y-117348000D03*
X125360000Y-104240000D03*
X134213600Y-104902000D03*
X132181600Y-145101900D03*
X168198800Y-134137400D03*
X129622000Y-106405000D03*
X166293800Y-134366000D03*
X97010000Y-123510000D03*
X103124000Y-101854000D03*
X153111200Y-134162800D03*
X156895800Y-134188200D03*
X136804400Y-104444800D03*
X125526800Y-133773500D03*
X155092400Y-134315200D03*
X121666000Y-115062000D03*
X141122400Y-80467200D03*
%TO.N,IO0*%
X137007600Y-77114400D03*
X132613400Y-76276200D03*
X101422200Y-111683800D03*
%TO.N,ENA*%
X88906600Y-86537800D03*
X87782400Y-102235000D03*
%TO.N,+3V3*%
X121716800Y-111099600D03*
X131064000Y-105109200D03*
X131354200Y-87238200D03*
X120675625Y-61878400D03*
X114274600Y-86614000D03*
X136804400Y-99263200D03*
X156464000Y-128346200D03*
X167741600Y-84582000D03*
X164675800Y-112504200D03*
X97739200Y-129794000D03*
%TO.N,D15*%
X133620000Y-79670000D03*
%TO.N,D2*%
X119874600Y-134162800D03*
X132530000Y-78418400D03*
%TO.N,D14*%
X116510000Y-116433600D03*
X115350000Y-76809600D03*
%TO.N,/Battery_Voltage_Monitor_with_MOSFETS/V_Batt_Monitor_INPUT*%
X89916000Y-99872800D03*
%TO.N,EXT_5V*%
X104970400Y-142951200D03*
X105882925Y-97358200D03*
X88650300Y-136194800D03*
X97383600Y-141351000D03*
%TO.N,D12*%
X127355600Y-122072400D03*
X124961600Y-77118400D03*
%TO.N,D13*%
X128390000Y-79640000D03*
%TO.N,D4*%
X138108400Y-75848400D03*
X139827000Y-114655600D03*
%TO.N,D26*%
X113944400Y-73300000D03*
X111760000Y-79502000D03*
%TO.N,D27*%
X113400000Y-79476600D03*
X115290600Y-74540000D03*
%TO.N,D22*%
X137007600Y-63140000D03*
X152781000Y-123393200D03*
X163830000Y-128219200D03*
X146431000Y-68961000D03*
X161594800Y-111150400D03*
%TO.N,D23*%
X136982200Y-61878400D03*
%TO.N,D21*%
X154609800Y-127076200D03*
X160121600Y-108762800D03*
X137033000Y-66960000D03*
X146329400Y-72034400D03*
X165125400Y-126949200D03*
%TO.N,D5*%
X150266400Y-92456000D03*
X142621000Y-92456000D03*
X171399200Y-104643000D03*
X138239500Y-73291700D03*
%TO.N,D19*%
X138988800Y-69510000D03*
%TO.N,D18*%
X137261600Y-70768400D03*
%TO.N,D33*%
X110185200Y-79502000D03*
X111928700Y-73041300D03*
%TO.N,D35*%
X120040000Y-68198600D03*
%TO.N,D32*%
X118890000Y-69500000D03*
%TO.N,DN*%
X94716600Y-119275050D03*
X94716600Y-121942050D03*
%TO.N,/micro_SD-CARD_enable/3V3_Input_to_micro_SD-CARD*%
X123325550Y-132926750D03*
X127660400Y-136144000D03*
X118259600Y-135636000D03*
X121056400Y-135399100D03*
X124167900Y-127444500D03*
X130204600Y-133502400D03*
%TO.N,D25*%
X102646000Y-71992000D03*
X115341400Y-72038400D03*
%TO.N,D-*%
X96046549Y-117665250D03*
X99466400Y-121068050D03*
%TO.N,TXD0*%
X99974400Y-102971600D03*
X104902000Y-116651800D03*
X96799400Y-102920800D03*
X131316100Y-62841500D03*
%TO.N,RXD0*%
X103606600Y-116865150D03*
X132410200Y-65688400D03*
%TO.N,/Buck-Boost3.3V/Buck-Boost_INPUT*%
X121501100Y-100549900D03*
X128516967Y-105098167D03*
%TD*%
D22*
%TO.N,D32*%
X115969600Y-145879000D02*
X114858800Y-146989800D01*
%TO.N,D35*%
X117159600Y-147229000D02*
X114858800Y-149529800D01*
%TO.N,IO0*%
X130860800Y-74523600D02*
X132600700Y-76263500D01*
X123494800Y-74523600D02*
X130860800Y-74523600D01*
X121310400Y-72339200D02*
X123494800Y-74523600D01*
X121310400Y-67411600D02*
X121310400Y-72339200D01*
X101422200Y-71145400D02*
X105765600Y-66802000D01*
X101422200Y-111683800D02*
X101422200Y-71145400D01*
X105765600Y-66802000D02*
X120700800Y-66802000D01*
X120700800Y-66802000D02*
X121310400Y-67411600D01*
X136307600Y-124612400D02*
X136310000Y-124610000D01*
X135991600Y-124612400D02*
X136307600Y-124612400D01*
%TO.N,D23*%
X137961400Y-155168600D02*
X137960000Y-155170000D01*
X139107500Y-155168600D02*
X137961400Y-155168600D01*
%TO.N,D19*%
X139488500Y-147548600D02*
X137961400Y-147548600D01*
X137961400Y-147548600D02*
X137960000Y-147550000D01*
%TO.N,D18*%
X137961400Y-145008600D02*
X137960000Y-145010000D01*
X139488500Y-145008600D02*
X137961400Y-145008600D01*
%TO.N,D13*%
X122500000Y-121543200D02*
X122500000Y-121550000D01*
X124110000Y-119933200D02*
X122500000Y-121543200D01*
%TO.N,D2*%
X129540000Y-115430000D02*
X129540000Y-121310000D01*
X126365000Y-125239100D02*
X128930000Y-122674100D01*
%TO.N,D15*%
X131840000Y-122390000D02*
X130130000Y-124100000D01*
X131840000Y-122363200D02*
X131840000Y-122390000D01*
%TO.N,D13*%
X124110000Y-91150000D02*
X124110000Y-119933200D01*
X128390000Y-86870000D02*
X124110000Y-91150000D01*
X128390000Y-79640000D02*
X128390000Y-86870000D01*
%TO.N,IO0*%
X137922000Y-78028800D02*
X137922000Y-115468400D01*
X135255000Y-118135400D02*
X135255000Y-123875800D01*
X135255000Y-123875800D02*
X135991600Y-124612400D01*
X137007600Y-77114400D02*
X137922000Y-78028800D01*
X137922000Y-115468400D02*
X135255000Y-118135400D01*
%TO.N,ENA*%
X87045800Y-88447800D02*
X88900000Y-86593600D01*
X87782400Y-102209600D02*
X87045800Y-101473000D01*
X87045800Y-101473000D02*
X87045800Y-88447800D01*
X87782400Y-102235000D02*
X87782400Y-102209600D01*
%TO.N,D15*%
X135661400Y-87161400D02*
X135661400Y-111818600D01*
X133620000Y-79670000D02*
X133620000Y-85120000D01*
X135661400Y-111818600D02*
X131840000Y-115640000D01*
X133620000Y-85120000D02*
X135661400Y-87161400D01*
X133630000Y-79660000D02*
X133620000Y-79670000D01*
X131840000Y-115640000D02*
X131840000Y-122363200D01*
%TO.N,D2*%
X132970000Y-112000000D02*
X132970000Y-86490000D01*
X132970000Y-86490000D02*
X132530000Y-86050000D01*
X119902900Y-134134500D02*
X126365000Y-127672400D01*
X129540000Y-115430000D02*
X132970000Y-112000000D01*
X132530000Y-86050000D02*
X132530000Y-78418400D01*
X132530000Y-78418400D02*
X132560000Y-78388400D01*
X126365000Y-127672400D02*
X126365000Y-125239100D01*
X119874600Y-134134500D02*
X119902900Y-134134500D01*
%TO.N,D14*%
X115350000Y-76809600D02*
X115350000Y-83820000D01*
X116510000Y-84980000D02*
X116510000Y-116433600D01*
X115350000Y-83820000D02*
X116510000Y-84980000D01*
X115350000Y-76657200D02*
X115350000Y-76809600D01*
X116510000Y-116433600D02*
X116510000Y-116452400D01*
%TO.N,D12*%
X127355600Y-122072400D02*
X127355600Y-96844400D01*
X128208400Y-77118400D02*
X125018400Y-77118400D01*
X127355600Y-96844400D02*
X129670000Y-94530000D01*
X125018400Y-77118400D02*
X124990000Y-77090000D01*
X129670000Y-94530000D02*
X129670000Y-78580000D01*
X129670000Y-78580000D02*
X128208400Y-77118400D01*
%TO.N,D4*%
X138120000Y-75860000D02*
X138150000Y-75890000D01*
X138150000Y-75890000D02*
X138247000Y-75890000D01*
X138247000Y-75890000D02*
X139827000Y-77470000D01*
X139827000Y-77470000D02*
X139827000Y-114655600D01*
%TO.N,D26*%
X113944400Y-73300000D02*
X113870000Y-73300000D01*
X113870000Y-73300000D02*
X111760000Y-75410000D01*
X111760000Y-75410000D02*
X111760000Y-79502000D01*
%TO.N,D27*%
X113400000Y-75750000D02*
X114610000Y-74540000D01*
X114610000Y-74540000D02*
X115290600Y-74540000D01*
X115290600Y-74540000D02*
X115320000Y-74540000D01*
X113400000Y-79465600D02*
X113400000Y-75750000D01*
%TO.N,D22*%
X163804600Y-128193800D02*
X163804600Y-113360200D01*
X146431000Y-68961000D02*
X140610000Y-63140000D01*
X140610000Y-63140000D02*
X137007600Y-63140000D01*
X137007600Y-63140000D02*
X136960000Y-63140000D01*
X163804600Y-113360200D02*
X161594800Y-111150400D01*
X146456400Y-68986400D02*
X146431000Y-68961000D01*
X152781000Y-123367800D02*
X152781000Y-119964200D01*
X152781000Y-119964200D02*
X161594800Y-111150400D01*
X163830000Y-128219200D02*
X163804600Y-128193800D01*
%TO.N,D23*%
X148386800Y-145889300D02*
X148386800Y-67868800D01*
X139107500Y-155168600D02*
X148386800Y-145889300D01*
X142396400Y-61878400D02*
X136998400Y-61878400D01*
X148386800Y-67868800D02*
X142396400Y-61878400D01*
%TO.N,D21*%
X137033000Y-66960000D02*
X136990000Y-66960000D01*
X166547800Y-125526800D02*
X165125400Y-126949200D01*
X160274000Y-108915200D02*
X164287200Y-108915200D01*
X154609800Y-127076200D02*
X153009600Y-127076200D01*
X141270000Y-66975000D02*
X141270000Y-66960000D01*
X164287200Y-108915200D02*
X166547800Y-111175800D01*
X150571200Y-124637800D02*
X150571200Y-118414800D01*
X146329400Y-72034400D02*
X141270000Y-66975000D01*
X160121600Y-108864400D02*
X160121600Y-108762800D01*
X166547800Y-111175800D02*
X166547800Y-125526800D01*
X160121600Y-108762800D02*
X160274000Y-108915200D01*
X141270000Y-66960000D02*
X137033000Y-66960000D01*
X146367500Y-72072500D02*
X146329400Y-72034400D01*
X150571200Y-118414800D02*
X160121600Y-108864400D01*
X153009600Y-127076200D02*
X150571200Y-124637800D01*
%TO.N,D5*%
X161036000Y-92456000D02*
X150266400Y-92456000D01*
X142494000Y-92329000D02*
X142621000Y-92456000D01*
X142494000Y-77546200D02*
X142494000Y-92329000D01*
X171384000Y-104658200D02*
X171399200Y-104643000D01*
X138239500Y-73291700D02*
X142494000Y-77546200D01*
X171399200Y-102819200D02*
X161036000Y-92456000D01*
X138214100Y-73266300D02*
X138239500Y-73291700D01*
X171399200Y-104643000D02*
X171399200Y-102819200D01*
X150266400Y-92456000D02*
X150241000Y-92456000D01*
%TO.N,D19*%
X138988800Y-69510000D02*
X140600000Y-69510000D01*
X138938000Y-69510000D02*
X138988800Y-69510000D01*
X146354800Y-140682300D02*
X139488500Y-147548600D01*
X140600000Y-69510000D02*
X146354800Y-75264800D01*
X146354800Y-75264800D02*
X146354800Y-140682300D01*
%TO.N,D18*%
X144150000Y-76000000D02*
X144150000Y-140347100D01*
X138918400Y-70768400D02*
X144150000Y-76000000D01*
X144150000Y-140347100D02*
X139488500Y-145008600D01*
X137287000Y-70768400D02*
X138918400Y-70768400D01*
%TO.N,D33*%
X110185200Y-74784800D02*
X110185200Y-79502000D01*
X111928700Y-73041300D02*
X110185200Y-74784800D01*
%TO.N,D35*%
X120040000Y-68198600D02*
X120040000Y-120399100D01*
X117159600Y-123279500D02*
X117159600Y-147229000D01*
X119964200Y-68122800D02*
X120040000Y-68198600D01*
X120040000Y-120399100D02*
X117159600Y-123279500D01*
%TO.N,D32*%
X118890000Y-69500000D02*
X118030000Y-70360000D01*
X118030000Y-119807300D02*
X115969600Y-121867700D01*
X118030000Y-70360000D02*
X118030000Y-119807300D01*
X115969600Y-121867700D02*
X115969600Y-145879000D01*
%TO.N,DN*%
X94716600Y-119275050D02*
X94716600Y-121942050D01*
%TO.N,D25*%
X115295000Y-71992000D02*
X102738800Y-71992000D01*
X115341400Y-72038400D02*
X115295000Y-71992000D01*
X102738800Y-71992000D02*
X102692400Y-72038400D01*
%TO.N,D-*%
X96046549Y-117683999D02*
X96046549Y-117665250D01*
X99415600Y-121053050D02*
X96046549Y-117683999D01*
%TO.N,TXD0*%
X100699950Y-115508150D02*
X99974400Y-114782600D01*
X99974400Y-114782600D02*
X99974400Y-102971600D01*
X96799400Y-70260600D02*
X102667000Y-64393000D01*
X131316100Y-62841500D02*
X131343600Y-62869000D01*
X96799400Y-102920800D02*
X96799400Y-70260600D01*
X99974400Y-102971600D02*
X99949000Y-102946200D01*
X104902000Y-116447950D02*
X103962200Y-115508150D01*
X103962200Y-115508150D02*
X100699950Y-115508150D01*
X130829600Y-62355000D02*
X131316100Y-62841500D01*
X102667000Y-64393000D02*
X119913600Y-64393000D01*
X121951600Y-62355000D02*
X130829600Y-62355000D01*
X96799400Y-102946200D02*
X96799400Y-102920800D01*
X104902000Y-116651800D02*
X104902000Y-116447950D01*
X119913600Y-64393000D02*
X121951600Y-62355000D01*
%TO.N,RXD0*%
X103592000Y-116879750D02*
X103606600Y-116865150D01*
X100318950Y-116879750D02*
X103592000Y-116879750D01*
X104642200Y-65415000D02*
X98628200Y-71429000D01*
X120872800Y-65415000D02*
X104642200Y-65415000D01*
X98628200Y-71429000D02*
X98628200Y-115189000D01*
X98628200Y-115189000D02*
X100318950Y-116879750D01*
X132378400Y-65681800D02*
X130327600Y-63631000D01*
X132378400Y-65695000D02*
X132378400Y-65681800D01*
X122656800Y-63631000D02*
X120872800Y-65415000D01*
X130327600Y-63631000D02*
X122656800Y-63631000D01*
%TD*%
M02*
