%TF.GenerationSoftware,KiCad,Pcbnew,9.0.1*%
%TF.CreationDate,2025-06-13T19:07:15+02:00*%
%TF.ProjectId,MY-ESP32,4d592d45-5350-4333-922e-6b696361645f,1*%
%TF.SameCoordinates,Original*%
%TF.FileFunction,Soldermask,Bot*%
%TF.FilePolarity,Negative*%
%FSLAX46Y46*%
G04 Gerber Fmt 4.6, Leading zero omitted, Abs format (unit mm)*
G04 Created by KiCad (PCBNEW 9.0.1) date 2025-06-13 19:07:15*
%MOMM*%
%LPD*%
G01*
G04 APERTURE LIST*
G04 Aperture macros list*
%AMRoundRect*
0 Rectangle with rounded corners*
0 $1 Rounding radius*
0 $2 $3 $4 $5 $6 $7 $8 $9 X,Y pos of 4 corners*
0 Add a 4 corners polygon primitive as box body*
4,1,4,$2,$3,$4,$5,$6,$7,$8,$9,$2,$3,0*
0 Add four circle primitives for the rounded corners*
1,1,$1+$1,$2,$3*
1,1,$1+$1,$4,$5*
1,1,$1+$1,$6,$7*
1,1,$1+$1,$8,$9*
0 Add four rect primitives between the rounded corners*
20,1,$1+$1,$2,$3,$4,$5,0*
20,1,$1+$1,$4,$5,$6,$7,0*
20,1,$1+$1,$6,$7,$8,$9,0*
20,1,$1+$1,$8,$9,$2,$3,0*%
G04 Aperture macros list end*
%ADD10RoundRect,0.100000X-0.900000X0.900000X-0.900000X-0.900000X0.900000X-0.900000X0.900000X0.900000X0*%
%ADD11C,1.800000*%
%ADD12C,1.900000*%
%ADD13RoundRect,0.100000X-0.850000X0.850000X-0.850000X-0.850000X0.850000X-0.850000X0.850000X0.850000X0*%
%ADD14C,1.775000*%
%ADD15RoundRect,0.100000X0.787500X-0.787500X0.787500X0.787500X-0.787500X0.787500X-0.787500X-0.787500X0*%
%ADD16RoundRect,0.100000X0.850000X-0.850000X0.850000X0.850000X-0.850000X0.850000X-0.850000X-0.850000X0*%
%ADD17C,3.400000*%
%ADD18C,0.850000*%
%ADD19C,1.600000*%
%ADD20RoundRect,0.100000X0.900000X-0.900000X0.900000X0.900000X-0.900000X0.900000X-0.900000X-0.900000X0*%
%ADD21C,2.000000*%
%ADD22O,2.700000X1.400000*%
%ADD23C,3.775000*%
%ADD24RoundRect,0.100000X-0.787500X0.787500X-0.787500X-0.787500X0.787500X-0.787500X0.787500X0.787500X0*%
G04 APERTURE END LIST*
D10*
%TO.C,H6*%
X114300000Y-142468600D03*
D11*
X114300000Y-145008600D03*
X114300000Y-147548600D03*
X114300000Y-150088600D03*
X114300000Y-152628600D03*
X114300000Y-155168600D03*
%TD*%
D12*
%TO.C,H4*%
X114300000Y-124637800D03*
D13*
X114300000Y-122097800D03*
D12*
X114300000Y-127177800D03*
X114300000Y-129717800D03*
%TD*%
D14*
%TO.C,H2*%
X121920000Y-122123200D03*
X121920000Y-124663200D03*
D15*
X121920000Y-127203200D03*
%TD*%
D16*
%TO.C,H3*%
X137160000Y-129692400D03*
D12*
X137160000Y-127152400D03*
X137160000Y-124612400D03*
X137160000Y-122072400D03*
%TD*%
D13*
%TO.C,H8*%
X137160000Y-134772400D03*
D12*
X137160000Y-137312400D03*
%TD*%
D17*
%TO.C,H10*%
X171348000Y-58166000D03*
%TD*%
D18*
%TO.C,U7*%
X92285000Y-117650000D03*
X92285000Y-123430000D03*
%TD*%
D16*
%TO.C,H7*%
X114300000Y-137312400D03*
D12*
X114300000Y-134772400D03*
%TD*%
D17*
%TO.C,H12*%
X171069000Y-152323800D03*
%TD*%
D19*
%TO.C,U2*%
X92330000Y-107790000D03*
X92330000Y-109790000D03*
%TD*%
D15*
%TO.C,H1*%
X129540000Y-127203200D03*
D14*
X129540000Y-124663200D03*
X129540000Y-122123200D03*
%TD*%
D20*
%TO.C,SW3*%
X94470000Y-97270000D03*
D21*
X94470000Y-94270000D03*
X94470000Y-91270000D03*
D22*
X94470000Y-88470000D03*
X94470000Y-100070000D03*
%TD*%
D17*
%TO.C,H9*%
X90678000Y-58293000D03*
%TD*%
%TO.C,H11*%
X90678000Y-152323800D03*
%TD*%
D10*
%TO.C,H5*%
X137160000Y-142468600D03*
D11*
X137160000Y-145008600D03*
X137160000Y-147548600D03*
X137160000Y-150088600D03*
X137160000Y-152628600D03*
X137160000Y-155168600D03*
%TD*%
D23*
%TO.C,U4*%
X167735600Y-105643500D03*
X152501600Y-105643500D03*
D14*
X167741600Y-87126000D03*
D24*
X165201600Y-87125000D03*
D14*
X162661600Y-87124000D03*
X160121600Y-87123000D03*
X157581600Y-87122000D03*
X155041600Y-87121000D03*
X152501600Y-87120000D03*
%TD*%
M02*
